<svg xmlns="http://www.w3.org/2000/svg" viewBox="0 0 1198 1670" color-interpolation-filters="sRGB" fill="none" fill-rule="evenodd" font-size="12" overflow="visible" stroke-linecap="square" stroke-miterlimit="3"><style>.st2{fill:none;stroke:none;stroke-linecap:butt;stroke-width:.75}.st3{fill:#000;font-family:Merriweather;font-size:7.00861em}.st4{font-size:1em}.st11,.st12,.st13,.st14,.st6,.st8{fill:#76b9bf;stroke:none;stroke-linecap:butt;stroke-width:2.25279}.st11,.st12,.st13,.st14,.st8{fill:#fff}.st11,.st12,.st13,.st14{fill:#c41622}.st12,.st13,.st14{fill:#a9c937}.st13,.st14{fill:#7bade0}.st14{fill:#cbcbcb}</style><g id="group34-1" transform="translate(2.248 -2.248)"><g id="shape1-2"><path fill="#dedede" stroke-linecap="butt" stroke-width="2.248" d="M0 4.496h1193.55v1685.25H0z"/></g><g id="shape2-4" transform="translate(90 -138.42)"><path class="st2" d="M0 1468.17h1030.84v221.58H0z"/><text y="1543.86" class="st3">MORE <tspan x="0" dy="1.2em" class="st4">INTERDISCIPLINARITY</tspan></text></g><g id="shape3-8" transform="translate(75.197 -1316.25)"><path class="st2" d="M0 1497.56h1001.61v192.181H0z"/><text y="1573.26" class="st3">REPRODUCIBILITY OF <tspan x="0" dy="1.2em" class="st4">SCIENCE</tspan></text></g><g id="shape4-12" transform="translate(325.396 -571.151)"><path d="M12.05 1363.98h518.82c6.68 0 11.89 5.38 11.89 12.07v313.7H0v-313.7c0-6.69 5.36-12.07 12.04-12.07h.01z" fill="#191b27" stroke-linecap="butt" stroke-width="2.253"/></g><g id="shape5-14" transform="translate(341.951 -589.997)"><path class="st6" d="M0 1401.52h509.648v288.222H0z"/></g><g id="shape6-16" transform="translate(405.479 -821.103)"><path fill="#676b74" stroke-linecap="butt" stroke-width="2.253" d="M0 1673.41h382.636v16.34H0z"/></g><g id="shape7-18" transform="translate(504.332 -825.091)"><path class="st8" d="M0 1681.45h195.961v8.297H0z"/></g><g id="shape8-20" transform="translate(417.3 -825.185)"><path d="M8.3 1685.6a4.149 4.149 0 01-4.15 4.15A4.149 4.149 0 010 1685.6a4.149 4.149 0 014.15-4.15 4.149 4.149 0 014.15 4.15z" fill="#d45500" stroke-linecap="butt" stroke-width="2.253"/></g><g id="shape9-22" transform="translate(430.546 -825.185)"><path d="M8.3 1685.6a4.149 4.149 0 01-4.15 4.15A4.149 4.149 0 010 1685.6a4.149 4.149 0 014.15-4.15 4.149 4.149 0 014.15 4.15z" class="st8"/></g><g id="shape10-24" transform="translate(443.77 -825.185)"><path d="M8.3 1685.6a4.149 4.149 0 01-4.15 4.15A4.149 4.149 0 010 1685.6a4.149 4.149 0 014.15-4.15 4.149 4.149 0 014.15 4.15z" class="st6"/></g><g id="shape11-26" transform="translate(397.093 -436.592)"><path d="M14.29 1659.03H385.1c7.91 0 14.29 6.69 14.29 15v.71c0 8.31-6.38 15.01-14.29 15.01H14.29c-7.92 0-14.29-6.7-14.29-15.01v-.71c0-8.31 6.37-15 14.29-15z" fill="#c7c7c7" stroke-linecap="butt" stroke-width="2.253"/></g><g id="shape12-28" transform="translate(325.415 -458.56)"><path d="M0 1577.14v39.46c0 .98 5.36 8.05 12.04 8.05H216.9l-13.29 55.62h-19.15c-2.61 0-4.02 1.89-4.02 3.8v5.68h180.93v-5.68c0-2.35-1.71-3.8-3.97-3.8h-18.26l-12.82-55.62h204.53c6.69 0 11.9-7.07 11.9-8.05v-39.46H0z" class="st8"/></g><g id="shape13-30" transform="translate(405.479 -614.294)"><path class="st8" d="M0 1483.04h382.636v206.705H0z"/></g><g id="shape14-32" transform="translate(456.347 -642.758)"><path class="st11" d="M0 1622.79h16.202v66.953H0z"/></g><g id="shape15-34" transform="translate(478.65 -642.854)"><path class="st12" d="M0 1601.94h16.202v87.807H0z"/></g><g id="shape16-36" transform="translate(434.067 -642.859)"><path class="st13" d="M0 1556.44h16.202v133.309H0z"/></g><g id="shape17-38" transform="translate(536.457 -642.735)"><path class="st11" d="M0 1658.82h16.202v30.931H0z"/></g><g id="shape18-40" transform="translate(558.737 -642.76)"><path class="st12" d="M0 1641.04h16.202v48.703H0z"/></g><g id="shape19-42" transform="translate(514.176 -642.812)"><path class="st13" d="M0 1580.27h16.202v109.477H0z"/></g><g id="shape20-44" transform="translate(616.566 -642.888)"><path class="st11" d="M0 1623.15h16.202v66.597H0z"/></g><g id="shape21-46" transform="translate(638.846 -642.809)"><path class="st12" d="M0 1634.78h16.202v54.961H0z"/></g><g id="shape22-48" transform="translate(594.263 -642.771)"><path class="st13" d="M0 1641.96h16.202v47.791H0z"/></g><g id="shape23-50" transform="translate(686.064 -754.588)"><path class="st14" d="M0 1683.26h52.828v6.486H0z"/></g><g id="shape24-52" transform="translate(686.06 -744.226)"><path class="st14" d="M0 1683.26h73.445v6.486H0z"/></g><g id="shape25-54" transform="translate(686.062 -733.638)"><path class="st14" d="M0 1683.26h59.701v6.486H0z"/></g><g id="shape26-56" transform="translate(686.064 -723.275)"><path class="st14" d="M0 1683.26h52.828v6.486H0z"/></g><g id="shape27-58" transform="translate(686.055 -712.912)"><path class="st14" d="M0 1683.26h33.868v6.486H0z"/></g><g id="shape28-60" transform="translate(686.062 -702.324)"><path class="st14" d="M0 1683.26h59.701v6.486H0z"/></g><g id="shape29-62" transform="translate(686.051 -673.488)"><path class="st14" d="M0 1683.26h53.54v6.486H0z"/></g><g id="shape30-64" transform="translate(686.062 -663.125)"><path class="st14" d="M0 1683.26h73.083v6.486H0z"/></g><g id="shape31-66" transform="translate(686.062 -652.537)"><path class="st14" d="M0 1683.26h59.701v6.486H0z"/></g><g id="shape32-68" transform="translate(593.36 -883.343)"><path d="M6.87 1686.31a3.436 3.436 0 01-3.43 3.44 3.436 3.436 0 01-3.44-3.44 3.436 3.436 0 013.44-3.44 3.436 3.436 0 013.43 3.44z" class="st8"/></g><g id="shape33-70" transform="translate(54 -1001.25)"><path class="st2" d="M0 1503h1068.75v186.75H0z"/><text x="185.16" y="1578.69" class="st3">MORE SERVICES FOR <tspan x="587.01" dy="1.2em" class="st4">END USERS</tspan></text></g></g></svg>