<?xml version="1.0" encoding="UTF-8" standalone="no"?>
<!DOCTYPE svg PUBLIC "-//W3C//DTD SVG 1.1//EN" "http://www.w3.org/Graphics/SVG/1.1/DTD/svg11.dtd">
<!-- Generated by Microsoft Visio, SVG Export _biologist_.svg Page-1 -->
<svg xmlns="http://www.w3.org/2000/svg" xmlns:xlink="http://www.w3.org/1999/xlink" xmlns:ev="http://www.w3.org/2001/xml-events"
		xmlns:v="http://schemas.microsoft.com/visio/2003/SVGExtensions/" width="16.6397in" height="11.8162in"
		viewBox="0 0 1198.06 850.767" xml:space="preserve" color-interpolation-filters="sRGB" class="st15">
	<v:documentProperties v:langID="1033" v:viewMarkup="false"/>

	<style type="text/css">
	<![CDATA[
		.st1 {fill:#f4f144;stroke:none;stroke-linecap:butt;stroke-width:2.25279}
		.st2 {fill:#e7dd26;stroke:none;stroke-linecap:butt;stroke-width:2.25279}
		.st3 {fill:#a9c937;stroke:none;stroke-linecap:butt;stroke-width:2.25279}
		.st4 {fill:#1b88cd;stroke:none;stroke-linecap:butt;stroke-width:2.25279}
		.st5 {fill:#efd520;stroke:none;stroke-linecap:butt;stroke-width:2.25279}
		.st6 {fill:#1275ac;stroke:none;stroke-linecap:butt;stroke-width:2.25279}
		.st7 {fill:#a71520;stroke:none;stroke-linecap:butt;stroke-width:2.25279}
		.st8 {fill:#c52433;stroke:none;stroke-linecap:butt;stroke-width:2.25279}
		.st9 {fill:#3ba7e5;stroke:none;stroke-linecap:butt;stroke-width:2.25279}
		.st10 {fill:#c41622;stroke:none;stroke-linecap:butt;stroke-width:2.25279}
		.st11 {fill:none;stroke:none;stroke-linecap:butt;stroke-width:0.75}
		.st12 {fill:#000000;font-family:Merriweather;font-size:9em}
		.st13 {fill:#ffffff;stroke:none;stroke-linecap:butt;stroke-width:2.25279}
		.st14 {fill:#000000;font-family:Roboto;font-size:3.75465em}
		.st15 {fill:none;fill-rule:evenodd;font-size:12px;overflow:visible;stroke-linecap:square;stroke-miterlimit:3}
	]]>
	</style>

	<g v:mID="0" v:index="1" v:groupContext="foregroundPage">
		<title>Page-1</title>
		<v:pageProperties v:drawingScale="1" v:pageScale="1" v:drawingUnits="19" v:shadowOffsetX="9" v:shadowOffsetY="-9"/>
		<g id="group253-1" transform="translate(2.25279,-2.25279)" v:mID="253" v:groupContext="group">
			<title>Sheet.253</title>
			<g id="shape189-2" v:mID="189" v:groupContext="shape">
				<title>path12</title>
				<rect x="0" y="4.50734" width="1193.55" height="846.26" class="st1"/>
			</g>
			<g id="shape190-4" v:mID="190" v:groupContext="shape">
				<title>path14</title>
				<path d="M0 4.51 L1193.55 850.77 L0 850.77 L0 4.51 Z" class="st2"/>
			</g>
			<g id="shape191-6" v:mID="191" v:groupContext="shape" transform="translate(588.884,-566.1)">
				<title>path92</title>
				<path d="M15.81 828.51 L133.81 828.51 C140.3 828.51 145.52 833.47 145.52 839.64 C145.52 845.8 140.3 850.77 133.81
							 850.77 L0 850.77 C0 846.19 0.56 839.64 7.56 839.64 C14.42 839.64 15.81 833.19 15.81 828.51 Z"
						class="st3"/>
			</g>
			<g id="shape192-8" v:mID="192" v:groupContext="shape" transform="translate(454.721,-604.648)">
				<title>path94</title>
				<path d="M134.16 850.77 L11.71 850.77 C5.22 850.77 0 845.8 0 839.64 C0 833.47 5.22 828.51 11.71 828.51 L149.97 828.51
							 C149.97 833.08 149.41 839.64 142.41 839.64 C135.54 839.64 134.16 846.09 134.16 850.77 Z" class="st4"/>
			</g>
			<g id="shape193-10" v:mID="193" v:groupContext="shape" transform="translate(503.665,-643.194)">
				<title>path96</title>
				<path d="M85.21 850.77 L11.71 850.77 C5.22 850.77 0 845.8 0 839.64 C0 833.47 5.22 828.51 11.71 828.51 L101.02 828.51
							 C101.02 833.08 100.46 839.64 93.46 839.64 C86.6 839.64 85.21 846.09 85.21 850.77 Z" class="st5"/>
			</g>
			<g id="shape194-12" v:mID="194" v:groupContext="shape" transform="translate(588.884,-527.555)">
				<title>path98</title>
				<path d="M15.81 828.51 L89.32 828.51 C95.8 828.51 101.02 833.47 101.02 839.64 C101.02 845.8 95.8 850.77 89.32 850.77
							 L0 850.77 C0 846.19 0.56 839.64 7.56 839.64 C14.42 839.64 15.81 833.19 15.81 828.51 Z" class="st5"/>
			</g>
			<g id="shape195-14" v:mID="195" v:groupContext="shape" transform="translate(588.884,-373.78)">
				<title>path100</title>
				<path d="M15.81 828.51 L133.81 828.51 C140.3 828.51 145.52 833.47 145.52 839.64 C145.52 845.8 140.3 850.77 133.81
							 850.77 L0 850.77 C0 846.19 0.56 839.64 7.56 839.64 C14.42 839.64 15.81 833.19 15.81 828.51 Z"
						class="st3"/>
			</g>
			<g id="shape196-16" v:mID="196" v:groupContext="shape" transform="translate(454.721,-412.328)">
				<title>path102</title>
				<path d="M134.16 850.77 L11.71 850.77 C5.22 850.77 0 845.8 0 839.64 C0 833.47 5.22 828.51 11.71 828.51 L149.97 828.51
							 C149.97 833.08 149.41 839.64 142.41 839.64 C135.54 839.64 134.16 846.09 134.16 850.77 Z" class="st4"/>
			</g>
			<g id="shape197-18" v:mID="197" v:groupContext="shape" transform="translate(503.665,-450.873)">
				<title>path104</title>
				<path d="M85.21 850.77 L11.71 850.77 C5.22 850.77 0 845.8 0 839.64 C0 833.47 5.22 828.51 11.71 828.51 L101.02 828.51
							 C101.02 833.08 100.46 839.64 93.46 839.64 C86.6 839.64 85.21 846.09 85.21 850.77 Z" class="st5"/>
			</g>
			<g id="shape198-20" v:mID="198" v:groupContext="shape" transform="translate(588.884,-335.234)">
				<title>path106</title>
				<path d="M15.81 828.51 L89.32 828.51 C95.8 828.51 101.02 833.47 101.02 839.64 C101.02 845.8 95.8 850.77 89.32 850.77
							 L0 850.77 C0 846.19 0.56 839.64 7.56 839.64 C14.42 839.64 15.81 833.19 15.81 828.51 Z" class="st5"/>
			</g>
			<g id="shape199-22" v:mID="199" v:groupContext="shape" transform="translate(588.884,-181.459)">
				<title>path108</title>
				<path d="M15.81 828.51 L133.81 828.51 C140.3 828.51 145.52 833.47 145.52 839.64 C145.52 845.8 140.3 850.77 133.81
							 850.77 L0 850.77 C0 846.19 0.56 839.64 7.56 839.64 C14.42 839.64 15.81 833.19 15.81 828.51 Z"
						class="st3"/>
			</g>
			<g id="shape200-24" v:mID="200" v:groupContext="shape" transform="translate(454.721,-220.007)">
				<title>path110</title>
				<path d="M134.16 850.77 L11.71 850.77 C5.22 850.77 0 845.8 0 839.64 C0 833.47 5.22 828.51 11.71 828.51 L149.97 828.51
							 C149.97 833.08 149.41 839.64 142.41 839.64 C135.54 839.64 134.16 846.09 134.16 850.77 Z" class="st4"/>
			</g>
			<g id="shape201-26" v:mID="201" v:groupContext="shape" transform="translate(503.665,-258.553)">
				<title>path112</title>
				<path d="M85.21 850.77 L11.71 850.77 C5.22 850.77 0 845.8 0 839.64 C0 833.47 5.22 828.51 11.71 828.51 L101.02 828.51
							 C101.02 833.08 100.46 839.64 93.46 839.64 C86.6 839.64 85.21 846.09 85.21 850.77 Z" class="st5"/>
			</g>
			<g id="shape202-28" v:mID="202" v:groupContext="shape" transform="translate(588.884,-142.914)">
				<title>path114</title>
				<path d="M15.81 828.51 L89.32 828.51 C95.8 828.51 101.02 833.47 101.02 839.64 C101.02 845.8 95.8 850.77 89.32 850.77
							 L0 850.77 C0 846.19 0.56 839.64 7.56 839.64 C14.42 839.64 15.81 833.19 15.81 828.51 Z" class="st5"/>
			</g>
			<g id="shape204-30" v:mID="204" v:groupContext="shape" transform="translate(454.721,-27.6868)">
				<title>path118</title>
				<path d="M134.16 850.77 L11.71 850.77 C5.22 850.77 0 845.8 0 839.64 C0 833.47 5.22 828.51 11.71 828.51 L149.97 828.51
							 C149.97 833.08 149.41 839.64 142.41 839.64 C135.54 839.64 134.16 846.09 134.16 850.77 Z" class="st4"/>
			</g>
			<g id="shape205-32" v:mID="205" v:groupContext="shape" transform="translate(503.665,-66.232)">
				<title>path120</title>
				<path d="M85.21 850.77 L11.71 850.77 C5.22 850.77 0 845.8 0 839.64 C0 833.47 5.22 828.51 11.71 828.51 L101.02 828.51
							 C101.02 833.08 100.46 839.64 93.46 839.64 C86.6 839.64 85.21 846.09 85.21 850.77 Z" class="st5"/>
			</g>
			<g id="shape206-34" v:mID="206" v:groupContext="shape" transform="translate(588.884,-757.632)">
				<title>path122</title>
				<path d="M15.81 828.51 L133.81 828.51 C140.3 828.51 145.52 833.47 145.52 839.64 C145.52 845.8 140.3 850.77 133.81
							 850.77 L0 850.77 C0 846.19 0.56 839.64 7.56 839.64 C14.42 839.64 15.81 833.19 15.81 828.51 Z"
						class="st3"/>
			</g>
			<g id="shape207-36" v:mID="207" v:groupContext="shape" transform="translate(454.721,-796.181)">
				<title>path124</title>
				<path d="M134.16 850.77 L11.71 850.77 C5.22 850.77 0 845.8 0 839.64 C0 833.47 5.22 828.51 11.71 828.51 L149.97 828.51
							 C149.97 833.08 149.41 839.64 142.41 839.64 C135.54 839.64 134.16 846.09 134.16 850.77 Z" class="st4"/>
			</g>
			<g id="shape208-38" v:mID="208" v:groupContext="shape" transform="translate(459.171,-757.635)">
				<title>path126</title>
				<path d="M129.71 850.77 L11.71 850.77 C5.22 850.77 0 845.8 0 839.64 C0 833.47 5.22 828.51 11.71 828.51 L145.52 828.51
							 C145.52 833.08 144.96 839.64 137.96 839.64 C131.09 839.64 129.71 846.09 129.71 850.77 Z" class="st5"/>
			</g>
			<g id="shape209-40" v:mID="209" v:groupContext="shape" transform="translate(503.665,-719.09)">
				<title>path128</title>
				<path d="M85.21 850.77 L11.71 850.77 C5.22 850.77 0 845.8 0 839.64 C0 833.47 5.22 828.51 11.71 828.51 L101.02 828.51
							 C101.02 833.08 100.46 839.64 93.46 839.64 C86.6 839.64 85.21 846.09 85.21 850.77 Z" class="st3"/>
			</g>
			<g id="shape210-42" v:mID="210" v:groupContext="shape" transform="translate(503.665,-834.726)">
				<title>path130</title>
				<path d="M85.21 850.77 L11.71 850.77 C5.22 850.77 0 845.8 0 839.64 C0 839.64 119.24 838.72 93.46 839.64 C93.46 839.64
							 85.21 846.09 85.21 850.77 L85.21 850.77 Z" class="st5"/>
			</g>
			<g id="shape211-44" v:mID="211" v:groupContext="shape" transform="translate(588.884,-719.087)">
				<title>path132</title>
				<path d="M15.81 828.51 L89.32 828.51 C95.8 828.51 101.02 833.47 101.02 839.64 C101.02 845.8 95.8 850.77 89.32 850.77
							 L0 850.77 C0 846.19 0.56 839.64 7.56 839.64 C14.42 839.64 15.81 833.19 15.81 828.51 Z" class="st5"/>
			</g>
			<g id="shape212-46" v:mID="212" v:groupContext="shape" transform="translate(439.019,-26.495)">
				<title>path134</title>
				<path d="M309.2 826.15 C309.2 770.36 104.19 729.66 22.53 657.6 C8.64 667.13 0 680.79 8.23 695.04 C44.8 757.39 185.14
							 766.13 291.65 850.77 C302.23 842.46 309.19 832.21 309.19 826.15 L309.2 826.15 Z" class="st6"/>
			</g>
			<g id="shape213-48" v:mID="213" v:groupContext="shape" transform="translate(439.672,-396.38)">
				<title>path136</title>
				<path d="M309.2 826.15 C309.2 770.36 104.19 729.66 22.53 657.6 C8.64 667.13 0 680.79 8.23 695.04 C44.8 757.39 185.14
							 766.13 291.65 850.77 C302.23 842.46 309.19 832.21 309.19 826.15 L309.2 826.15 Z" class="st6"/>
			</g>
			<g id="shape214-50" v:mID="214" v:groupContext="shape" transform="translate(439.019,-207.259)">
				<title>path138</title>
				<path d="M309.2 826.15 C309.2 770.36 104.19 729.66 22.53 657.6 C8.64 667.13 0 680.79 8.23 695.04 C44.8 757.39 185.14
							 766.13 291.65 850.77 C302.23 842.46 309.19 832.21 309.19 826.15 L309.2 826.15 Z" class="st7"/>
			</g>
			<g id="shape215-52" v:mID="215" v:groupContext="shape" transform="translate(442.515,-4.75785)">
				<title>path140</title>
				<path d="M59.14 850.59 C43.85 841.64 30.07 832.2 18.69 822.16 C7.7 829.69 0 839.82 1.33 850.77 L59.14 850.59 Z"
						class="st7"/>
			</g>
			<g id="shape216-54" v:mID="216" v:groupContext="shape" transform="translate(443.597,-7.34407)">
				<title>path142</title>
				<path d="M0 850.77 L0 795.74 C66.83 712.38 250.31 697.67 305.28 617.89 L305.28 670.66 C253.22 751.16 55.19 770.54
							 0 850.77 L0 850.77 Z" class="st8"/>
			</g>
			<g id="shape217-56" v:mID="217" v:groupContext="shape" transform="translate(440.123,-583.429)">
				<title>path144</title>
				<path d="M309.2 826.15 C309.2 770.36 104.19 729.66 22.53 657.6 C8.64 667.13 0 680.79 8.23 695.04 C44.8 757.39 185.14
							 766.13 291.65 850.77 C302.23 842.46 309.2 832.21 309.2 826.15 L309.2 826.15 Z" class="st7"/>
			</g>
			<g id="shape218-58" v:mID="218" v:groupContext="shape" transform="translate(607.271,-770.952)">
				<title>path146</title>
				<path d="M142.41 826.15 C142.41 810.31 125.89 795.69 100.37 781.22 L0 781.55 C41.62 798.62 85.55 819.52 124.87 850.77
							 C135.45 842.46 142.41 832.21 142.41 826.15 L142.41 826.15 Z" class="st6"/>
			</g>
			<g id="shape219-60" v:mID="219" v:groupContext="shape" transform="translate(444.701,-564.279)">
				<title>path148</title>
				<path d="M0 850.77 L0 795.74 C66.83 712.38 250.31 697.67 305.28 617.89 L305.28 670.66 C253.22 751.16 55.19 770.54
							 0 850.77 L0 850.77 Z" class="st9"/>
			</g>
			<g id="shape220-62" v:mID="220" v:groupContext="shape" transform="translate(444.227,-377.252)">
				<title>path150</title>
				<path d="M0 850.77 L0 795.74 C66.83 712.38 250.31 697.67 305.28 617.89 L305.28 670.66 C253.22 751.16 55.19 770.54
							 0 850.77 L0 850.77 Z" class="st8"/>
			</g>
			<g id="shape221-64" v:mID="221" v:groupContext="shape" transform="translate(443.597,-188.13)">
				<title>path152</title>
				<path d="M0 850.77 L0 795.74 C66.83 712.38 250.31 697.67 305.28 617.89 L305.28 670.66 C253.22 751.16 55.19 770.54
							 0 850.77 L0 850.77 Z" class="st9"/>
			</g>
			<g id="shape222-66" v:mID="222" v:groupContext="shape" transform="translate(688.114,-4.8435)">
				<title>path154</title>
				<path d="M0 850.74 C25.44 837 46.75 821.31 60.28 801.67 L60.28 850.77 L0 850.74 Z" class="st9"/>
			</g>
			<g id="shape223-68" v:mID="223" v:groupContext="shape" transform="translate(445.059,-751.801)">
				<title>path156</title>
				<path d="M0 850.77 L0 795.74 C10.04 783.22 22.7 772.25 37.16 762.38 L150.09 762.29 C88.41 786.74 27.05 811.44 0 850.77
							 L0 850.77 Z" class="st8"/>
			</g>
			<g id="shape224-70" v:mID="224" v:groupContext="shape" transform="translate(459.171,-566.103)">
				<title>path158</title>
				<path d="M129.71 850.77 L11.71 850.77 C5.22 850.77 0 845.8 0 839.64 C0 833.47 5.22 828.51 11.71 828.51 L145.52 828.51
							 C145.52 833.08 144.96 839.64 137.96 839.64 C131.09 839.64 129.71 846.09 129.71 850.77 Z" class="st5"/>
			</g>
			<g id="shape225-72" v:mID="225" v:groupContext="shape" transform="translate(503.665,-527.558)">
				<title>path160</title>
				<path d="M85.21 850.77 L11.71 850.77 C5.22 850.77 0 845.8 0 839.64 C0 833.47 5.22 828.51 11.71 828.51 L101.02 828.51
							 C101.02 833.08 100.46 839.64 93.46 839.64 C86.6 839.64 85.21 846.09 85.21 850.77 Z" class="st3"/>
			</g>
			<g id="shape226-74" v:mID="226" v:groupContext="shape" transform="translate(459.171,-373.783)">
				<title>path162</title>
				<path d="M129.71 850.77 L11.71 850.77 C5.22 850.77 0 845.8 0 839.64 C0 833.47 5.22 828.51 11.71 828.51 L145.52 828.51
							 C145.52 833.08 144.96 839.64 137.96 839.64 C131.09 839.64 129.71 846.09 129.71 850.77 Z" class="st5"/>
			</g>
			<g id="shape227-76" v:mID="227" v:groupContext="shape" transform="translate(503.665,-335.237)">
				<title>path164</title>
				<path d="M85.21 850.77 L11.71 850.77 C5.22 850.77 0 845.8 0 839.64 C0 833.47 5.22 828.51 11.71 828.51 L101.02 828.51
							 C101.02 833.08 100.46 839.64 93.46 839.64 C86.6 839.64 85.21 846.09 85.21 850.77 Z" class="st3"/>
			</g>
			<g id="shape228-78" v:mID="228" v:groupContext="shape" transform="translate(459.171,-181.462)">
				<title>path166</title>
				<path d="M129.71 850.77 L11.71 850.77 C5.22 850.77 0 845.8 0 839.64 C0 833.47 5.22 828.51 11.71 828.51 L145.52 828.51
							 C145.52 833.08 144.96 839.64 137.96 839.64 C131.09 839.64 129.71 846.09 129.71 850.77 Z" class="st5"/>
			</g>
			<g id="shape229-80" v:mID="229" v:groupContext="shape" transform="translate(503.665,-142.917)">
				<title>path168</title>
				<path d="M85.21 850.77 L11.71 850.77 C5.22 850.77 0 845.8 0 839.64 C0 833.47 5.22 828.51 11.71 828.51 L101.02 828.51
							 C101.02 833.08 100.46 839.64 93.46 839.64 C86.6 839.64 85.21 846.09 85.21 850.77 Z" class="st3"/>
			</g>
			<g id="shape231-82" v:mID="231" v:groupContext="shape" transform="translate(588.884,-66.2288)">
				<title>path172</title>
				<path d="M15.81 828.51 L89.32 828.51 C95.8 828.51 101.02 833.47 101.02 839.64 C101.02 845.8 95.8 850.77 89.32 850.77
							 L0 850.77 C0 846.19 0.56 839.64 7.56 839.64 C14.42 839.64 15.81 833.19 15.81 828.51 Z" class="st4"/>
			</g>
			<g id="shape232-84" v:mID="232" v:groupContext="shape" transform="translate(588.884,-258.549)">
				<title>path174</title>
				<path d="M15.81 828.51 L89.32 828.51 C95.8 828.51 101.02 833.47 101.02 839.64 C101.02 845.8 95.8 850.77 89.32 850.77
							 L0 850.77 C0 846.19 0.56 839.64 7.56 839.64 C14.42 839.64 15.81 833.19 15.81 828.51 Z" class="st4"/>
			</g>
			<g id="shape233-86" v:mID="233" v:groupContext="shape" transform="translate(588.884,-450.87)">
				<title>path176</title>
				<path d="M15.81 828.51 L89.32 828.51 C95.8 828.51 101.02 833.47 101.02 839.64 C101.02 845.8 95.8 850.77 89.32 850.77
							 L0 850.77 C0 846.19 0.56 839.64 7.56 839.64 C14.42 839.64 15.81 833.19 15.81 828.51 Z" class="st4"/>
			</g>
			<g id="shape234-88" v:mID="234" v:groupContext="shape" transform="translate(588.884,-643.191)">
				<title>path178</title>
				<path d="M15.81 828.51 L89.32 828.51 C95.8 828.51 101.02 833.47 101.02 839.64 C101.02 845.8 95.8 850.77 89.32 850.77
							 L0 850.77 C0 846.19 0.56 839.64 7.56 839.64 C14.42 839.64 15.81 833.19 15.81 828.51 Z" class="st4"/>
			</g>
			<g id="shape235-90" v:mID="235" v:groupContext="shape" transform="translate(588.87,-834.724)">
				<title>path180</title>
				<path d="M101.02 839.64 C101.02 845.8 95.8 850.77 89.32 850.77 L0 850.77 C0 846.19 0.56 839.64 7.56 839.64 L101.02
							 839.64 Z" class="st4"/>
			</g>
			<g id="shape236-92" v:mID="236" v:groupContext="shape" transform="translate(588.884,-796.177)">
				<title>path184</title>
				<path d="M15.81 828.51 L138.26 828.51 C144.75 828.51 149.97 833.47 149.97 839.64 C149.97 845.8 144.75 850.77 138.26
							 850.77 L0 850.77 C0 846.19 0.56 839.64 7.56 839.64 C14.42 839.64 15.81 833.19 15.81 828.51 Z"
						class="st10"/>
			</g>
			<g id="shape237-94" v:mID="237" v:groupContext="shape" transform="translate(588.884,-604.645)">
				<title>path186</title>
				<path d="M15.81 828.51 L138.26 828.51 C144.75 828.51 149.97 833.47 149.97 839.64 C149.97 845.8 144.75 850.77 138.26
							 850.77 L0 850.77 C0 846.19 0.56 839.64 7.56 839.64 C14.42 839.64 15.81 833.19 15.81 828.51 Z"
						class="st10"/>
			</g>
			<g id="shape238-96" v:mID="238" v:groupContext="shape" transform="translate(588.884,-412.325)">
				<title>path188</title>
				<path d="M15.81 828.51 L138.26 828.51 C144.75 828.51 149.97 833.47 149.97 839.64 C149.97 845.8 144.75 850.77 138.26
							 850.77 L0 850.77 C0 846.19 0.56 839.64 7.56 839.64 C14.42 839.64 15.81 833.19 15.81 828.51 Z"
						class="st10"/>
			</g>
			<g id="shape239-98" v:mID="239" v:groupContext="shape" transform="translate(588.884,-220.004)">
				<title>path190</title>
				<path d="M15.81 828.51 L138.26 828.51 C144.75 828.51 149.97 833.47 149.97 839.64 C149.97 845.8 144.75 850.77 138.26
							 850.77 L0 850.77 C0 846.19 0.56 839.64 7.56 839.64 C14.42 839.64 15.81 833.19 15.81 828.51 Z"
						class="st10"/>
			</g>
			<g id="shape240-100" v:mID="240" v:groupContext="shape" transform="translate(588.884,-27.6836)">
				<title>path192</title>
				<path d="M15.81 828.51 L138.26 828.51 C144.75 828.51 149.97 833.47 149.97 839.64 C149.97 845.8 144.75 850.77 138.26
							 850.77 L0 850.77 C0 846.19 0.56 839.64 7.56 839.64 C14.42 839.64 15.81 833.19 15.81 828.51 Z"
						class="st10"/>
			</g>
			<g id="shape241-102" v:mID="241" v:groupContext="shape" transform="translate(328.502,-661.732)">
				<title>path1040</title>
				<rect x="0" y="704.784" width="536.547" height="145.983" class="st1"/>
			</g>
			<g id="shape242-104" v:mID="242" v:groupContext="shape" transform="translate(312.379,-661.337)">
				<title>text1044</title>
				<desc>Biologist</desc>
				<v:textBlock v:margins="rect(0,0,0,0)"/>
				<v:textRect cx="266.81" cy="785.887" width="533.63" height="129.761"/>
				<rect x="0" y="721.007" width="533.621" height="129.761" class="st11"/>
				<text x="28.18" y="818.29" class="st12" v:langID="1033"><v:paragraph v:horizAlign="1"/><v:tabList/>Biologist</text>			</g>
			<g id="shape243-107" v:mID="243" v:groupContext="shape" transform="translate(104.234,-303.996)">
				<title>path1956</title>
				<rect x="0" y="792.943" width="237.94" height="57.8246" class="st13"/>
			</g>
			<g id="shape244-109" v:mID="244" v:groupContext="shape" transform="translate(129.828,-410.17)">
				<title>path1958</title>
				<rect x="0" y="792.943" width="186.745" height="57.8246" class="st13"/>
			</g>
			<g id="shape245-111" v:mID="245" v:groupContext="shape" transform="translate(860.7,-439.546)">
				<title>path1960</title>
				<rect x="0" y="792.943" width="203.81" height="57.8246" class="st13"/>
			</g>
			<g id="shape246-113" v:mID="246" v:groupContext="shape" transform="translate(817.087,-271.758)">
				<title>path1962</title>
				<rect x="0" y="792.943" width="291.015" height="57.8246" class="st13"/>
			</g>
			<g id="shape247-115" v:mID="247" v:groupContext="shape" transform="translate(132.188,-410.269)">
				<title>text1968</title>
				<desc>Genome</desc>
				<v:textBlock v:margins="rect(0,0,0,0)"/>
				<v:textRect cx="91.4062" cy="823.734" width="182.82" height="54.0669"/>
				<rect x="0" y="796.701" width="182.812" height="54.0669" class="st11"/>
				<text x="7.17" y="837.25" class="st14" v:langID="1033"><v:paragraph v:horizAlign="1"/><v:tabList/>Genome</text>			</g>
			<g id="shape248-118" v:mID="248" v:groupContext="shape" transform="translate(112.434,-306.769)">
				<title>text1972</title>
				<desc>Phenotype</desc>
				<v:textBlock v:margins="rect(0,0,0,0)"/>
				<v:textRect cx="110.283" cy="823.734" width="220.57" height="54.0669"/>
				<rect x="0" y="796.701" width="220.566" height="54.0669" class="st11"/>
				<text x="3.86" y="837.25" class="st14" v:langID="1033"><v:paragraph v:horizAlign="1"/><v:tabList/>Phenotype</text>			</g>
			<g id="shape249-121" v:mID="249" v:groupContext="shape" transform="translate(872.728,-443.736)">
				<title>text1976</title>
				<desc>Anatomy</desc>
				<v:textBlock v:margins="rect(0,0,0,0)"/>
				<v:textRect cx="90.1362" cy="823.734" width="180.28" height="54.0669"/>
				<rect x="0" y="796.701" width="180.272" height="54.0669" class="st11"/>
				<text x="0.15" y="837.25" class="st14" v:langID="1033"><v:paragraph v:horizAlign="1"/><v:tabList/>Anatomy</text>			</g>
			<g id="shape250-124" v:mID="250" v:groupContext="shape" transform="translate(824.815,-270.956)">
				<title>text1980</title>
				<desc>environment</desc>
				<v:textBlock v:margins="rect(0,0,0,0)"/>
				<v:textRect cx="135.468" cy="823.734" width="270.94" height="54.0669"/>
				<rect x="0" y="796.701" width="270.935" height="54.0669" class="st11"/>
				<text x="10.35" y="837.25" class="st14" v:langID="1033"><v:paragraph v:horizAlign="1"/><v:tabList/>environment</text>			</g>
			<g id="shape251-127" v:mID="251" v:groupContext="shape" transform="translate(858.808,-335.287)">
				<title>path2072</title>
				<rect x="0" y="792.943" width="207.601" height="57.8246" class="st13"/>
			</g>
			<g id="shape252-129" v:mID="252" v:groupContext="shape" transform="translate(872.467,-338.934)">
				<title>text2076</title>
				<desc>Growing</desc>
				<v:textBlock v:margins="rect(0,0,0,0)"/>
				<v:textRect cx="91.3913" cy="823.734" width="182.79" height="54.0669"/>
				<rect x="0" y="796.701" width="182.783" height="54.0669" class="st11"/>
				<text x="8.11" y="837.25" class="st14" v:langID="1033"><v:paragraph v:horizAlign="1"/><v:tabList/>Growing</text>			</g>
		</g>
	</g>
</svg>
