<?xml version="1.0" encoding="UTF-8" standalone="no"?>
<!DOCTYPE svg PUBLIC "-//W3C//DTD SVG 1.1//EN" "http://www.w3.org/Graphics/SVG/1.1/DTD/svg11.dtd">
<!-- Generated by Microsoft Visio, SVG Export _trader_.svg Page-1 -->
<svg xmlns="http://www.w3.org/2000/svg" xmlns:xlink="http://www.w3.org/1999/xlink" xmlns:ev="http://www.w3.org/2001/xml-events"
		xmlns:v="http://schemas.microsoft.com/visio/2003/SVGExtensions/" width="16.5919in" height="11.7406in"
		viewBox="0 0 1194.62 845.32" xml:space="preserve" color-interpolation-filters="sRGB" class="st19">
	<v:documentProperties v:langID="1033" v:viewMarkup="false"/>

	<style type="text/css">
	<![CDATA[
		.st1 {fill:#da9e24;stroke:none;stroke-linecap:round;stroke-linejoin:round;stroke-width:0.75}
		.st2 {fill:#c78922;stroke:none;stroke-linecap:round;stroke-linejoin:round;stroke-width:0.75}
		.st3 {fill:#d5bd97;stroke:none;stroke-linecap:round;stroke-linejoin:round;stroke-width:0.75}
		.st4 {fill:#ddcaa9;stroke:none;stroke-linecap:round;stroke-linejoin:round;stroke-width:0.75}
		.st5 {fill:#c5ae8c;stroke:none;stroke-linecap:round;stroke-linejoin:round;stroke-width:0.75}
		.st6 {fill:#b69d7e;stroke:none;stroke-linecap:round;stroke-linejoin:round;stroke-width:0.75}
		.st7 {fill:#ffffff;stroke:none;stroke-linecap:round;stroke-linejoin:round;stroke-width:0.75}
		.st8 {fill:#dedede;stroke:none;stroke-linecap:round;stroke-linejoin:round;stroke-width:0.75}
		.st9 {fill:#ededed;stroke:none;stroke-linecap:round;stroke-linejoin:round;stroke-width:0.75}
		.st10 {stroke:none;stroke-linecap:round;stroke-linejoin:round;stroke-width:0.75}
		.st11 {fill:#000000;font-family:Merriweather;font-size:9.09835em}
		.st12 {fill:#7bade0;stroke:none;stroke-linecap:round;stroke-linejoin:round;stroke-width:0.75}
		.st13 {fill:#f2e2c1;stroke:none;stroke-linecap:round;stroke-linejoin:round;stroke-width:0.75}
		.st14 {fill:#61400d;stroke:none;stroke-linecap:round;stroke-linejoin:round;stroke-width:0.75}
		.st15 {fill:#000000;stroke:none;stroke-linecap:round;stroke-linejoin:round;stroke-width:0.75}
		.st16 {fill:#000000;font-family:Roboto;font-size:3.85991em}
		.st17 {stroke:#ffffff;stroke-linecap:round;stroke-linejoin:round;stroke-width:4.55197}
		.st18 {fill:#f9f9f9;stroke:#f9f9f9;stroke-linecap:round;stroke-linejoin:round;stroke-width:3.31053}
		.st19 {fill:none;fill-rule:evenodd;font-size:12px;overflow:visible;stroke-linecap:square;stroke-miterlimit:3}
	]]>
	</style>

	<g v:mID="0" v:index="1" v:groupContext="foregroundPage">
		<title>Page-1</title>
		<v:pageProperties v:drawingScale="1" v:pageScale="1" v:drawingUnits="19" v:shadowOffsetX="9" v:shadowOffsetY="-9"/>
		<g id="group120-1" v:mID="120" v:groupContext="group">
			<title>Sheet.120</title>
			<g id="shape4-2" v:mID="4" v:groupContext="shape">
				<title>Sheet.4</title>
				<path d="M0 0 L0 845.32 L1192.52 845.32 L1192.52 0 L0 0 L0 0 Z" class="st1"/>
			</g>
			<g id="shape5-4" v:mID="5" v:groupContext="shape" transform="translate(2.0951,-1.13687E-13)">
				<title>Sheet.5</title>
				<path d="M0 0 L1192.52 845.32 L0 845.32 L0 0 L0 0 Z" class="st2"/>
			</g>
			<g id="shape6-6" v:mID="6" v:groupContext="shape" transform="translate(484.254,-535.356)">
				<title>Sheet.6</title>
				<path d="M6.63 822.37 L241.61 822.37 L247.61 845.32 L0 845.32 L6.63 822.37 L6.63 822.37 Z" class="st3"/>
			</g>
			<g id="shape7-8" v:mID="7" v:groupContext="shape" transform="translate(484.254,-277.086)">
				<title>Sheet.7</title>
				<path d="M0 587.05 L24.43 845.32 L230.22 845.32 L247.61 587.05 L0 587.05 L0 587.05 Z" class="st4"/>
			</g>
			<g id="shape8-10" v:mID="8" v:groupContext="shape" transform="translate(543.88,-453.264)">
				<title>Sheet.8</title>
				<path d="M0 811.2 C28.57 813.48 55.69 812.24 87.58 821.95 C101.45 816.58 114.08 809.34 125.26 797.76 C114.9 814.72
							 108.07 834.15 90.27 845.32 L0 811.2 Z" class="st5"/>
			</g>
			<g id="shape9-12" v:mID="9" v:groupContext="shape" transform="translate(568.932,-380.684)">
				<title>Sheet.9</title>
				<path d="M79.92 841.6 C79.92 843.67 63.35 845.32 42.65 845.32 C42.65 845.32 0 843.67 0 841.6 C-0 839.53 42.65 837.88
							 42.65 837.88 C63.35 837.88 79.92 839.53 79.92 841.6 Z" class="st5"/>
			</g>
			<g id="shape10-14" v:mID="10" v:groupContext="shape" transform="translate(576.178,-358.765)">
				<title>Sheet.10</title>
				<path d="M79.09 841.39 C79.09 843.46 76.81 845.32 56.11 845.32 C56.11 845.32 0 843.46 0 841.39 C-0 839.32 56.11 837.67
							 56.11 837.67 C76.81 837.67 79.09 839.32 79.09 841.39 Z" class="st5"/>
			</g>
			<g id="shape11-16" v:mID="11" v:groupContext="shape" transform="translate(576.178,-301.486)">
				<title>Sheet.11</title>
				<path d="M73.91 841.8 C73.91 843.67 71.63 845.32 52.38 845.32 C52.38 845.32 0 843.67 0 841.8 C0 839.74 52.38 838.08
							 52.38 838.08 C71.63 838.08 73.91 839.74 73.91 841.8 Z" class="st5"/>
			</g>
			<g id="shape12-18" v:mID="12" v:groupContext="shape" transform="translate(688.391,-590.359)">
				<title>Sheet.12</title>
				<path d="M6.63 822.37 L241.61 822.37 L247.82 845.32 L0 845.32 L6.63 822.37 L6.63 822.37 Z" class="st5"/>
			</g>
			<g id="shape13-20" v:mID="13" v:groupContext="shape" transform="translate(688.391,-332.09)">
				<title>Sheet.13</title>
				<path d="M0 587.05 L24.64 845.32 L230.43 845.32 L247.61 587.05 L0 587.05 L0 587.05 Z" class="st4"/>
			</g>
			<g id="shape14-22" v:mID="14" v:groupContext="shape" transform="translate(747.81,-508.267)">
				<title>Sheet.14</title>
				<path d="M125.26 811.2 C96.69 813.48 69.56 812.24 37.68 821.95 C24.02 816.58 11.18 809.34 0 797.76 C10.35 814.72
							 17.18 834.15 34.99 845.32 L125.26 811.2 Z" class="st5"/>
			</g>
			<g id="shape15-24" v:mID="15" v:groupContext="shape" transform="translate(773.068,-435.687)">
				<title>Sheet.15</title>
				<path d="M80.12 841.6 C80.12 843.67 63.35 845.32 42.65 845.32 C42.65 845.32 0 843.67 0 841.6 C-0 839.53 42.65 837.88
							 42.65 837.88 C63.35 837.88 80.12 839.53 80.12 841.6 Z" class="st5"/>
			</g>
			<g id="shape16-26" v:mID="16" v:groupContext="shape" transform="translate(780.314,-413.768)">
				<title>Sheet.16</title>
				<path d="M79.09 841.39 C79.09 843.67 76.81 845.32 56.11 845.32 C56.11 845.32 0 843.67 0 841.39 C-0 839.32 56.11 837.67
							 56.11 837.67 C76.81 837.67 79.09 839.32 79.09 841.39 Z" class="st5"/>
			</g>
			<g id="shape17-28" v:mID="17" v:groupContext="shape" transform="translate(780.314,-356.49)">
				<title>Sheet.17</title>
				<path d="M73.91 841.8 C73.91 843.67 71.84 845.32 52.38 845.32 C52.38 845.32 0 843.67 0 841.8 C0 839.74 52.38 838.08
							 52.38 838.08 C71.84 838.08 73.91 839.74 73.91 841.8 Z" class="st5"/>
			</g>
			<g id="shape18-30" v:mID="18" v:groupContext="shape" transform="translate(643.464,-374.48)">
				<title>Sheet.18</title>
				<path d="M272.25 816.78 C272.25 800.86 211.18 788.04 136.02 788.04 C60.87 788.04 -0 800.86 0 816.78 C-0 832.5 60.87
							 845.32 136.02 845.32 C211.18 845.32 272.25 832.5 272.25 816.78 Z" class="st6"/>
			</g>
			<g id="shape19-32" v:mID="19" v:groupContext="shape" transform="translate(643.464,-316.581)">
				<title>Sheet.19</title>
				<path d="M0 755.16 L2.07 832.5 L62.94 845.32 C116.77 835.39 165.42 836.22 212 841.6 L271.01 831.67 L272.25 755.37
							 C245.54 794.04 20.5 800.86 0 755.16 Z" class="st5"/>
			</g>
			<g id="shape20-34" v:mID="20" v:groupContext="shape" transform="translate(640.359,-153.018)">
				<title>Sheet.20</title>
				<path d="M273.91 668.11 L279.5 712.77 L280.33 776.26 C283.22 790.52 284.67 805.62 297.92 814.72 C247.2 838.29 200.2
							 843.87 153.83 845.32 L0 823.61 L9.52 699.54 L15.53 671.62 L5.18 668.94 L273.91 668.11 Z" class="st4"/>
			</g>
			<g id="shape21-36" v:mID="21" v:groupContext="shape" transform="translate(655.472,-286.289)">
				<title>Sheet.21</title>
				<path d="M0 839.63 L113.25 835.91 C147.41 838.19 136.02 846.46 111.18 845.22 L0 839.63 Z" class="st5"/>
			</g>
			<g id="shape22-38" v:mID="22" v:groupContext="shape" transform="translate(696.672,-253.881)">
				<title>Sheet.22</title>
				<path d="M0 842.38 L125.88 840.52 C163.76 841.55 151.34 845.89 123.6 845.27 L0 842.38 Z" class="st5"/>
			</g>
			<g id="shape23-40" v:mID="23" v:groupContext="shape" transform="translate(680.938,-183.934)">
				<title>Sheet.23</title>
				<path d="M0 842.32 L100.2 840.46 C130.22 841.7 120.29 846.05 98.34 845.22 L0 842.32 Z" class="st5"/>
			</g>
			<g id="shape24-42" v:mID="24" v:groupContext="shape" transform="translate(744.704,-231.45)">
				<title>Sheet.24</title>
				<path d="M0 837.53 L88.82 832.36 C115.53 835.46 106.83 846.83 87.16 845.18 L0 837.53 Z" class="st5"/>
			</g>
			<g id="shape25-44" v:mID="25" v:groupContext="shape" transform="translate(651.332,-374.945)">
				<title>Sheet.25</title>
				<path d="M0 824.07 C8.49 817.66 13.25 808.56 16.56 798.43 C20.5 793.47 30.43 790.99 40.37 788.51 L46.58 777.13 L50.31
							 778.17 C72.67 776.72 91.1 768.24 104.76 751.7 C115.11 745.7 137.26 760.8 153.62 765.35 L184.88 743.64
							 L236.85 780.44 L239.33 816.01 L247.41 827.79 C190.26 851.16 48.45 853.23 0 824.07 Z" class="st7"/>
			</g>
			<g id="shape26-46" v:mID="26" v:groupContext="shape" transform="translate(703.918,-418.524)">
				<title>Sheet.26</title>
				<path d="M25.67 842.84 C25.67 844.29 19.88 845.32 12.84 845.32 C12.84 845.32 12.84 845.32 12.84 845.32 C5.8 845.32
							 0 844.29 0 842.84 C0 842.84 0 842.84 0 842.84 C0 841.6 5.8 840.56 12.84 840.56 C19.88 840.56 25.67 841.6
							 25.67 842.84 Z" class="st8"/>
			</g>
			<g id="shape27-48" v:mID="27" v:groupContext="shape" transform="translate(743.462,-435.48)">
				<title>Sheet.27</title>
				<path d="M25.67 843.05 C25.67 844.29 19.88 845.32 12.84 845.32 C5.8 845.32 -0 844.29 0 843.05 C0 843.05 0 843.05
							 0 843.05 C0 841.6 5.8 840.56 12.84 840.56 C12.84 840.56 12.84 840.56 12.84 840.56 C19.88 840.56 25.67
							 841.6 25.67 843.05 Z" class="st8"/>
			</g>
			<g id="shape28-50" v:mID="28" v:groupContext="shape" transform="translate(758.162,-422.867)">
				<title>Sheet.28</title>
				<path d="M25.67 842.84 C25.67 844.29 19.88 845.32 12.84 845.32 C12.84 845.32 12.84 845.32 12.84 845.32 C5.8 845.32
							 0 844.29 0 842.84 C0 841.6 5.8 840.56 12.84 840.56 C19.88 840.56 25.67 841.6 25.67 842.84 C25.67 842.84
							 25.67 842.84 25.67 842.84 Z" class="st8"/>
			</g>
			<g id="shape29-52" v:mID="29" v:groupContext="shape" transform="translate(745.532,-398.053)">
				<title>Sheet.29</title>
				<path d="M25.67 843.05 C25.67 844.29 19.88 845.32 12.84 845.32 C12.84 845.32 12.84 845.32 12.84 845.32 C5.8 845.32
							 0 844.29 0 843.05 C0 841.8 5.8 840.77 12.84 840.77 C19.88 840.77 25.67 841.8 25.67 843.05 C25.67 843.05
							 25.67 843.05 25.67 843.05 Z" class="st8"/>
			</g>
			<g id="shape30-54" v:mID="30" v:groupContext="shape" transform="translate(706.61,-397.64)">
				<title>Sheet.30</title>
				<path d="M25.67 843.05 C25.67 844.29 19.88 845.32 12.84 845.32 C5.8 845.32 -0 844.29 0 843.05 C0 841.6 5.8 840.56
							 12.84 840.56 C12.84 840.56 12.84 840.56 12.84 840.56 C19.88 840.56 25.67 841.6 25.67 843.05 C25.67 843.05
							 25.67 843.05 25.67 843.05 Z" class="st8"/>
			</g>
			<g id="shape31-56" v:mID="31" v:groupContext="shape" transform="translate(772.447,-383.992)">
				<title>Sheet.31</title>
				<path d="M25.47 843.05 C25.47 844.29 19.88 845.32 12.63 845.32 C5.59 845.32 0 844.29 0 843.05 C0 843.05 0 843.05
							 0 843.05 C0 841.8 5.59 840.56 12.63 840.56 C12.63 840.56 12.63 840.56 12.63 840.56 C19.88 840.56 25.47
							 841.8 25.47 843.05 Z" class="st8"/>
			</g>
			<g id="shape32-58" v:mID="32" v:groupContext="shape" transform="translate(825.862,-398.053)">
				<title>Sheet.32</title>
				<path d="M25.67 842.84 C25.67 844.29 19.88 845.32 12.84 845.32 C5.8 845.32 -0 844.29 0 842.84 C0 842.84 0 842.84
							 0 842.84 C0 841.6 5.8 840.56 12.84 840.56 C12.84 840.56 12.84 840.56 12.84 840.56 C19.88 840.56 25.67
							 841.6 25.67 842.84 Z" class="st8"/>
			</g>
			<g id="shape33-60" v:mID="33" v:groupContext="shape" transform="translate(814.682,-422.246)">
				<title>Sheet.33</title>
				<path d="M25.67 842.84 C25.67 844.29 19.88 845.32 12.84 845.32 C5.8 845.32 -0 844.29 0 842.84 C0 842.84 0 842.84
							 0 842.84 C0 841.6 5.8 840.56 12.84 840.56 C12.84 840.56 12.84 840.56 12.84 840.56 C19.88 840.56 25.67
							 841.6 25.67 842.84 Z" class="st8"/>
			</g>
			<g id="shape34-62" v:mID="34" v:groupContext="shape" transform="translate(843.874,-440.65)">
				<title>Sheet.34</title>
				<path d="M25.67 842.84 C25.67 844.29 19.88 845.32 12.84 845.32 C12.84 845.32 12.84 845.32 12.84 845.32 C5.8 845.32
							 0 844.29 0 842.84 C0 841.6 5.8 840.56 12.84 840.56 C19.88 840.56 25.67 841.6 25.67 842.84 C25.67 842.84
							 25.67 842.84 25.67 842.84 Z" class="st8"/>
			</g>
			<g id="shape35-64" v:mID="35" v:groupContext="shape" transform="translate(829.589,-431.276)">
				<title>Sheet.35</title>
				<path d="M25.26 844.22 C25.26 845.46 19.25 845.66 12.42 844.84 C12.42 844.84 12.42 844.84 12.42 844.84 C5.38 844.01
							 -0.21 842.15 0 840.91 C0 840.91 0 840.91 0 840.91 C0 839.67 6 839.25 12.84 840.08 C12.84 840.08 12.84
							 840.08 12.84 840.08 C19.88 841.12 25.47 842.77 25.26 844.22 C25.26 844.22 25.26 844.22 25.26 844.22
							 Z" class="st9"/>
			</g>
			<g id="shape36-66" v:mID="36" v:groupContext="shape" transform="translate(854.847,-407.343)">
				<title>Sheet.36</title>
				<path d="M25.47 844.06 C25.26 845.3 19.46 845.72 12.42 844.89 C12.42 844.89 12.42 844.89 12.42 844.89 C5.38 843.86
							 0 842.2 0 840.96 C0 840.96 0 840.96 0 840.96 C0.21 839.51 6 839.31 13.04 840.14 C13.04 840.14 13.04
							 840.14 13.04 840.14 C20.08 840.96 25.67 842.82 25.47 844.06 C25.47 844.06 25.47 844.06 25.47 844.06
							 Z" class="st9"/>
			</g>
			<g id="shape37-68" v:mID="37" v:groupContext="shape" transform="translate(860.437,-435.258)">
				<title>Sheet.37</title>
				<path d="M25.26 844.06 C25.05 845.3 19.25 845.72 12.22 844.89 C12.22 844.89 12.22 844.89 12.22 844.89 C5.38 843.86
							 -0.21 842.2 0 840.76 C0 840.76 0 840.76 0 840.76 C0 839.51 5.8 839.31 12.84 840.14 C12.84 840.14 12.84
							 840.14 12.84 840.14 C19.88 840.96 25.47 842.82 25.26 844.06 C25.26 844.06 25.26 844.06 25.26 844.06
							 Z" class="st9"/>
			</g>
			<g id="shape38-70" v:mID="38" v:groupContext="shape" transform="translate(766.443,-449.48)">
				<title>Sheet.38</title>
				<path d="M25.47 844.02 C25.26 845.47 19.46 845.67 12.42 844.85 C12.42 844.85 12.42 844.85 12.42 844.85 C5.38 844.02
							 -0.21 842.16 0 840.92 C0 840.92 0 840.92 0 840.92 C0.21 839.47 6 839.26 13.04 840.09 C13.04 840.09 13.04
							 840.09 13.04 840.09 C20.08 840.92 25.67 842.78 25.47 844.02 C25.47 844.02 25.47 844.02 25.47 844.02
							 Z" class="st9"/>
			</g>
			<g id="shape39-72" v:mID="39" v:groupContext="shape" transform="translate(730.626,-441.875)">
				<title>Sheet.39</title>
				<path d="M25.47 844.06 C25.26 845.3 19.46 845.72 12.42 844.89 C12.42 844.89 12.42 844.89 12.42 844.89 C5.38 843.86
							 -0.21 842.2 0 840.76 C0 840.76 0 840.76 0 840.76 C0.21 839.51 6 839.31 13.04 840.14 C13.04 840.14 13.04
							 840.14 13.04 840.14 C20.08 840.96 25.67 842.82 25.47 844.06 C25.47 844.06 25.47 844.06 25.47 844.06
							 Z" class="st9"/>
			</g>
			<g id="shape40-74" v:mID="40" v:groupContext="shape" transform="translate(708.887,-430.043)">
				<title>Sheet.40</title>
				<path d="M25.47 844.02 C25.26 845.47 19.46 845.67 12.42 844.85 C12.42 844.85 12.42 844.85 12.42 844.85 C5.38 844.02
							 -0.21 842.16 0 840.92 C0 840.92 0 840.92 0 840.92 C0.21 839.47 6 839.26 13.04 840.09 C13.04 840.09 13.04
							 840.09 13.04 840.09 C19.88 840.92 25.47 842.78 25.47 844.02 C25.47 844.02 25.47 844.02 25.47 844.02
							 Z" class="st9"/>
			</g>
			<g id="shape41-76" v:mID="41" v:groupContext="shape" transform="translate(788.182,-419.911)">
				<title>Sheet.41</title>
				<path d="M25.26 844.02 C25.05 845.47 19.25 845.67 12.22 844.85 C12.22 844.85 12.22 844.85 12.22 844.85 C5.38 844.02
							 -0.21 842.16 0 840.92 C0 840.92 0 840.92 0 840.92 C0 839.68 5.8 839.26 12.84 840.09 C12.84 840.09 12.84
							 840.09 12.84 840.09 C19.88 841.12 25.47 842.78 25.26 844.02 C25.26 844.02 25.26 844.02 25.26 844.02
							 Z" class="st9"/>
			</g>
			<g id="shape42-78" v:mID="42" v:groupContext="shape" transform="translate(769.548,-432.631)">
				<title>Sheet.42</title>
				<path d="M25.47 844.13 C25.26 845.37 19.46 845.78 12.42 844.75 C12.42 844.75 12.42 844.75 12.42 844.75 C5.38 843.92
							 0 842.06 0 840.82 C0 840.82 0 840.82 0 840.82 C0.21 839.58 6 839.16 13.04 839.99 C13.04 839.99 13.04
							 839.99 13.04 839.99 C20.08 841.02 25.67 842.68 25.47 844.13 C25.47 844.13 25.47 844.13 25.47 844.13
							 Z" class="st9"/>
			</g>
			<g id="shape43-80" v:mID="43" v:groupContext="shape" transform="translate(817.581,-439.042)">
				<title>Sheet.43</title>
				<path d="M25.47 844.13 C25.26 845.37 19.46 845.78 12.42 844.75 C12.42 844.75 12.42 844.75 12.42 844.75 C5.38 843.92
							 -0.21 842.06 0 840.82 C0 840.82 0 840.82 0 840.82 C0.21 839.58 6 839.16 13.04 840.2 C13.04 840.2 13.04
							 840.2 13.04 840.2 C20.08 841.02 25.47 842.68 25.47 844.13 C25.47 844.13 25.47 844.13 25.47 844.13 Z"
						class="st9"/>
			</g>
			<g id="shape44-82" v:mID="44" v:groupContext="shape" transform="translate(762.923,-392.662)">
				<title>Sheet.44</title>
				<path d="M25.26 844.06 C25.26 845.3 19.46 845.72 12.42 844.89 C12.42 844.89 12.42 844.89 12.42 844.89 C5.38 843.86
							 -0.21 842.2 0 840.96 C0 840.96 0 840.96 0 840.96 C0.21 839.51 6 839.31 13.04 840.14 C19.88 840.96 25.47
							 842.82 25.26 844.06 C25.26 844.06 25.26 844.06 25.26 844.06 Z" class="st9"/>
			</g>
			<g id="shape45-84" v:mID="45" v:groupContext="shape" transform="translate(747.189,-386.045)">
				<title>Sheet.45</title>
				<path d="M25.26 844.06 C25.26 845.3 19.25 845.72 12.42 844.89 C12.42 844.89 12.42 844.89 12.42 844.89 C5.38 843.86
							 -0.21 842.2 0 840.96 C0 840.96 0 840.96 0 840.96 C0 839.51 6 839.31 12.84 840.14 C12.84 840.14 12.84
							 840.14 12.84 840.14 C19.88 840.96 25.47 842.82 25.26 844.06 C25.26 844.06 25.26 844.06 25.26 844.06
							 Z" class="st9"/>
			</g>
			<g id="shape46-86" v:mID="46" v:groupContext="shape" transform="translate(724.622,-404.034)">
				<title>Sheet.46</title>
				<path d="M25.47 844.06 C25.26 845.3 19.46 845.72 12.42 844.89 C12.42 844.89 12.42 844.89 12.42 844.89 C5.38 843.86
							 -0.21 842.2 0 840.96 C0 840.96 0 840.96 0 840.96 C0.21 839.51 6 839.31 13.04 840.14 C13.04 840.14 13.04
							 840.14 13.04 840.14 C20.08 840.96 25.47 842.82 25.47 844.06 C25.47 844.06 25.47 844.06 25.47 844.06
							 Z" class="st9"/>
			</g>
			<g id="shape47-88" v:mID="47" v:groupContext="shape" transform="translate(722.759,-413.5)">
				<title>Sheet.47</title>
				<path d="M25.47 844.02 C25.26 845.47 19.46 845.67 12.42 844.85 C12.42 844.85 12.42 844.85 12.42 844.85 C5.38 844.02
							 -0.21 842.16 0 840.92 C0 840.92 0 840.92 0 840.92 C0.21 839.47 6 839.26 13.04 840.09 C13.04 840.09 13.04
							 840.09 13.04 840.09 C20.08 840.92 25.67 842.78 25.47 844.02 C25.47 844.02 25.47 844.02 25.47 844.02
							 Z" class="st9"/>
			</g>
			<g id="shape48-90" v:mID="48" v:groupContext="shape" transform="translate(687.77,-407.818)">
				<title>Sheet.48</title>
				<path d="M25.26 844.13 C25.26 845.37 19.25 845.78 12.42 844.75 C12.42 844.75 12.42 844.75 12.42 844.75 C5.38 843.92
							 -0.21 842.26 0 840.82 C0 840.82 0 840.82 0 840.82 C0 839.58 6 839.16 12.84 840.2 C12.84 840.2 12.84
							 840.2 12.84 840.2 C19.88 841.02 25.47 842.88 25.26 844.13 C25.26 844.13 25.26 844.13 25.26 844.13 Z"
						class="st9"/>
			</g>
			<g id="shape49-92" v:mID="49" v:groupContext="shape" transform="translate(693.567,-427.194)">
				<title>Sheet.49</title>
				<path d="M25.47 844.06 C25.26 845.3 19.46 845.72 12.42 844.89 C12.42 844.89 12.42 844.89 12.42 844.89 C5.38 843.86
							 -0.21 842.2 0 840.76 C0 840.76 0 840.76 0 840.76 C0.21 839.51 6 839.1 13.04 840.14 C13.04 840.14 13.04
							 840.14 13.04 840.14 C20.08 840.96 25.47 842.82 25.47 844.06 C25.47 844.06 25.47 844.06 25.47 844.06
							 Z" class="st9"/>
			</g>
			<g id="shape50-94" v:mID="50" v:groupContext="shape" transform="translate(707.231,-384.39)">
				<title>Sheet.50</title>
				<path d="M25.47 844.06 C25.26 845.3 19.46 845.72 12.42 844.89 C12.42 844.89 12.42 844.89 12.42 844.89 C5.38 843.86
							 -0.21 842.2 0 840.96 C0 840.96 0 840.96 0 840.96 C0.21 839.51 6 839.31 13.04 840.14 C13.04 840.14 13.04
							 840.14 13.04 840.14 C20.08 840.96 25.67 842.82 25.47 844.06 C25.47 844.06 25.47 844.06 25.47 844.06
							 Z" class="st9"/>
			</g>
			<g id="shape51-96" v:mID="51" v:groupContext="shape" transform="translate(843.874,-392.662)">
				<title>Sheet.51</title>
				<path d="M25.47 844.06 C25.26 845.3 19.46 845.72 12.42 844.89 C12.42 844.89 12.42 844.89 12.42 844.89 C5.38 843.86
							 -0.21 842.2 0 840.96 C0 840.96 0 840.96 0 840.96 C0.21 839.51 6 839.31 13.04 840.14 C13.04 840.14 13.04
							 840.14 13.04 840.14 C20.08 840.96 25.67 842.82 25.47 844.06 C25.47 844.06 25.47 844.06 25.47 844.06
							 Z" class="st9"/>
			</g>
			<g id="shape52-98" v:mID="52" v:groupContext="shape" transform="translate(858.78,-426.987)">
				<title>Sheet.52</title>
				<path d="M25.47 844.06 C25.26 845.3 19.46 845.72 12.42 844.89 C12.42 844.89 12.42 844.89 12.42 844.89 C5.38 843.86
							 -0.21 842.2 0 840.96 C0 840.96 0 840.96 0 840.96 C0.21 839.51 6 839.31 13.04 840.14 C20.08 840.96 25.47
							 842.82 25.47 844.06 C25.47 844.06 25.47 844.06 25.47 844.06 Z" class="st9"/>
			</g>
			<g id="shape53-100" v:mID="53" v:groupContext="shape" transform="translate(422.144,-226.218)">
				<title>Sheet.53</title>
				<path d="M260.04 819.68 C260.04 805.41 201.86 794.04 130.02 794.04 C58.18 794.04 0 805.41 0 819.68 C0 833.74 58.18
							 845.32 130.02 845.32 C201.86 845.32 260.04 833.74 260.04 819.68 Z" class="st6"/>
			</g>
			<g id="shape54-102" v:mID="54" v:groupContext="shape" transform="translate(421.937,-174.73)">
				<title>Sheet.54</title>
				<path d="M0 764.88 L2.07 833.95 L60.25 845.32 C111.59 836.43 158.17 837.26 202.69 842.01 L258.79 833.12 L260.24 765.09
							 C234.57 799.62 19.67 805.62 0 764.88 Z" class="st5"/>
			</g>
			<g id="shape55-104" v:mID="55" v:groupContext="shape" transform="translate(419.038,-111.455)">
				<title>Sheet.55</title>
				<path d="M261.9 769.85 L267.07 789.08 L267.9 815.96 C270.8 821.95 272.04 828.36 284.67 832.29 C236.23 842.43 191.3
							 844.7 147.2 845.32 L0 836.22 L9.11 783.29 L15.11 771.5 L4.97 770.26 C94.2 757.85 173.08 763.64 261.9
							 769.85 Z" class="st4"/>
			</g>
			<g id="shape56-106" v:mID="56" v:groupContext="shape" transform="translate(540.334,-167.836)">
				<title>Sheet.56</title>
				<path d="M128.6 840.29 L20.52 836.98 C-12.19 838.84 -1.42 846.28 22.39 845.25 L128.6 840.29 Z" class="st5"/>
			</g>
			<g id="shape57-108" v:mID="57" v:groupContext="shape" transform="translate(429.597,-226.759)">
				<title>Sheet.57</title>
				<path d="M0 826.22 C8.07 820.63 12.63 812.57 15.94 803.47 C19.46 798.92 28.98 796.85 38.51 794.58 L44.51 784.45 L48.03
							 785.27 C69.56 784.03 87.16 776.38 100 761.49 C109.94 756.32 131.26 769.77 146.79 773.9 L176.6 754.46
							 L226.29 787.34 L228.57 818.98 L236.23 829.73 C181.98 850.62 46.38 852.27 0 826.22 Z" class="st7"/>
			</g>
			<g id="shape58-110" v:mID="58" v:groupContext="shape" transform="translate(479.907,-265.713)">
				<title>Sheet.58</title>
				<path d="M24.43 843.25 C24.43 844.29 19.05 845.32 12.22 845.32 C12.22 845.32 12.22 845.32 12.22 845.32 C5.59 845.32
							 0 844.29 0 843.25 C0 843.25 0 843.25 0 843.25 C0 842.01 5.59 840.98 12.22 840.98 C12.22 840.98 12.22
							 840.98 12.22 840.98 C19.05 840.98 24.43 842.01 24.43 843.25 C24.43 843.25 24.43 843.25 24.43 843.25
							 Z" class="st8"/>
			</g>
			<g id="shape59-112" v:mID="59" v:groupContext="shape" transform="translate(517.794,-280.808)">
				<title>Sheet.59</title>
				<path d="M24.43 843.25 C24.43 844.29 19.05 845.32 12.22 845.32 C12.22 845.32 12.22 845.32 12.22 845.32 C5.38 845.32
							 0 844.29 0 843.25 C0 843.25 0 843.25 0 843.25 C0 842.01 5.38 840.98 12.22 840.98 C12.22 840.98 12.22
							 840.98 12.22 840.98 C19.05 840.98 24.43 842.01 24.43 843.25 C24.43 843.25 24.43 843.25 24.43 843.25
							 Z" class="st8"/>
			</g>
			<g id="shape60-114" v:mID="60" v:groupContext="shape" transform="translate(531.665,-269.642)">
				<title>Sheet.60</title>
				<path d="M24.43 843.25 C24.43 844.49 19.05 845.32 12.22 845.32 C12.22 845.32 12.22 845.32 12.22 845.32 C5.59 845.32
							 0 844.49 0 843.25 C0 843.25 0 843.25 0 843.25 C0 842.01 5.59 841.18 12.22 841.18 C19.05 841.18 24.43
							 842.01 24.43 843.25 Z" class="st8"/>
			</g>
			<g id="shape61-116" v:mID="61" v:groupContext="shape" transform="translate(519.864,-247.31)">
				<title>Sheet.61</title>
				<path d="M24.43 843.25 C24.43 844.49 18.84 845.32 12.22 845.32 C5.38 845.32 -0 844.49 0 843.25 C0 842.01 5.38 841.18
							 12.22 841.18 C12.22 841.18 12.22 841.18 12.22 841.18 C18.84 841.18 24.43 842.01 24.43 843.25 C24.43
							 843.25 24.43 843.25 24.43 843.25 Z" class="st8"/>
			</g>
			<g id="shape62-118" v:mID="62" v:groupContext="shape" transform="translate(482.391,-247.103)">
				<title>Sheet.62</title>
				<path d="M24.43 843.25 C24.43 844.49 19.05 845.32 12.22 845.32 C12.22 845.32 12.22 845.32 12.22 845.32 C5.59 845.32
							 0 844.49 0 843.25 C0 843.25 0 843.25 0 843.25 C0 842.01 5.59 841.18 12.22 841.18 C12.22 841.18 12.22
							 841.18 12.22 841.18 C19.05 841.18 24.43 842.01 24.43 843.25 C24.43 843.25 24.43 843.25 24.43 843.25
							 Z" class="st8"/>
			</g>
			<g id="shape63-120" v:mID="63" v:groupContext="shape" transform="translate(545.33,-234.696)">
				<title>Sheet.63</title>
				<path d="M24.43 843.25 C24.43 844.29 18.84 845.32 12.22 845.32 C12.22 845.32 12.22 845.32 12.22 845.32 C5.38 845.32
							 0 844.29 0 843.25 C0 843.25 0 843.25 0 843.25 C0 842.01 5.38 841.18 12.22 841.18 C12.22 841.18 12.22
							 841.18 12.22 841.18 C18.84 841.18 24.43 842.01 24.43 843.25 C24.43 843.25 24.43 843.25 24.43 843.25
							 Z" class="st8"/>
			</g>
			<g id="shape64-122" v:mID="64" v:groupContext="shape" transform="translate(596.26,-247.517)">
				<title>Sheet.64</title>
				<path d="M24.64 843.25 C24.64 844.29 19.05 845.32 12.22 845.32 C12.22 845.32 12.22 845.32 12.22 845.32 C5.59 845.32
							 0 844.29 0 843.25 C0 843.25 0 843.25 0 843.25 C-0 842.01 5.59 841.18 12.22 841.18 C12.22 841.18 12.22
							 841.18 12.22 841.18 C19.05 841.18 24.64 842.01 24.64 843.25 C24.64 843.25 24.64 843.25 24.64 843.25
							 Z" class="st8"/>
			</g>
			<g id="shape65-124" v:mID="65" v:groupContext="shape" transform="translate(585.702,-269.022)">
				<title>Sheet.65</title>
				<path d="M24.43 843.25 C24.43 844.29 19.05 845.32 12.22 845.32 C12.22 845.32 12.22 845.32 12.22 845.32 C5.59 845.32
							 -0 844.29 0 843.25 C0 843.25 0 843.25 0 843.25 C-0 842.01 5.59 840.98 12.22 840.98 C19.05 840.98 24.43
							 842.01 24.43 843.25 C24.43 843.25 24.43 843.25 24.43 843.25 Z" class="st8"/>
			</g>
			<g id="shape66-126" v:mID="66" v:groupContext="shape" transform="translate(613.651,-285.564)">
				<title>Sheet.66</title>
				<path d="M24.43 843.25 C24.43 844.49 19.05 845.32 12.22 845.32 C12.22 845.32 12.22 845.32 12.22 845.32 C5.59 845.32
							 -0 844.49 0 843.25 C0 843.25 0 843.25 0 843.25 C-0 842.01 5.59 841.18 12.22 841.18 C12.22 841.18 12.22
							 841.18 12.22 841.18 C19.05 841.18 24.43 842.01 24.43 843.25 C24.43 843.25 24.43 843.25 24.43 843.25
							 Z" class="st8"/>
			</g>
			<g id="shape67-128" v:mID="67" v:groupContext="shape" transform="translate(599.981,-277.063)">
				<title>Sheet.67</title>
				<path d="M24.23 844.26 C24.02 845.3 18.43 845.71 11.81 844.88 C4.97 844.06 -0.2 842.4 0.01 841.37 C0.01 840.13 5.6
							 839.92 12.43 840.75 C12.43 840.75 12.43 840.75 12.43 840.75 C19.05 841.37 24.44 843.02 24.23 844.26
							 Z" class="st9"/>
			</g>
			<g id="shape68-130" v:mID="68" v:groupContext="shape" transform="translate(624.204,-255.719)">
				<title>Sheet.68</title>
				<path d="M24.23 844.22 C24.23 845.46 18.64 845.66 11.81 844.84 C5.18 844.01 -0.2 842.56 0.01 841.32 C0.21 840.08
							 5.8 839.87 12.43 840.7 C19.05 841.53 24.44 842.98 24.23 844.22 Z" class="st9"/>
			</g>
			<g id="shape69-132" v:mID="69" v:groupContext="shape" transform="translate(629.38,-280.678)">
				<title>Sheet.69</title>
				<path d="M24.23 844.16 C24.23 845.4 18.64 845.6 11.81 844.98 C11.81 844.98 11.81 844.98 11.81 844.98 C5.18 844.16
							 -0.2 842.5 0.01 841.26 C0.21 840.23 5.8 839.81 12.43 840.64 C19.05 841.47 24.44 843.12 24.23 844.16
							 Z" class="st9"/>
			</g>
			<g id="shape70-134" v:mID="70" v:groupContext="shape" transform="translate(539.74,-293.353)">
				<title>Sheet.70</title>
				<path d="M24.43 844.22 C24.22 845.46 18.63 845.66 12.01 844.84 C12.01 844.84 12.01 844.84 12.01 844.84 C5.18 844.01
							 -0 842.56 0 841.32 C0.21 840.08 5.8 839.87 12.42 840.7 C19.25 841.53 24.43 842.98 24.43 844.22 Z"
						class="st9"/>
			</g>
			<g id="shape71-136" v:mID="71" v:groupContext="shape" transform="translate(505.366,-286.575)">
				<title>Sheet.71</title>
				<path d="M24.23 844.26 C24.02 845.3 18.64 845.71 11.81 844.88 C11.81 844.88 11.81 844.88 11.81 844.88 C5.18 844.06
							 -0.2 842.4 0.01 841.37 C0.21 840.13 5.8 839.92 12.43 840.75 C19.05 841.37 24.44 843.02 24.23 844.26
							 Z" class="st9"/>
			</g>
			<g id="shape72-138" v:mID="72" v:groupContext="shape" transform="translate(484.663,-275.984)">
				<title>Sheet.72</title>
				<path d="M24.23 844.22 C24.02 845.46 18.64 845.66 11.81 844.84 C5.18 844.01 -0.2 842.56 0.01 841.32 C0.21 840.08
							 5.8 839.87 12.43 840.7 C19.05 841.53 24.44 842.98 24.23 844.22 Z" class="st9"/>
			</g>
			<g id="shape73-140" v:mID="73" v:groupContext="shape" transform="translate(560.23,-266.931)">
				<title>Sheet.73</title>
				<path d="M24.23 844.26 C24.23 845.3 18.64 845.71 11.81 844.88 C5.18 844.06 -0.2 842.61 0.01 841.37 C0.21 840.13 5.8
							 839.92 12.43 840.75 C12.43 840.75 12.43 840.75 12.43 840.75 C19.26 841.58 24.44 843.02 24.23 844.26
							 Z" class="st9"/>
			</g>
			<g id="shape74-142" v:mID="74" v:groupContext="shape" transform="translate(542.638,-278.304)">
				<title>Sheet.74</title>
				<path d="M24.43 844.26 C24.22 845.3 18.63 845.71 12.01 844.88 C5.18 844.06 -0 842.4 0 841.37 C0.21 840.13 5.8 839.92
							 12.42 840.75 C19.25 841.37 24.43 843.02 24.43 844.26 Z" class="st9"/>
			</g>
			<g id="shape75-144" v:mID="75" v:groupContext="shape" transform="translate(588.387,-284.048)">
				<title>Sheet.75</title>
				<path d="M24.23 844.22 C24.23 845.46 18.64 845.66 11.81 844.84 C11.81 844.84 11.81 844.84 11.81 844.84 C5.18 844.01
							 -0.2 842.56 0.01 841.32 C0.21 840.08 5.8 839.87 12.43 840.7 C19.26 841.53 24.44 842.98 24.23 844.22
							 Z" class="st9"/>
			</g>
			<g id="shape76-146" v:mID="76" v:groupContext="shape" transform="translate(536.214,-242.692)">
				<title>Sheet.76</title>
				<path d="M24.23 844.22 C24.02 845.46 18.64 845.66 11.81 844.84 C5.18 844.01 -0.2 842.56 0.01 841.32 C0.21 840.29
							 5.8 839.87 12.43 840.7 C19.05 841.53 24.44 842.98 24.23 844.22 Z" class="st9"/>
			</g>
			<g id="shape77-148" v:mID="77" v:groupContext="shape" transform="translate(521.107,-236.634)">
				<title>Sheet.77</title>
				<path d="M24.22 844.16 C24.22 845.4 18.63 845.6 11.8 844.98 C11.8 844.98 11.8 844.98 11.8 844.98 C5.18 844.16 -0.21
							 842.5 0 841.47 C0 841.47 0 841.47 0 841.26 C0.21 840.23 5.8 839.81 12.42 840.64 C19.05 841.47 24.43
							 843.12 24.22 844.16 Z" class="st9"/>
			</g>
			<g id="shape78-150" v:mID="78" v:groupContext="shape" transform="translate(499.776,-252.824)">
				<title>Sheet.78</title>
				<path d="M24.23 844.22 C24.02 845.46 18.43 845.66 11.81 844.84 C5.18 844.01 -0.2 842.56 0.01 841.32 C0.01 840.29
							 5.6 839.87 12.43 840.7 C19.05 841.53 24.44 842.98 24.23 844.22 Z" class="st9"/>
			</g>
			<g id="shape79-152" v:mID="79" v:groupContext="shape" transform="translate(497.913,-261.141)">
				<title>Sheet.79</title>
				<path d="M24.23 844.26 C24.23 845.3 18.64 845.71 11.81 844.88 C5.18 844.06 -0.2 842.4 0.01 841.37 C0.21 840.13 5.8
							 839.92 12.43 840.54 C19.05 841.37 24.44 843.02 24.23 844.26 Z" class="st9"/>
			</g>
			<g id="shape80-154" v:mID="80" v:groupContext="shape" transform="translate(464.379,-256.178)">
				<title>Sheet.80</title>
				<path d="M24.22 844.26 C24.22 845.3 18.63 845.71 11.8 844.88 C11.8 844.88 11.8 844.88 11.8 844.88 C5.18 844.06 -0.21
							 842.4 0 841.37 C0 841.37 0 841.37 0 841.37 C0.21 840.13 5.8 839.92 12.42 840.75 C19.05 841.37 24.43
							 843.02 24.22 844.26 Z" class="st9"/>
			</g>
			<g id="shape81-156" v:mID="81" v:groupContext="shape" transform="translate(469.963,-273.502)">
				<title>Sheet.81</title>
				<path d="M24.23 844.22 C24.23 845.46 18.64 845.66 11.81 844.84 C5.18 844.22 -0.2 842.56 0.01 841.32 C0.21 840.29
							 5.8 839.87 12.43 840.7 C19.26 841.53 24.44 843.18 24.23 844.22 Z" class="st9"/>
			</g>
			<g id="shape82-158" v:mID="82" v:groupContext="shape" transform="translate(483.012,-235.248)">
				<title>Sheet.82</title>
				<path d="M24.43 844.22 C24.22 845.46 18.63 845.66 12.01 844.84 C5.18 844.01 -0 842.56 0 841.32 C0.21 840.08 5.8 839.87
							 12.42 840.7 C19.25 841.53 24.43 842.98 24.43 844.22 Z" class="st9"/>
			</g>
			<g id="shape83-160" v:mID="83" v:groupContext="shape" transform="translate(613.645,-242.692)">
				<title>Sheet.83</title>
				<path d="M24.23 844.22 C24.02 845.46 18.64 845.66 11.81 844.84 C5.18 844.01 -0.2 842.56 0.01 841.32 C0.21 840.29
							 5.8 839.87 12.43 840.7 C19.05 841.53 24.44 842.98 24.23 844.22 Z" class="st9"/>
			</g>
			<g id="shape84-162" v:mID="84" v:groupContext="shape" transform="translate(627.73,-273.295)">
				<title>Sheet.84</title>
				<path d="M24.43 844.22 C24.22 845.46 18.63 845.66 12.01 844.84 C5.18 844.22 0 842.56 0 841.32 C0.21 840.29 5.8 839.87
							 12.42 840.7 C19.25 841.53 24.43 843.18 24.43 844.22 Z" class="st9"/>
			</g>
			<g id="shape85-164" v:mID="85" v:groupContext="shape" transform="translate(392.48,-668.835)">
				<title>Sheet.85</title>
				<desc>Trader</desc>
				<v:textBlock v:margins="rect(0,0,0,0)"/>
				<v:textRect cx="221.653" cy="779.81" width="443.31" height="131.02"/>
				<path d="M443.31 714.3 L0 714.3 L0 845.32 L443.31 845.32 L443.31 714.3" class="st10"/>
				<text x="39.65" y="812.56" class="st11" v:langID="1033"><v:paragraph v:horizAlign="1"/><v:tabList/>Trader</text>			</g>
			<g id="shape87-168" v:mID="87" v:groupContext="shape" transform="translate(309.724,-2.27374E-13)">
				<title>Sheet.87</title>
				<path d="M62.94 681.96 C118.01 626.75 202.48 629.03 255.27 681.96 C282.4 709.05 313.86 797.14 313.86 845.32 L0 845.32
							 C0 805.2 33.13 704.92 62.94 681.96 Z" class="st12"/>
			</g>
			<g id="shape88-170" v:mID="88" v:groupContext="shape" transform="translate(431.668,-167.829)">
				<title>Sheet.88</title>
				<path d="M0 818.57 C0 854.96 74.33 853.51 74.33 818.57 L74.33 775.14 C52.17 794.58 27.74 798.51 0 776.8 L0 818.57
							 Z" class="st13"/>
			</g>
			<g id="shape89-172" v:mID="89" v:groupContext="shape" transform="translate(361.014,-222.223)">
				<title>Sheet.89</title>
				<path d="M23.04 735.45 C34.63 700.71 43.95 657.91 107.3 667.63 L149.53 661.63 C172.72 663.29 185.35 706.92 193.01
							 728.63 C195.91 718.7 200.26 711.67 208.54 710.64 C212.27 726.77 214.34 743.1 197.15 759.44 C189.49 786.11
							 165.27 826.23 145.19 829.54 C120.34 852.7 95.5 849.18 70.65 831.4 C48.09 824.99 30.49 791.7 18.89 756.75
							 C-22.93 730.28 16.82 681.07 23.04 735.45 Z" class="st13"/>
			</g>
			<g id="shape90-174" v:mID="90" v:groupContext="shape" transform="translate(440.363,-253.436)">
				<title>Sheet.90</title>
				<path d="M0 827.25 L61.08 827.25 C61.08 852.07 0 850.62 0 827.25 Z" class="st7"/>
			</g>
			<g id="shape91-176" v:mID="91" v:groupContext="shape" transform="translate(367.487,-332.09)">
				<title>Sheet.91</title>
				<path d="M0 821.13 C3.11 759.3 46.79 710.29 103.52 710.29 C168.53 710.29 202.07 780.6 202.07 820.51 C194.2 820.51
							 189.44 827.74 186.54 838.5 C161.28 757.85 143.06 771.5 100.83 777.7 C72.67 779.56 35.82 767.57 16.56
							 845.32 C13.66 833.53 13.04 818.44 0 821.13 Z" class="st14"/>
			</g>
			<g id="shape92-178" v:mID="92" v:groupContext="shape" transform="translate(427.941,-319.89)">
				<title>Sheet.92</title>
				<path d="M0 843.05 C6.21 841.8 12.01 842.22 17.39 845.32 C22.36 826.71 0 826.92 0 843.05 Z" class="st15"/>
			</g>
			<g id="shape93-180" v:mID="93" v:groupContext="shape" transform="translate(491.821,-319.89)">
				<title>Sheet.93</title>
				<path d="M18.31 843.05 C11.89 841.8 6.1 842.22 0.71 845.32 C-4.25 826.71 18.31 826.92 18.31 843.05 Z" class="st15"/>
			</g>
			<g id="shape94-182" v:mID="94" v:groupContext="shape" transform="translate(815.51,-437.755)">
				<title>Sheet.94</title>
				<path d="M0 787.42 L0 845.32 L209.52 845.32 L209.52 787.42 L0 787.42 L0 787.42 Z" class="st7"/>
			</g>
			<g id="shape95-184" v:mID="95" v:groupContext="shape" transform="translate(816.249,-438.874)">
				<title>Sheet.95</title>
				<desc>practices</desc>
				<v:textBlock v:margins="rect(0,0,0,0)"/>
				<v:textRect cx="103.857" cy="817.527" width="207.72" height="55.5866"/>
				<path d="M207.71 789.73 L0 789.73 L0 845.32 L207.71 845.32 L207.71 789.73" class="st10"/>
				<text x="8.79" y="831.42" class="st16" v:langID="1033"><v:paragraph v:horizAlign="1"/><v:tabList/>practices</text>			</g>
			<g id="shape97-188" v:mID="97" v:groupContext="shape" transform="translate(1020.27,-249.584)">
				<title>Sheet.97</title>
				<path d="M0 566.17 L120.7 566.17 L120.7 845.32" class="st17"/>
			</g>
			<g id="shape98-191" v:mID="98" v:groupContext="shape" transform="translate(1095.21,-252.479)">
				<title>Sheet.98</title>
				<path d="M1.66 842.01 L4.97 842.01 C6 842.01 6.63 842.84 6.63 843.67 C6.63 844.49 6 845.32 4.97 845.32 L1.66 845.32
							 C0.83 845.32 0 844.49 0 843.67 C0 842.84 0.83 842.01 1.66 842.01 ZM11.59 842.01 L14.91 842.01 C15.94
							 842.01 16.56 842.84 16.56 843.67 C16.56 844.49 15.94 845.32 14.91 845.32 L11.59 845.32 C10.77 845.32
							 9.94 844.49 9.94 843.67 C9.94 842.84 10.77 842.01 11.59 842.01 ZM21.53 842.01 L24.84 842.01 C25.88 842.01
							 26.5 842.84 26.5 843.67 C26.5 844.49 25.88 845.32 24.84 845.32 L21.53 845.32 C20.7 845.32 19.88 844.49
							 19.88 843.67 C19.88 842.84 20.7 842.01 21.53 842.01 ZM31.47 842.01 L34.78 842.01 C35.82 842.01 36.44
							 842.84 36.44 843.67 C36.44 844.49 35.82 845.32 34.78 845.32 L31.47 845.32 C30.64 845.32 29.81 844.49
							 29.81 843.67 C29.81 842.84 30.64 842.01 31.47 842.01 Z" class="st18"/>
			</g>
			<g id="shape99-193" v:mID="99" v:groupContext="shape" transform="translate(1131.86,-245.449)">
				<title>Sheet.99</title>
				<path d="M17.6 836.64 C17.6 841.39 13.66 845.32 8.7 845.32 C8.7 845.32 8.7 845.32 8.7 845.32 C3.93 845.32 0 841.39
							 0 836.64 C0 836.64 0 836.64 0 836.64 C0 831.88 3.93 827.95 8.7 827.95 C8.7 827.95 8.7 827.95 8.7 827.95
							 C13.66 827.95 17.6 831.88 17.6 836.64 C17.6 836.64 17.6 836.64 17.6 836.64 Z" class="st7"/>
			</g>
			<g id="shape100-195" v:mID="100" v:groupContext="shape" transform="translate(1131.86,-352.561)">
				<title>Sheet.100</title>
				<path d="M17.6 836.64 C17.6 841.39 13.66 845.32 8.7 845.32 C8.7 845.32 8.7 845.32 8.7 845.32 C3.93 845.32 0 841.39
							 0 836.64 C0 836.64 0 836.64 0 836.64 C0 831.88 3.93 827.95 8.7 827.95 C8.7 827.95 8.7 827.95 8.7 827.95
							 C13.66 827.95 17.6 831.88 17.6 836.64 C17.6 836.64 17.6 836.64 17.6 836.64 Z" class="st7"/>
			</g>
			<g id="shape101-197" v:mID="101" v:groupContext="shape" transform="translate(1095.21,-359.592)">
				<title>Sheet.101</title>
				<path d="M1.66 842.01 L4.97 842.01 C6 842.01 6.63 842.63 6.63 843.67 C6.63 844.49 6 845.32 4.97 845.32 L1.66 845.32
							 C0.83 845.32 0 844.49 0 843.67 C0 842.63 0.83 842.01 1.66 842.01 ZM11.59 842.01 L14.91 842.01 C15.94
							 842.01 16.56 842.63 16.56 843.67 C16.56 844.49 15.94 845.32 14.91 845.32 L11.59 845.32 C10.77 845.32
							 9.94 844.49 9.94 843.67 C9.94 842.63 10.77 842.01 11.59 842.01 ZM21.53 842.01 L24.84 842.01 C25.88 842.01
							 26.5 842.63 26.5 843.67 C26.5 844.49 25.88 845.32 24.84 845.32 L21.53 845.32 C20.7 845.32 19.88 844.49
							 19.88 843.67 C19.88 842.63 20.7 842.01 21.53 842.01 ZM31.47 842.01 L34.78 842.01 C35.82 842.01 36.44
							 842.63 36.44 843.67 C36.44 844.49 35.82 845.32 34.78 845.32 L31.47 845.32 C30.64 845.32 29.81 844.49
							 29.81 843.67 C29.81 842.63 30.64 842.01 31.47 842.01 Z" class="st18"/>
			</g>
			<g id="shape102-199" v:mID="102" v:groupContext="shape" transform="translate(100.826,-439.823)">
				<title>Sheet.102</title>
				<path d="M0 787.63 L0 845.32 L240.78 845.32 L240.78 787.63 L0 787.63 L0 787.63 Z" class="st7"/>
			</g>
			<g id="shape103-201" v:mID="103" v:groupContext="shape" transform="translate(108.481,-439.335)">
				<title>Sheet.103</title>
				<desc>world yield</desc>
				<v:textBlock v:margins="rect(0,0,0,0)"/>
				<v:textRect cx="112.999" cy="817.527" width="226" height="55.5866"/>
				<path d="M226 789.73 L0 789.73 L0 845.32 L226 845.32 L226 789.73" class="st10"/>
				<text x="2.61" y="831.42" class="st16" v:langID="1033"><v:paragraph v:horizAlign="1"/><v:tabList/>world yield</text>			</g>
			<g id="shape104-205" v:mID="104" v:groupContext="shape" transform="translate(111.178,-229.113)">
				<title>Sheet.104</title>
				<path d="M0 787.42 L0 845.32 L226.29 845.32 L226.29 787.42 L0 787.42 L0 787.42 Z" class="st7"/>
			</g>
			<g id="shape105-207" v:mID="105" v:groupContext="shape" transform="translate(118.986,-230.417)">
				<title>Sheet.105</title>
				<desc>Producers</desc>
				<v:textBlock v:margins="rect(0,0,0,0)"/>
				<v:textRect cx="107.497" cy="817.527" width="215" height="55.5866"/>
				<path d="M214.99 789.73 L0 789.73 L0 845.32 L214.99 845.32 L214.99 789.73" class="st10"/>
				<text x="0" y="831.42" class="st16" v:langID="1033"><v:paragraph/><v:tabList/>Producers</text>			</g>
			<g id="shape107-211" v:mID="107" v:groupContext="shape" transform="translate(106.623,-332.917)">
				<title>Sheet.107</title>
				<path d="M0 787.42 L0 845.32 L238.3 845.32 L238.3 787.42 L0 787.42 L0 787.42 Z" class="st7"/>
			</g>
			<g id="shape108-213" v:mID="108" v:groupContext="shape" transform="translate(111.23,-334.249)">
				<title>Sheet.108</title>
				<desc>Rice prices</desc>
				<v:textBlock v:margins="rect(0,0,0,0)"/>
				<v:textRect cx="114.75" cy="817.527" width="229.5" height="55.5866"/>
				<path d="M229.5 789.73 L0 789.73 L0 845.32 L229.5 845.32 L229.5 789.73" class="st10"/>
				<text x="1.96" y="831.42" class="st16" v:langID="1033"><v:paragraph v:horizAlign="1"/><v:tabList/>Rice prices  </text>			</g>
			<g id="shape110-217" v:mID="110" v:groupContext="shape" transform="translate(131.674,-502.064)">
				<title>Sheet.110</title>
				<path d="M0 787.63 L0 845.32 L209.52 845.32 L209.52 787.63 L0 787.63 L0 787.63 Z" class="st7"/>
			</g>
			<g id="shape111-219" v:mID="111" v:groupContext="shape" transform="translate(149.48,-502.335)">
				<title>Sheet.111</title>
				<desc>Average</desc>
				<v:textBlock v:margins="rect(0,0,0,0)"/>
				<v:textRect cx="86.9986" cy="817.527" width="174" height="55.5866"/>
				<path d="M174 789.73 L0 789.73 L0 845.32 L174 845.32 L174 789.73" class="st10"/>
				<text x="2.71" y="831.42" class="st16" v:langID="1033"><v:paragraph v:horizAlign="1"/><v:tabList/>Average</text>			</g>
			<g id="shape112-223" v:mID="112" v:groupContext="shape" transform="translate(815.51,-500.823)">
				<title>Sheet.112</title>
				<path d="M0 787.63 L0 845.32 L209.52 845.32 L209.52 787.63 L0 787.63 L0 787.63 Z" class="st7"/>
			</g>
			<g id="shape113-225" v:mID="113" v:groupContext="shape" transform="translate(818.63,-501.874)">
				<title>Sheet.113</title>
				<desc>Cropping</desc>
				<v:textBlock v:margins="rect(0,0,0,0)"/>
				<v:textRect cx="100.8" cy="817.527" width="201.61" height="55.5866"/>
				<path d="M201.6 789.73 L0 789.73 L0 845.32 L201.6 845.32 L201.6 789.73" class="st10"/>
				<text x="7.3" y="831.42" class="st16" v:langID="1033"><v:paragraph v:horizAlign="1"/><v:tabList/>Cropping</text>			</g>
			<g id="shape115-229" v:mID="115" v:groupContext="shape" transform="translate(915.715,-333.744)">
				<title>Sheet.115</title>
				<path d="M0 787.63 L0 845.32 L181.98 845.32 L181.98 787.63 L0 787.63 L0 787.63 Z" class="st7"/>
			</g>
			<g id="shape116-231" v:mID="116" v:groupContext="shape" transform="translate(918.712,-335.042)">
				<title>Sheet.116</title>
				<desc>Organic</desc>
				<v:textBlock v:margins="rect(0,0,0,0)"/>
				<v:textRect cx="86.1964" cy="817.527" width="172.4" height="55.5866"/>
				<path d="M172.39 789.73 L0 789.73 L0 845.32 L172.39 845.32 L172.39 789.73" class="st10"/>
				<text x="6.33" y="831.42" class="st16" v:langID="1033"><v:paragraph v:horizAlign="1"/><v:tabList/>Organic</text>			</g>
			<g id="shape118-235" v:mID="118" v:groupContext="shape" transform="translate(801.846,-223.944)">
				<title>Sheet.118</title>
				<path d="M0 787.63 L0 845.32 L294.61 845.32 L294.61 787.63 L0 787.63 L0 787.63 Z" class="st7"/>
			</g>
			<g id="shape119-237" v:mID="119" v:groupContext="shape" transform="translate(814.355,-224.792)">
				<title>Sheet.119</title>
				<desc>Conventional</desc>
				<v:textBlock v:margins="rect(0,0,0,0)"/>
				<v:textRect cx="136.055" cy="817.527" width="272.12" height="55.5866"/>
				<path d="M272.11 789.73 L0 789.73 L0 845.32 L272.11 845.32 L272.11 789.73" class="st10"/>
				<text x="0" y="831.42" class="st16" v:langID="1033"><v:paragraph/><v:tabList/>Conventional</text>			</g>
		</g>
	</g>
</svg>
