<svg xmlns="http://www.w3.org/2000/svg" viewBox="0 0 1193 845" color-interpolation-filters="sRGB" fill="none" fill-rule="evenodd" font-size="12" overflow="visible" stroke-linecap="square" stroke-miterlimit="3"><style>.st10,.st11,.st12,.st2,.st5,.st6,.st8{stroke:none;stroke-linecap:round;stroke-linejoin:round;stroke-width:.75}.st10,.st11,.st12,.st5,.st6,.st8{fill:#fff}.st10,.st11,.st12,.st6,.st8{fill:#f2e2c1}.st10,.st11,.st12,.st8{fill:#000}.st10,.st11,.st12{fill:#ecf4f7}.st11,.st12{fill:#2f9f4b}.st12{fill:#d2b373}.st17{fill:#000;font-family:Roboto;font-size:3.85991em}</style><g id="group52-1"><g id="shape4-2"><path d="M0 0v845.32h1192.52V0H0z" fill="#c6ded1" stroke-linecap="round" stroke-linejoin="round" stroke-width=".75"/></g><g id="shape5-4" transform="translate(346.578 -687.316)"><path d="M523.81 714.3H0v131.02h523.81V714.3" class="st2"/><text x="51.51" y="812.56" fill="#000" font-family="Merriweather" font-size="9.098em">Breeder</text></g><g id="shape7-8"><path d="M0 0l1192.52 845.32H0V0z" fill="#b3d4c1" stroke-linecap="round" stroke-linejoin="round" stroke-width=".75"/></g><g id="shape8-10" transform="translate(234.57)"><path d="M56.73 723.73c55.07-55 139.33-52.73 192.13 0 20.49 20.47 43.27 75.06 53.2 121.59H0c10.97-45.91 34.78-104.63 56.73-121.59z" class="st5"/></g><g id="shape9-12" transform="translate(350.303 -125.852)"><path d="M0 818.57c0 36.39 74.33 34.94 74.33 0v-43.43C51.97 794.58 27.54 798.3 0 776.8v41.77z" class="st6"/></g><g id="shape10-14" transform="translate(279.595 -180.349)"><path d="M22.88 735.35c11.8-34.74 21.12-77.34 84.47-67.62l42.03-5.99c23.4 1.44 35.82 45.28 43.69 66.99 2.69-9.92 7.24-17.16 15.32-18.19 3.72 16.33 6 32.67-11.39 49-7.45 26.68-31.88 66.59-51.97 70.1-24.84 22.95-49.68 19.65-74.32 1.66-22.78-6.41-40.37-39.5-51.76-74.45-41.82-26.46-2.28-75.68 3.93-21.5z" class="st6"/></g><g id="shape11-16" transform="translate(358.791 -211.588)"><path d="M0 827.18h61.08c0 25.02-61.08 23.36-61.08 0z" class="st5"/></g><g id="shape12-18" transform="translate(286.122 -290.32)"><path d="M0 821.33C2.9 759.51 46.58 710.5 103.52 710.5c65.01 0 98.34 70.3 98.34 110.01-7.87.2-12.42 7.23-15.32 18.19-25.47-80.64-43.69-66.99-85.71-61-28.37 2.07-65.22-9.92-84.47 67.62-2.9-11.58-3.32-26.88-16.36-23.99z" fill="#2f2f39" stroke-linecap="round" stroke-linejoin="round" stroke-width=".75"/></g><g id="shape13-20" transform="translate(346.369 -277.913)"><path d="M0 843.05c6.42-1.45 12.01-1.04 17.39 2.27C22.36 826.5 0 826.71 0 843.05z" class="st8"/></g><g id="shape14-22" transform="translate(410.451 -277.913)"><path d="M18.11 843.05c-6.42-1.45-12.01-1.04-17.39 2.27-4.97-18.82 17.39-18.61 17.39-2.27z" class="st8"/></g><g id="shape15-24" transform="translate(322.767 -81.265)"><path d="M26.91 796.11L0 781.01c8.28-4.55 16.77-8.06 25.47-10.75 5.38 40.32 72.25 39.91 77.22 0 8.9 2.69 17.39 6.41 25.67 10.75l-26.08 15.1 18.84 11.37-56.53 37.84-56.31-37.84 18.63-11.37z" fill="#cbcbcb" stroke-linecap="round" stroke-linejoin="round" stroke-width=".75"/></g><g id="shape16-26" transform="translate(540.982 -87.055)"><path d="M8.07 430.72c-4.34 0-8.07 3.11-8.07 7.24v7.45c0 4.13 3.73 7.44 8.07 7.44h103.94c4.55 0 8.07-3.31 8.07-7.44v-7.45c0-4.13-3.52-7.24-8.07-7.24H8.07zm2.7 30.4v338.09c0 25.64 21.11 46.11 47.2 46.11 26.29 0 47.41-20.47 47.41-46.11V461.12H10.77z" class="st10"/></g><g id="shape17-28" transform="translate(690.668 -87.055)"><path d="M8.07 430.72c-4.55 0-8.07 3.11-8.07 7.24v7.45c0 4.13 3.52 7.44 8.07 7.44h103.94c4.55 0 8.07-3.31 8.07-7.44v-7.45c0-4.13-3.52-7.24-8.07-7.24H8.07zm2.7 30.4v338.09c0 25.64 21.11 46.11 47.2 46.11 26.29 0 47.41-20.47 47.41-46.11V461.12H10.77z" class="st10"/></g><g id="shape18-30" transform="translate(741.841 -194.259)"><path d="M11.56 843.34c-.62 1.87 3.93 3.52 3.93 0C5.97 628.09 9.7 487.47 69.94 420.89c25.88-3.31 33.75 11.17 41.82 25.85 3.94-1.86 4.97-5.17.21-11.99 6.42 5.79 15.73 8.47 9.52-4.14-9.11-16.54-22.15-27.71-39.95-32.88-18.64 8.69-26.3 22.33-33.96 35.98-50.1 63.9-57.97 194.79-36.02 409.63z" class="st11"/></g><g id="shape19-32" transform="translate(781.763 -603.387)"><path d="M49.48 845.32c-2.07 0-4.97-2.07-6.21-4.96-.41-.62-1.03-.21-1.45-.62-.62 2.27-2.07 3.1-3.52 0-1.24.82-3.1 2.06-3.31.2.41 2.07-.83 2.69-2.49 2.49l-4.14-17.17c-.82 10.34-6.83 5.38-10.35.83-3.72 5.58-7.45 7.65-10.97 3.1-3.31 1.86-6 2.28-7.04-3.1 1.04-8.48 1.45-17.37 4.55-25.64 2.28-1.04 4.97-.83 6.22-4.34 3.31-3.73 6.21-6 7.45 1.03 3.1 0 6.21-1.45 8.9.62 5.18-4.34 7.25-2.27 7.87 2.28 2.9-2.49 4.97-6.42 9.52-3.93 1.87-1.66 4.56 0 7.04 1.03l-3.31 24.81c-1.24 1.24-2.07 1.45-2.9.62l-1.86-10.96-2.49 4.35c3.32 1.44 4.14 3.31 1.66 5.17l6.42 7.65c2.27-2.69 5.79-2.48 10.14-.62l.62-2.07-7.24-2.9c-2.07.42-3.52-.2-2.9-3.51-.42-5.38.62-10.34 3.93-14.27 4.97-3.93 6.21-1.86 6.63 1.86 5.79-2.07 11.59-3.51 17.39-2.89 3.72 2.89.62 6.2-.62 9.51 3.52.83 2.27 3.72 1.86 6.2 4.97-.41 9.32 1.45 13.87 4.14 14.08 3.72 9.94 14.06-1.65 10.96-2.49 2.48-2.7 6.41-10.15 5.37-5.18-.82-7.87-2.89-8.49-5.99.62 3.31-4.76.41-7.45.41l3.52 4.14c3.1 2.89 1.65 5.99-1.24 5.99-5.39.21-10.15-2.48-15.12-4.34 0 3.1-1.03 4.55-2.69 4.55zm-25.46-27.29l3.31-2.9.41-1.86c2.07-1.03 4.56-.83 7.04-.41v-1.45c-1.45.83-3.1-.21-4.76-2.07-4.55-.83-6.83-2.27-9.73-3.72l-2.07 8.06c4.97-1.86 5.59 1.04 5.8 4.35z" class="st12"/></g><g id="shape20-34" transform="translate(592.362 -194.259)"><path d="M11.56 843.34c-.62 1.87 3.93 3.52 3.93 0C5.97 628.09 9.7 487.47 69.94 420.89c25.88-3.31 33.75 11.17 41.82 25.85 3.94-1.86 4.97-5.17.21-11.99 6.42 5.79 15.73 8.47 9.32-4.14-8.91-16.54-21.95-27.71-39.75-32.88-18.64 8.69-26.3 22.33-33.96 35.98-50.1 63.9-57.97 194.79-36.02 409.63z" class="st11"/></g><g id="shape21-36" transform="translate(610.339 -579.736)"><path d="M60.04 781.14c-2.48 0-5.8 2.48-7.45 6.2-.62.62-1.25 0-1.66.62-.62-2.68-2.48-3.72-4.35 0-1.45-.82-3.93-2.48-3.93-.2.21-2.69-1.04-3.31-3.11-2.9l-4.97 20.89c-1.03-12.82-8.28-6.83-12.62-1.04-4.56-7.03-9.11-9.51-13.25-3.72-4.15-2.48-7.46-2.89-8.7 3.52 1.45 10.54 1.66 21.09 5.59 31.22 2.69 1.24 6 1.03 7.66 5.17 3.73 4.76 7.25 7.44 8.9-1.24 3.73 0 7.66 1.86 10.98-.62 6.21 5.38 8.48 2.89 9.52-2.9 3.31 3.11 6 7.86 11.59 4.76 2.07 2.07 5.39.21 8.49-1.24l-4.14-29.98c-1.24-1.45-2.48-1.86-3.52-.62L53 822.29l-3.1-5.17c3.93-2.07 4.96-4.14 1.86-6.41l7.87-9.3c2.89 3.1 7.24 2.89 12.21.62l1.04 2.48-8.91 3.51c-2.69-.41-4.34.21-3.72 4.34-.21 6.62.83 12.62 4.97 17.37 6 4.76 7.66 2.28 8.07-2.27 7.04 2.48 14.08 4.14 21.12 3.51 4.35-3.51.62-7.65-.62-11.58 4.14-1.03 2.69-4.54 2.07-7.65 6 .62 11.38-1.44 16.77-4.96 17.18-4.55 12.21-16.95-1.87-13.23-3.1-2.9-3.1-7.65-12.21-6.62-6.42 1.03-9.73 3.52-10.56 7.44 1.03-4.13-5.8-.62-8.9-.62l4.14-4.96c3.72-3.72 2.07-7.24-1.45-7.24-6.63-.2-12.42 2.9-18.43 5.17.21-3.72-1.24-5.37-3.31-5.58zm-30.85 33.09l4.14 3.72.42 2.27c2.69 1.04 5.59.83 8.49.42v1.65c-1.66-.83-3.73.21-5.8 2.48-5.38 1.24-8.28 3.1-11.8 4.76l-2.49-9.93c6.01 2.28 6.83-1.03 7.04-5.37z" class="st12"/></g><g id="shape22-38" transform="translate(568.518 -101.529)"><path d="M61.08 546.94v268.4c0 16.54-13.67 29.98-30.65 29.98C13.66 845.32 0 831.88 0 815.34v-268.4h61.08z" fill="#ced146" fill-opacity=".9" stroke-linecap="round" stroke-linejoin="round" stroke-width=".75"/></g><g id="shape23-40" transform="translate(585.702 -245.449)"><path d="M27.95 720.84c-3.52 0-6.42 2.89-6.42 6.41 0 3.51 2.9 6.41 6.42 6.41 3.73 0 6.42-2.9 6.42-6.41 0-3.52-2.69-6.41-6.42-6.41zM3.52 758.47c-1.86 0-3.52 1.66-3.52 3.72 0 1.87 1.66 3.52 3.52 3.52 2.07 0 3.73-1.65 3.73-3.52 0-2.06-1.66-3.72-3.73-3.72zm10.14 35.98c-2.07 0-3.72 1.66-3.72 3.72 0 1.87 1.65 3.52 3.72 3.52 1.87 0 3.52-1.65 3.52-3.52 0-2.06-1.65-3.72-3.52-3.72zm9.73 38.05c-3.72 0-6.41 2.89-6.41 6.41 0 3.72 2.69 6.41 6.41 6.41 3.52 0 6.42-2.69 6.42-6.41 0-3.52-2.9-6.41-6.42-6.41z" fill="#f4f044" stroke-linecap="round" stroke-linejoin="round" stroke-width=".75"/></g><g id="shape24-42" transform="translate(718.204 -101.529)"><path d="M61.08 546.94v268.4c0 16.54-13.67 29.98-30.65 29.98C13.66 845.32 0 831.88 0 815.34v-268.4h61.08z" fill="#7eba98" fill-opacity=".76" stroke-linecap="round" stroke-linejoin="round" stroke-width=".75"/></g><g id="shape25-44" transform="translate(735.388 -245.449)"><path d="M27.95 720.84c-3.52 0-6.42 2.89-6.42 6.41 0 3.51 2.9 6.41 6.42 6.41s6.42-2.9 6.42-6.41c0-3.52-2.9-6.41-6.42-6.41zM3.52 758.47c-1.86 0-3.52 1.66-3.52 3.72 0 1.87 1.66 3.52 3.52 3.52 2.07 0 3.73-1.65 3.73-3.52 0-2.06-1.66-3.72-3.73-3.72zm10.14 35.98c-2.07 0-3.72 1.66-3.72 3.72 0 1.87 1.65 3.52 3.72 3.52 1.87 0 3.52-1.65 3.52-3.52 0-2.06-1.65-3.72-3.52-3.72zm9.53 38.05c-3.52 0-6.42 2.89-6.42 6.41 0 3.72 2.9 6.41 6.42 6.41 3.72 0 6.42-2.69 6.42-6.41 0-3.52-2.7-6.41-6.42-6.41z" fill="#c2dbce" stroke-linecap="round" stroke-linejoin="round" stroke-width=".75"/></g><g id="shape26-46" transform="translate(60.868 -490.071)"><path d="M0 787.63v57.69h231.46v-57.69H0z" class="st5"/></g><g id="shape27-48" transform="translate(88.404 -380.89)"><path d="M0 787.42v57.9h176.39v-57.9H0z" class="st5"/></g><g id="shape28-50" transform="translate(121.736 -320.51)"><path d="M0 787.63v57.69h109.73v-57.69H0z" class="st5"/></g><g id="shape29-52" transform="translate(57.877 -491.033)"><path d="M237.21 789.73H0v55.59h237.21v-55.59" class="st2"/><text x="10.7" y="831.42" class="st17">conditions</text></g><g id="shape31-56" transform="translate(90.98 -382.239)"><path d="M169.04 789.73H0v55.59h169.04v-55.59" class="st2"/><text x="5.47" y="831.42" class="st17">Climate</text></g><g id="shape33-60" transform="translate(121.781 -320.033)"><path d="M108.7 789.73H0v55.59h108.7v-55.59" class="st2"/><text x="8.53" y="831.42" class="st17">data</text></g><g id="shape34-64" transform="translate(810.541 -553.139)"><path d="M0 787.63v57.69h248.23v-57.69H0z" class="st5"/></g><g id="shape35-66" transform="translate(813.23 -554.826)"><path d="M242.44 789.73H0v55.59h242.44v-55.59" class="st2"/><text x="11.81" y="831.42" class="st17">Phenotype</text></g><g id="shape37-70" transform="translate(871.203 -491.725)"><path d="M0 787.63v57.69h126.91v-57.69H0z" class="st5"/></g><g id="shape38-72" transform="translate(878.48 -491.826)"><path d="M111.38 789.73H0v55.59h111.38v-55.59" class="st2"/><text x="14.5" y="831.42" class="st17">trait</text></g><g id="shape39-76" transform="translate(914.68 -389.368)"><path d="M0 787.42v57.9h182.81v-57.9H0z" class="st5"/></g><g id="shape40-78" transform="translate(917.412 -391.239)"><path d="M174.14 789.73H0v55.59h174.14v-55.59" class="st2"/><text x="5.24" y="831.42" class="st17">Disease</text></g><g id="shape42-82" transform="translate(871.203 -326.921)"><path d="M0 787.63v57.69h226.29v-57.69H0z" class="st5"/></g><g id="shape43-84" transform="translate(873.98 -329.033)"><path d="M220.5 789.73H0v55.59h220.5v-55.59" class="st2"/><text x="3.31" y="831.42" class="st17">resistance</text></g><g id="shape45-88" transform="translate(760.025 -225.184)"><path d="M0 787.63v57.69h340.99v-57.69H0z" class="st5"/></g><g id="shape46-90" transform="translate(765.98 -224.739)"><path d="M328.5 789.73H0v55.59h328.5v-55.59" class="st2"/><text x="6.34" y="831.42" class="st17">Protein content</text></g><g id="shape47-94" transform="translate(968.302 -119.313)"><path d="M0 787.42v57.9h132.71v-57.9H0z" class="st5"/></g><g id="shape48-96" transform="translate(984.363 -121.239)"><path d="M103.23 789.73H0v55.59h103.23v-55.59" class="st2"/><text x="1.14" y="831.42" class="st17">Yield</text></g><g id="shape50-100" transform="translate(74.326 -549.83)"><path d="M0 787.63v57.69h204.55v-57.69H0z" class="st5"/></g><g id="shape51-102" transform="translate(70.179 -550.408)"><path d="M212.6 789.73H0v55.59h212.6v-55.59" class="st2"/><text x="20.69" y="831.42" class="st17">Growing</text></g></g></svg>