<?xml version="1.0" encoding="UTF-8"?>
<svg version="1.1" xmlns="http://www.w3.org/2000/svg" xmlns:xlink="http://www.w3.org/1999/xlink" x="0px" y="0px" viewBox="0 0 346 346" style="enable-background:new 0 0 346 346;" xml:space="preserve">
<style type="text/css">
	.st0{fill:#90D3CA;}
	.st1{fill:#95D4CB;}
	.st2{fill:#D8E47B;}
	.st3{fill:#FAB17E;}
	.st4{fill:#F79B80;}
	.st5{fill:#F69281;}
	.st6{fill:#F69080;}
	.st7{fill:#F8A480;}
	.st8{fill:#F9AD80;}
	.st9{fill:#F9AC80;}
	.st10{fill:#818181;}
	.st11{fill:#FCBA7F;}
	.st12{fill:#FDC080;}
	.st13{fill:#FDC580;}
	.st14{fill:#FEC880;}
	.st15{fill:#FFCD80;}
	.st16{fill:#FFCF80;}
	.st17{fill:#E9EB80;}
	.st18{fill:#FCF285;}
	.st19{fill:#FDF383;}
	.st20{fill:#F5F083;}
	.st21{fill:#EBEB82;}
	.st22{fill:#E2E87F;}
	.st23{fill:#E3E87F;}
	.st24{fill:#B7D775;}
	.st25{fill:#C1DB79;}
	.st26{fill:#C4DC7A;}
	.st27{fill:#C2DB79;}
	.st28{fill:#BFDA79;}
	.st29{fill:#BAD978;}
	.st30{fill:#BBD978;}
	.st31{fill:#B8D777;}
	.st32{fill:#A0CF71;}
	.st33{fill:#A4D172;}
	.st34{fill:#A9D273;}
	.st35{fill:#9DCE71;}
	.st36{fill:#97CD7C;}
	.st37{fill:#98CD73;}
	.st38{fill:#98CF92;}
	.st39{fill:#98CF8D;}
	.st40{fill:#99CF92;}
	.st41{fill:#98D0A0;}
	.st42{fill:#98D09D;}
	.st43{fill:#98D1A2;}
	.st44{fill:#97D1AA;}
	.st45{fill:#98D1AA;}
	.st46{fill:#97D2AF;}
	.st47{fill:#98D2B2;}
	.st48{fill:#88BDE6;}
	.st49{fill:#93D8ED;}
	.st50{fill:#99D7DA;}
	.st51{fill:#99D5C8;}
	.st52{fill:#99D3BA;}
	.st53{fill:#99D8E2;}
	.st54{fill:#99D9E6;}
	.st55{fill:#97D9E9;}
	.st56{fill:#95D8EB;}
	.st57{fill:#88D6F8;}
	.st58{fill:#87CCF1;}
	.st59{fill:#8BBFE8;}
	.st60{fill:#8AB5E0;}
	.st61{fill:#8BAEDC;}
	.st62{fill:#8AACDA;}
	.st63{fill:#8190C8;}
	.st64{fill:#8393CA;}
	.st65{fill:#8598CD;}
	.st66{fill:#818FC8;}
	.st67{fill:#818BC5;}
	.st68{fill:#7D86C2;}
	.st69{fill:#7B7BBA;}
	.st70{fill:#7C7BBA;}
	.st71{fill:#7B81BF;}
	.st72{fill:#897DBA;}
	.st73{fill:#897EBB;}
	.st74{fill:#917FBB;}
	.st75{fill:#907FBB;}
	.st76{fill:#C688BB;}
	.st77{fill:#A281BB;}
	.st78{fill:#9D82BC;}
	.st79{fill:#9B81BC;}
	.st80{fill:#9881BC;}
	.st81{fill:#9A81BC;}
	.st82{fill:#A182BB;}
	.st83{fill:#A883BC;}
	.st84{fill:#A583BB;}
	.st85{fill:#B986BC;}
	.st86{fill:#B786BC;}
	.st87{fill:#B486BC;}
	.st88{fill:#B285BC;}
	.st89{fill:#B586BC;}
	.st90{fill:#B887BC;}
	.st91{fill:#BA87BC;}
	.st92{fill:#C189BC;}
	.st93{fill:#CE8ABC;}
	.st94{fill:#C98ABC;}
	.st95{fill:#CE8BBC;}
	.st96{fill:#CF8BBC;}
	.st97{fill:#D888BA;}
	.st98{fill:#D68ABB;}
	.st99{fill:#E187B8;}
	.st100{fill:#DE88B9;}
	.st101{fill:#E685B7;}
	.st102{fill:#E884B6;}
	.st103{fill:#EB83B5;}
	.st104{fill:#EB84B6;}
	.st105{fill:#F080B3;}
	.st106{fill:#F17DB1;}
	.st107{fill:#F280B3;}
	.st108{fill:#F17CB1;}
	.st109{fill:#F171A3;}
	.st110{fill:#F178AA;}
	.st111{fill:#F27CAD;}
	.st112{fill:#F27FAF;}
</style>
<path class="st0" d="M193.5,201l15.3,19.9c26-19.9,30.9-57.1,10.9-83.1c-20-25.9-57.3-30.8-83.4-10.9c-26,19.9-30.9,57.1-10.9,83.1  c18.2,23.5,51.1,30,76.9,15.2l-12.6-21.6c-16.5,9.4-37.4,3.7-46.9-12.7c-9.4-16.4-3.7-37.3,12.7-46.7c16.5-9.4,37.4-3.7,46.9,12.7  C210.7,171.7,207,190.5,193.5,201"/>
<path class="st1" d="M209.8,220.6l15.6,19.6c36.7-29.2,42.8-82.5,13.5-119.1s-82.8-42.7-119.5-13.5s-42.8,82.5-13.5,119.1  c26.3,32.9,72.7,41.6,109.2,20.6l-12.6-21.6c-28.7,16.5-65.3,6.7-81.9-21.9s-6.7-65.1,22-81.6s65.3-6.7,81.9,21.9  C239.1,169.6,233,202.2,209.8,220.6"/>
<path class="st2" d="M111.1,114.5L93.1,97c-42.6,43.6-41.6,113.4,2.1,155.9c35.5,34.5,89.7,41.2,132.7,16.4l-12.6-21.6  c-40.8,23.6-93.2,9.7-116.9-31.1C79.2,183.6,84.4,141.9,111.1,114.5"/>
<path class="st3" d="M132,277l-9.2,23.3c38.6,15.1,82.1,11.8,118-9l-12.6-21.6C198.9,286.6,163.5,289.3,132,277"/>
<path class="st4" d="M176.6,310.1l0.7,25c26.9-0.8,53.1-8.3,76.4-21.7L241,291.8C221.4,303.1,199.3,309.4,176.6,310.1"/>
<path class="st5" d="M201.3,334.8l0.7,3.7c19.3-3.4,37.8-10.2,54.8-20l-1.9-3.2C238.2,324.8,220.2,331.4,201.3,334.8"/>
<path class="st6" d="M210.6,339l0.8,3.7c17-3.9,33.2-10.3,48.2-19l-1.9-3.2C243,328.9,227.2,335.1,210.6,339"/>
<path class="st7" d="M202.3,340.7l0.7,3.7c2.7-0.5,5.3-1,8-1.6l-0.8-3.7C207.5,339.7,204.9,340.2,202.3,340.7"/>
<path class="st8" d="M182.6,337l0.2,3.7c6.2-0.4,12.4-1.1,18.6-2.2l-0.7-3.7C194.8,335.9,188.8,336.6,182.6,337"/>
<path class="st9" d="M192,346c3.5-0.4,7-0.9,10.5-1.5l-0.7-3.7c-3.4,0.6-6.9,1.1-10.4,1.5"/>
<path class="st10" d="M177.4,337.3l0.1,3.7c1.6,0,3.2-0.1,4.9-0.2l-0.2-3.7C180.5,337.2,179,337.2,177.4,337.3"/>
<path class="st11" d="M170.1,310.1l-0.5,25c2.4,0,4.8,0,7.2,0l-0.7-25C174.1,310.2,172.1,310.2,170.1,310.1"/>
<path class="st12" d="M165,309.9l-1.4,25c1.9,0.1,3.7,0.2,5.6,0.2l0.5-25C168.1,310.1,166.5,310,165,309.9"/>
<path class="st13" d="M160,309.6l-2.3,24.9c1.8,0.2,3.6,0.3,5.4,0.4l1.4-25C163,309.8,161.5,309.7,160,309.6"/>
<path class="st14" d="M155.9,309.2l-3.1,24.8c1.4,0.2,2.9,0.3,4.3,0.5l2.3-24.9C158.2,309.4,157.1,309.3,155.9,309.2"/>
<path class="st15" d="M152.2,308.7l-3.7,24.7c1.3,0.2,2.6,0.4,3.9,0.5l3.1-24.8C154.3,309,153.2,308.8,152.2,308.7"/>
<path class="st16" d="M148.6,308.1l-4.4,24.6c1.3,0.2,2.5,0.4,3.8,0.6l3.7-24.7C150.6,308.4,149.6,308.3,148.6,308.1"/>
<path class="st10" d="M122.5,300.8l-9.2,23.3c9.8,3.8,20,6.7,30.3,8.6l4.4-24.6C139.4,306.4,130.9,304,122.5,300.8"/>
<path class="st17" d="M73.9,225.1l-22.3,11.5c15.2,29,40.2,51.5,70.6,63.5l9.2-23.3C106.7,267.1,86.2,248.7,73.9,225.1"/>
<path class="st18" d="M89.5,282.2l-15.3,19.9c11.8,9,24.8,16.3,38.6,21.7l9.2-23.3C110.4,296,99.4,289.8,89.5,282.2"/>
<path class="st19" d="M78.8,308.1l-2.1,3.1c10.6,7.3,22.1,13.4,34,18.2l1.4-3.5C100.3,321.3,89.2,315.3,78.8,308.1"/>
<path class="st10" d="M103.9,328.9l-1.5,3.4c2,0.9,4.1,1.7,6.1,2.6l1.4-3.5C107.9,330.6,105.9,329.8,103.9,328.9"/>
<path class="st10" d="M97.5,326l-1.7,3.4c2,1,4,1.9,6,2.8l1.5-3.4C101.5,327.9,99.5,326.9,97.5,326"/>
<path class="st10" d="M91.3,322.8l-1.8,3.3c1.9,1.1,3.9,2.1,5.9,3l1.7-3.4C95.1,324.8,93.2,323.8,91.3,322.8"/>
<path class="st10" d="M86.3,320l-1.9,3.2c1.5,0.9,3.1,1.8,4.7,2.6l1.8-3.3C89.4,321.7,87.8,320.9,86.3,320"/>
<path class="st10" d="M82.2,317.5l-2,3.2c1.3,0.8,2.5,1.6,3.8,2.3l1.9-3.2C84.7,319,83.4,318.2,82.2,317.5"/>
<path class="st10" d="M75.4,313l-2.1,3.1c2.1,1.5,4.3,2.9,6.5,4.3l2-3.2C79.6,315.9,77.5,314.5,75.4,313"/>
<path class="st20" d="M74.7,305.2l-2.2,3c1.3,0.9,2.5,1.9,3.8,2.8l2.1-3.1C77.2,307,75.9,306.1,74.7,305.2"/>
<path class="st21" d="M76.1,270.6l-17.7,17.7c4.9,4.8,10,9.3,15.6,13.5l15.3-19.9C84.5,278.4,80.2,274.6,76.1,270.6"/>
<path class="st22" d="M71.5,265.9l-18.6,16.8c1.6,1.8,3.3,3.5,5,5.2l17.7-17.7C74.3,268.8,72.9,267.3,71.5,265.9"/>
<path class="st23" d="M51.8,284.7l-2.8,2.5c1.5,1.7,3.1,3.3,4.7,4.9l2.6-2.7C54.9,287.9,53.3,286.3,51.8,284.7"/>
<path class="st10" d="M51.1,236.8l-22.3,11.5c6.4,12.3,14.5,23.8,23.8,34l18.6-16.8C63.3,256.8,56.5,247.2,51.1,236.8"/>
<path class="st24" d="M62.6,190.9l-24.8,3.8c2.2,14.5,6.8,28.5,13.5,41.5l22.3-11.5C68.1,214.1,64.4,202.7,62.6,190.9"/>
<path class="st25" d="M45.6,224.6l-23.3,9.3c1.9,4.7,4,9.4,6.4,14L51,236.4C48.9,232.5,47.2,228.6,45.6,224.6"/>
<path class="st26" d="M24.4,244.4L21,246c0.7,1.6,1.5,3.1,2.3,4.6l3.3-1.7C25.9,247.4,25.1,245.9,24.4,244.4"/>
<path class="st27" d="M22.5,240.3l-3.4,1.5c0.6,1.3,1.1,2.5,1.7,3.7l3.4-1.6C23.6,242.7,23.1,241.5,22.5,240.3"/>
<path class="st28" d="M20.8,236.2l-3.5,1.4c0.5,1.2,1,2.5,1.6,3.7l3.4-1.5C21.8,238.6,21.3,237.4,20.8,236.2"/>
<path class="st29" d="M43.1,218.2l-23.8,8.1c0.8,2.4,1.7,4.8,2.6,7.1l23.3-9.3C44.6,222.2,43.9,220.2,43.1,218.2"/>
<path class="st30" d="M18.2,229.6l-3.5,1.3c0.6,1.6,1.2,3.2,1.8,4.8l3.5-1.4C19.4,232.7,18.8,231.2,18.2,229.6"/>
<path class="st31" d="M41.5,213.5l-24,7.2c0.5,1.7,1.1,3.4,1.6,5.1l23.8-8.1C42.4,216.3,42,214.9,41.5,213.5"/>
<path class="st10" d="M37.3,194.8l-24.8,3.8c1.1,7.3,2.8,14.6,4.9,21.7l24-7.2C39.6,207,38.2,200.9,37.3,194.8"/>
<path class="st32" d="M62,160.7l-24.9-3c-1.5,12.2-1.3,24.4,0.5,36.5l24.8-3.8C61,180.6,60.9,170.6,62,160.7"/>
<path class="st33" d="M35.7,171.5L10.6,171c-0.2,9,0.4,18.1,1.8,27l24.8-3.8C36,186.7,35.5,179.1,35.7,171.5"/>
<path class="st34" d="M9.4,192.7l-3.7,0.4c0.2,1.9,0.5,3.9,0.8,5.8l3.7-0.6C9.9,196.5,9.7,194.6,9.4,192.7"/>
<path class="st34" d="M3.7,195.2L0,195.7c0.2,1.4,0.4,2.8,0.6,4.2l3.7-0.6C4.1,197.9,3.9,196.5,3.7,195.2"/>
<path class="st10" d="M8.4,171l-3.8-0.1c-0.1,7.3,0.2,14.5,1,21.8l3.7-0.4C8.6,185.2,8.2,178.1,8.4,171"/>
<path class="st35" d="M35.9,165.7l-25.1-1.6c-0.1,2.1-0.2,4.3-0.3,6.4l25.1,0.5C35.7,169.2,35.8,167.4,35.9,165.7"/>
<path class="st10" d="M36.6,157.6l-24.9-3c-0.4,3-0.6,6-0.8,9.1l25.1,1.6C36.1,162.6,36.3,160.1,36.6,157.6"/>
<path class="st36" d="M67.4,137.6l-23.7-8.2c-3.1,9-5.3,18.3-6.5,27.7l24.9,3C63.1,152.5,64.8,145,67.4,137.6"/>
<path class="st37" d="M37.3,152.6l-24.8-4c-0.3,1.8-0.5,3.6-0.8,5.4l24.9,3C36.9,155.6,37.1,154.1,37.3,152.6"/>
<path class="st10" d="M43.3,129.2L19.6,121c-3.1,8.8-5.4,17.9-6.9,27.2l24.8,3.9C38.7,144.3,40.6,136.7,43.3,129.2"/>
<path class="st38" d="M74.1,122.2l-22.2-11.7c-3.1,5.9-5.8,12.1-8,18.4l23.7,8.2C69.3,132,71.5,127,74.1,122.2"/>
<path class="st39" d="M45.8,122.5L22.6,113c-1,2.5-2,5-2.9,7.6l23.7,8.2C44.2,126.6,45,124.5,45.8,122.5"/>
<path class="st10" d="M19.7,114.4l-3.5-1.4c-0.7,1.8-1.4,3.7-2.1,5.6l3.5,1.2C18.3,118,19,116.2,19.7,114.4"/>
<path class="st40" d="M47.7,118.1l-22.9-10.3c-0.7,1.6-1.4,3.2-2,4.8l23.2,9.5C46.6,120.7,47.1,119.4,47.7,118.1"/>
<path class="st10" d="M51.5,110.3L29.3,98.6c-1.5,2.9-3,5.8-4.3,8.8l22.9,10.3C49.1,115.1,50.2,112.7,51.5,110.3"/>
<path class="st41" d="M81.1,110.8L60.5,96.5c-3,4.4-5.8,8.9-8.3,13.6l22.2,11.7C76.4,118,78.7,114.3,81.1,110.8"/>
<path class="st42" d="M55.7,102.9L34.3,89.8c-1.7,2.7-3.2,5.5-4.7,8.3l22.2,11.7C53,107.5,54.3,105.2,55.7,102.9"/>
<path class="st43" d="M57.8,99.6l-21-13.7c-0.8,1.2-1.5,2.3-2.2,3.5L56,102.5C56.6,101.5,57.2,100.5,57.8,99.6"/>
<path class="st10" d="M60.1,96.2L39.5,81.9c-0.8,1.2-1.6,2.4-2.4,3.6l21,13.7C58.7,98.1,59.4,97.2,60.1,96.2"/>
<path class="st44" d="M85.5,104.9L65.9,89.3c-1.8,2.2-3.5,4.5-5.1,6.8l20.6,14.3C82.7,108.5,84.1,106.6,85.5,104.9"/>
<path class="st45" d="M63.4,91.7l-20-15.2c-1.2,1.6-2.4,3.3-3.6,4.9l20.6,14.3C61.4,94.4,62.3,93,63.4,91.7"/>
<path class="st46" d="M87.7,102.2L68.6,86c-0.8,1-1.6,1.9-2.4,2.9l19.6,15.6C86.4,103.7,87.1,102.9,87.7,102.2"/>
<path class="st47" d="M90,99.6L71.4,82.8c-0.8,0.9-1.7,1.9-2.5,2.8L88,101.8C88.7,101,89.4,100.3,90,99.6"/>
<path class="st10" d="M92.7,96.7l-18-17.5c-1,1-2,2.1-3,3.2l18.6,16.8C91.1,98.3,91.9,97.5,92.7,96.7"/>
<path class="st48" d="M250.4,138.9l22.9-10.2c-25-55.5-90.5-80.4-146.2-55.4c-12.5,5.6-24,13.5-33.6,23.3l18,17.5  c33.1-33.6,87.3-34,121-1C239.9,120.5,246.1,129.3,250.4,138.9"/>
<path class="st49" d="M216.3,72.1l9.9-22.9C174.5,27,114.5,38.8,75.1,78.8l18,17.5C125.2,63.7,174.1,54.1,216.3,72.1"/>
<path class="st50" d="M153.2,39l-3.5-24.8c-35.3,5-67.9,21.4-92.9,46.8l18,17.5C95.8,57.1,123.4,43.2,153.2,39"/>
<path class="st51" d="M92.3,31.2l-1.8-3.3c-13.9,7.8-26.7,17.5-37.9,28.9l2.7,2.6C66.2,48.3,78.7,38.8,92.3,31.2"/>
<path class="st52" d="M53.8,52.5l-2.6-2.7c-1,0.9-1.9,1.9-2.9,2.8l2.7,2.6C52,54.4,52.9,53.4,53.8,52.5"/>
<path class="st52" d="M142.7,3.7L142,0c-1.3,0.2-2.6,0.5-4,0.8l0.8,3.7C140.1,4.2,141.4,3.9,142.7,3.7"/>
<path class="st10" d="M89.4,26l-1.8-3.3C74.5,30,62.3,39,51.6,49.4l2.6,2.7C64.7,42,76.6,33.2,89.4,26"/>
<path class="st50" d="M104.7,25.1l-1.5-3.4c-4.1,1.9-8.1,3.9-12.1,6.1l1.8,3.3C96.6,28.9,100.6,26.9,104.7,25.1"/>
<path class="st53" d="M114.4,21l-1.3-3.5c-3.2,1.2-6.4,2.5-9.5,3.9l1.5,3.4C108.2,23.5,111.3,22.2,114.4,21"/>
<path class="st54" d="M124.4,17.6l-1.1-3.6c-3.3,1-6.5,2.1-9.8,3.3l1.3,3.5C118.1,19.6,121.2,18.6,124.4,17.6"/>
<path class="st55" d="M132.8,15.3l-0.9-3.6c-2.7,0.7-5.3,1.4-7.9,2.2l1.1,3.6C127.5,16.7,130.2,16,132.8,15.3"/>
<path class="st56" d="M139.9,13.7l-0.7-3.7c-2.3,0.5-4.6,1-6.8,1.5l0.9,3.6C135.5,14.6,137.7,14.1,139.9,13.7"/>
<path class="st10" d="M149.4,12.1l-0.5-3.7c-3.1,0.4-6.2,1-9.2,1.6l0.7,3.7C143.4,13,146.4,12.5,149.4,12.1"/>
<path class="st10" d="M148.5,7.5L148,3.8c-3.1,0.4-6.2,1-9.2,1.6l0.7,3.7C142.5,8.5,145.4,8,148.5,7.5"/>
<path class="st57" d="M171.8,37.7l-0.1-25c-7.2,0-14.3,0.5-21.5,1.5l3.5,24.8C159.7,38.1,165.7,37.7,171.8,37.7"/>
<path class="st58" d="M187.2,38.5l2.8-24.8c-5.9-0.6-11.8-1-17.9-1l0.1,25C177.2,37.6,182.2,37.9,187.2,38.5"/>
<path class="st59" d="M201.6,40.8l5.4-24.4c-5.4-1.2-10.9-2.1-16.6-2.7l-2.8,24.8C192.4,39,197,39.8,201.6,40.8"/>
<path class="st60" d="M211.8,43.4l7.3-23.9c-3.8-1.2-7.7-2.2-11.6-3l-5.4,24.4C205.4,41.6,208.6,42.5,211.8,43.4"/>
<path class="st61" d="M216.4,44.9l8.1-23.7c-1.6-0.5-3.2-1.1-4.8-1.6l-7.3,23.9C213.6,44,215,44.4,216.4,44.9"/>
<path class="st62" d="M220.5,46.3l8.8-23.4c-1.4-0.5-2.9-1.1-4.3-1.6L216.9,45C218.1,45.5,219.3,45.9,220.5,46.3"/>
<path class="st10" d="M226.4,48.7l9.9-22.9c-2.2-0.9-4.4-1.8-6.6-2.7l-8.8,23.4C222.8,47.2,224.6,48,226.4,48.7"/>
<path class="st63" d="M241.8,87.4l15.8-19.5c-9.4-7.5-19.8-13.8-30.9-18.6l-9.9,22.9C225.8,76.2,234.2,81.3,241.8,87.4"/>
<path class="st64" d="M252.9,63.8l14.9-20.2c-9.6-7-20-12.9-30.9-17.6L227,48.9C236.1,52.9,244.8,57.9,252.9,63.8"/>
<path class="st65" d="M261.4,36.6l2-3.1c-7.7-5-15.9-9.3-24.3-13l-1.5,3.4C246,27.5,253.9,31.8,261.4,36.6"/>
<path class="st10" d="M247.3,21.8l1.7-3.4c-2.4-1.2-4.8-2.3-7.3-3.4l-1.5,3.4C242.5,19.6,244.8,20.6,247.3,21.8"/>
<path class="st10" d="M254.3,25.5l1.8-3.3c-2.2-1.2-4.5-2.4-6.8-3.5l-1.7,3.4C249.9,23.1,252.1,24.3,254.3,25.5"/>
<path class="st64" d="M259.9,28.6l1.9-3.2c-1.7-1-3.5-2-5.2-3l-1.8,3.3C256.5,26.7,258.2,27.6,259.9,28.6"/>
<path class="st66" d="M264.7,31.6l2-3.1c-1.5-1-3-1.9-4.5-2.8l-1.9,3.2C261.8,29.8,263.2,30.7,264.7,31.6"/>
<path class="st67" d="M266.9,40.3l2.2-3.1c-1.7-1.2-3.4-2.4-5.2-3.5l-2,3.1C263.6,38,265.3,39.2,266.9,40.3"/>
<path class="st68" d="M256.1,66.2l15.4-19.7c-1.1-0.8-2.2-1.7-3.3-2.5l-14.9,20.2C254.3,64.8,255.2,65.5,256.1,66.2"/>
<path class="st68" d="M272.8,44.7l2.3-3c-1.1-0.9-2.3-1.8-3.5-2.6l-2.2,3C270.5,43,271.7,43.8,272.8,44.7"/>
<path class="st69" d="M262.2,108.6l20.3-14.7c-7-9.6-15.3-18.2-24.5-25.7l-15.8,19.5C249.8,93.8,256.5,100.8,262.2,108.6"/>
<path class="st70" d="M281.7,92.1l20.1-15c-8-10.7-17.4-20.3-27.8-28.7l-15.7,19.5C267,74.9,275,83.1,281.7,92.1"/>
<path class="st71" d="M279,49.7l2.4-2.8c-1.2-1-2.4-2.1-3.7-3.1l-2.4,2.9C276.6,47.7,277.8,48.6,279,49.7"/>
<path class="st10" d="M303.6,75.8l3-2.2c-7.3-9.7-15.6-18.5-24.8-26.4l-2.4,2.8C288.3,57.7,296.4,66.3,303.6,75.8"/>
<path class="st72" d="M269.5,120.2l22-12.1c-2.6-4.8-5.6-9.3-8.7-13.8L262.5,109C265,112.6,267.4,116.3,269.5,120.2"/>
<path class="st73" d="M291.1,106.3l21.8-12.4c-2.9-5-6-9.9-9.4-14.6L283.2,94C286.1,98,288.7,102.1,291.1,106.3"/>
<path class="st74" d="M272.4,125.7l22.6-10.8c-1-2.1-2.1-4.2-3.2-6.3l-22,12.1C270.7,122.3,271.6,124,272.4,125.7"/>
<path class="st75" d="M294.2,112l22.4-11.3c-0.8-1.5-1.6-3-2.4-4.5l-22,12.1C292.9,109.5,293.6,110.8,294.2,112"/>
<path class="st10" d="M273.7,128.5l22.9-10.2c-0.5-1-0.9-2.1-1.4-3.1L272.6,126C273,126.9,273.4,127.7,273.7,128.5"/>
<path class="st76" d="M235.5,231.5l18.5,16.9c29.7-32.3,37.4-79.1,19.6-119.2l-22.9,10.2C264.4,170.3,258.4,206.5,235.5,231.5"/>
<path class="st77" d="M282.9,162.4l25-2.5c-1.5-14.2-5.2-28-11-41L274,129.1C278.7,139.6,281.7,150.9,282.9,162.4"/>
<path class="st78" d="M304.3,137.9l24.2-6.6c-2.1-7.8-4.9-15.5-8.2-22.9l-22.9,10.2C300.1,124.8,302.4,131.3,304.3,137.9"/>
<path class="st79" d="M328.6,124.3l3.6-1.1c-1.9-5.9-4-11.6-6.5-17.2l-3.4,1.5C324.7,113,326.8,118.6,328.6,124.3"/>
<path class="st80" d="M329.5,109.4l3.5-1.4c-0.6-1.5-1.2-2.9-1.9-4.4l-3.4,1.5C328.3,106.5,328.9,107.9,329.5,109.4"/>
<path class="st81" d="M331.4,114.1l3.5-1.3c-0.6-1.5-1.1-3-1.7-4.4l-3.5,1.4C330.3,111.3,330.9,112.7,331.4,114.1"/>
<path class="st10" d="M334.4,122.5l3.6-1.1c-0.9-2.7-1.8-5.4-2.8-8.1l-3.5,1.3C332.7,117.2,333.6,119.9,334.4,122.5"/>
<path class="st82" d="M330.5,130.7l3.6-1c-0.6-2-1.2-4.1-1.8-6.1l-3.6,1.1C329.4,126.8,330,128.7,330.5,130.7"/>
<path class="st82" d="M335.9,127.6l3.6-1c-0.4-1.6-0.9-3.1-1.4-4.7l-3.6,1.1C335.1,124.5,335.5,126,335.9,127.6"/>
<path class="st83" d="M308.1,156.8l24.9-3.1c-0.9-7.4-2.4-14.7-4.3-21.9l-24.2,6.6C306.1,144.4,307.3,150.6,308.1,156.8"/>
<path class="st84" d="M332.7,139.2l3.7-0.8c-0.6-2.7-1.3-5.5-2-8.2l-3.6,1C331.4,133.8,332.1,136.5,332.7,139.2"/>
<path class="st10" d="M335.2,153.4l3.7-0.5c-0.6-4.7-1.4-9.4-2.4-14.1l-3.7,0.8C333.8,144.2,334.6,148.8,335.2,153.4"/>
<path class="st85" d="M282.4,190l24.8,3.7c1.6-11,1.9-22.2,0.8-33.3l-25,2.5C283.9,171.9,283.7,181,282.4,190"/>
<path class="st86" d="M308.9,182.3l25,1.6c0.5-8.7,0.4-17.5-0.5-26.2l-25,2.5C309.2,167.6,309.3,175,308.9,182.3"/>
<path class="st87" d="M336.4,169l3.7-0.1c-0.1-3.9-0.4-7.9-0.8-11.8l-3.7,0.4C336,161.3,336.3,165.2,336.4,169"/>
<path class="st88" d="M342.1,163.1l3.7-0.2c-0.1-2.1-0.3-4.2-0.5-6.4l-3.8,0.4C341.8,159,341.9,161,342.1,163.1"/>
<path class="st89" d="M342.3,168.8l3.7-0.1c-0.1-1.8-0.1-3.6-0.2-5.3l-3.7,0.2C342.2,165.4,342.3,167.1,342.3,168.8"/>
<path class="st90" d="M336.4,175.7h3.8c0-2.1,0-4.3-0.1-6.4l-3.7,0.1C336.4,171.6,336.5,173.7,336.4,175.7"/>
<path class="st91" d="M336.3,180.7l3.7,0.2c0.1-1.5,0.1-3,0.1-4.5h-3.7C336.4,177.7,336.4,179.2,336.3,180.7"/>
<path class="st92" d="M308.3,189.3l24.9,2.9c0.3-2.6,0.5-5.2,0.7-7.8l-25-1.6C308.7,185,308.5,187.1,308.3,189.3"/>
<path class="st10" d="M307.7,193.8l24.8,3.7c0.2-1.6,0.4-3.2,0.6-4.8l-24.9-2.9C308.1,191.1,307.9,192.4,307.7,193.8"/>
<path class="st93" d="M277.7,209.3l23.8,8c2.6-7.5,4.4-15.3,5.6-23.2l-24.8-3.7C281.3,196.9,279.8,203.2,277.7,209.3"/>
<path class="st94" d="M306.1,202.8l24.5,5.3c0.7-3.4,1.4-6.8,1.9-10.2l-24.8-3.7C307.2,197.1,306.7,199.9,306.1,202.8"/>
<path class="st94" d="M333,207.3l3.7,0.8c0.6-3.1,1.2-6.1,1.7-9.2l-3.7-0.6C334.2,201.3,333.6,204.3,333,207.3"/>
<path class="st94" d="M338.9,207.9l3.7,0.8c0.6-3,1.1-6,1.6-9l-3.7-0.6C340.1,202.1,339.5,205,338.9,207.9"/>
<path class="st95" d="M305.2,206.6l24.4,6c0.3-1.3,0.6-2.7,0.9-4l-24.5-5.3C305.7,204.4,305.4,205.5,305.2,206.6"/>
<path class="st96" d="M304.2,210.2l24.2,6.7c0.3-1.2,0.7-2.5,1-3.8l-24.4-6C304.8,208.1,304.5,209.1,304.2,210.2"/>
<path class="st10" d="M301.9,217.5l23.8,8c0.9-2.7,1.8-5.5,2.5-8.2l-24.2-6.7C303.5,213,302.6,215.3,301.9,217.5"/>
<path class="st97" d="M270,226.9l22,12c3.7-6.7,6.8-13.8,9.2-21l-23.8-8C275.6,215.7,272.9,221.4,270,226.9"/>
<path class="st98" d="M297.7,228.2l23,10c1.7-4,3.3-8.1,4.7-12.2l-23.8-8C300.5,221.5,299.2,224.9,297.7,228.2"/>
<path class="st10" d="M325.8,231.8l3.5,1.3c0.6-1.7,1.3-3.4,1.8-5.1l-3.6-1.2C327,228.4,326.4,230.1,325.8,231.8"/>
<path class="st10" d="M323.7,236.9l3.5,1.5c0.7-1.6,1.3-3.2,1.9-4.8l-3.5-1.3C325,233.8,324.4,235.4,323.7,236.9"/>
<path class="st10" d="M292.4,239.1l22,12c2.2-4,4.2-8.2,6.1-12.4l-23-10C296,232.2,294.3,235.7,292.4,239.1"/>
<path class="st99" d="M262.5,238.8l20.3,14.7c3.3-4.5,6.3-9.2,9-14.1l-22-12C267.5,231.3,265.1,235.1,262.5,238.8"/>
<path class="st100" d="M289.3,244.5l21.5,13c1.2-2,2.3-4,3.5-6l-22-12C291.3,241.2,290.3,242.9,289.3,244.5"/>
<path class="st100" d="M313,258.1l3.2,1.9c1.1-1.8,2.2-3.7,3.2-5.6l-3.3-1.8C315.1,254.4,314.1,256.3,313,258.1"/>
<path class="st10" d="M283.2,253.7l20.3,14.7c2.5-3.4,4.8-6.9,7-10.5l-21.5-13C287.2,248,285.3,250.9,283.2,253.7"/>
<path class="st101" d="M259.7,242.4l19.7,15.5c1.1-1.3,2.1-2.7,3.1-4.1l-20.3-14.6C261.4,240.3,260.5,241.4,259.7,242.4"/>
<path class="st102" d="M257,245.7l19.1,16.3c1-1.2,2-2.4,3-3.6l-19.7-15.5C258.6,243.8,257.8,244.8,257,245.7"/>
<path class="st103" d="M254.4,248.6l18.5,16.9c1-1.1,1.9-2.1,2.8-3.2L256.6,246C256,246.9,255.2,247.8,254.4,248.6"/>
<path class="st104" d="M273.4,265.7l18.5,16.9c1.1-1.2,2.2-2.4,3.3-3.7l-19.1-16.3C275.3,263.7,274.4,264.7,273.4,265.7"/>
<path class="st105" d="M230.1,236.8l16.9,18.5c2.3-2.1,4.5-4.3,6.6-6.6l-18.5-16.9C233.5,233.6,231.9,235.2,230.1,236.8"/>
<path class="st106" d="M227.5,239.1l16.1,19.2c1-0.8,2-1.7,3-2.6l-16.9-18.5C229,237.8,228.3,238.5,227.5,239.1"/>
<path class="st107" d="M243.9,258.6l16.2,19.2c1.3-1.1,2.5-2.2,3.7-3.3L246.9,256C246,256.9,244.9,257.8,243.9,258.6"/>
<path class="st10" d="M260.5,278.1l16.2,19.2c1.5-1.3,3-2.6,4.4-3.9l-17-18.5C262.9,276,261.7,277.1,260.5,278.1"/>
<path class="st108" d="M225.7,240.6l15.6,19.6c0.7-0.5,1.3-1,1.9-1.6l-16.1-19.2C226.7,239.8,226.2,240.2,225.7,240.6"/>
<path class="st109" d="M190,203.3l12.6,21.6c1.9-1.1,3.8-2.4,5.6-3.8l-15.3-19.9C192.1,202,191.1,202.7,190,203.3"/>
<path class="st110" d="M204.6,224.3l13.4,21.1c1.9-1.2,3.8-2.6,5.7-3.9l-15.3-19.9C207.3,222.5,206,223.4,204.6,224.3"/>
<path class="st111" d="M219,245.4l13.5,21c2.3-1.5,4.5-3.1,6.7-4.7l-15.1-19.9C222.4,243.1,220.7,244.3,219,245.4"/>
<path class="st112" d="M232.8,266.9l13.5,21c2.9-1.8,5.6-3.8,8.3-5.9l-15.3-19.9C237.4,263.8,235.1,265.4,232.8,266.9"/>
<path class="st112" d="M247.4,287.9l13.7,20.9c3.1-2.1,6.2-4.2,9.2-6.5L255,282.4C252.6,284.3,250,286.1,247.4,287.9"/>
<path class="st10" d="M202.8,225.4l12.6,21.6c0.7-0.4,1.4-0.9,2.1-1.3l-13.4-21.1C203.8,224.8,203.3,225.1,202.8,225.4"/>
</svg>