<?xml version="1.0" encoding="UTF-8" standalone="no"?>
<!DOCTYPE svg PUBLIC "-//W3C//DTD SVG 1.1//EN" "http://www.w3.org/Graphics/SVG/1.1/DTD/svg11.dtd">
<!-- Generated by Microsoft Visio, SVG Export _nutritionist_.svg Page-1 -->
<svg xmlns="http://www.w3.org/2000/svg" xmlns:xlink="http://www.w3.org/1999/xlink" xmlns:ev="http://www.w3.org/2001/xml-events"
		xmlns:v="http://schemas.microsoft.com/visio/2003/SVGExtensions/" width="16.6397in" height="11.8162in"
		viewBox="0 0 1198.06 850.766" xml:space="preserve" color-interpolation-filters="sRGB" class="st18">
	<v:documentProperties v:langID="1033" v:viewMarkup="false"/>

	<style type="text/css">
	<![CDATA[
		.st1 {fill:#63a9a1;stroke:none;stroke-linecap:butt;stroke-width:2.25279}
		.st2 {fill:#55928b;stroke:none;stroke-linecap:butt;stroke-width:2.25279}
		.st3 {fill:none;stroke:none;stroke-linecap:butt;stroke-width:0.75}
		.st4 {fill:#000000;font-family:Merriweather;font-size:9.01115em}
		.st5 {fill:#ffffff;stroke:none;stroke-linecap:butt;stroke-width:2.25279}
		.st6 {fill:#dedede;stroke:none;stroke-linecap:butt;stroke-width:2.25279}
		.st7 {fill:none}
		.st8 {stroke:#a4a4a4;stroke-linecap:butt;stroke-width:4.50558}
		.st9 {fill:#c51431;stroke:none;stroke-linecap:butt;stroke-width:2.25279}
		.st10 {fill:#4151a6;stroke:none;stroke-linecap:butt;stroke-width:2.25279}
		.st11 {fill:#f5e43c;stroke:none;stroke-linecap:butt;stroke-width:2.25279}
		.st12 {fill:#8abc43;stroke:none;stroke-linecap:butt;stroke-width:2.25279}
		.st13 {fill:#b9b9b9;stroke:none;stroke-linecap:butt;stroke-width:2.25279}
		.st14 {fill:#b9b9b9;font-family:Roboto;font-size:3.4845em}
		.st15 {stroke:#ffffff;stroke-linecap:butt;stroke-width:4.50558}
		.st16 {stroke:#f9f9f9;stroke-dasharray:2.25279,4.50558;stroke-linecap:round;stroke-linejoin:round;stroke-width:2.25279}
		.st17 {fill:#000000;font-family:Roboto;font-size:3.75465em}
		.st18 {fill:none;fill-rule:evenodd;font-size:12px;overflow:visible;stroke-linecap:square;stroke-miterlimit:3}
	]]>
	</style>

	<g v:mID="0" v:index="1" v:groupContext="foregroundPage">
		<title>Page-1</title>
		<v:pageProperties v:drawingScale="1" v:pageScale="1" v:drawingUnits="19" v:shadowOffsetX="9" v:shadowOffsetY="-9"/>
		<g id="group77-1" transform="translate(2.25279,-2.25279)" v:mID="77" v:groupContext="group">
			<title>Sheet.77</title>
			<g id="shape1-2" v:mID="1" v:groupContext="shape">
				<title>path390</title>
				<rect x="0" y="4.50558" width="1193.55" height="846.26" class="st1"/>
			</g>
			<g id="shape2-4" v:mID="2" v:groupContext="shape">
				<title>path392</title>
				<path d="M0 4.51 L1193.55 850.77 L0 850.77 L0 4.51 Z" class="st2"/>
			</g>
			<g id="shape3-6" v:mID="3" v:groupContext="shape" transform="translate(289.244,-649.772)">
				<title>text428</title>
				<desc>Nutritionist</desc>
				<v:textBlock v:margins="rect(0,0,0,0)"/>
				<v:textRect cx="332.378" cy="785.885" width="664.76" height="129.761"/>
				<rect x="0" y="721.005" width="664.756" height="129.761" class="st3"/>
				<text x="14.14" y="818.33" class="st4" v:langID="1033"><v:paragraph v:horizAlign="1"/><v:tabList/>Nutritionist</text>			</g>
			<g id="shape4-9" v:mID="4" v:groupContext="shape" transform="translate(350.354,-416.243)">
				<title>path520</title>
				<rect x="0" y="761.596" width="98.145" height="89.1699" class="st5"/>
			</g>
			<g id="shape5-11" v:mID="5" v:groupContext="shape" transform="translate(350.714,-147.13)">
				<title>path522</title>
				<rect x="0" y="492.032" width="491.221" height="358.734" class="st6"/>
			</g>
			<g id="shape6-13" v:mID="6" v:groupContext="shape" transform="translate(449.026,-147.26)">
				<title>path524</title>
				<rect x="0" y="761.596" width="98.145" height="89.1698" class="st5"/>
			</g>
			<g id="shape7-15" v:mID="7" v:groupContext="shape" transform="translate(547.698,-147.26)">
				<title>path526</title>
				<path d="M0 761.6 L98.15 761.6 L98.15 850.77 L0 850.77 L0 761.6 Z" class="st5"/>
			</g>
			<g id="shape8-17" v:mID="8" v:groupContext="shape" transform="translate(646.393,-147.26)">
				<title>path528</title>
				<rect x="0" y="761.596" width="98.1472" height="89.1698" class="st5"/>
			</g>
			<g id="shape9-19" v:mID="9" v:groupContext="shape" transform="translate(745.065,-147.26)">
				<title>path530</title>
				<rect x="0" y="761.596" width="98.1473" height="89.1698" class="st5"/>
			</g>
			<g id="shape10-21" v:mID="10" v:groupContext="shape" transform="translate(449.026,-326.582)">
				<title>path532</title>
				<rect x="0" y="761.596" width="98.145" height="89.1698" class="st5"/>
			</g>
			<g id="shape11-23" v:mID="11" v:groupContext="shape" transform="translate(547.698,-326.582)">
				<title>path534</title>
				<path d="M0 761.6 L98.15 761.6 L98.15 850.77 L0 850.77 L0 761.6 Z" class="st5"/>
			</g>
			<g id="shape12-25" v:mID="12" v:groupContext="shape" transform="translate(646.393,-326.582)">
				<title>path536</title>
				<rect x="0" y="761.596" width="98.1472" height="89.1698" class="st5"/>
			</g>
			<g id="shape13-27" v:mID="13" v:groupContext="shape" transform="translate(745.065,-326.582)">
				<title>path538</title>
				<rect x="0" y="761.596" width="98.1473" height="89.1698" class="st5"/>
			</g>
			<g id="shape14-29" v:mID="14" v:groupContext="shape" transform="translate(449.026,-236.921)">
				<title>path540</title>
				<rect x="0" y="761.596" width="98.145" height="89.1698" class="st5"/>
			</g>
			<g id="shape15-31" v:mID="15" v:groupContext="shape" transform="translate(547.698,-236.921)">
				<title>path542</title>
				<path d="M0 761.6 L98.15 761.6 L98.15 850.77 L0 850.77 L0 761.6 Z" class="st5"/>
			</g>
			<g id="shape16-33" v:mID="16" v:groupContext="shape" transform="translate(646.393,-236.921)">
				<title>path544</title>
				<rect x="0" y="761.596" width="98.1472" height="89.1698" class="st5"/>
			</g>
			<g id="shape17-35" v:mID="17" v:groupContext="shape" transform="translate(745.065,-236.921)">
				<title>path546</title>
				<rect x="0" y="761.596" width="98.1473" height="89.1698" class="st5"/>
			</g>
			<g id="shape18-37" v:mID="18" v:groupContext="shape" transform="translate(449.161,-147.175)">
				<title>path550</title>
				<path d="M0 492.53 L0 850.77 L0 492.53 Z" class="st7"/>
				<path d="M0 492.53 L0 850.77" class="st8"/>
			</g>
			<g id="shape19-40" v:mID="19" v:groupContext="shape" transform="translate(547.675,-147.175)">
				<title>path552</title>
				<path d="M0 492.53 L0 850.77 L0 492.53 Z" class="st7"/>
				<path d="M0 492.53 L0 850.77" class="st8"/>
			</g>
			<g id="shape20-43" v:mID="20" v:groupContext="shape" transform="translate(646.19,-147.175)">
				<title>path554</title>
				<path d="M0 492.53 L0 850.77 L0 492.53 Z" class="st7"/>
				<path d="M0 492.53 L0 850.77" class="st8"/>
			</g>
			<g id="shape21-46" v:mID="21" v:groupContext="shape" transform="translate(744.704,-146.499)">
				<title>path556</title>
				<path d="M0 492.53 L0 850.77 L0 492.53 Z" class="st7"/>
				<path d="M0 492.53 L0 850.77" class="st8"/>
			</g>
			<g id="shape22-49" v:mID="22" v:groupContext="shape" transform="translate(350.354,-237.331)">
				<title>path558</title>
				<path d="M492.87 850.77 L0 850.77 L492.87 850.77 Z" class="st7"/>
				<path d="M492.87 850.77 L0 850.77" class="st8"/>
			</g>
			<g id="shape23-52" v:mID="23" v:groupContext="shape" transform="translate(350.354,-415.977)">
				<title>path560</title>
				<path d="M492.87 850.77 L0 850.77 L492.87 850.77 Z" class="st7"/>
				<path d="M492.87 850.77 L0 850.77" class="st8"/>
			</g>
			<g id="shape24-55" v:mID="24" v:groupContext="shape" transform="translate(350.354,-326.767)">
				<title>path562</title>
				<path d="M492.87 850.77 L0 850.77 L492.87 850.77 Z" class="st7"/>
				<path d="M492.87 850.77 L0 850.77" class="st8"/>
			</g>
			<g id="shape25-58" v:mID="25" v:groupContext="shape" transform="translate(466.733,-470.444)">
				<title>path566</title>
				<rect x="0" y="836.522" width="65.1867" height="14.2439" class="st9"/>
			</g>
			<g id="shape26-60" v:mID="26" v:groupContext="shape" transform="translate(466.733,-451.07)">
				<title>path568</title>
				<rect x="0" y="836.522" width="32.51" height="14.2439" class="st9"/>
			</g>
			<g id="shape27-62" v:mID="27" v:groupContext="shape" transform="translate(466.733,-431.47)">
				<title>path570</title>
				<rect x="0" y="836.522" width="46.4187" height="14.2439" class="st9"/>
			</g>
			<g id="shape28-64" v:mID="28" v:groupContext="shape" transform="translate(566.351,-470.444)">
				<title>path574</title>
				<rect x="0" y="836.522" width="48.1241" height="14.2439" class="st10"/>
			</g>
			<g id="shape29-66" v:mID="29" v:groupContext="shape" transform="translate(566.351,-451.07)">
				<title>path576</title>
				<rect x="0" y="836.522" width="63.3169" height="14.2439" class="st10"/>
			</g>
			<g id="shape30-68" v:mID="30" v:groupContext="shape" transform="translate(566.351,-431.47)">
				<title>path578</title>
				<rect x="0" y="836.522" width="42.6273" height="14.2439" class="st10"/>
			</g>
			<g id="shape31-70" v:mID="31" v:groupContext="shape" transform="translate(665.969,-470.444)">
				<title>path582</title>
				<rect x="0" y="836.522" width="40.0658" height="14.2439" class="st11"/>
			</g>
			<g id="shape32-72" v:mID="32" v:groupContext="shape" transform="translate(665.969,-451.07)">
				<title>path584</title>
				<rect x="0" y="836.522" width="64.5019" height="14.2439" class="st11"/>
			</g>
			<g id="shape33-74" v:mID="33" v:groupContext="shape" transform="translate(765.565,-470.444)">
				<title>path586</title>
				<rect x="0" y="836.522" width="65.1867" height="14.2439" class="st12"/>
			</g>
			<g id="shape34-76" v:mID="34" v:groupContext="shape" transform="translate(765.565,-451.07)">
				<title>path588</title>
				<rect x="0" y="836.522" width="32.51" height="14.2439" class="st12"/>
			</g>
			<g id="shape35-78" v:mID="35" v:groupContext="shape" transform="translate(765.565,-431.47)">
				<title>path590</title>
				<path d="M0 836.52 L46.42 836.52 L46.42 850.77 L0 850.77 L0 836.52 Z" class="st12"/>
			</g>
			<g id="shape36-80" v:mID="36" v:groupContext="shape" transform="translate(367.182,-385.063)">
				<title>path594</title>
				<path d="M0 836.52 L65.19 836.52 L65.19 850.77 L0 850.77 L0 836.52 Z" class="st13"/>
			</g>
			<g id="shape37-82" v:mID="37" v:groupContext="shape" transform="translate(367.182,-365.689)">
				<title>path596</title>
				<path d="M0 836.52 L32.51 836.52 L32.51 850.77 L0 850.77 L0 836.52 Z" class="st13"/>
			</g>
			<g id="shape38-84" v:mID="38" v:groupContext="shape" transform="translate(367.182,-346.315)">
				<title>path598</title>
				<rect x="0" y="836.522" width="46.4187" height="14.2439" class="st13"/>
			</g>
			<g id="shape39-86" v:mID="39" v:groupContext="shape" transform="translate(367.182,-293.6)">
				<title>path600</title>
				<path d="M0 836.52 L63.19 836.52 L63.19 850.77 L0 850.77 L0 836.52 Z" class="st13"/>
			</g>
			<g id="shape40-88" v:mID="40" v:groupContext="shape" transform="translate(367.182,-274.226)">
				<title>path602</title>
				<rect x="0" y="836.522" width="31.3228" height="14.2439" class="st13"/>
			</g>
			<g id="shape41-90" v:mID="41" v:groupContext="shape" transform="translate(367.182,-201.911)">
				<title>path604</title>
				<path d="M0 836.52 L45.92 836.52 L45.92 850.77 L0 850.77 L0 836.52 Z" class="st13"/>
			</g>
			<g id="shape42-92" v:mID="42" v:groupContext="shape" transform="translate(367.182,-182.537)">
				<title>path606</title>
				<rect x="0" y="836.522" width="31.0006" height="14.2439" class="st13"/>
			</g>
			<g id="shape43-94" v:mID="43" v:groupContext="shape" transform="translate(367.182,-162.938)">
				<title>path608</title>
				<rect x="0" y="836.522" width="45.245" height="14.244" class="st13"/>
			</g>
			<g id="shape44-96" v:mID="44" v:groupContext="shape" transform="translate(467.815,-342.473)">
				<title>text612</title>
				<desc>0.2</desc>
				<v:textBlock v:margins="rect(0,0,0,0)"/>
				<v:textRect cx="62.746" cy="825.677" width="125.5" height="50.1768"/>
				<rect x="0" y="800.589" width="125.492" height="50.1768" class="st3"/>
				<text x="0" y="838.22" class="st14" v:langID="1033"><v:paragraph/><v:tabList/>0.2</text>			</g>
			<g id="shape45-99" v:mID="45" v:groupContext="shape" transform="translate(468.224,-254.664)">
				<title>text616</title>
				<desc>4.2</desc>
				<v:textBlock v:margins="rect(0,0,0,0)"/>
				<v:textRect cx="62.746" cy="825.677" width="125.5" height="50.1768"/>
				<rect x="0" y="800.589" width="125.492" height="50.1768" class="st3"/>
				<text x="0" y="838.22" class="st14" v:langID="1033"><v:paragraph/><v:tabList/>4.2</text>			</g>
			<g id="shape46-102" v:mID="46" v:groupContext="shape" transform="translate(486.089,-162.163)">
				<title>text620</title>
				<desc>0</desc>
				<v:textBlock v:margins="rect(0,0,0,0)"/>
				<v:textRect cx="20.932" cy="825.677" width="41.87" height="50.1768"/>
				<rect x="0" y="800.589" width="41.864" height="50.1768" class="st3"/>
				<text x="-0" y="838.22" class="st14" v:langID="1033"><v:paragraph/><v:tabList/>0</text>			</g>
			<g id="shape47-105" v:mID="47" v:groupContext="shape" transform="translate(585.014,-342.473)">
				<title>text624</title>
				<desc>7</desc>
				<v:textBlock v:margins="rect(0,0,0,0)"/>
				<v:textRect cx="20.932" cy="825.677" width="41.87" height="50.1768"/>
				<rect x="0" y="800.589" width="41.864" height="50.1768" class="st3"/>
				<text x="0" y="838.22" class="st14" v:langID="1033"><v:paragraph/><v:tabList/>7</text>			</g>
			<g id="shape48-108" v:mID="48" v:groupContext="shape" transform="translate(566.27,-254.664)">
				<title>text628</title>
				<desc>0.4</desc>
				<v:textBlock v:margins="rect(0,0,0,0)"/>
				<v:textRect cx="62.746" cy="825.677" width="125.5" height="50.1768"/>
				<rect x="0" y="800.589" width="125.492" height="50.1768" class="st3"/>
				<text x="0" y="838.22" class="st14" v:langID="1033"><v:paragraph/><v:tabList/>0.4</text>			</g>
			<g id="shape49-111" v:mID="49" v:groupContext="shape" transform="translate(557.511,-162.163)">
				<title>text632</title>
				<desc>0.11</desc>
				<v:textBlock v:margins="rect(0,0,0,0)"/>
				<v:textRect cx="83.653" cy="825.677" width="167.31" height="50.1768"/>
				<rect x="0" y="800.589" width="167.306" height="50.1768" class="st3"/>
				<text x="0" y="838.22" class="st14" v:langID="1033"><v:paragraph/><v:tabList/>0.11</text>			</g>
			<g id="shape50-114" v:mID="50" v:groupContext="shape" transform="translate(683.448,-342.473)">
				<title>text636</title>
				<desc>0</desc>
				<v:textBlock v:margins="rect(0,0,0,0)"/>
				<v:textRect cx="20.932" cy="825.677" width="41.87" height="50.1768"/>
				<rect x="0" y="800.589" width="41.864" height="50.1768" class="st3"/>
				<text x="0" y="838.22" class="st14" v:langID="1033"><v:paragraph/><v:tabList/>0</text>			</g>
			<g id="shape51-117" v:mID="51" v:groupContext="shape" transform="translate(665.113,-254.664)">
				<title>text640</title>
				<desc>0.6</desc>
				<v:textBlock v:margins="rect(0,0,0,0)"/>
				<v:textRect cx="62.746" cy="825.677" width="125.5" height="50.1768"/>
				<rect x="0" y="800.589" width="125.492" height="50.1768" class="st3"/>
				<text x="0" y="838.22" class="st14" v:langID="1033"><v:paragraph/><v:tabList/>0.6</text>			</g>
			<g id="shape52-120" v:mID="52" v:groupContext="shape" transform="translate(683.519,-162.163)">
				<title>text644</title>
				<desc>2</desc>
				<v:textBlock v:margins="rect(0,0,0,0)"/>
				<v:textRect cx="20.932" cy="825.677" width="41.87" height="50.1768"/>
				<rect x="0" y="800.589" width="41.864" height="50.1768" class="st3"/>
				<text x="0" y="838.22" class="st14" v:langID="1033"><v:paragraph/><v:tabList/>2</text>			</g>
			<g id="shape53-123" v:mID="53" v:groupContext="shape" transform="translate(766.876,-342.473)">
				<title>text648</title>
				<desc>0.1</desc>
				<v:textBlock v:margins="rect(0,0,0,0)"/>
				<v:textRect cx="62.746" cy="825.677" width="125.5" height="50.1768"/>
				<rect x="0" y="800.589" width="125.492" height="50.1768" class="st3"/>
				<text x="0" y="838.22" class="st14" v:langID="1033"><v:paragraph/><v:tabList/>0.1</text>			</g>
			<g id="shape54-126" v:mID="54" v:groupContext="shape" transform="translate(764.344,-254.664)">
				<title>text652</title>
				<desc>4.7</desc>
				<v:textBlock v:margins="rect(0,0,0,0)"/>
				<v:textRect cx="62.746" cy="825.677" width="125.5" height="50.1768"/>
				<rect x="0" y="800.589" width="125.492" height="50.1768" class="st3"/>
				<text x="0" y="838.22" class="st14" v:langID="1033"><v:paragraph/><v:tabList/>4.7</text>			</g>
			<g id="shape55-129" v:mID="55" v:groupContext="shape" transform="translate(764.109,-162.163)">
				<title>text656</title>
				<desc>2.2</desc>
				<v:textBlock v:margins="rect(0,0,0,0)"/>
				<v:textRect cx="62.746" cy="825.677" width="125.5" height="50.1768"/>
				<rect x="0" y="800.589" width="125.492" height="50.1768" class="st3"/>
				<text x="0" y="838.22" class="st14" v:langID="1033"><v:paragraph/><v:tabList/>2.2</text>			</g>
			<g id="shape56-132" v:mID="56" v:groupContext="shape" transform="translate(1049.33,-279.887)">
				<title>path1132</title>
				<path d="M0 572.07 L82.47 572.07 L82.47 850.77 L0 572.07 Z" class="st7"/>
				<path d="M0 572.07 L82.47 572.07 L82.47 850.77" class="st15"/>
			</g>
			<g id="shape57-135" v:mID="57" v:groupContext="shape" transform="translate(1122.8,-444.617)">
				<title>path1134</title>
				<path d="M17.06 842.23 A8.53154 8.53154 0 0 1 8.53 850.77 A8.53154 8.53154 0 0 1 -0 842.23 A8.53154 8.53154 0 0 1
							 8.53 833.7 A8.53154 8.53154 0 0 1 17.06 842.23 Z" class="st5"/>
			</g>
			<g id="shape58-137" v:mID="58" v:groupContext="shape" transform="translate(1122.8,-274.531)">
				<title>path1136</title>
				<path d="M17.06 842.23 A8.53154 8.53154 0 0 1 8.53 850.77 A8.53154 8.53154 0 0 1 -0 842.23 A8.53154 8.53154 0 0 1
							 8.53 833.7 A8.53154 8.53154 0 0 1 17.06 842.23 Z" class="st5"/>
			</g>
			<g id="shape59-139" v:mID="59" v:groupContext="shape" transform="translate(1091.97,-453.149)">
				<title>path1138</title>
				<path d="M0 850.77 L30.25 850.77 L0 850.77 Z" class="st7"/>
				<path d="M0 850.77 L30.25 850.77" class="st16"/>
			</g>
			<g id="shape60-142" v:mID="60" v:groupContext="shape" transform="translate(1091.97,-283.063)">
				<title>path1140</title>
				<path d="M0 850.77 L30.25 850.77 L0 850.77 Z" class="st7"/>
				<path d="M0 850.77 L30.25 850.77" class="st16"/>
			</g>
			<g id="shape61-145" v:mID="61" v:groupContext="shape" transform="translate(61.8796,-446.237)">
				<title>path1710</title>
				<rect x="0" y="792.941" width="190.611" height="57.8246" class="st5"/>
			</g>
			<g id="shape62-147" v:mID="62" v:groupContext="shape" transform="translate(68.5994,-449.498)">
				<title>text1714</title>
				<desc>Cooking</desc>
				<v:textBlock v:margins="rect(0,0,0,0)"/>
				<v:textRect cx="84.4006" cy="823.732" width="168.81" height="54.0669"/>
				<rect x="0" y="796.699" width="168.801" height="54.0669" class="st3"/>
				<text x="2.09" y="837.25" class="st17" v:langID="1033"><v:paragraph v:horizAlign="1"/><v:tabList/>Cooking</text>			</g>
			<g id="shape63-150" v:mID="63" v:groupContext="shape" transform="translate(61.8796,-386.989)">
				<title>path1716</title>
				<rect x="0" y="792.941" width="190.611" height="57.8245" class="st5"/>
			</g>
			<g id="shape64-152" v:mID="64" v:groupContext="shape" transform="translate(65.25,-387)">
				<title>text1720</title>
				<desc>methods</desc>
				<v:textBlock v:margins="rect(0,0,0,0)"/>
				<v:textRect cx="92.0686" cy="823.732" width="184.14" height="54.0669"/>
				<rect x="0" y="796.699" width="184.137" height="54.0669" class="st3"/>
				<text x="3.45" y="837.25" class="st17" v:langID="1033"><v:paragraph v:horizAlign="1"/><v:tabList/>methods</text>			</g>
			<g id="shape65-155" v:mID="65" v:groupContext="shape" transform="translate(75.1508,-281.333)">
				<title>path1722</title>
				<rect x="0" y="792.941" width="164.068" height="57.8245" class="st5"/>
			</g>
			<g id="shape66-157" v:mID="66" v:groupContext="shape" transform="translate(83.25,-281.183)">
				<title>text1726</title>
				<desc>Dishes</desc>
				<v:textBlock v:margins="rect(0,0,0,0)"/>
				<v:textRect cx="72.9267" cy="823.732" width="145.86" height="54.0669"/>
				<rect x="0" y="796.699" width="145.853" height="54.0669" class="st3"/>
				<text x="5.11" y="837.25" class="st17" v:langID="1033"><v:paragraph v:horizAlign="1"/><v:tabList/>Dishes</text>			</g>
			<g id="shape67-160" v:mID="67" v:groupContext="shape" transform="translate(881.629,-528.013)">
				<title>path1728</title>
				<rect x="0" y="792.941" width="173.318" height="57.8246" class="st5"/>
			</g>
			<g id="shape68-162" v:mID="68" v:groupContext="shape" transform="translate(894.839,-528.75)">
				<title>text1732</title>
				<desc>Quality</desc>
				<v:textBlock v:margins="rect(0,0,0,0)"/>
				<v:textRect cx="73.4556" cy="823.732" width="146.92" height="54.0669"/>
				<rect x="0" y="796.699" width="146.911" height="54.0669" class="st3"/>
				<text x="4.34" y="837.25" class="st17" v:langID="1033"><v:paragraph v:horizAlign="1"/><v:tabList/>Quality</text>			</g>
			<g id="shape69-165" v:mID="69" v:groupContext="shape" transform="translate(956.106,-425.737)">
				<title>path1734</title>
				<rect x="0" y="792.941" width="135.647" height="57.8246" class="st5"/>
			</g>
			<g id="shape70-167" v:mID="70" v:groupContext="shape" transform="translate(963,-427.5)">
				<title>text1738</title>
				<desc>Sugar</desc>
				<v:textBlock v:margins="rect(0,0,0,0)"/>
				<v:textRect cx="61.1831" cy="823.732" width="122.37" height="54.0669"/>
				<rect x="0" y="796.699" width="122.366" height="54.0669" class="st3"/>
				<text x="5.77" y="837.25" class="st17" v:langID="1033"><v:paragraph v:horizAlign="2"/><v:tabList/>Sugar</text>			</g>
			<g id="shape71-170" v:mID="71" v:groupContext="shape" transform="translate(912.402,-365.587)">
				<title>path1740</title>
				<rect x="0" y="792.941" width="178.815" height="57.8246" class="st5"/>
			</g>
			<g id="shape72-172" v:mID="72" v:groupContext="shape" transform="translate(917.062,-366.683)">
				<title>text1744</title>
				<desc>content</desc>
				<v:textBlock v:margins="rect(0,0,0,0)"/>
				<v:textRect cx="83.7191" cy="823.732" width="167.44" height="54.0669"/>
				<rect x="0" y="796.699" width="167.438" height="54.0669" class="st3"/>
				<text x="15.13" y="837.25" class="st17" v:langID="1033"><v:paragraph v:horizAlign="2"/><v:tabList/>content</text>			</g>
			<g id="shape73-175" v:mID="73" v:groupContext="shape" transform="translate(920.444,-259.255)">
				<title>path1746</title>
				<rect x="0" y="792.941" width="170.77" height="57.8246" class="st5"/>
			</g>
			<g id="shape74-177" v:mID="74" v:groupContext="shape" transform="translate(927,-260.933)">
				<title>text1750</title>
				<desc>Protein</desc>
				<v:textBlock v:margins="rect(0,0,0,0)"/>
				<v:textRect cx="78.0562" cy="823.732" width="156.12" height="54.0669"/>
				<rect x="0" y="796.699" width="156.112" height="54.0669" class="st3"/>
				<text x="12.37" y="837.25" class="st17" v:langID="1033"><v:paragraph v:horizAlign="2"/><v:tabList/>Protein</text>			</g>
			<g id="shape75-180" v:mID="75" v:groupContext="shape" transform="translate(943.896,-198.205)">
				<title>path1752</title>
				<rect x="0" y="792.941" width="146.641" height="57.8246" class="st5"/>
			</g>
			<g id="shape76-182" v:mID="76" v:groupContext="shape" transform="translate(951.75,-200.183)">
				<title>text1756</title>
				<desc>intake</desc>
				<v:textBlock v:margins="rect(0,0,0,0)"/>
				<v:textRect cx="64.7847" cy="823.732" width="129.57" height="54.0669"/>
				<rect x="0" y="796.699" width="129.569" height="54.0669" class="st3"/>
				<text x="7.84" y="837.25" class="st17" v:langID="1033"><v:paragraph v:horizAlign="2"/><v:tabList/>intake</text>			</g>
		</g>
	</g>
</svg>
