<?xml version="1.0" encoding="UTF-8" standalone="no"?>
<!DOCTYPE svg PUBLIC "-//W3C//DTD SVG 1.1//EN" "http://www.w3.org/Graphics/SVG/1.1/DTD/svg11.dtd">
<!-- Generated by Microsoft Visio, SVG Export _sociologist_.svg Page-1 -->
<svg xmlns="http://www.w3.org/2000/svg" xmlns:xlink="http://www.w3.org/1999/xlink" xmlns:ev="http://www.w3.org/2001/xml-events"
		xmlns:v="http://schemas.microsoft.com/visio/2003/SVGExtensions/" width="16.6386in" height="11.8154in"
		viewBox="0 0 1197.98 850.711" xml:space="preserve" color-interpolation-filters="sRGB" class="st9">
	<v:documentProperties v:langID="1033" v:viewMarkup="false"/>

	<style type="text/css">
	<![CDATA[
		.st1 {fill:#7bade0;stroke:none;stroke-linecap:butt;stroke-width:2.25264}
		.st2 {fill:#5698d5;stroke:none;stroke-linecap:butt;stroke-width:2.25264}
		.st3 {fill:#f3f4a8;stroke:none;stroke-linecap:butt;stroke-width:0.895561}
		.st4 {fill:none;stroke:none;stroke-linecap:butt;stroke-width:0.75}
		.st5 {fill:#000000;font-family:Merriweather;font-size:9.01057em}
		.st6 {fill:#c41622;stroke:none;stroke-linecap:butt;stroke-width:2.25264}
		.st7 {fill:#ffffff;stroke:none;stroke-linecap:butt;stroke-width:2.25264}
		.st8 {fill:#000000;font-family:Roboto;font-size:3.75442em}
		.st9 {fill:none;fill-rule:evenodd;font-size:12px;overflow:visible;stroke-linecap:square;stroke-miterlimit:3}
	]]>
	</style>

	<g v:mID="0" v:index="1" v:groupContext="foregroundPage">
		<title>Page-1</title>
		<v:pageProperties v:drawingScale="1" v:pageScale="1" v:drawingUnits="19" v:shadowOffsetX="9" v:shadowOffsetY="-9"/>
		<g id="group21-1" transform="translate(1.1559,-2.25264)" v:mID="21" v:groupContext="group">
			<title>Sheet.21</title>
			<g id="shape1-2" v:mID="1" v:groupContext="shape" transform="translate(1.09674,0)">
				<title>path380</title>
				<rect x="0" y="4.50529" width="1193.47" height="846.206" class="st1"/>
			</g>
			<g id="shape2-4" v:mID="2" v:groupContext="shape" transform="translate(1.09674,0)">
				<title>path382</title>
				<path d="M0 4.51 L1193.47 850.71 L0 850.71 L0 4.51 Z" class="st2"/>
			</g>
			<g id="shape3-6" v:mID="3" v:groupContext="shape" transform="translate(0,-78.8285)">
				<title>path384</title>
				<path d="M425.49 215.34 L420.33 215.98 C417.48 216.33 408.68 217.03 400.76 217.54 C385.49 218.5 362.24 220.65 361.74
							 221.15 C361.05 221.84 377.46 222.82 379.83 222.22 C383.25 221.36 384.42 223.4 381.43 225 C379.87 225.84
							 376.04 226.06 369.96 225.67 C360.13 225.03 357.09 225.74 359.85 228.03 C362.44 230.18 360.6 231.46 355.84
							 230.8 C352.2 230.29 351.89 230.38 354.01 231.29 C358.49 233.2 354.86 234.97 346.6 234.9 C339.99 234.84
							 339.46 234.99 341.63 236.22 C343.2 237.12 346.1 237.42 349.87 237.08 C353.9 236.71 356.5 237.02 358.33
							 238.09 C359.78 238.95 360.97 239.66 360.97 239.67 C360.97 239.69 363.78 238.27 367.2 236.54 C370.63
							 234.8 374.09 233.38 374.89 233.38 C375.69 233.38 379.03 231.94 382.3 230.2 C385.57 228.45 389.31 227.03
							 390.61 227.03 C395.95 227.03 408.96 223.28 416.96 219.44 L425.49 215.34 ZM519.63 215.88 C517.32 215.88
							 515.3 216.05 513.86 216.44 C511.38 217.11 506.97 217.35 503.93 216.98 C500.35 216.55 493.73 217.12 484.72
							 218.64 C475.05 220.27 467.52 220.87 459.33 220.68 C433.42 220.07 432.59 220.16 421.73 224.79 C414.71
							 227.79 409.07 229.38 402.77 230.16 C397.84 230.76 393.56 231.26 393.25 231.26 C392.95 231.26 392.63
							 232.44 392.54 233.87 C392.35 237.32 394.59 237.99 406.63 238.07 C415.47 238.13 416.58 238.37 419.16
							 240.78 C422.67 244.05 426.19 250.73 425.44 252.69 C425.11 253.55 425.92 254.63 427.41 255.31 C430.36
							 256.65 431.87 262.07 430.17 265.24 C429.56 266.38 426.79 268.72 424.02 270.43 C418.17 274.02 415.88
							 277.86 417.64 281.13 C418.48 282.7 418.45 284.09 417.53 286.31 C415.59 290.99 418.79 296.6 425.49 300.25
							 C428.39 301.84 431.49 303.13 432.36 303.12 C435.58 303.1 438.7 300.35 443.87 292.99 C450.3 283.83 453.91
							 281.47 464.59 279.42 C469.7 278.45 474.07 276.9 476.12 275.34 C482.42 270.55 486.71 268.84 492.65 268.75
							 C495.85 268.7 502.63 267.79 507.72 266.72 C515.42 265.1 516.76 264.53 515.73 263.29 C514.87 262.25 513.32
							 262.01 510.56 262.48 C506.23 263.21 503.44 261.18 507.37 260.15 C509.13 259.69 509.36 259.24 508.42
							 258.11 C506.01 255.21 510.52 255.23 514.72 258.13 C517.81 260.28 519.33 260.72 521.19 260.03 L523.61
							 259.14 L520.93 257.1 C519.45 255.98 516.7 254.21 514.82 253.17 C510.84 250.98 511.38 249.89 516.53 249.71
							 C521.17 249.54 530.52 245.23 531.25 242.91 C531.56 241.94 533.21 239.81 534.93 238.17 C537.28 235.91
							 537.81 234.74 537.08 233.38 C535.39 230.22 541.77 225.27 548.71 224.36 C551.91 223.94 555.48 222.89
							 556.64 222.04 C558.55 220.64 558.07 220.55 551.72 221.19 C545.84 221.77 543.99 221.54 540.51 219.76
							 C536.09 217.5 526.55 215.89 519.63 215.88 L519.63 215.88 ZM345.49 222.15 C342.91 222.19 339.59 223.14
							 336.16 224.92 C332.39 226.87 332.58 227.3 337.7 228.43 C341.91 229.36 343.47 229.11 347.29 226.85 C350.97
							 224.68 351.08 224.46 349.21 223.08 C348.32 222.43 347.04 222.12 345.49 222.15 L345.49 222.15 ZM852.78
							 224.67 C850.58 224.65 848.66 225.2 847.55 226.3 C845.02 228.83 846.74 229.21 867.77 230.85 C875.48 231.45
							 876.37 231.74 876.03 233.51 C875.63 235.61 877.06 236.23 878.17 234.44 C878.98 233.14 888.22 233.02
							 888.22 234.31 C888.22 234.82 886.55 236.52 884.51 238.08 C881.33 240.5 880.14 240.81 876.28 240.23 C872.27
							 239.63 854.86 242.07 853.5 243.42 C853.24 243.69 853.58 244.59 854.28 245.42 C856.04 247.55 854.05 248.58
							 847.91 248.72 C844.89 248.79 841.89 249.63 840.11 250.89 C832.35 256.42 829.51 257.67 826.08 257.04
							 C823.79 256.63 822.64 256.83 822.64 257.66 C822.64 260.09 824.86 263 827.93 264.58 C831.84 266.6 833.47
							 269.57 832.59 273.06 C831.85 276.03 826.54 279.37 824.06 278.41 C822.75 277.91 822.87 277.29 824.75
							 274.64 C827.3 271.06 827.49 271.59 819.7 261.18 C813.69 253.16 811.81 251.91 807.47 253 C799.99 254.88
							 800.51 261.07 808.46 264.93 C811.03 266.18 813.12 267.66 813.12 268.23 C813.12 269.92 809.36 271.5 808.18
							 270.31 C806.41 268.55 776.98 261.7 775.88 262.79 C774.79 263.88 779.8 265.57 781.32 264.63 C782.58 263.85
							 784.88 266.91 784.05 268.25 C783.67 268.87 782.9 269.09 782.33 268.74 C781.77 268.39 777.98 268.67 773.91
							 269.35 C768.16 270.32 766.17 270.32 764.97 269.32 C762.82 267.54 757.06 268.8 749.66 272.68 C744.61
							 275.33 743.16 275.68 741.33 274.7 C740.1 274.04 739.22 272.93 739.36 272.22 C739.5 271.5 738.26 270.77
							 736.56 270.58 C733.37 270.21 733.4 270.06 735.59 275.41 C736.17 276.83 735.66 277.09 728.68 278.87 C725.42
							 279.71 724.26 280.48 724.68 281.55 C725.55 283.84 721.78 285.41 718.46 284.15 C714.29 282.56 712.76
							 282.95 716.08 284.75 C719.66 286.7 719.69 287.11 716.29 288.4 C712.75 289.74 705.89 286.37 703.75 282.23
							 C702.91 280.6 700.92 278.68 699.34 277.96 C697.2 276.99 696.76 276.34 697.64 275.46 C698.52 274.58 700.42
							 274.6 704.94 275.57 C708.3 276.29 712.85 277.14 715.05 277.46 C719.86 278.15 725.44 276.14 724.62 274.02
							 C723.81 271.9 704.35 265.87 700.7 266.6 C698.66 267.01 696.52 266.43 693.82 264.74 C688.43 261.37 681.9
							 260.05 671.92 260.3 C666.2 260.45 661.74 261.23 658.17 262.7 C655.26 263.9 650.62 265.69 647.85 266.67
							 C645.09 267.66 642.83 268.93 642.83 269.51 C642.83 270.08 640.88 272.3 638.49 274.44 C636.11 276.58
							 633.53 279.53 632.78 281 C631.07 284.29 621.05 291.31 616.11 292.68 C611.19 294.04 606.45 298.48 607.4
							 300.85 C607.79 301.85 608.22 304.02 608.35 305.68 C608.61 309.02 612.5 312.65 615.86 312.68 C617.02
							 312.68 619.63 311.69 621.64 310.46 L625.31 308.23 L628.21 311.69 C629.8 313.6 631.39 316.46 631.74 318.06
							 C632.09 319.65 633.34 321.82 634.52 322.89 C636.6 324.78 636.77 324.76 640.54 322.59 C643.21 321.05
							 644.92 318.99 646.05 315.99 C646.95 313.59 648.86 310.82 650.28 309.85 C654.92 306.67 655.57 304.74
							 652.32 303.71 C651.14 303.33 649.45 301.91 648.55 300.54 C647.09 298.32 647.09 297.74 648.53 294.96
							 C649.41 293.25 651.55 291.27 653.27 290.55 C655 289.84 658.53 286.91 661.12 284.06 C666.03 278.65 668.14
							 277.81 670.28 280.39 C671.73 282.14 670.8 284.4 665.71 291.5 C661.76 297.01 662.43 300.05 668.2 302.65
							 C671.91 304.33 673.19 304.42 678.03 303.33 C683.5 302.11 689.94 302.61 691.01 304.34 C692.23 306.31
							 685.23 308.51 679.61 307.91 C676.54 307.59 673.33 307.79 672.47 308.37 C671.15 309.26 671.3 309.84 673.47
							 312.14 C675.72 314.54 675.84 315.05 674.47 316.43 C673.17 317.73 672.33 317.77 669.46 316.69 C665.23
							 315.09 663.63 316.74 664.5 321.78 C665.09 325.19 663.78 327.04 659.02 329.5 C657.35 330.36 656.01 330.38
							 654.2 329.56 C652.24 328.67 650.5 328.88 646.07 330.57 C641.01 332.49 640.12 332.55 637.49 331.19 C635.16
							 329.99 633.85 329.92 631.11 330.88 C627.92 331.99 627.49 331.86 625.24 329.04 C623.91 327.37 623.07
							 325.77 623.37 325.47 C623.66 325.18 624.3 325.57 624.78 326.34 C625.41 327.37 625.84 327.41 626.39 326.52
							 C626.93 325.65 627.54 325.63 628.5 326.42 C630.24 327.87 632.76 325.09 631.86 322.72 C631.33 321.35
							 630.84 321.29 628.83 322.4 C627.51 323.12 625.59 323.85 624.57 324.02 C622.95 324.29 622.8 323.76 623.41
							 319.98 L624.1 315.63 L621.39 317.4 C619.9 318.38 618.4 319.91 618.06 320.79 C617.35 322.66 618.42 327.78
							 619.7 328.63 C621.77 330 617.37 333.6 612.99 334.12 C609.45 334.54 607.29 335.75 603.16 339.59 C600.26
							 342.3 596.83 344.78 595.55 345.11 C594.28 345.43 592.49 346.84 591.58 348.22 C589.7 351.09 584.04 354.35
							 582.54 353.43 C581.99 353.09 580.27 353.65 578.71 354.67 C577.15 355.69 574.2 356.55 572.16 356.57 C566.79
							 356.62 566.91 358.65 572.4 360.74 C576.13 362.17 577.37 363.29 578.28 366.04 C579.68 370.27 578.65 377.79
							 576.36 380.08 C574.7 381.74 567.61 381.64 555.49 379.78 C550.24 378.97 547.1 381.33 548.11 385.32 C548.45
							 386.69 548.03 390.86 547.17 394.58 C545.15 403.27 545.61 409.38 548.3 409.79 C553.44 410.59 554.9 411.22
							 557.44 413.77 C560.15 416.48 560.19 416.48 561.35 414.32 C562.23 412.67 563.55 412.13 566.78 412.13
							 C569.12 412.13 572.09 411.6 573.36 410.95 C577.35 408.89 581.48 404.42 581.49 402.15 C581.49 399.78
							 585.18 393.09 586.49 393.09 C586.94 393.09 588.68 391.9 590.37 390.45 C592.06 388.99 594.1 387.81 594.89
							 387.81 C595.89 387.81 596.13 387.01 595.69 385.25 C594.84 381.86 598.19 380 603.53 380.9 C607.54 381.58
							 611.38 380.41 616.5 376.94 C619.9 374.63 622.3 375.44 624.46 379.61 C626.47 383.51 634.17 390.98 636.18
							 390.98 C641.65 390.98 648.24 398.16 647.36 403.16 L646.81 406.32 L649.24 403.98 C651.33 401.97 651.5
							 401.28 650.46 398.99 C648.98 395.75 650.16 394.79 654.49 395.74 C659.35 396.81 658.25 395.55 651.27
							 392.02 C644.68 388.7 631.2 376.27 631.2 373.53 C631.2 372.7 632.12 371.52 633.25 370.92 C634.87 370.05
							 635.6 370.24 636.7 371.82 C637.48 372.92 639.82 374.54 641.92 375.41 C644.01 376.29 646.39 377.95 647.21
							 379.12 C648.02 380.28 650.71 381.83 653.18 382.57 C657.94 384 661.87 388.67 661.87 392.9 C661.87 398.33
							 665.36 401.78 671.92 402.83 C674.79 403.29 674.6 405.18 671.64 405.6 C669.29 405.93 669.28 406 671.05
							 409 C673.59 413.31 675.27 413.57 677.07 409.97 C678.51 407.08 678.44 406.49 676.13 402.16 C674.01 398.16
							 673.86 397.29 675.15 396.22 C675.97 395.53 677.37 395.25 678.25 395.59 C679.13 395.92 679.85 395.76
							 679.85 395.21 C679.85 393.37 683.77 392.09 686.86 392.94 C688.53 393.4 692.01 393.33 694.6 392.8 L699.3
							 391.83 L696.74 389.9 C694.27 388.03 694.23 387.78 695.54 382.86 C698.33 372.39 707.95 361.76 710.98
							 365.8 C711.6 366.63 713 367.64 714.08 368.05 C715.65 368.64 715.8 369.1 714.8 370.29 C713.8 371.5 714.08
							 372.14 716.19 373.52 C718.65 375.14 719.08 375.11 722.87 373.11 C725.99 371.46 726.4 370.96 724.67 370.93
							 C723.43 370.9 721.84 370.18 721.13 369.33 C720.04 368.02 720.77 367.36 725.65 365.2 C734.06 361.48 735.77
							 361.04 735.53 362.64 C735.41 363.39 734.93 364.63 734.45 365.4 C733.97 366.16 733.85 367.06 734.18 367.38
							 C734.5 367.71 734.1 369.27 733.28 370.84 L731.8 373.71 L739.71 378.21 C744.06 380.68 748.35 383.82 749.24
							 385.18 C750.71 387.42 750.7 387.91 749.15 390.27 C746.19 394.79 738.81 395.04 730.51 390.89 C724.35
							 387.81 716.42 387.17 712.92 389.47 C711.31 390.53 708.29 391.48 706.2 391.6 C703.69 391.73 701.45 392.75
							 699.61 394.59 C697.65 396.55 696.1 397.21 694.42 396.81 C693.1 396.5 691.3 396.71 690.43 397.28 C689.08
							 398.17 689.19 398.57 691.22 400 C692.53 400.92 693.6 402.58 693.6 403.68 C693.6 406.56 695.57 410.47
							 697.68 411.79 C700.61 413.62 706.02 414.49 706.78 413.25 C707.81 411.59 711.38 411.9 714.86 413.95 C717.54
							 415.54 718.37 415.59 721.37 414.36 C727.68 411.77 730.32 411.71 731.62 414.14 C732.4 415.6 732.43 416.36
							 731.72 416.36 C731.12 416.36 730.61 418.15 730.58 420.33 C730.48 427.04 730.12 430.11 729.44 430.11
							 C729.08 430.11 728.51 431.78 728.18 433.83 C727.18 439.97 723.44 441.73 716.13 439.49 C713.89 438.8
							 711.44 438.81 708.88 439.51 C703.57 440.98 688.58 438.16 680.67 434.2 C673.42 430.57 668.78 430.27 667.14
							 433.33 C666.51 434.51 666.25 436.33 666.58 437.37 C666.95 438.55 666.23 440.13 664.63 441.64 C662.25
							 443.87 661.88 443.93 659.03 442.45 C657.35 441.58 654.21 440.54 652.04 440.13 C649.25 439.61 647.57
							 438.49 646.28 436.32 C644.52 433.34 642.11 432.24 633.61 430.54 C631.8 430.18 629.07 428.59 627.55 427
							 C625.14 424.48 624.92 423.72 625.89 421.16 C626.67 419.13 626.67 417.81 625.92 416.9 C625.31 416.17
							 625.1 414.84 625.45 413.93 C626.6 410.93 622.35 409.77 617.43 411.74 C614.09 413.07 610.98 413.35 604.09
							 412.92 C593.64 412.27 588 413.49 578.86 418.37 C573.55 421.21 571.85 421.64 568.29 421.04 C565.95 420.65
							 563.1 419.67 561.95 418.87 C559.03 416.84 558.67 416.97 556.16 421.03 C554.93 423.02 551.6 426.14 548.76
							 427.96 C543.48 431.35 540.24 436.75 540.24 442.18 C540.24 444.58 533.03 452.33 530.79 452.33 C528.77
							 452.33 521.32 461.11 517.97 467.44 C516.06 471.05 513.37 475.51 511.99 477.34 C508.32 482.2 507.22 486.88
							 508.94 490.27 C512.53 497.36 511.49 508.62 506.76 513.85 C505.21 515.56 505.25 516.01 507.28 519.45
							 C508.72 521.89 509.05 523.2 508.21 523.21 C507.39 523.21 507.51 523.61 508.51 524.25 C509.86 525.13
							 509.82 525.28 508.24 525.29 C505.66 525.32 505.92 527.5 508.59 528.2 C510.28 528.64 510.46 528.99 509.39
							 529.69 C508.32 530.38 508.53 530.75 510.28 531.23 C513.04 531.99 521.13 542.47 522.43 546.98 C524.11
							 552.79 535.93 563.45 542.81 565.34 C546.11 566.26 548.32 566.08 554.42 564.4 C560.32 562.78 562.76 562.57
							 565.64 563.4 C568.69 564.29 570.79 563.99 577.79 561.68 C582.44 560.15 587.2 558.51 588.36 558.03 C593.48
							 555.95 595.27 555.96 599.45 558.08 C602.66 559.72 603.93 561.11 604.4 563.47 C605.02 566.54 605.18 566.62
							 609.54 565.97 C620.71 564.29 625.29 572.79 621.06 587.36 C618.98 594.52 619.85 597.11 626.55 603.69
							 C630.03 607.1 631.73 609.88 632.95 614.16 C633.86 617.36 635.53 621.48 636.65 623.33 C637.98 625.53
							 638.45 627.62 638.01 629.37 C637.64 630.86 638.12 634.38 639.11 637.35 L640.87 642.66 L637.73 648.77
							 C633.01 657.95 630.94 665.53 631.77 670.62 C632.16 673.01 634.3 678.31 636.53 682.39 C641.07 690.68
							 644.44 702.12 645.47 712.7 C646.05 718.69 646.78 720.58 650.31 725.32 C652.6 728.38 654.47 731.4 654.47
							 732.04 C654.47 732.67 655.64 734.91 657.07 737.01 C659.08 739.97 659.53 741.68 659.06 744.58 C658.56
							 747.67 658.93 748.81 661.17 751.05 C664.39 754.27 663.51 754.18 671.82 752.1 C676.95 750.81 679.42 750.67
							 682.48 751.52 C685.95 752.48 687.16 752.26 691.88 749.88 C697.55 747.03 710.01 734.98 714.35 728.17
							 C715.72 726.01 717.77 723.75 718.91 723.15 C720.55 722.27 720.85 721.3 720.38 718.4 C719.48 712.86 720.68
							 709.79 724.31 708.28 C732.93 704.71 735.34 699.6 731.75 692.55 C730.55 690.2 729.57 687.8 729.57 687.22
							 C729.57 686.63 731.71 683.74 734.33 680.79 C736.94 677.84 739.09 674.98 739.09 674.42 C739.09 673.87
							 741.59 672.17 744.64 670.64 C751.63 667.14 753.62 665.37 756.12 660.47 C757.86 657.08 757.97 655.83
							 756.97 651.16 C756.33 648.2 756.1 644.61 756.46 643.19 C756.89 641.48 756.18 638.77 754.37 635.2 C747.25
							 621.15 748.71 610.66 759.45 598.74 C763.13 594.66 767.17 589.86 768.44 588.09 C769.7 586.31 774.45 581.93
							 778.98 578.35 C787.03 572 787.4 571.49 795.5 555.96 C803.03 541.52 803.72 539.68 803.08 535.88 L802.37
							 531.69 L799.39 533.23 C797.75 534.08 791.86 535.76 786.3 536.96 C776.98 538.98 775.94 539.03 772.99
							 537.5 C771.05 536.5 769.53 534.7 769.13 532.95 C768.05 528.3 763.73 522.72 757.06 517.37 C752.67 513.85
							 750.63 511.4 750.13 509.06 C749.74 507.23 747.88 503.83 746.01 501.51 C741.33 495.72 740.15 493.23 740.15
							 489.25 C740.15 487.32 739.08 484.42 737.68 482.57 C736.32 480.77 733.31 475.49 730.99 470.84 C728.66
							 466.18 724.76 459.08 722.31 455.06 C717.13 446.56 717.83 443.4 723.34 450.36 L726.92 454.88 L727.45
							 451.81 C728.2 447.49 729.82 448.44 731.74 454.32 C733.19 458.76 736.06 463.01 745.77 475.07 C747.17
							 476.81 749.09 480.91 750.04 484.18 C751.22 488.25 753.09 491.5 756 494.5 C758.33 496.9 760.24 499.33
							 760.24 499.89 C760.24 500.45 761.61 502.47 763.29 504.38 C765.46 506.87 766.55 509.51 767.11 513.67
							 C767.55 516.87 768.81 521.29 769.93 523.5 C771.86 527.3 772.15 527.47 775.8 526.78 C779.2 526.15 791.31
							 521.06 801.36 516.04 C803.32 515.06 805.65 513.15 806.54 511.79 C808.41 508.94 813.11 506.27 816.28
							 506.27 C819.01 506.27 827.09 498.32 829.88 492.89 C831.02 490.65 833.2 487.66 834.71 486.25 C836.22
							 484.84 837.45 483.14 837.45 482.46 C837.45 481 830.88 475.56 826.16 473.12 C823.11 471.54 821.26 468.8
							 821.68 466.45 C822.3 462.96 821.03 463.24 817.37 467.4 C815.05 470.03 811.98 472.48 810.54 472.84 C807.69
							 473.56 801.59 470.55 802.18 468.72 C802.36 468.14 802.06 466.95 801.52 466.08 C800.66 464.72 800.31
							 464.78 799.04 466.52 C796.94 469.4 794.4 467.98 793.11 463.2 C792.51 460.98 790.54 457.14 788.74 454.69
							 C786.15 451.16 785.6 449.57 786.14 447.13 C786.51 445.43 787.53 443.76 788.4 443.43 C791.18 442.36 795.74
							 445.66 797.8 450.22 C799.41 453.79 800.97 455.21 806.18 457.85 C812.22 460.9 812.87 461.01 817.36 459.8
							 C822.09 458.52 822.14 458.54 825.29 462.15 C827.03 464.15 829.6 466.14 830.98 466.57 C834.83 467.78
							 857.78 468.02 860.31 466.88 C863.13 465.61 868.74 468.28 869.71 471.35 C870.08 472.52 870.8 473.48 871.29
							 473.48 C871.79 473.48 873.64 474.69 875.41 476.18 C877.17 477.66 879.42 478.74 880.4 478.56 C883.17
							 478.06 883.41 480.77 880.7 481.78 L878.29 482.67 L881.09 485.48 C885.33 489.72 890.75 488.97 890.84
							 484.15 C890.86 483.32 891.46 482.46 892.18 482.21 C893.99 481.61 895.86 486.96 895.08 490.5 C893.93
							 495.75 895.93 501.29 909.45 530.33 C911.69 535.13 913.82 540.67 914.18 542.63 C914.63 545.03 915.72
							 546.6 917.48 547.41 C920.69 548.87 920.96 548.71 924.74 543.25 C928.63 537.64 930.22 528.21 929.18 516.93
							 C929 515 930.12 513.47 933.69 510.72 C936.3 508.72 939.24 505.75 940.23 504.12 C941.21 502.5 942.93
							 500.88 944.05 500.53 C945.17 500.17 946.62 498.7 947.28 497.25 C947.94 495.81 950.18 493.81 952.26 492.82
							 C954.83 491.59 955.9 490.45 955.59 489.27 C954.76 486.07 956.95 484.21 963.07 482.96 C966.41 482.27
							 969.84 481.33 970.7 480.86 C973.06 479.57 975.43 481.36 977.54 486.03 C978.75 488.73 980.57 490.72 982.55
							 491.54 C986.18 493.04 992.37 504.11 991.37 507.28 C990.81 509.03 993.13 512.62 994.81 512.62 C995.17
							 512.62 996.72 511.41 998.26 509.94 C1001.98 506.38 1004.08 507.4 1005.57 513.48 C1006.24 516.21 1008.01
							 520.98 1009.5 524.08 C1011.61 528.45 1012.07 530.6 1011.52 533.6 C1011.13 535.73 1010.65 539.85 1010.46
							 542.76 C1010.12 547.88 1010.25 548.15 1014.45 551.25 C1017.88 553.77 1019.09 555.55 1020.19 559.71 C1022.73
							 569.28 1025.78 574.7 1030.54 578.12 C1035.15 581.43 1037.36 582.16 1037.36 580.37 C1037.36 579.82 1036.18
							 575.61 1034.73 571.02 C1032.28 563.25 1031.66 562.32 1025.83 557.65 C1022.33 554.84 1019.27 551.45 1018.9
							 549.97 C1018.53 548.51 1017.24 545.97 1016.04 544.34 C1014.07 541.67 1013.96 540.83 1015 536.25 C1015.64
							 533.43 1016.06 529.46 1015.93 527.42 C1015.76 524.9 1016.14 523.72 1017.11 523.72 C1019.89 523.72 1029.89
							 531.77 1033.34 536.77 C1034.75 538.81 1035.42 539.04 1037.16 538.11 C1038.83 537.22 1039.41 537.34 1039.93
							 538.7 C1040.29 539.65 1040.31 541.3 1039.96 542.37 C1039.62 543.45 1039.64 544.8 1040 545.38 C1040.86
							 546.78 1045.56 543.7 1046.34 541.23 C1046.67 540.2 1048.79 538.52 1051.06 537.5 C1056.05 535.25 1057.91
							 531.47 1056.86 525.71 C1055.65 519.09 1050.52 509.99 1045.94 506.36 C1040.36 501.94 1036.99 496.45 1037.94
							 493.33 C1039.01 489.84 1041.64 487.14 1045.64 485.45 C1050 483.61 1053.05 484.48 1054.37 487.97 L1055.39
							 490.64 L1057.57 487.87 C1060.31 484.38 1063.45 482.67 1067.51 482.44 C1069.26 482.34 1073.62 481.19
							 1077.21 479.88 C1086.32 476.55 1089.8 471.96 1093.65 458.23 C1096.84 446.89 1096.82 444.92 1093.52 444.92
							 C1090.77 444.92 1089.77 443.18 1091.86 442.01 C1094.09 440.76 1092.97 438.33 1089.1 436.04 C1087.34
							 435 1084.9 432.1 1083.68 429.59 C1082.46 427.07 1080.3 424.48 1078.87 423.84 C1076.74 422.86 1076.4
							 422.15 1076.97 419.77 C1077.65 416.88 1079.17 415.2 1083.96 411.99 L1086.55 410.26 L1081.91 409 C1078.05
							 407.95 1077.01 408 1075.73 409.28 C1074.38 410.63 1073.62 410.5 1069.63 408.27 C1067.12 406.87 1064.43
							 404.95 1063.65 404.01 C1062.44 402.56 1062.54 402.14 1064.29 401.14 C1065.42 400.5 1067.98 398.2 1069.98
							 396.04 C1072.95 392.83 1073.97 392.31 1075.58 393.17 C1076.67 393.75 1077.56 394.95 1077.56 395.84 C1077.56
							 396.73 1078.06 398.41 1078.68 399.56 C1079.79 401.63 1079.83 401.63 1083.45 399.4 C1087.06 397.16 1087.13
							 397.16 1090.53 399.15 C1092.86 400.52 1093.95 401.96 1093.95 403.65 C1093.95 405.51 1094.74 406.36 1096.98
							 406.97 C1101.43 408.17 1103.96 410.89 1106.9 417.65 L1109.53 423.69 L1113.91 421.48 C1116.31 420.27
							 1118.48 419.1 1118.71 418.89 C1118.95 418.68 1118.33 416.7 1117.34 414.51 C1116.08 411.71 1113.33 408.99
							 1108.18 405.45 C1104.14 402.67 1100.83 399.93 1100.83 399.36 C1100.83 398.8 1101.99 397.81 1103.41 397.16
							 C1106.5 395.76 1107.64 393.34 1106.1 391.48 C1105.29 390.51 1105.61 388.94 1107.24 385.8 C1108.49 383.41
							 1109.67 381.46 1109.86 381.46 C1110.05 381.46 1111.5 381.95 1113.07 382.55 C1117.18 384.11 1119.98 381.86
							 1122.48 375 C1126.09 365.08 1125.21 349.91 1120.89 347.6 C1119.75 346.99 1117.9 344.69 1116.78 342.5
							 C1114.05 337.14 1105.3 330.32 1102.43 331.31 C1098.71 332.59 1093.81 331.99 1089.31 329.69 C1085.16
							 327.58 1085.03 327.35 1086.48 325.11 C1087.31 323.82 1088.55 320.53 1089.23 317.82 C1089.9 315.1 1091.64
							 311.77 1093.09 310.41 C1095.38 308.27 1096.82 307.94 1104.35 307.86 C1109.1 307.82 1114.23 307.42 1115.75
							 306.99 C1117.52 306.49 1119.97 306.82 1122.58 307.91 C1124.95 308.9 1127.86 309.34 1129.56 308.97 C1132.06
							 308.42 1132.4 307.92 1131.91 305.49 C1131.6 303.93 1131.87 301.29 1132.51 299.62 C1133.6 296.75 1133.91
							 296.62 1138.14 297.29 C1140.6 297.68 1143.72 298.73 1145.08 299.62 C1148.2 301.67 1150.92 300.76 1150.03
							 297.97 C1149.07 294.94 1152.89 293.09 1155.03 295.55 C1158.3 299.3 1158.89 301.5 1157.36 304.26 C1156.56
							 305.71 1155.89 307.99 1155.87 309.33 C1155.84 310.66 1155.13 313.12 1154.26 314.79 C1152.74 317.74 1152.83
							 318.02 1157.42 324.12 C1160.02 327.59 1163.95 331.72 1166.13 333.31 C1168.32 334.9 1171.83 338.11 1173.94
							 340.44 C1176.99 343.81 1178.24 344.52 1180.1 343.93 C1181.76 343.4 1182.21 342.69 1181.67 341.43 C1181.26
							 340.47 1180.79 338.49 1180.63 337.04 C1180.48 335.58 1180.02 333.56 1179.62 332.55 C1179.14 331.34 1179.46
							 330.48 1180.57 330.06 C1182.09 329.48 1182.1 329.12 1180.69 326.61 C1179.82 325.07 1178.67 322.56 1178.13
							 321.03 C1177.51 319.29 1175.42 317.43 1172.54 316.03 C1167.26 313.47 1163.51 308.34 1165.63 306.57 C1166.36
							 305.97 1168.37 305.13 1170.12 304.71 C1171.86 304.29 1174.59 303.29 1176.19 302.49 C1178.69 301.23 1179.53
							 301.24 1182.13 302.58 C1184.91 304.02 1185.34 303.98 1187.42 302.04 C1188.66 300.88 1189.68 299.49 1189.68
							 298.94 C1189.68 297.94 1192.11 296.49 1194.59 295.64 L1194.59 289.6 C1194.15 289.42 1193.84 289.29 1193.38
							 289.11 C1183.75 285.35 1181.95 283.41 1188.51 283.87 C1192.01 284.12 1192.05 284.07 1190.21 282.04 C1187.76
							 279.33 1189.76 278.48 1194.59 279.89 L1194.59 275.01 C1191.78 273.7 1187.13 272.36 1183.84 271.96 C1180.36
							 271.53 1175.37 270.35 1172.75 269.34 C1167.73 267.39 1152.88 264.68 1140.5 263.45 C1133.11 262.72 1133.09
							 262.72 1135.01 264.87 C1137.67 267.85 1135.72 268.62 1130.83 266.52 C1127.8 265.21 1123.21 264.73 1112.99
							 264.63 C1101.89 264.52 1098.55 264.12 1095.62 262.56 C1092.73 261.02 1088.92 260.54 1076.96 260.22 C1064.35
							 259.87 1061.1 259.43 1056.79 257.49 C1053.96 256.22 1049.98 255.06 1047.94 254.91 C1045.91 254.77 1041.21
							 254.1 1037.5 253.44 C1029.41 251.99 1022.82 252.82 1024.67 255.06 C1025.63 256.22 1025.23 256.86 1022.71
							 258.16 C1020.14 259.49 1018.48 259.59 1013.91 258.72 C1009.31 257.84 1007.58 257.96 1004.47 259.35 C1000.74
							 261.02 1000.51 260.99 995.14 258.06 C992.11 256.41 987.66 253.99 985.25 252.68 C980.39 250.05 972.02
							 249.52 965.22 251.41 C962.24 252.24 959.8 252.11 955.09 250.89 C950.58 249.72 947.93 249.56 945.34 250.3
							 C942.75 251.05 940.36 250.9 936.53 249.77 C931.87 248.38 930.58 248.39 924.95 249.85 C916.26 252.1 914.74
							 250.37 921.92 246.41 C924.9 244.77 927.34 243.13 927.35 242.76 C927.35 242.39 926.06 241.2 924.46 240.12
							 C922.15 238.56 919.49 238.15 911.5 238.12 C904.07 238.09 900.57 237.61 898.07 236.26 C896.21 235.26
							 893.44 234.44 891.92 234.44 C890.41 234.44 889.41 234.02 889.73 233.52 C890.37 232.48 880.17 230.21
							 874.89 230.21 C872.99 230.21 871.13 229.73 870.77 229.15 C870.42 228.57 868.56 228.09 866.64 228.09
							 C864.73 228.09 861.64 227.33 859.77 226.4 C857.5 225.26 855 224.68 852.79 224.67 L852.78 224.67 ZM654.76
							 226.08 C654.57 226.08 654.5 226.32 654.5 226.82 C654.5 227.51 653.82 228.09 652.98 228.09 C652.15 228.09
							 651.26 229.16 651 230.47 L650.53 232.85 L649.75 230.47 C648.97 228.11 646.03 227.08 646.03 229.17 C646.03
							 229.87 642.58 230 635.99 229.54 C627.34 228.93 625.94 229.06 625.94 230.46 C625.94 232.12 627.18 232.86
							 632.76 234.53 C634.95 235.18 636.12 235.08 636.68 234.16 C637.29 233.18 637.78 233.16 638.71 234.09
							 C639.39 234.77 640.72 235.08 641.67 234.78 C643.16 234.3 643.17 234.39 641.8 235.38 C640.93 236 638.91
							 236.52 637.31 236.53 C633.23 236.55 633.73 237.76 638.92 240.42 L643.39 242.71 L646.83 238.91 C648.72
							 236.82 650.27 234.71 650.27 234.24 C650.27 232.78 654.16 233.28 655.52 234.92 C656.22 235.76 656.47
							 236.98 656.07 237.63 C655.56 238.45 656.49 238.58 659.15 238.08 C661.62 237.62 662.96 237.77 662.96
							 238.51 C662.96 239.14 663.66 239.39 664.52 239.06 C665.86 238.54 665.87 238.25 664.59 236.97 C663.78
							 236.16 662.64 235.49 662.06 235.49 C660.46 235.49 654.51 231.9 654.5 230.92 C654.5 230.45 655.33 230.3
							 656.35 230.6 C661.34 232.07 665.9 232.35 668.52 231.35 C673.57 229.44 671.79 228.09 664.23 228.09 C660.05
							 228.09 656.51 227.56 655.77 226.82 C655.27 226.32 654.95 226.08 654.76 226.08 L654.76 226.08 ZM327.92
							 238.03 C327.18 238.07 326.43 238.29 325.49 238.68 C322.95 239.73 320.59 242.59 321.54 243.47 C321.7
							 243.62 327.54 244.19 334.52 244.74 C341.5 245.3 347.93 245.8 348.8 245.86 C349.67 245.93 352.06 245.09
							 354.09 244 L357.79 242.02 L354.8 241.27 C353.15 240.85 348.39 240.75 344.22 241.05 C338.04 241.5 335.89
							 241.22 332.56 239.52 C330.42 238.44 329.17 237.97 327.92 238.03 L327.92 238.03 ZM792.37 240.03 C791.81
							 240.06 791.2 240.13 790.56 240.23 C788.15 240.6 783.08 241.15 779.3 241.45 C775.52 241.75 771 242.64
							 769.26 243.44 C766.21 244.83 761.91 248.95 761.87 250.52 C761.87 250.93 760.9 251.98 759.73 252.86 C758.57
							 253.74 758.04 254.47 758.54 254.49 C759.05 254.52 758.86 255.25 758.13 256.14 C756.56 258.03 756.44
							 257.92 761.85 260.05 C764.18 260.97 767.51 261.75 769.26 261.77 L772.43 261.82 L770.05 260.16 C766.93
							 257.98 767.04 255.44 770.44 251.4 C773.66 247.57 778.56 245.28 786.71 243.82 C794.92 242.35 796.35 241.83
							 795.6 240.62 C795.31 240.15 794.06 239.94 792.37 240.03 L792.37 240.03 ZM229.21 245.62 C224.86 245.65
							 220.73 247.15 214.74 250.43 C206.55 254.91 206.17 255.28 207.87 256.99 C208.87 257.99 210.4 258.5 211.29
							 258.13 C219.97 254.52 230.97 250.84 236.16 249.81 L242.51 248.55 L237.74 247.1 C234.52 246.12 231.82
							 245.61 229.21 245.62 L229.21 245.62 ZM297.27 247.13 C294.59 247.15 287.85 249.7 287.12 250.98 C286.51
							 252.05 285.13 252.3 282.36 251.87 L278.47 251.26 L281.38 252.93 C282.98 253.85 284.29 255.06 284.29
							 255.62 C284.29 258.79 294.33 254.4 296.45 250.29 C297.35 248.55 297.72 247.13 297.27 247.13 L297.27
							 247.13 ZM312.09 247.39 C307.19 247.21 299.43 250.39 300.75 252.53 C301.12 253.13 302.21 253.28 303.17
							 252.87 C304.13 252.46 306.96 251.79 309.46 251.37 C315.05 250.44 317.19 248.7 313.99 247.68 C313.44
							 247.5 312.79 247.41 312.09 247.39 L312.09 247.39 ZM332.41 247.91 L328.18 248.67 C322.86 249.61 313.9
							 255.99 313.9 258.83 C313.9 260.38 320.14 262.05 323.55 261.41 C325.51 261.04 329.4 261.25 332.18 261.88
							 C336.31 262.81 337.81 262.71 340.42 261.36 C343.41 259.82 343.85 259.85 347.19 261.92 C349.15 263.13
							 352.01 266.25 353.53 268.85 C355.05 271.44 356.66 273.57 357.1 273.57 C357.55 273.57 358.84 274.25 359.97
							 275.08 C361.94 276.53 361.9 276.63 358.88 277.78 C356.63 278.64 355.03 278.66 353.28 277.86 C350.42
							 276.56 345.28 278.65 344.16 281.58 C343.6 283.04 342.53 283.21 337.74 282.61 C331.44 281.82 325.78 283.55
							 328.92 285.3 C329.82 285.81 332.08 285.75 334.1 285.17 C340.06 283.46 342.1 283.9 344.31 287.39 C345.44
							 289.18 348.22 291.78 350.49 293.17 C354.59 295.69 359.82 296.57 360.85 294.92 C361.14 294.44 359.97
							 293.22 358.25 292.2 C352.74 288.95 356.72 286.94 362.61 289.99 C365.61 291.54 365.79 291.51 366.89 289.08
							 C367.79 287.12 367.67 285.82 366.35 283.27 C364.74 280.16 364.76 279.93 366.76 278.87 C368.39 277.99
							 369.81 278.22 373.05 279.87 C377.72 282.25 379.38 282.01 381.48 278.63 C383.02 276.17 383.17 276.38
							 376.07 271.31 C374.38 270.1 373.66 268.52 373.66 266.02 C373.66 262.69 373.33 262.36 368.49 260.83 C365.46
							 259.87 362.36 257.97 360.96 256.22 C358.95 253.7 358.27 253.43 356.41 254.42 C353.34 256.06 352.91 255.97
							 347.46 252.35 C343.35 249.64 341.96 249.24 338.69 249.85 C336.55 250.25 333.23 251.96 331.31 253.65
							 C326.78 257.63 325.21 255.58 329.38 251.13 L332.41 247.91 ZM267.02 250.24 C265.63 250.37 263.51 251.41
							 262.05 252.96 C259.54 255.64 257.42 255.94 257.18 253.65 C257.11 252.97 256.99 251.88 256.92 251.23
							 C256.83 250.48 255.86 250.66 254.23 251.73 C251.91 253.25 251.14 253.25 246.23 251.79 C240.26 250.02
							 233.52 250.54 227.18 253.27 C223.53 254.85 223.51 254.89 226.11 255.54 C229.71 256.45 229.43 258.12
							 225.58 258.72 C223.27 259.08 224.14 259.37 228.75 259.78 C232.24 260.09 235.1 260.82 235.1 261.4 C235.1
							 261.98 231.79 262.7 227.76 262.99 L220.41 263.52 L225.64 265.87 C228.51 267.16 232.06 268.4 233.51 268.63
							 C238.68 269.45 239.74 269.31 244.74 267.17 C249.17 265.27 250.43 265.15 254.82 266.2 C259.36 267.29
							 260.4 267.16 265.45 264.85 L271.05 262.29 L264.23 258.73 L266.32 255.31 C267.46 253.42 268.4 251.52
							 268.41 251.09 C268.41 250.41 267.85 250.16 267.02 250.24 L267.02 250.24 ZM299.35 256.99 C298.24 256.87
							 296.33 257.54 293.09 259.13 C287.28 261.98 287.19 262.1 289.39 263.64 C292.52 265.83 290.75 268.92 285.56
							 270.36 C283.38 270.97 280.43 272.37 279 273.48 C276.43 275.48 276.35 275.48 273.46 273.42 C271.16 271.78
							 269.53 271.46 266.01 271.97 C263.25 272.37 259.57 272.03 256.49 271.08 C252.12 269.75 250.8 269.74 246.46
							 271.05 C243.58 271.92 240.49 273.76 239.19 275.39 L236.93 278.23 L235.19 274.86 C233.45 271.51 233.4
							 271.49 227.19 272.14 C223.75 272.5 220.07 272.46 219.01 272.05 C217.17 271.34 217.18 271.23 219.14 269.79
							 C221.14 268.32 221.13 268.28 218.84 268.28 C217.55 268.28 213.53 267.28 209.91 266.05 C205.16 264.45
							 201.91 264 198.19 264.43 C194.67 264.85 192.08 264.53 189.98 263.45 C187.66 262.25 186.4 262.15 184.78
							 263.02 C183.6 263.65 181.73 263.88 180.64 263.53 C179.54 263.19 174.84 263.87 170.19 265.06 C159.65
							 267.75 153.51 267.78 144.08 265.2 C140.02 264.08 133.84 262.85 130.35 262.47 C126.86 262.08 119.84 261.07
							 114.74 260.23 C106.47 258.86 104.13 258.88 93.11 260.4 C86.31 261.34 77.69 263.26 73.96 264.67 C70.22
							 266.08 65.86 267.22 64.28 267.22 C61.09 267.22 54.73 269.19 54.73 270.17 C54.73 270.51 55.73 271.85
							 56.95 273.15 L59.17 275.52 L55.8 277.27 C53.46 278.48 51.18 278.8 48.4 278.34 C44.01 277.59 37.33 279.01
							 34.1 281.38 C32.16 282.79 32.32 282.96 36.63 284.12 C40.19 285.08 41.94 285.07 44.34 284.07 C49.4 281.97
							 50.21 284.39 45.51 287.59 C42.85 289.41 38.88 290.71 33.68 291.5 C23.98 292.96 19.48 295.35 20.3 298.6
							 C21.14 301.96 19.99 304.1 16.32 306 L13.07 307.68 L16.06 309.24 C18.38 310.46 19.62 310.54 21.62 309.63
							 C24.35 308.38 26.63 308.99 25.58 310.69 C24.73 312.06 15.54 316.68 6.6 320.23 C1.34 322.31 0 323.18
							 1.98 323.22 C5.04 323.29 16.12 319.36 23.86 315.46 C26.58 314.09 30.48 312.61 32.51 312.17 C34.55 311.73
							 39.84 309.47 44.26 307.16 C50.82 303.73 52.7 303.16 54.43 304.08 C56.72 305.31 62.36 304.2 67.68 301.46
							 C70.24 300.14 71.55 300.21 78.96 302.11 C83.57 303.28 88.17 304.25 89.18 304.25 C90.19 304.25 92.52
							 305.39 94.36 306.79 C96.2 308.19 99.43 310.07 101.56 310.95 C105.5 312.6 106.66 314.82 106.35 320.11
							 C106.16 323.43 106.78 325.7 108.14 326.71 C108.75 327.15 108.46 327.49 107.47 327.5 C105.08 327.52 102.87
							 333.13 104.27 335.63 C105.06 337.06 104.92 338.03 103.73 339.35 C102.25 340.98 102.54 341.55 106.98
							 345.87 C109.65 348.47 111.84 351.32 111.84 352.19 C111.84 353.07 112.29 353.94 112.83 354.13 C113.37
							 354.33 112.51 356.39 110.92 358.72 C108.23 362.67 105.84 363.6 106.17 360.57 C106.26 359.84 105.3 359.26
							 104.06 359.27 C102.33 359.29 101.19 360.67 99.26 365.14 C97.86 368.37 94.64 373.32 92.1 376.14 C89.56
							 378.96 86.73 383.1 85.81 385.33 C84.9 387.57 82.95 390.66 81.49 392.21 C80.02 393.76 79.12 395.52 79.48
							 396.1 C79.84 396.69 79.59 398.37 78.92 399.85 C77.93 402.02 78.02 403.03 79.42 405.16 C80.37 406.61
							 80.71 408.06 80.19 408.39 C79.64 408.72 79.6 410.44 80.1 412.41 C80.58 414.29 81.27 417.57 81.63 419.68
							 C82.13 422.68 82.99 423.83 85.48 424.86 C89.78 426.64 92.09 431.3 91.22 436.44 C90.69 439.59 91.14 441.65
							 93.29 445.89 C95.4 450.06 95.78 451.77 94.95 453.33 C93.52 455.99 94.34 457.85 98.23 460.72 C100.8 462.62
							 101.32 463.63 100.79 465.71 C100.3 467.67 100.97 469.37 103.44 472.49 C107.62 477.77 109.33 477.86 106.68
							 472.66 C105.56 470.47 104.29 466.33 103.86 463.47 C103.43 460.61 101.75 455.38 100.11 451.86 C96.1 443.19
							 95.59 440.57 97.4 438.09 C98.69 436.33 99.32 436.2 101.57 437.22 C103.69 438.19 104.37 439.47 104.94
							 443.66 C105.39 446.92 107.2 451.38 109.76 455.55 C112.01 459.22 113.6 462.63 113.29 463.14 C112.97 463.64
							 114.56 466.06 116.82 468.51 C119.07 470.95 122.02 475.23 123.37 478.02 C125.52 482.45 125.68 483.66
							 124.7 487.54 C123.62 491.78 123.73 492.15 126.96 495.57 C129.05 497.78 135.78 501.79 144.46 505.99 L158.57
							 512.83 L163.17 511.07 C167.34 509.48 168.06 509.47 170.92 510.95 C172.66 511.85 175.15 514.08 176.45
							 515.9 C177.81 517.82 181.22 520.29 184.49 521.74 C190.76 524.51 193.34 524.84 195.08 523.09 C195.91
							 522.26 196.57 522.96 197.45 525.61 C198.11 527.63 199.59 530.13 200.73 531.16 C201.87 532.2 202.81 534.14
							 202.81 535.48 C202.81 536.82 203.4 538.39 204.13 538.96 C204.85 539.54 207.41 541.7 209.81 543.76 C212.21
							 545.83 214.69 547.52 215.33 547.52 C215.97 547.52 218.43 548.53 220.8 549.77 C225.22 552.07 226.57 551.85
							 226.59 548.8 C226.62 546.25 231.7 544.73 235.06 546.27 C237.38 547.32 237.62 547.84 236.66 549.63 C236.03
							 550.8 235.93 551.75 236.44 551.75 C236.94 551.75 237.41 552.34 237.47 553.07 C237.53 553.8 238.11 556.53
							 238.77 559.14 C240.47 565.99 238.67 571.93 232.5 579.71 C223.22 591.43 221.04 598.34 226.21 599.69 C228.32
							 600.24 228.28 600.42 225.17 604.95 C222.29 609.13 222.05 610.06 222.97 613.38 C223.54 615.43 225.17
							 617.88 226.61 618.83 C229.32 620.6 233.29 627.58 235.54 634.53 C236.25 636.72 238.59 640.77 240.75 643.52
							 C242.9 646.28 245.99 651.26 247.6 654.59 C250.27 660.09 251.23 661.01 258.05 664.59 C267.58 669.6 275.29
							 677.18 276.97 683.19 C277.66 685.65 278.12 690.64 278.01 694.28 C277.49 711.32 278.52 730 280.55 740.02
							 C281.92 746.77 282.21 751.62 281.71 759.47 C281.25 766.71 281.42 770.37 282.27 771.39 C282.94 772.2
							 283.58 775.01 283.69 777.64 C283.86 781.7 284.56 783.09 288.34 786.95 C291.33 790 292.57 792.05 292.12
							 793.22 C291.74 794.21 292.4 796.28 293.66 798.05 C296.31 801.76 295.72 807.29 292.58 808.29 C289.84
							 809.16 290.1 810.07 293.64 812.08 C295.64 813.22 297.32 815.57 298.57 818.96 C301.05 825.68 305.49 832.89
							 307.62 833.62 C308.54 833.94 309.93 835.38 310.71 836.83 C311.69 838.66 312.71 839.29 314.03 838.87
							 C315.08 838.54 316.77 838.73 317.78 839.29 C320.37 840.74 326.13 836.72 324.42 834.66 C322.53 832.39
							 322.91 827.61 325.34 822.84 C327.77 818.08 327.24 813.9 324.06 812.68 C323.18 812.34 321.66 810.85 320.68
							 809.36 C318.98 806.76 319.02 806.52 321.67 803.03 C323.31 800.89 324.17 798.71 323.78 797.71 C323.42
							 796.77 323.93 795.12 324.92 794.03 C326.62 792.15 326.59 792 324.51 791.34 C323.3 790.96 321.56 789.2
							 320.64 787.43 C318.39 783.07 319.97 781.61 324.42 783.91 C326.29 784.87 327.94 785.51 328.1 785.32 C330.05
							 783 330.73 779.96 329.72 778.08 C328.09 775.03 329.26 773.87 333.99 773.87 C339.33 773.87 345.08 771.1
							 346.58 767.81 C347.55 765.68 347.35 764.39 345.49 760.66 C344.24 758.16 342.09 755.59 340.71 754.96
							 C339.32 754.33 338.2 753.33 338.2 752.74 C338.2 751.16 341.22 751.4 346.89 753.44 C353.42 755.78 356.13
							 754.4 360.64 746.44 C362.47 743.2 365.07 739.08 366.42 737.28 C367.77 735.48 368.87 732.85 368.87 731.43
							 C368.87 730.02 369.62 727.79 370.54 726.48 C373.38 722.42 374.27 717.66 372.95 713.65 C371.8 710.16
							 371.91 709.84 375.33 706.92 C377.3 705.23 380.89 702.99 383.3 701.93 C385.7 700.87 388.01 699.46 388.43
							 698.79 C388.89 698.03 390.66 697.8 393.04 698.16 C395.94 698.61 397.5 698.25 399.33 696.7 C404.95 691.96
							 410.77 669.75 409.52 657.85 C408.88 651.76 409.02 651.12 411.59 648.56 C413.1 647.04 415.12 644.27 416.07
							 642.41 C417.01 640.54 419.34 637.09 421.25 634.74 C425.7 629.23 427.35 623.44 425.94 618.22 C424.97
							 614.62 424.39 614.15 419.05 612.59 C415.06 611.44 411.9 609.58 409.08 606.77 C405.29 602.97 404.25 602.54
							 396.34 601.46 C388.9 600.44 387.38 600.51 385.16 601.97 C382.36 603.8 381.41 602.91 381.86 598.87 C382.02
							 597.42 380.73 596.05 377.51 594.25 C372.55 591.48 371.23 591.69 365.65 596.2 C363.5 597.94 362.42 598.17
							 360.36 597.35 C358.85 596.74 358.46 596.28 359.43 596.24 C360.35 596.21 362.16 595.05 363.46 593.67
							 C365.63 591.35 365.68 591.02 364.09 589.43 C361.48 586.82 359.74 587.31 354.53 592.12 C350.94 595.42
							 349.45 596.21 348.54 595.31 C347.63 594.4 348.4 593.07 351.63 590 C356.69 585.2 359 581.4 357.45 580.44
							 C356.87 580.07 355.83 577.64 355.14 575.02 C352.82 566.23 342.91 558.99 335.69 560.8 C332.17 561.68
							 324.18 558.02 321.68 554.38 C316.43 546.74 302.44 538.24 297.27 539.54 C293.87 540.39 282.02 537.19
							 279.79 534.81 C276.77 531.58 274.05 531.31 270.54 533.91 C267.16 536.41 266.61 537.92 268.43 539.73
							 C269.19 540.49 268.91 541.6 267.52 543.32 C265.56 545.74 265.47 545.75 264.4 543.74 C263.1 541.32 264.25
							 533.56 266.26 531.14 C268.64 528.27 263.76 529.23 260.98 532.18 C259.62 533.63 257.51 534.84 256.31
							 534.85 C253.41 534.88 249.97 537.74 247.93 541.81 C247.02 543.61 245.17 545.81 243.82 546.7 C241.53
							 548.2 241.12 548.14 238.21 545.81 C234.57 542.9 231.73 542.67 226.49 544.86 C223.19 546.23 222.37 546.24
							 219.75 544.88 C218.11 544.04 215.73 541.66 214.46 539.6 C212.18 535.92 212.17 535.7 213.75 525.72 C214.63
							 520.14 215.11 514.94 214.81 514.17 C214.06 512.2 207.57 511.41 200.47 512.44 C192.68 513.56 192.36 512.68
							 196.9 502.83 C203.53 488.48 204.05 486.94 202.57 486 C200.78 484.86 198.83 484.91 194.16 486.21 C191.05
							 487.07 190.01 488.03 189.05 490.94 C187.54 495.53 183.42 498.5 176.57 499.97 C167.48 501.92 163.12 498.3
							 159.98 486.2 L158.27 479.61 L161.61 469.41 C163.45 463.79 165.4 457.98 165.95 456.49 C166.58 454.77
							 168.97 452.73 172.45 450.94 C175.48 449.38 179.61 447.15 181.64 445.98 C185.99 443.48 188.15 443.34
							 192.02 445.32 C193.59 446.12 196.34 447.09 198.12 447.48 C200.89 448.07 201.55 447.79 202.55 445.6 C203.22
							 444.12 205.27 442.5 207.34 441.82 C210.39 440.81 211.75 440.97 216.02 442.8 C218.81 443.99 222.01 444.67
							 223.14 444.31 C224.5 443.88 226.1 444.5 227.83 446.13 C229.97 448.15 230.33 449.24 229.79 452.12 C229.01
							 456.26 231.79 465.6 234.06 466.47 C235.02 466.84 236.17 465.93 237.15 464.02 C238.47 461.47 238.53 459.52
							 237.53 451.75 C236.45 443.42 236.53 442.15 238.27 438.91 C240.25 435.24 250.01 427.63 256.87 424.4 C263.55
							 421.26 266.61 417.16 266.72 411.14 C266.84 405.27 268.83 401.9 270.16 405.34 C270.86 407.18 271 407.13
							 271.56 404.74 C271.9 403.29 273.83 401.07 275.84 399.8 C277.85 398.53 280.72 396.24 282.22 394.71 C283.72
							 393.19 287.06 391.3 289.63 390.51 C297.69 388.06 299.98 386.62 300.65 383.56 C301.2 381.07 302.84 379.97
							 312.23 375.84 C318.24 373.19 324.83 370.7 326.86 370.32 C332.07 369.35 332.84 371.49 328.01 373.51 C322.57
							 375.79 320.8 377.34 322.48 378.38 C323.2 378.82 325.92 378.11 328.61 376.75 C331.27 375.41 334.88 374
							 336.63 373.62 C338.39 373.24 341.24 371.96 342.98 370.76 L346.13 368.59 L342.03 369.28 C336.84 370.15
							 332.51 368.4 330.85 364.75 C329.74 362.32 329.84 361.72 331.61 360.29 C332.73 359.37 334.22 357.58 334.91
							 356.29 C336.1 354.08 335.95 353.96 332.15 353.96 C329.93 353.96 325.25 355.33 321.63 357.04 C315.47
							 359.95 313.87 360.14 313.87 357.96 C313.87 357.45 318.03 355.03 323.12 352.59 C331.8 348.44 332.98 348.15
							 341.9 348.07 C353.98 347.96 358.1 347.11 367.36 342.75 C375.87 338.75 378.53 335.28 375.33 332.38 C373.16
							 330.41 369.64 330.2 366.57 331.84 C363.48 333.5 361.67 331.41 364.49 329.43 C366.63 327.93 366.63 327.93
							 364.19 323.63 C362.49 320.64 362.04 318.82 362.71 317.62 C363.31 316.56 363.25 315.12 362.57 313.85
							 C361.97 312.72 361.73 311.14 362.04 310.34 C362.35 309.53 362.22 307.81 361.74 306.53 L360.88 304.2
							 L357.21 306.95 C355.19 308.46 351.82 310.59 349.71 311.68 L345.88 313.67 L343.54 311.17 C341.58 309.09
							 341.39 308.3 342.4 306.42 C343.06 305.18 343.34 303.31 343.01 302.28 C342.2 299.75 335.56 296.18 329.94
							 295.26 C323.6 294.23 319.85 296.02 317.51 301.21 C316.47 303.53 314.22 306.41 312.53 307.62 C309.85
							 309.53 309.54 310.27 310.13 313.4 C311.03 318.22 307.65 322.5 299.49 326.86 C293.97 329.81 293.09 330.75
							 291.17 335.8 C289.15 341.1 285.9 344.3 282.43 344.4 C281.72 344.42 280.41 343.03 279.52 341.31 C278.04
							 338.44 278.07 337.75 279.99 332.89 C282.23 327.22 282.19 327.1 277.38 326.06 C275.64 325.68 271.35 323.96
							 267.86 322.24 C264.37 320.52 260.19 318.85 258.57 318.53 C256.71 318.15 255.16 316.88 254.36 315.06
							 C253.67 313.47 252.49 311.8 251.75 311.33 C247.81 308.85 258.7 299.38 271.55 294.13 C275.52 292.51 277.37
							 291.15 277.37 289.87 C277.37 288.37 278.34 287.96 282.14 287.83 C284.76 287.75 288.97 287.09 291.51
							 286.37 L296.12 285.06 L293.81 282.6 C291.1 279.72 292.42 278.29 296.19 280.01 C298.22 280.93 299.47
							 280.82 302.04 279.49 C303.89 278.53 307.87 277.8 311.24 277.8 C318.22 277.8 320.59 276.76 325.24 271.67
							 C329.14 267.39 329.36 266.65 327.01 265.75 C323.36 264.35 319.47 265.17 316.97 267.85 C310.79 274.47
							 301.67 276.23 305.74 270.02 C307.21 267.77 307.23 267.34 305.9 266.83 C305.05 266.5 303.67 266.49 302.84
							 266.8 C300.54 267.69 298.7 263.52 300.18 260.76 C301.04 259.14 301.05 258.21 300.21 257.37 C300 257.16
							 299.72 257.03 299.35 256.99 L299.35 256.99 ZM570.12 262 C569.58 262 568.78 262.33 567.76 262.99 C566.47
							 263.82 566.63 264.02 568.55 264.03 C569.86 264.03 570.93 263.57 570.93 262.99 C570.93 262.33 570.65
							 262 570.12 262 L570.12 262 ZM282.18 264.42 C280.85 264.35 279.14 264.61 277.85 265.14 C275.39 266.17
							 274.99 266.73 275.95 267.88 C277.45 269.7 277.67 269.68 282.11 267.31 C285.6 265.46 285.65 265.34 283.36
							 264.61 C283.03 264.51 282.63 264.45 282.18 264.42 L282.18 264.42 ZM537.02 279.1 C536.19 279.16 535.2
							 279.41 533.83 279.82 C531.5 280.51 528.7 280.8 527.61 280.45 C524.47 279.45 515.17 282.93 514.54 285.33
							 C514.13 286.9 514.43 287.27 515.77 286.85 C516.74 286.54 518.96 287.23 520.7 288.38 C522.45 289.52 524.59
							 290.27 525.46 290.03 C535.09 287.41 539.08 285.96 541.23 284.28 L543.78 282.3 L540.92 280.42 C539.38
							 279.41 538.42 279 537.02 279.1 L537.02 279.1 ZM306.49 282.5 C304.08 282.32 302.25 283.38 299.83 286.06
							 C297.31 288.84 299.05 289.84 304.01 288.47 C306.93 287.67 308.55 287.76 310.64 288.86 C313.01 290.1
							 313.52 290.09 314.27 288.76 C315.45 286.67 313.51 284.52 309.13 283.08 C308.16 282.75 307.29 282.56
							 306.49 282.5 L306.49 282.5 ZM569.37 293.67 C568.5 293.67 567.79 294.06 567.79 294.55 C567.79 295.03
							 568.5 295.43 569.37 295.43 C570.24 295.43 570.96 295.03 570.96 294.55 C570.96 294.06 570.24 293.67 569.37
							 293.67 ZM658.57 303.49 C656.35 303.66 656 304.87 657.96 305.66 C660.15 306.54 660.51 306.43 660.51 304.85
							 C660.51 304.02 659.64 303.41 658.57 303.49 L658.57 303.49 ZM573.34 313.78 C570.43 313.84 567.3 319.31
							 568.66 321.96 C569.19 322.98 569.4 324.41 569.14 325.13 C568.68 326.4 569.99 326.9 572.82 326.53 C574.04
							 326.37 576.24 330.48 576.24 332.93 C576.24 333.5 574.82 334.47 573.07 335.07 C571.29 335.7 570.2 336.67
							 570.59 337.29 C570.97 337.91 570.41 339.05 569.34 339.83 C567.56 341.13 567.67 341.29 570.79 341.92
							 C575.35 342.83 575.94 344.21 572.34 345.51 C570.71 346.1 568.42 347.05 567.26 347.63 C565.64 348.43
							 566.01 348.51 568.84 347.99 C570.88 347.61 576.25 346.76 580.77 346.11 C586.93 345.22 588.7 344.62 587.8
							 343.72 C586.9 342.82 587.29 342.06 589.35 340.71 C592.38 338.73 592 336.54 588.76 337.38 C587.19 337.8
							 586.3 337.02 584.95 334.04 C582.13 327.82 579.37 324.27 576.5 323.18 L573.82 322.16 L578.57 317.11 L576.08
							 316.73 C574.72 316.53 573.72 315.77 573.86 315.06 C574.01 314.35 573.77 313.77 573.34 313.78 L573.34
							 313.78 ZM39.15 314.16 C38.72 314.12 38.03 314.19 37.17 314.4 C32.62 315.51 29.42 316.81 29.42 317.55
							 C29.42 317.92 30.25 317.89 31.27 317.5 C32.28 317.11 34.43 316.52 36.04 316.2 C37.66 315.87 39.24 315.17
							 39.57 314.64 C39.74 314.36 39.57 314.2 39.15 314.16 L39.15 314.16 ZM99.73 315.25 C99.48 315.31 99.14
							 315.51 98.71 315.87 C97.84 316.59 97.42 317.64 97.78 318.22 C98.17 318.86 98.79 318.71 99.34 317.84
							 C100.42 316.13 100.49 315.07 99.73 315.25 L99.73 315.25 ZM101.66 322.45 C101.22 322.36 100.57 322.61
							 99.77 323.27 C98.46 324.35 98.4 324.93 99.43 326.18 C100.55 327.53 100.87 327.43 101.73 325.5 C102.51
							 323.75 102.39 322.62 101.66 322.45 L101.66 322.45 ZM560.86 326.49 C558.93 326.59 556.95 327.09 556.24
							 327.94 C555.57 328.75 553.85 329.71 552.42 330.07 C549.72 330.75 549.03 332.2 550.87 333.33 C551.53
							 333.74 551.34 335.1 550.35 337.03 C549.48 338.7 549.07 340.84 549.43 341.79 C549.85 342.89 550.69 343.24
							 551.8 342.76 C552.74 342.35 555.54 341.31 558.01 340.46 C561.78 339.15 562.5 338.44 562.5 336.09 C562.5
							 334.54 563.25 332.21 564.15 330.92 C565.06 329.62 565.5 328.09 565.15 327.51 C564.66 326.72 562.78 326.4
							 560.86 326.49 L560.86 326.49 ZM570.32 329.99 C570.2 330.01 570.06 330.07 569.91 330.16 C569.33 330.52
							 568.85 331.02 568.85 331.28 C568.85 331.53 569.33 331.74 569.91 331.74 C570.49 331.74 570.97 331.24
							 570.97 330.62 C570.97 330.16 570.7 329.93 570.32 329.99 L570.32 329.99 ZM1118.23 335.03 C1118.12 335.03
							 1118.01 335.03 1117.92 335.06 C1117.09 335.33 1119.3 338.55 1123.65 343.41 C1127.55 347.75 1132.17 354.16
							 1133.92 357.65 C1135.66 361.15 1137.82 364.84 1138.72 365.85 C1140.17 367.5 1144.26 368.5 1144.26 367.21
							 C1144.26 366.94 1142.1 364.3 1139.47 361.33 C1134.96 356.25 1134.09 353.07 1137.57 354.41 C1140.6 355.57
							 1138.28 352.38 1133.6 348.92 C1127.94 344.76 1124.36 341.39 1121.45 337.52 C1120.4 336.12 1119.05 335.1
							 1118.23 335.03 L1118.23 335.03 ZM371.26 345.49 C370.6 345.49 366.74 348.8 362.66 352.84 L355.24 360.18
							 L359.18 360.59 C367.08 361.42 371.66 361.32 375.51 360.26 C379.17 359.24 379.36 359 378.27 356.61 C377.6
							 355.13 375.84 353.78 374.09 353.4 C370.06 352.51 368.56 349.78 370.77 347.34 C371.74 346.27 371.94 345.49
							 371.26 345.49 L371.26 345.49 ZM100.69 347.05 C100.37 347.05 100.07 347.1 99.8 347.2 C97.37 348.14 97.78
							 349.58 101.44 353 C103.25 354.69 105.63 356.07 106.73 356.07 C109.08 356.07 109.11 355.94 107.51 352.43
							 C106.18 349.51 102.94 347.06 100.69 347.05 L100.69 347.05 ZM246.53 355.86 C249.48 355.71 251.29 356.51
							 252.66 358.31 C253.72 359.71 254.33 361.79 254.03 362.99 C253.23 366.23 256.99 369.29 259.87 367.75
							 C263.9 365.6 269.37 370.51 267.22 374.35 C266.51 375.62 265.43 375.99 263.7 375.56 C261.84 375.09 261.05
							 375.45 260.57 376.98 C260.21 378.1 258.76 379.55 257.35 380.19 C255.28 381.13 254.35 381.01 252.53 379.54
							 L250.28 377.71 L252.48 374.92 C255.27 371.38 255.23 370.88 252.18 370.88 C247.95 370.88 242.69 375.28
							 239.86 381.18 C238.41 384.22 236.21 387.42 234.97 388.28 C232.96 389.69 232.55 389.66 231.09 388.04
							 C229.59 386.38 229.81 385.62 233.56 379.34 C238.05 371.83 241.26 369.25 247.45 368.2 C249.73 367.82
							 251.22 367.06 250.86 366.47 C250.5 365.89 249.09 365.7 247.73 366.04 C246.36 366.39 243.65 365.9 241.67
							 364.96 C238.38 363.39 237.82 363.38 234.8 364.93 C232.24 366.26 230.87 366.39 228.56 365.51 L225.61
							 364.39 L228.24 362.36 C229.69 361.25 231.25 360.33 231.73 360.32 C232.2 360.3 232.3 359.84 231.97 359.3
							 C231.63 358.75 232.2 358.34 233.23 358.38 C234.26 358.42 237.24 357.85 239.86 357.13 C242.59 356.37
							 244.77 355.94 246.53 355.85 L246.53 355.86 ZM365.73 362.41 C365.16 362.41 364.7 363.13 364.7 364 C364.7
							 364.88 364.89 365.59 365.12 365.59 C365.35 365.59 365.81 364.88 366.14 364 C366.48 363.13 366.29 362.41
							 365.73 362.41 ZM785.31 363.95 C788.72 363.72 791.69 365.35 794.17 368.83 C796.22 371.7 795.49 373.96
							 793.01 372.43 C791.17 371.29 786.86 372.87 785.66 375.12 C784.06 378.1 785.88 380.98 790.98 383.59 C793.29
							 384.77 795.18 386.22 795.18 386.81 C795.18 387.52 795.86 387.52 797.22 386.78 C798.92 385.88 799.64
							 386.22 801.46 388.76 C802.66 390.45 803.64 392.3 803.64 392.88 C803.64 394.33 800.81 395.27 798.77 394.49
							 C797.23 393.9 797.23 394.13 798.7 396.98 C799.6 398.71 801.08 400.74 801.99 401.49 C803.03 402.36 803.65
							 404.58 803.65 407.47 C803.65 411.5 803.25 412.28 800.52 413.69 C798.8 414.58 797.26 415.28 797.09 415.25
							 C796.91 415.22 793.5 413.52 789.5 411.47 L782.23 407.74 L782.76 402.27 C783.42 395.47 782.45 392.84
							 777.15 387.1 C774.85 384.6 772.97 381.85 772.97 380.99 C772.97 380.12 772.02 378.91 770.85 378.28 C767.73
							 376.61 768.21 375.26 773.74 370.19 C778.02 366.25 781.89 364.17 785.31 363.95 L785.31 363.95 ZM1143.81
							 372.47 C1142.92 372.18 1143.34 373.37 1144.83 376.25 C1146.28 379.04 1146.28 379.65 1144.88 381.65 C1143.45
							 383.69 1143.5 384.19 1145.44 386.91 C1148.02 390.54 1148.73 390.69 1148.29 387.54 C1147.94 384.96 1149.52
							 384.61 1155.1 386.04 C1157.28 386.6 1158.01 386.4 1158.01 385.25 C1158.01 384.4 1158.97 383.41 1160.14
							 383.04 C1163.24 382.05 1161.81 380.67 1155.86 378.9 C1152.98 378.04 1148.95 376.07 1146.91 374.51 C1145.36
							 373.33 1144.35 372.64 1143.81 372.47 L1143.81 372.47 ZM276.19 376.64 C277.14 376.58 278 376.68 278.57
							 377 C280.12 377.87 280.04 378.18 277.84 379.72 C274.74 381.89 269.49 382.04 269.49 379.95 C269.49 378.44
							 273.31 376.82 276.19 376.64 L276.19 376.64 ZM259.76 383.1 C260.68 383.01 261.22 383.32 261.89 383.98
							 C263.21 385.31 262.85 385.79 259.08 387.71 C256.71 388.92 253.79 389.92 252.6 389.92 C248.73 389.92
							 250.34 386.89 255.4 384.65 C257.56 383.69 258.85 383.19 259.76 383.1 L259.76 383.1 ZM620.88 384.11 C620.68
							 384.09 620.44 384.13 620.15 384.25 C618.51 384.88 618.05 386.93 619.27 388.15 C620.71 389.59 621.74
							 388.79 621.74 386.25 C621.74 384.83 621.49 384.17 620.88 384.11 L620.88 384.11 ZM619.43 392.34 C618.97
							 392.44 618.46 392.75 617.92 393.29 C616.73 394.48 616.66 395.48 617.58 398.11 C619.09 402.45 621.74
							 401.58 621.74 396.74 C621.74 393.67 620.8 392.05 619.43 392.34 L619.43 392.34 ZM1151.23 392.41 C1149.61
							 392.52 1149.88 394.89 1152.12 399.32 C1155.53 406.04 1154.77 408.02 1146.41 414.31 C1142.11 417.54 1140.06
							 418.45 1138.17 417.97 C1136.38 417.53 1134.73 418.12 1132.47 420.03 C1130.72 421.5 1128.72 422.72 1128.04
							 422.74 C1127.36 422.76 1127.63 423.25 1128.64 423.85 C1129.9 424.58 1131.76 424.57 1134.46 423.82 C1141.1
							 421.97 1144.01 422.4 1146.06 425.54 L1147.91 428.37 L1148.88 425.01 C1149.67 422.26 1150.39 421.65 1152.8
							 421.65 C1157.1 421.65 1160.87 419.95 1162.23 417.41 C1163.16 415.68 1163.03 414.16 1161.64 410.53 C1160.66
							 407.96 1160.14 405.12 1160.49 404.22 C1161.46 401.7 1158.13 395.74 1154.61 393.66 C1153.1 392.77 1151.97
							 392.35 1151.23 392.4 L1151.23 392.41 ZM594.96 397.35 C594.15 397.43 593.16 398.01 592.78 398.98 C592.33
							 400.14 592.67 400.55 593.9 400.31 C594.87 400.12 595.86 399.37 596.1 398.64 C596.43 397.67 595.78 397.27
							 594.96 397.35 ZM639 406.29 C638.08 406.29 637.22 406.36 636.56 406.54 C634.35 407.11 634.55 407.38 638.78
							 409.55 C642.99 411.7 643.5 411.76 644.15 410.18 C644.55 409.22 644.9 408.13 644.95 407.77 C645.03 406.97
							 641.76 406.29 639 406.29 ZM723.32 417.45 C722.86 417.36 722.2 417.68 721.7 418.48 C721.35 419.06 720.13
							 419.53 719 419.53 C716.99 419.53 716.32 420.67 717.58 421.93 C718.5 422.85 723.07 420.56 723.73 418.86
							 C724.04 418.03 723.79 417.54 723.32 417.45 L723.32 417.45 ZM682.57 418.58 L678.34 418.65 L681.51 420.1
							 C685.15 421.77 690.1 422.09 690.96 420.71 C691.72 419.48 687.84 418.49 682.57 418.58 L682.57 418.58
							 ZM1139.76 425.89 C1137.34 425.92 1135.72 427.62 1136.4 429.4 C1137.21 431.5 1138.09 431.62 1139.82 429.9
							 C1141.47 428.24 1141.44 425.87 1139.76 425.89 L1139.76 425.89 ZM1127.32 427.44 C1125.47 427.28 1125.43
							 429.52 1127.94 432.51 C1129.36 434.19 1130.51 436.24 1130.51 437.07 C1130.51 439.09 1132.24 438.98 1133.04
							 436.9 C1134.09 434.16 1132.6 430.34 1129.75 428.47 C1128.75 427.82 1127.94 427.5 1127.32 427.44 L1127.32
							 427.44 ZM311.19 429.42 C311.06 429.44 310.92 429.49 310.78 429.58 C310.2 429.94 309.72 430.45 309.72
							 430.7 C309.72 430.96 310.2 431.17 310.78 431.17 C311.36 431.17 311.84 430.66 311.84 430.05 C311.84 429.59
							 311.57 429.35 311.19 429.42 L311.19 429.42 ZM245.44 458.67 C244.34 458.67 243.43 459.39 243.43 460.26
							 C243.43 461.13 243.62 461.84 243.86 461.84 C244.1 461.84 245 461.13 245.87 460.26 C247.28 458.85 247.24
							 458.67 245.44 458.67 ZM250.17 458.83 C250.07 458.8 249.98 458.83 249.9 458.9 C249.61 459.19 249.68 460.23
							 250.06 461.21 C250.44 462.19 250.98 462.75 251.27 462.46 C251.56 462.17 251.5 461.13 251.12 460.15 C250.84
							 459.41 250.46 458.91 250.17 458.83 L250.17 458.83 ZM244.35 465.01 C242.47 465.01 242.23 467.58 243.92
							 469.52 C244.81 470.54 245.81 471.07 246.16 470.69 C246.5 470.32 246.24 469.82 245.57 469.58 C244.91
							 469.34 244.6 468.22 244.9 467.08 C245.2 465.94 244.95 465.01 244.35 465.01 ZM1102.13 468.6 C1101.23
							 468.35 1100.01 469.55 1098.46 472.19 C1096.87 474.92 1096.75 475.9 1097.82 477.92 C1098.52 479.26 1099.62
							 480.7 1100.26 481.12 C1101.8 482.14 1104.24 473.98 1103.39 470.62 C1103.09 469.43 1102.68 468.76 1102.13
							 468.6 L1102.13 468.6 ZM227.7 477.87 C222.03 478.06 215.59 480.17 215.59 482.1 C215.59 483.31 215.95
							 483.26 220.75 481.34 C225.88 479.29 230.13 480.25 237.76 485.19 C241.65 487.71 242.78 488.97 241.99
							 489.92 C241.18 490.9 241.97 491.22 245.29 491.27 C247.69 491.3 249.92 491.6 250.25 491.92 C250.99 492.66
							 253.41 492.53 256.84 491.55 C259.86 490.69 259.84 490.68 250.49 485.68 C239.11 479.59 235.86 478.36
							 230.07 477.91 C229.31 477.86 228.51 477.84 227.7 477.87 L227.7 477.87 ZM267.45 478.79 C266.37 478.83
							 265.2 479.14 264.85 479.71 C264.52 480.23 265.45 480.59 266.9 480.51 C268.35 480.42 269.53 480 269.53
							 479.56 C269.53 479 268.54 478.75 267.45 478.79 L267.45 478.79 ZM260.25 482 C259.71 482 258.92 482.34
							 257.89 483 C256.61 483.83 256.76 484.03 258.69 484.04 C260 484.04 261.07 483.58 261.07 483 C261.07 482.34
							 260.79 482 260.25 482 L260.25 482 ZM268.54 493.58 C263.49 493.58 263.19 493.72 264.21 495.63 C265.64
							 498.31 264.14 499.23 258.52 499.09 C254.69 499 254.49 499.12 256.77 500.03 C258.19 500.59 260.67 500.77
							 262.29 500.42 C263.9 500.06 265.99 500.21 266.94 500.73 C268.84 501.79 282.45 499.03 281.65 497.75 C280.46
							 495.81 273.42 493.58 268.54 493.58 L268.54 493.58 ZM1057.55 493.58 C1052.43 493.58 1049.66 496.92 1052.46
							 499.72 C1054.25 501.51 1055.6 500.81 1057.87 496.93 C1059.82 493.59 1059.82 493.58 1057.55 493.58 L1057.55
							 493.58 ZM298.16 498.32 C297.97 498.35 297.76 498.4 297.54 498.48 C296.67 498.82 295.96 499.28 295.96
							 499.51 C295.96 499.73 296.67 499.92 297.54 499.92 C298.42 499.92 299.13 499.46 299.13 498.9 C299.13
							 498.47 298.73 498.26 298.16 498.32 L298.16 498.32 ZM290.29 498.86 C287.52 498.86 285.96 500.15 287.22
							 501.4 C288.33 502.52 292.04 501.67 292.52 500.19 C292.8 499.36 291.95 498.86 290.29 498.86 L290.29 498.86
							 ZM240.44 498.9 C239.5 498.96 238.84 499.26 238.84 499.83 C238.84 500.37 239.44 501.04 240.16 501.34
							 C240.89 501.63 242.91 501.89 244.66 501.92 C247.67 501.97 247.73 501.89 245.78 500.42 C244.36 499.34
							 242 498.79 240.44 498.9 L240.44 498.9 ZM1106.33 500.11 C1105.02 500.04 1104.05 501.41 1104.05 504.28
							 C1104.05 506.03 1103.55 508.41 1102.94 509.55 C1101.35 512.52 1102.4 514.87 1107.82 520.44 C1111.65
							 524.38 1113.06 525.21 1115.11 524.7 C1116.51 524.35 1118.51 524.55 1119.57 525.15 C1121.96 526.5 1122.79
							 524.86 1120.89 522.56 C1120.09 521.6 1118.62 521.18 1117.26 521.52 C1115.66 521.92 1114.13 521.2 1112.09
							 519.08 C1109.27 516.13 1109.24 515.97 1110.82 512.18 C1112.29 508.67 1112.28 507.97 1110.72 504.69 C1109.31
							 501.74 1107.64 500.2 1106.33 500.12 L1106.33 500.11 ZM308.58 503.09 C307.96 503.09 307.75 503.57 308.11
							 504.15 C308.47 504.74 308.97 505.21 309.23 505.21 C309.49 505.21 309.7 504.74 309.7 504.15 C309.7 503.57
							 309.19 503.09 308.58 503.09 ZM313.33 503.09 C313.08 503.09 312.87 503.57 312.87 504.15 C312.87 504.74
							 313.37 505.21 313.99 505.21 C314.61 505.21 314.81 504.74 314.45 504.15 C314.1 503.57 313.59 503.09 313.33
							 503.09 ZM472.53 505.21 C471.91 505.21 471.7 505.69 472.06 506.27 C472.42 506.85 472.92 507.33 473.18
							 507.33 C473.44 507.33 473.65 506.85 473.65 506.27 C473.65 505.69 473.14 505.21 472.53 505.21 ZM304.28
							 505.69 C303.78 505.62 303.61 505.83 303.89 506.28 C304.25 506.86 304.99 507.33 305.53 507.33 C307.05
							 507.33 306.72 506.57 304.89 505.86 C304.65 505.77 304.45 505.72 304.28 505.69 L304.28 505.69 ZM314.35
							 508.74 C314.22 508.77 314.08 508.82 313.93 508.91 C313.35 509.27 312.88 510.04 312.88 510.62 C312.88
							 511.21 313.35 511.39 313.93 511.03 C314.52 510.67 314.99 509.9 314.99 509.32 C314.99 508.88 314.72 508.67
							 314.35 508.74 L314.35 508.74 ZM483.17 513.67 C482.59 513.67 482.11 514.15 482.11 514.73 C482.11 515.31
							 482.59 515.79 483.17 515.79 C483.75 515.79 484.22 515.31 484.22 514.73 C484.22 514.15 483.75 513.67
							 483.17 513.67 ZM317.51 517.21 C317.39 517.23 317.25 517.28 317.1 517.37 C316.52 517.73 316.05 518.24
							 316.05 518.49 C316.05 518.75 316.52 518.96 317.1 518.96 C317.69 518.96 318.16 518.46 318.16 517.84 C318.16
							 517.38 317.89 517.15 317.51 517.21 L317.51 517.21 ZM322.85 524.25 C322.6 524.25 322.39 524.72 322.39
							 525.31 C322.39 525.89 322.89 526.37 323.51 526.37 C324.13 526.37 324.33 525.89 323.97 525.31 C323.61
							 524.72 323.11 524.25 322.85 524.25 ZM1107.4 525.77 C1107.29 525.79 1107.22 525.89 1107.22 526.05 C1107.22
							 526.72 1107.99 528.04 1108.94 528.99 C1109.88 529.93 1110.92 530.42 1111.26 530.09 C1111.59 529.75 1110.82
							 528.43 1109.54 527.16 C1108.59 526.2 1107.76 525.68 1107.4 525.77 L1107.4 525.77 ZM273.16 526.37 C272.9
							 526.37 272.69 526.84 272.69 527.42 C272.69 528.01 273.2 528.48 273.81 528.48 C274.43 528.48 274.64 528.01
							 274.28 527.42 C273.92 526.84 273.42 526.37 273.16 526.37 ZM278.32 526.59 C278.11 526.56 277.98 526.71
							 277.98 527.04 C277.98 527.64 278.3 528.45 278.69 528.83 C279.07 529.22 279.64 529.29 279.94 528.99 C280.24
							 528.69 279.92 527.88 279.23 527.19 C278.85 526.81 278.54 526.61 278.32 526.59 L278.32 526.59 ZM1124.93
							 529.68 C1124.77 529.71 1124.63 529.78 1124.52 529.89 C1124.31 530.1 1125.12 531.54 1126.34 533.08 C1129.28
							 536.83 1132.37 537.05 1129.94 533.33 C1128.55 531.22 1126.1 529.5 1124.93 529.68 L1124.93 529.68 ZM1115.22
							 532.82 C1113.48 533 1112.53 535.15 1113.83 536.72 C1114.79 537.88 1115.26 537.69 1116.34 535.7 C1117.46
							 533.63 1117.41 533.18 1116.01 532.87 C1115.73 532.81 1115.47 532.79 1115.22 532.82 L1115.22 532.82 ZM1123.97
							 535.89 C1123.42 535.89 1123.17 536.24 1123.4 536.68 C1123.64 537.12 1124.16 538.38 1124.55 539.48 C1124.94
							 540.58 1125.47 541.27 1125.73 541.02 C1126.51 540.23 1125.03 535.89 1123.97 535.89 ZM1103.49 536.62
							 C1102.88 536.74 1101.62 537.97 1099.25 540.62 C1096.66 543.51 1094.54 546.25 1094.54 546.7 C1094.54
							 548.61 1097.14 547.26 1100.48 543.61 C1102.45 541.46 1104.04 538.72 1104.01 537.53 C1103.99 536.87 1103.86
							 536.55 1103.49 536.62 L1103.49 536.62 ZM309.43 536.94 C308.23 536.94 307.55 537.26 307.94 537.64 C308.32
							 538.02 308.1 538.98 307.45 539.76 C306.53 540.86 306.74 541.17 308.39 541.17 C309.63 541.17 310.75 540.29
							 311.07 539.06 C311.49 537.45 311.1 536.94 309.43 536.94 L309.43 536.94 ZM1118.56 539.47 C1118.26 539.49
							 1118 539.82 1117.62 540.49 C1117.14 541.35 1117.06 542.87 1117.45 543.88 C1118.1 545.59 1118.24 545.58
							 1119.55 543.79 C1120.62 542.33 1120.65 541.53 1119.72 540.4 C1119.2 539.77 1118.86 539.46 1118.56 539.47
							 L1118.56 539.47 ZM1130.69 542.06 C1130.58 542.06 1130.51 542.22 1130.51 542.55 C1130.49 543.59 1129.21
							 545.63 1127.65 547.08 C1125.5 549.07 1124.1 549.56 1121.9 549.08 C1119.63 548.58 1118.74 548.94 1117.78
							 550.73 C1116.62 552.9 1116.72 552.98 1119.82 552.3 C1122.92 551.62 1123.19 551.83 1125.21 556.54 C1126.78
							 560.19 1127.77 561.32 1129 560.85 C1129.91 560.5 1131.16 560.21 1131.76 560.21 C1132.41 560.21 1132.31
							 559.55 1131.51 558.58 C1129.49 556.16 1131.86 554.05 1134.31 556.08 C1135.96 557.45 1136.05 557.25 1135.37
							 553.62 C1134.58 549.43 1131.48 542.05 1130.69 542.06 L1130.69 542.06 ZM932.21 543.97 C931.92 544.11
							 931.7 544.67 931.36 545.58 C930.51 547.87 931.18 556.49 932.36 558.41 C933.01 559.47 937.21 558.2 938.23
							 556.63 C939.29 555 938.26 551.94 935.03 547.17 C933.34 544.68 932.69 543.73 932.21 543.97 L932.21 543.97
							 ZM1170.04 551.06 C1169.92 551.08 1169.78 551.14 1169.63 551.23 C1169.05 551.59 1168.58 552.36 1168.58
							 552.94 C1168.58 553.52 1169.05 553.7 1169.63 553.34 C1170.21 552.98 1170.69 552.21 1170.69 551.63 C1170.69
							 551.19 1170.42 550.98 1170.04 551.06 L1170.04 551.06 ZM1093.92 557.04 C1093.23 557.04 1091.42 558.67
							 1089.91 560.66 C1088.39 562.65 1085.53 564.81 1083.54 565.46 C1081.12 566.26 1079.51 567.7 1078.62 569.84
							 C1077.85 571.69 1075.69 573.85 1073.43 575 C1071.3 576.08 1068.99 578.22 1068.3 579.74 C1067.19 582.17
							 1066.76 582.36 1064.74 581.27 C1062.82 580.25 1062.19 580.37 1060.98 582.03 C1060.15 583.17 1059.79
							 585.14 1060.15 586.66 C1061.45 592.18 1063.87 599.93 1064.69 601.19 C1065.73 602.77 1076.18 604.9 1078.81
							 604.06 C1079.85 603.74 1081.99 604.15 1083.59 604.99 C1085.62 606.05 1087 606.19 1088.18 605.45 C1089.88
							 604.39 1096.66 590.43 1096.65 588 C1096.65 587.29 1097.83 585.93 1099.28 584.98 L1101.91 583.25 L1099.79
							 580.29 C1096.3 575.38 1096.14 571.82 1099.23 567.67 L1101.94 564.03 L1098.55 560.53 C1096.69 558.61
							 1094.61 557.04 1093.92 557.04 L1093.92 557.04 ZM1000.63 562.35 C998.48 562.32 1001.63 567.47 1006.73
							 572.38 C1009.16 574.71 1011.87 578.04 1012.76 579.78 C1013.65 581.53 1016.2 585.34 1018.42 588.25 C1020.63
							 591.15 1023.45 595.88 1024.68 598.76 C1026.96 604.08 1033.97 612.65 1037.86 614.86 C1042.04 617.24 1046.56
							 612.3 1045.32 606.69 C1044.95 604.98 1043.25 602.03 1041.54 600.14 C1039.84 598.25 1037.38 595.52 1036.07
							 594.06 C1034.77 592.61 1033.67 590.94 1033.64 590.36 C1033.46 587.27 1031.63 584.8 1027.78 582.43 C1023.79
							 579.97 1022.06 578.4 1013.61 569.57 C1010.54 566.37 1003.4 562.4 1000.62 562.35 L1000.63 562.35 ZM617.9
							 571.15 C617.77 571.18 617.64 571.23 617.49 571.32 C616.91 571.68 616.43 572.18 616.43 572.44 C616.43
							 572.7 616.91 572.91 617.49 572.91 C618.07 572.91 618.55 572.4 618.55 571.79 C618.55 571.33 618.28 571.09
							 617.9 571.15 L617.9 571.15 ZM1144.97 577.14 C1143.04 577.14 1140.65 580.88 1141.6 582.43 C1141.95 582.98
							 1141.75 584.33 1141.17 585.42 C1140.44 586.79 1140.49 587.77 1141.33 588.61 C1144.04 591.32 1145.87
							 588.27 1144.19 583.86 C1143.36 581.67 1143.51 580.65 1144.91 579.1 C1146.53 577.32 1146.53 577.14 1144.97
							 577.14 L1144.97 577.14 ZM1129.81 581.52 C1129.4 581.39 1128.31 581.89 1126.28 582.94 C1123.86 584.2
							 1122.1 584.3 1117.65 583.46 C1112.46 582.47 1111.88 582.58 1109.57 584.88 C1107.88 586.57 1106.83 589.23
							 1106.3 593.16 C1105.87 596.34 1104.71 600.08 1103.74 601.47 C1102.13 603.77 1102.12 604.24 1103.59 606.48
							 C1104.48 607.85 1104.92 609.89 1104.56 611.03 C1104.21 612.16 1104.21 613.56 1104.58 614.15 C1105.38
							 615.44 1106.25 615.47 1108.11 614.29 C1109.23 613.59 1109.28 612.52 1108.39 609.29 C1107.41 605.72 1107.53
							 604.93 1109.33 603.13 C1111.38 601.07 1111.41 601.09 1113.02 604.93 C1113.9 607.05 1115.58 609.3 1116.75
							 609.93 C1118.61 610.92 1118.87 610.73 1118.87 608.33 C1118.87 606.82 1118.15 604.22 1117.29 602.54 C1115.38
							 598.85 1116.08 596.62 1119.78 594.6 C1123.06 592.83 1120.98 592.54 1115.71 594.06 C1112.64 594.94 1111.72
							 594.79 1110.06 593.13 C1105.54 588.61 1114.1 583.59 1120.55 586.97 C1124.16 588.86 1127.59 587.66 1129.31
							 583.9 C1129.98 582.42 1130.24 581.65 1129.83 581.52 L1129.81 581.52 ZM611.57 583.85 C611.44 583.87 611.3
							 583.92 611.16 584.01 C610.58 584.37 610.1 584.88 610.1 585.13 C610.1 585.39 610.58 585.6 611.16 585.6
							 C611.74 585.6 612.22 585.1 612.22 584.48 C612.22 584.02 611.95 583.78 611.57 583.85 L611.57 583.85 ZM1164.01
							 591.99 C1162.73 592.01 1160.61 592.62 1159.29 593.35 C1156.96 594.65 1157.03 594.75 1161.91 597.12 C1166.51
							 599.35 1166.77 599.67 1165.01 600.96 C1162.04 603.13 1163.67 606.76 1167.6 606.76 C1169.32 606.76 1174.41
							 608.61 1178.91 610.87 C1185.46 614.17 1187.46 615.75 1188.91 618.79 C1190.72 622.58 1190.72 622.61 1188.03
							 624.37 C1185.7 625.9 1185.56 626.28 1187.01 627.09 C1187.94 627.61 1189.69 627.73 1190.89 627.34 C1192.08
							 626.97 1193.26 627.25 1194.64 628.24 L1194.64 599.45 C1194.46 599.37 1194.23 599.28 1194.06 599.2 L1187.3
							 596.15 L1182.43 598.94 C1179.74 600.48 1176.79 602.68 1175.87 603.84 C1174.21 605.9 1174.16 605.89 1171.91
							 603.03 C1170.65 601.43 1169.62 599.34 1169.62 598.38 C1169.62 595.52 1166.49 591.95 1164.01 591.99 L1164.01
							 591.99 ZM1144.64 602.52 C1142.54 602.52 1142.84 604.4 1145.03 604.97 C1147.74 605.68 1148.77 605.64
							 1151.06 604.74 C1152.81 604.06 1152.59 603.82 1149.61 603.23 C1147.67 602.84 1145.44 602.52 1144.64
							 602.52 ZM825.86 613.1 C825.28 613.1 824.81 613.58 824.81 614.16 C824.81 614.74 825.28 615.22 825.86
							 615.22 C826.45 615.22 826.92 614.74 826.92 614.16 C826.92 613.58 826.45 613.1 825.86 613.1 ZM1049.12
							 618.83 C1046.12 618.91 1043.75 619.82 1043.75 621.51 C1043.75 623 1054.06 626.02 1056.48 625.26 C1057.68
							 624.87 1060.9 625.3 1063.64 626.19 C1066.37 627.09 1071.7 628.25 1075.48 628.78 C1079.26 629.3 1082.93
							 629.8 1083.62 629.88 C1084.32 629.96 1085.13 629.63 1085.43 629.14 C1085.96 628.28 1079.61 624.74 1077.52
							 624.74 C1076.94 624.74 1075.14 623.76 1073.53 622.57 C1070.94 620.66 1070.02 620.54 1065.62 621.52 C1061.64
							 622.42 1060.15 622.33 1058.27 621.12 C1055.75 619.5 1052.12 618.75 1049.12 618.83 L1049.12 618.83 ZM1109.27
							 628.32 C1107.58 628.4 1107.16 629.22 1108.36 630.67 C1109.25 631.74 1110.74 631.98 1113.44 631.49 C1118.64
							 630.55 1118.66 630.34 1113.64 628.99 C1111.77 628.49 1110.29 628.27 1109.27 628.32 L1109.27 628.32 ZM1096.13
							 628.99 C1094.23 628.97 1092.34 629.28 1091.93 629.93 C1091.6 630.47 1091.93 631.15 1092.66 631.46 C1093.39
							 631.77 1094.94 631.82 1096.11 631.57 C1097.27 631.32 1098.85 631.11 1099.61 631.1 C1100.37 631.1 1100.7
							 630.61 1100.34 630.03 C1099.93 629.36 1098.03 629.01 1096.13 628.99 L1096.13 628.99 ZM1131.72 629.32
							 C1128.43 629.43 1125.23 631.24 1122.98 634.4 C1120.21 638.28 1121.73 638.24 1128.01 634.26 C1130.76
							 632.51 1134.23 631.04 1135.71 630.98 C1138.22 630.87 1138.18 630.79 1135.01 629.78 C1133.93 629.43 1132.82
							 629.28 1131.72 629.32 L1131.72 629.32 ZM1104.04 634.31 C1103.12 634.33 1103.56 634.95 1105.1 635.79
							 C1106.55 636.6 1107.96 637.03 1108.24 636.76 C1108.95 636.04 1105.93 634.28 1104.04 634.31 L1104.04
							 634.31 ZM1164.35 645.32 C1162.76 645.25 1161.48 645.7 1159.34 646.77 C1157.15 647.87 1154.16 649.06
							 1152.71 649.42 C1150 650.09 1144.46 657.04 1145.67 658.25 C1146.04 658.62 1145.83 659.55 1145.19 660.32
							 C1143.88 661.9 1141.13 660.87 1137.25 657.35 C1135.15 655.44 1134.77 655.42 1130.91 656.97 C1128.59
							 657.9 1125.71 660.21 1124.31 662.27 C1122.94 664.28 1120.92 666.21 1119.83 666.55 C1118.58 666.95 1117.94
							 668.02 1118.09 669.49 C1118.33 671.78 1117.72 672.02 1114.63 670.83 C1113.53 670.4 1112.25 671.73 1110.4
							 675.22 C1107.42 680.87 1102 685.03 1097.63 685.03 C1096.02 685.03 1089.43 687.26 1082.99 689.99 C1071.65
							 694.79 1071.24 695.08 1069.56 699.47 C1068.61 701.97 1068.1 705.03 1068.42 706.28 C1068.75 707.53 1068.52
							 712.81 1067.9 718.01 C1067.09 724.89 1067.11 729.13 1067.99 733.6 C1069.05 739.01 1068.96 740.31 1067.16
							 744.49 C1066.04 747.11 1064.37 749.54 1063.45 749.89 C1060.91 750.86 1062.55 753.53 1066.47 754.83 C1069.4
							 755.79 1071.04 755.57 1076.82 753.39 C1080.6 751.97 1086.96 750.46 1090.96 750.04 C1095.05 749.61 1100.36
							 748.21 1103.07 746.85 C1109.05 743.84 1118.19 741.51 1127.65 740.57 C1134.11 739.93 1135.25 740.1 1138.61
							 742.32 C1140.85 743.79 1143.34 746.85 1144.78 749.89 C1146.11 752.69 1147.37 754.5 1147.57 753.91 C1147.78
							 753.33 1150.09 751.41 1152.71 749.66 C1158.78 745.6 1160.57 747.02 1155.97 752.25 C1154.11 754.38 1152.88
							 756.42 1153.25 756.79 C1153.62 757.16 1154.39 756.64 1154.96 755.63 C1156.34 753.16 1158 753.29 1158
							 755.85 C1158 756.99 1158.52 759.07 1159.16 760.48 C1160.03 762.39 1160 763.65 1159.04 765.45 C1157.91
							 767.56 1158.06 768.11 1160.25 769.8 C1164.36 772.98 1169.48 774.03 1172.21 772.24 C1174.35 770.84 1174.76
							 770.93 1176.99 773.3 L1179.43 775.9 L1183.14 773.06 C1185.75 771.07 1188.19 770.21 1191.38 770.15 C1192.77
							 770.12 1193.77 770.03 1194.65 769.76 L1194.65 667.78 C1194.52 667.96 1194.44 668.12 1194.31 668.3 C1192.34
							 671.02 1190.15 673.43 1189.47 673.66 C1188.78 673.89 1184.55 671.5 1180.07 668.35 C1170.37 661.52 1169.32
							 659.18 1173.28 653.2 C1176.35 648.55 1176.07 648.19 1167.81 645.97 C1166.37 645.59 1165.3 645.36 1164.35
							 645.32 L1164.35 645.32 ZM794.85 647.99 L793.17 651.62 C790.98 656.36 781.82 664.45 777.58 665.38 C773.09
							 666.36 771.45 670.43 772.41 678.16 C773.08 683.51 772.86 684.46 769.83 689.39 C766.84 694.24 766.58
							 695.33 767.21 700.32 C767.99 706.56 768.41 707.46 771.4 709.15 C774.03 710.64 773.57 710.64 778.32 709.21
							 C782.77 707.88 784.32 705.19 787.04 694.02 C787.89 690.53 790.82 681.49 793.55 673.93 C798.65 659.81
							 798.95 656.99 796.02 650.55 L794.85 647.99 ZM772.92 649.07 C772.3 649.07 772.09 649.54 772.45 650.12
							 C772.81 650.7 773.31 651.18 773.57 651.18 C773.83 651.18 774.04 650.7 774.04 650.12 C774.04 649.54 773.53
							 649.07 772.92 649.07 ZM829.45 684.33 C829.32 684.36 829.18 684.41 829.04 684.5 C828.46 684.86 827.98
							 685.36 827.98 685.62 C827.98 685.87 828.46 686.09 829.04 686.09 C829.62 686.09 830.1 685.58 830.1 684.97
							 C830.1 684.5 829.83 684.27 829.45 684.34 L829.45 684.33 ZM821.64 688.2 C821.06 688.2 820.58 688.68 820.58
							 689.26 C820.58 689.84 821.06 690.32 821.64 690.32 C822.22 690.32 822.7 689.84 822.7 689.26 C822.7 688.68
							 822.22 688.2 821.64 688.2 ZM1168.62 784.8 C1167.65 784.69 1167.52 785.39 1167.52 787.63 C1167.52 789.45
							 1166.99 791.92 1166.35 793.12 C1165.45 794.8 1165.51 795.51 1166.61 796.21 C1168.54 797.44 1168.34 797.49
							 1173.35 794.55 C1177.56 792.08 1182.25 786.75 1180.49 786.42 C1180.04 786.33 1178.01 786.2 1175.97 786.12
							 C1173.94 786.05 1171.2 785.61 1169.9 785.15 C1169.36 784.96 1168.94 784.83 1168.62 784.8 L1168.62 784.8
							 ZM356.65 831.9 C353.97 831.88 353.08 832.27 353.6 833.11 C353.96 833.69 353.63 834.18 352.87 834.2 C352.09
							 834.22 352.37 834.74 353.51 835.4 C355.1 836.33 355.79 836.21 356.79 834.84 C357.49 833.89 358.46 833.11
							 358.95 833.11 C359.44 833.11 359.27 833.68 358.57 834.38 C357.87 835.08 357.3 836.03 357.3 836.49 C357.3
							 837.95 359.51 837.42 362.19 835.31 C365.07 833.04 364.6 832.36 359.94 832.04 C358.64 831.95 357.55 831.9
							 356.65 831.9 L356.65 831.9 ZM326.97 839.45 C326.17 839.45 325.03 840.72 324.44 842.28 C323.17 845.63
							 324.67 847.6 330.04 849.61 C331.94 850.32 334.87 850.71 336.54 850.47 C338.21 850.23 341.31 849.99 343.42
							 849.94 L347.25 849.86 L344.13 848.73 C342.42 848.1 338.18 845.76 334.72 843.52 C331.25 841.28 327.76
							 839.45 326.97 839.45 L326.97 839.45 Z" class="st3"/>
			</g>
			<g id="shape4-8" v:mID="4" v:groupContext="shape" transform="translate(264.306,-659.925)">
				<title>text424</title>
				<desc>Sociologist</desc>
				<v:textBlock v:margins="rect(0,0,0,0)"/>
				<v:textRect cx="312.79" cy="785.835" width="625.59" height="129.752"/>
				<rect x="0" y="720.959" width="625.581" height="129.752" class="st4"/>
				<text x="18.2" y="818.27" class="st5" v:langID="1033"><v:paragraph v:horizAlign="1"/><v:tabList/>Sociologist</text>			</g>
			<g id="shape5-11" v:mID="5" v:groupContext="shape" transform="translate(214.771,-454.818)">
				<title>path1118</title>
				<path d="M0 787.08 L52.84 742.53 L52.84 766.23 C158.68 763.81 263.47 778.88 344.2 850.71 C286.33 811.29 214.28 781.1
							 52.84 810.31 L52.84 835.43 L0 787.08 Z" class="st6"/>
			</g>
			<g id="shape6-13" v:mID="6" v:groupContext="shape" transform="translate(626.881,-419.388)">
				<title>path1120</title>
				<path d="M0 833.2 L28.06 748.27 L44.89 774.88 C131.68 724.77 199.82 777.05 238.23 848.3 C195.47 788.79 132.49 790.92
							 73.98 823.51 L90.14 850.71 L0 833.2 Z" class="st6"/>
			</g>
			<g id="shape7-15" v:mID="7" v:groupContext="shape" transform="translate(874.604,-398.327)">
				<title>path1122</title>
				<path d="M0 828.36 L25.13 801.61 L26.2 814.95 C65.45 810.59 74.04 788.62 75.34 771.78 C79.02 807.69 65.56 831.31
							 28.15 837.75 L28.96 850.71 L0 828.36 Z" class="st6"/>
			</g>
			<g id="shape8-17" v:mID="8" v:groupContext="shape" transform="translate(948.3,-455.881)">
				<title>path1124</title>
				<path d="M89.67 820.13 L57.19 803.04 L60.53 816.01 C22.01 824.68 6.72 806.72 0 791.22 C8.23 826.37 28.66 844.31 66.12
							 838.2 L69.58 850.71 L89.67 820.13 Z" class="st6"/>
			</g>
			<g id="shape9-19" v:mID="9" v:groupContext="shape" transform="translate(588.879,-333.125)">
				<title>path1126</title>
				<path d="M0 841.55 L12.58 807.07 L18.82 818.92 C53.18 799.47 52.45 775.9 47.01 759.9 C64.52 791.47 61.44 818.48 29.58
							 839.11 L35.42 850.71 L0 841.55 Z" class="st6"/>
			</g>
			<g id="shape10-21" v:mID="10" v:groupContext="shape" transform="translate(366.746,-224.391)">
				<title>path1128</title>
				<path d="M0 827.87 L27.62 792.31 L30.88 808.18 C139.28 810.77 189.41 781.62 225.7 749.58 C178.35 811.03 83.58 831.38
							 36.61 835.27 L39.48 850.71 L0 827.87 Z" class="st6"/>
			</g>
			<g id="shape11-23" v:mID="11" v:groupContext="shape" transform="translate(111.116,-133.766)">
				<title>path2130</title>
				<rect x="0" y="792.89" width="155.527" height="57.8209" class="st7"/>
			</g>
			<g id="shape12-25" v:mID="12" v:groupContext="shape" transform="translate(95.4758,-194.137)">
				<title>path2132</title>
				<rect x="0" y="792.89" width="186.807" height="57.8208" class="st7"/>
			</g>
			<g id="shape13-27" v:mID="13" v:groupContext="shape" transform="translate(104.852,-197.117)">
				<title>text2136</title>
				<desc>Popular</desc>
				<v:textBlock v:margins="rect(0,0,0,0)"/>
				<v:textRect cx="83.1226" cy="823.679" width="166.25" height="54.0634"/>
				<rect x="0" y="796.647" width="166.245" height="54.0634" class="st4"/>
				<text x="5.67" y="837.2" class="st8" v:langID="1033"><v:paragraph v:horizAlign="1"/><v:tabList/>Popular</text>			</g>
			<g id="shape14-30" v:mID="14" v:groupContext="shape" transform="translate(114.757,-137.187)">
				<title>text2140</title>
				<desc>beliefs</desc>
				<v:textBlock v:margins="rect(0,0,0,0)"/>
				<v:textRect cx="73.0899" cy="823.679" width="146.18" height="54.0634"/>
				<rect x="0" y="796.647" width="146.18" height="54.0634" class="st4"/>
				<text x="6.21" y="837.2" class="st8" v:langID="1033"><v:paragraph v:horizAlign="1"/><v:tabList/>beliefs</text>			</g>
			<g id="shape15-33" v:mID="15" v:groupContext="shape" transform="translate(877.037,-243.47)">
				<title>path2142</title>
				<rect x="0" y="792.89" width="186.807" height="57.8208" class="st7"/>
			</g>
			<g id="shape16-35" v:mID="16" v:groupContext="shape" transform="translate(884.159,-246.638)">
				<title>text2146</title>
				<desc>Growing</desc>
				<v:textBlock v:margins="rect(0,0,0,0)"/>
				<v:textRect cx="84.969" cy="823.679" width="169.94" height="54.0634"/>
				<rect x="0" y="796.647" width="169.938" height="54.0634" class="st4"/>
				<text x="1.69" y="837.2" class="st8" v:langID="1033"><v:paragraph v:horizAlign="1"/><v:tabList/>Growing</text>			</g>
			<g id="shape17-38" v:mID="17" v:groupContext="shape" transform="translate(872.284,-183.775)">
				<title>path2148</title>
				<path d="M0 792.89 L196.29 792.89 L196.29 850.71 L0 850.71 L0 792.89 Z" class="st7"/>
			</g>
			<g id="shape18-40" v:mID="18" v:groupContext="shape" transform="translate(876.983,-184.5)">
				<title>text2152</title>
				<desc>locations</desc>
				<v:textBlock v:margins="rect(0,0,0,0)"/>
				<v:textRect cx="93.0567" cy="823.679" width="186.12" height="54.0634"/>
				<rect x="0" y="796.647" width="186.113" height="54.0634" class="st4"/>
				<text x="0.98" y="837.2" class="st8" v:langID="1033"><v:paragraph v:horizAlign="1"/><v:tabList/>locations</text>			</g>
			<g id="shape19-43" v:mID="19" v:groupContext="shape" transform="translate(836.152,-80.8294)">
				<title>path2154</title>
				<rect x="0" y="792.89" width="268.583" height="57.8208" class="st7"/>
			</g>
			<g id="shape20-45" v:mID="20" v:groupContext="shape" transform="translate(847.097,-81)">
				<title>text2158</title>
				<desc>Medical use</desc>
				<v:textBlock v:margins="rect(0,0,0,0)"/>
				<v:textRect cx="125.757" cy="823.679" width="251.52" height="54.0634"/>
				<rect x="0" y="796.647" width="251.514" height="54.0634" class="st4"/>
				<text x="4.93" y="837.2" class="st8" v:langID="1033"><v:paragraph v:horizAlign="1"/><v:tabList/>Medical use</text>			</g>
		</g>
	</g>
</svg>
