<svg xmlns="http://www.w3.org/2000/svg" version="1.1" xmlns:xlink="http://www.w3.org/1999/xlink" xmlns:svgjs="http://svgjs.com/svgjs" preserveAspectRatio="none" viewBox="0 0 1440 560">
<g mask="url(&quot;#SvgjsMask1007&quot;)" fill="none">
<rect width="1440" height="560" x="0" y="0" fill="url(#SvgjsLinearGradient1008)"></rect>
<path d="M363.8119315406508 265.6714786166631L266.26509563453175 215.85172705155787 269.6066780779453 311.5421282668916z" fill="rgba(28, 83, 142, 0.4)" class="triangle-float2"></path><path d="M1288.2751330848653 119.58206532679009L1262.147032793248 284.5483981185711 1427.1133655850288 310.6764984101885 1453.2414658766463 145.71016561840753z" fill="rgba(28, 83, 142, 0.4)" class="triangle-float3"></path><path d="M749.6688573429113 303.60303328699473L656.9956975057684 344.86378240467377 698.2564466234473 437.53694224181675 790.9296064605903 396.2761931241377z" fill="rgba(28, 83, 142, 0.4)" class="triangle-float2"></path><path d="M222.79121428561083 408.9644780433481L68.44253171212483 408.9644780433481 68.44253171212483 563.3131606168341 222.79121428561083 563.3131606168341z" fill="rgba(28, 83, 142, 0.4)" class="triangle-float1"></path><path d="M555.203,405.143C583.155,405.952,612.385,398.285,627.276,374.616C643.022,349.588,642.012,317.012,626.477,291.853C611.657,267.853,583.395,256.968,555.203,257.893C528.674,258.763,504.878,273.3,491.592,296.278C478.29,319.283,476.604,347.698,490.011,370.642C503.305,393.394,528.863,404.381,555.203,405.143" fill="rgba(28, 83, 142, 0.4)" class="triangle-float2"></path><path d="M991.2501700323921 342.4205125686541L1071.0158511023346 290.6200736052625 953.432352122276 196.8717714820446z" fill="rgba(28, 83, 142, 0.4)" class="triangle-float3"></path></g>
<defs>
<mask id="SvgjsMask1007"><rect width="1440" height="560" fill="#ffffff"></rect></mask>
<linearGradient x1="15.28%" y1="-39.29%" x2="84.72%" y2="139.29%" gradientUnits="userSpaceOnUse" id="SvgjsLinearGradient1008">
<stop stop-color="#0e2a47" offset="0"></stop><stop stop-color="#00459e" offset="1"></stop>
</linearGradient>
<style>
	@keyframes float1 {
		0%{transform: translate(0, 0)}
		50%{transform: translate(-10px, 0)}
		100%{transform: translate(0, 0)}
	}

	.triangle-float1 {
		animation: float1 5s infinite;
	}

	@keyframes float2 {
		0%{transform: translate(0, 0)}
		50%{transform: translate(-5px, -5px)}
		100%{transform: translate(0, 0)}
	}

	.triangle-float2 {
		animation: float2 4s infinite;
	}

	@keyframes float3 {
		0%{transform: translate(0, 0)}
		50%{transform: translate(0, -10px)}
		100%{transform: translate(0, 0)}
	}

	.triangle-float3 {
		animation: float3 6s infinite;
	}
</style>
</defs>
</svg>