<svg xmlns="http://www.w3.org/2000/svg" viewBox="0 0 1198 851" color-interpolation-filters="sRGB" fill="none" fill-rule="evenodd" font-size="12" overflow="visible" stroke-linecap="square" stroke-miterlimit="3"><style>.st1{fill:#f4f144;stroke:none;stroke-linecap:butt;stroke-width:2.25279}.st10,.st11,.st13,.st3,.st4,.st5,.st6,.st7,.st8,.st9{fill:#a9c937;stroke:none;stroke-linecap:butt;stroke-width:2.25279}.st10,.st11,.st13,.st4,.st5,.st6,.st7,.st8,.st9{fill:#1b88cd}.st10,.st11,.st13,.st5,.st6,.st7,.st8,.st9{fill:#efd520}.st10,.st11,.st13,.st6,.st7,.st8,.st9{fill:#1275ac}.st10,.st11,.st13,.st7,.st8,.st9{fill:#a71520}.st10,.st11,.st13,.st8,.st9{fill:#c52433}.st10,.st11,.st13,.st9{fill:#3ba7e5}.st10,.st11,.st13{fill:#c41622}.st11,.st13{fill:none;stroke-width:.75}.st13{fill:#fff;stroke-width:2.25279}.st14{fill:#000;font-family:Roboto;font-size:3.75465em}</style><g id="group253-1" transform="translate(2.253 -2.253)"><g id="shape189-2"><path class="st1" d="M0 4.507h1193.55v846.26H0z"/></g><g id="shape190-4"><path d="M0 4.51l1193.55 846.26H0V4.51z" fill="#e7dd26" stroke-linecap="butt" stroke-width="2.253"/></g><g id="shape191-6" transform="translate(588.884 -566.1)"><path d="M15.81 828.51h118c6.49 0 11.71 4.96 11.71 11.13 0 6.16-5.22 11.13-11.71 11.13H0c0-4.58.56-11.13 7.56-11.13 6.86 0 8.25-6.45 8.25-11.13z" class="st3"/></g><g id="shape192-8" transform="translate(454.721 -604.648)"><path d="M134.16 850.77H11.71C5.22 850.77 0 845.8 0 839.64c0-6.17 5.22-11.13 11.71-11.13h138.26c0 4.57-.56 11.13-7.56 11.13-6.87 0-8.25 6.45-8.25 11.13z" class="st4"/></g><g id="shape193-10" transform="translate(503.665 -643.194)"><path d="M85.21 850.77h-73.5C5.22 850.77 0 845.8 0 839.64c0-6.17 5.22-11.13 11.71-11.13h89.31c0 4.57-.56 11.13-7.56 11.13-6.86 0-8.25 6.45-8.25 11.13z" class="st5"/></g><g id="shape194-12" transform="translate(588.884 -527.555)"><path d="M15.81 828.51h73.51c6.48 0 11.7 4.96 11.7 11.13 0 6.16-5.22 11.13-11.7 11.13H0c0-4.58.56-11.13 7.56-11.13 6.86 0 8.25-6.45 8.25-11.13z" class="st5"/></g><g id="shape195-14" transform="translate(588.884 -373.78)"><path d="M15.81 828.51h118c6.49 0 11.71 4.96 11.71 11.13 0 6.16-5.22 11.13-11.71 11.13H0c0-4.58.56-11.13 7.56-11.13 6.86 0 8.25-6.45 8.25-11.13z" class="st3"/></g><g id="shape196-16" transform="translate(454.721 -412.328)"><path d="M134.16 850.77H11.71C5.22 850.77 0 845.8 0 839.64c0-6.17 5.22-11.13 11.71-11.13h138.26c0 4.57-.56 11.13-7.56 11.13-6.87 0-8.25 6.45-8.25 11.13z" class="st4"/></g><g id="shape197-18" transform="translate(503.665 -450.873)"><path d="M85.21 850.77h-73.5C5.22 850.77 0 845.8 0 839.64c0-6.17 5.22-11.13 11.71-11.13h89.31c0 4.57-.56 11.13-7.56 11.13-6.86 0-8.25 6.45-8.25 11.13z" class="st5"/></g><g id="shape198-20" transform="translate(588.884 -335.234)"><path d="M15.81 828.51h73.51c6.48 0 11.7 4.96 11.7 11.13 0 6.16-5.22 11.13-11.7 11.13H0c0-4.58.56-11.13 7.56-11.13 6.86 0 8.25-6.45 8.25-11.13z" class="st5"/></g><g id="shape199-22" transform="translate(588.884 -181.459)"><path d="M15.81 828.51h118c6.49 0 11.71 4.96 11.71 11.13 0 6.16-5.22 11.13-11.71 11.13H0c0-4.58.56-11.13 7.56-11.13 6.86 0 8.25-6.45 8.25-11.13z" class="st3"/></g><g id="shape200-24" transform="translate(454.721 -220.007)"><path d="M134.16 850.77H11.71C5.22 850.77 0 845.8 0 839.64c0-6.17 5.22-11.13 11.71-11.13h138.26c0 4.57-.56 11.13-7.56 11.13-6.87 0-8.25 6.45-8.25 11.13z" class="st4"/></g><g id="shape201-26" transform="translate(503.665 -258.553)"><path d="M85.21 850.77h-73.5C5.22 850.77 0 845.8 0 839.64c0-6.17 5.22-11.13 11.71-11.13h89.31c0 4.57-.56 11.13-7.56 11.13-6.86 0-8.25 6.45-8.25 11.13z" class="st5"/></g><g id="shape202-28" transform="translate(588.884 -142.914)"><path d="M15.81 828.51h73.51c6.48 0 11.7 4.96 11.7 11.13 0 6.16-5.22 11.13-11.7 11.13H0c0-4.58.56-11.13 7.56-11.13 6.86 0 8.25-6.45 8.25-11.13z" class="st5"/></g><g id="shape204-30" transform="translate(454.721 -27.687)"><path d="M134.16 850.77H11.71C5.22 850.77 0 845.8 0 839.64c0-6.17 5.22-11.13 11.71-11.13h138.26c0 4.57-.56 11.13-7.56 11.13-6.87 0-8.25 6.45-8.25 11.13z" class="st4"/></g><g id="shape205-32" transform="translate(503.665 -66.232)"><path d="M85.21 850.77h-73.5C5.22 850.77 0 845.8 0 839.64c0-6.17 5.22-11.13 11.71-11.13h89.31c0 4.57-.56 11.13-7.56 11.13-6.86 0-8.25 6.45-8.25 11.13z" class="st5"/></g><g id="shape206-34" transform="translate(588.884 -757.632)"><path d="M15.81 828.51h118c6.49 0 11.71 4.96 11.71 11.13 0 6.16-5.22 11.13-11.71 11.13H0c0-4.58.56-11.13 7.56-11.13 6.86 0 8.25-6.45 8.25-11.13z" class="st3"/></g><g id="shape207-36" transform="translate(454.721 -796.181)"><path d="M134.16 850.77H11.71C5.22 850.77 0 845.8 0 839.64c0-6.17 5.22-11.13 11.71-11.13h138.26c0 4.57-.56 11.13-7.56 11.13-6.87 0-8.25 6.45-8.25 11.13z" class="st4"/></g><g id="shape208-38" transform="translate(459.171 -757.635)"><path d="M129.71 850.77h-118C5.22 850.77 0 845.8 0 839.64c0-6.17 5.22-11.13 11.71-11.13h133.81c0 4.57-.56 11.13-7.56 11.13-6.87 0-8.25 6.45-8.25 11.13z" class="st5"/></g><g id="shape209-40" transform="translate(503.665 -719.09)"><path d="M85.21 850.77h-73.5C5.22 850.77 0 845.8 0 839.64c0-6.17 5.22-11.13 11.71-11.13h89.31c0 4.57-.56 11.13-7.56 11.13-6.86 0-8.25 6.45-8.25 11.13z" class="st3"/></g><g id="shape210-42" transform="translate(503.665 -834.726)"><path d="M85.21 850.77h-73.5C5.22 850.77 0 845.8 0 839.64c0 0 119.24-.92 93.46 0 0 0-8.25 6.45-8.25 11.13z" class="st5"/></g><g id="shape211-44" transform="translate(588.884 -719.087)"><path d="M15.81 828.51h73.51c6.48 0 11.7 4.96 11.7 11.13 0 6.16-5.22 11.13-11.7 11.13H0c0-4.58.56-11.13 7.56-11.13 6.86 0 8.25-6.45 8.25-11.13z" class="st5"/></g><g id="shape212-46" transform="translate(439.019 -26.495)"><path d="M309.2 826.15c0-55.79-205.01-96.49-286.67-168.55C8.64 667.13 0 680.79 8.23 695.04c36.57 62.35 176.91 71.09 283.42 155.73 10.58-8.31 17.54-18.56 17.54-24.62h.01z" class="st6"/></g><g id="shape213-48" transform="translate(439.672 -396.38)"><path d="M309.2 826.15c0-55.79-205.01-96.49-286.67-168.55C8.64 667.13 0 680.79 8.23 695.04c36.57 62.35 176.91 71.09 283.42 155.73 10.58-8.31 17.54-18.56 17.54-24.62h.01z" class="st6"/></g><g id="shape214-50" transform="translate(439.019 -207.259)"><path d="M309.2 826.15c0-55.79-205.01-96.49-286.67-168.55C8.64 667.13 0 680.79 8.23 695.04c36.57 62.35 176.91 71.09 283.42 155.73 10.58-8.31 17.54-18.56 17.54-24.62h.01z" class="st7"/></g><g id="shape215-52" transform="translate(442.515 -4.758)"><path d="M59.14 850.59c-15.29-8.95-29.07-18.39-40.45-28.43C7.7 829.69 0 839.82 1.33 850.77l57.81-.18z" class="st7"/></g><g id="shape216-54" transform="translate(443.597 -7.344)"><path d="M0 850.77v-55.03c66.83-83.36 250.31-98.07 305.28-177.85v52.77C253.22 751.16 55.19 770.54 0 850.77z" class="st8"/></g><g id="shape217-56" transform="translate(440.123 -583.429)"><path d="M309.2 826.15c0-55.79-205.01-96.49-286.67-168.55C8.64 667.13 0 680.79 8.23 695.04c36.57 62.35 176.91 71.09 283.42 155.73 10.58-8.31 17.55-18.56 17.55-24.62z" class="st7"/></g><g id="shape218-58" transform="translate(607.271 -770.952)"><path d="M142.41 826.15c0-15.84-16.52-30.46-42.04-44.93L0 781.55c41.62 17.07 85.55 37.97 124.87 69.22 10.58-8.31 17.54-18.56 17.54-24.62z" class="st6"/></g><g id="shape219-60" transform="translate(444.701 -564.279)"><path d="M0 850.77v-55.03c66.83-83.36 250.31-98.07 305.28-177.85v52.77C253.22 751.16 55.19 770.54 0 850.77z" class="st9"/></g><g id="shape220-62" transform="translate(444.227 -377.252)"><path d="M0 850.77v-55.03c66.83-83.36 250.31-98.07 305.28-177.85v52.77C253.22 751.16 55.19 770.54 0 850.77z" class="st8"/></g><g id="shape221-64" transform="translate(443.597 -188.13)"><path d="M0 850.77v-55.03c66.83-83.36 250.31-98.07 305.28-177.85v52.77C253.22 751.16 55.19 770.54 0 850.77z" class="st9"/></g><g id="shape222-66" transform="translate(688.114 -4.843)"><path d="M0 850.74c25.44-13.74 46.75-29.43 60.28-49.07v49.1L0 850.74z" class="st9"/></g><g id="shape223-68" transform="translate(445.059 -751.801)"><path d="M0 850.77v-55.03c10.04-12.52 22.7-23.49 37.16-33.36l112.93-.09C88.41 786.74 27.05 811.44 0 850.77z" class="st8"/></g><g id="shape224-70" transform="translate(459.171 -566.103)"><path d="M129.71 850.77h-118C5.22 850.77 0 845.8 0 839.64c0-6.17 5.22-11.13 11.71-11.13h133.81c0 4.57-.56 11.13-7.56 11.13-6.87 0-8.25 6.45-8.25 11.13z" class="st5"/></g><g id="shape225-72" transform="translate(503.665 -527.558)"><path d="M85.21 850.77h-73.5C5.22 850.77 0 845.8 0 839.64c0-6.17 5.22-11.13 11.71-11.13h89.31c0 4.57-.56 11.13-7.56 11.13-6.86 0-8.25 6.45-8.25 11.13z" class="st3"/></g><g id="shape226-74" transform="translate(459.171 -373.783)"><path d="M129.71 850.77h-118C5.22 850.77 0 845.8 0 839.64c0-6.17 5.22-11.13 11.71-11.13h133.81c0 4.57-.56 11.13-7.56 11.13-6.87 0-8.25 6.45-8.25 11.13z" class="st5"/></g><g id="shape227-76" transform="translate(503.665 -335.237)"><path d="M85.21 850.77h-73.5C5.22 850.77 0 845.8 0 839.64c0-6.17 5.22-11.13 11.71-11.13h89.31c0 4.57-.56 11.13-7.56 11.13-6.86 0-8.25 6.45-8.25 11.13z" class="st3"/></g><g id="shape228-78" transform="translate(459.171 -181.462)"><path d="M129.71 850.77h-118C5.22 850.77 0 845.8 0 839.64c0-6.17 5.22-11.13 11.71-11.13h133.81c0 4.57-.56 11.13-7.56 11.13-6.87 0-8.25 6.45-8.25 11.13z" class="st5"/></g><g id="shape229-80" transform="translate(503.665 -142.917)"><path d="M85.21 850.77h-73.5C5.22 850.77 0 845.8 0 839.64c0-6.17 5.22-11.13 11.71-11.13h89.31c0 4.57-.56 11.13-7.56 11.13-6.86 0-8.25 6.45-8.25 11.13z" class="st3"/></g><g id="shape231-82" transform="translate(588.884 -66.229)"><path d="M15.81 828.51h73.51c6.48 0 11.7 4.96 11.7 11.13 0 6.16-5.22 11.13-11.7 11.13H0c0-4.58.56-11.13 7.56-11.13 6.86 0 8.25-6.45 8.25-11.13z" class="st4"/></g><g id="shape232-84" transform="translate(588.884 -258.549)"><path d="M15.81 828.51h73.51c6.48 0 11.7 4.96 11.7 11.13 0 6.16-5.22 11.13-11.7 11.13H0c0-4.58.56-11.13 7.56-11.13 6.86 0 8.25-6.45 8.25-11.13z" class="st4"/></g><g id="shape233-86" transform="translate(588.884 -450.87)"><path d="M15.81 828.51h73.51c6.48 0 11.7 4.96 11.7 11.13 0 6.16-5.22 11.13-11.7 11.13H0c0-4.58.56-11.13 7.56-11.13 6.86 0 8.25-6.45 8.25-11.13z" class="st4"/></g><g id="shape234-88" transform="translate(588.884 -643.191)"><path d="M15.81 828.51h73.51c6.48 0 11.7 4.96 11.7 11.13 0 6.16-5.22 11.13-11.7 11.13H0c0-4.58.56-11.13 7.56-11.13 6.86 0 8.25-6.45 8.25-11.13z" class="st4"/></g><g id="shape235-90" transform="translate(588.87 -834.724)"><path d="M101.02 839.64c0 6.16-5.22 11.13-11.7 11.13H0c0-4.58.56-11.13 7.56-11.13h93.46z" class="st4"/></g><g id="shape236-92" transform="translate(588.884 -796.177)"><path d="M15.81 828.51h122.45c6.49 0 11.71 4.96 11.71 11.13 0 6.16-5.22 11.13-11.71 11.13H0c0-4.58.56-11.13 7.56-11.13 6.86 0 8.25-6.45 8.25-11.13z" class="st10"/></g><g id="shape237-94" transform="translate(588.884 -604.645)"><path d="M15.81 828.51h122.45c6.49 0 11.71 4.96 11.71 11.13 0 6.16-5.22 11.13-11.71 11.13H0c0-4.58.56-11.13 7.56-11.13 6.86 0 8.25-6.45 8.25-11.13z" class="st10"/></g><g id="shape238-96" transform="translate(588.884 -412.325)"><path d="M15.81 828.51h122.45c6.49 0 11.71 4.96 11.71 11.13 0 6.16-5.22 11.13-11.71 11.13H0c0-4.58.56-11.13 7.56-11.13 6.86 0 8.25-6.45 8.25-11.13z" class="st10"/></g><g id="shape239-98" transform="translate(588.884 -220.004)"><path d="M15.81 828.51h122.45c6.49 0 11.71 4.96 11.71 11.13 0 6.16-5.22 11.13-11.71 11.13H0c0-4.58.56-11.13 7.56-11.13 6.86 0 8.25-6.45 8.25-11.13z" class="st10"/></g><g id="shape240-100" transform="translate(588.884 -27.684)"><path d="M15.81 828.51h122.45c6.49 0 11.71 4.96 11.71 11.13 0 6.16-5.22 11.13-11.71 11.13H0c0-4.58.56-11.13 7.56-11.13 6.86 0 8.25-6.45 8.25-11.13z" class="st10"/></g><g id="shape241-102" transform="translate(328.502 -661.732)"><path class="st1" d="M0 704.784h536.547v145.983H0z"/></g><g id="shape242-104" transform="translate(312.379 -661.337)"><path class="st11" d="M0 721.007h533.621v129.761H0z"/><text x="28.18" y="818.29" fill="#000" font-family="Merriweather" font-size="9em">Biologist</text></g><g id="shape243-107" transform="translate(104.234 -303.996)"><path class="st13" d="M0 792.943h237.94v57.825H0z"/></g><g id="shape244-109" transform="translate(129.828 -410.17)"><path class="st13" d="M0 792.943h186.745v57.825H0z"/></g><g id="shape245-111" transform="translate(860.7 -439.546)"><path class="st13" d="M0 792.943h203.81v57.825H0z"/></g><g id="shape246-113" transform="translate(817.087 -271.758)"><path class="st13" d="M0 792.943h291.015v57.825H0z"/></g><g id="shape247-115" transform="translate(132.188 -410.269)"><path class="st11" d="M0 796.701h182.812v54.067H0z"/><text x="7.17" y="837.25" class="st14">Genome</text></g><g id="shape248-118" transform="translate(112.434 -306.769)"><path class="st11" d="M0 796.701h220.566v54.067H0z"/><text x="3.86" y="837.25" class="st14">Phenotype</text></g><g id="shape249-121" transform="translate(872.728 -443.736)"><path class="st11" d="M0 796.701h180.272v54.067H0z"/><text x=".15" y="837.25" class="st14">Anatomy</text></g><g id="shape250-124" transform="translate(824.815 -270.956)"><path class="st11" d="M0 796.701h270.935v54.067H0z"/><text x="10.35" y="837.25" class="st14">environment</text></g><g id="shape251-127" transform="translate(858.808 -335.287)"><path class="st13" d="M0 792.943h207.601v57.825H0z"/></g><g id="shape252-129" transform="translate(872.467 -338.934)"><path class="st11" d="M0 796.701h182.783v54.067H0z"/><text x="8.11" y="837.25" class="st14">Growing</text></g></g></svg>