<svg xmlns="http://www.w3.org/2000/svg" viewBox="0 0 1203 851" color-interpolation-filters="sRGB" fill="none" fill-rule="evenodd" font-size="12" overflow="visible" stroke-linecap="square" stroke-miterlimit="3"><style>.st3,.st8,.st9{fill:none;stroke:none;stroke-linecap:butt;stroke-width:.75}.st8,.st9{fill:#cb5b2d;stroke-width:2.25279}.st9{fill:#fff}.st10{fill:#74b341}.st11{stroke:none;stroke-linecap:butt;stroke-width:2.25279}.st12{fill:#000;font-family:Roboto;font-size:3.75465em}</style><g id="group31-1" transform="translate(2.253 -2.253)"><g id="shape1-2"><path fill="#867dbc" stroke-linecap="butt" stroke-width="2.253" d="M0 4.506h1193.55v846.26H0z"/></g><g id="shape2-4" transform="translate(4.5)"><path d="M0 4.51l1193.55 846.26H0V4.51z" fill="#7f77b2" stroke-linecap="butt" stroke-width="2.253"/></g><g id="shape3-6" transform="translate(364.5 -648.558)"><path class="st3" d="M0 721.005h432.585v129.761H0z"/><text x="94.32" y="818.33" fill="#000" font-family="Merriweather" font-size="9.011em">Chef</text></g><g id="shape4-9" transform="translate(277.003 -110.914)"><path d="M3.98 655.86C3.98 699.9 0 780.3 56.76 811.51c39.36 22.72 50.87 39.26 245.84 38.65 192.38 0 224.15-19.03 272.93-67.82 48.08-48.08 46.9-83.15 46.9-126.48H3.98z" fill="#763517" stroke-linecap="butt" stroke-width="2.253"/></g><g id="shape5-11" transform="translate(265.963 -241.289)"><path d="M113.22 518.61h410.57c42.69 0 68.69 37.44 77.06 81.94l30.11 160.07c8.37 44.5-3.37 81.06-64.16 81.94l-456.82 6.61c-109.98 1.6-95.61-62.86-92.6-88.55l18.79-160.07c6.57-55.89 34.37-81.94 77.06-81.94h-.01z" fill="#dba171" stroke-linecap="butt" stroke-width="2.253"/></g><g id="shape6-13" transform="translate(294.231 -269.03)"><path d="M101.67 565.95h378.15c39.32 0 63.26 32.21 70.97 70.49l27.74 137.71c7.71 38.28 13.4 70.06-25.92 70.49l-513.29 5.69C0 850.77 8.53 812.9 13.4 774.15l17.31-137.71c6.04-48.08 31.65-70.49 70.97-70.49h-.01z" fill="#87331b" stroke-linecap="butt" stroke-width="2.253"/></g><g id="shape7-15" transform="translate(383.475 -324.762)"><path d="M11.28 657.05h380.38c6.25 0 11.27 4.59 11.27 10.28v173.15c0 5.7-5.02 10.29-11.27 10.29H11.28C5.03 850.77 0 846.18 0 840.48V667.33c0-5.69 5.03-10.28 11.28-10.28z" class="st8"/></g><g id="shape8-17" transform="translate(309.308 -271.338)"><path d="M242.76 566a30.34 9.111-95.83 00-6.43 24.43 30.11 9.18-142.19 00-2.19-.42 30.318 9.118-105.49 00-12.86-15.15 30.318 9.118-105.49 00-.65 31.71 30.318 9.118-105.49 004.11 11.77 30.2 9.153-51.91 00-.13.45 29.996 9.216-165.91 00-.46-.12 29.996 9.216-165.91 00-3.67-.84 30.133 9.174-138.86 00-.64-.88 30.318 9.118-105.49 00-3.07-17.26 30.318 9.118-105.49 00-16.88-26.71 30.318 9.118-105.49 00-2.66 22.95 30.133 9.174-138.86 00-10.89-5.5 30.318 9.118-105.49 00-13.43-16.51 30.318 9.118-105.49 00-3.78 13.16 30.318 9.118-105.49 001.1 13.44 30.318 9.118-105.49 00-1.09 10.48 29.996 9.216-165.91 00-15.03-7.18 30.2 9.153-51.91 006.92-14.58 30.131 9.174-40.97 006.49-16.2 30.131 9.174-40.97 00-28.7 12.72 30.131 9.174-40.97 00-3.08 2.81 30.34 9.111-95.83 00-10.27-17.76 30.34 9.111-95.83 00-6.12 29.48 29.996 9.216-165.91 00-1.9.88 30.318 9.118-105.49 00-14.31-18.77 30.318 9.118-105.49 00-3.12 4.42l-.08-.19a30.2 9.153-51.91 00-.17-9.38 30.2 9.153-51.91 00-5.01-.1 30.318 9.118-105.49 00-7.43-5.11 30.318 9.118-105.49 00-2.09 1.81 30.318 9.118-105.49 00-.7.08 30.318 9.118-105.49 00-3.14 4.51 30.11 9.18-142.19 00-17.21-3.16 30.11 9.18-142.19 009.11 17.66 30.318 9.118-105.49 000 3.21 30.2 9.153-51.91 00-8.83 14 30.318 9.118-105.49 00-5.98-3.27 30.318 9.118-105.49 00-3.42 17.86 30.318 9.118-105.49 00-1.23.04 30.318 9.118-105.49 00-3.61 7.18 30.11 9.18-142.19 00-23.25-6.76 30.11 9.18-142.19 0010.67 19.19 30.2 9.153-51.91 00-5.28 6.15 30.2 9.153-51.91 00-.5.66 30.34 9.111-95.83 00-4.01-2.32 30.34 9.111-95.83 00-6.46 19.8 30.2 9.153-51.91 00-.56 11.35 30.2 9.153-51.91 00.72.4 30.2 9.153-51.91 00-11.2 29.07 30.2 9.153-51.91 0016.6-7.92 30.34 9.111-95.83 001.37 2.82 30.2 9.153-51.91 00-5.82 6.74 30.2 9.153-51.91 00-11.54 29.49 30.2 9.153-51.91 0023.69-15.42 30.11 9.18-142.19 002.65 2.63 30.131 9.174-40.97 00-3.61 2.96 30.131 9.174-40.97 00-16.16 19.22A30.11 9.18-142.19 000 746.69a30.11 9.18-142.19 0018.28 25.75 30.11 9.18-142.19 009.23 6.32 30.318 9.118-105.49 002.42 27.47 30.318 9.118-105.49 0016.88 26.71 30.318 9.118-105.49 00.66-31.71 30.318 9.118-105.49 00-6.43-16.63 30.11 9.18-142.19 006.58-1.05 30.11 9.18-142.19 00-18.28-25.76 30.11 9.18-142.19 00-1.51-1.15 30.131 9.174-40.97 0017.72-11.82 30.131 9.174-40.97 005.53-5.2 30.318 9.118-105.49 00.39 3.8 30.318 9.118-105.49 00-2.2 14.58 30.318 9.118-105.49 001.12 30.33 30.318 9.118-105.49 001.39 4.58 30.34 9.111-95.83 00-.2 19.99 30.34 9.111-95.83 0012.15 29.23 30.34 9.111-95.83 006.09-29.81 30.318 9.118-105.49 001.1-12.78 30.318 9.118-105.49 00.84-1.51 30.11 9.18-142.19 0014.29 15.19 30.2 9.153-51.91 00-2.76 3.34 30.2 9.153-51.91 00-11.54 29.49 30.2 9.153-51.91 0020.5-11.83 30.34 9.111-95.83 007.95 9.84 30.34 9.111-95.83 006.41-18.32 30.11 9.18-142.19 0010.46.5 30.318 9.118-105.49 003.92 4.49 30.345 9.11-90.37 008.69 20.04 30.345 9.11-90.37 003.69-2.69 30.2 9.153-51.91 0023.34-15.42 30.167 9.164-133.6 0026.54 14.55 30.167 9.164-133.6 00-13.01-26.86 30.131 9.174-40.97 002.05-1.93 29.996 9.216-165.91 003.44.62 30.133 9.174-138.86 006.6 6.33 30.133 9.174-138.86 0024.65 13.96 30.131 9.174-40.97 00.58 3.9 30.131 9.174-40.97 0027.42-11.65 30.11 9.18-142.19 0012.65.94 30.11 9.18-142.19 00-2.9-10.35 30.131 9.174-40.97 001.48-1.7 30.2 9.153-51.91 001.54.15 30.133 9.174-138.86 0011.54 12.08 30.133 9.174-138.86 0028.67 12.8 30.133 9.174-138.86 00-.76-7.65 30.131 9.174-40.97 0012.16-6.42 30.133 9.174-138.86 008.98.08 30.133 9.174-138.86 00-.33-6.76 30.131 9.174-40.97 002.68-2.43 30.131 9.174-40.97 00-.81 7.73 30.131 9.174-40.97 0013.78-2.26 30.167 9.164-133.6 0019.59 8.12 30.167 9.164-133.6 00-3.79-15 30.2 9.153-51.91 007.78-4.45 30.11 9.18-142.19 004.8 4.9 30.34 9.111-95.83 0011.24 22.66 30.34 9.111-95.83 005.6-10.13 30.11 9.18-142.19 0019.22 4.28 30.11 9.18-142.19 00.03-4.98 30.2 9.153-51.91 008.27-7.35 30.131 9.174-40.97 00-.93 7.98 30.131 9.174-40.97 009.44-.25 30.11 9.18-142.19 001.29 1.03 30.11 9.18-142.19 0029.34 11.1 30.11 9.18-142.19 00-14.11-22.33 30.131 9.174-40.97 00.39-.31 30.133 9.174-138.86 007.19 6.97 30.133 9.174-138.86 0028.66 12.81 30.133 9.174-138.86 00-4.14-13.22 30.167 9.164-133.6 00.43-.3 30.167 9.164-133.6 00.96-3.79 30.11 9.18-142.19 0020.62 5.11 30.11 9.18-142.19 00-14.01-22.26 30.131 9.174-40.97 001.63-.4 30.167 9.164-133.6 0019.63 8.15 30.167 9.164-133.6 00-4.63-16.27 30.131 9.174-40.97 002.81-2.13A30.11 9.18-142.19 00495.51 812a30.11 9.18-142.19 00.8.61 30.2 9.153-51.91 00-.92 1.13 30.2 9.153-51.91 00-11.53 29.49 30.2 9.153-51.91 0025.79-18.01 30.2 9.153-51.91 002.36-3.14 30.11 9.18-142.19 0012.84 1.02 30.11 9.18-142.19 00-5.33-13.49 30.2 9.153-51.91 002.66-7.56 30.34 9.111-95.83 00.12 1.43 30.34 9.111-95.83 0012.15 29.23 30.34 9.111-95.83 005.98-31.13 30.34 9.111-95.83 00-2.68-14.64 30.11 9.18-142.19 0011.29.38 30.11 9.18-142.19 00-.66-6.6 30.11 9.18-142.19 007.17-.94 30.11 9.18-142.19 00-5.01-13.1 30.11 9.18-142.19 0012.45.86 30.11 9.18-142.19 00-18.28-25.76 30.11 9.18-142.19 00-29.34-11.11 30.11 9.18-142.19 00-.54 3.02 29.996 9.216-165.91 00-8.77-3.57 30.167 9.164-133.6 00-4.01-11.61 29.996 9.216-165.91 0021.58-3.56 29.996 9.216-165.91 00-26.91-16.24 29.996 9.216-165.91 00-1.49-.35 30.2 9.153-51.91 003.94-2.23 29.996 9.216-165.91 0019.81-3.78 29.996 9.216-165.91 00-6.76-8.33 30.2 9.153-51.91 002.76-3.35 30.2 9.153-51.91 0011.53-29.49 30.2 9.153-51.91 00-19.62 10.91 30.167 9.164-133.6 00-2.26-3.81 30.2 9.153-51.91 0010.7-28.41 30.2 9.153-51.91 00-3.69-.49 30.167 9.164-133.6 00-4.97-13.2 30.2 9.153-51.91 001.49-13.51 30.2 9.153-51.91 00-9.98 2.54 30.167 9.164-133.6 00-1.75-1.9 30.167 9.164-133.6 00-15.73-13 30.34 9.111-95.83 00-11.03-21.39 30.34 9.111-95.83 00-6.41 18.16 30.11 9.18-142.19 00-1.61.18 30.167 9.164-133.6 00-3.36-3.72 30.167 9.164-133.6 00-27.38-15.41 30.167 9.164-133.6 002.86 13.44 30.2 9.153-51.91 00-9.28 7.39 30.131 9.174-40.97 001.65-9.32 30.131 9.174-40.97 00-3.29-1.19 30.2 9.153-51.91 00.66-11.57 30.2 9.153-51.91 00-24.4 16.3 30.167 9.164-133.6 00-22.16-10.35 30.167 9.164-133.6 00-.94 2.2 30.34 9.111-95.83 00-5.88-5.16 30.34 9.111-95.83 00-5.66 10.5 30.131 9.174-40.97 00-12.61 9.16 30.131 9.174-40.97 00-5.42 5.08 30.131 9.174-40.97 00-4.24 3.24 30.167 9.164-133.6 00-22.83-15.47 30.131 9.174-40.97 001.65-9.34 30.131 9.174-40.97 00-26.42 10.81 30.11 9.18-142.19 00-28.65-10.59 30.11 9.18-142.19 0015.57 23.58 30.131 9.174-40.97 00-2.82 3.81 30.11 9.18-142.19 00-18.22-3.71 30.11 9.18-142.19 00-.41.84 30.167 9.164-133.6 00-1.17-.87 30.2 9.153-51.91 003.67-17.78 30.2 9.153-51.91 00-10.03 2.58 30.34 9.111-95.83 00-9.78-15.71zm137.5 21.04a30.167 9.164-133.6 008.59 11.44 30.2 9.153-51.91 00-2.3 5.05 30.131 9.174-40.97 00-3.77 5.32 30.34 9.111-95.83 00-.5-9.75 30.34 9.111-95.83 00-2.02-12.06zm-65.34 1.71a30.167 9.164-133.6 002.87 6.81 30.11 9.18-142.19 00-8.94.44 30.11 9.18-142.19 00-.41.87 30.11 9.18-142.19 00-.47-.57 30.131 9.174-40.97 006.95-7.55zm49.45 14.2a30.34 9.111-95.83 002.42 12.54 30.131 9.174-40.97 00-8.86 6.18 30.167 9.164-133.6 00-4.34-9.54 30.131 9.174-40.97 003.44-3.31 30.131 9.174-40.97 006.67-5.27 30.131 9.174-40.97 00.67-.6zm-50.39 6.31a30.11 9.18-142.19 00.39.47 30.133 9.174-138.86 001.89 4.64 30.2 9.153-51.91 00-10.83 9.45 30.11 9.18-142.19 00-7.47-8.68 30.2 9.153-51.91 003.27-5.83 30.11 9.18-142.19 0012.33.81 30.11 9.18-142.19 00.42-.86zm88.96 2.15l.02.02a30.2 9.153-51.91 00-.35.23 30.131 9.174-40.97 00.33-.25zm38.62.46a30.133 9.174-138.86 007.6 7.59 30.131 9.174-40.97 00-9.59 4.37 30.2 9.153-51.91 00-1.18-2.32 30.2 9.153-51.91 00-6.51.52 30.2 9.153-51.91 009.68-10.16zm-40.49.86a30.2 9.153-51.91 00-8.96 8.07 30.34 9.111-95.83 00-1.31-2.26 30.131 9.174-40.97 0010.27-5.81zM77.41 618.3a30.318 9.118-105.49 002.66 7.4 30.34 9.111-95.83 00.35 4.5 30.34 9.111-95.83 006.86 25.08 30.318 9.118-105.49 001.26 10.21 30.131 9.174-40.97 00-12.96 7.4 30.318 9.118-105.49 00-1.78-3.72 30.318 9.118-105.49 00-.32-3.82 30.318 9.118-105.49 001.23-.04 30.318 9.118-105.49 003.76-13.66 30.131 9.174-40.97 002.53-10.8 30.131 9.174-40.97 00-4.14-1.14 30.318 9.118-105.49 00-1.49-6.11 30.318 9.118-105.49 00-3.74-10.89 30.2 9.153-51.91 005.78-4.41zm92.94 2.68a30.318 9.118-105.49 001.9 8.19 30.318 9.118-105.49 003.17 9.48 30.318 9.118-105.49 00-4.38-1.63 30.318 9.118-105.49 00-3.11 4.4 30.133 9.174-138.86 00-9.38-5.05 30.2 9.153-51.91 001.48-3.53 29.996 9.216-165.91 005.44-3.58 29.996 9.216-165.91 00-4.84-7.06 29.996 9.216-165.91 009.72-1.22zm285.81 4.2a30.133 9.174-138.86 001.07.76 30.2 9.153-51.91 00-1.85 2.27 30.2 9.153-51.91 00-1.91 2.54 30.131 9.174-40.97 002.69-5.57zm-76.03 1.17a30.34 9.111-95.83 00-.38 3.18 30.133 9.174-138.86 00-1.12-.69 30.34 9.111-95.83 001.5-2.49zm-92.5 2.46a30.11 9.18-142.19 003.17 1.8 29.996 9.216-165.91 00-5.18 1.78 30.167 9.164-133.6 00-.1-1.33 30.2 9.153-51.91 002.11-2.25zm211.3.27a30.167 9.164-133.6 006.84 3.06 30.2 9.153-51.91 00-10.68 9.27 30.2 9.153-51.91 00-2.59 2.21 30.167 9.164-133.6 00-3.29-3.1 30.2 9.153-51.91 007.4-8.36 30.2 9.153-51.91 002.32-3.08zm-365.89 1.54a29.996 9.216-165.91 001.13.3 29.996 9.216-165.91 007.32 1.53 30.2 9.153-51.91 00-3.59 3.84 30.11 9.18-142.19 00-3.46-2.81 30.11 9.18-142.19 00-3.14-2.33 30.34 9.111-95.83 00.32.03 30.34 9.111-95.83 001.42-.56zm70.76.32a29.996 9.216-165.91 0015.95 5.63 29.996 9.216-165.91 003.32.76 29.996 9.216-165.91 00-6.04 3.72 29.996 9.216-165.91 00.46 2.63 29.996 9.216-165.91 00-11.65.16 30.318 9.118-105.49 00-2.04-12.9zm214.87 1.55a30.2 9.153-51.91 00-5.8 6.67 29.996 9.216-165.91 00-2.2-.59 30.131 9.174-40.97 008-6.08zm-86.63.11a30.133 9.174-138.86 008.88 6.78 30.131 9.174-40.97 00-2.16 3.65 29.996 9.216-165.91 00-9.91-5.7 30.2 9.153-51.91 003.19-4.73zm118.6 2.18a30.2 9.153-51.91 00-8.03 20.38 29.996 9.216-165.91 00-2.66-.71 29.996 9.216-165.91 00-2.81-.65 29.996 9.216-165.91 00-2.01-3.73 30.131 9.174-40.97 003.9-3.2 30.131 9.174-40.97 0011.61-12.09zm-99.99 14.55a30.34 9.111-95.83 00-1.43 7.39 30.131 9.174-40.97 00-6.05 3.77 30.131 9.174-40.97 00-12.12 1.63 29.996 9.216-165.91 00-8.62-9.3 29.996 9.216-165.91 0016.57-.86 30.131 9.174-40.97 0011.65-2.63zm-165.91 4.93a30.318 9.118-105.49 004.38 1.62 30.318 9.118-105.49 00.71-.32 30.318 9.118-105.49 004.31 11.25 30.2 9.153-51.91 00-.62.68 30.133 9.174-138.86 00-7.87-10.85 30.318 9.118-105.49 00-.91-2.38zm-69.29 5.68a30.318 9.118-105.49 006.2 5.37 30.2 9.153-51.91 001.08 4.44 30.133 9.174-138.86 00-7-3.24 30.318 9.118-105.49 00-.28-6.57zm32.87.66h.05a30.167 9.164-133.6 00.59.83 30.167 9.164-133.6 00-.64-.84v.01zm71.01 1.26a29.996 9.216-165.91 006.93 2.02 29.996 9.216-165.91 0013.75 2.36 30.318 9.118-105.49 002.15 3.38 29.996 9.216-165.91 00-16.4-.25 30.167 9.164-133.6 00-6.43-7.51zm-69.53.69a30.167 9.164-133.6 004.49 5.48 30.2 9.153-51.91 00-.6.49 30.167 9.164-133.6 00-3.89-5.97zm264.18 1.71a29.996 9.216-165.91 001.32.12 29.996 9.216-165.91 0018.9 7.61 30.2 9.153-51.91 00-6.46 3.36 29.996 9.216-165.91 00-18.34-7.86 30.2 9.153-51.91 004.58-3.22v-.01zm-286.24 5.83a30.318 9.118-105.49 00.72 3.32 30.133 9.174-138.86 00-4.62-3 30.2 9.153-51.91 003.9-.32zm311.27 3.06a29.996 9.216-165.91 0010.55 1.58 30.2 9.153-51.91 00-.65 1.96 30.131 9.174-40.97 00-15.8 19.2 30.2 9.153-51.91 00-.63-2.06 30.2 9.153-51.91 00.24-.39 29.996 9.216-165.91 001.55-2.03 29.996 9.216-165.91 00.08-.69 30.2 9.153-51.91 004.66-17.57zm49.92 1.53a29.996 9.216-165.91 007.6.22 30.2 9.153-51.91 00-1.35 2.06 29.996 9.216-165.91 00-3.16-.85 29.996 9.216-165.91 00-3.7-.84 30.2 9.153-51.91 00.61-.59zm-434.72.4a30.318 9.118-105.49 00.8 3.06 30.318 9.118-105.49 003.58 10.53 30.131 9.174-40.97 00-4.81 6.84 30.11 9.18-142.19 00-13.32-5.55 30.34 9.111-95.83 00-.02-4.45 30.2 9.153-51.91 003.08-4.96 30.131 9.174-40.97 0010.68-5.47h.01zm314.42 3.68a30.34 9.111-95.83 00-.12 1.45 30.2 9.153-51.91 00-.58.72 30.34 9.111-95.83 00-.03-1.06 30.2 9.153-51.91 00.73-1.11zm-157.47.71a30.167 9.164-133.6 006.52 5.32 29.996 9.216-165.91 00-9.07-.87 30.2 9.153-51.91 002.55-4.45zm-49.06 4.45a30.318 9.118-105.49 001.44 2.74 30.318 9.118-105.49 00-.93 10.1 30.167 9.164-133.6 00-5.82-5.2 30.2 9.153-51.91 005.31-7.64zm180.27.56a30.2 9.153-51.91 00-5.39 18.27 29.996 9.216-165.91 00-5.03.13 30.131 9.174-40.97 00-.73-2.7 30.131 9.174-40.97 00-8.44-.14 30.2 9.153-51.91 003.06-6.15 30.131 9.174-40.97 0016.53-9.41zm-108.11.75l.15.06-.12.12a30.167 9.164-133.6 00-.03-.18zm-57.18.84l.11.04a30.318 9.118-105.49 001.79 3 30.2 9.153-51.91 00-1.37 3.46 30.167 9.164-133.6 00-.96.34 30.318 9.118-105.49 00-.53-.97 30.318 9.118-105.49 00.96-5.87zm74.31 4.28a29.996 9.216-165.91 00.46.09 30.2 9.153-51.91 001.28 3.05 30.2 9.153-51.91 004.86.15 29.996 9.216-165.91 005.21 2.14 30.2 9.153-51.91 00-10.3 6.79 29.996 9.216-165.91 00-4.66-6.77 30.2 9.153-51.91 003.15-5.45zm228.95 1.52a29.996 9.216-165.91 007.3 2.15l.26.06a30.2 9.153-51.91 00.19 2.91 29.996 9.216-165.91 00-5.64-.66 30.167 9.164-133.6 00-3.24-2.5 30.2 9.153-51.91 001.13-1.96zm-76.29 1.46a29.996 9.216-165.91 005.46 1.13 30.2 9.153-51.91 00-1.81 2.68 29.996 9.216-165.91 00-3.65-3.81zm52.97.38a30.2 9.153-51.91 00-11.44 26.44 30.2 9.153-51.91 00-5.18 3.77 30.2 9.153-51.91 001.67-13.89 30.2 9.153-51.91 00-22.65 14.23 29.996 9.216-165.91 00-.07-.51 30.2 9.153-51.91 00.95-1.18 30.2 9.153-51.91 0011.84-20.53 30.131 9.174-40.97 00.5.87 30.131 9.174-40.97 0024.38-9.2zm-102.65 2.22a30.34 9.111-95.83 002.19 4.16 30.2 9.153-51.91 00-1.4 5.43 29.996 9.216-165.91 00-.82-.21 29.996 9.216-165.91 00-10.15-1.95 30.2 9.153-51.91 0010.18-7.43zm-244.27.64a29.996 9.216-165.91 001.79.6 30.318 9.118-105.49 00.6 3.96 30.2 9.153-51.91 00-3.31 2.78 30.318 9.118-105.49 00-.83-4.4 30.318 9.118-105.49 001.75-2.94zm87.71 1.53a30.11 9.18-142.19 004.21 7.55 30.167 9.164-133.6 00-1.57.24 30.167 9.164-133.6 00-5.46-4.86 30.2 9.153-51.91 002.82-2.93zm206.34 5.01a30.2 9.153-51.91 00-3.59 8.37 29.996 9.216-165.91 00-7.98-2.38 30.2 9.153-51.91 001.35-5.01 29.996 9.216-165.91 0010.22-.98zm-154.52 2.55a30.2 9.153-51.91 00-3.49 3.68 29.996 9.216-165.91 00-4.36-1.21 29.996 9.216-165.91 00-2.35-.55 30.2 9.153-51.91 00.53-.62 29.996 9.216-165.91 009.67-1.3zm219.95 1.49a30.167 9.164-133.6 008.13 9.75 30.167 9.164-133.6 003.45 3.44 30.131 9.174-40.97 00-10.07 6.1 29.996 9.216-165.91 00-3.7 2.8 30.131 9.174-40.97 00-3.01 2.5 30.131 9.174-40.97 00-8.06 7.86 30.2 9.153-51.91 003.43-17.32 30.2 9.153-51.91 00-4.29-.33 30.2 9.153-51.91 00-.26-1.86 30.2 9.153-51.91 0014.38-12.94zm-424.63 3.07a30.11 9.18-142.19 007.7 6.66 30.11 9.18-142.19 001.36 1.03 30.131 9.174-40.97 00-.24.07 30.11 9.18-142.19 00-9.65-6.27 30.2 9.153-51.91 00.83-1.49zm221.04 4a30.133 9.174-138.86 004.24 4.77 29.996 9.216-165.91 00-4.57-.24 29.996 9.216-165.91 00-1.62-1.3 30.2 9.153-51.91 001.95-3.23zm-148.12 5.82a30.318 9.118-105.49 001.74 4.03 29.996 9.216-165.91 00-3.93-.88 30.2 9.153-51.91 002.19-3.15zm-55.66 4.29a30.318 9.118-105.49 00.2.88 30.11 9.18-142.19 00-.41-.39 30.131 9.174-40.97 00.21-.49zm86.93.02a30.133 9.174-138.86 001.2.85 30.2 9.153-51.91 00-1.14 1.24 30.318 9.118-105.49 00-.06-2.09zm-13.98 3.86a30.318 9.118-105.49 00.97 1.7 29.996 9.216-165.91 00-1.07-.49 30.318 9.118-105.49 00.1-1.21zm280.95.07a30.2 9.153-51.91 00-2.67 3.58 29.996 9.216-165.91 00-.95-.49 30.2 9.153-51.91 002.67-2.78 29.996 9.216-165.91 00.95-.31zm-103.83.38a29.996 9.216-165.91 00.94.35 30.2 9.153-51.91 00-3.92 4.69l-.02.03a29.996 9.216-165.91 00-1.52-1.58 30.131 9.174-40.97 004.52-3.49zm19.11 4.87a29.996 9.216-165.91 009.79.75 29.996 9.216-165.91 00-.45.95 29.996 9.216-165.91 002.82 5.44 30.2 9.153-51.91 00-13.17 12.78 30.11 9.18-142.19 00-7.85-7 30.2 9.153-51.91 001.03-1.27 30.2 9.153-51.91 007.83-11.65zm-155.3 4.2a30.318 9.118-105.49 00.46.55 30.318 9.118-105.49 00.19 2.59 30.133 9.174-138.86 00-1.89-1.51 30.2 9.153-51.91 001.24-1.63zm304.83 3.68a29.996 9.216-165.91 0013.24 4.41 29.996 9.216-165.91 005.83 1.26 30.131 9.174-40.97 00-9.56 7.27 30.131 9.174-40.97 00-1.03.91 30.167 9.164-133.6 00-14.86-8.08 30.131 9.174-40.97 001.69-1.42 30.131 9.174-40.97 004.69-4.35zm-220.69 1.8a29.996 9.216-165.91 009.56 3.42 30.2 9.153-51.91 00-.18 1.08 30.2 9.153-51.91 00-1.01.95 29.996 9.216-165.91 00-3.55-.97 29.996 9.216-165.91 00-6.57-1.39 30.2 9.153-51.91 001.76-3.09h-.01zM96.1 746.15a29.996 9.216-165.91 005.49 4.74 30.34 9.111-95.83 005.27 14.69 30.2 9.153-51.91 00-2.97 3.49 30.318 9.118-105.49 00-7.3-4.91 30.318 9.118-105.49 00-.41.17 30.318 9.118-105.49 00-1.26-12.31 30.318 9.118-105.49 001.18-5.87zm-25.93.16a30.318 9.118-105.49 002.15 3.54 30.318 9.118-105.49 00.24 5.15 30.318 9.118-105.49 00-.94-3.68 30.318 9.118-105.49 00-1.53-5h.08v-.01zm228.79 3.44a30.11 9.18-142.19 00.18.2 30.2 9.153-51.91 00-1.37 13.23 30.2 9.153-51.91 0011.64-3.72 30.11 9.18-142.19 00.93.75 30.11 9.18-142.19 009.01 6.18 29.996 9.216-165.91 00-2.18 1.58 29.996 9.216-165.91 00-1.9-.5 29.996 9.216-165.91 00-20.88-2.55 30.2 9.153-51.91 00-.23-.26 30.2 9.153-51.91 00-2.25-.65 29.996 9.216-165.91 00.04-.08 29.996 9.216-165.91 00-6.36-8.07 30.2 9.153-51.91 003.26-5.7 29.996 9.216-165.91 0010.11-.41zm170.92 1.04a30.167 9.164-133.6 006.08 14.2 30.133 9.174-138.86 00-15.09-3.02 30.133 9.174-138.86 0010.08 20.35 30.131 9.174-40.97 00-4.09 3.94 30.167 9.164-133.6 00-8.49-7.51 29.996 9.216-165.91 001.02-1.63 29.996 9.216-165.91 00-8.72-9.46 30.2 9.153-51.91 006.15-9.36 30.131 9.174-40.97 0013.06-7.5v-.01zm-261.19.96a30.167 9.164-133.6 00.51.62 30.167 9.164-133.6 00-.5-.49v-.13h-.01zm-61.47 9.33a30.318 9.118-105.49 00-.03.14l-.08-.12.11-.03v.01zm359.64 3.04a30.11 9.18-142.19 0012.81 12.09 30.11 9.18-142.19 003.77 2.77 30.34 9.111-95.83 00-1.62 17.54 30.2 9.153-51.91 00-.66-.78 30.2 9.153-51.91 00-11.82 3.86 30.11 9.18-142.19 00-2.42-1.95 30.133 9.174-138.86 00-3.03-6.79 30.167 9.164-133.6 008.65.79 30.167 9.164-133.6 00-10.04-23.48 30.131 9.174-40.97 004.36-4.05zm-118.96 2.49a30.2 9.153-51.91 00-4.64 6.82 29.996 9.216-165.91 00-2.3-.49 30.2 9.153-51.91 006.94-6.33zm-163.05 2.25a30.2 9.153-51.91 00-.09 1.6 30.34 9.111-95.83 00-.4-1.06 30.131 9.174-40.97 00.49-.54zm17.9.88a29.996 9.216-165.91 002.12.57 29.996 9.216-165.91 006.33 1.35 30.2 9.153-51.91 00-3.95 11.27 29.996 9.216-165.91 00-8.17 2.89 29.996 9.216-165.91 00-3.14.56 30.2 9.153-51.91 00-1.3-3.82 30.2 9.153-51.91 00-6.72.61 30.34 9.111-95.83 00-2.14-9.54 30.2 9.153-51.91 00.27.3 30.2 9.153-51.91 007.26-.91 30.167 9.164-133.6 008.52.74 30.167 9.164-133.6 00.92-4.02zm-167.98.57a30.318 9.118-105.49 002.57 12.38 30.318 9.118-105.49 001.93 6.12 30.11 9.18-142.19 00-6.38-1.1 30.318 9.118-105.49 00-.49-5.6 30.318 9.118-105.49 002.37-11.8zm332.88.36a29.996 9.216-165.91 007.93 4 30.2 9.153-51.91 00-5.68 10.03 29.996 9.216-165.91 00-8.83-5.4 30.2 9.153-51.91 002.5-3.04 30.2 9.153-51.91 004.08-5.59zm-244.07.57a30.133 9.174-138.86 00.96.86 30.133 9.174-138.86 002.85 2.38 30.318 9.118-105.49 00.72 2.94 30.2 9.153-51.91 00-.46-.52 30.2 9.153-51.91 00-2.15-.65 30.318 9.118-105.49 00-1.92-5.01zm106.21 3.7a29.996 9.216-165.91 00.95 1.26 30.2 9.153-51.91 00-3.78 3.12 29.996 9.216-165.91 00-1.32-.12 30.2 9.153-51.91 004.15-4.26zm-149.48 2.57a29.996 9.216-165.91 006.37 2.77 29.996 9.216-165.91 00-7.3 3.83 30.318 9.118-105.49 00-1.69-3.04 30.2 9.153-51.91 002.62-3.56zm48.63 2.92a30.318 9.118-105.49 00.28.94 30.133 9.174-138.86 00-.3-.08 30.2 9.153-51.91 00.02-.86zm269.86.38a29.996 9.216-165.91 002.71.3 30.167 9.164-133.6 00.1.24 30.131 9.174-40.97 00-14.14 9.05 30.167 9.164-133.6 00-1.58-1.07 30.2 9.153-51.91 001.2-1.17 30.2 9.153-51.91 0011.71-7.35zm-428.73 2.08a30.318 9.118-105.49 00-.91.11 30.318 9.118-105.49 00-.66 31.71 30.318 9.118-105.49 0016.89 26.71 30.318 9.118-105.49 00.65-31.71 30.318 9.118-105.49 00-15.97-26.82zm336.43 3.18a29.996 9.216-165.91 001.26.27 30.2 9.153-51.91 00-.04.47 30.167 9.164-133.6 00-1.21-.74h-.01zm-47.47 2.82a29.996 9.216-165.91 0024.73.69 30.11 9.18-142.19 007.1 10.36 30.131 9.174-40.97 00-4.14 3.38 30.131 9.174-40.97 00-1.13 1 30.167 9.164-133.6 00-.74-.69 30.131 9.174-40.97 00-.13-5.5 30.131 9.174-40.97 00-7.15-.55 30.167 9.164-133.6 00-14.36-6.12 30.11 9.18-142.19 00-.78-.37 29.996 9.216-165.91 00-3.4-2.2zm-177.22.42a29.996 9.216-165.91 004.04 3.06 30.345 9.11-90.37 00-1.71 3.16 30.318 9.118-105.49 00-2.33-6.22zm327.22 4.01a30.167 9.164-133.6 006.37 7.4 30.167 9.164-133.6 00.61.63 30.131 9.174-40.97 00-.65 2.11 30.11 9.18-142.19 00-9.49-6.13 30.131 9.174-40.97 003.16-4.01zm-64.05 1.5a29.996 9.216-165.91 0014.85.24 30.2 9.153-51.91 00-6.52 6.34 30.11 9.18-142.19 00-4.89-4.05 30.11 9.18-142.19 00-3.44-2.53zm-249.9 2.06a29.996 9.216-165.91 004.21 1.52 30.2 9.153-51.91 00-2.63 3.86 30.345 9.11-90.37 00-1.58-5.38zm279.44 1.14a30.167 9.164-133.6 001.73 2.91 30.131 9.174-40.97 00-1.01 1.15 30.133 9.174-138.86 00-2.69.89 30.2 9.153-51.91 001.97-4.95zm-46.7 5.5a30.11 9.18-142.19 009.53 8.48 30.11 9.18-142.19 005.09 3.67 30.2 9.153-51.91 00-3.03 5.3 30.11 9.18-142.19 00-3.76-3.64 30.167 9.164-133.6 00-7.39-11.46 30.34 9.111-95.83 00-.44-2.35zm-73.66.66a30.11 9.18-142.19 004.43 4.54 30.131 9.174-40.97 00-1.5 1.24 30.133 9.174-138.86 00-5.2-4.93 29.996 9.216-165.91 002.27-.85zm117.35.91a30.133 9.174-138.86 00.05 1.61 30.131 9.174-40.97 00-1.74 2.63 30.131 9.174-40.97 00-1.73 1.64 30.2 9.153-51.91 003.42-5.88zm-182.56 1.27a29.996 9.216-165.91 005.7 1.62 29.996 9.216-165.91 00.92.22 30.131 9.174-40.97 00-2.49 1.62 30.11 9.18-142.19 00-3.74-3.06 30.11 9.18-142.19 00-.4-.3v-.1h.01zm39.93 1.79a29.996 9.216-165.91 00.5.06 30.133 9.174-138.86 0010.3 10.5 30.133 9.174-138.86 004.91 4 30.131 9.174-40.97 00-3.84 5.67 30.133 9.174-138.86 00-9.58-9.66 30.133 9.174-138.86 00-8.66-6.71 30.2 9.153-51.91 006.37-3.86zm-124.37 10.51a30.2 9.153-51.91 00-6.14 8.84 30.345 9.11-90.37 00.2-4.54 30.2 9.153-51.91 005.94-4.3zm67.74 4.99a29.996 9.216-165.91 004.69.07 30.131 9.174-40.97 00-6.25 7.79 30.133 9.174-138.86 00-2.52-4.61 30.2 9.153-51.91 004.08-3.25z" class="st9"/></g><g id="shape9-19" transform="translate(369.79 -339.799)"><path d="M0 822.8l78.2 11.72-72.94 16.25L0 822.8z" class="st8"/></g><g id="shape10-21" transform="translate(453.503 -417.971)"><path d="M0 822.8l78.2 11.72-72.94 16.25L0 822.8z" class="st8"/></g><g id="shape11-23" transform="translate(608.856 -365.03)"><path d="M0 822.8l46.78 7.01 1.03 11.48-42.55 9.48L0 822.8z" class="st8"/></g><g id="shape12-25" transform="translate(692.592 -469.784)"><path d="M0 822.8l78.2 11.72-72.94 16.25L0 822.8z" class="st8"/></g><g id="shape13-27" transform="translate(717.395 -376.294)"><path d="M0 822.8l78.2 11.72-72.94 16.25L0 822.8z" class="st8"/></g><g id="shape14-29" transform="translate(562.465 -470.007)"><path d="M33.59 833.61a17.314 17.103 90 01-14.81 17.16A17.314 17.103 90 010 838.19a17.314 17.103 90 019.8-20.52 17.314 17.103 90 0121.4 7.09l2.39 8.85z" class="st10"/><path d="M33.59 833.61a17.314 17.103 90 01-14.81 17.16A17.314 17.103 90 010 838.19a17.314 17.103 90 019.8-20.52 17.314 17.103 90 0121.4 7.09" class="st11"/></g><g id="shape15-32" transform="translate(640.749 -445.902)"><path d="M33.59 833.61a17.314 17.103 90 01-14.81 17.16A17.314 17.103 90 010 838.19a17.314 17.103 90 019.8-20.52 17.314 17.103 90 0121.4 7.09l2.39 8.85z" class="st10"/><path d="M33.59 833.61a17.314 17.103 90 01-14.81 17.16A17.314 17.103 90 010 838.19a17.314 17.103 90 019.8-20.52 17.314 17.103 90 0121.4 7.09" class="st11"/></g><g id="shape16-35" transform="translate(615.744 -335.965)"><path d="M33.59 833.61a17.314 17.103 90 01-14.81 17.16A17.314 17.103 90 010 838.19a17.314 17.103 90 019.8-20.52 17.314 17.103 90 0121.4 7.09l2.39 8.85z" class="st10"/><path d="M33.59 833.61a17.314 17.103 90 01-14.81 17.16A17.314 17.103 90 010 838.19a17.314 17.103 90 019.8-20.52 17.314 17.103 90 0121.4 7.09" class="st11"/></g><g id="shape17-38" transform="translate(535.868 -366.121)"><path d="M35.86 832.45c0 8.67-6.33 16-14.82 17.16-8.48 1.16-16.51-4.22-18.77-12.58-2.27-8.36 1.92-17.12 9.8-20.52 7.88-3.39-5.75 18.43 6.98 21.84l16.81-5.9z" class="st10"/><path d="M35.86 832.45c0 8.67-6.33 16-14.82 17.16-8.48 1.16-16.51-4.22-18.77-12.58-2.27-8.36 1.92-17.12 9.8-20.52 7.88-3.39-5.75 18.43 6.98 21.84" class="st11"/></g><g id="shape18-41" transform="translate(732.191 -335.965)"><path d="M33.59 833.61a17.314 17.103 90 01-14.81 17.16A17.314 17.103 90 010 838.19a17.314 17.103 90 019.8-20.52 17.314 17.103 90 0121.4 7.09l2.39 8.85z" class="st10"/><path d="M33.59 833.61a17.314 17.103 90 01-14.81 17.16A17.314 17.103 90 010 838.19a17.314 17.103 90 019.8-20.52 17.314 17.103 90 0121.4 7.09" class="st11"/></g><g id="shape19-44" transform="translate(740.075 -418.643)"><path d="M33.59 833.61a17.314 17.103 90 01-14.81 17.16A17.314 17.103 90 010 838.19a17.314 17.103 90 019.8-20.52 17.314 17.103 90 0121.4 7.09l2.39 8.85z" class="st10"/><path d="M33.59 833.61a17.314 17.103 90 01-14.81 17.16A17.314 17.103 90 010 838.19a17.314 17.103 90 019.8-20.52 17.314 17.103 90 0121.4 7.09" class="st11"/></g><g id="shape20-47" transform="translate(446.041 -454.688)"><path d="M33.59 833.61a17.314 17.103 90 01-14.81 17.16A17.314 17.103 90 010 838.19a17.314 17.103 90 019.8-20.52 17.314 17.103 90 0121.4 7.09l2.39 8.85z" class="st10"/><path d="M33.59 833.61a17.314 17.103 90 01-14.81 17.16A17.314 17.103 90 010 838.19a17.314 17.103 90 019.8-20.52 17.314 17.103 90 0121.4 7.09" class="st11"/></g><g id="shape21-50" transform="translate(443.405 -335.29)"><path d="M33.59 833.61a17.314 17.103 90 01-14.81 17.16A17.314 17.103 90 010 838.19a17.314 17.103 90 019.8-20.52 17.314 17.103 90 0121.4 7.09l2.39 8.85z" class="st10"/><path d="M33.59 833.61a17.314 17.103 90 01-14.81 17.16A17.314 17.103 90 010 838.19a17.314 17.103 90 019.8-20.52 17.314 17.103 90 0121.4 7.09" class="st11"/></g><g id="shape22-53" transform="translate(357.23 -320.878)"><path d="M18.78 849.61c-8.49 1.16-16.51-4.22-18.78-12.58l18.78 12.58z" class="st10"/><path d="M18.78 849.61c-8.49 1.16-16.51-4.22-18.78-12.58" class="st11"/></g><g id="shape23-56" transform="translate(66.587 -416.275)"><path class="st9" d="M0 792.941h236.318v57.825H0z"/></g><g id="shape24-58" transform="translate(72 -418.5)"><path class="st3" d="M0 796.699h223.506v54.067H0z"/><text x="10.75" y="837.25" class="st12">Fragrance</text></g><g id="shape25-61" transform="translate(66.587 -306.339)"><path class="st9" d="M0 792.941h236.318v57.825H0z"/></g><g id="shape26-63" transform="translate(80.843 -306)"><path class="st3" d="M0 796.699h216.157v54.067H0z"/><text y="837.25" class="st12">Stickiness</text></g><g id="shape27-66" transform="translate(852.179 -416.275)"><path d="M0 792.94h266.66v57.83H0v-57.83z" class="st9"/></g><g id="shape28-68" transform="translate(856.008 -419.356)"><path class="st3" d="M0 796.699h250.992v54.067H0z"/><text x="7.06" y="837.25" class="st12">Price per kg</text></g><g id="shape29-71" transform="translate(902.417 -306.339)"><path class="st9" d="M0 792.941h186.085v57.825H0z"/></g><g id="shape30-73" transform="translate(910.97 -306)"><path class="st3" d="M0 796.699h167.059v54.067H0z"/><text x="4.28" y="837.25" class="st12">Recipes</text></g></g></svg>