<svg xmlns="http://www.w3.org/2000/svg" viewBox="0 0 1193 845" color-interpolation-filters="sRGB" fill="none" fill-rule="evenodd" font-size="12" overflow="visible" stroke-linecap="square" stroke-miterlimit="3"><style>.st10,.st3,.st5,.st6,.st7,.st8,.st9{stroke:none;stroke-linecap:round;stroke-linejoin:round;stroke-width:.75}.st10,.st5,.st6,.st7,.st8,.st9{fill:#b51d34}.st10,.st6,.st7,.st8,.st9{fill:#7f142e}.st10,.st7,.st8,.st9{fill:#550a1e}.st10,.st8,.st9{fill:#971328}.st10,.st9{fill:#8e1421}.st10{fill:#edeef0}.st11{fill:#fff;font-family:Roboto;font-size:4.96273em}.st12{fill:#dedede;stroke:none;stroke-width:.75}.st12,.st13,.st14{stroke-linecap:round;stroke-linejoin:round}.st13{stroke:none;stroke-width:.75;fill:#e6e7e9}.st14{fill:#07a1e1}.st14,.st15,.st16{stroke:none;stroke-width:.75}.st15{stroke-linecap:round;stroke-linejoin:round;fill:#0b87a3}.st16{fill:#007fb2}.st16,.st18,.st19,.st20{stroke-linecap:round;stroke-linejoin:round}.st18{fill:#fff;stroke:none;stroke-width:.75}.st19,.st20{stroke:#fff;stroke-width:3.93125}.st20{fill:#f9f9f9;stroke:#f9f9f9;stroke-width:3.31053}.st21{fill:#000;font-family:Roboto;font-size:3.85991em}</style><g id="shape4-1"><path d="M0 0v845.32h1192.52V0H0z" fill="#a9c937" stroke-linecap="round" stroke-linejoin="round" stroke-width=".75"/></g><g id="shape5-3"><path d="M0 0l1192.52 845.32H0V0z" fill="#90af2e" stroke-linecap="round" stroke-linejoin="round" stroke-width=".75"/></g><g id="shape6-5" transform="translate(297.923 -640.73)"><path d="M677.64 714.3H0v131.02h677.64V714.3" class="st3"/><text x="62.65" y="812.56" fill="#000" font-family="Merriweather" font-size="9.098em">Consumer</text></g><g id="shape7-9" transform="translate(457.961 -285.358)"><path d="M0 529.98v315.34h224.63V529.98H0z" class="st5"/></g><g id="shape8-11" transform="translate(682.387 -316.995)"><path d="M0 561.62l32.71 283.7H0v-283.7z" class="st6"/></g><g id="shape9-13" transform="translate(682.387 -285.358)"><path d="M0 813.68v31.64l14.08-20.68 18.63-10.96H0z" class="st7"/></g><g id="shape10-15" transform="translate(457.961 -571.749)"><path d="M0 816.37v28.95h224.63v-28.95H0z" class="st8"/></g><g id="shape11-17" transform="translate(480.528 -575.471)"><path d="M0 824.23v21.09h4.35v-21.09H0z" class="st5"/></g><g id="shape12-19" transform="translate(492.329 -575.471)"><path d="M0 824.23v21.09h4.35v-21.09H0z" class="st5"/></g><g id="shape13-21" transform="translate(504.13 -575.471)"><path d="M0 824.23v21.09h4.35v-21.09H0z" class="st5"/></g><g id="shape14-23" transform="translate(516.138 -575.471)"><path d="M0 824.23v21.09h4.35v-21.09H0z" class="st5"/></g><g id="shape15-25" transform="translate(527.732 -575.471)"><path d="M0 824.23v21.09h4.55v-21.09H0z" class="st5"/></g><g id="shape16-27" transform="translate(539.74 -575.471)"><path d="M0 824.23v21.09h4.35v-21.09H0z" class="st5"/></g><g id="shape17-29" transform="translate(551.748 -575.471)"><path d="M0 824.23v21.09h4.35v-21.09H0z" class="st5"/></g><g id="shape18-31" transform="translate(563.549 -575.471)"><path d="M0 824.23v21.09h4.35v-21.09H0z" class="st5"/></g><g id="shape19-33" transform="translate(468.727 -575.471)"><path d="M0 824.23v21.09h4.35v-21.09H0z" class="st5"/></g><g id="shape20-35" transform="translate(575.35 -575.471)"><path d="M0 824.23v21.09h4.35v-21.09H0z" class="st5"/></g><g id="shape21-37" transform="translate(587.358 -575.471)"><path d="M0 824.23v21.09h4.35v-21.09H0z" class="st5"/></g><g id="shape22-39" transform="translate(599.159 -575.471)"><path d="M0 824.23v21.09h4.35v-21.09H0z" class="st5"/></g><g id="shape23-41" transform="translate(611.167 -575.471)"><path d="M0 824.23v21.09h4.35v-21.09H0z" class="st5"/></g><g id="shape24-43" transform="translate(622.761 -575.471)"><path d="M0 824.23v21.09h4.35v-21.09H0z" class="st5"/></g><g id="shape25-45" transform="translate(634.769 -575.471)"><path d="M0 824.23v21.09h4.35v-21.09H0z" class="st5"/></g><g id="shape26-47" transform="translate(646.777 -575.471)"><path d="M0 824.23v21.09h4.35v-21.09H0z" class="st5"/></g><g id="shape27-49" transform="translate(658.371 -575.471)"><path d="M0 824.23v21.09h4.35v-21.09H0z" class="st5"/></g><g id="shape28-51" transform="translate(670.379 -575.471)"><path d="M0 824.23v21.09h4.35v-21.09H0z" class="st5"/></g><g id="shape29-53" transform="translate(418.624 -248.757)"><path d="M0 529.98v315.34h224.63V529.98H0z" class="st5"/></g><g id="shape30-55" transform="translate(643.05 -280.395)"><path d="M0 561.62l32.71 283.7H0v-283.7z" class="st6"/></g><g id="shape31-57" transform="translate(643.05 -248.757)"><path d="M0 813.68v31.64l14.08-20.47 18.63-11.17H0z" class="st7"/></g><g id="shape32-59" transform="translate(418.624 -535.149)"><path d="M0 816.37v28.95h224.63v-28.95H0z" class="st8"/></g><g id="shape33-61" transform="translate(441.191 -538.871)"><path d="M0 824.44v20.88h4.35v-20.88H0z" class="st5"/></g><g id="shape34-63" transform="translate(452.785 -538.871)"><path d="M0 824.44v20.88h4.55v-20.88H0z" class="st5"/></g><g id="shape35-65" transform="translate(464.793 -538.871)"><path d="M0 824.44v20.88h4.35v-20.88H0z" class="st5"/></g><g id="shape36-67" transform="translate(476.801 -538.871)"><path d="M0 824.44v20.88h4.35v-20.88H0z" class="st5"/></g><g id="shape37-69" transform="translate(488.395 -538.871)"><path d="M0 824.44v20.88h4.35v-20.88H0z" class="st5"/></g><g id="shape38-71" transform="translate(500.403 -538.871)"><path d="M0 824.44v20.88h4.35v-20.88H0z" class="st5"/></g><g id="shape39-73" transform="translate(512.204 -538.871)"><path d="M0 824.44v20.88h4.55v-20.88H0z" class="st5"/></g><g id="shape40-75" transform="translate(524.212 -538.871)"><path d="M0 824.44v20.88h4.35v-20.88H0z" class="st5"/></g><g id="shape41-77" transform="translate(429.183 -538.871)"><path d="M0 824.44v20.88h4.35v-20.88H0z" class="st5"/></g><g id="shape42-79" transform="translate(536.013 -538.871)"><path d="M0 824.44v20.88h4.35v-20.88H0z" class="st5"/></g><g id="shape43-81" transform="translate(547.814 -538.871)"><path d="M0 824.44v20.88h4.35v-20.88H0z" class="st5"/></g><g id="shape44-83" transform="translate(559.822 -538.871)"><path d="M0 824.44v20.88h4.35v-20.88H0z" class="st5"/></g><g id="shape45-85" transform="translate(571.83 -538.871)"><path d="M0 824.44v20.88h4.35v-20.88H0z" class="st5"/></g><g id="shape46-87" transform="translate(583.424 -538.871)"><path d="M0 824.44v20.88h4.35v-20.88H0z" class="st5"/></g><g id="shape47-89" transform="translate(595.432 -538.871)"><path d="M0 824.44v20.88h4.35v-20.88H0z" class="st5"/></g><g id="shape48-91" transform="translate(607.233 -538.871)"><path d="M0 824.44v20.88h4.35v-20.88H0z" class="st5"/></g><g id="shape49-93" transform="translate(619.034 -538.871)"><path d="M0 824.44v20.88h4.35v-20.88H0z" class="st5"/></g><g id="shape50-95" transform="translate(630.835 -538.871)"><path d="M0 824.44v20.88h4.55v-20.88H0z" class="st5"/></g><g id="shape51-97" transform="translate(375.354 -206.988)"><path d="M0 529.77v315.55h224.63V529.77H0z" class="st5"/></g><g id="shape52-99" transform="translate(600.194 -238.625)"><path d="M0 561.41l32.5 283.91H0V561.41z" class="st6"/></g><g id="shape53-101" transform="translate(600.194 -207.194)"><path d="M0 813.89v31.43l13.87-20.47 18.63-10.96H0z" class="st7"/></g><g id="shape54-103" transform="translate(375.354 -493.379)"><path d="M0 816.16v29.16h224.63v-29.16H0z" class="st8"/></g><g id="shape55-105" transform="translate(397.921 -497.101)"><path d="M0 824.23v21.09h4.35v-21.09H0z" class="st5"/></g><g id="shape56-107" transform="translate(409.929 -497.101)"><path d="M0 824.23v21.09h4.35v-21.09H0z" class="st5"/></g><g id="shape57-109" transform="translate(421.73 -497.101)"><path d="M0 824.23v21.09h4.35v-21.09H0z" class="st5"/></g><g id="shape58-111" transform="translate(433.531 -497.101)"><path d="M0 824.23v21.09h4.35v-21.09H0z" class="st5"/></g><g id="shape59-113" transform="translate(445.539 -497.101)"><path d="M0 824.23v21.09h4.35v-21.09H0z" class="st5"/></g><g id="shape60-115" transform="translate(457.34 -497.101)"><path d="M0 824.23v21.09h4.35v-21.09H0z" class="st5"/></g><g id="shape61-117" transform="translate(469.141 -497.101)"><path d="M0 824.23v21.09h4.35v-21.09H0z" class="st5"/></g><g id="shape62-119" transform="translate(480.942 -497.101)"><path d="M0 824.23v21.09h4.35v-21.09H0z" class="st5"/></g><g id="shape63-121" transform="translate(385.913 -497.101)"><path d="M0 824.23v21.09h4.55v-21.09H0z" class="st5"/></g><g id="shape64-123" transform="translate(492.95 -497.101)"><path d="M0 824.23v21.09h4.35v-21.09H0z" class="st5"/></g><g id="shape65-125" transform="translate(504.958 -497.101)"><path d="M0 824.23v21.09h4.35v-21.09H0z" class="st5"/></g><g id="shape66-127" transform="translate(516.552 -497.101)"><path d="M0 824.23v21.09h4.35v-21.09H0z" class="st5"/></g><g id="shape67-129" transform="translate(540.361 -497.101)"><path d="M0 824.23v21.09h4.35v-21.09H0z" class="st5"/></g><g id="shape68-131" transform="translate(552.369 -497.101)"><path d="M0 824.23v21.09h4.35v-21.09H0z" class="st5"/></g><g id="shape69-133" transform="translate(564.17 -497.101)"><path d="M0 824.23v21.09h4.35v-21.09H0z" class="st5"/></g><g id="shape70-135" transform="translate(575.971 -497.101)"><path d="M0 824.23v21.09h4.35v-21.09H0z" class="st5"/></g><g id="shape71-137" transform="translate(587.979 -497.101)"><path d="M0 824.23v21.09h4.35v-21.09H0z" class="st5"/></g><g id="shape72-139" transform="translate(332.705 -162.943)"><path d="M0 529.98v315.34h224.43V529.98H0z" class="st5"/></g><g id="shape73-141" transform="translate(557.131 -194.581)"><path d="M0 561.62l32.5 283.7H0v-283.7z" class="st6"/></g><g id="shape74-143" transform="translate(557.131 -162.943)"><path d="M0 813.68v31.64l13.87-20.68 18.63-10.96H0z" class="st7"/></g><g id="shape75-145" transform="translate(332.705 -449.335)"><path d="M0 816.37v28.95h224.43v-28.95H0z" class="st8"/></g><g id="shape76-147" transform="translate(355.272 -453.057)"><path d="M0 824.23v21.09h4.35v-21.09H0z" class="st5"/></g><g id="shape77-149" transform="translate(366.866 -453.057)"><path d="M0 824.23v21.09h4.35v-21.09H0z" class="st5"/></g><g id="shape78-151" transform="translate(378.874 -453.057)"><path d="M0 824.23v21.09h4.35v-21.09H0z" class="st5"/></g><g id="shape79-153" transform="translate(390.675 -453.057)"><path d="M0 824.23v21.09h4.35v-21.09H0z" class="st5"/></g><g id="shape80-155" transform="translate(402.683 -453.057)"><path d="M0 824.23v21.09h4.35v-21.09H0z" class="st5"/></g><g id="shape81-157" transform="translate(414.277 -453.057)"><path d="M0 824.23v21.09h4.55v-21.09H0z" class="st5"/></g><g id="shape82-159" transform="translate(426.285 -453.057)"><path d="M0 824.23v21.09h4.35v-21.09H0z" class="st5"/></g><g id="shape83-161" transform="translate(438.293 -453.057)"><path d="M0 824.23v21.09h4.35v-21.09H0z" class="st5"/></g><g id="shape84-163" transform="translate(343.264 -453.057)"><path d="M0 824.23v21.09h4.35v-21.09H0z" class="st5"/></g><g id="shape85-165" transform="translate(449.887 -453.057)"><path d="M0 824.23v21.09h4.35v-21.09H0z" class="st5"/></g><g id="shape86-167" transform="translate(461.895 -453.057)"><path d="M0 824.23v21.09h4.35v-21.09H0z" class="st5"/></g><g id="shape87-169" transform="translate(473.903 -453.057)"><path d="M0 824.23v21.09h4.35v-21.09H0z" class="st5"/></g><g id="shape88-171" transform="translate(485.704 -453.057)"><path d="M0 824.23v21.09h4.35v-21.09H0z" class="st5"/></g><g id="shape89-173" transform="translate(497.505 -453.057)"><path d="M0 824.23v21.09h4.35v-21.09H0z" class="st5"/></g><g id="shape90-175" transform="translate(509.306 -453.057)"><path d="M0 824.23v21.09h4.35v-21.09H0z" class="st5"/></g><g id="shape91-177" transform="translate(521.314 -453.057)"><path d="M0 824.23v21.09h4.35v-21.09H0z" class="st5"/></g><g id="shape92-179" transform="translate(533.322 -453.057)"><path d="M0 824.23v21.09h4.35v-21.09H0z" class="st5"/></g><g id="shape93-181" transform="translate(544.916 -453.057)"><path d="M0 824.23v21.09h4.35v-21.09H0z" class="st5"/></g><g id="shape94-183" transform="translate(291.505 -114.35)"><path d="M0 529.98v315.34h224.43V529.98H0z" class="st5"/></g><g id="shape95-185" transform="translate(516.138 -145.987)"><path d="M0 561.62l32.5 283.7H0v-283.7z" class="st6"/></g><g id="shape96-187" transform="translate(516.138 -114.35)"><path d="M0 813.68v31.64l14.08-20.68 18.42-10.96H0z" class="st7"/></g><g id="shape97-189" transform="translate(291.505 -400.741)"><path d="M0 816.37v28.95h224.43v-28.95H0z" class="st8"/></g><g id="shape98-191" transform="translate(314.072 -404.463)"><path d="M0 824.23v21.09h4.35v-21.09H0z" class="st5"/></g><g id="shape99-193" transform="translate(325.873 -404.463)"><path d="M0 824.23v21.09h4.35v-21.09H0z" class="st5"/></g><g id="shape100-195" transform="translate(337.881 -404.463)"><path d="M0 824.23v21.09h4.35v-21.09H0z" class="st5"/></g><g id="shape101-197" transform="translate(349.475 -404.463)"><path d="M0 824.23v21.09h4.35v-21.09H0z" class="st5"/></g><g id="shape102-199" transform="translate(361.483 -404.463)"><path d="M0 824.23v21.09h4.35v-21.09H0z" class="st5"/></g><g id="shape103-201" transform="translate(373.491 -404.463)"><path d="M0 824.23v21.09h4.35v-21.09H0z" class="st5"/></g><g id="shape104-203" transform="translate(385.085 -404.463)"><path d="M0 824.23v21.09h4.35v-21.09H0z" class="st5"/></g><g id="shape105-205" transform="translate(397.093 -404.463)"><path d="M0 824.23v21.09h4.35v-21.09H0z" class="st5"/></g><g id="shape106-207" transform="translate(302.064 -404.463)"><path d="M0 824.23v21.09h4.35v-21.09H0z" class="st5"/></g><g id="shape107-209" transform="translate(408.894 -404.463)"><path d="M0 824.23v21.09h4.35v-21.09H0z" class="st5"/></g><g id="shape108-211" transform="translate(420.902 -404.463)"><path d="M0 824.23v21.09h4.35v-21.09H0z" class="st5"/></g><g id="shape109-213" transform="translate(432.703 -404.463)"><path d="M0 824.23v21.09h4.35v-21.09H0z" class="st5"/></g><g id="shape110-215" transform="translate(444.504 -404.463)"><path d="M0 824.23v21.09h4.35v-21.09H0z" class="st5"/></g><g id="shape111-217" transform="translate(456.512 -404.463)"><path d="M0 824.23v21.09h4.35v-21.09H0z" class="st5"/></g><g id="shape112-219" transform="translate(468.313 -404.463)"><path d="M0 824.23v21.09h4.55v-21.09H0z" class="st5"/></g><g id="shape113-221" transform="translate(480.114 -404.463)"><path d="M0 824.23v21.09h4.35v-21.09H0z" class="st5"/></g><g id="shape114-223" transform="translate(492.122 -404.463)"><path d="M0 824.23v21.09h4.35v-21.09H0z" class="st5"/></g><g id="shape115-225" transform="translate(503.923 -404.463)"><path d="M0 824.23v21.09h4.35v-21.09H0z" class="st5"/></g><g id="shape116-227" transform="translate(474.524 -125.102)"><path d="M0 818.85v26.47h26.5v-26.47H0z" class="st9"/></g><g id="shape117-229" transform="translate(306.826 -144.747)"><path d="M0 840.15v5.17h48.86v-5.17H0z" class="st9"/></g><g id="shape118-231" transform="translate(306.826 -135.855)"><path d="M0 840.15v5.17h85.92v-5.17H0z" class="st9"/></g><g id="shape119-233" transform="translate(306.826 -127.17)"><path d="M0 840.15v5.17h61.7v-5.17H0z" class="st9"/></g><g id="shape120-235" transform="translate(329.599 -172.248)"><path d="M148.44 770.88c0 41.15-33.12 74.44-74.32 74.44C33.13 845.32 0 812.03 0 770.88c0-40.94 33.13-74.24 74.12-74.24 41.2 0 74.32 33.3 74.32 74.24z" class="st10"/></g><g id="shape121-237" transform="translate(337.674 -318.152)"><path d="M164.06 773.85H0v71.47h164.06v-71.47" class="st3"/><text x="19.29" y="827.45" class="st11">RICE</text></g><g id="shape122-241" transform="translate(350.442 -268.647)"><path d="M18.49 833.57c9.32 3.72 16.15 8.69 15.32 10.75-1.03 2.07-9.1.83-18.42-2.89-9.32-3.72-16.15-8.48-15.32-10.75.83-2.07 9.11-.83 18.42 2.89z" class="st12"/></g><g id="shape123-243" transform="translate(362.82 -237.337)"><path d="M16.67 829.76c7.46 6.62 12.43 13.44 10.77 15.1-1.45 1.86-8.69-2.07-16.36-8.89-7.45-6.62-12.42-13.24-10.76-15.1 1.45-1.65 8.9 2.28 16.35 8.89z" class="st12"/></g><g id="shape124-245" transform="translate(340.763 -262.121)"><path d="M18.65 835.73c9.94 2.07 17.39 5.58 16.98 7.86-.62 2.27-8.91 2.27-18.64.21-9.93-2.07-17.39-5.59-16.97-7.86.62-2.28 8.9-2.28 18.63-.21z" class="st13"/></g><g id="shape125-247" transform="translate(350.926 -231.763)"><path d="M13.45 827.5c5.18 8.68 7.67 16.75 5.59 17.78-2.07 1.24-7.66-4.75-12.83-13.44-4.97-8.68-7.45-16.54-5.59-17.78 2.07-1.24 7.87 4.75 12.83 13.44z" class="st12"/></g><g id="shape126-249" transform="translate(387.92 -265.119)"><path d="M18.49 834.8c9.73 2.9 16.98 6.82 16.35 9.1-.62 2.27-8.9 1.86-18.63-1.04-9.52-2.68-16.98-6.82-16.15-9.09.62-2.28 8.91-1.66 18.43 1.03z" class="st12"/></g><g id="shape127-251" transform="translate(417.531 -255.788)"><path d="M12.48 827.12c4.14 9.1 5.8 17.17 3.73 18.2-2.07 1.03-7.25-5.58-11.39-14.68-4.35-9.1-6-17.37-3.93-18.2 2.07-1.03 7.24 5.59 11.59 14.68z" class="st12"/></g><g id="shape128-253" transform="translate(439.014 -272.484)"><path d="M18.33 833.27c9.31 3.93 15.94 8.89 14.9 11.17-.83 2.07-9.11.41-18.22-3.52-9.31-4.13-15.94-9.09-14.9-11.16.82-2.28 9.11-.62 18.22 3.51z" class="st12"/></g><g id="shape129-255" transform="translate(459.395 -202.852)"><path d="M8.3 827.33c.2 9.93-1.66 17.99-3.94 17.99-2.27.21-4.34-7.86-4.34-17.99-.21-10.13 1.65-18.2 3.93-18.2 2.28 0 4.35 8.07 4.35 18.2z" class="st12"/></g><g id="shape130-257" transform="translate(362.402 -201.774)"><path d="M17.92 832.04c8.7 4.96 14.91 10.55 13.67 12.62-1.04 2.06-9.11-.42-17.81-5.38S-.92 828.53.12 826.67c1.24-2.07 9.11.41 17.8 5.37z" class="st12"/></g><g id="shape131-259" transform="translate(405.414 -234.876)"><path d="M13.21 831.65c8.49-5.38 16.36-8.07 17.6-6.21 1.24 2.07-4.56 7.86-13.04 13.24-8.7 5.37-16.57 8.06-17.6 5.99-1.24-1.86 4.55-7.85 13.04-13.02z" class="st13"/></g><g id="shape132-261" transform="translate(438.897 -241.442)"><path d="M18.65 835.73c9.94 2.07 17.39 5.58 16.98 7.86-.62 2.27-8.91 2.27-18.64.21-9.93-2.07-17.39-5.59-16.97-7.86.62-2.28 8.9-2.28 18.63-.21z" class="st13"/></g><g id="shape133-263" transform="translate(385.787 -275.432)"><path d="M10.89 829.19c-3.1 9.51-7.24 16.75-9.52 16.13-2.28-.83-1.66-9.1 1.45-18.61 2.9-9.72 7.24-16.75 9.31-16.13 2.28.62 1.66 8.89-1.24 18.61z" class="st13"/></g><g id="shape134-265" transform="translate(419.337 -182.957)"><path d="M17.92 839.28c-8.69 4.96-16.56 7.44-17.8 5.38-1.04-2.07 4.96-7.66 13.66-12.62 8.7-4.96 16.77-7.44 17.81-5.37 1.24 2.06-4.77 7.65-13.67 12.61z" class="st13"/></g><g id="shape135-267" transform="translate(393.647 -193.204)"><path d="M16.28 829.26c7.25 7.03 11.8 13.86 10.15 15.72-1.66 1.65-8.7-2.69-15.95-9.72-7.24-6.83-11.8-13.86-10.14-15.51 1.45-1.65 8.7 2.48 15.94 9.51z" class="st13"/></g><g id="shape136-269" transform="translate(349.62 -187.828)"><path d="M16.42 829.26c7.24 7.03 11.8 14.06 10.14 15.72-1.65 1.65-8.69-2.69-15.94-9.72-7.25-6.83-11.8-13.86-10.35-15.51 1.65-1.65 8.9 2.69 16.15 9.51z" class="st13"/></g><g id="shape137-271" transform="translate(332.986 -218.224)"><path d="M16.28 829.26c7.25 7.03 11.8 14.06 10.15 15.72-1.45 1.65-8.7-2.69-15.95-9.52-7.24-7.03-11.8-14.06-10.14-15.71 1.66-1.66 8.7 2.69 15.94 9.51z" class="st13"/></g><g id="shape138-273" transform="translate(732.696 -253.72)"><path d="M0 529.98v315.34h224.43V529.98H0z" class="st14"/></g><g id="shape139-275" transform="translate(732.696 -569.061)"><path d="M32.09 817.82h224.63l-32.29 27.5H0l32.09-27.5z" class="st15"/></g><g id="shape140-277" transform="translate(957.329 -253.72)"><path d="M0 529.98l32.3-27.5v313.06L0 845.32V529.98z" class="st15"/></g><g id="shape141-279" transform="translate(687.977 -210.296)"><path d="M0 529.98v315.34h224.43V529.98H0z" class="st14"/></g><g id="shape142-281" transform="translate(687.977 -525.637)"><path d="M32.3 817.82h224.63l-32.3 27.5H0l32.3-27.5z" class="st15"/></g><g id="shape143-283" transform="translate(912.609 -210.296)"><path d="M0 529.98l32.3-27.5v313.06L0 845.32V529.98z" class="st15"/></g><g id="shape144-285" transform="translate(633.734 -164.184)"><path d="M0 529.98v315.34h224.43V529.98H0z" class="st14"/></g><g id="shape145-287" transform="translate(633.734 -479.525)"><path d="M32.3 817.82h224.63l-32.3 27.5H0l32.3-27.5z" class="st15"/></g><g id="shape146-289" transform="translate(858.366 -164.184)"><path d="M0 529.98l32.09-27.5v313.06L0 845.32V529.98z" class="st15"/></g><g id="shape147-291" transform="translate(584.252 -118.692)"><path d="M0 529.98v315.34h224.63V529.98H0z" class="st14"/></g><g id="shape148-293" transform="translate(584.252 -434.033)"><path d="M32.3 817.82h224.42l-32.09 27.5H0l32.3-27.5z" class="st15"/></g><g id="shape149-295" transform="translate(808.678 -118.692)"><path d="M0 529.98l32.3-27.5v313.06L0 845.32V529.98z" class="st15"/></g><g id="shape150-297" transform="translate(683.422 -125.93)"><path d="M0 818.85v26.47h26.5v-26.47H0z" class="st16"/></g><g id="shape151-299" transform="translate(622.347 -173.076)"><path d="M0 696.85v148.47h148.65V696.85H0z" class="st10"/></g><g id="shape152-301" transform="translate(672.035 -350.494)"><path d="M0 840.15v5.17h48.86v-5.17H0z" class="st16"/></g><g id="shape153-303" transform="translate(653.609 -341.809)"><path d="M0 840.15v5.17h86.13v-5.17H0z" class="st16"/></g><g id="shape154-305" transform="translate(665.824 -332.917)"><path d="M0 840.15v5.17h61.7v-5.17H0z" class="st16"/></g><g id="shape155-307" transform="translate(632.491 -351.237)"><path d="M161.25 773.85H0v71.47h161.25v-71.47" class="st3"/><text x="17.89" y="827.45" class="st11">RICE</text></g><g id="shape156-311" transform="translate(680.465 -277.707)"><path d="M12.27 827.12c4.35 9.1 6.01 17.17 3.94 18.2-2.07 1.03-7.25-5.58-11.39-14.68-4.35-9.1-6-17.16-3.93-18.2 2.07-1.03 7.24 5.59 11.38 14.68z" class="st12"/></g><g id="shape157-313" transform="translate(673.082 -249.998)"><path d="M8.68 826.92c1.04 9.92 0 18.19-2.27 18.4-2.28.21-4.97-7.65-6.01-17.58-1.03-9.92 0-18.19 2.28-18.4 2.28-.21 4.97 7.65 6 17.58z" class="st12"/></g><g id="shape158-315" transform="translate(665.491 -278.463)"><path d="M14.41 827.88c5.8 8.27 9.11 15.92 7.04 17.37-1.86 1.24-8.07-4.34-13.87-12.61-5.8-8.07-8.9-15.72-7.04-17.17 2.07-1.24 8.28 4.14 13.87 12.41z" class="st13"/></g><g id="shape159-317" transform="translate(658.706 -259.51)"><path d="M9.81 828.57c-2.07 9.72-5.8 17.37-8.08 16.75-2.27-.41-2.27-8.89-.2-18.61 2.28-9.72 5.79-17.37 8.07-16.75 2.28.41 2.49 8.69.21 18.61z" class="st12"/></g><g id="shape160-319" transform="translate(703.509 -248.926)"><path d="M13.66 827.71c5.18 8.47 7.66 16.33 5.8 17.57-2.07 1.24-7.87-4.75-13.05-13.44-5.17-8.48-7.66-16.33-5.79-17.58 2.07-1.24 7.86 4.76 13.04 13.45z" class="st12"/></g><g id="shape161-321" transform="translate(722.29 -233.662)"><path d="M10.82 829.4c-3.11 9.72-7.45 16.75-9.52 15.92-2.28-.62-1.45-8.89 1.65-18.4 3.11-9.52 7.25-16.75 9.53-15.93 2.27.62 1.45 8.9-1.66 18.41z" class="st12"/></g><g id="shape162-323" transform="translate(748.598 -220.428)"><path d="M12.05 827.12c3.93 9.1 5.38 17.37 3.31 18.2-2.28 1.03-7.04-5.79-10.97-14.89-4.14-9.3-5.59-17.57-3.31-18.4 2.07-1.04 7.03 5.79 10.97 15.09z" class="st12"/></g><g id="shape163-325" transform="translate(709.131 -174.299)"><path d="M15.7 834.55C8.87 841.79 2.03 846.54.38 845.1c-1.66-1.66 2.27-8.9 9.11-16.34 6.83-7.44 13.66-12.2 15.32-10.55 1.65 1.66-2.28 8.9-9.11 16.34z" class="st12"/></g><g id="shape164-327" transform="translate(646.03 -221.669)"><path d="M10.68 826.71c3.11 9.51 3.73 17.78 1.45 18.61-2.27.62-6.41-6.62-9.31-16.13-3.11-9.51-3.73-17.99-1.45-18.61 2.28-.62 6.42 6.62 9.31 16.13z" class="st12"/></g><g id="shape165-329" transform="translate(688.996 -229.242)"><path d="M18.65 835.94c9.94 1.86 17.6 5.17 16.98 7.44-.42 2.28-8.7 2.69-18.43.62-9.94-1.86-17.6-5.17-17.18-7.44.41-2.28 8.9-2.69 18.63-.62z" class="st13"/></g><g id="shape166-331" transform="translate(723.461 -196.577)"><path d="M14.41 827.88c5.8 8.27 8.9 15.92 7.04 17.37-1.86 1.24-8.07-4.34-13.87-12.41-5.8-8.27-8.9-15.92-7.04-17.37 1.86-1.24 8.07 4.14 13.87 12.41z" class="st13"/></g><g id="shape167-333" transform="translate(702.974 -279.096)"><path d="M17.92 839.27c-8.69 5.16-16.56 7.44-17.8 5.37-1.04-1.86 4.96-7.65 13.66-12.61 8.7-4.97 16.77-7.45 17.81-5.38 1.24 2.07-4.77 7.65-13.67 12.62z" class="st13"/></g><g id="shape168-335" transform="translate(663.925 -180.468)"><path d="M16.81 843.61c-9.94-2.27-17.39-5.99-16.77-8.27.41-2.27 8.9-2.27 18.63 0 9.73 2.28 17.18 6 16.77 8.27-.62 2.28-8.9 2.28-18.63 0z" class="st13"/></g><g id="shape169-337" transform="translate(665.887 -197.476)"><path d="M8.43 827.12c.62 9.93-.83 18.2-3.11 18.2-2.28.21-4.55-7.86-5.18-17.78-.62-10.14.83-18.2 3.11-18.41 2.28-.2 4.76 7.86 5.18 17.99z" class="st13"/></g><g id="shape170-339" transform="translate(629.863 -223.323)"><path d="M8.43 826.92c.62 10.13-.83 18.4-3.11 18.4-2.28.21-4.55-7.86-5.18-17.78-.62-10.14.83-18.2 3.11-18.41 2.28-.2 4.76 7.86 5.18 17.79z" class="st13"/></g><g id="shape171-341" transform="translate(638.624 -256.822)"><path d="M8.57 826.92c.41 10.13-.83 18.19-3.32 18.4-2.27.21-4.55-7.86-5.17-17.78-.42-10.14.83-18.41 3.31-18.41 2.28-.2 4.56 7.86 5.18 17.79z" class="st13"/></g><g id="shape172-343" transform="translate(998.529 -234.076)"><path d="M0 636.26h143.48v209.06" stroke="#fff" stroke-linecap="round" stroke-linejoin="round" stroke-width="4.552"/></g><g id="shape173-346" transform="translate(1135.38 -332.297)"><path d="M12.42 839.12c0 3.51-2.69 6.2-6.21 6.2-3.31 0-6.21-2.69-6.21-6.2 0-3.31 2.9-6 6.21-6 3.52 0 6.21 2.69 6.21 6z" class="st18"/></g><g id="shape174-348" transform="translate(1135.38 -332.297)"><path d="M12.42 839.12c0 3.51-2.69 6.2-6.21 6.2-3.31 0-6.21-2.69-6.21-6.2 0-3.31 2.9-6 6.21-6 3.52 0 6.21 2.69 6.21 6" class="st19"/></g><g id="shape175-351" transform="translate(1135.38 -227.872)"><path d="M12.42 839.12c0 3.51-2.69 6.2-6.21 6.2-3.31 0-6.21-2.69-6.21-6.2 0-3.31 2.9-6 6.21-6 3.52 0 6.21 2.69 6.21 6z" class="st18"/></g><g id="shape176-353" transform="translate(1135.38 -227.872)"><path d="M12.42 839.12c0 3.51-2.69 6.2-6.21 6.2-3.31 0-6.21-2.69-6.21-6.2 0-3.31 2.9-6 6.21-6 3.52 0 6.21 2.69 6.21 6" class="st19"/></g><g id="shape177-356" transform="translate(1096.66 -336.846)"><path d="M1.66 842.01h3.31c.83 0 1.66.83 1.66 1.66 0 1.03-.83 1.65-1.66 1.65H1.66c-1.04 0-1.66-.62-1.66-1.65 0-.83.62-1.66 1.66-1.66zm9.93 0h3.32c.82 0 1.65.83 1.65 1.66 0 1.03-.83 1.65-1.65 1.65h-3.32c-1.03 0-1.65-.62-1.65-1.65 0-.83.62-1.66 1.65-1.66zm9.94 0h3.31c.83 0 1.66.83 1.66 1.66 0 1.03-.83 1.65-1.66 1.65h-3.31c-1.03 0-1.65-.62-1.65-1.65 0-.83.62-1.66 1.65-1.66zm9.94 0h3.31c.83 0 1.66.83 1.66 1.66 0 1.03-.83 1.65-1.66 1.65h-3.31c-1.04 0-1.66-.62-1.66-1.65 0-.83.62-1.66 1.66-1.66z" class="st20"/></g><g id="shape178-358" transform="translate(1096.66 -232.422)"><path d="M1.66 842.01h3.31c.83 0 1.66.83 1.66 1.66 0 1.03-.83 1.65-1.66 1.65H1.66c-1.04 0-1.66-.62-1.66-1.65 0-.83.62-1.66 1.66-1.66zm9.93 0h3.32c.82 0 1.65.83 1.65 1.66 0 1.03-.83 1.65-1.65 1.65h-3.32c-1.03 0-1.65-.62-1.65-1.65 0-.83.62-1.66 1.65-1.66zm9.94 0h3.31c.83 0 1.66.83 1.66 1.66 0 1.03-.83 1.65-1.66 1.65h-3.31c-1.03 0-1.65-.62-1.65-1.65 0-.83.62-1.66 1.65-1.66zm9.94 0h3.31c.83 0 1.66.83 1.66 1.66 0 1.03-.83 1.65-1.66 1.65h-3.31c-1.04 0-1.66-.62-1.66-1.65 0-.83.62-1.66 1.66-1.66z" class="st20"/></g><g id="shape179-360" transform="translate(766.443 -516.745)"><path d="M0 787.63v57.69h331.26v-57.69H0z" class="st18"/></g><g id="shape180-362" transform="translate(779.48 -517.323)"><path d="M306 789.73H0v55.59h306v-55.59" class="st3"/><text y="831.42" class="st21">Gluten content</text></g><g id="shape181-366" transform="translate(860.23 -414.389)"><path d="M0 787.63v57.69h139.13v-57.69H0z" class="st18"/></g><g id="shape182-368" transform="translate(860.693 -413.739)"><path d="M134.79 789.73H0v55.59h134.79v-55.59" class="st3"/><text x="11.45" y="831.42" class="st21">Label</text></g><g id="shape183-372" transform="translate(968.302 -310.998)"><path d="M0 787.63v57.69h128.36v-57.69H0z" class="st18"/></g><g id="shape184-374" transform="translate(969.895 -311.033)"><path d="M124.59 789.73H0v55.59h124.59v-55.59" class="st3"/><text x="6.28" y="831.42" class="st21">Local</text></g><g id="shape186-378" transform="translate(39.13 -257.029)"><path d="M0 787.63v57.69h289.64v-57.69H0z" class="st18"/></g><g id="shape187-380" transform="translate(43.794 -256.239)"><path d="M276.69 789.73H0v55.59h276.69v-55.59" class="st3"/><text x="2.24" y="831.42" class="st21">Cooking time</text></g><g id="shape188-384" transform="translate(55.485 -468.152)"><path d="M0 787.63v57.69h266.04v-57.69H0z" class="st18"/></g><g id="shape189-386" transform="translate(50.48 -469.326)"><path d="M270 789.73H0v55.59h270v-55.59" class="st3"/><text x="13.29" y="831.42" class="st21">Price per oz</text></g><g id="shape190-390" transform="translate(101.24 -362.073)"><path d="M0 787.63v57.69h174.53v-57.69H0z" class="st18"/></g><g id="shape191-392" transform="translate(104.48 -361.326)"><path d="M166.37 789.73H0v55.59h166.37v-55.59" class="st3"/><text x="1.71" y="831.42" class="st21">Recipes</text></g><g id="shape192-396" transform="translate(909.09 -206.161)"><path d="M0 787.63v57.69h187.99v-57.69H0z" class="st18"/></g><g id="shape193-398" transform="translate(920.684 -206.325)"><path d="M168.17 789.73H0v55.59h168.17v-55.59" class="st3"/><text x="4.21" y="831.42" class="st21">Organic</text></g></svg>