<svg xmlns="http://www.w3.org/2000/svg" viewBox="0 0 1193 845" color-interpolation-filters="sRGB" fill="none" fill-rule="evenodd" font-size="12" overflow="visible" stroke-linecap="square" stroke-miterlimit="3"><style>.st10,.st2,.st7,.st8,.st9{stroke:none;stroke-linecap:round;stroke-linejoin:round;stroke-width:.75}.st10,.st7,.st8,.st9{fill:#6fa08b}.st10,.st8,.st9{fill:#2f9f4b}.st10,.st9{fill:#d2b373}.st10{fill:#2b7a4a}.st11,.st12,.st13,.st14,.st15,.st16,.st18,.st19{stroke:#000;stroke-linecap:round;stroke-linejoin:round;stroke-width:.206908}.st12,.st13,.st14,.st15,.st16,.st18,.st19{fill:#6caf42;stroke:none;stroke-width:.75}.st13,.st14,.st15,.st16,.st18,.st19{fill:#32935d}.st14,.st15,.st16,.st18,.st19{fill:#6baf40}.st15,.st16,.st18,.st19{fill:#33945e}.st16,.st18,.st19{fill:#2a794a}.st18,.st19{fill:#f9f9f9;stroke:#f9f9f9;stroke-width:3.31053}.st19{fill:#fff;stroke:none;stroke-width:.75}.st20{fill:#000;font-family:Roboto;font-size:3.85991em}</style><g id="group275-1"><g id="shape4-2"><path d="M0 0v845.32h1192.52V0H0z" fill="#d0e5fa" stroke-linecap="round" stroke-linejoin="round" stroke-width=".75"/></g><g id="shape5-4" transform="translate(356.48 -706.9)"><path d="M522 714.3H0v131.02h522V714.3" class="st2"/><text x="62.56" y="812.56" fill="#000" font-family="Merriweather" font-size="9.098em">Farmer</text></g><g id="shape7-8"><path d="M0 0l1192.52 845.32H0V0z" fill="#bedcf8" stroke-linecap="round" stroke-linejoin="round" stroke-width=".75"/></g><g id="shape8-10" transform="translate(222.977 -88.916)"><path d="M2.07 725.8c32.92 19.02 67.91 23.57 113.25 13.44-49.28-8.06-72.88-16.33 40.16-25.43l145.96.62c123.19-24.82 218.63-16.54 325.88-22.33 6.21 3.92 3.93 5.79 3.31 8.06-5.38 4.14-9.73 1.03-14.7 1.45 8.49 8.48 14.91 10.54 25.88 26.88l-3.31 5.58-49.69-3.72-38.93-1.86c16.77 9.51 45.76 9.92 49.69 28.74 10.56 4.55 20.71 2.07 30.85 0 3.11 3.72 3.11 6.2 1.24 8.07l-18.84 4.34c19.05 2.07 55.07 5.37 82.2 9.1v5.79c-35.82-3.11-72.88-1.66-107.46-9.1l1.87 7.03-68.74-.41-1.45 5.79-29.81-.63c-5.18.63-10.35 1.25-12.21 6.21l1.44 5.17c51.14-2.48 102.69-8.07 153.42-2.28 2.9 1.66 1.24 3.52.41 5.17-38.51 2.9-77.02 7.86-115.11 16.55l-2.28-7.66 10.35-2.27c-9.11-5.79-34.36-3.52-51.55-5.17-18.01 5.79-36.44 6.62-55.48 0-12.63 1.86-19.88 5.17-25.47 8.89 29.82 7.65 66.25-1.24 99.38-1.86v6.62c-53.42 4.13-107.04 6.2-159.63 14.27-67.07 20.88-131.88 23.15-191.3-19.03-41.4 3.93-82.81 4.34-124.42-2.48l-.21-4.14c40.16 3.52 79.71 3.73 118.63 1.04l-17.6-21.51-49.89-6.41c-1.87-1.24-5.59-2.27 0-4.13l47.62 3.93 1.65-6.21-25.46-5.37c-29.61-.83-59.22-3.93-88.82-9.1l2.07-7.24c35.61 6.62 71.43 6.82 107.04 6l31.26-2.48-2.9-7.86C92.54 747.93 43.06 761.57 0 729.94l2.07-4.14z" fill="#92c4cb" stroke-linecap="round" stroke-linejoin="round" stroke-width=".75"/></g><g id="shape9-12" transform="translate(327.529 -126.69)"><path d="M301.65 765.85l-96.27 2.48c-3.73 4.55-4.56 8.89 6.21 11.79 2.28 4.34 11.18 2.48 16.98 3.31l-21.12 1.44-2.49-5.17-6.21-4.75c0 3.1-3.93 6.2 1.87 9.92l27.12 4.76c-4.76 1.03-2.49 2.69-1.87 4.14l-23.8-2.28c-29.82.41-57.56-1.03-89.44 1.66-4.35 1.65-5.8 4.34-6.84-.83l3.52-3.52 41 .21c14.08-1.03 33.74-1.24 40.78-3.52l-1.03-8.68c-26.71 2.07-56.11 2.07-79.5 7.03 0-4.96.62-7.65-4.35-6.41-31.26 3.52-63.15 12.61-93.37 8.27l-.62 3.1-10.98-2.27L0 790.87c13.66 2.28 27.12 6.82 40.79 6.2l26.7 6.21C53 804.52 41.82 807 18.63 805.35l-1.24 5.99 6.83.62 1.45 4.96 52.59.42-.62-5.79c0-2.69 3.72-3.52 12.63-1.86 29.4 9.92 59.42 2.07 89.23 2.48 1.24-3.93 1.03-5.79-1.24-7.45l-62.94 2.69c-8.9-1.44 49.07-7.85 82.61-9.1l2.27-2.06 14.5 1.86-14.08 3.31v1.65c14.7 3.93 21.94-1.45 32.29-3.1l2.9 13.23c-10.76-7.23 5.39 5.59-16.56 1.45l-1.04 6.2c3.52.21 8.49-.82 9.94 1.86-2.07 4.14 1.45 4.97 2.9 7.04 18.84 10.54 44.1 21.71 73.91 10.95 21.74 2.69 43.89 8.9 64.39 0 6.63-3.92 7.45-12.61-5.18-12.82l-44.09 3.73-24.23-8.07-61.07-1.86 77.22-1.86c-1.45 2.89-.62 4.14 1.45 4.76l4.35-2.28 13.25 4.55c2.07-1.03 6-1.03 4.55-5.17 12.01-3.31 23.81 0 35.61 0l1.04 3.93c6.42 1.45 4.97-1.65 5.59-3.31l15.11 5.17c7.25 0 7.46-6 1.45-9.51-12.63-4.34-21.53-11.37-37.89-13.24l62.11-1.86c-.62-2.68.83-5.37-5.17-8.06-19.46-1.65-24.43.83-59.21-5.17l-3.32 1.24c-10.14 0-19.87-3.72-30.43.62l-.83-5.17c30.64-1.65 18.01-20.47 4.76-11.99-2.48-6.41-6-12-22.77-8.48zm-99.79 46.94c-47.83-1.24-98.96 12.82-141.2 6.62-.21 2.06-2.28 4.13 1.04 5.99 44.72 9.51 93.16 3.73 142.23-4.96 1.66-2.69 2.69-5.58-2.07-7.65zm95.44-10.34l24.02.83 3.1 2.89-13.87 2.48c-2.9-2.48-7.45-4.55-13.25-6.2z" fill="#6db5a7" stroke-linecap="round" stroke-linejoin="round" stroke-width=".75"/></g><g id="shape10-14" transform="translate(496.884 -243.588)"><path d="M11.39 842.01c4.76-55 11.8-119.31 20.08-189 .83-2.48-6.21-8.68-8.08-2.68C8.9 717.53 2.07 782.46 0 845.32l11.39-3.31z" class="st7"/></g><g id="shape11-16" transform="translate(509.099 -243.588)"><path d="M5.18 842.01c2.27-55 16.97-129.24 20.7-199.13.41-2.48-2.69-8.48-3.73-2.69C15.53 707.6.83 782.46 0 845.32l5.18-3.31z" class="st7"/></g><g id="shape12-18" transform="translate(497.081 -243.588)"><path d="M20.92 842.01c-2.28-55-16.98-129.24-20.91-199.13-.21-2.48 2.9-8.48 3.93-2.69 6.63 67.41 21.33 142.27 22.16 205.13l-5.18-3.31z" class="st7"/></g><g id="shape13-20" transform="translate(485.256 -243.588)"><path d="M23.01 842.63C20.53 796.73 4.38 734.9.03 676.79c-.41-2.06 3.11-7.23 4.14-2.27 7.46 56.04 23.61 118.48 24.64 170.8l-5.8-2.69z" class="st7"/></g><g id="shape14-22" transform="translate(474.074 -243.588)"><path d="M20.74 842.84C18.46 801.9 3.97 746.48.04 694.58c-.42-1.86 2.89-6.41 3.72-2.07 6.83 50.25 21.33 105.87 22.16 152.81l-5.18-2.48z" class="st7"/></g><g id="shape15-24" transform="translate(480.697 -243.588)"><path d="M20.53 842.22C18.26 789.7 3.76 718.77.04 652.39c-.42-2.48 2.69-8.27 3.72-2.68 6.63 64.3 21.12 135.64 22.16 195.61l-5.39-3.1z" class="st7"/></g><g id="shape16-26" transform="translate(471.064 -179.991)"><path d="M8.64 844.17c-.42 1.04 2.89 2.07 2.89 0-7.04-130.89-4.34-216.5 40.58-256.82 19.26-2.07 25.26 6.82 31.06 15.51 2.9-1.04 3.93-2.9.21-7.03 4.76 3.51 11.8 4.96 7.03-2.69-6.62-9.93-16.35-16.75-29.6-20.06-13.87 5.38-19.67 13.65-25.47 21.92-37.26 38.88-43.06 118.49-26.7 249.17z" class="st8"/></g><g id="shape17-28" transform="translate(500.61 -428.863)"><path d="M36.85 845.32c-1.45.21-3.52-1.03-4.55-2.89-.42-.42-.62 0-1.04-.42-.41 1.45-1.45 1.86-2.69 0-.83.42-2.28 1.24-2.48.21.2 1.24-.42 1.45-1.87 1.45l-3.1-10.55c-.42 6.41-4.97 3.52-7.66.62-2.69 3.31-5.39 4.76-8.08 1.86-2.48 1.24-4.55 1.45-5.38-1.86.83-5.17 1.04-10.55 3.52-15.51 1.66-.62 3.73-.62 4.55-2.69 2.49-2.27 4.56-3.72 5.59.62 2.28 0 4.77-.82 6.63.42 3.93-2.69 5.38-1.45 5.8 1.45 2.27-1.66 3.72-3.93 7.24-2.49 1.24-1.03 3.32 0 5.18.62l-2.49 15.1c-.82.62-1.65.83-2.27.21l-1.25-6.62-1.86 2.69c2.49 1.03 3.11 2.06 1.24 3.1l4.77 4.75c1.65-1.65 4.34-1.44 7.45-.41l.62-1.24-5.59-1.65c-1.45.2-2.48-.21-2.07-2.28-.21-3.31.41-6.2 3.1-8.68 3.52-2.48 4.56-1.04 4.77 1.24 4.34-1.24 8.69-2.07 13.04-1.86 2.69 1.86.41 3.93-.41 5.79 2.48.62 1.65 2.27 1.24 3.93 3.72-.42 7.04.62 10.35 2.48 10.56 2.27 7.45 8.47-1.24 6.61-1.87 1.45-1.87 3.73-7.46 3.31-3.93-.62-6-1.86-6.41-3.72.62 2.07-3.52.21-5.39.21l2.49 2.48c2.27 1.86 1.24 3.72-.83 3.72-4.14 0-7.66-1.45-11.39-2.69 0 1.86-.83 2.69-2.07 2.69zm-18.84-16.34l2.49-1.86.2-1.24c1.66-.41 3.52-.41 5.39-.2v-.83c-1.25.41-2.49 0-3.73-1.24-3.31-.62-4.97-1.45-7.25-2.28l-1.45 4.97c3.73-1.24 4.14.41 4.35 2.68z" class="st9"/></g><g id="shape18-30" transform="translate(453.199 -161.815)"><path d="M20.91 842.54c0 3.51-4.97 3.93-4.97 0l-7.87-63.07L0 722.6v-61.82l12.01 80.85 8.9 100.91z" class="st10"/></g><g id="shape19-32" transform="translate(453.199 -161.815)"><path d="M20.91 842.54c0 3.51-4.97 3.93-4.97 0l-7.87-63.07L0 722.6v-61.82l12.01 80.85 8.9 100.91" class="st11"/></g><g id="shape20-35" transform="translate(398.917 -213.076)"><path d="M83.47 844.17c.21 1.04-3.1 2.07-3.1 0 7.24-130.89 4.35-216.5-40.58-257.03-19.25-1.86-25.05 7.03-31.06 15.72-2.89-1.04-3.72-3.1 0-7.24-4.96 3.52-11.8 5.17-7.24-2.48 6.83-10.13 16.56-16.96 29.81-20.06 13.87 5.38 19.67 13.65 25.26 21.92 37.27 38.88 43.27 118.49 26.91 249.17z" class="st8"/></g><g id="shape21-37" transform="translate(385.416 -461.948)"><path d="M38.8 845.32c1.65.21 3.73-1.03 4.55-3.1.42-.21.83 0 1.25-.21.41 1.45 1.44 1.86 2.48 0 1.04.42 2.48 1.24 2.48.21-.2 1.24.63 1.45 1.87 1.45l3.1-10.55c.62 6.41 5.18 3.31 7.66.62 2.9 3.31 5.59 4.55 8.08 1.86 2.69 1.24 4.76 1.24 5.38-1.86-.83-5.17-1.03-10.55-3.31-15.51-1.87-.62-3.73-.62-4.76-2.69-2.28-2.27-4.56-3.72-5.59.62-2.07 0-4.56-.82-6.63.42-3.73-2.9-5.17-1.45-5.8 1.24-2.07-1.45-3.72-3.72-7.03-2.28-1.45-1.03-3.32-.2-5.18.62l2.48 14.89c.83.83 1.45 1.04 2.07.42l1.25-6.62 2.07 2.69c-2.49.82-3.11 1.86-1.25 3.1l-4.76 4.75c-1.86-1.65-4.35-1.65-7.66-.41l-.41-1.24 5.38-1.86c1.66.41 2.49 0 2.28-2.07.21-3.31-.62-6.2-3.11-8.68-3.52-2.48-4.55-1.04-4.97 1.24-4.34-1.24-8.48-2.28-12.83-1.86-2.69 1.86-.42 3.72.41 5.79-2.48.41-1.65 2.27-1.24 3.72-3.73-.21-7.04.83-10.35 2.48-10.56 2.48-7.46 8.68 1.03 6.62 1.87 1.65 2.07 3.93 7.66 3.31 3.73-.42 5.8-1.66 6.42-3.52-.62 1.86 3.52.21 5.38.21l-2.48 2.48c-2.28 1.86-1.24 3.72.83 3.72 3.93 0 7.66-1.45 11.39-2.69-.21 1.86.82 2.69 1.86 2.69zm19.05-16.54l-2.49-1.86-.21-1.04c-1.65-.62-3.52-.41-5.38-.2v-.83c1.04.41 2.28-.21 3.52-1.24 3.31-.62 5.18-1.45 7.25-2.28l1.65 4.76c-3.72-1.03-4.34.62-4.34 2.69z" class="st9"/></g><g id="shape22-39" transform="translate(490.673 -172.042)"><path d="M10.77 793.42c1.03-2.9-3.52-2.48-4.35 0L0 844.08l4.97 1.24 5.8-51.9" class="st11"/></g><g id="shape23-42" transform="translate(487.218 -179.67)"><path d="M5.11 843.85c-.62 1.24 3.93 2.69 3.93 0-9.52-175.76 39.13-290.73 99.59-344.91 25.88-2.69 33.75 9.1 41.61 21.09 3.94-1.45 5.18-4.13.21-9.72 6.42 4.76 15.73 6.83 9.52-3.51-8.9-13.44-21.94-22.54-39.75-26.88-18.84 7.23-26.5 18.19-34.16 29.36-50.1 52.31-102.89 159.01-80.95 334.57z" class="st8"/></g><g id="shape24-44" transform="translate(543.673 -494.385)"><path d="M60.25 793.18c-2.49-.2-5.8 1.86-7.46 4.97-.62.41-1.24 0-1.86.41-.62-2.28-2.28-3.1-4.14 0-1.66-.62-3.93-2.07-4.14-.21.41-2.07-.83-2.48-3.11-2.27l-4.97 16.95c-.82-10.33-8.28-5.37-12.42-.82-4.55-5.59-9.11-7.65-13.25-3.1-4.14-1.87-7.66-2.28-8.9 2.89 1.45 8.69 1.86 17.37 5.8 25.64 2.69 1.03 6 .83 7.45 4.14 3.93 3.93 7.45 5.99 9.11-.83 3.73 0 7.66 1.24 10.97-.62 6.01 4.34 8.49 2.27 9.32-2.28 3.52 2.49 6.21 6.21 11.59 3.73 2.28 1.65 5.59.2 8.49-.83l-3.93-24.61c-1.45-1.24-2.69-1.65-3.52-.62l-2.07 10.75-3.11-4.13c3.94-1.65 4.97-3.31 1.87-5.17l7.86-7.65c2.9 2.48 7.04 2.48 12.22.62l1.03 1.86-9.11 2.9c-2.48-.21-4.14.2-3.52 3.51-.2 5.38.83 10.34 4.97 14.27 5.8 3.93 7.46 1.86 8.08-1.86 7.04 2.07 14.08 3.51 21.11 2.89 4.35-2.89.63-6.2-.82-9.51 4.14-.83 2.69-3.51 2.27-6.2 6.01.62 11.39-1.24 16.77-3.93 17.19-3.93 12.22-14.06-1.86-10.96-3.1-2.28-3.31-6.2-12.42-5.38-6.21.83-9.53 2.9-10.35 6 .82-3.31-5.8-.41-8.91-.41l4.15-3.93c3.72-3.11 2.07-6-1.45-6-6.63-.21-12.43 2.27-18.43 4.14.21-3.11-1.45-4.35-3.31-4.35zM29.4 820.06l4.14 3.11.21 1.65c2.69 1.03 5.79.83 8.69.41v1.45c-1.86-.83-3.72.21-5.79 2.07-5.39.83-8.29 2.27-12.01 3.72l-2.49-8.06c6.21 1.86 7.04-.83 7.25-4.35z" class="st9"/></g><g id="shape25-46" transform="translate(515.513 -160.178)"><path d="M5.59 841.93c0 6.41-5.59 3.52-5.59-2.68-.2-27.71 8.08-53.97 19.67-80.24 6.83-15.5 18.84-30.81 19.46-46.93l3.32-.83c0 18.4-6.42 30.81-17.39 49.63-15.53 38.87-17.19 72.58-19.47 81.05z" class="st12"/></g><g id="shape26-48" transform="translate(515.513 -160.178)"><path d="M5.59 841.93c0 6.41-5.59 3.52-5.59-2.68-.2-27.71 8.08-53.97 19.67-80.24 6.83-15.5 18.84-30.81 19.46-46.93l3.32-.83c0 18.4-6.42 30.81-17.39 49.63-15.53 38.87-17.19 72.58-19.47 81.05" class="st11"/></g><g id="shape27-51" transform="translate(506.201 -163.745)"><path d="M6 841.99c0 6.41-5.38 3.3-5.38-2.49-2.69-14.88 4.35-20.05 2.69-51.07-1.45-29.16 20.91-56.45 30.44-75.27 15.32-21.71 27.95-34.53 39.75-40.11l-30.44 41.77C-.62 789.26 17.8 794.84 6 841.99z" class="st13"/></g><g id="shape28-53" transform="translate(506.201 -163.745)"><path d="M6 841.99c0 6.41-5.38 3.3-5.38-2.49-2.69-14.88 4.35-20.05 2.69-51.07-1.45-29.16 20.91-56.45 30.44-75.27 15.32-21.71 27.95-34.53 39.75-40.11l-30.44 41.77C-.62 789.26 17.8 794.84 6 841.99" class="st11"/></g><g id="shape29-56" transform="translate(493.778 -165.304)"><path d="M5.38 797.64c-.83.21-2.07-.83-2.9 1.65L0 842.51c0 3.52 4.14 4.76 6-1.24 4.56-18.2 8.91-43.63 1.87-49.21-2.9-.83-4.97-.42-2.49 5.58" class="st11"/></g><g id="shape30-59" transform="translate(498.747 -173.076)"><path d="M5.38 845.32L0 844.7c2.69-28.33 2.48-59.35 7.87-85.19h3.93c-3.93 21.71 2.07 76.5-6.42 85.81" class="st11"/></g><g id="shape31-62" transform="translate(493.364 -180.313)"><path d="M53 659.22c.21-1.45-2.48-1.24-2.9-.62C29.4 723.11 16.77 783.08 0 845.32l10.77-.41C24.84 782.87 36.85 723.11 53 659.22z" class="st12"/></g><g id="shape32-64" transform="translate(493.364 -180.313)"><path d="M53 659.22c.21-1.45-2.48-1.24-2.9-.62C29.4 723.11 16.77 783.08 0 845.32l10.77-.41C24.84 782.87 36.85 723.11 53 659.22" class="st11"/></g><g id="shape33-67" transform="translate(478.25 -169.354)"><path d="M8.9 844.7l-3.72.62C3.52 819.68 6 791.14 0 764.88h2.69c6.42 24.61 4.76 53.77 6.21 79.82z" class="st14"/></g><g id="shape34-69" transform="translate(478.25 -169.354)"><path d="M8.9 844.7l-3.72.62C3.52 819.68 6 791.14 0 764.88h2.69c6.42 24.61 4.76 53.77 6.21 79.82" class="st11"/></g><g id="shape35-72" transform="translate(474.11 -169.354)"><path d="M13.04 844.7l-3.72.62C7.66 819.68 6 794.25 0 767.78h3.93c6.63 24.81 7.66 50.87 9.11 76.92z" class="st15"/></g><g id="shape36-74" transform="translate(474.11 -169.354)"><path d="M13.04 844.7l-3.72.62C7.66 819.68 6 794.25 0 767.78h3.93c6.63 24.81 7.66 50.87 9.11 76.92" class="st11"/></g><g id="shape37-77" transform="translate(487.36 -193.547)"><path d="M4.97 845.32l-3.52-2.27 1.03-50.46L0 726.83l5.38 23.78 4.35-22.12 1.66 26.05 1.65-1.24 15.74-77.95-10.35 92.63 14.07-86.22-9.31 98.22-7.66-10.13-10.56 75.47z" class="st16"/></g><g id="shape38-79" transform="translate(487.36 -193.547)"><path d="M4.97 845.32l-3.52-2.27 1.03-50.46L0 726.83l5.38 23.78 4.35-22.12 1.66 26.05 1.65-1.24 15.74-77.95-10.35 92.63 14.07-86.22-9.31 98.22-7.66-10.13-10.56 75.47" class="st11"/></g><g id="shape39-82" transform="translate(391.952 -179.256)"><path d="M111.97 843.85c.41 1.24-3.93 2.69-3.93 0 9.52-175.76 5.79-290.73-54.45-344.91-25.88-2.69-33.75 9.1-41.82 21.09-3.94-1.45-4.97-4.13-.21-9.72-6.42 4.55-15.74 6.62-9.53-3.51 8.91-13.44 22.16-22.75 39.76-26.88 18.84 7.03 26.5 18.19 34.16 29.36 50.1 52.31 57.97 159.01 36.02 334.57z" class="st8"/></g><g id="shape40-84" transform="translate(373.795 -494.016)"><path d="M63.46 793.02c2.69 0 6.01 2.07 7.46 5.17.62.41 1.24 0 1.86.41.62-2.27 2.48-3.1 4.35 0 1.45-.82 3.72-2.06 3.93-.2-.41-2.07 1.04-2.69 3.11-2.28l4.97 16.96c1.03-10.34 8.28-5.58 12.62-.83 4.56-5.58 8.91-7.65 13.25-3.1 3.94-1.86 7.46-2.27 8.7 2.89-1.45 8.69-1.86 17.37-5.59 25.44-2.9 1.03-6.21 1.03-7.66 4.34-3.93 3.93-7.45 6-9.11-1.03-3.52 0-7.45 1.44-10.77-.42-6.21 4.35-8.69 2.28-9.52-2.48-3.52 2.69-6 6.41-11.59 3.93-2.28 1.66-5.39.21-8.49-1.03l3.93-24.4c1.45-1.24 2.69-1.66 3.52-.62l2.28 10.75 3.1-4.14c-4.14-1.65-5.17-3.3-1.86-5.37l-7.87-7.45c-2.89 2.48-7.24 2.48-12.42.62l-.83 1.86 8.91 2.9c2.48-.41 4.14.21 3.52 3.52.41 5.37-.83 10.33-4.97 14.26-5.8 3.93-7.46 1.86-8.08-1.86-7.04 1.86-13.87 3.31-20.91 2.9-4.55-2.9-.83-6.21.62-9.52-4.14-.82-2.69-3.72-2.07-6.2-6 .62-11.59-1.24-16.77-4.13-17.39-3.73-12.42-13.86 1.87-10.76 2.89-2.27 3.1-6.41 12.21-5.37 6.21.82 9.53 2.89 10.35 5.99-.82-3.3 5.8-.41 8.91-.41l-4.14-4.14c-3.73-2.89-2.08-5.79 1.44-5.79 6.63-.2 12.43 2.28 18.43 4.14 0-3.1 1.45-4.34 3.31-4.55zm31.06 27.09L90.38 823l-.42 1.87c-2.69 1.03-5.59.82-8.69.41v1.45c1.86-.83 3.93.2 6 2.06 5.18.83 8.28 2.28 11.8 3.73l2.49-8.07c-6.01 1.86-6.83-1.03-7.04-4.34z" class="st9"/></g><g id="shape41-86" transform="translate(456.098 -161.567)"><path d="M12.84 840.64c-2.28 6.61-5.8 6.61-5.8-1.25 2.48-29.36-2.69-63.27-7.04-96.77l4.35-.62 8.69 28.95v-14.68l4.14-.62c6.01 28.53 6.01 56.86-4.34 84.99z" class="st14"/></g><g id="shape42-88" transform="translate(456.098 -161.567)"><path d="M12.84 840.64c-2.28 6.61-5.8 6.61-5.8-1.25 2.48-29.36-2.69-63.27-7.04-96.77l4.35-.62 8.69 28.95v-14.68l4.14-.62c6.01 28.53 6.01 56.86-4.34 84.99" class="st11"/></g><g id="shape43-91" transform="translate(452.164 -291.354)"><path d="M9.52 841.8c3.94-59.75 9.73-129.23 16.77-204.91.62-2.69-5.17-9.31-6.62-2.9C7.45 706.98 1.66 777.08 0 845.32l9.52-3.52z" class="st7"/></g><g id="shape44-93" transform="translate(462.309 -291.354)"><path d="M4.55 841.8c1.87-59.75 14.08-140.19 17.4-215.67.2-2.69-2.49-9.51-3.11-3.1C13.04 696.02.83 777.08 0 845.32l4.55-3.52z" class="st7"/></g><g id="shape45-95" transform="translate(452.36 -291.354)"><path d="M17.4 841.8C15.54 782.05 3.32 701.61.01 626.13c-.21-2.69 2.49-9.51 3.11-3.1 5.79 72.99 18.01 154.05 18.63 222.29l-4.35-3.52z" class="st7"/></g><g id="shape46-97" transform="translate(442.603 -291.354)"><path d="M19.29 842.43C17.22 792.59 3.56 725.59.04 662.73c-.42-2.27 2.69-7.86 3.52-2.48 6.21 60.79 19.87 128.21 20.7 185.07l-4.97-2.89z" class="st7"/></g><g id="shape47-99" transform="translate(433.106 -291.354)"><path d="M17.2 842.84C15.54 798.17 3.32 738.21.01 681.96c-.21-2.06 2.49-7.03 3.11-2.27 5.59 54.38 17.8 114.76 18.63 165.63l-4.55-2.48z" class="st7"/></g><g id="shape48-101" transform="translate(438.488 -291.354)"><path d="M17.4 842.01C15.54 784.94 3.32 708.22.01 636.06c-.21-2.48 2.49-8.89 3.11-2.69 5.59 69.68 17.8 146.81 18.63 211.95l-4.35-3.31z" class="st7"/></g><g id="shape49-103" transform="translate(430.555 -222.496)"><path d="M7.32 844.08c-.41 1.03 2.49 2.27 2.49 0C3.8 702.23 6.08 609.59 43.76 565.75c16.15-2.27 20.91 7.45 25.88 16.96 2.49-1.04 3.31-3.31.21-7.86 4.14 3.93 9.94 5.58 6-2.69-5.59-10.96-13.87-18.4-24.84-21.71-11.8 5.79-16.57 14.68-21.33 23.78-31.26 42.18-36.23 128.2-22.36 269.85z" class="st8"/></g><g id="shape50-105" transform="translate(455.477 -491.932)"><path d="M30.85 845.32c-1.24 0-2.9-1.45-3.73-3.31-.41-.41-.62-.21-1.03-.41-.21 1.45-1.25 2.07-2.07 0-.83.41-2.07 1.24-2.07.2.2 1.25-.42 1.66-1.66 1.45l-2.49-11.16c-.41 6.82-4.34 3.51-6.41.41-2.28 3.72-4.56 5.17-6.84 2.07-2.07 1.24-3.93 1.44-4.55-1.86.83-5.79 1.04-11.58 2.9-16.96 1.45-.62 3.1-.62 3.93-2.89 2.07-2.49 3.73-3.93 4.56.62 2.07 0 3.93-.83 5.59.41 3.31-2.9 4.55-1.45 4.97 1.65 1.86-1.86 3.1-4.34 6-2.68 1.03-1.04 2.69 0 4.35.62l-2.07 16.33c-.83.83-1.45 1.04-1.87.42l-1.03-7.24-1.66 2.89c2.07 1.04 2.69 2.07 1.04 3.52l3.93 4.96c1.45-1.65 3.73-1.65 6.42-.41l.41-1.24-4.55-2.07c-1.24.41-2.28 0-1.86-2.28-.21-3.51.41-6.82 2.48-9.51 3.11-2.48 3.93-1.03 4.14 1.45 3.73-1.45 7.25-2.48 10.77-2.07 2.27 1.86.41 4.14-.21 6.41 2.07.42 1.24 2.28 1.03 3.93 3.11-.21 5.8 1.03 8.7 2.69 8.7 2.69 6.21 9.3-1.04 7.24-1.44 1.65-1.65 4.34-6.41 3.72-3.11-.62-4.77-2.07-5.18-4.14.41 2.28-3.1.42-4.55.42l2.07 2.68c1.86 1.87 1.03 3.93-.83 3.93-3.31 0-6.21-1.65-9.32-2.89 0 2.07-.83 2.89-1.86 3.1zm-15.74-17.99l2.07-2.07.21-1.24c1.45-.41 2.9-.41 4.35-.21v-.82c-.83.41-1.86-.21-2.9-1.45-2.69-.62-4.35-1.45-6.21-2.48l-1.24 5.38c3.1-1.25 3.52.62 3.72 2.89z" class="st9"/></g><g id="shape51-107" transform="translate(415.519 -202.811)"><path d="M17.6 842.38c0 3.73-4.14 4.14-4.14 0l-6.63-68.44L0 712.53v-67L10.14 733l7.46 109.38z" class="st10"/></g><g id="shape52-109" transform="translate(415.519 -202.811)"><path d="M17.6 842.38c0 3.73-4.14 4.14-4.14 0l-6.63-68.44L0 712.53v-67L10.14 733l7.46 109.38" class="st11"/></g><g id="shape53-112" transform="translate(370.117 -258.43)"><path d="M69.83 844.03c.42 1.24-2.48 2.28-2.48 0 6-141.85 3.72-234.49-33.96-278.32-16.14-2.07-20.91 7.44-25.88 17.16-2.48-1.24-3.31-3.52-.2-7.86-4.14 3.72-9.94 5.38-6.01-2.89 5.59-10.76 13.88-18.2 24.85-21.72 11.8 5.79 16.56 14.89 21.32 23.78C78.73 616.37 83.7 702.6 69.83 844.03z" class="st8"/></g><g id="shape54-114" transform="translate(358.849 -527.911)"><path d="M32.65 845.32c1.25 0 2.9-1.24 3.73-3.31.41-.21.62 0 1.04-.21.2 1.45 1.24 1.87 2.07 0 .82.42 2.07 1.25 2.07 0-.21 1.45.41 1.66 1.65 1.66l2.49-11.37c.41 6.82 4.34 3.72 6.42.41 2.27 3.93 4.55 5.17 6.83 2.07 2.07 1.44 3.93 1.65 4.55-1.86-.83-5.59-1.03-11.38-2.9-16.96-1.45-.62-3.1-.62-3.93-2.69-2.07-2.69-3.73-4.13-4.55.62-2.08 0-3.94-1.03-5.59.42-3.32-3.11-4.56-1.66-4.97 1.44-1.87-1.65-3.11-4.13-6.01-2.48-1.03-1.24-2.69-.2-4.35.62l2.08 16.13c.82.83 1.44 1.04 1.86.42l1.03-7.04 1.66 2.69c-2.07 1.04-2.69 2.28-1.04 3.52l-3.93 4.96c-1.45-1.65-3.73-1.65-6.42-.41l-.41-1.24 4.55-1.86c1.25.2 2.28-.21 1.87-2.28.2-3.72-.42-7.03-2.49-9.51-3.1-2.69-3.93-1.24-4.14 1.24-3.72-1.24-7.24-2.27-10.76-1.86-2.28 1.86-.42 4.13.2 6.2-2.07.62-1.24 2.48-1.03 4.14-3.11-.42-5.8.82-8.7 2.69-8.69 2.48-6.21 9.3 1.04 7.23 1.45 1.45 1.65 4.14 6.42 3.52 3.1-.62 4.76-1.86 5.17-3.93-.41 2.07 3.11.21 4.56.21l-2.07 2.68c-1.87 2.07-1.04 3.93.82 3.93 3.32.21 6.22-1.44 9.32-2.68 0 2.06.83 2.89 1.86 2.89zm15.74-17.99l-2.07-1.86-.21-1.24c-1.45-.62-2.9-.62-4.35-.21v-1.03c.83.62 1.87 0 2.9-1.24 2.69-.62 4.35-1.66 6.21-2.48l1.25 5.17c-3.11-1.25-3.52.62-3.73 2.89z" class="st9"/></g><g id="shape55-116" transform="translate(447.195 -213.811)"><path d="M9.11 789.28c.83-3.31-3.11-2.89-3.73 0L0 844.08l4.14 1.24 4.97-56.04" class="st11"/></g><g id="shape56-119" transform="translate(444.144 -222.037)"><path d="M4.29 843.62c-.41 1.45 3.32 3.1 3.32 0-8.08-190.45 32.91-314.93 83.43-373.86 21.53-2.89 28.16 10.13 34.78 22.95 3.32-1.65 4.35-4.55.21-10.54 5.38 5.17 13.25 7.44 7.87-3.73-7.46-14.68-18.43-24.6-33.13-29.15-15.73 7.65-22.15 19.85-28.57 31.84-42.03 56.66-86.33 172.25-67.91 362.49z" class="st8"/></g><g id="shape57-121" transform="translate(491.501 -563.09)"><path d="M50.31 788.69c-2.07 0-4.97 2.07-6.21 5.37-.62.42-1.04 0-1.66.62-.41-2.48-1.86-3.3-3.52 0-1.24-.82-3.1-2.27-3.31-.2.41-2.28-.83-2.9-2.69-2.69l-4.14 18.4c-.83-11.16-6.83-5.79-10.35-.82-3.94-6-7.66-8.28-11.18-3.31-3.52-2.07-6.21-2.48-7.25 3.1 1.04 9.3 1.45 18.82 4.55 27.71 2.49 1.03 5.18 1.03 6.42 4.55 3.32 4.13 6.21 6.61 7.66-1.04 2.9 0 6.21 1.45 9.11-.62 5.18 4.76 7.04 2.69 7.87-2.48 2.9 2.69 5.18 6.83 9.73 4.14 1.86 1.86 4.56.2 7.04-1.04l-3.31-26.46c-1.24-1.45-2.07-1.66-2.9-.63l-1.86 11.58-2.49-4.54c3.31-1.66 4.14-3.52 1.45-5.59l6.63-8.27c2.48 2.9 6 2.69 10.35.62l.83 2.07-7.67 3.31c-2.07-.42-3.51.2-2.89 3.72-.42 5.79.62 11.17 4.14 15.51 4.97 4.13 6.21 1.86 6.62-2.07 6.01 2.07 11.8 3.72 17.81 3.1 3.72-3.1.41-6.82-.62-10.34 3.52-.82 2.27-3.93 1.65-6.61 5.18.41 9.73-1.45 14.08-4.35 14.49-4.13 10.35-15.09-1.45-11.78-2.48-2.69-2.69-6.83-10.35-6-5.18 1.03-8.07 3.31-8.7 6.62.83-3.52-4.76-.42-7.45-.42l3.52-4.34c3.11-3.31 1.66-6.62-1.24-6.62-5.59-.2-10.35 2.69-15.53 4.55.21-3.3-1.03-4.75-2.69-4.75zm-25.88 29.15l3.52 3.31.21 2.07c2.27.83 4.76.83 7.24.41v1.45c-1.45-.83-3.1.21-4.97 2.07-4.34 1.03-6.83 2.69-9.93 4.13l-2.07-8.68c5.17 2.07 5.79-1.03 6-4.76z" class="st9"/></g><g id="shape58-123" transform="translate(467.881 -201.017)"><path d="M4.57 841.62c0 7.03-4.55 3.73-4.55-2.68-.42-30.19 6.62-58.73 16.35-87.06 5.8-16.75 15.94-33.29 16.36-50.87l2.69-.82c0 19.85-5.38 33.29-14.49 53.55-13.05 42.19-14.49 78.79-16.36 87.88z" class="st12"/></g><g id="shape59-125" transform="translate(467.881 -201.017)"><path d="M4.57 841.62c0 7.03-4.55 3.73-4.55-2.68-.42-30.19 6.62-58.73 16.35-87.06 5.8-16.75 15.94-33.29 16.36-50.87l2.69-.82c0 19.85-5.38 33.29-14.49 53.55-13.05 42.19-14.49 78.79-16.36 87.88" class="st11"/></g><g id="shape60-128" transform="translate(460.131 -204.816)"><path d="M5.08 841.7c0 6.83-4.56 3.72-4.56-2.69-2.28-16.13 3.73-21.71 2.28-55.21-1.24-31.63 17.6-61.2 25.46-81.68 12.84-23.57 23.4-37.42 33.34-43.42l-25.47 45.29C-.51 784.63 15.01 790.83 5.08 841.7z" class="st13"/></g><g id="shape61-130" transform="translate(460.131 -204.816)"><path d="M5.08 841.7c0 6.83-4.56 3.72-4.56-2.69-2.28-16.13 3.73-21.71 2.28-55.21-1.24-31.63 17.6-61.2 25.46-81.68 12.84-23.57 23.4-37.42 33.34-43.42l-25.47 45.29C-.51 784.63 15.01 790.83 5.08 841.7" class="st11"/></g><g id="shape62-133" transform="translate(449.68 -206.524)"><path d="M4.55 793.78c-.82.21-1.86-1.03-2.48 1.66L0 842.38c0 3.72 3.31 4.96 4.97-1.45 3.93-19.65 7.45-47.15 1.66-53.35-2.49-.83-4.15-.41-2.08 6.2" class="st11"/></g><g id="shape63-136" transform="translate(453.613 -214.845)"><path d="M4.76 845.32L0 844.7c2.28-30.81 2.07-64.52 6.83-92.43h3.11c-3.31 23.57 1.86 82.92-5.18 93.05" class="st11"/></g><g id="shape64-139" transform="translate(449.266 -222.703)"><path d="M44.31 643.5c.2-1.65-2.07-1.24-2.28-.62C24.64 712.77 14.08 777.91 0 845.32l8.9-.62c11.8-67 21.95-131.93 35.41-201.2z" class="st12"/></g><g id="shape65-141" transform="translate(449.266 -222.703)"><path d="M44.31 643.5c.2-1.65-2.07-1.24-2.28-.62C24.64 712.77 14.08 777.91 0 845.32l8.9-.62c11.8-67 21.95-131.93 35.41-201.2" class="st11"/></g><g id="shape66-144" transform="translate(436.636 -210.916)"><path d="M7.45 844.7l-3.1.62c-1.45-27.71.62-58.73-4.35-87.26h2.28c5.59 26.88 3.93 58.31 5.17 86.64z" class="st14"/></g><g id="shape67-146" transform="translate(436.636 -210.916)"><path d="M7.45 844.7l-3.1.62c-1.45-27.71.62-58.73-4.35-87.26h2.28c5.59 26.88 3.93 58.31 5.17 86.64" class="st11"/></g><g id="shape68-149" transform="translate(433.117 -210.916)"><path d="M10.97 844.7l-3.1.62C6.42 817.61 4.97 789.9 0 761.37h3.31c5.59 26.67 6.42 55 7.66 83.33z" class="st15"/></g><g id="shape69-151" transform="translate(433.117 -210.916)"><path d="M10.97 844.7l-3.1.62C6.42 817.61 4.97 789.9 0 761.37h3.31c5.59 26.67 6.42 55 7.66 83.33" class="st11"/></g><g id="shape70-154" transform="translate(444.297 -237.178)"><path d="M4.14 845.32l-3.1-2.48 1.03-54.59L0 716.91l4.55 25.85 3.52-23.99 1.45 28.33 1.45-1.45 13.25-84.36-8.69 100.28 11.8-93.46-8.08 106.49-6.41-10.96-8.7 81.68z" class="st16"/></g><g id="shape71-156" transform="translate(444.297 -237.178)"><path d="M4.14 845.32l-3.1-2.48 1.03-54.59L0 716.91l4.55 25.85 3.52-23.99 1.45 28.33 1.45-1.45 13.25-84.36-8.69 100.28 11.8-93.46-8.08 106.49-6.41-10.96-8.7 81.68" class="st11"/></g><g id="shape72-159" transform="translate(364.239 -221.623)"><path d="M93.72 843.62c.42 1.45-3.31 3.1-3.31 0 8.07-190.45 4.97-314.93-45.55-373.86-21.74-2.89-28.36 10.13-34.99 22.95-3.31-1.65-4.34-4.55-.2-10.54-5.39 5.17-13.25 7.44-7.87-3.73 7.45-14.68 18.42-24.6 33.33-29.15 15.74 7.86 22.15 19.85 28.57 31.84 41.82 56.66 48.45 172.25 30.02 362.49z" class="st8"/></g><g id="shape73-161" transform="translate(349.219 -562.677)"><path d="M53.26 788.69c2.07 0 4.97 2.07 6.21 5.37.62.42 1.03 0 1.45.42.62-2.28 2.07-3.1 3.72 0 1.25-.62 3.11-2.07 3.32-.21-.42-2.07.82-2.69 2.48-2.48l4.14 18.4c.83-11.16 7.04-5.79 10.56-.82 3.93-6 7.66-8.28 11.18-3.31 3.31-2.07 6.21-2.48 7.25 3.1-1.04 9.3-1.45 18.82-4.77 27.71-2.27 1.03-4.96 1.03-6.21 4.55-3.31 4.13-6.21 6.61-7.66-1.04-3.1 0-6.41 1.45-9.11-.62-5.17 4.76-7.24 2.69-7.86-2.48-2.9 2.69-5.18 6.83-9.73 4.14-1.87 1.86-4.56.2-7.25-1.04l3.52-26.46c1.03-1.45 2.07-1.66 2.9-.63l1.86 11.58 2.49-4.54c-3.32-1.66-4.15-3.52-1.66-5.59l-6.42-8.27c-2.48 2.9-6 2.69-10.35.62l-.83 2.07 7.66 3.31c2.07-.42 3.31.2 2.9 3.72.21 5.79-.62 11.17-4.14 15.51-4.97 4.13-6.21 1.86-6.83-2.07-5.8 2.07-11.8 3.72-17.6 3.1-3.73-3.1-.62-6.82.62-10.34-3.52-.82-2.28-3.93-1.86-6.61-4.97.41-9.53-1.45-14.08-4.55-14.49-3.93-10.15-14.89 1.65-11.58 2.49-2.69 2.7-7.03 10.36-6 5.17 1.03 7.86 3.31 8.69 6.62-.83-3.52 4.76-.42 7.46-.42l-3.52-4.34c-3.11-3.31-1.66-6.62 1.24-6.62 5.59-.2 10.35 2.69 15.53 4.55-.21-3.3 1.03-4.75 2.69-4.75zm25.88 29.15l-3.52 3.31-.21 2.07c-2.28.83-4.76.83-7.25.41v1.45c1.45-.83 3.11.21 4.97 2.07 4.35 1.03 6.83 2.69 9.94 4.13l2.07-8.68c-5.18 2.07-5.8-1.03-6-4.76z" class="st9"/></g><g id="shape74-163" transform="translate(418.21 -202.309)"><path d="M10.56 840.23c-1.86 7.03-4.76 7.03-4.76-1.45 2.07-31.84-2.28-68.65-5.8-105.04l3.52-.42 7.25 31.23v-15.93l3.52-.62c4.96 31.02 5.17 61.62-3.73 92.23z" class="st14"/></g><g id="shape75-165" transform="translate(418.21 -202.309)"><path d="M10.56 840.23c-1.86 7.03-4.76 7.03-4.76-1.45 2.07-31.84-2.28-68.65-5.8-105.04l3.52-.42 7.25 31.23v-15.93l3.52-.62c4.96 31.02 5.17 61.62-3.73 92.23" class="st11"/></g><g id="shape76-168" transform="translate(366.245 -262.818)"><path d="M16.77 842.43C12.84 793.62 7.04 736.97 0 675.35c-.62-2.28 5.18-7.65 6.83-2.49 12.01 59.56 17.81 116.84 19.46 172.46l-9.52-2.89z" class="st7"/></g><g id="shape77-170" transform="translate(360.436 -262.818)"><path d="M17.4 842.43C15.54 793.62 3.32 728.08.01 666.45c-.21-2.27 2.49-7.65 3.31-2.48 5.59 59.56 17.81 125.73 18.64 181.35l-4.56-2.89z" class="st7"/></g><g id="shape78-172" transform="translate(370.592 -262.818)"><path d="M4.35 842.43c1.86-48.81 14.08-114.35 17.39-175.98.41-2.27-2.28-7.65-3.11-2.48C13.04 723.53.62 789.7 0 845.32l4.35-2.89z" class="st7"/></g><g id="shape79-174" transform="translate(377.839 -262.818)"><path d="M4.97 843.05c2.07-40.74 15.73-95.33 19.25-146.82.42-1.65-2.48-6.2-3.31-1.86C14.49 744 1.04 799 0 845.32l4.97-2.27z" class="st7"/></g><g id="shape80-176" transform="translate(389.847 -262.818)"><path d="M4.55 843.25c1.87-36.39 13.88-85.4 17.19-131.3.41-1.66-2.28-5.59-3.11-1.86C13.04 754.54.83 803.96 0 845.32l4.55-2.07z" class="st7"/></g><g id="shape81-178" transform="translate(384.257 -262.818)"><path d="M4.55 842.63c1.66-46.52 13.88-109.18 17.19-167.9.21-2.28-2.49-7.45-3.11-2.49C13.04 729.11.83 792.18 0 845.32l4.55-2.69z" class="st7"/></g><g id="shape82-180" transform="translate(337.108 -206.597)"><path d="M69.92 844.31c.21.83-2.69 1.86-2.69 0 6.01-115.8 3.73-191.48-33.95-227.25-16.15-1.66-20.91 6.2-25.88 13.85-2.49-.83-3.31-2.69-.21-6.2-3.93 3.1-9.73 4.34-6-2.28 5.59-8.89 13.87-15.09 24.84-17.78 11.8 4.76 16.56 11.99 21.33 19.44 31.26 34.32 36.23 104.63 22.56 220.22z" class="st8"/></g><g id="shape83-182" transform="translate(325.723 -426.589)"><path d="M32.65 845.32c1.25 0 2.9-1.03 3.73-2.69.41-.2.62 0 1.04-.2.2 1.24 1.24 1.65 2.07 0 .82.41 2.07 1.03 2.07 0-.21 1.24.62 1.44 1.65 1.24l2.49-9.1c.62 5.58 4.34 2.89 6.42.41 2.48 3.1 4.76 4.14 6.83 1.66 2.07 1.03 3.93 1.24 4.55-1.66-.83-4.55-1.03-9.3-2.9-13.85-1.45-.42-3.1-.42-3.93-2.28-2.07-2.07-3.73-3.1-4.55.62-1.87 0-3.94-.82-5.59.21-3.32-2.28-4.56-1.24-4.97 1.24-1.66-1.24-3.11-3.31-6.01-2.07-1.03-.82-2.69 0-4.35.62l2.08 13.24c.82.62 1.44.82 1.86.41l1.03-6 1.66 2.28c-2.07 1.03-2.69 1.86-1.04 2.89l-3.93 4.14c-1.45-1.45-3.73-1.24-6.42-.42l-.41-1.03 4.55-1.45c1.45.21 2.28-.2 1.87-1.86.2-3.1-.42-5.79-2.49-7.86-3.1-2.06-3.93-.82-4.14 1.04-3.52-1.04-7.24-1.86-10.76-1.45-2.28 1.45-.42 3.31.2 4.96-2.07.42-1.24 2.07-1.03 3.52-3.11-.41-5.8.62-8.7 2.07-8.69 2.06-6.21 7.65 1.04 5.99 1.65 1.24 1.65 3.31 6.42 2.9 3.1-.62 4.76-1.66 5.38-3.31-.62 1.86 2.9.21 4.55.21l-2.27 2.27c-1.87 1.66-1.04 3.1.82 3.1 3.32.21 6.42-1.24 9.53-2.27-.21 1.65.62 2.48 1.65 2.48zm15.74-14.68l-2.07-1.66-.21-.82c-1.24-.62-2.9-.42-4.35-.21v-.83c.83.42 1.87 0 2.9-1.03 2.9-.62 4.35-1.45 6.21-2.07l1.25 4.34c-3.11-1.03-3.52.42-3.73 2.28z" class="st9"/></g><g id="shape84-184" transform="translate(411.585 -190.536)"><path d="M0 842.93c0 3.1 4.35 3.31 4.35 0l6.42-55.83 6.83-50.25v-54.59L7.45 753.6 0 842.93z" class="st10"/></g><g id="shape85-186" transform="translate(411.585 -190.536)"><path d="M0 842.93c0 3.1 4.35 3.31 4.35 0l6.42-55.83 6.83-50.25v-54.59L7.45 753.6 0 842.93" class="st11"/></g><g id="shape86-189" transform="translate(397.522 -235.914)"><path d="M7.23 844.26c-.41 1.04 2.49 1.86 2.49 0-6.01-115.79-3.73-191.27 33.95-227.04 16.15-1.86 21.12 5.99 26.09 13.85 2.48-1.03 3.1-2.69 0-6.41 4.14 3.1 9.93 4.34 6-2.27-5.59-8.89-13.66-14.89-24.84-17.79-11.81 4.76-16.57 12-21.33 19.44C-1.67 658.37-6.43 728.67 7.23 844.26z" class="st8"/></g><g id="shape87-191" transform="translate(422.351 -455.952)"><path d="M31.06 845.32c-1.45.21-3.11-1.03-3.94-2.69-.21-.2-.62 0-.83-.2-.41 1.24-1.24 1.65-2.27 0-.83.41-1.87 1.03-2.07.2.2 1.04-.42 1.24-1.66 1.24l-2.49-9.3c-.41 5.58-4.14 2.89-6.41.41-2.28 3.1-4.56 4.14-6.84 1.66-2.07 1.03-3.72 1.24-4.55-1.45.83-4.76 1.04-9.51 3.11-13.86 1.24-.62 3.1-.62 3.72-2.27 2.07-2.07 3.94-3.31 4.76.41 1.87 0 3.94-.62 5.59.42 3.11-2.49 4.35-1.24 4.77 1.24 1.86-1.45 3.1-3.52 6-2.07 1.03-1.03 2.69-.21 4.35.41l-2.07 13.24c-.62.82-1.25 1.03-1.87.41l-1.03-5.79-1.66 2.27c2.07.83 2.69 1.66 1.04 2.69l3.93 4.14c1.66-1.24 3.73-1.24 6.42-.21l.41-1.03-4.55-1.66c-1.24.21-2.07-.2-1.86-1.86-.21-2.89.41-5.58 2.48-7.86 3.11-2.06 3.93-.82 4.14 1.25 3.73-1.25 7.25-1.87 10.97-1.66 2.28 1.45.21 3.31-.41 5.17 2.07.41 1.45 1.86 1.03 3.31 3.11-.21 6.01.62 8.7 2.27 8.9 1.86 6.21 7.45-1.04 5.79-1.44 1.24-1.65 3.52-6.21 2.9-3.31-.41-4.97-1.66-5.38-3.31.41 1.86-2.9.21-4.55.21l2.07 2.27c1.86 1.66 1.03 3.31-.62 3.31-3.52 0-6.42-1.24-9.53-2.27 0 1.65-.83 2.27-1.65 2.27zm-15.95-14.47l2.07-1.66.21-1.03c1.45-.42 2.9-.42 4.56-.21v-.83c-1.04.42-2.07 0-3.11-1.03-2.69-.41-4.35-1.24-6-2.07l-1.45 4.34c3.1-1.03 3.52.62 3.72 2.49z" class="st9"/></g><g id="shape88-193" transform="translate(388.328 -199.544)"><path d="M.07 799.62c-.62-2.69 3.1-2.27 3.93 0l5.18 44.67-4.14 1.03-4.97-45.7" class="st11"/></g><g id="shape89-196" transform="translate(264.862 -206.229)"><path d="M131.4 843.94c.42 1.24-3.31 2.48-3.31 0 8.07-155.5-32.71-257.03-83.23-305-21.74-2.48-28.36 8.06-34.99 18.61-3.31-1.24-4.34-3.72-.2-8.68-5.39 4.13-13.25 5.99-7.87-2.9 7.45-11.99 18.42-20.06 33.33-23.78 15.74 6.2 22.15 16.13 28.57 25.85 41.82 46.32 86.13 140.61 67.91 295.9h-.21z" class="st8"/></g><g id="shape90-198" transform="translate(249.755 -484.64)"><path d="M53.14 799.15c2.27 0 4.97 1.66 6.21 4.35.62.41 1.03 0 1.65.41.42-1.86 2.07-2.69 3.52 0 1.25-.62 3.32-1.65 3.32-.21-.21-1.65.82-2.27 2.69-2.07l4.14 15.1c.83-9.1 6.83-4.76 10.56-.62 3.72-4.96 7.45-6.82 10.97-2.69 3.52-1.86 6.42-2.07 7.45 2.48-1.24 7.65-1.65 15.3-4.76 22.54-2.28 1.04-5.17.83-6.42 3.72-3.31 3.52-6.21 5.38-7.45-.82-3.11 0-6.42 1.24-9.11-.42-5.38 3.93-7.25 2.07-8.07-2.06-2.9 2.27-4.97 5.58-9.73 3.3-1.87 1.66-4.56.21-7.04-.82l3.31-21.72c1.24-1.03 2.28-1.24 2.9-.41l1.86 9.51 2.69-3.72c-3.52-1.45-4.35-2.89-1.65-4.55l-6.63-6.82c-2.48 2.27-6 2.27-10.35.62l-.62 1.65 7.45 2.48c2.07-.2 3.52.21 2.9 3.11.41 4.96-.62 9.3-4.14 12.82-4.76 3.3-6.21 1.44-6.63-1.86-6 1.86-11.8 3.1-17.8 2.68-3.52-2.68-.42-5.58.62-8.47-3.31-.63-2.28-3.11-1.66-5.38-5.17.41-9.73-1.24-14.07-3.72-14.5-3.31-10.36-12.2 1.44-9.52 2.49-2.06 2.7-5.58 10.36-4.75 5.17.83 8.07 2.48 8.69 5.38-.62-3.11 4.97-.42 7.45-.42l-3.51-3.51c-3.11-2.69-1.66-5.38 1.24-5.38 5.59-.21 10.56 2.07 15.53 3.72-.21-2.69 1.03-3.93 2.69-3.93zm25.88 23.78l-3.32 2.69-.41 1.66c-2.28.82-4.76.62-7.25.41v1.03c1.45-.62 3.32.21 4.97 1.86 4.56.83 7.04 2.28 9.94 3.31l2.07-7.03c-5.18 1.66-5.8-.83-6-3.93z" class="st9"/></g><g id="shape91-200" transform="translate(341.4 -189.049)"><path d="M30.85 842.27c0 5.79 4.55 3.1 4.55-2.27.42-24.61-6.62-47.77-16.35-70.93-5.8-13.85-15.74-27.3-16.36-41.56L0 726.89c0 16.13 5.38 27.08 14.49 43.83 13.25 34.33 14.49 64.11 16.36 71.55z" class="st12"/></g><g id="shape92-202" transform="translate(341.4 -189.049)"><path d="M30.85 842.27c0 5.79 4.55 3.1 4.55-2.27.42-24.61-6.62-47.77-16.35-70.93-5.8-13.85-15.74-27.3-16.36-41.56L0 726.89c0 16.13 5.38 27.08 14.49 43.83 13.25 34.33 14.49 64.11 16.36 71.55" class="st11"/></g><g id="shape93-205" transform="translate(322.974 -192.099)"><path d="M56.52 842.43c0 5.58 4.56 2.89 4.56-2.28 2.27-13.23-3.73-17.78-2.28-45.08 1.24-25.85-17.39-50.04-25.47-66.58C20.5 709.05 9.94 697.89 0 692.92l25.47 37.02c36.64 65.75 21.11 70.72 31.05 112.49z" class="st13"/></g><g id="shape94-207" transform="translate(322.974 -192.099)"><path d="M56.52 842.43c0 5.58 4.56 2.89 4.56-2.28 2.27-13.23-3.73-17.78-2.28-45.08 1.24-25.85-17.39-50.04-25.47-66.58C20.5 709.05 9.94 697.89 0 692.92l25.47 37.02c36.64 65.75 21.11 70.72 31.05 112.49" class="st11"/></g><g id="shape95-210" transform="translate(385.336 -193.519)"><path d="M5.13 803.11c.83.21 1.86-.62 2.49 1.45l2.07 38.46c0 2.89-3.32 3.93-4.97-1.24-3.94-16.13-7.46-38.67-1.66-43.63 2.69-.62 4.35-.42 2.07 4.96" class="st11"/></g><g id="shape96-213" transform="translate(381.151 -200.371)"><path d="M5.38 845.32l4.56-.62c-2.28-25.02-2.07-52.52-6.63-75.27H0c3.31 19.23-1.66 67.62 5.38 75.89" class="st11"/></g><g id="shape97-216" transform="translate(351.131 -206.781)"><path d="M0 680.72c-.21-1.44 2.07-1.24 2.28-.62 17.39 57.07 28.15 110.22 42.03 165.22l-8.91-.41C23.6 790.11 13.46 737.17 0 680.72z" class="st12"/></g><g id="shape98-218" transform="translate(351.131 -206.781)"><path d="M0 680.72c-.21-1.44 2.07-1.24 2.28-.62 17.39 57.07 28.15 110.22 42.03 165.22l-8.91-.41C23.6 790.11 13.46 737.17 0 680.72" class="st11"/></g><g id="shape99-221" transform="translate(400.612 -197.062)"><path d="M0 844.7l3.11.62c1.44-22.75-.63-47.97 4.34-71.13H5.18C-.21 795.9 1.24 821.75 0 844.7z" class="st14"/></g><g id="shape100-223" transform="translate(400.612 -197.062)"><path d="M0 844.7l3.11.62c1.44-22.75-.63-47.97 4.34-71.13H5.18C-.21 795.9 1.24 821.75 0 844.7" class="st11"/></g><g id="shape101-226" transform="translate(400.612 -197.062)"><path d="M0 844.7l3.11.62c1.44-22.75 2.89-45.28 7.86-68.65H7.66C2.07 798.59 1.24 821.75 0 844.7z" class="st15"/></g><g id="shape102-228" transform="translate(400.612 -197.062)"><path d="M0 844.7l3.11.62c1.44-22.75 2.89-45.28 7.86-68.65H7.66C2.07 798.59 1.24 821.75 0 844.7" class="st11"/></g><g id="shape103-231" transform="translate(373.284 -218.567)"><path d="M22.98 845.32l3.11-2.07-1.04-44.46 2.07-58.31-4.55 21.09-3.52-19.64-1.45 23.16-1.45-1.24-13.04-68.86 8.69 82.09L0 700.57l7.87 87.06 6.42-8.89 8.69 66.58z" class="st16"/></g><g id="shape104-233" transform="translate(373.284 -218.567)"><path d="M22.98 845.32l3.11-2.07-1.04-44.46 2.07-58.31-4.55 21.09-3.52-19.64-1.45 23.16-1.45-1.24-13.04-68.86 8.69 82.09L0 700.57l7.87 87.06 6.42-8.89 8.69 66.58" class="st11"/></g><g id="shape105-236" transform="translate(376.825 -205.816)"><path d="M9.71 843.94c-.41 1.24 3.31 2.48 3.31 0-8.07-155.5-4.97-257.03 45.55-305.21 21.74-2.27 28.36 8.27 34.99 18.61 3.31-1.24 4.35-3.51.21-8.47 5.38 4.13 13.25 5.99 7.86-3.11-7.45-11.78-18.42-20.05-33.33-23.78-15.73 6.41-22.15 16.13-28.57 26.06-41.82 46.11-48.45 140.61-30.02 295.9z" class="st8"/></g><g id="shape106-238" transform="translate(391.917 -484.286)"><path d="M50.31 799.21c-2.07-.2-4.76 1.66-6.21 4.35-.42.41-1.04 0-1.45.41-.62-2.07-2.07-2.69-3.52 0-1.24-.62-3.31-1.66-3.52-.21.41-1.86-.83-2.27-2.48-2.07l-4.15 15.1c-.82-9.31-7.03-4.96-10.55-.62-3.73-5.17-7.46-6.82-11.18-2.9-3.32-1.65-6.21-1.86-7.25 2.69 1.24 7.45 1.45 15.3 4.76 22.54 2.28.83 4.97.83 6.42 3.72 3.11 3.31 6 5.38 7.45-.82 3.11 0 6.42 1.24 9.11-.62 5.18 3.92 7.25 2.06 7.87-2.07 2.9 2.27 5.18 5.79 9.73 3.51 1.86 1.45 4.56.21 7.25-.82l-3.52-21.72c-1.04-1.03-2.07-1.44-2.9-.62l-1.86 9.72-2.49-3.72c3.31-1.45 4.14-3.1 1.66-4.76l6.42-6.61c2.48 2.27 6 2.07 10.35.41l.83 1.86-7.46 2.48c-2.28-.2-3.52.21-3.1 3.11-.21 4.75.82 9.09 4.14 12.61 4.97 3.51 6.42 1.65 6.83-1.66 5.8 1.66 11.8 3.11 17.6 2.49 3.72-2.49.62-5.38-.62-8.28 3.52-.82 2.27-3.3 1.86-5.58 4.97.42 9.52-1.03 14.08-3.51 14.49-3.31 10.35-12.41-1.66-9.52-2.48-2.27-2.69-5.58-10.35-4.75-5.18.62-7.87 2.48-8.7 5.17.83-2.9-4.76-.42-7.45-.21l3.52-3.72c3.11-2.69 1.86-5.17-1.24-5.17-5.38-.21-10.35 2.07-15.32 3.72 0-2.69-1.24-3.93-2.9-3.93zm-25.88 23.78l3.52 2.69.21 1.66c2.27.82 4.76.62 7.24.2v1.24c-1.45-.62-3.1.21-4.97 1.86-4.34.83-6.83 2.07-9.73 3.31l-2.27-7.03c5.17 1.66 5.79-.83 6-3.93z" class="st9"/></g><g id="shape107-240" transform="translate(408.849 -190.083)"><path d="M7.08 841.03c1.87 6 4.77 5.79 4.77-1.03-2.07-26.06 2.27-56.04 6-85.61l-3.73-.62-7.24 25.64v-13.03l-3.52-.41c-4.97 25.23-4.97 50.25 3.72 75.06z" class="st14"/></g><g id="shape108-242" transform="translate(408.849 -190.083)"><path d="M7.08 841.03c1.87 6 4.77 5.79 4.77-1.03-2.07-26.06 2.27-56.04 6-85.61l-3.73-.62-7.24 25.64v-13.03l-3.52-.41c-4.97 25.23-4.97 50.25 3.72 75.06" class="st11"/></g><g id="shape109-245" transform="translate(658.094 -261.164)"><path d="M20.15 841.39C15.39 773.77 8.35 695.2.07 609.8c-.83-3.11 6-10.55 8.07-3.52 14.5 82.71 21.33 161.91 23.4 239.04l-11.39-3.93z" class="st7"/></g><g id="shape110-247" transform="translate(651.296 -261.164)"><path d="M20.74 841.39c-2.07-67.62-16.77-158.6-20.7-244-.42-2.9 2.89-10.55 3.72-3.31 6.83 82.51 21.53 174.11 22.36 251.24l-5.38-3.93z" class="st7"/></g><g id="shape111-249" transform="translate(663.133 -261.164)"><path d="M5.38 841.39c2.28-67.62 16.77-158.6 20.71-244 .41-2.9-2.9-10.55-3.73-3.31C15.53 676.59 1.04 768.19 0 845.32l5.38-3.93z" class="st7"/></g><g id="shape112-251" transform="translate(672.035 -261.164)"><path d="M6 842.01c2.49-56.24 18.64-131.92 22.98-203.06.42-2.48-3.1-8.89-4.14-2.89C17.39 704.92 1.04 781.22 0 845.32l6-3.31z" class="st7"/></g><g id="shape113-253" transform="translate(686.527 -261.164)"><path d="M5.18 842.43c2.27-50.46 16.77-118.28 20.7-181.77.21-2.27-2.9-7.85-3.73-2.68C15.32 719.6.83 787.84 0 845.32l5.18-2.89z" class="st7"/></g><g id="shape114-255" transform="translate(679.902 -261.164)"><path d="M5.18 841.6c2.27-64.52 16.77-151.16 20.7-232.84.41-2.69-2.9-9.92-3.73-3.1C15.53 684.44.83 771.71 0 845.32l5.18-3.72z" class="st7"/></g><g id="shape115-257" transform="translate(623.43 -183.277)"><path d="M83.39 843.94c.41 1.24-3.11 2.48-3.11 0 7.25-160.46 4.35-265.3-40.58-314.72-19.25-2.48-25.05 8.27-31.05 19.23-2.9-1.24-3.73-3.72 0-8.89-4.97 4.34-11.8 6.2-7.04-3.1 6.62-12.41 16.35-20.68 29.6-24.61 13.88 6.62 19.67 16.75 25.26 26.88 37.27 47.56 43.27 144.96 26.92 305.21z" class="st8"/></g><g id="shape116-259" transform="translate(609.841 -488.003)"><path d="M38.8 845.32c1.65 0 3.73-1.45 4.55-3.72.42-.42.83 0 1.25-.42.41 1.66 1.44 2.28 2.48 0 1.04.62 2.48 1.45 2.48.21-.2 1.45.63 1.86 1.87 1.66l3.1-12.62c.62 7.65 5.18 3.93 7.66.42 2.9 4.34 5.59 5.79 8.08 2.48 2.69 1.44 4.76 1.65 5.38-2.28-.83-6.41-1.03-13.02-3.31-19.02-1.87-.83-3.73-.83-4.76-3.31-2.28-2.9-4.56-4.55-5.39.83-2.27 0-4.76-1.04-6.83.41-3.73-3.31-5.17-1.86-5.8 1.65-2.07-1.86-3.72-4.75-7.03-2.89-1.45-1.24-3.32-.21-5.18.83l2.48 18.4c.83.83 1.45 1.03 2.07.41l1.25-8.06 2.07 3.1c-2.49 1.24-3.11 2.48-1.25 3.93l-4.76 5.58c-1.86-1.86-4.35-1.86-7.66-.41l-.41-1.45 5.38-2.07c1.66.21 2.69-.2 2.28-2.68.21-4.14-.62-7.86-3.11-10.76-3.52-2.89-4.55-1.24-4.97 1.45-4.34-1.45-8.48-2.48-12.83-2.07-2.69 2.07-.42 4.55.41 7.03-2.48.62-1.65 2.69-1.24 4.55-3.73-.2-7.04 1.04-10.35 3.1-10.56 2.9-7.46 10.55 1.03 8.07 1.87 1.86 2.07 4.76 7.66 4.13 3.73-.62 5.8-2.27 6.42-4.54-.62 2.48 3.52.41 5.38.41l-2.48 2.89c-2.28 2.28-1.24 4.55.83 4.55 4.14.21 7.66-1.65 11.39-3.1-.21 2.28.82 3.31 1.86 3.31zm19.05-20.26l-2.49-2.28-.21-1.45c-1.65-.62-3.52-.41-5.38-.2v-1.04c1.04.62 2.28-.2 3.52-1.44 3.31-.83 5.18-1.87 7.45-2.9l1.45 6c-3.72-1.45-4.34.82-4.34 3.31z" class="st9"/></g><g id="shape117-261" transform="translate(712.407 -160.993)"><path d="M0 841.92c0 4.34 4.97 4.76 4.97 0l7.87-77.33 8.07-69.48v-75.89L8.7 718.27 0 841.92z" class="st10"/></g><g id="shape118-263" transform="translate(712.407 -160.993)"><path d="M0 841.92c0 4.34 4.97 4.76 4.97 0l7.87-77.33 8.07-69.48v-75.89L8.7 718.27 0 841.92" class="st11"/></g><g id="shape119-266" transform="translate(695.49 -223.875)"><path d="M8.64 843.8c-.42 1.45 2.89 2.69 2.89 0-7.04-160.25-4.34-265.09 40.58-314.51 19.26-2.48 25.26 8.27 31.06 19.23 2.9-1.45 3.93-3.93.21-8.89 4.76 4.34 11.8 6.2 7.03-3.1-6.62-12.41-16.35-20.68-29.6-24.61-13.87 6.41-19.67 16.75-25.47 26.88-37.26 47.56-43.06 144.96-26.7 305z" class="st8"/></g><g id="shape120-268" transform="translate(725.036 -528.532)"><path d="M36.85 845.32c-1.45 0-3.52-1.45-4.55-3.93-.42-.21-.62 0-1.04-.21-.41 1.66-1.45 2.28-2.69 0-.83.42-2.28 1.45-2.48.21.41 1.45-.42 1.86-1.87 1.66l-2.9-12.82c-.62 7.85-5.17 4.13-7.86.62-2.69 4.34-5.39 5.79-8.08 2.27-2.48 1.65-4.55 1.86-5.38-2.07.83-6.41 1.24-13.02 3.52-19.23 1.66-.62 3.73-.62 4.55-3.1 2.49-2.9 4.56-4.55 5.59.62 2.28 0 4.77-1.03 6.63.41 3.93-3.3 5.38-1.65 5.8 1.86 2.27-1.86 3.72-4.75 7.24-2.89 1.24-1.24 3.32-.21 5.18.62l-2.49 18.4c-.82 1.04-1.65 1.24-2.27.42l-1.25-8.07-1.86 3.31c2.49 1.04 3.11 2.48 1.24 3.93l4.77 5.58c1.65-1.86 4.34-1.86 7.45-.41l.62-1.45-5.59-2.27c-1.45.41-2.48-.21-2.07-2.48-.21-4.14.41-7.86 3.1-10.76 3.52-2.89 4.56-1.44 4.77 1.45 4.34-1.45 8.69-2.69 13.04-2.27 2.69 2.27.41 4.75-.41 7.23 2.48.42 1.65 2.69 1.24 4.55 3.72-.41 7.04 1.04 10.35 3.1 10.56 2.69 7.45 10.34-1.24 8.07-1.87 1.86-1.87 4.76-7.46 4.13-3.93-.62-6-2.27-6.41-4.54.62 2.48-3.52.2-5.39.2l2.49 3.1c2.27 2.28 1.24 4.55-.83 4.55-4.14 0-7.66-1.86-11.39-3.31 0 2.49-.83 3.31-2.07 3.52zm-18.84-20.26l2.49-2.28.2-1.45c1.66-.62 3.52-.62 5.39-.2v-1.04c-1.25.42-2.49-.2-3.73-1.65-3.31-.62-4.97-1.66-7.25-2.69l-1.45 6c3.73-1.45 4.14.62 4.35 3.31z" class="st9"/></g><g id="shape121-270" transform="translate(684.564 -173.489)"><path d="M.1 781.84c-.83-3.52 3.73-3.1 4.55 0l6.22 62.03-4.97 1.45-5.8-63.48" class="st11"/></g><g id="shape122-273" transform="translate(537.166 -182.817)"><path d="M157.02 843.48c.42 1.66-4.14 3.31-4.14 0 9.73-215.46-39.13-356.07-99.38-422.66-25.87-3.31-33.74 11.37-41.61 25.85-4.14-1.65-5.18-5.17-.41-11.79-6.42 5.59-15.74 8.27-9.32-4.34 8.9-16.54 21.95-27.71 39.75-32.88 18.63 8.69 26.29 22.33 33.95 35.98 50.11 64.1 103.11 194.79 81.16 409.84z" class="st8"/></g><g id="shape123-275" transform="translate(519.08 -568.337)"><path d="M63.52 781.32c2.48-.21 5.79 2.28 7.45 6 .62.62 1.24.2 1.66.62.62-2.69 2.48-3.72 4.34 0 1.45-.83 3.94-2.48 3.94-.21-.21-2.48 1.03-3.1 3.1-2.89l4.97 20.88c1.04-12.82 8.28-6.82 12.63-1.03 4.56-6.83 8.9-9.31 13.25-3.72 4.14-2.49 7.45-2.9 8.7 3.51-1.45 10.55-1.66 21.09-5.59 31.22-2.69 1.25-6.01 1.25-7.66 5.17-3.73 4.76-7.25 7.45-8.91-1.03-3.72 0-7.66 1.65-10.97-.83-6.21 5.38-8.49 2.9-9.52-2.68-3.32 3.1-6.01 7.65-11.6 4.54-2.07 2.07-5.38.21-8.48-1.03l4.14-30.19c1.24-1.45 2.48-1.86 3.52-.62l2.07 13.23 3.1-5.17c-3.93-2.06-4.97-4.13-1.86-6.41l-7.87-9.3c-2.9 3.1-7.25 3.1-12.21.83l-1.04 2.27 8.9 3.52c2.69-.42 4.35.41 3.73 4.34.21 6.62-.83 12.61-4.97 17.57-6 4.76-7.66 2.07-8.07-2.48-7.04 2.48-14.08 4.35-21.12 3.52-4.35-3.52-.62-7.65.62-11.58-4.14-.83-2.69-4.34-2.07-7.45-6 .63-11.39-1.65-16.77-4.96-17.18-4.75-12.22-17.16 1.86-13.44 2.9-2.89 3.11-7.65 12.22-6.62 6.42 1.25 9.73 3.73 10.56 7.45-1.04-4.14 5.79-.41 8.9-.41l-4.14-4.97c-3.73-3.72-2.07-7.44 1.45-7.44 6.62-.21 12.42 2.89 18.42 5.17-.2-3.72 1.25-5.38 3.32-5.38zm30.84 33.09l-4.14 3.51-.41 2.28c-2.69 1.24-5.59 1.03-8.49.62v1.65c1.66-1.03 3.73.21 5.8 2.48 5.38 1.04 8.28 2.9 11.8 4.55l2.48-9.92c-6 2.48-6.83-1.04-7.04-5.17z" class="st9"/></g><g id="shape124-277" transform="translate(628.144 -158.963)"><path d="M37.06 841.13c0 7.86 5.38 4.35 5.38-3.1.42-34.12-8.07-66.38-19.46-98.22-6.83-19.23-19.05-37.84-19.67-57.69L0 681.08c.21 22.54 6.63 37.85 17.39 60.8 15.74 47.56 17.39 88.91 19.67 99.25z" class="st12"/></g><g id="shape125-279" transform="translate(628.144 -158.963)"><path d="M37.06 841.13c0 7.86 5.38 4.35 5.38-3.1.42-34.12-8.07-66.38-19.46-98.22-6.83-19.23-19.05-37.84-19.67-57.69L0 681.08c.21 22.54 6.63 37.85 17.39 60.8 15.74 47.56 17.39 88.91 19.67 99.25" class="st11"/></g><g id="shape126-282" transform="translate(606.612 -163.253)"><path d="M67.29 841.29c0 7.65 5.59 4.13 5.59-3.1 2.69-18.41-4.56-24.61-2.9-62.66 1.45-35.56-20.71-69.06-30.23-92.22C24.22 656.63 11.8 641.12 0 634.3l30.43 51.08c43.69 91.19 25.06 98.22 36.86 155.91z" class="st13"/></g><g id="shape127-284" transform="translate(606.612 -163.253)"><path d="M67.29 841.29c0 7.65 5.59 4.13 5.59-3.1 2.69-18.41-4.56-24.61-2.9-62.66 1.45-35.56-20.71-69.06-30.23-92.22C24.22 656.63 11.8 641.12 0 634.3l30.43 51.08c43.69 91.19 25.06 98.22 36.86 155.91" class="st11"/></g><g id="shape128-287" transform="translate(680.891 -165.238)"><path d="M6.05 787.03c1.04.2 2.07-1.24 2.9 1.86l2.48 53.14c0 4.14-3.93 5.58-6-1.65-4.56-22.34-8.7-53.35-1.66-60.38 2.9-1.04 4.97-.42 2.28 7.03" class="st11"/></g><g id="shape129-290" transform="translate(675.969 -174.73)"><path d="M6.21 845.32l5.59-.62c-2.69-34.95-2.48-72.99-8.07-104.42H0c3.93 26.46-2.07 93.67 6.21 105.04" class="st11"/></g><g id="shape130-293" transform="translate(640.152 -183.621)"><path d="M0 617.24c-.21-1.86 2.48-1.45 2.9-.62 20.49 78.99 33.33 152.4 50.1 228.7l-10.76-.62C28.16 768.81 16.15 695.61 0 617.24z" class="st12"/></g><g id="shape131-295" transform="translate(640.152 -183.621)"><path d="M0 617.24c-.21-1.86 2.48-1.45 2.9-.62 20.49 78.99 33.33 152.4 50.1 228.7l-10.76-.62C28.16 768.81 16.15 695.61 0 617.24" class="st11"/></g><g id="shape132-298" transform="translate(699.364 -170.181)"><path d="M0 844.7l3.73.62c1.65-31.43-.83-66.38 5.17-98.63H6.21C-.41 776.88 1.45 812.65 0 844.7z" class="st14"/></g><g id="shape133-300" transform="translate(699.364 -170.181)"><path d="M0 844.7l3.73.62c1.65-31.43-.83-66.38 5.17-98.63H6.21C-.41 776.88 1.45 812.65 0 844.7" class="st11"/></g><g id="shape134-303" transform="translate(699.364 -170.181)"><path d="M0 844.7l3.73.62c1.65-31.43 3.31-62.65 9.31-94.91H9.11C2.48 780.6 1.45 812.65 0 844.7z" class="st15"/></g><g id="shape135-305" transform="translate(699.364 -170.181)"><path d="M0 844.7l3.73.62c1.65-31.43 3.31-62.65 9.31-94.91H9.11C2.48 780.6 1.45 812.65 0 844.7" class="st11"/></g><g id="shape136-308" transform="translate(666.445 -199.75)"><path d="M27.74 845.32l3.52-2.89-1.24-61.83 2.48-80.65-5.38 29.16-4.35-27.09-1.65 32.05-1.66-1.65-15.73-95.33 10.35 113.32L0 644.74 9.52 765.3l7.66-12.41 10.56 92.43z" class="st16"/></g><g id="shape137-310" transform="translate(666.445 -199.75)"><path d="M27.74 845.32l3.52-2.89-1.24-61.83 2.48-80.65-5.38 29.16-4.35-27.09-1.65 32.05-1.66-1.65-15.73-95.33 10.35 113.32L0 644.74 9.52 765.3l7.66-12.41 10.56 92.43" class="st11"/></g><g id="shape138-313" transform="translate(670.885 -182.312)"><path d="M11.5 843.39c-.41 1.65 4.14 3.52 4.14 0-9.73-215.26-5.79-356.08 54.45-422.66 25.88-3.31 33.75 11.37 41.62 25.85 4.14-1.66 5.17-4.97.41-11.79 6.42 5.79 15.74 8.27 9.32-4.34-8.9-16.34-21.95-27.71-39.75-32.88-18.64 8.69-26.3 22.33-33.96 35.98-50.1 64.1-58.17 194.79-36.23 409.84z" class="st8"/></g><g id="shape139-315" transform="translate(688.805 -567.898)"><path d="M60.04 781.3c-2.48 0-5.8 2.48-7.45 6.2-.62.41-1.25 0-1.66.41-.62-2.69-2.48-3.72-4.35 0-1.45-.82-3.93-2.27-4.14-.2.42-2.49-.83-3.11-2.9-2.9l-4.97 20.89c-1.03-12.62-8.28-6.62-12.62-.83-4.56-7.03-9.11-9.51-13.25-3.93-4.15-2.48-7.46-2.69-8.7 3.52 1.24 10.54 1.66 21.29 5.59 31.43 2.69 1.24 6 1.03 7.66 5.17 3.73 4.54 7.25 7.23 8.9-1.25 3.73 0 7.66 1.66 10.98-.62 6.21 5.38 8.48 2.69 9.31-2.89 3.52 3.1 6.21 7.65 11.8 4.76 2.07 2.06 5.39.2 8.49-1.25l-4.14-29.98c-1.24-1.65-2.48-2.07-3.52-.83L53 822.24l-3.1-5.17c3.93-1.86 4.96-3.93 1.86-6.41l7.87-9.1c2.89 3.1 7.24 2.9 12.21.62l1.04 2.28-9.11 3.72c-2.49-.62-4.14.2-3.52 4.13-.21 6.62.83 12.62 4.97 17.58 6 4.76 7.45 2.07 8.07-2.48 7.04 2.48 14.08 4.34 21.12 3.72 4.35-3.52.62-7.65-.62-11.58 3.93-1.03 2.69-4.55 2.07-7.65 6 .62 11.38-1.66 16.77-4.96 17.18-4.55 12.21-17.17-1.87-13.24-3.1-3.1-3.1-7.86-12.42-6.61-6.21 1.03-9.52 3.51-10.35 7.23 1.03-3.93-5.8-.41-8.9-.41l4.14-4.96c3.72-3.73 2.07-7.45-1.45-7.45-6.63-.2-12.42 2.9-18.43 5.38.21-3.93-1.24-5.58-3.31-5.58zm-30.85 33.08l4.14 3.72.42 2.28c2.69 1.03 5.59.82 8.49.41v1.65c-1.66-.82-3.73.21-5.8 2.49-5.38 1.03-8.28 2.89-11.8 4.55l-2.49-9.72c6.01 2.27 6.83-1.24 7.04-5.38z" class="st9"/></g><g id="shape140-317" transform="translate(708.892 -160.488)"><path d="M8.48 839.56c2.28 8.06 5.8 7.85 5.8-1.66-2.48-35.98 2.48-77.54 6.83-118.69l-4.35-.62-8.69 35.57v-18.2l-3.93-.62c-6.01 34.94-6.22 69.68 4.34 104.22z" class="st14"/></g><g id="shape141-319" transform="translate(708.892 -160.488)"><path d="M8.48 839.56c2.28 8.06 5.8 7.85 5.8-1.66-2.48-35.98 2.48-77.54 6.83-118.69l-4.35-.62-8.69 35.57v-18.2l-3.93-.62c-6.01 34.94-6.22 69.68 4.34 104.22" class="st11"/></g><g id="shape142-322" transform="translate(760.646 -243.588)"><path d="M11.39 842.01c4.76-55 11.8-119.31 20.08-189 .83-2.48-6-8.68-8.08-2.68C8.9 717.53 2.07 782.46 0 845.32l11.39-3.31z" class="st7"/></g><g id="shape143-324" transform="translate(772.861 -243.588)"><path d="M5.38 842.01c2.07-55 16.77-129.24 20.71-199.13.41-2.48-2.9-8.48-3.73-2.69C15.53 707.6.83 782.46 0 845.32l5.38-3.31z" class="st7"/></g><g id="shape144-326" transform="translate(761.024 -243.588)"><path d="M20.74 842.01c-2.28-55-16.77-129.24-20.7-199.13-.42-2.48 2.89-8.48 3.72-2.69 6.83 67.41 21.33 142.27 22.36 205.13l-5.38-3.31z" class="st7"/></g><g id="shape145-328" transform="translate(749.225 -243.588)"><path d="M23.01 842.63C20.53 796.73 4.38 734.9.03 676.79c-.41-2.06 3.11-7.23 4.14-2.27 7.46 56.04 23.81 118.48 24.85 170.8l-6.01-2.69z" class="st7"/></g><g id="shape146-330" transform="translate(737.862 -243.588)"><path d="M20.71 842.84C18.44 801.9 3.94 746.48.01 694.58c-.21-1.86 2.9-6.41 3.73-2.07 6.83 50.25 21.32 105.87 22.15 152.81l-5.18-2.48z" class="st7"/></g><g id="shape147-332" transform="translate(744.462 -243.588)"><path d="M20.53 842.22C18.46 789.7 3.97 718.77.04 652.39c-.42-2.48 2.89-8.27 3.72-2.68 6.63 64.3 21.33 135.64 22.16 195.61l-5.39-3.1z" class="st7"/></g><g id="shape148-334" transform="translate(734.883 -179.991)"><path d="M8.58 844.17c-.42 1.04 3.1 2.07 3.1 0-7.24-130.89-4.34-216.5 40.58-256.82 19.26-2.07 25.05 6.82 31.06 15.51 2.9-1.04 3.73-2.9 0-7.03 4.76 3.51 11.8 4.96 7.04-2.69-6.63-9.93-16.36-16.75-29.61-20.06-13.87 5.38-19.67 13.65-25.26 21.92C-1.77 633.88-7.78 713.49 8.58 844.17z" class="st8"/></g><g id="shape149-336" transform="translate(764.787 -428.863)"><path d="M36.85 845.32c-1.65.21-3.72-1.03-4.55-2.89-.42-.42-.83 0-1.24-.42-.42 1.45-1.45 1.86-2.49 0-1.03.42-2.48 1.24-2.48.21.2 1.24-.62 1.45-1.87 1.45l-3.1-10.55c-.62 6.41-5.18 3.52-7.66.62-2.9 3.31-5.59 4.76-8.08 1.86-2.69 1.24-4.76 1.45-5.38-1.86.83-5.17 1.04-10.55 3.31-15.51 1.87-.62 3.73-.62 4.76-2.69 2.28-2.27 4.56-3.72 5.39.62 2.27 0 4.76-.82 6.83.42 3.73-2.69 5.18-1.45 5.8 1.45 2.07-1.66 3.72-3.93 7.04-2.49 1.44-1.03 3.31 0 5.17.62l-2.48 15.1c-.83.62-1.45.83-2.07.21l-1.25-6.62-2.07 2.69c2.49 1.03 3.11 2.06 1.25 3.1l4.76 4.75c1.86-1.65 4.35-1.44 7.66-.41l.41-1.24-5.38-1.65c-1.66.2-2.69-.21-2.28-2.28-.2-3.31.62-6.2 3.11-8.68 3.52-2.48 4.55-1.04 4.97 1.24 4.34-1.24 8.48-2.07 12.83-1.86 2.69 1.86.42 3.93-.41 5.79 2.48.62 1.65 2.27 1.24 3.93 3.73-.42 7.04.62 10.35 2.48 10.56 2.27 7.46 8.47-1.03 6.61-1.87 1.45-2.07 3.73-7.66 3.31-3.73-.62-5.8-1.86-6.42-3.72.62 2.07-3.52.21-5.38.21l2.48 2.48c2.28 1.86 1.24 3.72-.83 3.72-4.14 0-7.66-1.45-11.38-2.69.2 1.86-.83 2.69-1.87 2.69zM17.8 828.98l2.49-1.86.21-1.24c1.65-.41 3.52-.41 5.38-.2v-.83c-1.04.41-2.28 0-3.52-1.24-3.31-.62-5.18-1.45-7.45-2.28l-1.45 4.97c3.72-1.24 4.34.41 4.34 2.68z" class="st9"/></g><g id="shape150-338" transform="translate(716.962 -161.815)"><path d="M20.91 842.54c0 3.51-4.97 3.93-4.97 0l-7.87-63.07L0 722.6v-61.82l12.22 80.85 8.69 100.91z" class="st10"/></g><g id="shape151-340" transform="translate(716.962 -161.815)"><path d="M20.91 842.54c0 3.51-4.97 3.93-4.97 0l-7.87-63.07L0 722.6v-61.82l12.22 80.85 8.69 100.91" class="st11"/></g><g id="shape152-343" transform="translate(662.796 -213.076)"><path d="M83.36 844.17c.41 1.04-2.9 2.07-2.9 0 7.04-130.89 4.35-216.5-40.58-257.03-19.25-1.86-25.26 7.03-31.06 15.72-3.1-1.04-3.93-3.1-.2-7.24-4.76 3.52-11.8 5.17-7.04-2.48 6.62-10.13 16.35-16.96 29.6-20.06 13.88 5.38 19.67 13.65 25.47 21.92 37.27 38.88 43.06 118.49 26.71 249.17z" class="st8"/></g><g id="shape153-345" transform="translate(649.196 -461.948)"><path d="M38.99 845.32c1.45.21 3.52-1.03 4.55-3.1.42-.21.62 0 1.04-.21.41 1.45 1.45 1.86 2.69 0 .83.42 2.28 1.24 2.48.21-.41 1.24.42 1.45 1.87 1.45l2.89-10.55c.63 6.41 5.18 3.31 7.67.62 2.89 3.31 5.59 4.55 8.28 1.86 2.48 1.24 4.55 1.24 5.38-1.86-1.04-5.17-1.24-10.55-3.52-15.51-1.66-.62-3.73-.62-4.76-2.69-2.28-2.27-4.35-3.72-5.38.62-2.28 0-4.77-.82-6.63.42-3.93-2.9-5.38-1.45-5.8 1.24-2.27-1.45-3.72-3.72-7.24-2.28-1.25-1.03-3.32-.2-5.18.62l2.49 14.89c.82.83 1.65 1.04 2.07.42l1.45-6.62 1.86 2.69c-2.49.82-3.11 1.86-1.24 3.1l-4.77 4.75c-1.86-1.65-4.34-1.65-7.45-.41l-.62-1.24 5.38-1.86c1.66.41 2.69 0 2.28-2.07.21-3.31-.41-6.2-3.11-8.68-3.51-2.48-4.55-1.04-4.96 1.24-4.14-1.24-8.49-2.28-12.84-1.86-2.69 1.86-.41 3.72.41 5.79-2.48.41-1.65 2.27-1.24 3.72-3.73-.21-7.04.83-10.35 2.48-10.56 2.48-7.45 8.68 1.24 6.62 1.87 1.65 1.87 3.93 7.46 3.31 3.93-.42 5.79-1.66 6.41-3.52-.62 1.86 3.52.21 5.39.21l-2.49 2.48c-2.28 1.86-1.24 3.72.83 3.72 4.14 0 7.66-1.45 11.39-2.69-.21 1.86.83 2.69 2.07 2.69zm18.84-16.54l-2.49-1.86-.2-1.04c-1.66-.62-3.52-.41-5.39-.2v-.83c1.25.41 2.28-.21 3.73-1.24 3.11-.62 4.97-1.45 7.25-2.28l1.45 4.76c-3.73-1.03-4.15.62-4.35 2.69z" class="st9"/></g><g id="shape154-347" transform="translate(754.849 -172.042)"><path d="M10.77 793.42c.82-2.9-3.73-2.48-4.56 0L0 844.08l4.97 1.24 5.8-51.9" class="st11"/></g><g id="shape155-350" transform="translate(750.994 -179.589)"><path d="M5.1 844.39c-.42.83 4.14 1.65 4.14 0-9.73-111.46 39.13-184.24 99.37-218.57 25.88-1.86 33.75 5.79 41.62 13.24 4.14-.83 5.17-2.69.41-6 6.42 2.89 15.74 4.14 9.32-2.28-8.9-8.47-21.95-14.47-39.75-16.95-18.63 4.34-26.3 11.37-33.96 18.61-50.1 33.08-103.1 100.7-81.15 211.95z" class="st8"/></g><g id="shape156-352" transform="translate(807.643 -379.115)"><path d="M60.04 812.32c-2.48 0-5.8 1.24-7.45 3.1-.62.21-1.25 0-1.66.21-.62-1.24-2.48-1.86-4.35 0-1.45-.41-3.93-1.24-3.93 0 .21-1.45-1.04-1.65-3.11-1.45l-4.97 10.75c-1.03-6.61-8.28-3.51-12.62-.62-4.56-3.51-8.91-4.75-13.25-1.86-4.15-1.24-7.46-1.44-8.7 1.86 1.45 5.38 1.66 10.96 5.59 16.13 2.69.62 6 .62 7.66 2.69 3.73 2.48 7.25 3.72 8.9-.62 3.73 0 7.66.83 10.98-.41 6.21 2.89 8.48 1.65 9.52-1.45 3.31 1.65 6 4.14 11.59 2.48 2.07 1.04 5.39.21 8.49-.62L58.59 827c-1.24-.82-2.48-1.03-3.52-.41L53 833.41l-3.1-2.69c3.93-1.03 4.96-2.06 1.86-3.3l7.87-4.76c2.89 1.65 7.24 1.65 12.21.41l1.04 1.24-8.91 1.87c-2.69-.21-4.34 0-3.72 2.06-.21 3.52.83 6.62 4.97 9.1 6 2.48 7.66 1.24 8.07-1.24 7.04 1.24 14.08 2.28 21.12 1.86 4.35-1.86.62-3.93-.62-5.99 4.14-.42 2.69-2.28 2.07-3.93 6 .41 11.38-.83 16.77-2.48 17.18-2.49 12.21-8.9-1.87-6.83-2.89-1.65-3.1-4.13-12.21-3.51-6.42.62-9.73 1.86-10.56 3.72 1.03-2.07-5.8-.21-8.9-.21l4.14-2.48c3.72-1.86 2.07-3.93-1.45-3.93-6.63 0-12.42 1.66-18.43 2.69.21-1.86-1.24-2.69-3.31-2.69zm-30.85 16.96l4.14 2.07.42 1.03c2.69.62 5.59.62 8.49.21v1.03c-1.66-.62-3.73 0-5.8 1.24-5.38.62-8.28 1.45-11.8 2.27l-2.49-4.96c6.01 1.24 6.83-.62 7.04-2.89z" class="st9"/></g><g id="shape157-354" transform="translate(779.472 -160.178)"><path d="M5.4 841.93c0 6.41-5.39 3.52-5.39-2.68-.41-27.71 8.08-53.97 19.47-80.24 6.83-15.5 19.04-30.81 19.66-46.93l3.32-.83c-.21 18.4-6.63 30.81-17.6 49.63C9.33 799.75 7.67 833.46 5.4 841.93z" class="st12"/></g><g id="shape158-356" transform="translate(779.472 -160.178)"><path d="M5.4 841.93c0 6.41-5.39 3.52-5.39-2.68-.41-27.71 8.08-53.97 19.47-80.24 6.83-15.5 19.04-30.81 19.66-46.93l3.32-.83c-.21 18.4-6.63 30.81-17.6 49.63C9.33 799.75 7.67 833.46 5.4 841.93" class="st11"/></g><g id="shape159-359" transform="translate(770.185 -163.745)"><path d="M6.2 841.99c0 6.41-5.59 3.3-5.59-2.49-2.7-14.88 4.55-20.05 2.89-51.07-1.44-29.16 20.71-56.45 30.23-75.27 15.32-21.71 27.95-34.53 39.75-40.11l-30.43 41.77C-.64 789.26 18 794.84 6.2 841.99z" class="st13"/></g><g id="shape160-361" transform="translate(770.185 -163.745)"><path d="M6.2 841.99c0 6.41-5.59 3.3-5.59-2.49-2.7-14.88 4.55-20.05 2.89-51.07-1.44-29.16 20.71-56.45 30.23-75.27 15.32-21.71 27.95-34.53 39.75-40.11l-30.43 41.77C-.64 789.26 18 794.84 6.2 841.99" class="st11"/></g><g id="shape161-364" transform="translate(757.747 -165.304)"><path d="M5.38 797.64c-1.03.21-2.27-.83-2.9 1.65L0 842.51c0 3.52 3.93 4.76 5.8-1.24 4.76-18.2 8.9-43.63 1.86-49.21-2.9-.83-4.97-.42-2.28 5.58" class="st11"/></g><g id="shape162-367" transform="translate(762.509 -173.076)"><path d="M5.59 845.32L0 844.7c2.69-28.33 2.48-59.35 8.07-85.19h3.73c-3.93 21.71 2.07 76.5-6.21 85.81" class="st11"/></g><g id="shape163-370" transform="translate(757.126 -180.313)"><path d="M53 659.22c.21-1.45-2.48-1.24-2.9-.62C29.61 723.11 16.77 783.08 0 845.32l10.77-.41C24.84 782.87 36.85 723.11 53 659.22z" class="st12"/></g><g id="shape164-372" transform="translate(757.126 -180.313)"><path d="M53 659.22c.21-1.45-2.48-1.24-2.9-.62C29.61 723.11 16.77 783.08 0 845.32l10.77-.41C24.84 782.87 36.85 723.11 53 659.22" class="st11"/></g><g id="shape165-375" transform="translate(742.013 -169.354)"><path d="M8.9 844.7l-3.72.62C3.52 819.68 6 791.14 0 764.88h2.69c6.63 24.61 4.76 53.77 6.21 79.82z" class="st14"/></g><g id="shape166-377" transform="translate(742.013 -169.354)"><path d="M8.9 844.7l-3.72.62C3.52 819.68 6 791.14 0 764.88h2.69c6.63 24.61 4.76 53.77 6.21 79.82" class="st11"/></g><g id="shape167-380" transform="translate(737.872 -169.354)"><path d="M13.04 844.7l-3.72.62C7.66 819.68 6 794.25 0 767.78h3.93c6.63 24.81 7.66 50.87 9.11 76.92z" class="st15"/></g><g id="shape168-382" transform="translate(737.872 -169.354)"><path d="M13.04 844.7l-3.72.62C7.66 819.68 6 794.25 0 767.78h3.93c6.63 24.81 7.66 50.87 9.11 76.92" class="st11"/></g><g id="shape169-385" transform="translate(751.329 -193.547)"><path d="M4.76 845.32l-3.52-2.27 1.24-50.46L0 726.83l5.38 23.78 4.35-22.12 1.66 26.05 1.65-1.24 15.74-77.95-10.35 92.63 14.07-86.22-9.52 98.22-7.66-10.13-10.56 75.47z" class="st16"/></g><g id="shape170-387" transform="translate(751.329 -193.547)"><path d="M4.76 845.32l-3.52-2.27 1.24-50.46L0 726.83l5.38 23.78 4.35-22.12 1.66 26.05 1.65-1.24 15.74-77.95-10.35 92.63 14.07-86.22-9.52 98.22-7.66-10.13-10.56 75.47" class="st11"/></g><g id="shape171-390" transform="translate(655.797 -179.256)"><path d="M112.1 843.85c.41 1.24-4.15 2.69-4.15 0 9.74-175.76 5.8-290.73-54.45-344.91-25.87-2.69-33.74 9.1-41.61 21.09-4.14-1.45-5.18-4.13-.41-9.72-6.42 4.55-15.74 6.62-9.32-3.51 8.9-13.44 21.95-22.75 39.75-26.88 18.63 7.03 26.29 18.19 33.95 29.36 50.11 52.31 58.18 159.01 36.24 334.57z" class="st8"/></g><g id="shape172-392" transform="translate(637.71 -494.016)"><path d="M63.52 793.02c2.48 0 5.79 2.07 7.45 5.17.62.41 1.24 0 1.66.41.62-2.27 2.48-3.1 4.34 0 1.45-.82 3.94-2.06 3.94-.2-.21-2.07 1.03-2.69 3.1-2.28l4.97 16.96c1.04-10.34 8.28-5.58 12.63-.83 4.56-5.58 8.9-7.65 13.25-3.1 4.14-1.86 7.45-2.27 8.7 2.89-1.45 8.69-1.66 17.37-5.59 25.44-2.69 1.03-6.01 1.03-7.66 4.34-3.73 3.93-7.25 6-8.91-1.03-3.72 0-7.66 1.44-10.97-.42-6.21 4.35-8.49 2.28-9.52-2.48-3.32 2.69-6.01 6.41-11.6 3.93-2.07 1.66-5.38.21-8.48-1.03l4.14-24.4c1.24-1.24 2.48-1.66 3.52-.62l2.07 10.75 3.1-4.14c-3.93-1.65-4.97-3.3-1.86-5.37l-7.87-7.45c-2.9 2.48-7.25 2.48-12.21.62l-1.04 1.86 8.9 2.9c2.69-.41 4.35.21 3.73 3.52.21 5.37-.83 10.33-4.97 14.26-6 3.93-7.66 1.86-8.07-1.86-7.04 1.86-14.08 3.31-21.12 2.9-4.35-2.9-.62-6.21.62-9.52-4.14-.82-2.69-3.72-2.07-6.2-6 .62-11.39-1.24-16.77-4.13-17.18-3.73-12.22-13.86 1.86-10.76 2.9-2.27 3.11-6.41 12.22-5.37 6.42.82 9.73 2.89 10.56 5.99-1.04-3.3 5.79-.41 8.9-.41l-4.14-4.14c-3.73-2.89-2.07-5.79 1.45-5.79 6.62-.2 12.42 2.28 18.42 4.14-.2-3.1 1.25-4.34 3.32-4.55zm30.84 27.09L90.22 823l-.41 1.87c-2.69 1.03-5.59.82-8.49.41v1.45c1.66-.83 3.73.2 5.8 2.06 5.38.83 8.28 2.28 11.8 3.73l2.48-8.07c-6 1.86-6.83-1.03-7.04-4.34z" class="st9"/></g><g id="shape173-394" transform="translate(720.274 -161.567)"><path d="M12.63 840.64c-2.28 6.61-5.8 6.61-5.8-1.25 2.49-29.36-2.48-63.27-6.83-96.77l4.35-.62 8.69 28.95v-14.68l3.94-.62c6 28.53 6.21 56.86-4.35 84.99z" class="st14"/></g><g id="shape174-396" transform="translate(720.274 -161.567)"><path d="M12.63 840.64c-2.28 6.61-5.8 6.61-5.8-1.25 2.49-29.36-2.48-63.27-6.83-96.77l4.35-.62 8.69 28.95v-14.68l3.94-.62c6 28.53 6.21 56.86-4.35 84.99" class="st11"/></g><g id="shape175-399" transform="translate(620.69 -223.323)"><path d="M9.52 842.01c4.14-55.62 9.94-120.55 16.77-190.86.83-2.48-4.97-8.68-6.62-2.69C7.45 716.29 1.66 781.84 0 845.32l9.52-3.31z" class="st7"/></g><g id="shape176-401" transform="translate(631.042 -223.323)"><path d="M4.35 842.01c1.86-55.62 14.08-130.68 17.39-200.99.41-2.48-2.28-8.68-3.11-2.89C13.04 706.16.62 781.84 0 845.32l4.35-3.31z" class="st7"/></g><g id="shape177-403" transform="translate(621.268 -223.323)"><path d="M17.23 842.01C15.36 786.39 3.15 711.33.04 641.02c-.41-2.48 2.28-8.68 3.11-2.89 5.59 68.03 17.8 143.71 18.63 207.19l-4.55-3.31z" class="st7"/></g><g id="shape178-405" transform="translate(611.129 -223.323)"><path d="M19.29 842.63C17.22 796.11 3.76 733.87.04 675.14c-.42-2.07 2.69-7.24 3.52-2.28 6.21 56.66 19.87 119.52 20.7 172.46l-4.97-2.69z" class="st7"/></g><g id="shape179-407" transform="translate(601.632 -223.323)"><path d="M17.4 842.84C15.54 801.28 3.32 745.44.01 693.13c-.21-1.86 2.49-6.62 3.31-2.07 5.59 50.66 17.6 106.91 18.43 154.26l-4.35-2.48z" class="st7"/></g><g id="shape180-409" transform="translate(607.397 -223.323)"><path d="M17.23 842.22C15.36 789.08 3.15 717.53.04 650.33c-.41-2.28 2.28-8.28 3.11-2.49 5.59 64.73 17.8 136.89 18.42 197.48l-4.34-3.1z" class="st7"/></g><g id="shape181-411" transform="translate(599.23 -159.175)"><path d="M7.17 844.03c-.2 1.24 2.49 2.28 2.49 0-6-132.13-3.52-218.36 33.95-259.3 16.15-1.86 21.12 7.03 26.09 15.92 2.48-1.03 3.1-3.1.21-7.23 3.93 3.51 9.73 4.96 5.79-2.69-5.59-10.14-13.66-16.96-24.84-20.06-11.59 5.17-16.36 13.65-21.12 21.92C-1.52 631.88-6.49 712.11 7.17 844.03z" class="st8"/></g><g id="shape182-413" transform="translate(624.21 -410.253)"><path d="M30.85 845.32c-1.24 0-3.11-1.24-3.94-3.1-.2-.42-.62 0-.82-.42-.42 1.45-1.25 1.87-2.28 0-.62.42-1.86 1.25-2.07.21.21 1.24-.42 1.66-1.45 1.45l-2.69-10.55c-.42 6.41-4.14 3.31-6.42.42-2.28 3.51-4.55 4.75-6.83 2.06-2.07 1.25-3.73 1.25-4.35-1.86.62-5.37.83-10.75 2.9-15.71 1.45-.62 3.1-.62 3.93-2.69 1.87-2.48 3.73-3.72 4.56.62 1.86 0 3.93-.83 5.59.41 3.1-2.89 4.34-1.44 4.76 1.45 1.86-1.65 3.1-3.93 6-2.48 1.24-1.03 2.9-.21 4.35.62l-2.07 15.1c-.62.82-1.24 1.03-1.86.41l-1.04-6.62-1.45 2.48c1.87 1.04 2.49 2.07.83 3.31l4.14 4.55c1.45-1.45 3.52-1.45 6.21-.21l.42-1.24-4.56-1.86c-1.24.21-2.07 0-1.86-2.07 0-3.3.41-6.41 2.69-8.89 2.9-2.48 3.73-1.03 4.14 1.24 3.52-1.24 7.04-2.06 10.77-1.86 2.27 1.86.41 3.93-.42 6 2.07.41 1.45 2.07 1.04 3.72 3.1-.21 6 .83 8.69 2.48 8.91 2.28 6.21 8.69-1.03 6.83-1.45 1.44-1.45 3.93-6.21 3.31-3.32-.63-4.97-1.87-5.39-3.73.42 2.07-2.89.21-4.55.21l2.07 2.48c2.07 1.86 1.03 3.72-.62 3.72-3.52.21-6.42-1.44-9.53-2.68 0 2.06-.62 2.89-1.65 2.89zm-15.94-16.75l2.07-1.86.2-1.03c1.45-.62 2.9-.62 4.56-.42v-.82c-1.04.41-2.07 0-3.11-1.25-2.69-.62-4.14-1.44-6-2.27l-1.24 4.96c3.1-1.24 3.52.62 3.52 2.69z" class="st9"/></g><g id="shape183-415" transform="translate(584.252 -140.807)"><path d="M17.39 842.62c0 3.52-4.14 3.72-4.14 0l-6.62-63.89L0 721.45V659l10.14 81.47 7.25 102.15z" class="st10"/></g><g id="shape184-417" transform="translate(584.252 -140.807)"><path d="M17.39 842.62c0 3.52-4.14 3.72-4.14 0l-6.62-63.89L0 721.45V659l10.14 81.47 7.25 102.15" class="st11"/></g><g id="shape185-420" transform="translate(538.847 -192.605)"><path d="M69.84 844.17c.2 1.04-2.49 2.07-2.49 0 6.01-132.13 3.52-218.57-34.16-259.3-15.94-2.07-20.91 6.82-25.88 15.71-2.48-1.03-3.1-3.1-.21-7.23-3.93 3.51-9.73 5.17-5.79-2.69 5.59-10.13 13.66-16.96 24.84-20.06 11.6 5.38 16.36 13.65 21.12 22.13 31.26 39.28 36.23 119.52 22.57 251.44z" class="st8"/></g><g id="shape186-422" transform="translate(527.41 -443.752)"><path d="M32.62 845.32c1.24 0 2.9-1.24 3.73-3.1.41-.21.62 0 1.03-.21.21 1.24 1.24 1.86 2.07 0 .83.42 2.07 1.24 2.07 0-.21 1.24.62 1.66 1.66 1.45l2.48-10.55c.62 6.41 4.35 3.52 6.42.62 2.48 3.52 4.76 4.76 6.83 1.86 2.07 1.25 3.94 1.45 4.56-1.86-.62-5.17-.83-10.54-2.9-15.71-1.45-.62-3.11-.62-3.93-2.69-1.87-2.27-3.73-3.72-4.56.62-1.86 0-3.93-.83-5.59.41-3.11-2.68-4.35-1.44-4.97 1.45-1.65-1.65-3.1-3.93-5.8-2.48-1.24-1.03-2.89 0-4.34.62l2.07 15.3c.62.62 1.24.83 1.65.21l1.25-6.62 1.44 2.69c-2.07.83-2.48 1.86-.82 3.1l-4.14 4.76c-1.45-1.66-3.73-1.45-6.21-.42l-.63-1.24 4.77-1.65c1.24.21 2.07-.21 1.65-2.28.21-3.3-.41-6.41-2.48-8.89-2.9-2.27-3.73-1.03-4.14 1.24-3.52-1.24-7.25-2.06-10.77-1.65-2.28 1.65-.41 3.72.42 5.79-2.28.41-1.45 2.27-1.25 3.72-2.9-.21-5.79.83-8.49 2.48-8.9 2.48-6.41 8.69.83 6.83 1.66 1.44 1.66 3.93 6.42 3.31 3.11-.63 4.97-1.87 5.38-3.73-.62 2.07 2.9.21 4.56.21l-2.28 2.48c-1.86 1.86-1.03 3.72.83 3.72 3.31.21 6.42-1.44 9.52-2.48-.2 1.86.62 2.69 1.66 2.69zm15.94-16.75l-2.28-1.86-.2-1.03c-1.25-.62-2.9-.42-4.35-.21v-.83c.83.42 1.86-.2 3.1-1.24 2.7-.62 4.14-1.65 6.01-2.48l1.24 4.96c-3.11-1.03-3.52.62-3.52 2.69z" class="st9"/></g><g id="shape187-424" transform="translate(615.929 -151.157)"><path d="M8.9 793c.83-2.89-3.1-2.48-3.72 0L0 844.08l4.14 1.24L8.9 793" class="st11"/></g><g id="shape188-427" transform="translate(612.671 -158.854)"><path d="M4.29 843.71c-.41 1.45 3.32 2.9 3.32 0C-.47 666.29 40.52 550.5 91.04 495.7c21.53-2.9 28.16 9.1 34.99 21.09 3.31-1.24 4.14-4.13.21-9.72 5.17 4.76 13.04 6.83 7.86-3.51-7.45-13.65-18.42-22.75-33.33-27.09-15.73 7.24-22.15 18.4-28.57 29.78-42.03 52.72-86.33 160.46-67.91 337.46z" class="st8"/></g><g id="shape189-429" transform="translate(660.027 -476.512)"><path d="M50.31 792.47c-2.07 0-4.76 2.07-6.21 5.17-.42.42-1.04 0-1.45.42-.62-2.28-2.07-3.11-3.52 0-1.45-.62-3.31-2.07-3.52-.21.41-2.07-.83-2.69-2.48-2.27l-4.15 17.16c-.82-10.55-7.03-5.59-10.55-.83-3.73-5.79-7.66-7.86-11.18-3.1-3.32-2.07-6.21-2.28-7.25 2.89 1.24 8.69 1.45 17.37 4.76 25.64 2.28 1.04 4.97 1.04 6.42 4.35 3.11 3.93 6 6.2 7.45-.83 3.11-.21 6.42 1.24 9.11-.62 5.18 4.34 7.25 2.27 7.87-2.48 2.9 2.69 5.18 6.41 9.73 3.93 1.86 1.65 4.56.2 7.25-.83l-3.52-24.81c-1.04-1.24-2.07-1.66-2.9-.62l-1.86 10.96-2.49-4.35c3.31-1.65 4.14-3.31 1.66-5.37l6.42-7.45c2.48 2.48 6 2.28 10.35.62l.83 1.86-7.46 2.9c-2.28-.41-3.52.21-3.1 3.51-.21 5.59.82 10.55 4.14 14.48 4.97 3.93 6.42 1.65 6.83-2.07 5.8 2.07 11.8 3.52 17.6 3.1 3.72-2.89.62-6.41-.62-9.72 3.52-.62 2.27-3.51 1.86-6.2 4.97.62 9.52-1.24 14.08-4.13 14.49-3.73 10.35-14.07-1.66-10.76-2.48-2.48-2.69-6.41-10.35-5.58-5.18.83-7.87 2.89-8.7 6 .83-3.31-4.76-.42-7.45-.21l3.52-4.14c3.11-3.1 1.86-6.2-1.24-6.2-5.38 0-10.35 2.48-15.32 4.34 0-3.1-1.24-4.34-2.9-4.55zm-25.88 27.3l3.52 3.1.21 1.86c2.27.83 4.76.62 7.24.41v1.25c-1.45-.62-3.1.2-4.97 2.06-4.34 1.04-6.83 2.48-9.73 3.73l-2.27-8.07c5.17 2.07 5.79-.83 6-4.34z" class="st9"/></g><g id="shape190-431" transform="translate(636.628 -139.164)"><path d="M4.56 842.01c0 6.41-4.56 3.31-4.56-2.69-.2-28.12 6.84-54.79 16.36-81.05 5.8-15.72 15.94-31.02 16.56-47.36l2.69-.82c-.2 18.61-5.59 31.01-14.7 50.04-13.04 39.08-14.28 73.2-16.35 81.88z" class="st12"/></g><g id="shape191-433" transform="translate(636.628 -139.164)"><path d="M4.56 842.01c0 6.41-4.56 3.31-4.56-2.69-.2-28.12 6.84-54.79 16.36-81.05 5.8-15.72 15.94-31.02 16.56-47.36l2.69-.82c-.2 18.61-5.59 31.01-14.7 50.04-13.04 39.08-14.28 73.2-16.35 81.88" class="st11"/></g><g id="shape192-436" transform="translate(628.658 -142.756)"><path d="M5.28 842.09c0 6.2-4.76 3.31-4.76-2.69-2.28-15.09 3.73-20.06 2.49-51.49-1.25-29.36 17.39-56.86 25.25-76.09 13.05-21.92 23.61-34.74 33.34-40.33l-25.47 42.19C-.51 788.74 15.01 794.53 5.28 842.09z" class="st13"/></g><g id="shape193-438" transform="translate(628.658 -142.756)"><path d="M5.28 842.09c0 6.2-4.76 3.31-4.76-2.69-2.28-15.09 3.73-20.06 2.49-51.49-1.25-29.36 17.39-56.86 25.25-76.09 13.05-21.92 23.61-34.74 33.34-40.33l-25.47 42.19C-.51 788.74 15.01 794.53 5.28 842.09" class="st11"/></g><g id="shape194-441" transform="translate(618.206 -144.374)"><path d="M4.55 797.18c-.82.42-1.65-.83-2.48 1.66L0 842.67c0 3.31 3.52 4.55 5.18-1.44 3.72-18.41 7.24-44.05 1.45-49.63-2.49-.83-4.15-.42-2.08 5.79v-.21" class="st11"/></g><g id="shape195-444" transform="translate(622.554 -152.191)"><path d="M4.55 845.32L0 844.7c2.28-28.54 2.07-59.97 6.63-86.02h3.1c-3.31 21.92 1.86 77.33-5.18 86.64" class="st11"/></g><g id="shape196-447" transform="translate(617.792 -159.428)"><path d="M44.51 657.36c.21-1.45-2.07-1.24-2.48-.62C24.84 721.87 14.08 782.46 0 845.32l9.11-.62c11.8-62.45 21.74-122.83 35.4-187.34z" class="st12"/></g><g id="shape197-449" transform="translate(617.792 -159.428)"><path d="M44.51 657.36c.21-1.45-2.07-1.24-2.48-.62C24.84 721.87 14.08 782.46 0 845.32l9.11-.62c11.8-62.45 21.74-122.83 35.4-187.34" class="st11"/></g><g id="shape198-452" transform="translate(605.163 -148.469)"><path d="M7.45 844.91l-3.1.41c-1.24-25.85.83-54.59-4.35-81.26h2.28c5.59 25.02 4.14 54.38 5.17 80.85z" class="st14"/></g><g id="shape199-454" transform="translate(605.163 -148.469)"><path d="M7.45 844.91l-3.1.41c-1.24-25.85.83-54.59-4.35-81.26h2.28c5.59 25.02 4.14 54.38 5.17 80.85" class="st11"/></g><g id="shape200-457" transform="translate(601.85 -148.469)"><path d="M10.77 844.91l-3.11.41c-1.24-25.85-2.69-51.7-7.66-78.16h3.31c5.39 25.02 6.42 51.28 7.46 77.75z" class="st15"/></g><g id="shape201-459" transform="translate(601.85 -148.469)"><path d="M10.77 844.91l-3.11.41c-1.24-25.85-2.69-51.7-7.66-78.16h3.31c5.39 25.02 6.42 51.28 7.46 77.75" class="st11"/></g><g id="shape202-462" transform="translate(613.03 -172.869)"><path d="M3.93 845.32l-2.89-2.27.82-50.87L0 725.59l4.35 23.99 3.72-22.33 1.45 26.47 1.25-1.24 13.25-78.79-8.7 93.67 11.8-87.26-7.87 99.26-6.41-10.14-8.91 76.1z" class="st16"/></g><g id="shape203-464" transform="translate(613.03 -172.869)"><path d="M3.93 845.32l-2.89-2.27.82-50.87L0 725.59l4.35 23.99 3.72-22.33 1.45 26.47 1.25-1.24 13.25-78.79-8.7 93.67 11.8-87.26-7.87 99.26-6.41-10.14-8.91 76.1" class="st11"/></g><g id="shape204-467" transform="translate(533.092 -158.44)"><path d="M93.81 843.71c.41 1.45-3.52 2.9-3.52 0 8.07-177.42 4.97-293.21-45.55-348.22-21.53-2.69-28.15 9.31-34.99 21.3-3.1-1.45-4.14-4.13 0-9.72-5.38 4.76-13.25 6.83-8.07-3.51 7.45-13.65 18.43-22.75 33.33-27.09 15.74 7.24 22.15 18.4 28.57 29.57 42.03 52.93 48.66 160.67 30.23 337.67z" class="st8"/></g><g id="shape205-469" transform="translate(517.865 -476.233)"><path d="M53.14 792.61c2.07 0 4.97 2.07 6.21 5.17.62.41 1.03 0 1.65.41.42-2.27 2.07-3.1 3.52 0 1.25-.83 3.32-2.07 3.32-.21-.21-2.06.82-2.68 2.69-2.27l4.14 17.16c.83-10.54 6.83-5.58 10.56-.83 3.72-5.78 7.45-7.85 10.97-3.1 3.52-2.06 6.42-2.27 7.45 2.9-1.24 8.68-1.65 17.37-4.76 25.64-2.28 1.03-5.17 1.03-6.42 4.34-3.31 3.93-6.21 6-7.45-1.03-3.11 0-6.42 1.44-9.11-.42-5.38 4.35-7.25 2.28-8.07-2.48-2.9 2.69-4.97 6.41-9.73 3.93-1.87 1.66-4.56.21-7.04-1.03l3.31-24.61c1.24-1.24 2.28-1.65 2.9-.62l1.86 10.96 2.69-4.34c-3.52-1.66-4.35-3.31-1.65-5.38l-6.63-7.44c-2.48 2.48-6 2.27-10.35.41l-.62 2.07 7.45 2.89c2.07-.41 3.52.21 2.9 3.52.41 5.37-.62 10.34-4.14 14.47-4.97 3.93-6.21 1.66-6.63-2.06-6 2.06-11.8 3.51-17.8 2.89-3.52-2.89-.42-6.2.62-9.51-3.31-.83-2.28-3.72-1.66-6.21-5.17.42-9.73-1.24-14.07-4.13-14.5-3.72-10.36-14.06 1.44-10.96 2.49-2.27 2.7-6.41 10.36-5.38 5.17.83 8.07 2.9 8.69 6-.83-3.31 4.97-.41 7.45-.41l-3.51-3.93c-3.11-3.1-1.66-6.21 1.24-6.21 5.59-.2 10.56 2.49 15.53 4.35-.21-3.11 1.03-4.35 2.69-4.55zm25.88 27.29L75.7 823l-.41 1.87c-2.28.82-4.76.62-7.25.2v1.45c1.45-.83 3.32.21 4.97 2.07 4.56 1.03 7.04 2.48 9.94 3.72l2.07-8.07c-5.18 2.07-5.8-.82-6-4.34z" class="st9"/></g><g id="shape206-471" transform="translate(586.944 -140.352)"><path d="M10.77 840.51c-1.87 6.62-4.97 6.62-4.97-1.24 2.07-29.77-2.07-63.89-5.8-97.81l3.73-.62L10.97 770v-14.89l3.32-.41c4.96 28.74 5.17 57.28-3.52 85.81z" class="st14"/></g><g id="shape207-473" transform="translate(586.944 -140.352)"><path d="M10.77 840.51c-1.87 6.62-4.97 6.62-4.97-1.24 2.07-29.77-2.07-63.89-5.8-97.81l3.73-.62L10.97 770v-14.89l3.32-.41c4.96 28.74 5.17 57.28-3.52 85.81" class="st11"/></g><g id="shape208-476" transform="translate(534.771 -196.649)"><path d="M16.98 842.63C12.84 797.14 7.04 744.2 0 686.72c-.62-2.07 5.18-7.03 6.83-2.28 12.22 55.63 18.01 108.98 19.67 160.88l-9.52-2.69z" class="st7"/></g><g id="shape209-478" transform="translate(529.138 -196.649)"><path d="M17.43 842.63C15.57 797.14 3.36 735.93.04 678.45c-.41-2.07 2.28-7.03 3.11-2.28 5.59 55.63 17.8 117.25 18.63 169.15l-4.35-2.69z" class="st7"/></g><g id="shape210-480" transform="translate(539.119 -196.649)"><path d="M4.55 842.63c1.87-45.49 14.08-106.7 17.4-164.18.2-2.07-2.49-7.03-3.32-2.28C13.04 731.8.83 793.42 0 845.32l4.55-2.69z" class="st7"/></g><g id="shape211-482" transform="translate(546.572 -196.649)"><path d="M4.97 843.05c2.07-37.85 15.53-88.92 19.25-136.69.21-1.65-2.69-5.99-3.52-1.86C14.49 750.82.83 802.1 0 845.32l4.97-2.27z" class="st7"/></g><g id="shape212-484" transform="translate(558.58 -196.649)"><path d="M4.35 843.25c1.86-33.91 14.08-79.4 17.18-122.21.42-1.65-2.28-5.37-3.1-1.86C12.84 760.54.62 806.65 0 845.32l4.35-2.07z" class="st7"/></g><g id="shape213-486" transform="translate(553.197 -196.649)"><path d="M4.35 842.63C6.21 799.41 18.43 740.9 21.53 686.1c.42-1.86-2.28-6.62-3.1-2.07C12.84 736.97.62 795.69 0 845.32l4.35-2.69z" class="st7"/></g><g id="shape214-488" transform="translate(505.721 -144.356)"><path d="M69.84 844.31c.2.83-2.49 1.86-2.49 0 6.01-107.73 3.52-178.25-33.95-211.54-16.15-1.86-21.12 5.59-26.09 12.82-2.48-.82-3.1-2.48-.21-5.99-3.93 2.89-9.73 4.13-5.79-2.07 5.59-8.27 13.66-13.86 24.84-16.54 11.6 4.34 16.36 11.16 21.12 18.19 31.26 32.05 36.23 97.4 22.57 205.13z" class="st8"/></g><g id="shape215-490" transform="translate(494.303 -349.253)"><path d="M32.6 845.32c1.24 0 3.11-1.03 3.93-2.69.21-.2.63 0 .83-.2.42 1.24 1.24 1.65 2.28 0 .62.41 1.86 1.03 2.07.2-.21 1.04.41 1.24 1.45 1.04l2.69-8.48c.41 5.17 4.14 2.69 6.42.41 2.28 2.9 4.55 3.93 6.83 1.45 2.07 1.03 3.73 1.24 4.35-1.45-.62-4.34-.83-8.68-2.9-12.82-1.45-.41-3.11-.41-3.93-2.07-1.87-2.06-3.73-3.1-4.56.42-1.86 0-3.93-.62-5.59.2-3.1-2.06-4.35-1.03-4.76 1.24-1.86-1.24-3.11-3.1-6-1.86-1.25-.82-2.9-.2-4.35.42l2.07 12.4c.62.62 1.24.83 1.65.21l1.25-5.38 1.45 2.07c-1.87.83-2.49 1.66-.83 2.69l-4.14 3.72c-1.45-1.24-3.52-1.03-6.21-.2l-.62-1.04 4.76-1.45c1.24.21 2.07 0 1.86-1.65 0-2.69-.41-5.38-2.69-7.24-2.9-2.07-3.73-.82-4.14 1.04-3.52-1.04-7.25-1.86-10.77-1.66-2.27 1.45-.41 3.31.42 4.96-2.07.21-1.45 1.66-1.04 3.11-3.1-.42-6 .62-8.69 2.06-8.91 1.87-6.42 7.03 1.03 5.38 1.45 1.24 1.45 3.1 6.21 2.69 3.31-.41 4.97-1.45 5.38-2.9-.41 1.66 2.9.21 4.56.21l-2.07 1.86c-2.07 1.66-1.24 3.1.62 3.1 3.52 0 6.42-1.24 9.52-2.06 0 1.44.63 2.06 1.66 2.27zm15.94-13.65l-2.28-1.65v-.83c-1.44-.41-2.89-.41-4.55-.21v-.62c1.04.21 2.07-.2 3.11-1.03 2.69-.62 4.14-1.24 6-1.86l1.24 3.93c-3.1-1.04-3.52.41-3.52 2.27z" class="st9"/></g><g id="shape216-492" transform="translate(580.319 -129.345)"><path d="M0 843.15c0 2.69 4.14 3.1 4.14 0l6.63-52.11 6.62-46.94v-50.86L7.25 759.82 0 843.15z" class="st10"/></g><g id="shape217-494" transform="translate(580.319 -129.345)"><path d="M0 843.15c0 2.69 4.14 3.1 4.14 0l6.63-52.11 6.62-46.94v-50.86L7.25 759.82 0 843.15" class="st11"/></g><g id="shape218-497" transform="translate(566.104 -171.651)"><path d="M7.17 844.31c-.2.83 2.49 1.86 2.49 0-6-107.73-3.52-178.25 33.95-211.54 16.15-1.86 21.12 5.59 26.09 12.82 2.48-.82 3.1-2.48.21-5.99 3.93 2.89 9.73 4.13 5.79-2.07-5.59-8.27-13.66-13.86-24.84-16.54-11.59 4.34-16.36 11.16-21.12 18.19-31.26 32.05-36.23 97.4-22.57 205.13z" class="st8"/></g><g id="shape219-499" transform="translate(591.084 -376.548)"><path d="M30.85 845.32c-1.24 0-3.11-1.03-3.94-2.69-.2-.2-.62 0-.82-.2-.21 1.24-1.25 1.65-2.28 0-.62.41-1.86 1.03-2.07.2.21 1.04-.42 1.24-1.45 1.04l-2.49-8.48c-.62 5.17-4.34 2.69-6.62.41-2.28 2.9-4.55 3.93-6.63 1.45-2.27 1.03-3.93 1.24-4.55-1.45.62-4.34.83-8.68 2.9-12.82 1.45-.41 3.1-.41 3.93-2.07 1.87-2.06 3.73-3.1 4.56.42 1.86 0 3.93-.62 5.59.2 3.1-2.06 4.34-1.03 4.76 1.24 1.86-1.24 3.31-3.1 6-1.86 1.24-.82 2.9-.2 4.35.42l-2.07 12.4c-.62.62-1.24.83-1.66.21l-1.24-5.38-1.45 2.07c2.07.83 2.49 1.66.83 2.69l4.14 3.72c1.45-1.24 3.73-1.03 6.21-.2l.62-1.04-4.76-1.45c-1.24.21-2.07 0-1.65-1.65-.21-2.69.41-5.38 2.48-7.24 2.9-2.07 3.73-.82 4.14 1.04 3.52-1.04 7.25-1.86 10.77-1.66 2.27 1.45.41 3.31-.42 4.96 2.28.42 1.45 1.66 1.24 3.11 2.9-.42 5.8.62 8.49 2.06 8.91 1.87 6.42 7.03-.83 5.38-1.65 1.24-1.65 3.31-6.41 2.69-3.11-.41-4.97-1.45-5.39-2.9.62 1.66-2.89.21-4.55.21l2.07 1.86c2.07 1.66 1.24 3.1-.62 3.1-3.31 0-6.42-1.24-9.53-2.06.21 1.44-.62 2.06-1.65 2.27zm-15.94-13.65l2.27-1.65v-.83c1.45-.41 2.9-.41 4.56-.21v-.62c-1.04.21-2.07-.2-3.11-1.03-2.69-.62-4.14-1.24-6-1.86l-1.24 3.93c3.1-1.04 3.52.41 3.52 2.27z" class="st9"/></g><g id="shape220-501" transform="translate(557.224 -137.716)"><path d="M.11 802.52c-.82-2.28 3.11-2.07 3.73 0l5.18 41.77-4.14 1.03-4.77-42.8" class="st11"/></g><g id="shape221-504" transform="translate(433.476 -144.08)"><path d="M131.52 844.03c.42 1.24-3.52 2.28-3.52 0 8.08-144.74-32.71-239.45-83.23-284.11-21.73-2.28-28.15 7.44-34.98 17.37-3.32-1.24-4.15-3.52-.21-8.07-5.38 3.93-13.04 5.58-7.87-2.89 7.45-11.17 18.43-18.61 33.33-22.13 15.74 6 22.16 15.1 28.57 24.19 42.03 43.22 86.34 131.1 67.91 275.64z" class="st8"/></g><g id="shape222-506" transform="translate(418.3 -403.466)"><path d="M53.33 802.35c2.07 0 4.76 1.65 6.21 4.13.41.42 1.03 0 1.45.42.62-1.87 2.07-2.49 3.52 0 1.24-.63 3.31-1.66 3.51-.21-.41-1.66.63-2.07 2.49-1.86l4.14 13.85c.83-8.48 7.04-4.34 10.56-.62 3.73-4.55 7.45-6.41 11.18-2.48 3.31-1.65 6.21-1.86 7.24 2.48-1.24 7.03-1.44 14.06-4.76 20.89-2.27.82-4.97.82-6.42 3.51-3.1 3.1-6 4.96-7.45-.83-3.1 0-6.42 1.25-9.11-.41-5.17 3.52-7.24 1.86-7.87-1.86-2.89 2.07-5.17 5.17-9.73 3.1-1.86 1.45-4.55.21-7.24-.83l3.31-20.26c1.24-.83 2.28-1.24 3.11-.41l1.65 8.89 2.69-3.52c-3.31-1.24-4.34-2.69-1.65-4.13l-6.42-6.41c-2.49 2.27-6 2.06-10.35.62l-.83 1.65 7.45 2.28c2.28-.21 3.52.2 3.11 2.89.21 4.34-.83 8.48-4.14 11.79-4.97 3.1-6.42 1.44-6.83-1.66-5.8 1.66-11.81 2.9-17.6 2.48-3.73-2.48-.62-5.16.62-7.85-3.52-.62-2.28-3.1-1.86-5.17-4.97.41-9.53-1.04-14.08-3.31-14.5-3.1-10.36-11.37 1.65-8.89 2.49-2.07 2.49-5.17 10.35-4.35 5.18.63 7.87 2.28 8.7 4.76-.83-2.69 4.76-.21 7.45-.21l-3.52-3.3c-3.1-2.49-1.86-4.97 1.25-4.97 5.38-.2 10.35 1.86 15.32 3.52 0-2.69 1.24-3.72 2.9-3.72zm25.87 22.12l-3.52 2.48-.2 1.66c-2.28.62-4.76.62-7.25.2v1.24c1.45-.62 3.11 0 4.97 1.66 4.35.62 6.83 1.86 9.73 3.1l2.07-6.62c-4.97 1.45-5.59-.82-5.8-3.72z" class="st9"/></g><g id="shape223-508" transform="translate(509.927 -127.868)"><path d="M31.06 842.3c0 5.37 4.55 2.89 4.55-2.07.21-22.95-6.83-44.67-16.36-66.17-5.79-12.82-15.94-25.44-16.35-38.67l-2.9-.62c.21 15.1 5.59 25.43 14.7 40.74 13.04 32.05 14.28 59.96 16.36 66.79z" class="st12"/></g><g id="shape224-510" transform="translate(509.927 -127.868)"><path d="M31.06 842.3c0 5.37 4.55 2.89 4.55-2.07.21-22.95-6.83-44.67-16.36-66.17-5.79-12.82-15.94-25.44-16.35-38.67l-2.9-.62c.21 15.1 5.59 25.43 14.7 40.74 13.04 32.05 14.28 59.96 16.36 66.79" class="st11"/></g><g id="shape225-513" transform="translate(491.708 -130.892)"><path d="M56.31 842.63c0 5.17 4.77 2.69 4.77-2.07 2.27-12.4-3.73-16.54-2.49-42.18 1.24-23.99-17.39-46.52-25.26-62.03C20.29 718.36 9.73 707.81 0 703.26l25.47 34.53c36.64 61.42 21.11 65.97 30.84 104.84z" class="st13"/></g><g id="shape226-515" transform="translate(491.708 -130.892)"><path d="M56.31 842.63c0 5.17 4.77 2.69 4.77-2.07 2.27-12.4-3.73-16.54-2.49-42.18 1.24-23.99-17.39-46.52-25.26-62.03C20.29 718.36 9.73 707.81 0 703.26l25.47 34.53c36.64 61.42 21.11 65.97 30.84 104.84" class="st11"/></g><g id="shape227-518" transform="translate(554.058 -132.24)"><path d="M5.14 806.14c.83.21 1.66-.83 2.28 1.24l2.07 35.77c0 2.69-3.31 3.73-4.97-1.03-3.72-15.1-7.24-35.98-1.45-40.74 2.49-.62 4.14-.2 2.07 4.76" class="st11"/></g><g id="shape228-521" transform="translate(549.884 -138.543)"><path d="M5.18 845.32l4.55-.62c-2.28-23.37-2.07-49.01-6.62-70.1H0c3.31 17.78-1.86 63.07 5.18 70.72" class="st11"/></g><g id="shape229-524" transform="translate(519.864 -144.54)"><path d="M0 691.89c-.21-1.24 2.07-1.04 2.48-.41 17.19 53.14 27.95 102.56 42.03 153.84l-9.11-.41C23.6 793.83 13.66 744.62 0 691.89z" class="st12"/></g><g id="shape230-526" transform="translate(519.864 -144.54)"><path d="M0 691.89c-.21-1.24 2.07-1.04 2.48-.41 17.19 53.14 27.95 102.56 42.03 153.84l-9.11-.41C23.6 793.83 13.66 744.62 0 691.89" class="st11"/></g><g id="shape231-529" transform="translate(569.553 -135.648)"><path d="M0 844.91l3.11.41c1.24-21.09-.83-44.66 4.34-66.17H5.18C-.41 799.41 1.04 823.4 0 844.91z" class="st14"/></g><g id="shape232-531" transform="translate(569.553 -135.648)"><path d="M0 844.91l3.11.41c1.24-21.09-.83-44.66 4.34-66.17H5.18C-.41 799.41 1.04 823.4 0 844.91" class="st11"/></g><g id="shape233-534" transform="translate(569.553 -135.648)"><path d="M0 844.91l3.11.41c1.24-21.09 2.69-42.18 7.66-63.69H7.45C2.07 801.9 1.04 823.4 0 844.91z" class="st15"/></g><g id="shape234-536" transform="translate(569.553 -135.648)"><path d="M0 844.91l3.11.41c1.24-21.09 2.69-42.18 7.66-63.69H7.45C2.07 801.9 1.04 823.4 0 844.91" class="st11"/></g><g id="shape235-539" transform="translate(541.81 -155.499)"><path d="M23.19 845.32l2.9-1.86-1.04-41.56 2.07-54.39-4.35 19.65-3.72-18.2-1.45 21.51-1.24-1.04-13.25-64.1 8.69 76.3L0 710.5l7.87 81.06 6.42-8.48 8.9 62.24z" class="st16"/></g><g id="shape236-541" transform="translate(541.81 -155.499)"><path d="M23.19 845.32l2.9-1.86-1.04-41.56 2.07-54.39-4.35 19.65-3.72-18.2-1.45 21.51-1.24-1.04-13.25-64.1 8.69 76.3L0 710.5l7.87 81.06 6.42-8.48 8.9 62.24" class="st11"/></g><g id="shape237-544" transform="translate(545.566 -143.713)"><path d="M9.7 844.08c-.41 1.03 3.52 2.27 3.52 0-8.07-144.95-4.97-239.45 45.55-284.32 21.53-2.28 28.15 7.65 34.99 17.37 3.31-1.25 4.14-3.31 0-7.86 5.38 3.72 13.25 5.58 8.07-2.9-7.45-11.16-18.42-18.81-33.33-22.12-15.74 5.79-22.15 14.89-28.57 24.19C-2.1 611.45-8.73 699.33 9.7 844.08z" class="st8"/></g><g id="shape238-546" transform="translate(560.443 -403.052)"><path d="M50.52 802.14c-2.28 0-4.97 1.65-6.42 4.13-.42.42-.83 0-1.45.42-.41-1.86-2.07-2.48-3.52 0-1.24-.62-3.31-1.66-3.31-.21.2-1.65-.83-2.07-2.69-1.86l-4.15 14.06c-.82-8.48-6.83-4.55-10.55-.62-3.73-4.75-7.46-6.41-10.98-2.69-3.52-1.44-6.41-1.86-7.45 2.48 1.24 7.04 1.66 14.27 4.76 21.1 2.28.82 5.18.62 6.42 3.51 3.31 3.1 6.21 4.96 7.45-.83 3.11 0 6.42 1.04 9.11-.62 5.18 3.73 7.25 2.07 8.08-1.86 2.9 2.07 4.97 5.38 9.73 3.31 1.86 1.24 4.55 0 7.04-.83l-3.32-20.26c-1.24-1.03-2.27-1.24-2.89-.41l-1.87 8.89-2.69-3.52c3.52-1.24 4.35-2.69 1.66-4.34l6.62-6.2c2.49 2.06 6.01 2.06 10.35.41l.63 1.65-7.46 2.49c-2.07-.42-3.52 0-2.9 2.68-.41 4.55.62 8.69 4.14 11.79 4.77 3.31 6.22 1.45 6.63-1.45 6 1.66 11.8 2.69 17.8 2.28 3.52-2.28.42-5.17-.62-7.65 3.32-.83 2.28-3.1 1.66-5.17 4.97.41 9.73-1.04 14.08-3.31 14.49-3.1 10.35-11.58-1.45-8.89-2.49-2.07-2.69-5.38-10.35-4.55-5.18.83-8.08 2.48-8.7 4.96.62-2.69-4.97-.41-7.45-.41l3.52-3.31c3.1-2.48 1.65-4.96-1.24-4.96-5.59 0-10.56 2.06-15.53 3.51.2-2.48-1.04-3.51-2.69-3.72zm-25.88 22.33l3.31 2.48.41 1.45c2.28.83 4.77.62 7.25.41v1.04c-1.66-.62-3.31.2-4.97 1.65-4.55.83-7.04 2.07-9.94 3.1l-2.07-6.61c5.18 1.65 5.8-.62 6.01-3.52z" class="st9"/></g><g id="shape239-548" transform="translate(577.499 -129.155)"><path d="M6.96 841.52c1.86 5.37 4.97 5.37 4.97-1.04-2.07-24.19 2.07-52.11 5.8-79.82l-3.73-.41-7.25 23.78v-11.99l-3.31-.62c-4.97 23.57-5.18 46.94 3.52 70.1z" class="st14"/></g><g id="shape240-550" transform="translate(577.499 -129.155)"><path d="M6.96 841.52c1.86 5.37 4.97 5.37 4.97-1.04-2.07-24.19 2.07-52.11 5.8-79.82l-3.73-.41-7.25 23.78v-11.99l-3.31-.62c-4.97 23.57-5.18 46.94 3.52 70.1" class="st11"/></g><g id="shape241-553" transform="translate(1081.55 -177.004)"><path d="M0 566.17h44.93v279.15" stroke="#fff" stroke-linecap="round" stroke-linejoin="round" stroke-width="4.552"/></g><g id="shape242-556" transform="translate(1080.93 -179.693)"><path d="M1.66 842.01h3.31c.83 0 1.66.62 1.66 1.66 0 .82-.83 1.65-1.66 1.65H1.66c-1.04 0-1.66-.83-1.66-1.65 0-1.04.62-1.66 1.66-1.66zm9.93 0h3.32c.82 0 1.65.62 1.65 1.66 0 .82-.83 1.65-1.65 1.65h-3.32c-1.03 0-1.65-.83-1.65-1.65 0-1.04.62-1.66 1.65-1.66zm9.94 0h3.31c.83 0 1.66.62 1.66 1.66 0 .82-.83 1.65-1.66 1.65h-3.31c-1.03 0-1.65-.83-1.65-1.65 0-1.04.62-1.66 1.65-1.66zm9.94 0h3.31c.83 0 1.66.62 1.66 1.66 0 .82-.83 1.65-1.66 1.65h-3.31c-1.04 0-1.66-.83-1.66-1.65 0-1.04.62-1.66 1.66-1.66z" class="st18"/></g><g id="shape243-558" transform="translate(1117.37 -172.662)"><path d="M17.6 836.64c0 4.75-3.94 8.68-8.7 8.68-4.97 0-8.9-3.93-8.9-8.68 0-4.97 3.93-8.9 8.9-8.9 4.76 0 8.7 3.93 8.7 8.9z" class="st19"/></g><g id="shape244-560" transform="translate(1117.37 -342.843)"><path d="M17.6 836.64c0 4.75-3.94 8.68-8.7 8.68-4.97 0-8.9-3.93-8.9-8.68 0-4.97 3.93-8.9 8.9-8.9 4.76 0 8.7 3.93 8.7 8.9z" class="st19"/></g><g id="shape245-562" transform="translate(1080.93 -349.873)"><path d="M1.66 842.01h3.31c.83 0 1.66.62 1.66 1.66 0 .82-.83 1.65-1.66 1.65H1.66c-1.04 0-1.66-.83-1.66-1.65 0-1.04.62-1.66 1.66-1.66zm9.93 0h3.32c.82 0 1.65.62 1.65 1.66 0 .82-.83 1.65-1.65 1.65h-3.32c-1.03 0-1.65-.83-1.65-1.65 0-1.04.62-1.66 1.65-1.66zm9.94 0h3.31c.83 0 1.66.62 1.66 1.66 0 .82-.83 1.65-1.66 1.65h-3.31c-1.03 0-1.65-.83-1.65-1.65 0-1.04.62-1.66 1.65-1.66zm9.94 0h3.31c.83 0 1.66.62 1.66 1.66 0 .82-.83 1.65-1.66 1.65h-3.31c-1.04 0-1.66-.83-1.66-1.65 0-1.04.62-1.66 1.66-1.66z" class="st18"/></g><g id="shape246-564" transform="translate(762.302 -588.085)"><path d="M0 787.63v57.69h287.16v-57.69H0z" class="st19"/></g><g id="shape247-566" transform="translate(765.931 -590.11)"><path d="M283.55 789.73H0v55.59h283.55v-55.59" class="st2"/><text x="5.41" y="831.42" class="st20">Management</text></g><g id="shape248-570" transform="translate(817.373 -526.878)"><path d="M0 787.63v57.69h177.22v-57.69H0z" class="st19"/></g><g id="shape249-572" transform="translate(820.587 -529.335)"><path d="M169.79 789.73H0v55.59h169.79v-55.59" class="st2"/><text x="9.92" y="831.42" class="st20">system</text></g><g id="shape251-576" transform="translate(740.564 -430.518)"><path d="M0 787.42v57.9h342.02v-57.9H0z" class="st19"/></g><g id="shape252-578" transform="translate(743.48 -430.335)"><path d="M333 789.73H0v55.59h333v-55.59" class="st2"/><text x="6.32" y="831.42" class="st20">Control method</text></g><g id="shape254-582" transform="translate(865.82 -321.751)"><path d="M0 787.63v57.69h216.97v-57.69H0z" class="st19"/></g><g id="shape255-584" transform="translate(871.188 -321.542)"><path d="M205.29 789.73H0v55.59h205.29v-55.59" class="st2"/><text x="12.58" y="831.42" class="st20">Chemical</text></g><g id="shape257-588" transform="translate(865.82 -153.638)"><path d="M0 787.42v57.9h216.97v-57.9H0z" class="st19"/></g><g id="shape258-590" transform="translate(869.48 -154.249)"><path d="M208.05 789.73H0v55.59h208.05v-55.59" class="st2"/><text x="5.99" y="831.42" class="st20">Biological</text></g><g id="shape260-594" transform="translate(923.48 -258.476)"><path d="M0 787.63v57.69h159.1v-57.69H0z" class="st19"/></g><g id="shape261-596" transform="translate(927.98 -259.335)"><path d="M148.5 789.73H0v55.59h148.5v-55.59" class="st2"/><text x="3.82" y="831.42" class="st20">control</text></g><g id="shape263-600" transform="translate(931.243 -92.017)"><path d="M0 787.63v57.69h151.34v-57.69H0z" class="st19"/></g><g id="shape264-602" transform="translate(932.48 -92.042)"><path d="M148.23 789.73H0v55.59h148.23v-55.59" class="st2"/><text y="831.42" class="st20">control</text></g><g id="shape266-606" transform="translate(100.412 -474.562)"><path d="M0 787.63v57.69h236.85v-57.69H0z" class="st19"/></g><g id="shape267-608" transform="translate(112.605 -474.542)"><path d="M216.88 789.73H0v55.59h216.88v-55.59" class="st2"/><text x="7.58" y="831.42" class="st20">Fertilizers</text></g><g id="shape268-612" transform="translate(123.186 -367.863)"><path d="M0 787.63v57.69h191.3v-57.69H0z" class="st19"/></g><g id="shape269-614" transform="translate(128.345 -367.335)"><path d="M174.14 789.73H0v55.59h174.14v-55.59" class="st2"/><text x="5.24" y="831.42" class="st20">Disease</text></g><g id="shape271-618" transform="translate(49.274 -270.056)"><path d="M0 787.63v57.69h339.12v-57.69H0z" class="st19"/></g><g id="shape272-620" transform="translate(59.48 -271.249)"><path d="M314.12 789.73H0v55.59h314.12v-55.59" class="st2"/><text x="2.7" y="831.42" class="st20">Meteorological</text></g><g id="shape273-624" transform="translate(159.003 -207.608)"><path d="M0 787.63v57.69h119.46v-57.69H0z" class="st19"/></g><g id="shape274-626" transform="translate(167.48 -208.249)"><path d="M106.43 789.73H0v55.59h106.43v-55.59" class="st2"/><text x="13.57" y="831.42" class="st20">info</text></g></g></svg>