<svg xmlns="http://www.w3.org/2000/svg" viewBox="0 0 1198 851" color-interpolation-filters="sRGB" fill="none" fill-rule="evenodd" font-size="12" overflow="visible" stroke-linecap="square" stroke-miterlimit="3"><style>.st2{stroke:none;stroke-linecap:butt;stroke-width:.75}.st2,.st4{fill:none}.st6,.st7{stroke-width:2.25279}.st6{fill:#fff;stroke:none;stroke-linecap:butt}.st7{stroke:#f9f9f9;stroke-dasharray:2.25279,4.50558;stroke-linecap:round;stroke-linejoin:round}.st8{stroke:#fff;stroke-linecap:butt;stroke-width:5.63197}.st10,.st9{fill:#fff;font-family:Roboto;font-size:2.25279em}.st10{fill:#000;font-size:3.75465em}</style><g id="group37-1" transform="translate(2.253 -2.253)"><g id="shape1-2"><path fill="#848693" stroke-linecap="butt" stroke-width="2.253" d="M0 4.506h1193.55v846.26H0z"/></g><g id="shape2-4" transform="translate(4.5 -667.787)"><path class="st2" d="M0 721.005h1181.28v129.761H0z"/><text x="10.88" y="818.33" fill="#000" font-family="Merriweather" font-size="9.011em">Information Manager</text></g><g id="shape3-7" transform="translate(338.138 -160.496)"><path d="M0 533.89h21.45v316.88L0 533.89z" class="st4"/><path d="M0 533.89h21.45v316.88" stroke="#fff" stroke-linecap="butt" stroke-width="2.253"/></g><g id="shape4-10" transform="translate(350.864 -363.494)"><path d="M16.09 842.72a8.044 8.044 0 01-8.05 8.05A8.044 8.044 0 010 842.72a8.044 8.044 0 018.04-8.04 8.044 8.044 0 018.05 8.04z" class="st6"/></g><g id="shape5-12" transform="translate(350.864 -259.167)"><path d="M16.09 842.72a8.044 8.044 0 01-8.05 8.05A8.044 8.044 0 010 842.72a8.044 8.044 0 018.04-8.04 8.044 8.044 0 018.05 8.04z" class="st6"/></g><g id="shape6-14" transform="translate(350.864 -154.773)"><path d="M16.09 842.72a8.044 8.044 0 01-8.05 8.05A8.044 8.044 0 010 842.72a8.044 8.044 0 018.04-8.04 8.044 8.044 0 018.05 8.04z" class="st6"/></g><g id="shape7-16" transform="translate(320.544 -371.537)"><path d="M0 850.77h30.25H0z" class="st4"/><path d="M0 850.77h30.25" class="st7"/></g><g id="shape8-19" transform="translate(320.544 -267.211)"><path d="M0 850.77h30.25H0z" class="st4"/><path d="M0 850.77h30.25" class="st7"/></g><g id="shape9-22" transform="translate(320.544 -162.816)"><path d="M0 850.77h30.25H0z" class="st4"/><path d="M0 850.77h30.25" class="st7"/></g><g id="shape10-25" transform="translate(504.234 -307.016)"><path d="M16.09 842.72a8.044 8.044 0 01-8.05 8.05A8.044 8.044 0 010 842.72a8.044 8.044 0 018.04-8.04 8.044 8.044 0 018.05 8.04z" class="st6"/></g><g id="shape11-27" transform="translate(562.536 -411.343)"><path d="M16.09 842.72a8.044 8.044 0 01-8.05 8.05A8.044 8.044 0 010 842.72a8.044 8.044 0 018.04-8.04 8.044 8.044 0 018.05 8.04z" class="st6"/></g><g id="shape12-29" transform="translate(562.536 -307.016)"><path d="M16.09 842.72a8.044 8.044 0 01-8.05 8.05A8.044 8.044 0 010 842.72a8.044 8.044 0 018.04-8.04 8.044 8.044 0 018.05 8.04z" class="st6"/></g><g id="shape13-31" transform="translate(562.536 -200.054)"><path d="M16.09 842.72a8.044 8.044 0 01-8.05 8.05A8.044 8.044 0 010 842.72a8.044 8.044 0 018.04-8.04 8.044 8.044 0 018.05 8.04z" class="st6"/></g><g id="shape14-33" transform="translate(541.229 -207.408)"><path d="M22.12 638.45H0v212.32h24.47l-2.35-212.32z" class="st4"/><path d="M22.12 638.45H0v212.32h24.47" class="st8"/></g><g id="shape15-36" transform="translate(510.882 -315.308)"><path d="M0 850.77h60.43H0z" class="st4"/><path d="M0 850.77h60.43" class="st8"/></g><g id="shape16-39" transform="translate(504.234 -307.016)"><path d="M16.09 842.72a8.044 8.044 0 01-8.05 8.05A8.044 8.044 0 010 842.72a8.044 8.044 0 018.04-8.04 8.044 8.044 0 018.05 8.04z" class="st6"/></g><g id="shape17-41" transform="translate(428.7 -296.731)"><path class="st2" d="M0 818.326h108.184v32.44H0z"/><text y="842.66" class="st9">rice</text></g><g id="shape18-44" transform="translate(587.226 -402.639)"><path class="st2" d="M0 818.326h297.418v32.44H0z"/><text y="842.66" class="st9">rice (crop)</text></g><g id="shape19-47" transform="translate(587.226 -296.468)"><path class="st2" d="M0 818.326h324.452v32.44H0z"/><text y="842.66" class="st9">rice (plant)</text></g><g id="shape20-50" transform="translate(587.226 -187.455)"><path class="st2" d="M0 818.326h297.418v32.44H0z"/><text y="842.66" class="st9">rice (food)</text></g><g id="shape21-53" transform="translate(82.604 -446.943)"><path class="st6" d="M0 792.941h256.503v57.825H0z"/></g><g id="shape22-55" transform="translate(237.682 -342.616)"><path class="st6" d="M0 792.941h81.508v57.825H0z"/></g><g id="shape23-57" transform="translate(177.75 -238.289)"><path class="st6" d="M0 792.941h141.44v57.825H0z"/></g><g id="shape24-59" transform="translate(91.602 -450.027)"><path class="st2" d="M0 796.699h241.398v54.067H0z"/><text y="837.25" class="st10">Equivalents</text></g><g id="shape25-62" transform="translate(246.378 -342)"><path class="st2" d="M0 796.699h68.622v54.067H0z"/><text y="837.25" class="st10">Riz</text></g><g id="shape26-65" transform="translate(177.641 -238.5)"><path class="st2" d="M0 796.699h139.717v54.067H0z"/><text x="2.27" y="838.73" fill="#000" font-family="MS Gothic" font-size="3.755em">ライス</text></g><g id="shape27-68" transform="translate(177.393 -134.053)"><path class="st6" d="M0 792.941h141.797v57.825H0z"/></g><g id="shape28-70" transform="translate(189 -139.433)"><path class="st2" d="M0 796.699h120.588v54.067H0z"/><text x="3.11" y="837.25" class="st10">Oryza</text></g><g id="shape29-73" transform="translate(899.736 -419.459)"><path class="st6" d="M0 792.941h188.241v57.825H0z"/></g><g id="shape30-75" transform="translate(909 -422.933)"><path class="st2" d="M0 796.699h169.413v54.067H0z"/><text x="4.43" y="837.25" class="st10">Specific</text></g><g id="shape31-78" transform="translate(899.736 -310.446)"><path class="st6" d="M0 792.941h188.241v57.825H0z"/></g><g id="shape32-80" transform="translate(905.856 -310.5)"><path class="st2" d="M0 796.699h177.288v54.067H0z"/><text x="12.12" y="837.25" class="st10">Generic</text></g><g id="shape33-83" transform="translate(864.66 -203.439)"><path class="st6" d="M0 792.941h258.395v57.825H0z"/></g><g id="shape34-85" transform="translate(868.5 -206.933)"><path class="st2" d="M0 796.699h242.775v54.067H0z"/><text x="6.44" y="837.25" class="st10">Geographic</text></g><g id="shape35-88" transform="translate(888.112 -141.712)"><path d="M0 792.94h211.47v57.83H0v-57.83z" class="st6"/></g><g id="shape36-90" transform="translate(896.964 -143.967)"><path class="st2" d="M0 796.699h195.073v54.067H0z"/><text x="5.46" y="837.25" class="st10">locations</text></g></g></svg>