<svg xmlns="http://www.w3.org/2000/svg" viewBox="0 0 1198 851" color-interpolation-filters="sRGB" fill="none" fill-rule="evenodd" font-size="12" overflow="visible" stroke-linecap="square" stroke-miterlimit="3"><style>.st3,.st5{fill:none;stroke:none;stroke-linecap:butt;stroke-width:.75}.st5{fill:#fff;stroke-width:2.25279}.st7{fill:none}.st8{stroke:#a4a4a4;stroke-linecap:butt;stroke-width:4.50558}.st10,.st11,.st12,.st13,.st9{fill:#c51431;stroke:none;stroke-linecap:butt;stroke-width:2.25279}.st10,.st11,.st12,.st13{fill:#4151a6}.st11,.st12,.st13{fill:#f5e43c}.st12,.st13{fill:#8abc43}.st13{fill:#b9b9b9}.st14{fill:#b9b9b9;font-family:Roboto;font-size:3.4845em}.st16{stroke:#f9f9f9;stroke-dasharray:2.25279,4.50558;stroke-linecap:round;stroke-linejoin:round;stroke-width:2.25279}.st17{fill:#000;font-family:Roboto;font-size:3.75465em}</style><g id="group77-1" transform="translate(2.253 -2.253)"><g id="shape1-2"><path fill="#63a9a1" stroke-linecap="butt" stroke-width="2.253" d="M0 4.506h1193.55v846.26H0z"/></g><g id="shape2-4"><path d="M0 4.51l1193.55 846.26H0V4.51z" fill="#55928b" stroke-linecap="butt" stroke-width="2.253"/></g><g id="shape3-6" transform="translate(289.244 -649.772)"><path class="st3" d="M0 721.005h664.756v129.761H0z"/><text x="14.14" y="818.33" fill="#000" font-family="Merriweather" font-size="9.011em">Nutritionist</text></g><g id="shape4-9" transform="translate(350.354 -416.243)"><path class="st5" d="M0 761.596h98.145v89.17H0z"/></g><g id="shape5-11" transform="translate(350.714 -147.13)"><path fill="#dedede" stroke-linecap="butt" stroke-width="2.253" d="M0 492.032h491.221v358.734H0z"/></g><g id="shape6-13" transform="translate(449.026 -147.26)"><path class="st5" d="M0 761.596h98.145v89.17H0z"/></g><g id="shape7-15" transform="translate(547.698 -147.26)"><path d="M0 761.6h98.15v89.17H0V761.6z" class="st5"/></g><g id="shape8-17" transform="translate(646.393 -147.26)"><path class="st5" d="M0 761.596h98.147v89.17H0z"/></g><g id="shape9-19" transform="translate(745.065 -147.26)"><path class="st5" d="M0 761.596h98.147v89.17H0z"/></g><g id="shape10-21" transform="translate(449.026 -326.582)"><path class="st5" d="M0 761.596h98.145v89.17H0z"/></g><g id="shape11-23" transform="translate(547.698 -326.582)"><path d="M0 761.6h98.15v89.17H0V761.6z" class="st5"/></g><g id="shape12-25" transform="translate(646.393 -326.582)"><path class="st5" d="M0 761.596h98.147v89.17H0z"/></g><g id="shape13-27" transform="translate(745.065 -326.582)"><path class="st5" d="M0 761.596h98.147v89.17H0z"/></g><g id="shape14-29" transform="translate(449.026 -236.921)"><path class="st5" d="M0 761.596h98.145v89.17H0z"/></g><g id="shape15-31" transform="translate(547.698 -236.921)"><path d="M0 761.6h98.15v89.17H0V761.6z" class="st5"/></g><g id="shape16-33" transform="translate(646.393 -236.921)"><path class="st5" d="M0 761.596h98.147v89.17H0z"/></g><g id="shape17-35" transform="translate(745.065 -236.921)"><path class="st5" d="M0 761.596h98.147v89.17H0z"/></g><g id="shape18-37" transform="translate(449.161 -147.175)"><path d="M0 492.53v358.24-358.24z" class="st7"/><path d="M0 492.53v358.24" class="st8"/></g><g id="shape19-40" transform="translate(547.675 -147.175)"><path d="M0 492.53v358.24-358.24z" class="st7"/><path d="M0 492.53v358.24" class="st8"/></g><g id="shape20-43" transform="translate(646.19 -147.175)"><path d="M0 492.53v358.24-358.24z" class="st7"/><path d="M0 492.53v358.24" class="st8"/></g><g id="shape21-46" transform="translate(744.704 -146.499)"><path d="M0 492.53v358.24-358.24z" class="st7"/><path d="M0 492.53v358.24" class="st8"/></g><g id="shape22-49" transform="translate(350.354 -237.331)"><path d="M492.87 850.77H0h492.87z" class="st7"/><path d="M492.87 850.77H0" class="st8"/></g><g id="shape23-52" transform="translate(350.354 -415.977)"><path d="M492.87 850.77H0h492.87z" class="st7"/><path d="M492.87 850.77H0" class="st8"/></g><g id="shape24-55" transform="translate(350.354 -326.767)"><path d="M492.87 850.77H0h492.87z" class="st7"/><path d="M492.87 850.77H0" class="st8"/></g><g id="shape25-58" transform="translate(466.733 -470.444)"><path class="st9" d="M0 836.522h65.187v14.244H0z"/></g><g id="shape26-60" transform="translate(466.733 -451.07)"><path class="st9" d="M0 836.522h32.51v14.244H0z"/></g><g id="shape27-62" transform="translate(466.733 -431.47)"><path class="st9" d="M0 836.522h46.419v14.244H0z"/></g><g id="shape28-64" transform="translate(566.351 -470.444)"><path class="st10" d="M0 836.522h48.124v14.244H0z"/></g><g id="shape29-66" transform="translate(566.351 -451.07)"><path class="st10" d="M0 836.522h63.317v14.244H0z"/></g><g id="shape30-68" transform="translate(566.351 -431.47)"><path class="st10" d="M0 836.522h42.627v14.244H0z"/></g><g id="shape31-70" transform="translate(665.969 -470.444)"><path class="st11" d="M0 836.522h40.066v14.244H0z"/></g><g id="shape32-72" transform="translate(665.969 -451.07)"><path class="st11" d="M0 836.522h64.502v14.244H0z"/></g><g id="shape33-74" transform="translate(765.565 -470.444)"><path class="st12" d="M0 836.522h65.187v14.244H0z"/></g><g id="shape34-76" transform="translate(765.565 -451.07)"><path class="st12" d="M0 836.522h32.51v14.244H0z"/></g><g id="shape35-78" transform="translate(765.565 -431.47)"><path d="M0 836.52h46.42v14.25H0v-14.25z" class="st12"/></g><g id="shape36-80" transform="translate(367.182 -385.063)"><path d="M0 836.52h65.19v14.25H0v-14.25z" class="st13"/></g><g id="shape37-82" transform="translate(367.182 -365.689)"><path d="M0 836.52h32.51v14.25H0v-14.25z" class="st13"/></g><g id="shape38-84" transform="translate(367.182 -346.315)"><path class="st13" d="M0 836.522h46.419v14.244H0z"/></g><g id="shape39-86" transform="translate(367.182 -293.6)"><path d="M0 836.52h63.19v14.25H0v-14.25z" class="st13"/></g><g id="shape40-88" transform="translate(367.182 -274.226)"><path class="st13" d="M0 836.522h31.323v14.244H0z"/></g><g id="shape41-90" transform="translate(367.182 -201.911)"><path d="M0 836.52h45.92v14.25H0v-14.25z" class="st13"/></g><g id="shape42-92" transform="translate(367.182 -182.537)"><path class="st13" d="M0 836.522h31.001v14.244H0z"/></g><g id="shape43-94" transform="translate(367.182 -162.938)"><path class="st13" d="M0 836.522h45.245v14.244H0z"/></g><g id="shape44-96" transform="translate(467.815 -342.473)"><path class="st3" d="M0 800.589h125.492v50.177H0z"/><text y="838.22" class="st14">0.2</text></g><g id="shape45-99" transform="translate(468.224 -254.664)"><path class="st3" d="M0 800.589h125.492v50.177H0z"/><text y="838.22" class="st14">4.2</text></g><g id="shape46-102" transform="translate(486.089 -162.163)"><path class="st3" d="M0 800.589h41.864v50.177H0z"/><text y="838.22" class="st14">0</text></g><g id="shape47-105" transform="translate(585.014 -342.473)"><path class="st3" d="M0 800.589h41.864v50.177H0z"/><text y="838.22" class="st14">7</text></g><g id="shape48-108" transform="translate(566.27 -254.664)"><path class="st3" d="M0 800.589h125.492v50.177H0z"/><text y="838.22" class="st14">0.4</text></g><g id="shape49-111" transform="translate(557.511 -162.163)"><path class="st3" d="M0 800.589h167.306v50.177H0z"/><text y="838.22" class="st14">0.11</text></g><g id="shape50-114" transform="translate(683.448 -342.473)"><path class="st3" d="M0 800.589h41.864v50.177H0z"/><text y="838.22" class="st14">0</text></g><g id="shape51-117" transform="translate(665.113 -254.664)"><path class="st3" d="M0 800.589h125.492v50.177H0z"/><text y="838.22" class="st14">0.6</text></g><g id="shape52-120" transform="translate(683.519 -162.163)"><path class="st3" d="M0 800.589h41.864v50.177H0z"/><text y="838.22" class="st14">2</text></g><g id="shape53-123" transform="translate(766.876 -342.473)"><path class="st3" d="M0 800.589h125.492v50.177H0z"/><text y="838.22" class="st14">0.1</text></g><g id="shape54-126" transform="translate(764.344 -254.664)"><path class="st3" d="M0 800.589h125.492v50.177H0z"/><text y="838.22" class="st14">4.7</text></g><g id="shape55-129" transform="translate(764.109 -162.163)"><path class="st3" d="M0 800.589h125.492v50.177H0z"/><text y="838.22" class="st14">2.2</text></g><g id="shape56-132" transform="translate(1049.33 -279.887)"><path d="M0 572.07h82.47v278.7L0 572.07z" class="st7"/><path d="M0 572.07h82.47v278.7" stroke="#fff" stroke-linecap="butt" stroke-width="4.506"/></g><g id="shape57-135" transform="translate(1122.8 -444.617)"><path d="M17.06 842.23a8.532 8.532 0 01-8.53 8.54A8.532 8.532 0 010 842.23a8.532 8.532 0 018.53-8.53 8.532 8.532 0 018.53 8.53z" class="st5"/></g><g id="shape58-137" transform="translate(1122.8 -274.531)"><path d="M17.06 842.23a8.532 8.532 0 01-8.53 8.54A8.532 8.532 0 010 842.23a8.532 8.532 0 018.53-8.53 8.532 8.532 0 018.53 8.53z" class="st5"/></g><g id="shape59-139" transform="translate(1091.97 -453.149)"><path d="M0 850.77h30.25H0z" class="st7"/><path d="M0 850.77h30.25" class="st16"/></g><g id="shape60-142" transform="translate(1091.97 -283.063)"><path d="M0 850.77h30.25H0z" class="st7"/><path d="M0 850.77h30.25" class="st16"/></g><g id="shape61-145" transform="translate(61.88 -446.237)"><path class="st5" d="M0 792.941h190.611v57.825H0z"/></g><g id="shape62-147" transform="translate(68.6 -449.498)"><path class="st3" d="M0 796.699h168.801v54.067H0z"/><text x="2.09" y="837.25" class="st17">Cooking</text></g><g id="shape63-150" transform="translate(61.88 -386.989)"><path class="st5" d="M0 792.941h190.611v57.825H0z"/></g><g id="shape64-152" transform="translate(65.25 -387)"><path class="st3" d="M0 796.699h184.137v54.067H0z"/><text x="3.45" y="837.25" class="st17">methods</text></g><g id="shape65-155" transform="translate(75.15 -281.333)"><path class="st5" d="M0 792.941h164.068v57.825H0z"/></g><g id="shape66-157" transform="translate(83.25 -281.183)"><path class="st3" d="M0 796.699h145.853v54.067H0z"/><text x="5.11" y="837.25" class="st17">Dishes</text></g><g id="shape67-160" transform="translate(881.629 -528.013)"><path class="st5" d="M0 792.941h173.318v57.825H0z"/></g><g id="shape68-162" transform="translate(894.839 -528.75)"><path class="st3" d="M0 796.699h146.911v54.067H0z"/><text x="4.34" y="837.25" class="st17">Quality</text></g><g id="shape69-165" transform="translate(956.106 -425.737)"><path class="st5" d="M0 792.941h135.647v57.825H0z"/></g><g id="shape70-167" transform="translate(963 -427.5)"><path class="st3" d="M0 796.699h122.366v54.067H0z"/><text x="5.77" y="837.25" class="st17">Sugar</text></g><g id="shape71-170" transform="translate(912.402 -365.587)"><path class="st5" d="M0 792.941h178.815v57.825H0z"/></g><g id="shape72-172" transform="translate(917.062 -366.683)"><path class="st3" d="M0 796.699h167.438v54.067H0z"/><text x="15.13" y="837.25" class="st17">content</text></g><g id="shape73-175" transform="translate(920.444 -259.255)"><path class="st5" d="M0 792.941h170.77v57.825H0z"/></g><g id="shape74-177" transform="translate(927 -260.933)"><path class="st3" d="M0 796.699h156.112v54.067H0z"/><text x="12.37" y="837.25" class="st17">Protein</text></g><g id="shape75-180" transform="translate(943.896 -198.205)"><path class="st5" d="M0 792.941h146.641v57.825H0z"/></g><g id="shape76-182" transform="translate(951.75 -200.183)"><path class="st3" d="M0 796.699h129.569v54.067H0z"/><text x="7.84" y="837.25" class="st17">intake</text></g></g></svg>