<svg xmlns="http://www.w3.org/2000/svg" viewBox="0 0 3000 1900">
<g fill="none" stroke="#1C3E93" stroke-linejoin="round" stroke-miterlimit="3.994"><path stroke-width="6.651" d="M799.332 1393.97a23.781 23.781 0 00-6.993 16.88v47.75a23.8 23.8 0 01-6.99 16.881c-.232.239 0 0 0 0-4.322 4.31-10.289 6.989-16.873 6.989a23.82 23.82 0 01-16.875-6.989c-4.318-4.341-6.984-10.301-6.984-16.881 0-6.6 2.67-12.58 7.006-16.899l47.826-47.83M698.171 1495.13l310.563-310.56c3.439-3.45 10.244-6.261 15.115-6.261h132.006"/><path stroke-width="6.651" d="M2301.34 264.448v250.703c0 4.867-2.81 11.674-6.26 15.119l-321.5 321.508c-3.45 3.442-6.27 10.242-6.27 15.111v98.739c0 4.869-2.82 11.668-6.261 15.113l-86.149 86.151c-3.44 3.442-10.24 6.263-15.12 6.263h-156.95c-4.87 0-11.67 2.816-15.12 6.262l-92.63 92.623c-3.439 3.44-10.25 6.27-15.12 6.27h-524.877"/><path stroke-width="6.649" d="M1065.677 1178.31c-7.498-.02-14.875-2.829-20.603-8.54l-6.973-6.96c-2.717-2.729-4.377-6.42-4.383-10.579V519.194c0-4.867-2.826-11.662-6.273-15.099 0 0-68.414-68.073-71.307-70.967-2.803-2.803-8.34-5.819-12.896-5.819h-248.11"/></g><g fill="none" stroke="#96005E" stroke-linejoin="round" stroke-miterlimit="3.994"><path stroke-width="6.651" d="M689.296 652.657h254.946c5.974 0 13.289 3.461 17.511 7.678l78.764 78.76c3.44 3.447 10.244 6.265 15.115 6.265h147.379"/><path stroke-width="6.65" d="M1741.23 1088.282l294.199.026c4 0 7.76 1.551 10.58 4.383M685.9 497.813h226.164c4.873 0 11.674 2.813 15.119 6.262l234.932 235.02c3.441 3.447 10.238 6.265 15.113 6.265l195.195.012c4.869 0 11.672 2.818 15.118 6.264l330.379 330.378c3.45 3.442 10.24 6.269 15.11 6.269l302.399.026c4 0 7.76 1.551 10.58 4.383l78.26 78.248c5.351 5.336 12.44 8.28 19.99 8.28h149.75c3.99 0 7.76 1.554 10.58 4.378a14.894 14.894 0 014.38 10.582v73.303"/></g><path fill="none" stroke="#AF6010" stroke-width="6.65" stroke-linejoin="round" stroke-miterlimit="3.994" d="M1200.115 719.005c-3.821-3.828-6.264-9.557-6.264-15.121m611.838 683.166l-23.81-23.819c-3.44-3.45-6.26-10.25-6.26-15.12V1114.8c0-4.859-2.82-11.67-6.271-15.109l-124.76-124.773c-3.439-3.444-6.26-10.244-6.26-15.115v-48.562c0-4.869-2.811-11.668-6.26-15.113l-115.2-115.199c-3.44-3.438-10.24-6.26-15.11-6.26l-237.124-.006c-4.871 0-11.679-2.82-15.115-6.256l-49.406-49.4c-3.821-3.828-6.264-9.557-6.264-15.121v-6.508-324.041"/><g fill="none" stroke="#231F20" stroke-linejoin="round" stroke-miterlimit="3.994"><path stroke-width="6.651" d="M1645.95 246.454c0-4.869-2.81-11.668-6.261-15.115-2.359-2.362-2.239-2.246-38.789-38.799"/><path stroke-width="6.651" d="M1583.48 656.665v-63.469c0-4.871-2.811-11.674-6.261-15.115l-.76-.766c-3.44-3.441-6.26-10.246-6.26-15.115v-18.316c0-4.875 2.819-11.678 6.26-15.118l63.24-63.248c3.45-3.445 6.27-10.244 6.27-15.115v-342.98"/><path stroke-width="6.65" d="M1517.79 1343.16c3.44-3.44 6.26-10.25 6.26-15.12V711.597c0-4.872 2.82-11.672 6.261-15.116l20.35-20.357c3.449-3.442 6.26-10.047 6.26-14.68v-68.248c0-4.871 2.82-11.674 6.26-15.115l.76-.766c3.451-3.441 6.261-10.246 6.261-15.115v-18.316c0-4.875-2.81-11.678-6.261-15.118-3.529-3.527-303.56-303.566-303.56-303.566m-51.051 1426.4l572.42-572.399c3.439-3.45 6.26-10.25 6.26-15.12v-361.93c0-5.965-2.42-11.371-6.33-15.279a21.558 21.558 0 00-15.29-6.334h-161.62c-11.75 0-21.289-9.531-21.289-21.289v-66.053c0-4.871-2.811-11.674-6.261-15.115l-.76-.766c-3.44-3.441-6.26-10.246-6.26-15.115v-18.316c0-4.875 2.819-11.678 6.26-15.118"/></g><path fill="none" stroke="#009CDB" stroke-width="6.651" stroke-linejoin="round" stroke-miterlimit="3.994" d="M1240.47 1404.78l-171.229-171.23c-3.44-3.439-6.26-10.24-6.26-15.109V876.995c0-4.871 2.82-11.674 6.26-15.109l236.56-236.557c3.44-3.441 10.24-6.266 15.11-6.266h213.45c4.87 0 11.67-2.816 15.12-6.258l36.25-36.246c3.439-3.439 6.25-10.238 6.25-15.113V446.399c0-4.869 2.819-11.668 6.26-15.109l67.68-67.664c3.44-3.447 10.24-6.266 15.11-6.266h257.45"/><path fill="none" stroke="#FFD200" stroke-width="6.65" stroke-linejoin="round" stroke-miterlimit="3.994" d="M1006.953 1019.89V801.934c-.024-1.17.453-3.461 1.334-5.541.849-2.101 2.136-4.052 2.98-4.865l73.527-73.531c4.125-4.106 9.456-6.317 15.274-6.324l611.362-.014c5.971 0 11.37 2.418 15.29 6.332l78.25 78.248a21.575 21.575 0 0015.29 6.324h149.75c5.971 0 11.37 2.42 15.28 6.334 3.91 3.916 6.33 9.317 6.33 15.283v102.284c0 5.961-2.42 11.371-6.33 15.283s-9.31 6.328-15.28 6.328h-155.93c-5.97 0-11.37 2.42-15.28 6.326l-91.83 91.839a14.907 14.907 0 01-10.579 4.38h-503.827a21.592 21.592 0 01-21.609-21.61V750.757a21.518 21.518 0 016.33-15.28 21.527 21.527 0 0115.279-6.334h56.626"/><g fill="none" stroke="#00843F" stroke-linejoin="round" stroke-miterlimit="3.994"><path stroke-width="6.651" d="M608.273 1018.27a21.55 21.55 0 00-15.285 6.33 21.53 21.53 0 00-6.33 15.29v160.091"/><path stroke-width="6.65" d="M2538.41 399.534l-341.28 341.277c-3.44 3.446-10.24 6.266-15.11 6.266l-221.43-.008c-4.859 0-11.67 2.813-15.109 6.262L1791.38 907.442c-5.34 5.342-12.44 8.284-19.99 8.284h-165.31a14.86 14.86 0 00-10.58 4.384l-91.83 91.83a21.542 21.542 0 01-15.28 6.329H539.208c-5.97 0-11.373-2.42-15.285-6.329l-21.527-21.521a21.528 21.528 0 01-6.328-15.28V844.13c0-5.975-2.42-11.371-6.33-15.285a21.55 21.55 0 00-15.283-6.331h-17.303m476.945 195.876c-5.965 0-11.373 2.42-15.283 6.33s-6.33 9.311-6.33 15.29v325.061m21.613-346.681a21.554 21.554 0 01-15.283-6.33 21.552 21.552 0 01-6.33-15.279v-65.74"/><path stroke-width="6.65" d="M934.695 1018.39c5.961 0 11.828-2.89 15.277-6.33 3.453-3.46 6.326-9.319 6.326-15.279V711.757c0-7.547 2.944-14.647 8.284-19.983 5.339-5.344 12.435-8.279 19.982-8.279h56.306"/></g><path fill="none" stroke="#F285A0" stroke-width="6.65" stroke-linejoin="round" stroke-miterlimit="3.994" d="M744.291 1059.89V841.934c0-4.869 2.824-11.671 6.265-15.119l73.527-73.529c5.336-5.336 12.44-8.275 19.985-8.275h611.362c7.55 0 14.65 2.939 19.99 8.275l78.26 78.254a14.875 14.875 0 0010.58 4.375h149.75c7.551 0 14.65 2.947 19.99 8.275 5.34 5.346 8.27 12.44 8.27 19.99v45.948c0 5.527 2.11 11.06 6.33 15.275l7.59 7.555c4.74 4.74 7.881 7.113 14.091 7.113s12.43-2.373 17.17-7.113l105.33-105.328c2.63-2.602 5.8-4.446 9.18-5.866 3.39-1.388 6.94-2.33 10.63-2.351l221.221.014c.119-.004.229-.004.34 0 1.21-.018 3.41-.483 5.41-1.334 2.1-.844 4.05-2.133 4.869-2.985L2255.34 704.2"/><g fill="none" stroke="#F7931E" stroke-width="6.65" stroke-linejoin="round" stroke-miterlimit="3.994"><path d="M859.466 614.514V95.278m-82.744 511.399c-3.435 3.447-6.262 10.248-6.265 15.119m183.679 534.294c0 4.87 2.821 11.67 6.266 15.12l197.728 197.73m1020.03-708.021H2003.8c-4.87 0-11.68-2.817-15.11-6.258l-68.909-68.897c-3.44-3.445-10.24-6.259-15.11-6.259h-291.95c-4.87 0-11.67-2.819-15.12-6.26l-103.33-103.344c-3.45-3.447-10.25-6.262-15.13-6.262h-129.93c-4.86 0-11.67 2.815-15.11 6.262l-83.54 83.539c-3.44 3.446-10.24 6.26-15.11 6.26h-402.9c-4.871 0-11.67 2.816-15.115 6.266m-106.054 106.05c-3.441 3.44-6.259 10.248-6.259 15.12v319.044c0 4.87-2.821 11.681-6.266 15.12l-51.572 51.61a28.155 28.155 0 00-8.28 19.979v160.091M2360.63 676.292v-56.76c0-4.869-2.81-11.67-6.26-15.115l-17.16-17.162c-3.44-3.448-10.25-6.266-15.11-6.266h-217.24c-4.86 0-11.671-2.82-15.11-6.256L2050 534.979c-3.45-3.445-6.27-10.25-6.27-15.119v-72.472c0-4.868-2.811-11.668-6.261-15.116l-65.1-65.101c-3.431-3.44-10.24-6.26-15.11-6.26H1727.3c-4.88 0-11.68 2.82-15.12 6.26l-71.59 71.59c-3.45 3.441-10.24 6.259-15.109 6.259H1466.6"/><path d="M776.767 606.686c-3.443 3.442-6.266 10.243-6.275 15.112l-.159 120.879c-.003 4.865 2.805 11.671 6.25 15.111l171.331 171.33c3.435 3.444 6.255 10.252 6.255 15.121v211.841c0 4.87 2.819 11.67 6.264 15.11l197.727 197.739m1019.98-708h-174.35c-4.87 0-11.67-2.823-15.101-6.264l-68.909-68.891c-3.44-3.445-10.24-6.258-15.11-6.258h-291.95c-4.859 0-11.659-2.824-15.109-6.265l-103.33-103.336c-3.45-3.445-10.25-6.264-15.12-6.264h-129.92c-4.87 0-11.67 2.819-15.12 6.264l-83.54 83.535c-3.44 3.445-10.24 6.26-15.11 6.26h-402.88c-4.881 0-11.677 2.82-15.119 6.265L711.427 672.018c-3.445 3.44-6.267 10.246-6.267 15.118v319.044c0 4.86-2.813 11.66-6.258 15.11l-51.572 51.6a28.245 28.245 0 00-8.28 19.98v160.85M1828.51 1552.4c0 5.54-2.109 11.069-6.34 15.29-21.109 21.109-58.27 58.26-58.27 58.26m166.661-433.5c0 5.53-2.121 11.06-6.341 15.29l-89.38 89.38c-4.22 4.22-6.33 8.1-6.33 13.96v356.17m102.051-331.95V622.354"/><path d="M1428.85 691.561l-42.51-42.515c-3.45-3.446-10.25-6.264-15.12-6.264H874.236c-3.516.049-7.893-1.713-10.42-4.318-2.516-2.448-4.367-6.791-4.309-10.418V95.305"/></g><g fill="none" stroke="#00A99D" stroke-width="6.65" stroke-linejoin="round" stroke-miterlimit="3.994"><path d="M1782.08 737.479v14.131c0 4.869-2.82 11.67-6.26 15.11l-81.771 81.763c-3.45 3.442-6.26 8.588-6.26 13.516v642.531"/><path d="M1479.36 1031.688c-4.87 0-11.671 2.813-15.11 6.259-4.7 4.688-27.36 27.354-27.36 27.354m-152.05-58.593h152.5c4.87 0 11.68 2.826 15.12 6.265l12.45 12.452c3.439 3.439 10.25 6.263 15.12 6.263h465.76c4.87 0 11.67 2.813 15.11 6.259l187.67 187.674m-490.73-193.933c4.391 0 10.811 2.813 14.25 6.259l9.44 9.443c3.45 3.44 6.26 10.24 6.26 15.11m196.7-30.806c4.87 0 11.67 2.814 15.12 6.254l314.56 314.571"/></g><g fill="none" stroke="#ED3024" stroke-linejoin="round" stroke-miterlimit="3.994"><path stroke-width="6.651" d="M516.761 624.79v222.43c0 4.869 2.819 11.679 6.264 15.121l257.258 257.252c3.445 3.451 10.25 6.263 15.113 6.263M2328.1 728.446c0-7.607 6.16-13.771 13.771-13.771h127.069c7.601 0 13.771-6.166 13.771-13.776V545.993c0-7.604-6.17-13.775-13.771-13.775h-127.07c-7.61 0-13.771 6.171-13.771 13.775m.001-199.645v516.811c0 2.814-2.819 9.627-6.26 13.066l-147.74 147.741c-3.439 3.445-10.239 6.257-15.109 6.257"/><path stroke-width="6.65" d="M2158.98 1030.223h-200.01c-4.87 0-11.67 2.823-15.12 6.269l-128.859 128.873c-3.45 3.44-10.25 6.258-15.12 6.258h-79.49c-4.87 0-11.66-2.817-15.11-6.258l-33.239-33.236c-3.44-3.448-10.24-6.264-15.11-6.264H612.041"/><path stroke-width="6.651" d="M516.761 509.651v116.967"/></g>
</svg>