<svg xmlns="http://www.w3.org/2000/svg" viewBox="0 0 1198 851" color-interpolation-filters="sRGB" fill="none" fill-rule="evenodd" font-size="12" overflow="visible" stroke-linecap="square" stroke-miterlimit="3"><style>.st4,.st6,.st7{fill:none;stroke:none;stroke-linecap:butt;stroke-width:.75}.st6,.st7{fill:#c41622;stroke-width:2.25264}.st7{fill:#fff}.st8{fill:#000;font-family:Roboto;font-size:3.75442em}</style><g id="group21-1" transform="translate(1.156 -2.253)"><g id="shape1-2" transform="translate(1.097)"><path fill="#7bade0" stroke-linecap="butt" stroke-width="2.253" d="M0 4.505h1193.47v846.206H0z"/></g><g id="shape2-4" transform="translate(1.097)"><path d="M0 4.51l1193.47 846.2H0V4.51z" fill="#5698d5" stroke-linecap="butt" stroke-width="2.253"/></g><g id="shape3-6" transform="translate(0 -78.829)"><path d="M425.49 215.34l-5.16.64c-2.85.35-11.65 1.05-19.57 1.56-15.27.96-38.52 3.11-39.02 3.61-.69.69 15.72 1.67 18.09 1.07 3.42-.86 4.59 1.18 1.6 2.78-1.56.84-5.39 1.06-11.47.67-9.83-.64-12.87.07-10.11 2.36 2.59 2.15.75 3.43-4.01 2.77-3.64-.51-3.95-.42-1.83.49 4.48 1.91.85 3.68-7.41 3.61-6.61-.06-7.14.09-4.97 1.32 1.57.9 4.47 1.2 8.24.86 4.03-.37 6.63-.06 8.46 1.01 1.45.86 2.64 1.57 2.64 1.58 0 .02 2.81-1.4 6.23-3.13 3.43-1.74 6.89-3.16 7.69-3.16.8 0 4.14-1.44 7.41-3.18 3.27-1.75 7.01-3.17 8.31-3.17 5.34 0 18.35-3.75 26.35-7.59l8.53-4.1zm94.14.54c-2.31 0-4.33.17-5.77.56-2.48.67-6.89.91-9.93.54-3.58-.43-10.2.14-19.21 1.66-9.67 1.63-17.2 2.23-25.39 2.04-25.91-.61-26.74-.52-37.6 4.11-7.02 3-12.66 4.59-18.96 5.37-4.93.6-9.21 1.1-9.52 1.1-.3 0-.62 1.18-.71 2.61-.19 3.45 2.05 4.12 14.09 4.2 8.84.06 9.95.3 12.53 2.71 3.51 3.27 7.03 9.95 6.28 11.91-.33.86.48 1.94 1.97 2.62 2.95 1.34 4.46 6.76 2.76 9.93-.61 1.14-3.38 3.48-6.15 5.19-5.85 3.59-8.14 7.43-6.38 10.7.84 1.57.81 2.96-.11 5.18-1.94 4.68 1.26 10.29 7.96 13.94 2.9 1.59 6 2.88 6.87 2.87 3.22-.02 6.34-2.77 11.51-10.13 6.43-9.16 10.04-11.52 20.72-13.57 5.11-.97 9.48-2.52 11.53-4.08 6.3-4.79 10.59-6.5 16.53-6.59 3.2-.05 9.98-.96 15.07-2.03 7.7-1.62 9.04-2.19 8.01-3.43-.86-1.04-2.41-1.28-5.17-.81-4.33.73-7.12-1.3-3.19-2.33 1.76-.46 1.99-.91 1.05-2.04-2.41-2.9 2.1-2.88 6.3.02 3.09 2.15 4.61 2.59 6.47 1.9l2.42-.89-2.68-2.04c-1.48-1.12-4.23-2.89-6.11-3.93-3.98-2.19-3.44-3.28 1.71-3.46 4.64-.17 13.99-4.48 14.72-6.8.31-.97 1.96-3.1 3.68-4.74 2.35-2.26 2.88-3.43 2.15-4.79-1.69-3.16 4.69-8.11 11.63-9.02 3.2-.42 6.77-1.47 7.93-2.32 1.91-1.4 1.43-1.49-4.92-.85-5.88.58-7.73.35-11.21-1.43-4.42-2.26-13.96-3.87-20.88-3.88zm-174.14 6.27c-2.58.04-5.9.99-9.33 2.77-3.77 1.95-3.58 2.38 1.54 3.51 4.21.93 5.77.68 9.59-1.58 3.68-2.17 3.79-2.39 1.92-3.77-.89-.65-2.17-.96-3.72-.93zm507.29 2.52c-2.2-.02-4.12.53-5.23 1.63-2.53 2.53-.81 2.91 20.22 4.55 7.71.6 8.6.89 8.26 2.66-.4 2.1 1.03 2.72 2.14.93.81-1.3 10.05-1.42 10.05-.13 0 .51-1.67 2.21-3.71 3.77-3.18 2.42-4.37 2.73-8.23 2.15-4.01-.6-21.42 1.84-22.78 3.19-.26.27.08 1.17.78 2 1.76 2.13-.23 3.16-6.37 3.3-3.02.07-6.02.91-7.8 2.17-7.76 5.53-10.6 6.78-14.03 6.15-2.29-.41-3.44-.21-3.44.62 0 2.43 2.22 5.34 5.29 6.92 3.91 2.02 5.54 4.99 4.66 8.48-.74 2.97-6.05 6.31-8.53 5.35-1.31-.5-1.19-1.12.69-3.77 2.55-3.58 2.74-3.05-5.05-13.46-6.01-8.02-7.89-9.27-12.23-8.18-7.48 1.88-6.96 8.07.99 11.93 2.57 1.25 4.66 2.73 4.66 3.3 0 1.69-3.76 3.27-4.94 2.08-1.77-1.76-31.2-8.61-32.3-7.52-1.09 1.09 3.92 2.78 5.44 1.84 1.26-.78 3.56 2.28 2.73 3.62-.38.62-1.15.84-1.72.49-.56-.35-4.35-.07-8.42.61-5.75.97-7.74.97-8.94-.03-2.15-1.78-7.91-.52-15.31 3.36-5.05 2.65-6.5 3-8.33 2.02-1.23-.66-2.11-1.77-1.97-2.48.14-.72-1.1-1.45-2.8-1.64-3.19-.37-3.16-.52-.97 4.83.58 1.42.07 1.68-6.91 3.46-3.26.84-4.42 1.61-4 2.68.87 2.29-2.9 3.86-6.22 2.6-4.17-1.59-5.7-1.2-2.38.6 3.58 1.95 3.61 2.36.21 3.65-3.54 1.34-10.4-2.03-12.54-6.17-.84-1.63-2.83-3.55-4.41-4.27-2.14-.97-2.58-1.62-1.7-2.5.88-.88 2.78-.86 7.3.11 3.36.72 7.91 1.57 10.11 1.89 4.81.69 10.39-1.32 9.57-3.44-.81-2.12-20.27-8.15-23.92-7.42-2.04.41-4.18-.17-6.88-1.86-5.39-3.37-11.92-4.69-21.9-4.44-5.72.15-10.18.93-13.75 2.4-2.91 1.2-7.55 2.99-10.32 3.97-2.76.99-5.02 2.26-5.02 2.84 0 .57-1.95 2.79-4.34 4.93-2.38 2.14-4.96 5.09-5.71 6.56-1.71 3.29-11.73 10.31-16.67 11.68-4.92 1.36-9.66 5.8-8.71 8.17.39 1 .82 3.17.95 4.83.26 3.34 4.15 6.97 7.51 7 1.16 0 3.77-.99 5.78-2.22l3.67-2.23 2.9 3.46c1.59 1.91 3.18 4.77 3.53 6.37.35 1.59 1.6 3.76 2.78 4.83 2.08 1.89 2.25 1.87 6.02-.3 2.67-1.54 4.38-3.6 5.51-6.6.9-2.4 2.81-5.17 4.23-6.14 4.64-3.18 5.29-5.11 2.04-6.14-1.18-.38-2.87-1.8-3.77-3.17-1.46-2.22-1.46-2.8-.02-5.58.88-1.71 3.02-3.69 4.74-4.41 1.73-.71 5.26-3.64 7.85-6.49 4.91-5.41 7.02-6.25 9.16-3.67 1.45 1.75.52 4.01-4.57 11.11-3.95 5.51-3.28 8.55 2.49 11.15 3.71 1.68 4.99 1.77 9.83.68 5.47-1.22 11.91-.72 12.98 1.01 1.22 1.97-5.78 4.17-11.4 3.57-3.07-.32-6.28-.12-7.14.46-1.32.89-1.17 1.47 1 3.77 2.25 2.4 2.37 2.91 1 4.29-1.3 1.3-2.14 1.34-5.01.26-4.23-1.6-5.83.05-4.96 5.09.59 3.41-.72 5.26-5.48 7.72-1.67.86-3.01.88-4.82.06-1.96-.89-3.7-.68-8.13 1.01-5.06 1.92-5.95 1.98-8.58.62-2.33-1.2-3.64-1.27-6.38-.31-3.19 1.11-3.62.98-5.87-1.84-1.33-1.67-2.17-3.27-1.87-3.57.29-.29.93.1 1.41.87.63 1.03 1.06 1.07 1.61.18.54-.87 1.15-.89 2.11-.1 1.74 1.45 4.26-1.33 3.36-3.7-.53-1.37-1.02-1.43-3.03-.32-1.32.72-3.24 1.45-4.26 1.62-1.62.27-1.77-.26-1.16-4.04l.69-4.35-2.71 1.77c-1.49.98-2.99 2.51-3.33 3.39-.71 1.87.36 6.99 1.64 7.84 2.07 1.37-2.33 4.97-6.71 5.49-3.54.42-5.7 1.63-9.83 5.47-2.9 2.71-6.33 5.19-7.61 5.52-1.27.32-3.06 1.73-3.97 3.11-1.88 2.87-7.54 6.13-9.04 5.21-.55-.34-2.27.22-3.83 1.24s-4.51 1.88-6.55 1.9c-5.37.05-5.25 2.08.24 4.17 3.73 1.43 4.97 2.55 5.88 5.3 1.4 4.23.37 11.75-1.92 14.04-1.66 1.66-8.75 1.56-20.87-.3-5.25-.81-8.39 1.55-7.38 5.54.34 1.37-.08 5.54-.94 9.26-2.02 8.69-1.56 14.8 1.13 15.21 5.14.8 6.6 1.43 9.14 3.98 2.71 2.71 2.75 2.71 3.91.55.88-1.65 2.2-2.19 5.43-2.19 2.34 0 5.31-.53 6.58-1.18 3.99-2.06 8.12-6.53 8.13-8.8 0-2.37 3.69-9.06 5-9.06.45 0 2.19-1.19 3.88-2.64 1.69-1.46 3.73-2.64 4.52-2.64 1 0 1.24-.8.8-2.56-.85-3.39 2.5-5.25 7.84-4.35 4.01.68 7.85-.49 12.97-3.96 3.4-2.31 5.8-1.5 7.96 2.67 2.01 3.9 9.71 11.37 11.72 11.37 5.47 0 12.06 7.18 11.18 12.18l-.55 3.16 2.43-2.34c2.09-2.01 2.26-2.7 1.22-4.99-1.48-3.24-.3-4.2 4.03-3.25 4.86 1.07 3.76-.19-3.22-3.72-6.59-3.32-20.07-15.75-20.07-18.49 0-.83.92-2.01 2.05-2.61 1.62-.87 2.35-.68 3.45.9.78 1.1 3.12 2.72 5.22 3.59 2.09.88 4.47 2.54 5.29 3.71.81 1.16 3.5 2.71 5.97 3.45 4.76 1.43 8.69 6.1 8.69 10.33 0 5.43 3.49 8.88 10.05 9.93 2.87.46 2.68 2.35-.28 2.77-2.35.33-2.36.4-.59 3.4 2.54 4.31 4.22 4.57 6.02.97 1.44-2.89 1.37-3.48-.94-7.81-2.12-4-2.27-4.87-.98-5.94.82-.69 2.22-.97 3.1-.63.88.33 1.6.17 1.6-.38 0-1.84 3.92-3.12 7.01-2.27 1.67.46 5.15.39 7.74-.14l4.7-.97-2.56-1.93c-2.47-1.87-2.51-2.12-1.2-7.04 2.79-10.47 12.41-21.1 15.44-17.06.62.83 2.02 1.84 3.1 2.25 1.57.59 1.72 1.05.72 2.24-1 1.21-.72 1.85 1.39 3.23 2.46 1.62 2.89 1.59 6.68-.41 3.12-1.65 3.53-2.15 1.8-2.18-1.24-.03-2.83-.75-3.54-1.6-1.09-1.31-.36-1.97 4.52-4.13 8.41-3.72 10.12-4.16 9.88-2.56-.12.75-.6 1.99-1.08 2.76-.48.76-.6 1.66-.27 1.98.32.33-.08 1.89-.9 3.46l-1.48 2.87 7.91 4.5c4.35 2.47 8.64 5.61 9.53 6.97 1.47 2.24 1.46 2.73-.09 5.09-2.96 4.52-10.34 4.77-18.64.62-6.16-3.08-14.09-3.72-17.59-1.42-1.61 1.06-4.63 2.01-6.72 2.13-2.51.13-4.75 1.15-6.59 2.99-1.96 1.96-3.51 2.62-5.19 2.22-1.32-.31-3.12-.1-3.99.47-1.35.89-1.24 1.29.79 2.72 1.31.92 2.38 2.58 2.38 3.68 0 2.88 1.97 6.79 4.08 8.11 2.93 1.83 8.34 2.7 9.1 1.46 1.03-1.66 4.6-1.35 8.08.7 2.68 1.59 3.51 1.64 6.51.41 6.31-2.59 8.95-2.65 10.25-.22.78 1.46.81 2.22.1 2.22-.6 0-1.11 1.79-1.14 3.97-.1 6.71-.46 9.78-1.14 9.78-.36 0-.93 1.67-1.26 3.72-1 6.14-4.74 7.9-12.05 5.66-2.24-.69-4.69-.68-7.25.02-5.31 1.47-20.3-1.35-28.21-5.31-7.25-3.63-11.89-3.93-13.53-.87-.63 1.18-.89 3-.56 4.04.37 1.18-.35 2.76-1.95 4.27-2.38 2.23-2.75 2.29-5.6.81-1.68-.87-4.82-1.91-6.99-2.32-2.79-.52-4.47-1.64-5.76-3.81-1.76-2.98-4.17-4.08-12.67-5.78-1.81-.36-4.54-1.95-6.06-3.54-2.41-2.52-2.63-3.28-1.66-5.84.78-2.03.78-3.35.03-4.26-.61-.73-.82-2.06-.47-2.97 1.15-3-3.1-4.16-8.02-2.19-3.34 1.33-6.45 1.61-13.34 1.18-10.45-.65-16.09.57-25.23 5.45-5.31 2.84-7.01 3.27-10.57 2.67-2.34-.39-5.19-1.37-6.34-2.17-2.92-2.03-3.28-1.9-5.79 2.16-1.23 1.99-4.56 5.11-7.4 6.93-5.28 3.39-8.52 8.79-8.52 14.22 0 2.4-7.21 10.15-9.45 10.15-2.02 0-9.47 8.78-12.82 15.11-1.91 3.61-4.6 8.07-5.98 9.9-3.67 4.86-4.77 9.54-3.05 12.93 3.59 7.09 2.55 18.35-2.18 23.58-1.55 1.71-1.51 2.16.52 5.6 1.44 2.44 1.77 3.75.93 3.76-.82 0-.7.4.3 1.04 1.35.88 1.31 1.03-.27 1.04-2.58.03-2.32 2.21.35 2.91 1.69.44 1.87.79.8 1.49-1.07.69-.86 1.06.89 1.54 2.76.76 10.85 11.24 12.15 15.75 1.68 5.81 13.5 16.47 20.38 18.36 3.3.92 5.51.74 11.61-.94 5.9-1.62 8.34-1.83 11.22-1 3.05.89 5.15.59 12.15-1.72 4.65-1.53 9.41-3.17 10.57-3.65 5.12-2.08 6.91-2.07 11.09.05 3.21 1.64 4.48 3.03 4.95 5.39.62 3.07.78 3.15 5.14 2.5 11.17-1.68 15.75 6.82 11.52 21.39-2.08 7.16-1.21 9.75 5.49 16.33 3.48 3.41 5.18 6.19 6.4 10.47.91 3.2 2.58 7.32 3.7 9.17 1.33 2.2 1.8 4.29 1.36 6.04-.37 1.49.11 5.01 1.1 7.98l1.76 5.31-3.14 6.11c-4.72 9.18-6.79 16.76-5.96 21.85.39 2.39 2.53 7.69 4.76 11.77 4.54 8.29 7.91 19.73 8.94 30.31.58 5.99 1.31 7.88 4.84 12.62 2.29 3.06 4.16 6.08 4.16 6.72 0 .63 1.17 2.87 2.6 4.97 2.01 2.96 2.46 4.67 1.99 7.57-.5 3.09-.13 4.23 2.11 6.47 3.22 3.22 2.34 3.13 10.65 1.05 5.13-1.29 7.6-1.43 10.66-.58 3.47.96 4.68.74 9.4-1.64 5.67-2.85 18.13-14.9 22.47-21.71 1.37-2.16 3.42-4.42 4.56-5.02 1.64-.88 1.94-1.85 1.47-4.75-.9-5.54.3-8.61 3.93-10.12 8.62-3.57 11.03-8.68 7.44-15.73-1.2-2.35-2.18-4.75-2.18-5.33 0-.59 2.14-3.48 4.76-6.43 2.61-2.95 4.76-5.81 4.76-6.37 0-.55 2.5-2.25 5.55-3.78 6.99-3.5 8.98-5.27 11.48-10.17 1.74-3.39 1.85-4.64.85-9.31-.64-2.96-.87-6.55-.51-7.97.43-1.71-.28-4.42-2.09-7.99-7.12-14.05-5.66-24.54 5.08-36.46 3.68-4.08 7.72-8.88 8.99-10.65 1.26-1.78 6.01-6.16 10.54-9.74 8.05-6.35 8.42-6.86 16.52-22.39 7.53-14.44 8.22-16.28 7.58-20.08l-.71-4.19-2.98 1.54c-1.64.85-7.53 2.53-13.09 3.73-9.32 2.02-10.36 2.07-13.31.54-1.94-1-3.46-2.8-3.86-4.55-1.08-4.65-5.4-10.23-12.07-15.58-4.39-3.52-6.43-5.97-6.93-8.31-.39-1.83-2.25-5.23-4.12-7.55-4.68-5.79-5.86-8.28-5.86-12.26 0-1.93-1.07-4.83-2.47-6.68-1.36-1.8-4.37-7.08-6.69-11.73-2.33-4.66-6.23-11.76-8.68-15.78-5.18-8.5-4.48-11.66 1.03-4.7l3.58 4.52.53-3.07c.75-4.32 2.37-3.37 4.29 2.51 1.45 4.44 4.32 8.69 14.03 20.75 1.4 1.74 3.32 5.84 4.27 9.11 1.18 4.07 3.05 7.32 5.96 10.32 2.33 2.4 4.24 4.83 4.24 5.39 0 .56 1.37 2.58 3.05 4.49 2.17 2.49 3.26 5.13 3.82 9.29.44 3.2 1.7 7.62 2.82 9.83 1.93 3.8 2.22 3.97 5.87 3.28 3.4-.63 15.51-5.72 25.56-10.74 1.96-.98 4.29-2.89 5.18-4.25 1.87-2.85 6.57-5.52 9.74-5.52 2.73 0 10.81-7.95 13.6-13.38 1.14-2.24 3.32-5.23 4.83-6.64 1.51-1.41 2.74-3.11 2.74-3.79 0-1.46-6.57-6.9-11.29-9.34-3.05-1.58-4.9-4.32-4.48-6.67.62-3.49-.65-3.21-4.31.95-2.32 2.63-5.39 5.08-6.83 5.44-2.85.72-8.95-2.29-8.36-4.12.18-.58-.12-1.77-.66-2.64-.86-1.36-1.21-1.3-2.48.44-2.1 2.88-4.64 1.46-5.93-3.32-.6-2.22-2.57-6.06-4.37-8.51-2.59-3.53-3.14-5.12-2.6-7.56.37-1.7 1.39-3.37 2.26-3.7 2.78-1.07 7.34 2.23 9.4 6.79 1.61 3.57 3.17 4.99 8.38 7.63 6.04 3.05 6.69 3.16 11.18 1.95 4.73-1.28 4.78-1.26 7.93 2.35 1.74 2 4.31 3.99 5.69 4.42 3.85 1.21 26.8 1.45 29.33.31 2.82-1.27 8.43 1.4 9.4 4.47.37 1.17 1.09 2.13 1.58 2.13.5 0 2.35 1.21 4.12 2.7 1.76 1.48 4.01 2.56 4.99 2.38 2.77-.5 3.01 2.21.3 3.22l-2.41.89 2.8 2.81c4.24 4.24 9.66 3.49 9.75-1.33.02-.83.62-1.69 1.34-1.94 1.81-.6 3.68 4.75 2.9 8.29-1.15 5.25.85 10.79 14.37 39.83 2.24 4.8 4.37 10.34 4.73 12.3.45 2.4 1.54 3.97 3.3 4.78 3.21 1.46 3.48 1.3 7.26-4.16 3.89-5.61 5.48-15.04 4.44-26.32-.18-1.93.94-3.46 4.51-6.21 2.61-2 5.55-4.97 6.54-6.6.98-1.62 2.7-3.24 3.82-3.59 1.12-.36 2.57-1.83 3.23-3.28.66-1.44 2.9-3.44 4.98-4.43 2.57-1.23 3.64-2.37 3.33-3.55-.83-3.2 1.36-5.06 7.48-6.31 3.34-.69 6.77-1.63 7.63-2.1 2.36-1.29 4.73.5 6.84 5.17 1.21 2.7 3.03 4.69 5.01 5.51 3.63 1.5 9.82 12.57 8.82 15.74-.56 1.75 1.76 5.34 3.44 5.34.36 0 1.91-1.21 3.45-2.68 3.72-3.56 5.82-2.54 7.31 3.54.67 2.73 2.44 7.5 3.93 10.6 2.11 4.37 2.57 6.52 2.02 9.52-.39 2.13-.87 6.25-1.06 9.16-.34 5.12-.21 5.39 3.99 8.49 3.43 2.52 4.64 4.3 5.74 8.46 2.54 9.57 5.59 14.99 10.35 18.41 4.61 3.31 6.82 4.04 6.82 2.25 0-.55-1.18-4.76-2.63-9.35-2.45-7.77-3.07-8.7-8.9-13.37-3.5-2.81-6.56-6.2-6.93-7.68-.37-1.46-1.66-4-2.86-5.63-1.97-2.67-2.08-3.51-1.04-8.09.64-2.82 1.06-6.79.93-8.83-.17-2.52.21-3.7 1.18-3.7 2.78 0 12.78 8.05 16.23 13.05 1.41 2.04 2.08 2.27 3.82 1.34 1.67-.89 2.25-.77 2.77.59.36.95.38 2.6.03 3.67-.34 1.08-.32 2.43.04 3.01.86 1.4 5.56-1.68 6.34-4.15.33-1.03 2.45-2.71 4.72-3.73 4.99-2.25 6.85-6.03 5.8-11.79-1.21-6.62-6.34-15.72-10.92-19.35-5.58-4.42-8.95-9.91-8-13.03 1.07-3.49 3.7-6.19 7.7-7.88 4.36-1.84 7.41-.97 8.73 2.52l1.02 2.67 2.18-2.77c2.74-3.49 5.88-5.2 9.94-5.43 1.75-.1 6.11-1.25 9.7-2.56 9.11-3.33 12.59-7.92 16.44-21.65 3.19-11.34 3.17-13.31-.13-13.31-2.75 0-3.75-1.74-1.66-2.91 2.23-1.25 1.11-3.68-2.76-5.97-1.76-1.04-4.2-3.94-5.42-6.45-1.22-2.52-3.38-5.11-4.81-5.75-2.13-.98-2.47-1.69-1.9-4.07.68-2.89 2.2-4.57 6.99-7.78l2.59-1.73-4.64-1.26c-3.86-1.05-4.9-1-6.18.28-1.35 1.35-2.11 1.22-6.1-1.01-2.51-1.4-5.2-3.32-5.98-4.26-1.21-1.45-1.11-1.87.64-2.87 1.13-.64 3.69-2.94 5.69-5.1 2.97-3.21 3.99-3.73 5.6-2.87 1.09.58 1.98 1.78 1.98 2.67 0 .89.5 2.57 1.12 3.72 1.11 2.07 1.15 2.07 4.77-.16 3.61-2.24 3.68-2.24 7.08-.25 2.33 1.37 3.42 2.81 3.42 4.5 0 1.86.79 2.71 3.03 3.32 4.45 1.2 6.98 3.92 9.92 10.68l2.63 6.04 4.38-2.21c2.4-1.21 4.57-2.38 4.8-2.59.24-.21-.38-2.19-1.37-4.38-1.26-2.8-4.01-5.52-9.16-9.06-4.04-2.78-7.35-5.52-7.35-6.09 0-.56 1.16-1.55 2.58-2.2 3.09-1.4 4.23-3.82 2.69-5.68-.81-.97-.49-2.54 1.14-5.68 1.25-2.39 2.43-4.34 2.62-4.34.19 0 1.64.49 3.21 1.09 4.11 1.56 6.91-.69 9.41-7.55 3.61-9.92 2.73-25.09-1.59-27.4-1.14-.61-2.99-2.91-4.11-5.1-2.73-5.36-11.48-12.18-14.35-11.19-3.72 1.28-8.62.68-13.12-1.62-4.15-2.11-4.28-2.34-2.83-4.58.83-1.29 2.07-4.58 2.75-7.29.67-2.72 2.41-6.05 3.86-7.41 2.29-2.14 3.73-2.47 11.26-2.55 4.75-.04 9.88-.44 11.4-.87 1.77-.5 4.22-.17 6.83.92 2.37.99 5.28 1.43 6.98 1.06 2.5-.55 2.84-1.05 2.35-3.48-.31-1.56-.04-4.2.6-5.87 1.09-2.87 1.4-3 5.63-2.33 2.46.39 5.58 1.44 6.94 2.33 3.12 2.05 5.84 1.14 4.95-1.65-.96-3.03 2.86-4.88 5-2.42 3.27 3.75 3.86 5.95 2.33 8.71-.8 1.45-1.47 3.73-1.49 5.07-.03 1.33-.74 3.79-1.61 5.46-1.52 2.95-1.43 3.23 3.16 9.33 2.6 3.47 6.53 7.6 8.71 9.19 2.19 1.59 5.7 4.8 7.81 7.13 3.05 3.37 4.3 4.08 6.16 3.49 1.66-.53 2.11-1.24 1.57-2.5-.41-.96-.88-2.94-1.04-4.39-.15-1.46-.61-3.48-1.01-4.49-.48-1.21-.16-2.07.95-2.49 1.52-.58 1.53-.94.12-3.45-.87-1.54-2.02-4.05-2.56-5.58-.62-1.74-2.71-3.6-5.59-5-5.28-2.56-9.03-7.69-6.91-9.46.73-.6 2.74-1.44 4.49-1.86 1.74-.42 4.47-1.42 6.07-2.22 2.5-1.26 3.34-1.25 5.94.09 2.78 1.44 3.21 1.4 5.29-.54 1.24-1.16 2.26-2.55 2.26-3.1 0-1 2.43-2.45 4.91-3.3v-6.04c-.44-.18-.75-.31-1.21-.49-9.63-3.76-11.43-5.7-4.87-5.24 3.5.25 3.54.2 1.7-1.83-2.45-2.71-.45-3.56 4.38-2.15v-4.88c-2.81-1.31-7.46-2.65-10.75-3.05-3.48-.43-8.47-1.61-11.09-2.62-5.02-1.95-19.87-4.66-32.25-5.89-7.39-.73-7.41-.73-5.49 1.42 2.66 2.98.71 3.75-4.18 1.65-3.03-1.31-7.62-1.79-17.84-1.89-11.1-.11-14.44-.51-17.37-2.07-2.89-1.54-6.7-2.02-18.66-2.34-12.61-.35-15.86-.79-20.17-2.73-2.83-1.27-6.81-2.43-8.85-2.58-2.03-.14-6.73-.81-10.44-1.47-8.09-1.45-14.68-.62-12.83 1.62.96 1.16.56 1.8-1.96 3.1-2.57 1.33-4.23 1.43-8.8.56-4.6-.88-6.33-.76-9.44.63-3.73 1.67-3.96 1.64-9.33-1.29-3.03-1.65-7.48-4.07-9.89-5.38-4.86-2.63-13.23-3.16-20.03-1.27-2.98.83-5.42.7-10.13-.52-4.51-1.17-7.16-1.33-9.75-.59-2.59.75-4.98.6-8.81-.53-4.66-1.39-5.95-1.38-11.58.08-8.69 2.25-10.21.52-3.03-3.44 2.98-1.64 5.42-3.28 5.43-3.65 0-.37-1.29-1.56-2.89-2.64-2.31-1.56-4.97-1.97-12.96-2-7.43-.03-10.93-.51-13.43-1.86-1.86-1-4.63-1.82-6.15-1.82-1.51 0-2.51-.42-2.19-.92.64-1.04-9.56-3.31-14.84-3.31-1.9 0-3.76-.48-4.12-1.06-.35-.58-2.21-1.06-4.13-1.06-1.91 0-5-.76-6.87-1.69-2.27-1.14-4.77-1.72-6.98-1.73h-.01zm-198.02 1.41c-.19 0-.26.24-.26.74 0 .69-.68 1.27-1.52 1.27-.83 0-1.72 1.07-1.98 2.38l-.47 2.38-.78-2.38c-.78-2.36-3.72-3.39-3.72-1.3 0 .7-3.45.83-10.04.37-8.65-.61-10.05-.48-10.05.92 0 1.66 1.24 2.4 6.82 4.07 2.19.65 3.36.55 3.92-.37.61-.98 1.1-1 2.03-.07.68.68 2.01.99 2.96.69 1.49-.48 1.5-.39.13.6-.87.62-2.89 1.14-4.49 1.15-4.08.02-3.58 1.23 1.61 3.89l4.47 2.29 3.44-3.8c1.89-2.09 3.44-4.2 3.44-4.67 0-1.46 3.89-.96 5.25.68.7.84.95 2.06.55 2.71-.51.82.42.95 3.08.45 2.47-.46 3.81-.31 3.81.43 0 .63.7.88 1.56.55 1.34-.52 1.35-.81.07-2.09-.81-.81-1.95-1.48-2.53-1.48-1.6 0-7.55-3.59-7.56-4.57 0-.47.83-.62 1.85-.32 4.99 1.47 9.55 1.75 12.17.75 5.05-1.91 3.27-3.26-4.29-3.26-4.18 0-7.72-.53-8.46-1.27-.5-.5-.82-.74-1.01-.74zm-326.84 11.95c-.74.04-1.49.26-2.43.65-2.54 1.05-4.9 3.91-3.95 4.79.16.15 6 .72 12.98 1.27 6.98.56 13.41 1.06 14.28 1.12.87.07 3.26-.77 5.29-1.86l3.7-1.98-2.99-.75c-1.65-.42-6.41-.52-10.58-.22-6.18.45-8.33.17-11.66-1.53-2.14-1.08-3.39-1.55-4.64-1.49zm464.45 2c-.56.03-1.17.1-1.81.2-2.41.37-7.48.92-11.26 1.22-3.78.3-8.3 1.19-10.04 1.99-3.05 1.39-7.35 5.51-7.39 7.08 0 .41-.97 1.46-2.14 2.34-1.16.88-1.69 1.61-1.19 1.63.51.03.32.76-.41 1.65-1.57 1.89-1.69 1.78 3.72 3.91 2.33.92 5.66 1.7 7.41 1.72l3.17.05-2.38-1.66c-3.12-2.18-3.01-4.72.39-8.76 3.22-3.83 8.12-6.12 16.27-7.58 8.21-1.47 9.64-1.99 8.89-3.2-.29-.47-1.54-.68-3.23-.59zm-563.16 5.59c-4.35.03-8.48 1.53-14.47 4.81-8.19 4.48-8.57 4.85-6.87 6.56 1 1 2.53 1.51 3.42 1.14 8.68-3.61 19.68-7.29 24.87-8.32l6.35-1.26-4.77-1.45c-3.22-.98-5.92-1.49-8.53-1.48zm68.06 1.51c-2.68.02-9.42 2.57-10.15 3.85-.61 1.07-1.99 1.32-4.76.89l-3.89-.61 2.91 1.67c1.6.92 2.91 2.13 2.91 2.69 0 3.17 10.04-1.22 12.16-5.33.9-1.74 1.27-3.16.82-3.16zm14.82.26c-4.9-.18-12.66 3-11.34 5.14.37.6 1.46.75 2.42.34s3.79-1.08 6.29-1.5c5.59-.93 7.73-2.67 4.53-3.69-.55-.18-1.2-.27-1.9-.29zm20.32.52l-4.23.76c-5.32.94-14.28 7.32-14.28 10.16 0 1.55 6.24 3.22 9.65 2.58 1.96-.37 5.85-.16 8.63.47 4.13.93 5.63.83 8.24-.52 2.99-1.54 3.43-1.51 6.77.56 1.96 1.21 4.82 4.33 6.34 6.93 1.52 2.59 3.13 4.72 3.57 4.72.45 0 1.74.68 2.87 1.51 1.97 1.45 1.93 1.55-1.09 2.7-2.25.86-3.85.88-5.6.08-2.86-1.3-8 .79-9.12 3.72-.56 1.46-1.63 1.63-6.42 1.03-6.3-.79-11.96.94-8.82 2.69.9.51 3.16.45 5.18-.13 5.96-1.71 8-1.27 10.21 2.22 1.13 1.79 3.91 4.39 6.18 5.78 4.1 2.52 9.33 3.4 10.36 1.75.29-.48-.88-1.7-2.6-2.72-5.51-3.25-1.53-5.26 4.36-2.21 3 1.55 3.18 1.52 4.28-.91.9-1.96.78-3.26-.54-5.81-1.61-3.11-1.59-3.34.41-4.4 1.63-.88 3.05-.65 6.29 1 4.67 2.38 6.33 2.14 8.43-1.24 1.54-2.46 1.69-2.25-5.41-7.32-1.69-1.21-2.41-2.79-2.41-5.29 0-3.33-.33-3.66-5.17-5.19-3.03-.96-6.13-2.86-7.53-4.61-2.01-2.52-2.69-2.79-4.55-1.8-3.07 1.64-3.5 1.55-8.95-2.07-4.11-2.71-5.5-3.11-8.77-2.5-2.14.4-5.46 2.11-7.38 3.8-4.53 3.98-6.1 1.93-1.93-2.52l3.03-3.22zm-65.39 2.33c-1.39.13-3.51 1.17-4.97 2.72-2.51 2.68-4.63 2.98-4.87.69-.07-.68-.19-1.77-.26-2.42-.09-.75-1.06-.57-2.69.5-2.32 1.52-3.09 1.52-8 .06-5.97-1.77-12.71-1.25-19.05 1.48-3.65 1.58-3.67 1.62-1.07 2.27 3.6.91 3.32 2.58-.53 3.18-2.31.36-1.44.65 3.17 1.06 3.49.31 6.35 1.04 6.35 1.62 0 .58-3.31 1.3-7.34 1.59l-7.35.53 5.23 2.35c2.87 1.29 6.42 2.53 7.87 2.76 5.17.82 6.23.68 11.23-1.46 4.43-1.9 5.69-2.02 10.08-.97 4.54 1.09 5.58.96 10.63-1.35l5.6-2.56-6.82-3.56 2.09-3.42c1.14-1.89 2.08-3.79 2.09-4.22 0-.68-.56-.93-1.39-.85zm32.33 6.75c-1.11-.12-3.02.55-6.26 2.14-5.81 2.85-5.9 2.97-3.7 4.51 3.13 2.19 1.36 5.28-3.83 6.72-2.18.61-5.13 2.01-6.56 3.12-2.57 2-2.65 2-5.54-.06-2.3-1.64-3.93-1.96-7.45-1.45-2.76.4-6.44.06-9.52-.89-4.37-1.33-5.69-1.34-10.03-.03-2.88.87-5.97 2.71-7.27 4.34l-2.26 2.84-1.74-3.37c-1.74-3.35-1.79-3.37-8-2.72-3.44.36-7.12.32-8.18-.09-1.84-.71-1.83-.82.13-2.26 2-1.47 1.99-1.51-.3-1.51-1.29 0-5.31-1-8.93-2.23-4.75-1.6-8-2.05-11.72-1.62-3.52.42-6.11.1-8.21-.98-2.32-1.2-3.58-1.3-5.2-.43-1.18.63-3.05.86-4.14.51-1.1-.34-5.8.34-10.45 1.53-10.54 2.69-16.68 2.72-26.11.14-4.06-1.12-10.24-2.35-13.73-2.73-3.49-.39-10.51-1.4-15.61-2.24-8.27-1.37-10.61-1.35-21.63.17-6.8.94-15.42 2.86-19.15 4.27-3.74 1.41-8.1 2.55-9.68 2.55-3.19 0-9.55 1.97-9.55 2.95 0 .34 1 1.68 2.22 2.98l2.22 2.37-3.37 1.75c-2.34 1.21-4.62 1.53-7.4 1.07-4.39-.75-11.07.67-14.3 3.04-1.94 1.41-1.78 1.58 2.53 2.74 3.56.96 5.31.95 7.71-.05 5.06-2.1 5.87.32 1.17 3.52-2.66 1.82-6.63 3.12-11.83 3.91-9.7 1.46-14.2 3.85-13.38 7.1.84 3.36-.31 5.5-3.98 7.4l-3.25 1.68 2.99 1.56c2.32 1.22 3.56 1.3 5.56.39 2.73-1.25 5.01-.64 3.96 1.06-.85 1.37-10.04 5.99-18.98 9.54-5.26 2.08-6.6 2.95-4.62 2.99 3.06.07 14.14-3.86 21.88-7.76 2.72-1.37 6.62-2.85 8.65-3.29 2.04-.44 7.33-2.7 11.75-5.01 6.56-3.43 8.44-4 10.17-3.08 2.29 1.23 7.93.12 13.25-2.62 2.56-1.32 3.87-1.25 11.28.65 4.61 1.17 9.21 2.14 10.22 2.14 1.01 0 3.34 1.14 5.18 2.54 1.84 1.4 5.07 3.28 7.2 4.16 3.94 1.65 5.1 3.87 4.79 9.16-.19 3.32.43 5.59 1.79 6.6.61.44.32.78-.67.79-2.39.02-4.6 5.63-3.2 8.13.79 1.43.65 2.4-.54 3.72-1.48 1.63-1.19 2.2 3.25 6.52 2.67 2.6 4.86 5.45 4.86 6.32 0 .88.45 1.75.99 1.94.54.2-.32 2.26-1.91 4.59-2.69 3.95-5.08 4.88-4.75 1.85.09-.73-.87-1.31-2.11-1.3-1.73.02-2.87 1.4-4.8 5.87-1.4 3.23-4.62 8.18-7.16 11-2.54 2.82-5.37 6.96-6.29 9.19-.91 2.24-2.86 5.33-4.32 6.88-1.47 1.55-2.37 3.31-2.01 3.89.36.59.11 2.27-.56 3.75-.99 2.17-.9 3.18.5 5.31.95 1.45 1.29 2.9.77 3.23-.55.33-.59 2.05-.09 4.02.48 1.88 1.17 5.16 1.53 7.27.5 3 1.36 4.15 3.85 5.18 4.3 1.78 6.61 6.44 5.74 11.58-.53 3.15-.08 5.21 2.07 9.45 2.11 4.17 2.49 5.88 1.66 7.44-1.43 2.66-.61 4.52 3.28 7.39 2.57 1.9 3.09 2.91 2.56 4.99-.49 1.96.18 3.66 2.65 6.78 4.18 5.28 5.89 5.37 3.24.17-1.12-2.19-2.39-6.33-2.82-9.19-.43-2.86-2.11-8.09-3.75-11.61-4.01-8.67-4.52-11.29-2.71-13.77 1.29-1.76 1.92-1.89 4.17-.87 2.12.97 2.8 2.25 3.37 6.44.45 3.26 2.26 7.72 4.82 11.89 2.25 3.67 3.84 7.08 3.53 7.59-.32.5 1.27 2.92 3.53 5.37 2.25 2.44 5.2 6.72 6.55 9.51 2.15 4.43 2.31 5.64 1.33 9.52-1.08 4.24-.97 4.61 2.26 8.03 2.09 2.21 8.82 6.22 17.5 10.42l14.11 6.84 4.6-1.76c4.17-1.59 4.89-1.6 7.75-.12 1.74.9 4.23 3.13 5.53 4.95 1.36 1.92 4.77 4.39 8.04 5.84 6.27 2.77 8.85 3.1 10.59 1.35.83-.83 1.49-.13 2.37 2.52.66 2.02 2.14 4.52 3.28 5.55 1.14 1.04 2.08 2.98 2.08 4.32 0 1.34.59 2.91 1.32 3.48.72.58 3.28 2.74 5.68 4.8 2.4 2.07 4.88 3.76 5.52 3.76.64 0 3.1 1.01 5.47 2.25 4.42 2.3 5.77 2.08 5.79-.97.03-2.55 5.11-4.07 8.47-2.53 2.32 1.05 2.56 1.57 1.6 3.36-.63 1.17-.73 2.12-.22 2.12.5 0 .97.59 1.03 1.32.06.73.64 3.46 1.3 6.07 1.7 6.85-.1 12.79-6.27 20.57-9.28 11.72-11.46 18.63-6.29 19.98 2.11.55 2.07.73-1.04 5.26-2.88 4.18-3.12 5.11-2.2 8.43.57 2.05 2.2 4.5 3.64 5.45 2.71 1.77 6.68 8.75 8.93 15.7.71 2.19 3.05 6.24 5.21 8.99 2.15 2.76 5.24 7.74 6.85 11.07 2.67 5.5 3.63 6.42 10.45 10 9.53 5.01 17.24 12.59 18.92 18.6.69 2.46 1.15 7.45 1.04 11.09-.52 17.04.51 35.72 2.54 45.74 1.37 6.75 1.66 11.6 1.16 19.45-.46 7.24-.29 10.9.56 11.92.67.81 1.31 3.62 1.42 6.25.17 4.06.87 5.45 4.65 9.31 2.99 3.05 4.23 5.1 3.78 6.27-.38.99.28 3.06 1.54 4.83 2.65 3.71 2.06 9.24-1.08 10.24-2.74.87-2.48 1.78 1.06 3.79 2 1.14 3.68 3.49 4.93 6.88 2.48 6.72 6.92 13.93 9.05 14.66.92.32 2.31 1.76 3.09 3.21.98 1.83 2 2.46 3.32 2.04 1.05-.33 2.74-.14 3.75.42 2.59 1.45 8.35-2.57 6.64-4.63-1.89-2.27-1.51-7.05.92-11.82 2.43-4.76 1.9-8.94-1.28-10.16-.88-.34-2.4-1.83-3.38-3.32-1.7-2.6-1.66-2.84.99-6.33 1.64-2.14 2.5-4.32 2.11-5.32-.36-.94.15-2.59 1.14-3.68 1.7-1.88 1.67-2.03-.41-2.69-1.21-.38-2.95-2.14-3.87-3.91-2.25-4.36-.67-5.82 3.78-3.52 1.87.96 3.52 1.6 3.68 1.41 1.95-2.32 2.63-5.36 1.62-7.24-1.63-3.05-.46-4.21 4.27-4.21 5.34 0 11.09-2.77 12.59-6.06.97-2.13.77-3.42-1.09-7.15-1.25-2.5-3.4-5.07-4.78-5.7-1.39-.63-2.51-1.63-2.51-2.22 0-1.58 3.02-1.34 8.69.7 6.53 2.34 9.24.96 13.75-7 1.83-3.24 4.43-7.36 5.78-9.16 1.35-1.8 2.45-4.43 2.45-5.85 0-1.41.75-3.64 1.67-4.95 2.84-4.06 3.73-8.82 2.41-12.83-1.15-3.49-1.04-3.81 2.38-6.73 1.97-1.69 5.56-3.93 7.97-4.99 2.4-1.06 4.71-2.47 5.13-3.14.46-.76 2.23-.99 4.61-.63 2.9.45 4.46.09 6.29-1.46 5.62-4.74 11.44-26.95 10.19-38.85-.64-6.09-.5-6.73 2.07-9.29 1.51-1.52 3.53-4.29 4.48-6.15.94-1.87 3.27-5.32 5.18-7.67 4.45-5.51 6.1-11.3 4.69-16.52-.97-3.6-1.55-4.07-6.89-5.63-3.99-1.15-7.15-3.01-9.97-5.82-3.79-3.8-4.83-4.23-12.74-5.31-7.44-1.02-8.96-.95-11.18.51-2.8 1.83-3.75.94-3.3-3.1.16-1.45-1.13-2.82-4.35-4.62-4.96-2.77-6.28-2.56-11.86 1.95-2.15 1.74-3.23 1.97-5.29 1.15-1.51-.61-1.9-1.07-.93-1.11.92-.03 2.73-1.19 4.03-2.57 2.17-2.32 2.22-2.65.63-4.24-2.61-2.61-4.35-2.12-9.56 2.69-3.59 3.3-5.08 4.09-5.99 3.19-.91-.91-.14-2.24 3.09-5.31 5.06-4.8 7.37-8.6 5.82-9.56-.58-.37-1.62-2.8-2.31-5.42-2.32-8.79-12.23-16.03-19.45-14.22-3.52.88-11.51-2.78-14.01-6.42-5.25-7.64-19.24-16.14-24.41-14.84-3.4.85-15.25-2.35-17.48-4.73-3.02-3.23-5.74-3.5-9.25-.9-3.38 2.5-3.93 4.01-2.11 5.82.76.76.48 1.87-.91 3.59-1.96 2.42-2.05 2.43-3.12.42-1.3-2.42-.15-10.18 1.86-12.6 2.38-2.87-2.5-1.91-5.28 1.04-1.36 1.45-3.47 2.66-4.67 2.67-2.9.03-6.34 2.89-8.38 6.96-.91 1.8-2.76 4-4.11 4.89-2.29 1.5-2.7 1.44-5.61-.89-3.64-2.91-6.48-3.14-11.72-.95-3.3 1.37-4.12 1.38-6.74.02-1.64-.84-4.02-3.22-5.29-5.28-2.28-3.68-2.29-3.9-.71-13.88.88-5.58 1.36-10.78 1.06-11.55-.75-1.97-7.24-2.76-14.34-1.73-7.79 1.12-8.11.24-3.57-9.61 6.63-14.35 7.15-15.89 5.67-16.83-1.79-1.14-3.74-1.09-8.41.21-3.11.86-4.15 1.82-5.11 4.73-1.51 4.59-5.63 7.56-12.48 9.03-9.09 1.95-13.45-1.67-16.59-13.77l-1.71-6.59 3.34-10.2c1.84-5.62 3.79-11.43 4.34-12.92.63-1.72 3.02-3.76 6.5-5.55 3.03-1.56 7.16-3.79 9.19-4.96 4.35-2.5 6.51-2.64 10.38-.66 1.57.8 4.32 1.77 6.1 2.16 2.77.59 3.43.31 4.43-1.88.67-1.48 2.72-3.1 4.79-3.78 3.05-1.01 4.41-.85 8.68.98 2.79 1.19 5.99 1.87 7.12 1.51 1.36-.43 2.96.19 4.69 1.82 2.14 2.02 2.5 3.11 1.96 5.99-.78 4.14 2 13.48 4.27 14.35.96.37 2.11-.54 3.09-2.45 1.32-2.55 1.38-4.5.38-12.27-1.08-8.33-1-9.6.74-12.84 1.98-3.67 11.74-11.28 18.6-14.51 6.68-3.14 9.74-7.24 9.85-13.26.12-5.87 2.11-9.24 3.44-5.8.7 1.84.84 1.79 1.4-.6.34-1.45 2.27-3.67 4.28-4.94 2.01-1.27 4.88-3.56 6.38-5.09 1.5-1.52 4.84-3.41 7.41-4.2 8.06-2.45 10.35-3.89 11.02-6.95.55-2.49 2.19-3.59 11.58-7.72 6.01-2.65 12.6-5.14 14.63-5.52 5.21-.97 5.98 1.17 1.15 3.19-5.44 2.28-7.21 3.83-5.53 4.87.72.44 3.44-.27 6.13-1.63 2.66-1.34 6.27-2.75 8.02-3.13 1.76-.38 4.61-1.66 6.35-2.86l3.15-2.17-4.1.69c-5.19.87-9.52-.88-11.18-4.53-1.11-2.43-1.01-3.03.76-4.46 1.12-.92 2.61-2.71 3.3-4 1.19-2.21 1.04-2.33-2.76-2.33-2.22 0-6.9 1.37-10.52 3.08-6.16 2.91-7.76 3.1-7.76.92 0-.51 4.16-2.93 9.25-5.37 8.68-4.15 9.86-4.44 18.78-4.52 12.08-.11 16.2-.96 25.46-5.32 8.51-4 11.17-7.47 7.97-10.37-2.17-1.97-5.69-2.18-8.76-.54-3.09 1.66-4.9-.43-2.08-2.41 2.14-1.5 2.14-1.5-.3-5.8-1.7-2.99-2.15-4.81-1.48-6.01.6-1.06.54-2.5-.14-3.77-.6-1.13-.84-2.71-.53-3.51.31-.81.18-2.53-.3-3.81l-.86-2.33-3.67 2.75c-2.02 1.51-5.39 3.64-7.5 4.73l-3.83 1.99-2.34-2.5c-1.96-2.08-2.15-2.87-1.14-4.75.66-1.24.94-3.11.61-4.14-.81-2.53-7.45-6.1-13.07-7.02-6.34-1.03-10.09.76-12.43 5.95-1.04 2.32-3.29 5.2-4.98 6.41-2.68 1.91-2.99 2.65-2.4 5.78.9 4.82-2.48 9.1-10.64 13.46-5.52 2.95-6.4 3.89-8.32 8.94-2.02 5.3-5.27 8.5-8.74 8.6-.71.02-2.02-1.37-2.91-3.09-1.48-2.87-1.45-3.56.47-8.42 2.24-5.67 2.2-5.79-2.61-6.83-1.74-.38-6.03-2.1-9.52-3.82-3.49-1.72-7.67-3.39-9.29-3.71-1.86-.38-3.41-1.65-4.21-3.47-.69-1.59-1.87-3.26-2.61-3.73-3.94-2.48 6.95-11.95 19.8-17.2 3.97-1.62 5.82-2.98 5.82-4.26 0-1.5.97-1.91 4.77-2.04 2.62-.08 6.83-.74 9.37-1.46l4.61-1.31-2.31-2.46c-2.71-2.88-1.39-4.31 2.38-2.59 2.03.92 3.28.81 5.85-.52 1.85-.96 5.83-1.69 9.2-1.69 6.98 0 9.35-1.04 14-6.13 3.9-4.28 4.12-5.02 1.77-5.92-3.65-1.4-7.54-.58-10.04 2.1-6.18 6.62-15.3 8.38-11.23 2.17 1.47-2.25 1.49-2.68.16-3.19-.85-.33-2.23-.34-3.06-.03-2.3.89-4.14-3.28-2.66-6.04.86-1.62.87-2.55.03-3.39-.21-.21-.49-.34-.86-.38zM570.12 262c-.54 0-1.34.33-2.36.99-1.29.83-1.13 1.03.79 1.04 1.31 0 2.38-.46 2.38-1.04 0-.66-.28-.99-.81-.99zm-287.94 2.42c-1.33-.07-3.04.19-4.33.72-2.46 1.03-2.86 1.59-1.9 2.74 1.5 1.82 1.72 1.8 6.16-.57 3.49-1.85 3.54-1.97 1.25-2.7-.33-.1-.73-.16-1.18-.19zm254.84 14.68c-.83.06-1.82.31-3.19.72-2.33.69-5.13.98-6.22.63-3.14-1-12.44 2.48-13.07 4.88-.41 1.57-.11 1.94 1.23 1.52.97-.31 3.19.38 4.93 1.53 1.75 1.14 3.89 1.89 4.76 1.65 9.63-2.62 13.62-4.07 15.77-5.75l2.55-1.98-2.86-1.88c-1.54-1.01-2.5-1.42-3.9-1.32zm-230.53 3.4c-2.41-.18-4.24.88-6.66 3.56-2.52 2.78-.78 3.78 4.18 2.41 2.92-.8 4.54-.71 6.63.39 2.37 1.24 2.88 1.23 3.63-.1 1.18-2.09-.76-4.24-5.14-5.68-.97-.33-1.84-.52-2.64-.58zm262.88 11.17c-.87 0-1.58.39-1.58.88 0 .48.71.88 1.58.88.87 0 1.59-.4 1.59-.88 0-.49-.72-.88-1.59-.88zm89.2 9.82c-2.22.17-2.57 1.38-.61 2.17 2.19.88 2.55.77 2.55-.81 0-.83-.87-1.44-1.94-1.36zm-85.23 10.29c-2.91.06-6.04 5.53-4.68 8.18.53 1.02.74 2.45.48 3.17-.46 1.27.85 1.77 3.68 1.4 1.22-.16 3.42 3.95 3.42 6.4 0 .57-1.42 1.54-3.17 2.14-1.78.63-2.87 1.6-2.48 2.22.38.62-.18 1.76-1.25 2.54-1.78 1.3-1.67 1.46 1.45 2.09 4.56.91 5.15 2.29 1.55 3.59-1.63.59-3.92 1.54-5.08 2.12-1.62.8-1.25.88 1.58.36 2.04-.38 7.41-1.23 11.93-1.88 6.16-.89 7.93-1.49 7.03-2.39-.9-.9-.51-1.66 1.55-3.01 3.03-1.98 2.65-4.17-.59-3.33-1.57.42-2.46-.36-3.81-3.34-2.82-6.22-5.58-9.77-8.45-10.86l-2.68-1.02 4.75-5.05-2.49-.38c-1.36-.2-2.36-.96-2.22-1.67.15-.71-.09-1.29-.52-1.28zm-534.19.38c-.43-.04-1.12.03-1.98.24-4.55 1.11-7.75 2.41-7.75 3.15 0 .37.83.34 1.85-.05 1.01-.39 3.16-.98 4.77-1.3 1.62-.33 3.2-1.03 3.53-1.56.17-.28 0-.44-.42-.48zm60.58 1.09c-.25.06-.59.26-1.02.62-.87.72-1.29 1.77-.93 2.35.39.64 1.01.49 1.56-.38 1.08-1.71 1.15-2.77.39-2.59zm1.93 7.2c-.44-.09-1.09.16-1.89.82-1.31 1.08-1.37 1.66-.34 2.91 1.12 1.35 1.44 1.25 2.3-.68.78-1.75.66-2.88-.07-3.05zm459.2 4.04c-1.93.1-3.91.6-4.62 1.45-.67.81-2.39 1.77-3.82 2.13-2.7.68-3.39 2.13-1.55 3.26.66.41.47 1.77-.52 3.7-.87 1.67-1.28 3.81-.92 4.76.42 1.1 1.26 1.45 2.37.97.94-.41 3.74-1.45 6.21-2.3 3.77-1.31 4.49-2.02 4.49-4.37 0-1.55.75-3.88 1.65-5.17.91-1.3 1.35-2.83 1-3.41-.49-.79-2.37-1.11-4.29-1.02zm9.46 3.5c-.12.02-.26.08-.41.17-.58.36-1.06.86-1.06 1.12 0 .25.48.46 1.06.46.58 0 1.06-.5 1.06-1.12 0-.46-.27-.69-.65-.63zm547.91 5.04c-.11 0-.22 0-.31.03-.83.27 1.38 3.49 5.73 8.35 3.9 4.34 8.52 10.75 10.27 14.24 1.74 3.5 3.9 7.19 4.8 8.2 1.45 1.65 5.54 2.65 5.54 1.36 0-.27-2.16-2.91-4.79-5.88-4.51-5.08-5.38-8.26-1.9-6.92 3.03 1.16.71-2.03-3.97-5.49-5.66-4.16-9.24-7.53-12.15-11.4-1.05-1.4-2.4-2.42-3.22-2.49zm-746.97 10.46c-.66 0-4.52 3.31-8.6 7.35l-7.42 7.34 3.94.41c7.9.83 12.48.73 16.33-.33 3.66-1.02 3.85-1.26 2.76-3.65-.67-1.48-2.43-2.83-4.18-3.21-4.03-.89-5.53-3.62-3.32-6.06.97-1.07 1.17-1.85.49-1.85zm-270.57 1.56c-.32 0-.62.05-.89.15-2.43.94-2.02 2.38 1.64 5.8 1.81 1.69 4.19 3.07 5.29 3.07 2.35 0 2.38-.13.78-3.64-1.33-2.92-4.57-5.37-6.82-5.38zm145.84 8.81c2.95-.15 4.76.65 6.13 2.45 1.06 1.4 1.67 3.48 1.37 4.68-.8 3.24 2.96 6.3 5.84 4.76 4.03-2.15 9.5 2.76 7.35 6.6-.71 1.27-1.79 1.64-3.52 1.21-1.86-.47-2.65-.11-3.13 1.42-.36 1.12-1.81 2.57-3.22 3.21-2.07.94-3 .82-4.82-.65l-2.25-1.83 2.2-2.79c2.79-3.54 2.75-4.04-.3-4.04-4.23 0-9.49 4.4-12.32 10.3-1.45 3.04-3.65 6.24-4.89 7.1-2.01 1.41-2.42 1.38-3.88-.24-1.5-1.66-1.28-2.42 2.47-8.7 4.49-7.51 7.7-10.09 13.89-11.14 2.28-.38 3.77-1.14 3.41-1.73-.36-.58-1.77-.77-3.13-.43-1.37.35-4.08-.14-6.06-1.08-3.29-1.57-3.85-1.58-6.87-.03-2.56 1.33-3.93 1.46-6.24.58l-2.95-1.12 2.63-2.03c1.45-1.11 3.01-2.03 3.49-2.04.47-.02.57-.48.24-1.02-.34-.55.23-.96 1.26-.92 1.03.04 4.01-.53 6.63-1.25 2.73-.76 4.91-1.19 6.67-1.28v.01zm119.2 6.55c-.57 0-1.03.72-1.03 1.59 0 .88.19 1.59.42 1.59.23 0 .69-.71 1.02-1.59.34-.87.15-1.59-.41-1.59zm419.58 1.54c3.41-.23 6.38 1.4 8.86 4.88 2.05 2.87 1.32 5.13-1.16 3.6-1.84-1.14-6.15.44-7.35 2.69-1.6 2.98.22 5.86 5.32 8.47 2.31 1.18 4.2 2.63 4.2 3.22 0 .71.68.71 2.04-.03 1.7-.9 2.42-.56 4.24 1.98 1.2 1.69 2.18 3.54 2.18 4.12 0 1.45-2.83 2.39-4.87 1.61-1.54-.59-1.54-.36-.07 2.49.9 1.73 2.38 3.76 3.29 4.51 1.04.87 1.66 3.09 1.66 5.98 0 4.03-.4 4.81-3.13 6.22-1.72.89-3.26 1.59-3.43 1.56-.18-.03-3.59-1.73-7.59-3.78l-7.27-3.73.53-5.47c.66-6.8-.31-9.43-5.61-15.17-2.3-2.5-4.18-5.25-4.18-6.11 0-.87-.95-2.08-2.12-2.71-3.12-1.67-2.64-3.02 2.89-8.09 4.28-3.94 8.15-6.02 11.57-6.24zm358.5 8.52c-.89-.29-.47.9 1.02 3.78 1.45 2.79 1.45 3.4.05 5.4-1.43 2.04-1.38 2.54.56 5.26 2.58 3.63 3.29 3.78 2.85.63-.35-2.58 1.23-2.93 6.81-1.5 2.18.56 2.91.36 2.91-.79 0-.85.96-1.84 2.13-2.21 3.1-.99 1.67-2.37-4.28-4.14-2.88-.86-6.91-2.83-8.95-4.39-1.55-1.18-2.56-1.87-3.1-2.04zm-867.62 4.17c.95-.06 1.81.04 2.38.36 1.55.87 1.47 1.18-.73 2.72-3.1 2.17-8.35 2.32-8.35.23 0-1.51 3.82-3.13 6.7-3.31zm-16.43 6.46c.92-.09 1.46.22 2.13.88 1.32 1.33.96 1.81-2.81 3.73-2.37 1.21-5.29 2.21-6.48 2.21-3.87 0-2.26-3.03 2.8-5.27 2.16-.96 3.45-1.46 4.36-1.55zm361.12 1.01c-.2-.02-.44.02-.73.14-1.64.63-2.1 2.68-.88 3.9 1.44 1.44 2.47.64 2.47-1.9 0-1.42-.25-2.08-.86-2.14zm-1.45 8.23c-.46.1-.97.41-1.51.95-1.19 1.19-1.26 2.19-.34 4.82 1.51 4.34 4.16 3.47 4.16-1.37 0-3.07-.94-4.69-2.31-4.4zm531.8.07c-1.62.11-1.35 2.48.89 6.91 3.41 6.72 2.65 8.7-5.71 14.99-4.3 3.23-6.35 4.14-8.24 3.66-1.79-.44-3.44.15-5.7 2.06-1.75 1.47-3.75 2.69-4.43 2.71-.68.02-.41.51.6 1.11 1.26.73 3.12.72 5.82-.03 6.64-1.85 9.55-1.42 11.6 1.72l1.85 2.83.97-3.36c.79-2.75 1.51-3.36 3.92-3.36 4.3 0 8.07-1.7 9.43-4.24.93-1.73.8-3.25-.59-6.88-.98-2.57-1.5-5.41-1.15-6.31.97-2.52-2.36-8.48-5.88-10.56-1.51-.89-2.64-1.31-3.38-1.26v.01zm-556.27 4.94c-.81.08-1.8.66-2.18 1.63-.45 1.16-.11 1.57 1.12 1.33.97-.19 1.96-.94 2.2-1.67.33-.97-.32-1.37-1.14-1.29zm44.04 8.94c-.92 0-1.78.07-2.44.25-2.21.57-2.01.84 2.22 3.01 4.21 2.15 4.72 2.21 5.37.63.4-.96.75-2.05.8-2.41.08-.8-3.19-1.48-5.95-1.48zm84.32 11.16c-.46-.09-1.12.23-1.62 1.03-.35.58-1.57 1.05-2.7 1.05-2.01 0-2.68 1.14-1.42 2.4.92.92 5.49-1.37 6.15-3.07.31-.83.06-1.32-.41-1.41zm-40.75 1.13l-4.23.07 3.17 1.45c3.64 1.67 8.59 1.99 9.45.61.76-1.23-3.12-2.22-8.39-2.13zm457.19 7.31c-2.42.03-4.04 1.73-3.36 3.51.81 2.1 1.69 2.22 3.42.5 1.65-1.66 1.62-4.03-.06-4.01zm-12.44 1.55c-1.85-.16-1.89 2.08.62 5.07 1.42 1.68 2.57 3.73 2.57 4.56 0 2.02 1.73 1.91 2.53-.17 1.05-2.74-.44-6.56-3.29-8.43-1-.65-1.81-.97-2.43-1.03zm-816.13 1.98c-.13.02-.27.07-.41.16-.58.36-1.06.87-1.06 1.12 0 .26.48.47 1.06.47.58 0 1.06-.51 1.06-1.12 0-.46-.27-.7-.65-.63zm-65.75 29.25c-1.1 0-2.01.72-2.01 1.59 0 .87.19 1.58.43 1.58s1.14-.71 2.01-1.58c1.41-1.41 1.37-1.59-.43-1.59zm4.73.16c-.1-.03-.19 0-.27.07-.29.29-.22 1.33.16 2.31s.92 1.54 1.21 1.25c.29-.29.23-1.33-.15-2.31-.28-.74-.66-1.24-.95-1.32zm-5.82 6.18c-1.88 0-2.12 2.57-.43 4.51.89 1.02 1.89 1.55 2.24 1.17.34-.37.08-.87-.59-1.11-.66-.24-.97-1.36-.67-2.5.3-1.14.05-2.07-.55-2.07zm857.78 3.59c-.9-.25-2.12.95-3.67 3.59-1.59 2.73-1.71 3.71-.64 5.73.7 1.34 1.8 2.78 2.44 3.2 1.54 1.02 3.98-7.14 3.13-10.5-.3-1.19-.71-1.86-1.26-2.02zm-874.43 9.27c-5.67.19-12.11 2.3-12.11 4.23 0 1.21.36 1.16 5.16-.76 5.13-2.05 9.38-1.09 17.01 3.85 3.89 2.52 5.02 3.78 4.23 4.73-.81.98-.02 1.3 3.3 1.35 2.4.03 4.63.33 4.96.65.74.74 3.16.61 6.59-.37 3.02-.86 3-.87-6.35-5.87-11.38-6.09-14.63-7.32-20.42-7.77-.76-.05-1.56-.07-2.37-.04zm39.75.92c-1.08.04-2.25.35-2.6.92-.33.52.6.88 2.05.8 1.45-.09 2.63-.51 2.63-.95 0-.56-.99-.81-2.08-.77zm-7.2 3.21c-.54 0-1.33.34-2.36 1-1.28.83-1.13 1.03.8 1.04 1.31 0 2.38-.46 2.38-1.04 0-.66-.28-1-.82-1zm8.29 11.58c-5.05 0-5.35.14-4.33 2.05 1.43 2.68-.07 3.6-5.69 3.46-3.83-.09-4.03.03-1.75.94 1.42.56 3.9.74 5.52.39 1.61-.36 3.7-.21 4.65.31 1.9 1.06 15.51-1.7 14.71-2.98-1.19-1.94-8.23-4.17-13.11-4.17zm789.01 0c-5.12 0-7.89 3.34-5.09 6.14 1.79 1.79 3.14 1.09 5.41-2.79 1.95-3.34 1.95-3.35-.32-3.35zm-759.39 4.74c-.19.03-.4.08-.62.16-.87.34-1.58.8-1.58 1.03 0 .22.71.41 1.58.41.88 0 1.59-.46 1.59-1.02 0-.43-.4-.64-.97-.58zm-7.87.54c-2.77 0-4.33 1.29-3.07 2.54 1.11 1.12 4.82.27 5.3-1.21.28-.83-.57-1.33-2.23-1.33zm-49.85.04c-.94.06-1.6.36-1.6.93 0 .54.6 1.21 1.32 1.51.73.29 2.75.55 4.5.58 3.01.05 3.07-.03 1.12-1.5-1.42-1.08-3.78-1.63-5.34-1.52zm865.89 1.21c-1.31-.07-2.28 1.3-2.28 4.17 0 1.75-.5 4.13-1.11 5.27-1.59 2.97-.54 5.32 4.88 10.89 3.83 3.94 5.24 4.77 7.29 4.26 1.4-.35 3.4-.15 4.46.45 2.39 1.35 3.22-.29 1.32-2.59-.8-.96-2.27-1.38-3.63-1.04-1.6.4-3.13-.32-5.17-2.44-2.82-2.95-2.85-3.11-1.27-6.9 1.47-3.51 1.46-4.21-.1-7.49-1.41-2.95-3.08-4.49-4.39-4.57v-.01zm-797.75 2.98c-.62 0-.83.48-.47 1.06.36.59.86 1.06 1.12 1.06.26 0 .47-.47.47-1.06 0-.58-.51-1.06-1.12-1.06zm4.75 0c-.25 0-.46.48-.46 1.06 0 .59.5 1.06 1.12 1.06.62 0 .82-.47.46-1.06-.35-.58-.86-1.06-1.12-1.06zm159.2 2.12c-.62 0-.83.48-.47 1.06.36.58.86 1.06 1.12 1.06.26 0 .47-.48.47-1.06 0-.58-.51-1.06-1.12-1.06zm-168.25.48c-.5-.07-.67.14-.39.59.36.58 1.1 1.05 1.64 1.05 1.52 0 1.19-.76-.64-1.47a3.4 3.4 0 00-.61-.17zm10.07 3.05c-.13.03-.27.08-.42.17-.58.36-1.05 1.13-1.05 1.71 0 .59.47.77 1.05.41.59-.36 1.06-1.13 1.06-1.71 0-.44-.27-.65-.64-.58zm168.82 4.93c-.58 0-1.06.48-1.06 1.06 0 .58.48 1.06 1.06 1.06.58 0 1.05-.48 1.05-1.06 0-.58-.47-1.06-1.05-1.06zm-165.66 3.54c-.12.02-.26.07-.41.16-.58.36-1.05.87-1.05 1.12 0 .26.47.47 1.05.47.59 0 1.06-.5 1.06-1.12 0-.46-.27-.69-.65-.63zm5.34 7.04c-.25 0-.46.47-.46 1.06 0 .58.5 1.06 1.12 1.06.62 0 .82-.48.46-1.06-.36-.59-.86-1.06-1.12-1.06zm784.55 1.52c-.11.02-.18.12-.18.28 0 .67.77 1.99 1.72 2.94.94.94 1.98 1.43 2.32 1.1.33-.34-.44-1.66-1.72-2.93-.95-.96-1.78-1.48-2.14-1.39zm-834.24.6c-.26 0-.47.47-.47 1.05 0 .59.51 1.06 1.12 1.06.62 0 .83-.47.47-1.06-.36-.58-.86-1.05-1.12-1.05zm5.16.22c-.21-.03-.34.12-.34.45 0 .6.32 1.41.71 1.79.38.39.95.46 1.25.16.3-.3-.02-1.11-.71-1.8-.38-.38-.69-.58-.91-.6zm846.61 3.09c-.16.03-.3.1-.41.21-.21.21.6 1.65 1.82 3.19 2.94 3.75 6.03 3.97 3.6.25-1.39-2.11-3.84-3.83-5.01-3.65zm-9.71 3.14c-1.74.18-2.69 2.33-1.39 3.9.96 1.16 1.43.97 2.51-1.02 1.12-2.07 1.07-2.52-.33-2.83a2.39 2.39 0 00-.79-.05zm8.75 3.07c-.55 0-.8.35-.57.79.24.44.76 1.7 1.15 2.8.39 1.1.92 1.79 1.18 1.54.78-.79-.7-5.13-1.76-5.13zm-20.48.73c-.61.12-1.87 1.35-4.24 4-2.59 2.89-4.71 5.63-4.71 6.08 0 1.91 2.6.56 5.94-3.09 1.97-2.15 3.56-4.89 3.53-6.08-.02-.66-.15-.98-.52-.91zm-794.06.32c-1.2 0-1.88.32-1.49.7.38.38.16 1.34-.49 2.12-.92 1.1-.71 1.41.94 1.41 1.24 0 2.36-.88 2.68-2.11.42-1.61.03-2.12-1.64-2.12zm809.13 2.53c-.3.02-.56.35-.94 1.02-.48.86-.56 2.38-.17 3.39.65 1.71.79 1.7 2.1-.09 1.07-1.46 1.1-2.26.17-3.39-.52-.63-.86-.94-1.16-.93zm12.13 2.59c-.11 0-.18.16-.18.49-.02 1.04-1.3 3.08-2.86 4.53-2.15 1.99-3.55 2.48-5.75 2-2.27-.5-3.16-.14-4.12 1.65-1.16 2.17-1.06 2.25 2.04 1.57 3.1-.68 3.37-.47 5.39 4.24 1.57 3.65 2.56 4.78 3.79 4.31.91-.35 2.16-.64 2.76-.64.65 0 .55-.66-.25-1.63-2.02-2.42.35-4.53 2.8-2.5 1.65 1.37 1.74 1.17 1.06-2.46-.79-4.19-3.89-11.57-4.68-11.56zm-198.48 1.91c-.29.14-.51.7-.85 1.61-.85 2.29-.18 10.91 1 12.83.65 1.06 4.85-.21 5.87-1.78 1.06-1.63.03-4.69-3.2-9.46-1.69-2.49-2.34-3.44-2.82-3.2zm237.83 7.09c-.12.02-.26.08-.41.17-.58.36-1.05 1.13-1.05 1.71 0 .58.47.76 1.05.4.58-.36 1.06-1.13 1.06-1.71 0-.44-.27-.65-.65-.57zm-76.12 5.98c-.69 0-2.5 1.63-4.01 3.62-1.52 1.99-4.38 4.15-6.37 4.8-2.42.8-4.03 2.24-4.92 4.38-.77 1.85-2.93 4.01-5.19 5.16-2.13 1.08-4.44 3.22-5.13 4.74-1.11 2.43-1.54 2.62-3.56 1.53-1.92-1.02-2.55-.9-3.76.76-.83 1.14-1.19 3.11-.83 4.63 1.3 5.52 3.72 13.27 4.54 14.53 1.04 1.58 11.49 3.71 14.12 2.87 1.04-.32 3.18.09 4.78.93 2.03 1.06 3.41 1.2 4.59.46 1.7-1.06 8.48-15.02 8.47-17.45 0-.71 1.18-2.07 2.63-3.02l2.63-1.73-2.12-2.96c-3.49-4.91-3.65-8.47-.56-12.62l2.71-3.64-3.39-3.5c-1.86-1.92-3.94-3.49-4.63-3.49zm-93.29 5.31c-2.15-.03 1 5.12 6.1 10.03 2.43 2.33 5.14 5.66 6.03 7.4.89 1.75 3.44 5.56 5.66 8.47 2.21 2.9 5.03 7.63 6.26 10.51 2.28 5.32 9.29 13.89 13.18 16.1 4.18 2.38 8.7-2.56 7.46-8.17-.37-1.71-2.07-4.66-3.78-6.55-1.7-1.89-4.16-4.62-5.47-6.08-1.3-1.45-2.4-3.12-2.43-3.7-.18-3.09-2.01-5.56-5.86-7.93-3.99-2.46-5.72-4.03-14.17-12.86-3.07-3.2-10.21-7.17-12.99-7.22h.01zm-382.73 8.8c-.13.03-.26.08-.41.17-.58.36-1.06.86-1.06 1.12 0 .26.48.47 1.06.47.58 0 1.06-.51 1.06-1.12 0-.46-.27-.7-.65-.64zm527.07 5.99c-1.93 0-4.32 3.74-3.37 5.29.35.55.15 1.9-.43 2.99-.73 1.37-.68 2.35.16 3.19 2.71 2.71 4.54-.34 2.86-4.75-.83-2.19-.68-3.21.72-4.76 1.62-1.78 1.62-1.96.06-1.96zm-15.16 4.38c-.41-.13-1.5.37-3.53 1.42-2.42 1.26-4.18 1.36-8.63.52-5.19-.99-5.77-.88-8.08 1.42-1.69 1.69-2.74 4.35-3.27 8.28-.43 3.18-1.59 6.92-2.56 8.31-1.61 2.3-1.62 2.77-.15 5.01.89 1.37 1.33 3.41.97 4.55-.35 1.13-.35 2.53.02 3.12.8 1.29 1.67 1.32 3.53.14 1.12-.7 1.17-1.77.28-5-.98-3.57-.86-4.36.94-6.16 2.05-2.06 2.08-2.04 3.69 1.8.88 2.12 2.56 4.37 3.73 5 1.86.99 2.12.8 2.12-1.6 0-1.51-.72-4.11-1.58-5.79-1.91-3.69-1.21-5.92 2.49-7.94 3.28-1.77 1.2-2.06-4.07-.54-3.07.88-3.99.73-5.65-.93-4.52-4.52 4.04-9.54 10.49-6.16 3.61 1.89 7.04.69 8.76-3.07.67-1.48.93-2.25.52-2.38h-.02zm-518.24 2.33c-.13.02-.27.07-.41.16-.58.36-1.06.87-1.06 1.12 0 .26.48.47 1.06.47.58 0 1.06-.5 1.06-1.12 0-.46-.27-.7-.65-.63zm552.44 8.14c-1.28.02-3.4.63-4.72 1.36-2.33 1.3-2.26 1.4 2.62 3.77 4.6 2.23 4.86 2.55 3.1 3.84-2.97 2.17-1.34 5.8 2.59 5.8 1.72 0 6.81 1.85 11.31 4.11 6.55 3.3 8.55 4.88 10 7.92 1.81 3.79 1.81 3.82-.88 5.58-2.33 1.53-2.47 1.91-1.02 2.72.93.52 2.68.64 3.88.25 1.19-.37 2.37-.09 3.75.9v-28.79c-.18-.08-.41-.17-.58-.25l-6.76-3.05-4.87 2.79c-2.69 1.54-5.64 3.74-6.56 4.9-1.66 2.06-1.71 2.05-3.96-.81-1.26-1.6-2.29-3.69-2.29-4.65 0-2.86-3.13-6.43-5.61-6.39zm-19.37 10.53c-2.1 0-1.8 1.88.39 2.45 2.71.71 3.74.67 6.03-.23 1.75-.68 1.53-.92-1.45-1.51-1.94-.39-4.17-.71-4.97-.71zM825.86 613.1c-.58 0-1.05.48-1.05 1.06 0 .58.47 1.06 1.05 1.06a1.06 1.06 0 000-2.12zm223.26 5.73c-3 .08-5.37.99-5.37 2.68 0 1.49 10.31 4.51 12.73 3.75 1.2-.39 4.42.04 7.16.93 2.73.9 8.06 2.06 11.84 2.59 3.78.52 7.45 1.02 8.14 1.1.7.08 1.51-.25 1.81-.74.53-.86-5.82-4.4-7.91-4.4-.58 0-2.38-.98-3.99-2.17-2.59-1.91-3.51-2.03-7.91-1.05-3.98.9-5.47.81-7.35-.4-2.52-1.62-6.15-2.37-9.15-2.29zm60.15 9.49c-1.69.08-2.11.9-.91 2.35.89 1.07 2.38 1.31 5.08.82 5.2-.94 5.22-1.15.2-2.5-1.87-.5-3.35-.72-4.37-.67zm-13.14.67c-1.9-.02-3.79.29-4.2.94-.33.54 0 1.22.73 1.53.73.31 2.28.36 3.45.11 1.16-.25 2.74-.46 3.5-.47.76 0 1.09-.49.73-1.07-.41-.67-2.31-1.02-4.21-1.04zm35.59.33c-3.29.11-6.49 1.92-8.74 5.08-2.77 3.88-1.25 3.84 5.03-.14 2.75-1.75 6.22-3.22 7.7-3.28 2.51-.11 2.47-.19-.7-1.2-1.08-.35-2.19-.5-3.29-.46zm-27.68 4.99c-.92.02-.48.64 1.06 1.48 1.45.81 2.86 1.24 3.14.97.71-.72-2.31-2.48-4.2-2.45zm60.31 11.01c-1.59-.07-2.87.38-5.01 1.45-2.19 1.1-5.18 2.29-6.63 2.65-2.71.67-8.25 7.62-7.04 8.83.37.37.16 1.3-.48 2.07-1.31 1.58-4.06.55-7.94-2.97-2.1-1.91-2.48-1.93-6.34-.38-2.32.93-5.2 3.24-6.6 5.3-1.37 2.01-3.39 3.94-4.48 4.28-1.25.4-1.89 1.47-1.74 2.94.24 2.29-.37 2.53-3.46 1.34-1.1-.43-2.38.9-4.23 4.39-2.98 5.65-8.4 9.81-12.77 9.81-1.61 0-8.2 2.23-14.64 4.96-11.34 4.8-11.75 5.09-13.43 9.48-.95 2.5-1.46 5.56-1.14 6.81.33 1.25.1 6.53-.52 11.73-.81 6.88-.79 11.12.09 15.59 1.06 5.41.97 6.71-.83 10.89-1.12 2.62-2.79 5.05-3.71 5.4-2.54.97-.9 3.64 3.02 4.94 2.93.96 4.57.74 10.35-1.44 3.78-1.42 10.14-2.93 14.14-3.35 4.09-.43 9.4-1.83 12.11-3.19 5.98-3.01 15.12-5.34 24.58-6.28 6.46-.64 7.6-.47 10.96 1.75 2.24 1.47 4.73 4.53 6.17 7.57 1.33 2.8 2.59 4.61 2.79 4.02.21-.58 2.52-2.5 5.14-4.25 6.07-4.06 7.86-2.64 3.26 2.59-1.86 2.13-3.09 4.17-2.72 4.54.37.37 1.14-.15 1.71-1.16 1.38-2.47 3.04-2.34 3.04.22 0 1.14.52 3.22 1.16 4.63.87 1.91.84 3.17-.12 4.97-1.13 2.11-.98 2.66 1.21 4.35 4.11 3.18 9.23 4.23 11.96 2.44 2.14-1.4 2.55-1.31 4.78 1.06l2.44 2.6 3.71-2.84c2.61-1.99 5.05-2.85 8.24-2.91 1.39-.03 2.39-.12 3.27-.39V667.78c-.13.18-.21.34-.34.52-1.97 2.72-4.16 5.13-4.84 5.36-.69.23-4.92-2.16-9.4-5.31-9.7-6.83-10.75-9.17-6.79-15.15 3.07-4.65 2.79-5.01-5.47-7.23-1.44-.38-2.51-.61-3.46-.65zm-369.5 2.67l-1.68 3.63c-2.19 4.74-11.35 12.83-15.59 13.76-4.49.98-6.13 5.05-5.17 12.78.67 5.35.45 6.3-2.58 11.23-2.99 4.85-3.25 5.94-2.62 10.93.78 6.24 1.2 7.14 4.19 8.83 2.63 1.49 2.17 1.49 6.92.06 4.45-1.33 6-4.02 8.72-15.19.85-3.49 3.78-12.53 6.51-20.09 5.1-14.12 5.4-16.94 2.47-23.38l-1.17-2.56zm-21.93 1.08c-.62 0-.83.47-.47 1.05.36.58.86 1.06 1.12 1.06.26 0 .47-.48.47-1.06 0-.58-.51-1.05-1.12-1.05zm56.53 35.26c-.13.03-.27.08-.41.17-.58.36-1.06.86-1.06 1.12 0 .25.48.47 1.06.47.58 0 1.06-.51 1.06-1.12 0-.47-.27-.7-.65-.63v-.01zm-7.81 3.87c-.58 0-1.06.48-1.06 1.06 0 .58.48 1.06 1.06 1.06.58 0 1.06-.48 1.06-1.06 0-.58-.48-1.06-1.06-1.06zm346.98 96.6c-.97-.11-1.1.59-1.1 2.83 0 1.82-.53 4.29-1.17 5.49-.9 1.68-.84 2.39.26 3.09 1.93 1.23 1.73 1.28 6.74-1.66 4.21-2.47 8.9-7.8 7.14-8.13-.45-.09-2.48-.22-4.52-.3-2.03-.07-4.77-.51-6.07-.97-.54-.19-.96-.32-1.28-.35zm-811.97 47.1c-2.68-.02-3.57.37-3.05 1.21.36.58.03 1.07-.73 1.09-.78.02-.5.54.64 1.2 1.59.93 2.28.81 3.28-.56.7-.95 1.67-1.73 2.16-1.73.49 0 .32.57-.38 1.27-.7.7-1.27 1.65-1.27 2.11 0 1.46 2.21.93 4.89-1.18 2.88-2.27 2.41-2.95-2.25-3.27-1.3-.09-2.39-.14-3.29-.14zm-29.68 7.55c-.8 0-1.94 1.27-2.53 2.83-1.27 3.35.23 5.32 5.6 7.33 1.9.71 4.83 1.1 6.5.86 1.67-.24 4.77-.48 6.88-.53l3.83-.08-3.12-1.13c-1.71-.63-5.95-2.97-9.41-5.21-3.47-2.24-6.96-4.07-7.75-4.07z" fill="#f3f4a8" stroke-linecap="butt" stroke-width=".896"/></g><g id="shape4-8" transform="translate(264.306 -659.925)"><path class="st4" d="M0 720.959h625.581v129.752H0z"/><text x="18.2" y="818.27" fill="#000" font-family="Merriweather" font-size="9.011em">Sociologist</text></g><g id="shape5-11" transform="translate(214.771 -454.818)"><path d="M0 787.08l52.84-44.55v23.7c105.84-2.42 210.63 12.65 291.36 84.48-57.87-39.42-129.92-69.61-291.36-40.4v25.12L0 787.08z" class="st6"/></g><g id="shape6-13" transform="translate(626.881 -419.388)"><path d="M0 833.2l28.06-84.93 16.83 26.61c86.79-50.11 154.93 2.17 193.34 73.42-42.76-59.51-105.74-57.38-164.25-24.79l16.16 27.2L0 833.2z" class="st6"/></g><g id="shape7-15" transform="translate(874.604 -398.327)"><path d="M0 828.36l25.13-26.75 1.07 13.34c39.25-4.36 47.84-26.33 49.14-43.17 3.68 35.91-9.78 59.53-47.19 65.97l.81 12.96L0 828.36z" class="st6"/></g><g id="shape8-17" transform="translate(948.3 -455.881)"><path d="M89.67 820.13l-32.48-17.09 3.34 12.97C22.01 824.68 6.72 806.72 0 791.22c8.23 35.15 28.66 53.09 66.12 46.98l3.46 12.51 20.09-30.58z" class="st6"/></g><g id="shape9-19" transform="translate(588.879 -333.125)"><path d="M0 841.55l12.58-34.48 6.24 11.85c34.36-19.45 33.63-43.02 28.19-59.02 17.51 31.57 14.43 58.58-17.43 79.21l5.84 11.6L0 841.55z" class="st6"/></g><g id="shape10-21" transform="translate(366.746 -224.391)"><path d="M0 827.87l27.62-35.56 3.26 15.87c108.4 2.59 158.53-26.56 194.82-58.6-47.35 61.45-142.12 81.8-189.09 85.69l2.87 15.44L0 827.87z" class="st6"/></g><g id="shape11-23" transform="translate(111.116 -133.766)"><path class="st7" d="M0 792.89h155.527v57.821H0z"/></g><g id="shape12-25" transform="translate(95.476 -194.137)"><path class="st7" d="M0 792.89h186.807v57.821H0z"/></g><g id="shape13-27" transform="translate(104.852 -197.117)"><path class="st4" d="M0 796.647h166.245v54.063H0z"/><text x="5.67" y="837.2" class="st8">Popular</text></g><g id="shape14-30" transform="translate(114.757 -137.187)"><path class="st4" d="M0 796.647h146.18v54.063H0z"/><text x="6.21" y="837.2" class="st8">beliefs</text></g><g id="shape15-33" transform="translate(877.037 -243.47)"><path class="st7" d="M0 792.89h186.807v57.821H0z"/></g><g id="shape16-35" transform="translate(884.159 -246.638)"><path class="st4" d="M0 796.647h169.938v54.063H0z"/><text x="1.69" y="837.2" class="st8">Growing</text></g><g id="shape17-38" transform="translate(872.284 -183.775)"><path d="M0 792.89h196.29v57.82H0v-57.82z" class="st7"/></g><g id="shape18-40" transform="translate(876.983 -184.5)"><path class="st4" d="M0 796.647h186.113v54.063H0z"/><text x=".98" y="837.2" class="st8">locations</text></g><g id="shape19-43" transform="translate(836.152 -80.83)"><path class="st7" d="M0 792.89h268.583v57.821H0z"/></g><g id="shape20-45" transform="translate(847.097 -81)"><path class="st4" d="M0 796.647h251.514v54.063H0z"/><text x="4.93" y="837.2" class="st8">Medical use</text></g></g></svg>