<svg xmlns="http://www.w3.org/2000/svg" viewBox="0 0 1195 845" color-interpolation-filters="sRGB" fill="none" fill-rule="evenodd" font-size="12" overflow="visible" stroke-linecap="square" stroke-miterlimit="3"><style>.st4,.st5,.st6,.st7,.st8{fill:#ddcaa9;stroke:none;stroke-linecap:round;stroke-linejoin:round;stroke-width:.75}.st5,.st6,.st7,.st8{fill:#c5ae8c}.st6,.st7,.st8{fill:#b69d7e}.st7,.st8{fill:#fff}.st8{fill:#dedede}.st9{fill:#ededed}.st10,.st13,.st15,.st9{stroke:none;stroke-linecap:round;stroke-linejoin:round;stroke-width:.75}.st13,.st15{fill:#f2e2c1}.st15{fill:#000}.st16{fill:#000;font-family:Roboto;font-size:3.85991em}.st18{fill:#f9f9f9;stroke:#f9f9f9;stroke-linecap:round;stroke-linejoin:round;stroke-width:3.31053}</style><g id="group120-1"><g id="shape4-2"><path d="M0 0v845.32h1192.52V0H0z" fill="#da9e24" stroke-linecap="round" stroke-linejoin="round" stroke-width=".75"/></g><g id="shape5-4" transform="translate(2.095)"><path d="M0 0l1192.52 845.32H0V0z" fill="#c78922" stroke-linecap="round" stroke-linejoin="round" stroke-width=".75"/></g><g id="shape6-6" transform="translate(484.254 -535.356)"><path d="M6.63 822.37h234.98l6 22.95H0l6.63-22.95z" fill="#d5bd97" stroke-linecap="round" stroke-linejoin="round" stroke-width=".75"/></g><g id="shape7-8" transform="translate(484.254 -277.086)"><path d="M0 587.05l24.43 258.27h205.79l17.39-258.27H0z" class="st4"/></g><g id="shape8-10" transform="translate(543.88 -453.264)"><path d="M0 811.2c28.57 2.28 55.69 1.04 87.58 10.75 13.87-5.37 26.5-12.61 37.68-24.19-10.36 16.96-17.19 36.39-34.99 47.56L0 811.2z" class="st5"/></g><g id="shape9-12" transform="translate(568.932 -380.684)"><path d="M79.92 841.6c0 2.07-16.57 3.72-37.27 3.72 0 0-42.65-1.65-42.65-3.72 0-2.07 42.65-3.72 42.65-3.72 20.7 0 37.27 1.65 37.27 3.72z" class="st5"/></g><g id="shape10-14" transform="translate(576.178 -358.765)"><path d="M79.09 841.39c0 2.07-2.28 3.93-22.98 3.93 0 0-56.11-1.86-56.11-3.93 0-2.07 56.11-3.72 56.11-3.72 20.7 0 22.98 1.65 22.98 3.72z" class="st5"/></g><g id="shape11-16" transform="translate(576.178 -301.486)"><path d="M73.91 841.8c0 1.87-2.28 3.52-21.53 3.52 0 0-52.38-1.65-52.38-3.52 0-2.06 52.38-3.72 52.38-3.72 19.25 0 21.53 1.66 21.53 3.72z" class="st5"/></g><g id="shape12-18" transform="translate(688.391 -590.359)"><path d="M6.63 822.37h234.98l6.21 22.95H0l6.63-22.95z" class="st5"/></g><g id="shape13-20" transform="translate(688.391 -332.09)"><path d="M0 587.05l24.64 258.27h205.79l17.18-258.27H0z" class="st4"/></g><g id="shape14-22" transform="translate(747.81 -508.267)"><path d="M125.26 811.2c-28.57 2.28-55.7 1.04-87.58 10.75-13.66-5.37-26.5-12.61-37.68-24.19 10.35 16.96 17.18 36.39 34.99 47.56l90.27-34.12z" class="st5"/></g><g id="shape15-24" transform="translate(773.068 -435.687)"><path d="M80.12 841.6c0 2.07-16.77 3.72-37.47 3.72 0 0-42.65-1.65-42.65-3.72 0-2.07 42.65-3.72 42.65-3.72 20.7 0 37.47 1.65 37.47 3.72z" class="st5"/></g><g id="shape16-26" transform="translate(780.314 -413.768)"><path d="M79.09 841.39c0 2.28-2.28 3.93-22.98 3.93 0 0-56.11-1.65-56.11-3.93 0-2.07 56.11-3.72 56.11-3.72 20.7 0 22.98 1.65 22.98 3.72z" class="st5"/></g><g id="shape17-28" transform="translate(780.314 -356.49)"><path d="M73.91 841.8c0 1.87-2.07 3.52-21.53 3.52 0 0-52.38-1.65-52.38-3.52 0-2.06 52.38-3.72 52.38-3.72 19.46 0 21.53 1.66 21.53 3.72z" class="st5"/></g><g id="shape18-30" transform="translate(643.464 -374.48)"><path d="M272.25 816.78c0-15.92-61.07-28.74-136.23-28.74C60.87 788.04 0 800.86 0 816.78c0 15.72 60.87 28.54 136.02 28.54 75.16 0 136.23-12.82 136.23-28.54z" class="st6"/></g><g id="shape19-32" transform="translate(643.464 -316.581)"><path d="M0 755.16l2.07 77.34 60.87 12.82c53.83-9.93 102.48-9.1 149.06-3.72l59.01-9.93 1.24-76.3C245.54 794.04 20.5 800.86 0 755.16z" class="st5"/></g><g id="shape20-34" transform="translate(640.359 -153.018)"><path d="M273.91 668.11l5.59 44.66.83 63.49c2.89 14.26 4.34 29.36 17.59 38.46-50.72 23.57-97.72 29.15-144.09 30.6L0 823.61l9.52-124.07 6.01-27.92-10.35-2.68 268.73-.83z" class="st4"/></g><g id="shape21-36" transform="translate(655.472 -286.289)"><path d="M0 839.63l113.25-3.72c34.16 2.28 22.77 10.55-2.07 9.31L0 839.63z" class="st5"/></g><g id="shape22-38" transform="translate(696.672 -253.881)"><path d="M0 842.38l125.88-1.86c37.88 1.03 25.46 5.37-2.28 4.75L0 842.38z" class="st5"/></g><g id="shape23-40" transform="translate(680.938 -183.934)"><path d="M0 842.32l100.2-1.86c30.02 1.24 20.09 5.59-1.86 4.76L0 842.32z" class="st5"/></g><g id="shape24-42" transform="translate(744.704 -231.45)"><path d="M0 837.53l88.82-5.17c26.71 3.1 18.01 14.47-1.66 12.82L0 837.53z" class="st5"/></g><g id="shape25-44" transform="translate(651.332 -374.945)"><path d="M0 824.07c8.49-6.41 13.25-15.51 16.56-25.64 3.94-4.96 13.87-7.44 23.81-9.92l6.21-11.38 3.73 1.04c22.36-1.45 40.79-9.93 54.45-26.47 10.35-6 32.5 9.1 48.86 13.65l31.26-21.71 51.97 36.8 2.48 35.57 8.08 11.78C190.26 851.16 48.45 853.23 0 824.07z" class="st7"/></g><g id="shape26-46" transform="translate(703.918 -418.524)"><path d="M25.67 842.84c0 1.45-5.79 2.48-12.83 2.48S0 844.29 0 842.84c0-1.24 5.8-2.28 12.84-2.28s12.83 1.04 12.83 2.28z" class="st8"/></g><g id="shape27-48" transform="translate(743.462 -435.48)"><path d="M25.67 843.05c0 1.24-5.79 2.27-12.83 2.27S0 844.29 0 843.05c0-1.45 5.8-2.49 12.84-2.49s12.83 1.04 12.83 2.49z" class="st8"/></g><g id="shape28-50" transform="translate(758.162 -422.867)"><path d="M25.67 842.84c0 1.45-5.79 2.48-12.83 2.48S0 844.29 0 842.84c0-1.24 5.8-2.28 12.84-2.28s12.83 1.04 12.83 2.28z" class="st8"/></g><g id="shape29-52" transform="translate(745.532 -398.053)"><path d="M25.67 843.05c0 1.24-5.79 2.27-12.83 2.27S0 844.29 0 843.05c0-1.25 5.8-2.28 12.84-2.28s12.83 1.03 12.83 2.28z" class="st8"/></g><g id="shape30-54" transform="translate(706.61 -397.64)"><path d="M25.67 843.05c0 1.24-5.79 2.27-12.83 2.27S0 844.29 0 843.05c0-1.45 5.8-2.49 12.84-2.49s12.83 1.04 12.83 2.49z" class="st8"/></g><g id="shape31-56" transform="translate(772.447 -383.992)"><path d="M25.47 843.05c0 1.24-5.59 2.27-12.84 2.27-7.04 0-12.63-1.03-12.63-2.27 0-1.25 5.59-2.49 12.63-2.49 7.25 0 12.84 1.24 12.84 2.49z" class="st8"/></g><g id="shape32-58" transform="translate(825.862 -398.053)"><path d="M25.67 842.84c0 1.45-5.79 2.48-12.83 2.48S0 844.29 0 842.84c0-1.24 5.8-2.28 12.84-2.28s12.83 1.04 12.83 2.28z" class="st8"/></g><g id="shape33-60" transform="translate(814.682 -422.246)"><path d="M25.67 842.84c0 1.45-5.79 2.48-12.83 2.48S0 844.29 0 842.84c0-1.24 5.8-2.28 12.84-2.28s12.83 1.04 12.83 2.28z" class="st8"/></g><g id="shape34-62" transform="translate(843.874 -440.65)"><path d="M25.67 842.84c0 1.45-5.79 2.48-12.83 2.48S0 844.29 0 842.84c0-1.24 5.8-2.28 12.84-2.28s12.83 1.04 12.83 2.28z" class="st8"/></g><g id="shape35-64" transform="translate(829.589 -431.276)"><path d="M25.26 844.22c0 1.24-6.01 1.44-12.84.62-7.04-.83-12.63-2.69-12.42-3.93 0-1.24 6-1.66 12.84-.83 7.04 1.04 12.63 2.69 12.42 4.14z" class="st9"/></g><g id="shape36-66" transform="translate(854.847 -407.343)"><path d="M25.47 844.06c-.21 1.24-6.01 1.66-13.05.83C5.38 843.86 0 842.2 0 840.96c.21-1.45 6-1.65 13.04-.82 7.04.82 12.63 2.68 12.43 3.92z" class="st9"/></g><g id="shape37-68" transform="translate(860.437 -435.258)"><path d="M25.26 844.06c-.21 1.24-6.01 1.66-13.04.83C5.38 843.86-.21 842.2 0 840.76c0-1.25 5.8-1.45 12.84-.62 7.04.82 12.63 2.68 12.42 3.92z" class="st9"/></g><g id="shape38-70" transform="translate(766.443 -449.48)"><path d="M25.47 844.02c-.21 1.45-6.01 1.65-13.05.83-7.04-.83-12.63-2.69-12.42-3.93.21-1.45 6-1.66 13.04-.83 7.04.83 12.63 2.69 12.43 3.93z" class="st9"/></g><g id="shape39-72" transform="translate(730.626 -441.875)"><path d="M25.47 844.06c-.21 1.24-6.01 1.66-13.05.83C5.38 843.86-.21 842.2 0 840.76c.21-1.25 6-1.45 13.04-.62 7.04.82 12.63 2.68 12.43 3.92z" class="st9"/></g><g id="shape40-74" transform="translate(708.887 -430.043)"><path d="M25.47 844.02c-.21 1.45-6.01 1.65-13.05.83-7.04-.83-12.63-2.69-12.42-3.93.21-1.45 6-1.66 13.04-.83 6.84.83 12.43 2.69 12.43 3.93z" class="st9"/></g><g id="shape41-76" transform="translate(788.182 -419.911)"><path d="M25.26 844.02c-.21 1.45-6.01 1.65-13.04.83-6.84-.83-12.43-2.69-12.22-3.93 0-1.24 5.8-1.66 12.84-.83 7.04 1.03 12.63 2.69 12.42 3.93z" class="st9"/></g><g id="shape42-78" transform="translate(769.548 -432.631)"><path d="M25.47 844.13c-.21 1.24-6.01 1.65-13.05.62C5.38 843.92 0 842.06 0 840.82c.21-1.24 6-1.66 13.04-.83 7.04 1.03 12.63 2.69 12.43 4.14z" class="st9"/></g><g id="shape43-80" transform="translate(817.581 -439.042)"><path d="M25.47 844.13c-.21 1.24-6.01 1.65-13.05.62-7.04-.83-12.63-2.69-12.42-3.93.21-1.24 6-1.66 13.04-.62 7.04.82 12.43 2.48 12.43 3.93z" class="st9"/></g><g id="shape44-82" transform="translate(762.923 -392.662)"><path d="M25.26 844.06c0 1.24-5.8 1.66-12.84.83C5.38 843.86-.21 842.2 0 840.96c.21-1.45 6-1.65 13.04-.82 6.84.82 12.43 2.68 12.22 3.92z" class="st9"/></g><g id="shape45-84" transform="translate(747.189 -386.045)"><path d="M25.26 844.06c0 1.24-6.01 1.66-12.84.83C5.38 843.86-.21 842.2 0 840.96c0-1.45 6-1.65 12.84-.82 7.04.82 12.63 2.68 12.42 3.92z" class="st9"/></g><g id="shape46-86" transform="translate(724.622 -404.034)"><path d="M25.47 844.06c-.21 1.24-6.01 1.66-13.05.83C5.38 843.86-.21 842.2 0 840.96c.21-1.45 6-1.65 13.04-.82 7.04.82 12.43 2.68 12.43 3.92z" class="st9"/></g><g id="shape47-88" transform="translate(722.759 -413.5)"><path d="M25.47 844.02c-.21 1.45-6.01 1.65-13.05.83-7.04-.83-12.63-2.69-12.42-3.93.21-1.45 6-1.66 13.04-.83 7.04.83 12.63 2.69 12.43 3.93z" class="st9"/></g><g id="shape48-90" transform="translate(687.77 -407.818)"><path d="M25.26 844.13c0 1.24-6.01 1.65-12.84.62-7.04-.83-12.63-2.49-12.42-3.93 0-1.24 6-1.66 12.84-.62 7.04.82 12.63 2.68 12.42 3.93z" class="st9"/></g><g id="shape49-92" transform="translate(693.567 -427.194)"><path d="M25.47 844.06c-.21 1.24-6.01 1.66-13.05.83C5.38 843.86-.21 842.2 0 840.76c.21-1.25 6-1.66 13.04-.62 7.04.82 12.43 2.68 12.43 3.92z" class="st9"/></g><g id="shape50-94" transform="translate(707.231 -384.39)"><path d="M25.47 844.06c-.21 1.24-6.01 1.66-13.05.83C5.38 843.86-.21 842.2 0 840.96c.21-1.45 6-1.65 13.04-.82 7.04.82 12.63 2.68 12.43 3.92z" class="st9"/></g><g id="shape51-96" transform="translate(843.874 -392.662)"><path d="M25.47 844.06c-.21 1.24-6.01 1.66-13.05.83C5.38 843.86-.21 842.2 0 840.96c.21-1.45 6-1.65 13.04-.82 7.04.82 12.63 2.68 12.43 3.92z" class="st9"/></g><g id="shape52-98" transform="translate(858.78 -426.987)"><path d="M25.47 844.06c-.21 1.24-6.01 1.66-13.05.83C5.38 843.86-.21 842.2 0 840.96c.21-1.45 6-1.65 13.04-.82 7.04.82 12.43 2.68 12.43 3.92z" class="st9"/></g><g id="shape53-100" transform="translate(422.144 -226.218)"><path d="M260.04 819.68c0-14.27-58.18-25.64-130.02-25.64S0 805.41 0 819.68c0 14.06 58.18 25.64 130.02 25.64s130.02-11.58 130.02-25.64z" class="st6"/></g><g id="shape54-102" transform="translate(421.937 -174.73)"><path d="M0 764.88l2.07 69.07 58.18 11.37c51.34-8.89 97.92-8.06 142.44-3.31l56.1-8.89 1.45-68.03C234.57 799.62 19.67 805.62 0 764.88z" class="st5"/></g><g id="shape55-104" transform="translate(419.038 -111.455)"><path d="M261.9 769.85l5.17 19.23.83 26.88c2.9 5.99 4.14 12.4 16.77 16.33-48.44 10.14-93.37 12.41-137.47 13.03L0 836.22l9.11-52.93 6-11.79-10.14-1.24c89.23-12.41 168.11-6.62 256.93-.41z" class="st4"/></g><g id="shape56-106" transform="translate(540.334 -167.836)"><path d="M128.6 840.29l-108.08-3.31c-32.71 1.86-21.94 9.3 1.87 8.27l106.21-4.96z" class="st5"/></g><g id="shape57-108" transform="translate(429.597 -226.759)"><path d="M0 826.22c8.07-5.59 12.63-13.65 15.94-22.75 3.52-4.55 13.04-6.62 22.57-8.89l6-10.13 3.52.82c21.53-1.24 39.13-8.89 51.97-23.78 9.94-5.17 31.26 8.28 46.79 12.41l29.81-19.44 49.69 32.88 2.28 31.64 7.66 10.75C181.98 850.62 46.38 852.27 0 826.22z" class="st7"/></g><g id="shape58-110" transform="translate(479.907 -265.713)"><path d="M24.43 843.25c0 1.04-5.38 2.07-12.21 2.07-6.63 0-12.22-1.03-12.22-2.07 0-1.24 5.59-2.27 12.22-2.27 6.83 0 12.21 1.03 12.21 2.27z" class="st8"/></g><g id="shape59-112" transform="translate(517.794 -280.808)"><path d="M24.43 843.25c0 1.04-5.38 2.07-12.21 2.07-6.84 0-12.22-1.03-12.22-2.07 0-1.24 5.38-2.27 12.22-2.27 6.83 0 12.21 1.03 12.21 2.27z" class="st8"/></g><g id="shape60-114" transform="translate(531.665 -269.642)"><path d="M24.43 843.25c0 1.24-5.38 2.07-12.21 2.07-6.63 0-12.22-.83-12.22-2.07 0-1.24 5.59-2.07 12.22-2.07 6.83 0 12.21.83 12.21 2.07z" class="st8"/></g><g id="shape61-116" transform="translate(519.864 -247.31)"><path d="M24.43 843.25c0 1.24-5.59 2.07-12.21 2.07-6.84 0-12.22-.83-12.22-2.07 0-1.24 5.38-2.07 12.22-2.07 6.62 0 12.21.83 12.21 2.07z" class="st8"/></g><g id="shape62-118" transform="translate(482.391 -247.103)"><path d="M24.43 843.25c0 1.24-5.38 2.07-12.21 2.07-6.63 0-12.22-.83-12.22-2.07 0-1.24 5.59-2.07 12.22-2.07 6.83 0 12.21.83 12.21 2.07z" class="st8"/></g><g id="shape63-120" transform="translate(545.33 -234.696)"><path d="M24.43 843.25c0 1.04-5.59 2.07-12.21 2.07-6.84 0-12.22-1.03-12.22-2.07 0-1.24 5.38-2.07 12.22-2.07 6.62 0 12.21.83 12.21 2.07z" class="st8"/></g><g id="shape64-122" transform="translate(596.26 -247.517)"><path d="M24.64 843.25c0 1.04-5.59 2.07-12.42 2.07-6.63 0-12.22-1.03-12.22-2.07 0-1.24 5.59-2.07 12.22-2.07 6.83 0 12.42.83 12.42 2.07z" class="st8"/></g><g id="shape65-124" transform="translate(585.702 -269.022)"><path d="M24.43 843.25c0 1.04-5.38 2.07-12.21 2.07-6.63 0-12.22-1.03-12.22-2.07 0-1.24 5.59-2.27 12.22-2.27 6.83 0 12.21 1.03 12.21 2.27z" class="st8"/></g><g id="shape66-126" transform="translate(613.651 -285.564)"><path d="M24.43 843.25c0 1.24-5.38 2.07-12.21 2.07-6.63 0-12.22-.83-12.22-2.07 0-1.24 5.59-2.07 12.22-2.07 6.83 0 12.21.83 12.21 2.07z" class="st8"/></g><g id="shape67-128" transform="translate(599.981 -277.063)"><path d="M24.23 844.26c-.21 1.04-5.8 1.45-12.42.62-6.84-.82-12.01-2.48-11.8-3.51 0-1.24 5.59-1.45 12.42-.62 6.62.62 12.01 2.27 11.8 3.51z" class="st9"/></g><g id="shape68-130" transform="translate(624.204 -255.719)"><path d="M24.23 844.22c0 1.24-5.59 1.44-12.42.62-6.63-.83-12.01-2.28-11.8-3.52.2-1.24 5.79-1.45 12.42-.62 6.62.83 12.01 2.28 11.8 3.52z" class="st9"/></g><g id="shape69-132" transform="translate(629.38 -280.678)"><path d="M24.23 844.16c0 1.24-5.59 1.44-12.42.82-6.63-.82-12.01-2.48-11.8-3.72.2-1.03 5.79-1.45 12.42-.62 6.62.83 12.01 2.48 11.8 3.52z" class="st9"/></g><g id="shape70-134" transform="translate(539.74 -293.353)"><path d="M24.43 844.22c-.21 1.24-5.8 1.44-12.42.62C5.18 844.01 0 842.56 0 841.32c.21-1.24 5.8-1.45 12.42-.62 6.83.83 12.01 2.28 12.01 3.52z" class="st9"/></g><g id="shape71-136" transform="translate(505.366 -286.575)"><path d="M24.23 844.26c-.21 1.04-5.59 1.45-12.42.62-6.63-.82-12.01-2.48-11.8-3.51.2-1.24 5.79-1.45 12.42-.62 6.62.62 12.01 2.27 11.8 3.51z" class="st9"/></g><g id="shape72-138" transform="translate(484.663 -275.984)"><path d="M24.23 844.22c-.21 1.24-5.59 1.44-12.42.62-6.63-.83-12.01-2.28-11.8-3.52.2-1.24 5.79-1.45 12.42-.62 6.62.83 12.01 2.28 11.8 3.52z" class="st9"/></g><g id="shape73-140" transform="translate(560.23 -266.931)"><path d="M24.23 844.26c0 1.04-5.59 1.45-12.42.62-6.63-.82-12.01-2.27-11.8-3.51.2-1.24 5.79-1.45 12.42-.62 6.83.83 12.01 2.27 11.8 3.51z" class="st9"/></g><g id="shape74-142" transform="translate(542.638 -278.304)"><path d="M24.43 844.26c-.21 1.04-5.8 1.45-12.42.62C5.18 844.06 0 842.4 0 841.37c.21-1.24 5.8-1.45 12.42-.62 6.83.62 12.01 2.27 12.01 3.51z" class="st9"/></g><g id="shape75-144" transform="translate(588.387 -284.048)"><path d="M24.23 844.22c0 1.24-5.59 1.44-12.42.62-6.63-.83-12.01-2.28-11.8-3.52.2-1.24 5.79-1.45 12.42-.62 6.83.83 12.01 2.28 11.8 3.52z" class="st9"/></g><g id="shape76-146" transform="translate(536.214 -242.692)"><path d="M24.23 844.22c-.21 1.24-5.59 1.44-12.42.62-6.63-.83-12.01-2.28-11.8-3.52.2-1.03 5.79-1.45 12.42-.62 6.62.83 12.01 2.28 11.8 3.52z" class="st9"/></g><g id="shape77-148" transform="translate(521.107 -236.634)"><path d="M24.22 844.16c0 1.24-5.59 1.44-12.42.82-6.62-.82-12.01-2.48-11.8-3.51v-.21c.21-1.03 5.8-1.45 12.42-.62 6.63.83 12.01 2.48 11.8 3.52z" class="st9"/></g><g id="shape78-150" transform="translate(499.776 -252.824)"><path d="M24.23 844.22c-.21 1.24-5.8 1.44-12.42.62-6.63-.83-12.01-2.28-11.8-3.52 0-1.03 5.59-1.45 12.42-.62 6.62.83 12.01 2.28 11.8 3.52z" class="st9"/></g><g id="shape79-152" transform="translate(497.913 -261.141)"><path d="M24.23 844.26c0 1.04-5.59 1.45-12.42.62-6.63-.82-12.01-2.48-11.8-3.51.2-1.24 5.79-1.45 12.42-.83 6.62.83 12.01 2.48 11.8 3.72z" class="st9"/></g><g id="shape80-154" transform="translate(464.379 -256.178)"><path d="M24.22 844.26c0 1.04-5.59 1.45-12.42.62-6.62-.82-12.01-2.48-11.8-3.51.21-1.24 5.8-1.45 12.42-.62 6.63.62 12.01 2.27 11.8 3.51z" class="st9"/></g><g id="shape81-156" transform="translate(469.963 -273.502)"><path d="M24.23 844.22c0 1.24-5.59 1.44-12.42.62-6.63-.62-12.01-2.28-11.8-3.52.2-1.03 5.79-1.45 12.42-.62 6.83.83 12.01 2.48 11.8 3.52z" class="st9"/></g><g id="shape82-158" transform="translate(483.012 -235.248)"><path d="M24.43 844.22c-.21 1.24-5.8 1.44-12.42.62C5.18 844.01 0 842.56 0 841.32c.21-1.24 5.8-1.45 12.42-.62 6.83.83 12.01 2.28 12.01 3.52z" class="st9"/></g><g id="shape83-160" transform="translate(613.645 -242.692)"><path d="M24.23 844.22c-.21 1.24-5.59 1.44-12.42.62-6.63-.83-12.01-2.28-11.8-3.52.2-1.03 5.79-1.45 12.42-.62 6.62.83 12.01 2.28 11.8 3.52z" class="st9"/></g><g id="shape84-162" transform="translate(627.73 -273.295)"><path d="M24.43 844.22c-.21 1.24-5.8 1.44-12.42.62C5.18 844.22 0 842.56 0 841.32c.21-1.03 5.8-1.45 12.42-.62 6.83.83 12.01 2.48 12.01 3.52z" class="st9"/></g><g id="shape85-164" transform="translate(392.48 -668.835)"><path d="M443.31 714.3H0v131.02h443.31V714.3" class="st10"/><text x="39.65" y="812.56" fill="#000" font-family="Merriweather" font-size="9.098em">Trader</text></g><g id="shape87-168" transform="translate(309.724)"><path d="M62.94 681.96c55.07-55.21 139.54-52.93 192.33 0 27.13 27.09 58.59 115.18 58.59 163.36H0c0-40.12 33.13-140.4 62.94-163.36z" fill="#7bade0" stroke-linecap="round" stroke-linejoin="round" stroke-width=".75"/></g><g id="shape88-170" transform="translate(431.668 -167.829)"><path d="M0 818.57c0 36.39 74.33 34.94 74.33 0v-43.43C52.17 794.58 27.74 798.51 0 776.8v41.77z" class="st13"/></g><g id="shape89-172" transform="translate(361.014 -222.223)"><path d="M23.04 735.45c11.59-34.74 20.91-77.54 84.26-67.82l42.23-6c23.19 1.66 35.82 45.29 43.48 67 2.9-9.93 7.25-16.96 15.53-17.99 3.73 16.13 5.8 32.46-11.39 48.8-7.66 26.67-31.88 66.79-51.96 70.1-24.85 23.16-49.69 19.64-74.54 1.86-22.56-6.41-40.16-39.7-51.76-74.65-41.82-26.47-2.07-75.68 4.15-21.3z" class="st13"/></g><g id="shape90-174" transform="translate(440.363 -253.436)"><path d="M0 827.25h61.08c0 24.82-61.08 23.37-61.08 0z" class="st7"/></g><g id="shape91-176" transform="translate(367.487 -332.09)"><path d="M0 821.13c3.11-61.83 46.79-110.84 103.52-110.84 65.01 0 98.55 70.31 98.55 110.22-7.87 0-12.63 7.23-15.53 17.99-25.26-80.65-43.48-67-85.71-60.8-28.16 1.86-65.01-10.13-84.27 67.62-2.9-11.79-3.52-26.88-16.56-24.19z" fill="#61400d" stroke-linecap="round" stroke-linejoin="round" stroke-width=".75"/></g><g id="shape92-178" transform="translate(427.941 -319.89)"><path d="M0 843.05c6.21-1.25 12.01-.83 17.39 2.27C22.36 826.71 0 826.92 0 843.05z" class="st15"/></g><g id="shape93-180" transform="translate(491.821 -319.89)"><path d="M18.31 843.05c-6.42-1.25-12.21-.83-17.6 2.27-4.96-18.61 17.6-18.4 17.6-2.27z" class="st15"/></g><g id="shape94-182" transform="translate(815.51 -437.755)"><path d="M0 787.42v57.9h209.52v-57.9H0z" class="st7"/></g><g id="shape95-184" transform="translate(816.249 -438.874)"><path d="M207.71 789.73H0v55.59h207.71v-55.59" class="st10"/><text x="8.79" y="831.42" class="st16">practices</text></g><g id="shape97-188" transform="translate(1020.27 -249.584)"><path d="M0 566.17h120.7v279.15" stroke="#fff" stroke-linecap="round" stroke-linejoin="round" stroke-width="4.552"/></g><g id="shape98-191" transform="translate(1095.21 -252.479)"><path d="M1.66 842.01h3.31c1.03 0 1.66.83 1.66 1.66 0 .82-.63 1.65-1.66 1.65H1.66c-.83 0-1.66-.83-1.66-1.65 0-.83.83-1.66 1.66-1.66zm9.93 0h3.32c1.03 0 1.65.83 1.65 1.66 0 .82-.62 1.65-1.65 1.65h-3.32c-.82 0-1.65-.83-1.65-1.65 0-.83.83-1.66 1.65-1.66zm9.94 0h3.31c1.04 0 1.66.83 1.66 1.66 0 .82-.62 1.65-1.66 1.65h-3.31c-.83 0-1.65-.83-1.65-1.65 0-.83.82-1.66 1.65-1.66zm9.94 0h3.31c1.04 0 1.66.83 1.66 1.66 0 .82-.62 1.65-1.66 1.65h-3.31c-.83 0-1.66-.83-1.66-1.65 0-.83.83-1.66 1.66-1.66z" class="st18"/></g><g id="shape99-193" transform="translate(1131.86 -245.449)"><path d="M17.6 836.64c0 4.75-3.94 8.68-8.9 8.68-4.77 0-8.7-3.93-8.7-8.68 0-4.76 3.93-8.69 8.7-8.69 4.96 0 8.9 3.93 8.9 8.69z" class="st7"/></g><g id="shape100-195" transform="translate(1131.86 -352.561)"><path d="M17.6 836.64c0 4.75-3.94 8.68-8.9 8.68-4.77 0-8.7-3.93-8.7-8.68 0-4.76 3.93-8.69 8.7-8.69 4.96 0 8.9 3.93 8.9 8.69z" class="st7"/></g><g id="shape101-197" transform="translate(1095.21 -359.592)"><path d="M1.66 842.01h3.31c1.03 0 1.66.62 1.66 1.66 0 .82-.63 1.65-1.66 1.65H1.66c-.83 0-1.66-.83-1.66-1.65 0-1.04.83-1.66 1.66-1.66zm9.93 0h3.32c1.03 0 1.65.62 1.65 1.66 0 .82-.62 1.65-1.65 1.65h-3.32c-.82 0-1.65-.83-1.65-1.65 0-1.04.83-1.66 1.65-1.66zm9.94 0h3.31c1.04 0 1.66.62 1.66 1.66 0 .82-.62 1.65-1.66 1.65h-3.31c-.83 0-1.65-.83-1.65-1.65 0-1.04.82-1.66 1.65-1.66zm9.94 0h3.31c1.04 0 1.66.62 1.66 1.66 0 .82-.62 1.65-1.66 1.65h-3.31c-.83 0-1.66-.83-1.66-1.65 0-1.04.83-1.66 1.66-1.66z" class="st18"/></g><g id="shape102-199" transform="translate(100.826 -439.823)"><path d="M0 787.63v57.69h240.78v-57.69H0z" class="st7"/></g><g id="shape103-201" transform="translate(108.481 -439.335)"><path d="M226 789.73H0v55.59h226v-55.59" class="st10"/><text x="2.61" y="831.42" class="st16">world yield</text></g><g id="shape104-205" transform="translate(111.178 -229.113)"><path d="M0 787.42v57.9h226.29v-57.9H0z" class="st7"/></g><g id="shape105-207" transform="translate(118.986 -230.417)"><path d="M214.99 789.73H0v55.59h214.99v-55.59" class="st10"/><text y="831.42" class="st16">Producers</text></g><g id="shape107-211" transform="translate(106.623 -332.917)"><path d="M0 787.42v57.9h238.3v-57.9H0z" class="st7"/></g><g id="shape108-213" transform="translate(111.23 -334.249)"><path d="M229.5 789.73H0v55.59h229.5v-55.59" class="st10"/><text x="1.96" y="831.42" class="st16">Rice prices</text></g><g id="shape110-217" transform="translate(131.674 -502.064)"><path d="M0 787.63v57.69h209.52v-57.69H0z" class="st7"/></g><g id="shape111-219" transform="translate(149.48 -502.335)"><path d="M174 789.73H0v55.59h174v-55.59" class="st10"/><text x="2.71" y="831.42" class="st16">Average</text></g><g id="shape112-223" transform="translate(815.51 -500.823)"><path d="M0 787.63v57.69h209.52v-57.69H0z" class="st7"/></g><g id="shape113-225" transform="translate(818.63 -501.874)"><path d="M201.6 789.73H0v55.59h201.6v-55.59" class="st10"/><text x="7.3" y="831.42" class="st16">Cropping</text></g><g id="shape115-229" transform="translate(915.715 -333.744)"><path d="M0 787.63v57.69h181.98v-57.69H0z" class="st7"/></g><g id="shape116-231" transform="translate(918.712 -335.042)"><path d="M172.39 789.73H0v55.59h172.39v-55.59" class="st10"/><text x="6.33" y="831.42" class="st16">Organic</text></g><g id="shape118-235" transform="translate(801.846 -223.944)"><path d="M0 787.63v57.69h294.61v-57.69H0z" class="st7"/></g><g id="shape119-237" transform="translate(814.355 -224.792)"><path d="M272.11 789.73H0v55.59h272.11v-55.59" class="st10"/><text y="831.42" class="st16">Conventional</text></g></g></svg>