<svg version="1.1"  xmlns="http://www.w3.org/2000/svg" width="100%" height="100%" x="0" y="0" viewBox="0 0 1500 1500">
<style>
.st3{fill:#c41622}
</style>
<g id="" transform="translate(1.156 -2.253)">

<!-- <path d="M.6 222.3h1494.3v1059.5H.6V222.3z" style="fill:#7bade0" transform="translate(1.097)" id="shape1-2"/> -->
<!-- <path d="m.6 222.3 1494.3 1059.5H.6V222.3z" style="fill:#5698d5" transform="translate(1.097)" id="shape2-4"/> -->

<path d="m533 466.4-6.5.8c-3.6.4-14.6 1.3-24.5 2-19.1 1.2-48.2 3.9-48.9 4.5-.9.9 19.7 2.1 22.7 1.3 4.3-1.1 5.7 1.5 2 3.5-2 1.1-6.7 1.3-14.4.8-12.3-.8-16.1.1-12.7 3 3.2 2.7.9 4.3-5 3.5-4.6-.6-4.9-.5-2.3.6 5.6 2.4 1.1 4.6-9.3 4.5-8.3-.1-8.9.1-6.2 1.7 2 1.1 5.6 1.5 10.3 1.1 5-.5 8.3-.1 10.6 1.3 1.8 1.1 3.3 2 3.3 2s3.5-1.8 7.8-3.9c4.3-2.2 8.6-4 9.6-4s5.2-1.8 9.3-4c4.1-2.2 8.8-4 10.4-4 6.7 0 23-4.7 33-9.5l10.8-5.2zm117.9.7c-2.9 0-5.4.2-7.2.7-3.1.8-8.6 1.1-12.4.7-4.5-.5-12.8.2-24.1 2.1-12.1 2-21.5 2.8-31.8 2.6-32.4-.8-33.5-.7-47.1 5.1-8.8 3.8-15.9 5.7-23.7 6.7-6.2.8-11.5 1.4-11.9 1.4s-.8 1.5-.9 3.3c-.2 4.3 2.6 5.2 17.6 5.3 11.1.1 12.5.4 15.7 3.4 4.4 4.1 8.8 12.5 7.9 14.9-.4 1.1.6 2.4 2.5 3.3 3.7 1.7 5.6 8.5 3.5 12.4-.8 1.4-4.2 4.4-7.7 6.5-7.3 4.5-10.2 9.3-8 13.4 1.1 2 1 3.7-.1 6.5-2.4 5.9 1.6 12.9 10 17.5 3.6 2 7.5 3.6 8.6 3.6 4 0 7.9-3.5 14.4-12.7 8.1-11.5 12.6-14.4 25.9-17 6.4-1.2 11.9-3.2 14.4-5.1 7.9-6 13.3-8.1 20.7-8.3 4-.1 12.5-1.2 18.9-2.5 9.6-2 11.3-2.7 10-4.3-1.1-1.3-3-1.6-6.5-1-5.4.9-8.9-1.6-4-2.9 2.2-.6 2.5-1.1 1.3-2.6-3-3.6 2.6-3.6 7.9 0 3.9 2.7 5.8 3.2 8.1 2.4l3-1.1-3.4-2.6c-1.9-1.4-5.3-3.6-7.7-4.9-5-2.7-4.3-4.1 2.1-4.3 5.8-.2 17.5-5.6 18.4-8.5.4-1.2 2.5-3.9 4.6-5.9 2.9-2.8 3.6-4.3 2.7-6-2.1-4 5.9-10.2 14.6-11.3 4-.5 8.5-1.8 9.9-2.9 2.4-1.8 1.8-1.9-6.2-1.1-7.4.7-9.7.4-14-1.8-5.4-3-17.3-5-26-5zm-218 7.8c-3.2.1-7.4 1.2-11.7 3.5-4.7 2.4-4.5 3 1.9 4.4 5.3 1.2 7.2.9 12-2 4.6-2.7 4.7-3 2.4-4.7-1.1-.8-2.7-1.2-4.6-1.2zm635.1 3.2c-2.8 0-5.2.7-6.5 2-3.2 3.2-1 3.6 25.3 5.7 9.7.8 10.8 1.1 10.3 3.3-.5 2.6 1.3 3.4 2.7 1.2 1-1.6 12.6-1.8 12.6-.2 0 .6-2.1 2.8-4.6 4.7-4 3-5.5 3.4-10.3 2.7-5-.8-26.8 2.3-28.5 4-.3.3.1 1.5 1 2.5 2.2 2.7-.3 4-8 4.1-3.8.1-7.5 1.1-9.8 2.7-9.7 6.9-13.3 8.5-17.6 7.7-2.9-.5-4.3-.3-4.3.8 0 3 2.8 6.7 6.6 8.7 4.9 2.5 6.9 6.2 5.8 10.6-.9 3.7-7.6 7.9-10.7 6.7-1.6-.6-1.5-1.4.9-4.7 3.2-4.5 3.4-3.8-6.3-16.9-7.5-10-9.9-11.6-15.3-10.2-9.4 2.4-8.7 10.1 1.2 14.9 3.2 1.6 5.8 3.4 5.8 4.1 0 2.1-4.7 4.1-6.2 2.6-2.2-2.2-39.1-10.8-40.4-9.4-1.4 1.4 4.9 3.5 6.8 2.3 1.6-1 4.5 2.9 3.4 4.5-.5.8-1.4 1.1-2.2.6-.7-.4-5.4-.1-10.5.8-7.2 1.2-9.7 1.2-11.2 0-2.7-2.2-9.9-.7-19.2 4.2-6.3 3.3-8.1 3.8-10.4 2.5-1.5-.8-2.6-2.2-2.5-3.1.2-.9-1.4-1.8-3.5-2.1-4-.5-4-.7-1.2 6 .7 1.8.1 2.1-8.7 4.3-4.1 1.1-5.5 2-5 3.4 1.1 2.9-3.6 4.8-7.8 3.3-5.2-2-7.1-1.5-3 .8 4.5 2.4 4.5 3 .3 4.6-4.4 1.7-13-2.5-15.7-7.7-1.1-2-3.5-4.4-5.5-5.3-2.7-1.2-3.2-2-2.1-3.1s3.5-1.1 9.1.1c4.2.9 9.9 2 12.7 2.4 6 .9 13-1.7 12-4.3-1-2.7-25.4-10.2-29.9-9.3-2.6.5-5.2-.2-8.6-2.3-6.7-4.2-14.9-5.9-27.4-5.6-7.2.2-12.7 1.2-17.2 3-3.6 1.5-9.5 3.7-12.9 5-3.5 1.2-6.3 2.8-6.3 3.6 0 .7-2.4 3.5-5.4 6.2s-6.2 6.4-7.1 8.2c-2.1 4.1-14.7 12.9-20.9 14.6-6.2 1.7-12.1 7.3-10.9 10.2.5 1.3 1 4 1.2 6 .3 4.2 5.2 8.7 9.4 8.8 1.5 0 4.7-1.2 7.2-2.8l4.6-2.8 3.6 4.3c2 2.4 4 6 4.4 8s2 4.7 3.5 6c2.6 2.4 2.8 2.3 7.5-.4 3.3-1.9 5.5-4.5 6.9-8.3 1.1-3 3.5-6.5 5.3-7.7 5.8-4 6.6-6.4 2.6-7.7-1.5-.5-3.6-2.3-4.7-4-1.8-2.8-1.8-3.5 0-7 1.1-2.1 3.8-4.6 5.9-5.5 2.2-.9 6.6-4.6 9.8-8.1 6.1-6.8 8.8-7.8 11.5-4.6 1.8 2.2.7 5-5.7 13.9-4.9 6.9-4.1 10.7 3.1 14 4.6 2.1 6.2 2.2 12.3.9 6.8-1.5 14.9-.9 16.3 1.3 1.5 2.5-7.2 5.2-14.3 4.5-3.8-.4-7.9-.2-8.9.6-1.7 1.1-1.5 1.8 1.3 4.7 2.8 3 3 3.6 1.3 5.4-1.6 1.6-2.7 1.7-6.3.3-5.3-2-7.3.1-6.2 6.4.7 4.3-.9 6.6-6.9 9.7-2.1 1.1-3.8 1.1-6 .1-2.5-1.1-4.6-.9-10.2 1.3-6.3 2.4-7.4 2.5-10.7.8-2.9-1.5-4.6-1.6-8-.4-4 1.4-4.5 1.2-7.3-2.3-1.7-2.1-2.7-4.1-2.3-4.5s1.2.1 1.8 1.1c.8 1.3 1.3 1.3 2 .2s1.4-1.1 2.6-.1c2.2 1.8 5.3-1.7 4.2-4.6-.7-1.7-1.3-1.8-3.8-.4-1.7.9-4.1 1.8-5.3 2-2 .3-2.2-.3-1.5-5.1l.9-5.4-3.4 2.2c-1.9 1.2-3.7 3.1-4.2 4.2-.9 2.3.5 8.8 2.1 9.8 2.6 1.7-2.9 6.2-8.4 6.9-4.4.5-7.1 2-12.3 6.8-3.6 3.4-7.9 6.5-9.5 6.9s-3.8 2.2-5 3.9c-2.4 3.6-9.4 7.7-11.3 6.5-.7-.4-2.8.3-4.8 1.6s-5.6 2.4-8.2 2.4c-6.7.1-6.6 2.6.3 5.2 4.7 1.8 6.2 3.2 7.4 6.6 1.8 5.3.5 14.7-2.4 17.6-2.1 2.1-11 2-26.1-.4-6.6-1-10.5 1.9-9.2 6.9.4 1.7-.1 6.9-1.2 11.6-2.5 10.9-2 18.5 1.4 19 6.4 1 8.3 1.8 11.4 5 3.4 3.4 3.4 3.4 4.9.7 1.1-2.1 2.8-2.7 6.8-2.7 2.9 0 6.6-.7 8.2-1.5 5-2.6 10.2-8.2 10.2-11 0-3 4.6-11.3 6.3-11.3.6 0 2.7-1.5 4.9-3.3 2.1-1.8 4.7-3.3 5.7-3.3 1.3 0 1.6-1 1-3.2-1.1-4.2 3.1-6.6 9.8-5.4 5 .9 9.8-.6 16.2-5 4.3-2.9 7.3-1.9 10 3.3 2.5 4.9 12.2 14.2 14.7 14.2 6.8 0 15.1 9 14 15.3l-.7 4 3-2.9c2.6-2.5 2.8-3.4 1.5-6.2-1.9-4.1-.4-5.3 5-4.1 6.1 1.3 4.7-.2-4-4.7-8.3-4.2-25.1-19.7-25.1-23.2 0-1 1.2-2.5 2.6-3.3 2-1.1 2.9-.9 4.3 1.1 1 1.4 3.9 3.4 6.5 4.5s5.6 3.2 6.6 4.6c1 1.5 4.4 3.4 7.5 4.3 6 1.8 10.9 7.6 10.9 12.9 0 6.8 4.4 11.1 12.6 12.4 3.6.6 3.4 2.9-.4 3.5-2.9.4-3 .5-.7 4.3 3.2 5.4 5.3 5.7 7.5 1.2 1.8-3.6 1.7-4.4-1.2-9.8-2.7-5-2.8-6.1-1.2-7.4 1-.9 2.8-1.2 3.9-.8 1.1.4 2 .2 2-.5 0-2.3 4.9-3.9 8.8-2.8 2.1.6 6.4.5 9.7-.2l5.9-1.2-3.2-2.4c-3.1-2.3-3.1-2.7-1.5-8.8 3.5-13.1 15.5-26.4 19.3-21.4.8 1 2.5 2.3 3.9 2.8 2 .7 2.2 1.3.9 2.8s-.9 2.3 1.7 4c3.1 2 3.6 2 8.4-.5 3.9-2.1 4.4-2.7 2.3-2.7-1.6 0-3.5-.9-4.4-2-1.4-1.6-.5-2.5 5.7-5.2 10.5-4.7 12.7-5.2 12.4-3.2-.2.9-.8 2.5-1.4 3.5-.6 1-.8 2.1-.3 2.5.4.4-.1 2.4-1.1 4.3l-1.9 3.6 9.9 5.6c5.4 3.1 10.8 7 11.9 8.7 1.8 2.8 1.8 3.4-.1 6.4-3.7 5.7-12.9 6-23.3.8-7.7-3.9-17.6-4.7-22-1.8-2 1.3-5.8 2.5-8.4 2.7-3.1.2-5.9 1.4-8.3 3.7-2.5 2.5-4.4 3.3-6.5 2.8-1.7-.4-3.9-.1-5 .6-1.7 1.1-1.6 1.6 1 3.4 1.6 1.2 3 3.2 3 4.6 0 3.6 2.5 8.5 5.1 10.2 3.7 2.3 10.4 3.4 11.4 1.8 1.3-2.1 5.8-1.7 10.1.9 3.4 2 4.4 2.1 8.2.5 7.9-3.2 11.2-3.3 12.8-.3 1 1.8 1 2.8.1 2.8-.8 0-1.4 2.2-1.4 5-.1 8.4-.6 12.2-1.4 12.2-.5 0-1.2 2.1-1.6 4.7-1.3 7.7-5.9 9.9-15.1 7.1-2.8-.9-5.9-.9-9.1 0-6.6 1.8-25.4-1.7-35.3-6.6-9.1-4.5-14.9-4.9-16.9-1.1-.8 1.5-1.1 3.8-.7 5.1.5 1.5-.4 3.5-2.4 5.3-3 2.8-3.4 2.9-7 1-2.1-1.1-6-2.4-8.8-2.9-3.5-.7-5.6-2.1-7.2-4.8-2.2-3.7-5.2-5.1-15.9-7.2-2.3-.5-5.7-2.4-7.6-4.4-3-3.2-3.3-4.1-2.1-7.3 1-2.5 1-4.2 0-5.3-.8-.9-1-2.6-.6-3.7 1.4-3.8-3.9-5.2-10-2.7-4.2 1.7-8.1 2-16.7 1.5-13.1-.8-20.1.7-31.6 6.8-6.6 3.6-8.8 4.1-13.2 3.3-2.9-.5-6.5-1.7-7.9-2.7-3.7-2.5-4.1-2.4-7.2 2.7-1.5 2.5-5.7 6.4-9.3 8.7-6.6 4.2-10.7 11-10.7 17.8 0 3-9 12.7-11.8 12.7-2.5 0-11.9 11-16.1 18.9-2.4 4.5-5.8 10.1-7.5 12.4-4.6 6.1-6 11.9-3.8 16.2 4.5 8.9 3.2 23-2.7 29.5-1.9 2.1-1.9 2.7.7 7 1.8 3.1 2.2 4.7 1.2 4.7s-.9.5.4 1.3c1.7 1.1 1.6 1.3-.3 1.3-3.2 0-2.9 2.8.4 3.6 2.1.6 2.3 1 1 1.9s-1.1 1.3 1.1 1.9c3.5 1 13.6 14.1 15.2 19.7 2.1 7.3 16.9 20.6 25.5 23 4.1 1.2 6.9.9 14.5-1.2 7.4-2 10.4-2.3 14-1.3 3.8 1.1 6.4.7 15.2-2.2 5.8-1.9 11.8-4 13.2-4.6 6.4-2.6 8.7-2.6 13.9.1 4 2.1 5.6 3.8 6.2 6.7.8 3.8 1 3.9 6.4 3.1 14-2.1 19.7 8.5 14.4 26.8-2.6 9-1.5 12.2 6.9 20.4 4.4 4.3 6.5 7.8 8 13.1 1.1 4 3.2 9.2 4.6 11.5 1.7 2.8 2.3 5.4 1.7 7.6-.5 1.9.1 6.3 1.4 10l2.2 6.6-3.9 7.7c-5.9 11.5-8.5 21-7.5 27.4.5 3 3.2 9.6 6 14.7 5.7 10.4 9.9 24.7 11.2 38 .7 7.5 1.6 9.9 6.1 15.8 2.9 3.8 5.2 7.6 5.2 8.4s1.5 3.6 3.3 6.2c2.5 3.7 3.1 5.8 2.5 9.5-.6 3.9-.2 5.3 2.6 8.1 4 4 2.9 3.9 13.3 1.3 6.4-1.6 9.5-1.8 13.3-.7 4.3 1.2 5.9.9 11.8-2.1 7.1-3.6 22.7-18.7 28.1-27.2 1.7-2.7 4.3-5.5 5.7-6.3 2.1-1.1 2.4-2.3 1.8-5.9-1.1-6.9.4-10.8 4.9-12.7 10.8-4.5 13.8-10.9 9.3-19.7-1.5-2.9-2.7-5.9-2.7-6.7 0-.7 2.7-4.4 6-8.1s6-7.3 6-8 3.1-2.8 6.9-4.7c8.8-4.4 11.2-6.6 14.4-12.7 2.2-4.2 2.3-5.8 1.1-11.7-.8-3.7-1.1-8.2-.6-10 .5-2.1-.4-5.5-2.6-10-8.9-17.6-7.1-30.7 6.4-45.7 4.6-5.1 9.7-11.1 11.3-13.3s7.5-7.7 13.2-12.2c10.1-8 10.5-8.6 20.7-28 9.4-18.1 10.3-20.4 9.5-25.1l-.9-5.2-3.7 1.9c-2.1 1.1-9.4 3.2-16.4 4.7-11.7 2.5-13 2.6-16.7.7-2.4-1.3-4.3-3.5-4.8-5.7-1.4-5.8-6.8-12.8-15.1-19.5-5.5-4.4-8.1-7.5-8.7-10.4-.5-2.3-2.8-6.5-5.2-9.5-5.9-7.2-7.3-10.4-7.3-15.4 0-2.4-1.3-6-3.1-8.4-1.7-2.3-5.5-8.9-8.4-14.7s-7.8-14.7-10.9-19.8c-6.5-10.6-5.6-14.6 1.3-5.9l4.5 5.7.7-3.8c.9-5.4 3-4.2 5.4 3.1 1.8 5.6 5.4 10.9 17.6 26 1.8 2.2 4.2 7.3 5.3 11.4 1.5 5.1 3.8 9.2 7.5 12.9 2.9 3 5.3 6 5.3 6.7s1.7 3.2 3.8 5.6c2.7 3.1 4.1 6.4 4.8 11.6.6 4 2.1 9.5 3.5 12.3 2.4 4.8 2.8 5 7.3 4.1 4.3-.8 19.4-7.2 32-13.4 2.5-1.2 5.4-3.6 6.5-5.3 2.3-3.6 8.2-6.9 12.2-6.9 3.4 0 13.5-10 17-16.8 1.4-2.8 4.2-6.5 6-8.3s3.4-3.9 3.4-4.7c0-1.8-8.2-8.6-14.1-11.7-3.8-2-6.1-5.4-5.6-8.4.8-4.4-.8-4-5.4 1.2-2.9 3.3-6.7 6.4-8.6 6.8-3.6.9-11.2-2.9-10.5-5.2.2-.7-.2-2.2-.8-3.3-1.1-1.7-1.5-1.6-3.1.6-2.6 3.6-5.8 1.8-7.4-4.2-.8-2.8-3.2-7.6-5.5-10.7-3.2-4.4-3.9-6.4-3.3-9.5.5-2.1 1.7-4.2 2.8-4.6 3.5-1.3 9.2 2.8 11.8 8.5 2 4.5 4 6.2 10.5 9.6 7.6 3.8 8.4 4 14 2.4 5.9-1.6 6-1.6 9.9 2.9 2.2 2.5 5.4 5 7.1 5.5 4.8 1.5 33.6 1.8 36.7.4 3.5-1.6 10.6 1.8 11.8 5.6.5 1.5 1.4 2.7 2 2.7s2.9 1.5 5.2 3.4c2.2 1.9 5 3.2 6.2 3 3.5-.6 3.8 2.8.4 4l-3 1.1 3.5 3.5c5.3 5.3 12.1 4.4 12.2-1.7 0-1 .8-2.1 1.7-2.4 2.3-.8 4.6 5.9 3.6 10.4-1.4 6.6 1.1 13.5 18 49.9 2.8 6 5.5 12.9 5.9 15.4.6 3 1.9 5 4.1 6 4 1.8 4.4 1.6 9.1-5.2 4.9-7 6.9-18.8 5.6-33-.2-2.4 1.2-4.3 5.6-7.8 3.3-2.5 6.9-6.2 8.2-8.3 1.2-2 3.4-4.1 4.8-4.5 1.4-.5 3.2-2.3 4-4.1s3.6-4.3 6.2-5.5c3.2-1.5 4.6-3 4.2-4.4-1-4 1.7-6.3 9.4-7.9 4.2-.9 8.5-2 9.6-2.6 3-1.6 5.9.6 8.6 6.5 1.5 3.4 3.8 5.9 6.3 6.9 4.5 1.9 12.3 15.7 11 19.7-.7 2.2 2.2 6.7 4.3 6.7.5 0 2.4-1.5 4.3-3.4 4.7-4.5 7.3-3.2 9.2 4.4.8 3.4 3.1 9.4 4.9 13.3 2.6 5.5 3.2 8.2 2.5 11.9-.5 2.7-1.1 7.8-1.3 11.5-.4 6.4-.3 6.7 5 10.6 4.3 3.2 5.8 5.4 7.2 10.6 3.2 12 7 18.8 13 23.1 5.8 4.1 8.5 5.1 8.5 2.8 0-.7-1.5-6-3.3-11.7-3.1-9.7-3.8-10.9-11.1-16.7-4.4-3.5-8.2-7.8-8.7-9.6s-2.1-5-3.6-7c-2.5-3.3-2.6-4.4-1.3-10.1.8-3.5 1.3-8.5 1.2-11.1-.2-3.2.3-4.6 1.5-4.6 3.5 0 16 10.1 20.3 16.3 1.8 2.6 2.6 2.8 4.8 1.7 2.1-1.1 2.8-1 3.5.7.5 1.2.5 3.3 0 4.6-.4 1.4-.4 3 .1 3.8 1.1 1.8 7-2.1 7.9-5.2.4-1.3 3.1-3.4 5.9-4.7 6.2-2.8 8.6-7.6 7.3-14.8-1.5-8.3-7.9-19.7-13.7-24.2-7-5.5-11.2-12.4-10-16.3 1.3-4.4 4.6-7.8 9.6-9.9 5.5-2.3 9.3-1.2 10.9 3.2l1.3 3.3 2.7-3.5c3.4-4.4 7.4-6.5 12.4-6.8 2.2-.1 7.7-1.6 12.1-3.2 11.4-4.2 15.8-9.9 20.6-27.1 4-14.2 4-16.7-.2-16.7-3.4 0-4.7-2.2-2.1-3.6 2.8-1.6 1.4-4.6-3.5-7.5-2.2-1.3-5.3-4.9-6.8-8.1-1.5-3.2-4.2-6.4-6-7.2-2.7-1.2-3.1-2.1-2.4-5.1.9-3.6 2.8-5.7 8.8-9.7l3.2-2.2-5.8-1.6c-4.8-1.3-6.1-1.3-7.7.4-1.7 1.7-2.6 1.5-7.6-1.3-3.1-1.8-6.5-4.2-7.5-5.3-1.5-1.8-1.4-2.3.8-3.6 1.4-.8 4.6-3.7 7.1-6.4 3.7-4 5-4.7 7-3.6 1.4.7 2.5 2.2 2.5 3.3s.6 3.2 1.4 4.7c1.4 2.6 1.4 2.6 6-.2 4.5-2.8 4.6-2.8 8.9-.3 2.9 1.7 4.3 3.5 4.3 5.6 0 2.3 1 3.4 3.8 4.2 5.6 1.5 8.7 4.9 12.4 13.4l3.3 7.6 5.5-2.8c3-1.5 5.7-3 6-3.2.3-.3-.5-2.7-1.7-5.5-1.6-3.5-5-6.9-11.5-11.3-5.1-3.5-9.2-6.9-9.2-7.6 0-.7 1.5-1.9 3.2-2.8 3.9-1.8 5.3-4.8 3.4-7.1-1-1.2-.6-3.2 1.4-7.1 1.6-3 3-5.4 3.3-5.4s2.1.6 4 1.4c5.1 2 8.7-.9 11.8-9.5 4.5-12.4 3.4-31.4-2-34.3-1.4-.8-3.7-3.6-5.1-6.4-3.4-6.7-14.4-15.3-18-14-4.7 1.6-10.8.9-16.4-2-5.2-2.6-5.4-2.9-3.5-5.7 1-1.6 2.6-5.7 3.4-9.1.8-3.4 3-7.6 4.8-9.3 2.9-2.7 4.7-3.1 14.1-3.2 5.9-.1 12.4-.6 14.3-1.1 2.2-.6 5.3-.2 8.6 1.2 3 1.2 6.6 1.8 8.7 1.3 3.1-.7 3.6-1.3 2.9-4.4-.4-2-.1-5.3.8-7.3 1.4-3.6 1.8-3.8 7-2.9 3.1.5 7 1.8 8.7 2.9 3.9 2.6 7.3 1.4 6.2-2.1-1.2-3.8 3.6-6.1 6.3-3 4.1 4.7 4.8 7.4 2.9 10.9-1 1.8-1.8 4.7-1.9 6.3 0 1.7-.9 4.7-2 6.8-1.9 3.7-1.8 4 4 11.7 3.3 4.3 8.2 9.5 10.9 11.5 2.7 2 7.1 6 9.8 8.9 3.8 4.2 5.4 5.1 7.7 4.4 2.1-.7 2.6-1.6 2-3.1-.5-1.2-1.1-3.7-1.3-5.5-.2-1.8-.8-4.4-1.3-5.6-.6-1.5-.2-2.6 1.2-3.1 1.9-.7 1.9-1.2.2-4.3-1.1-1.9-2.5-5.1-3.2-7-.8-2.2-3.4-4.5-7-6.3-6.6-3.2-11.3-9.6-8.7-11.8.9-.8 3.4-1.8 5.6-2.3s5.6-1.8 7.6-2.8c3.1-1.6 4.2-1.6 7.4.1 3.5 1.8 4 1.8 6.6-.7 1.6-1.5 2.8-3.2 2.8-3.9 0-1.3 3-3.1 6.1-4.1v-7.6c-.6-.2-.9-.4-1.5-.6-12.1-4.7-14.3-7.1-6.1-6.6 4.4.3 4.4.3 2.1-2.3-3.1-3.4-.6-4.5 5.5-2.7v-6.1c-3.5-1.6-9.3-3.3-13.5-3.8-4.4-.5-10.6-2-13.9-3.3-6.3-2.4-24.9-5.8-40.4-7.4-9.3-.9-9.3-.9-6.9 1.8 3.3 3.7.9 4.7-5.2 2.1-3.8-1.6-9.5-2.2-22.3-2.4-13.9-.1-18.1-.6-21.7-2.6-3.6-1.9-8.4-2.5-23.4-2.9-15.8-.4-19.9-1-25.3-3.4-3.5-1.6-8.5-3-11.1-3.2-2.5-.2-8.4-1-13.1-1.8-10.1-1.8-18.4-.8-16.1 2 1.2 1.5.7 2.3-2.5 3.9-3.2 1.7-5.3 1.8-11 .7-5.8-1.1-7.9-1-11.8.8-4.7 2.1-5 2.1-11.7-1.6-3.8-2.1-9.4-5.1-12.4-6.7-6.1-3.3-16.6-4-25.1-1.6-3.7 1-6.8.9-12.7-.7-5.6-1.5-9-1.7-12.2-.7-3.2.9-6.2.8-11-.7-5.8-1.7-7.4-1.7-14.5.1-10.9 2.8-12.8.7-3.8-4.3 3.7-2.1 6.8-4.1 6.8-4.6s-1.6-2-3.6-3.3c-2.9-2-6.2-2.5-16.2-2.5-9.3 0-13.7-.6-16.8-2.3-2.3-1.3-5.8-2.3-7.7-2.3-1.9 0-3.1-.5-2.7-1.2.8-1.3-12-4.1-18.6-4.1-2.4 0-4.7-.6-5.2-1.3-.4-.7-2.8-1.3-5.2-1.3-2.4 0-6.3-1-8.6-2.1-3-1.3-6.2-2-9-2zm-247.9 1.8c-.2 0-.3.3-.3.9 0 .9-.9 1.6-1.9 1.6s-2.2 1.3-2.5 3l-.6 3-1-3c-1-3-4.7-4.2-4.7-1.6 0 .9-4.3 1-12.6.5-10.8-.8-12.6-.6-12.6 1.2 0 2.1 1.6 3 8.5 5.1 2.7.8 4.2.7 4.9-.5.8-1.2 1.4-1.3 2.5-.1.9.9 2.5 1.2 3.7.9 1.9-.6 1.9-.5.2.8-1.1.8-3.6 1.4-5.6 1.4-5.1 0-4.5 1.5 2 4.9l5.6 2.9 4.3-4.8c2.4-2.6 4.3-5.3 4.3-5.8 0-1.8 4.9-1.2 6.6.9.9 1.1 1.2 2.6.7 3.4-.6 1 .5 1.2 3.9.6 3.1-.6 4.8-.4 4.8.5 0 .8.9 1.1 2 .7 1.7-.7 1.7-1 .1-2.6-1-1-2.4-1.9-3.2-1.9-2 0-9.5-4.5-9.5-5.7 0-.6 1-.8 2.3-.4 6.2 1.8 12 2.2 15.2.9 6.3-2.4 4.1-4.1-5.4-4.1-5.2 0-9.7-.7-10.6-1.6-.5-.8-.9-1.1-1.1-1.1zm-409.2 14.9c-.9.1-1.9.3-3 .8-3.2 1.3-6.1 4.9-4.9 6 .2.2 7.5.9 16.3 1.6 8.7.7 16.8 1.3 17.9 1.4s4.1-1 6.6-2.3l4.6-2.5-3.7-.9c-2.1-.5-8-.7-13.2-.3-7.7.6-10.4.2-14.6-1.9-2.9-1.4-4.5-1.9-6-1.9zm581.5 2.5c-.7 0-1.5.1-2.3.3-3 .5-9.4 1.2-14.1 1.5s-10.4 1.5-12.6 2.5c-3.8 1.7-9.2 6.9-9.3 8.9 0 .5-1.2 1.8-2.7 2.9s-2.1 2-1.5 2 .4 1-.5 2.1c-2 2.4-2.1 2.2 4.7 4.9 2.9 1.2 7.1 2.1 9.3 2.2l4 .1-3-2.1c-3.9-2.7-3.8-5.9.5-11 4-4.8 10.2-7.7 20.4-9.5 10.3-1.8 12.1-2.5 11.1-4-.3-.6-1.9-.9-4-.8zm-705.1 7c-5.4 0-10.6 1.9-18.1 6-10.3 5.6-10.7 6.1-8.6 8.2 1.3 1.3 3.2 1.9 4.3 1.4 10.9-4.5 24.6-9.1 31.1-10.4l8-1.6-6-1.8c-4.1-1.1-7.4-1.8-10.7-1.8zm85.2 1.9c-3.4 0-11.8 3.2-12.7 4.8-.8 1.3-2.5 1.7-6 1.1l-4.9-.8 3.6 2.1c2 1.2 3.6 2.7 3.6 3.4 0 4 12.6-1.5 15.2-6.7 1.3-2.1 1.8-3.9 1.2-3.9zm44 1-5.3 1c-6.7 1.2-17.9 9.2-17.9 12.7 0 1.9 7.8 4 12.1 3.2 2.5-.5 7.3-.2 10.8.6 5.2 1.2 7 1 10.3-.7 3.7-1.9 4.3-1.9 8.5.7 2.5 1.5 6 5.4 7.9 8.7 1.9 3.2 3.9 5.9 4.5 5.9s2.2.9 3.6 1.9c2.5 1.8 2.4 1.9-1.4 3.4-2.8 1.1-4.8 1.1-7 .1-3.6-1.6-10 1-11.4 4.7-.7 1.8-2 2-8 1.3-7.9-1-15 1.2-11 3.4 1.1.6 4 .6 6.5-.2 7.5-2.1 10-1.6 12.8 2.8 1.4 2.2 4.9 5.5 7.7 7.2 5.1 3.2 11.7 4.3 13 2.2.4-.6-1.1-2.1-3.3-3.4-6.9-4.1-1.9-6.6 5.5-2.8 3.8 1.9 4 1.9 5.4-1.1 1.1-2.5 1-4.1-.7-7.3-2-3.9-2-4.2.5-5.5 2-1.1 3.8-.8 7.9 1.3 5.8 3 7.9 2.7 10.6-1.6 1.9-3.1 2.1-2.8-6.8-9.2-2.1-1.5-3-3.5-3-6.6 0-4.2-.4-4.6-6.5-6.5-3.8-1.2-7.7-3.6-9.4-5.8-2.5-3.2-3.4-3.5-5.7-2.3-3.8 2.1-4.4 1.9-11.2-2.6-5.1-3.4-6.9-3.9-11-3.1-2.7.5-6.8 2.6-9.2 4.8-5.7 5-7.6 2.4-2.4-3.2l3.6-4zm-81.9 2.9c-1.7.2-4.4 1.5-6.2 3.4-3.1 3.4-5.8 3.7-6.1.9-.1-.9-.2-2.2-.3-3-.1-.9-1.3-.7-3.4.6-2.9 1.9-3.9 1.9-10 .1-7.5-2.2-15.9-1.6-23.9 1.9-4.6 2-4.6 2-1.3 2.8 4.5 1.1 4.2 3.2-.7 4-2.9.5-1.8.8 4 1.3 4.4.4 8 1.3 8 2s-4.1 1.6-9.2 2l-9.2.7 6.5 2.9c3.6 1.6 8 3.2 9.9 3.5 6.5 1 7.8.9 14.1-1.8 5.5-2.4 7.1-2.5 12.6-1.2 5.7 1.4 7 1.2 13.3-1.7l7-3.2-8.5-4.5 2.6-4.3c1.4-2.4 2.6-4.7 2.6-5.3 0-.9-.7-1.2-1.8-1.1zm40.5 8.5c-1.4-.2-3.8.7-7.8 2.7-7.3 3.6-7.4 3.7-4.6 5.6 3.9 2.7 1.7 6.6-4.8 8.4-2.7.8-6.4 2.5-8.2 3.9-3.2 2.5-3.3 2.5-6.9-.1-2.9-2.1-4.9-2.5-9.3-1.8-3.5.5-8.1.1-11.9-1.1-5.5-1.7-7.1-1.7-12.6 0-3.6 1.1-7.5 3.4-9.1 5.4l-2.8 3.6-2.2-4.2c-2.2-4.2-2.2-4.2-10-3.4-4.3.5-8.9.4-10.2-.1-2.3-.9-2.3-1 .2-2.8s2.5-1.9-.4-1.9c-1.6 0-6.6-1.3-11.2-2.8-5.9-2-10-2.6-14.7-2-4.4.5-7.7.1-10.3-1.2-2.9-1.5-4.5-1.6-6.5-.5-1.5.8-3.8 1.1-5.2.6-1.4-.4-7.3.4-13.1 1.9-13.2 3.4-20.9 3.4-32.7.2-5.1-1.4-12.8-2.9-17.2-3.4s-13.2-1.8-19.5-2.8c-10.4-1.7-13.3-1.7-27.1.2-8.5 1.2-19.3 3.6-24 5.3-4.7 1.8-10.1 3.2-12.1 3.2-4 0-12 2.5-12 3.7 0 .4 1.3 2.1 2.8 3.7l2.8 3-4.2 2.2c-2.9 1.5-5.8 1.9-9.3 1.3-5.5-.9-13.9.8-17.9 3.8-2.4 1.8-2.2 2 3.2 3.4 4.5 1.2 6.6 1.2 9.7-.1 6.3-2.6 7.3.4 1.5 4.4-3.3 2.3-8.3 3.9-14.8 4.9-12.1 1.8-17.8 4.8-16.8 8.9 1.1 4.2-.4 6.9-5 9.3l-4.1 2.1 3.7 2c2.9 1.5 4.5 1.6 7 .5 3.4-1.6 6.3-.8 5 1.3-1.1 1.7-12.6 7.5-23.8 11.9-6.6 2.6-8.3 3.7-5.8 3.7 3.8.1 17.7-4.8 27.4-9.7 3.4-1.7 8.3-3.6 10.8-4.1 2.6-.6 9.2-3.4 14.7-6.3 8.2-4.3 10.6-5 12.7-3.9 2.9 1.5 9.9.2 16.6-3.3 3.2-1.7 4.8-1.6 14.1.8 5.8 1.5 11.5 2.7 12.8 2.7s4.2 1.4 6.5 3.2 6.3 4.1 9 5.2c4.9 2.1 6.4 4.8 6 11.5-.2 4.2.5 7 2.2 8.3.8.6.4 1-.8 1-3 0-5.8 7-4 10.2 1 1.8.8 3-.7 4.7-1.9 2-1.5 2.8 4.1 8.2 3.3 3.3 6.1 6.8 6.1 7.9 0 1.1.6 2.2 1.2 2.4.7.3-.4 2.8-2.4 5.7-3.4 4.9-6.4 6.1-5.9 2.3.1-.9-1.1-1.6-2.6-1.6-2.2 0-3.6 1.8-6 7.3-1.8 4-5.8 10.2-9 13.8-3.2 3.5-6.7 8.7-7.9 11.5-1.1 2.8-3.6 6.7-5.4 8.6-1.8 1.9-3 4.1-2.5 4.9.5.7.1 2.8-.7 4.7-1.2 2.7-1.1 4 .6 6.6 1.2 1.8 1.6 3.6 1 4-.7.4-.7 2.6-.1 5s1.5 6.5 1.9 9.1c.6 3.8 1.7 5.2 4.8 6.5 5.4 2.2 8.3 8.1 7.2 14.5-.7 3.9-.1 6.5 2.6 11.8 2.6 5.2 3.1 7.4 2.1 9.3-1.8 3.3-.8 5.7 4.1 9.3 3.2 2.4 3.9 3.6 3.2 6.2-.6 2.5.2 4.6 3.3 8.5 5.2 6.6 7.4 6.7 4.1.2-1.4-2.7-3-7.9-3.5-11.5s-2.6-10.1-4.7-14.5c-5-10.9-5.7-14.1-3.4-17.2 1.6-2.2 2.4-2.4 5.2-1.1 2.7 1.2 3.5 2.8 4.2 8.1.6 4.1 2.8 9.7 6 14.9 2.8 4.6 4.8 8.9 4.4 9.5-.4.6 1.6 3.7 4.4 6.7 2.8 3.1 6.5 8.4 8.2 11.9 2.7 5.5 2.9 7.1 1.7 11.9-1.4 5.3-1.2 5.8 2.8 10.1 2.6 2.8 11 7.8 21.9 13l17.7 8.6 5.8-2.2c5.2-2 6.1-2 9.7-.2 2.2 1.1 5.3 3.9 6.9 6.2 1.7 2.4 6 5.5 10.1 7.3 7.9 3.5 11.1 3.9 13.3 1.7 1-1 1.9-.2 3 3.2.8 2.5 2.7 5.7 4.1 6.9 1.4 1.3 2.6 3.7 2.6 5.4s.7 3.6 1.7 4.4c.9.7 4.1 3.4 7.1 6s6.1 4.7 6.9 4.7 3.9 1.3 6.8 2.8c5.5 2.9 7.2 2.6 7.2-1.2 0-3.2 6.4-5.1 10.6-3.2 2.9 1.3 3.2 2 2 4.2-.8 1.5-.9 2.7-.3 2.7s1.2.7 1.3 1.7c.1.9.8 4.3 1.6 7.6 2.1 8.6-.1 16-7.9 25.8-11.6 14.7-14.3 23.3-7.9 25 2.6.7 2.6.9-1.3 6.6-3.6 5.2-3.9 6.4-2.8 10.6.7 2.6 2.8 5.6 4.6 6.8 3.4 2.2 8.4 11 11.2 19.7.9 2.7 3.8 7.8 6.5 11.3s6.6 9.7 8.6 13.9c3.3 6.9 4.5 8 13.1 12.5 11.9 6.3 21.6 15.8 23.7 23.3.9 3.1 1.4 9.3 1.3 13.9-.7 21.3.6 44.7 3.2 57.3 1.7 8.5 2.1 14.5 1.5 24.4-.6 9.1-.4 13.6.7 14.9.8 1 1.6 4.5 1.8 7.8.2 5.1 1.1 6.8 5.8 11.7 3.7 3.8 5.3 6.4 4.7 7.9-.5 1.2.4 3.8 1.9 6 3.3 4.6 2.6 11.6-1.4 12.8-3.4 1.1-3.1 2.2 1.3 4.7 2.5 1.4 4.6 4.4 6.2 8.6 3.1 8.4 8.7 17.4 11.3 18.4 1.2.4 2.9 2.2 3.9 4 1.2 2.3 2.5 3.1 4.2 2.6 1.3-.4 3.4-.2 4.7.5 3.2 1.8 10.5-3.2 8.3-5.8-2.4-2.8-1.9-8.8 1.2-14.8 3-6 2.4-11.2-1.6-12.7-1.1-.4-3-2.3-4.2-4.2-2.1-3.3-2.1-3.6 1.2-7.9 2.1-2.7 3.1-5.4 2.6-6.7-.5-1.2.2-3.2 1.4-4.6 2.1-2.4 2.1-2.5-.5-3.4-1.5-.5-3.7-2.7-4.8-4.9-2.8-5.5-.8-7.3 4.7-4.4 2.3 1.2 4.4 2 4.6 1.8 2.4-2.9 3.3-6.7 2-9.1-2-3.8-.6-5.3 5.3-5.3 6.7 0 13.9-3.5 15.8-7.6 1.2-2.7 1-4.3-1.4-9-1.6-3.1-4.3-6.3-6-7.1-1.7-.8-3.1-2-3.1-2.8 0-2 3.8-1.7 10.9.9 8.2 2.9 11.6 1.2 17.2-8.8 2.3-4.1 5.5-9.2 7.2-11.5s3.1-5.5 3.1-7.3.9-4.6 2.1-6.2c3.6-5.1 4.7-11 3-16.1-1.4-4.4-1.3-4.8 3-8.4 2.5-2.1 7-4.9 10-6.2 3-1.3 5.9-3.1 6.4-3.9.6-1 2.8-1.2 5.8-.8 3.6.6 5.6.1 7.9-1.8 7-5.9 14.3-33.7 12.8-48.6-.8-7.6-.6-8.4 2.6-11.6 1.9-1.9 4.4-5.4 5.6-7.7 1.2-2.3 4.1-6.7 6.5-9.6 5.6-6.9 7.6-14.1 5.9-20.7-1.2-4.5-1.9-5.1-8.6-7-5-1.4-9-3.8-12.5-7.3-4.7-4.8-6-5.3-16-6.6-9.3-1.3-11.2-1.2-14 .6-3.5 2.3-4.7 1.2-4.1-3.9.2-1.8-1.4-3.5-5.4-5.8-6.2-3.5-7.9-3.2-14.8 2.4-2.7 2.2-4 2.5-6.6 1.4-1.9-.8-2.4-1.3-1.2-1.4 1.2 0 3.4-1.5 5-3.2 2.7-2.9 2.8-3.3.8-5.3-3.3-3.3-5.4-2.7-12 3.4-4.5 4.1-6.4 5.1-7.5 4s-.2-2.8 3.9-6.6c6.3-6 9.2-10.8 7.3-12-.7-.5-2-3.5-2.9-6.8-2.9-11-15.3-20.1-24.4-17.8-4.4 1.1-14.4-3.5-17.5-8-6.6-9.6-24.1-20.2-30.6-18.6-4.3 1.1-19.1-2.9-21.9-5.9-3.8-4-7.2-4.4-11.6-1.1-4.2 3.1-4.9 5-2.6 7.3 1 1 .6 2.3-1.1 4.5-2.5 3-2.6 3-3.9.5-1.6-3-.2-12.7 2.3-15.8 3-3.6-3.1-2.4-6.6 1.3-1.7 1.8-4.3 3.3-5.8 3.3-3.6 0-7.9 3.6-10.5 8.7-1.1 2.3-3.5 5-5.1 6.1-2.9 1.9-3.4 1.8-7-1.1-4.6-3.6-8.1-3.9-14.7-1.2-4.1 1.7-5.2 1.7-8.4 0-2.1-1.1-5-4-6.6-6.6-2.9-4.6-2.9-4.9-.9-17.4 1.1-7 1.7-13.5 1.3-14.5-.9-2.5-9.1-3.5-18-2.2-9.8 1.4-10.2.3-4.5-12 8.3-18 9-19.9 7.1-21.1-2.2-1.4-4.7-1.4-10.5.3-3.9 1.1-5.2 2.3-6.4 5.9-1.9 5.7-7 9.5-15.6 11.3-11.4 2.4-16.8-2.1-20.8-17.2l-2.1-8.3 4.2-12.8c2.3-7 4.7-14.3 5.4-16.2.8-2.2 3.8-4.7 8.1-6.9 3.8-2 9-4.7 11.5-6.2 5.4-3.1 8.2-3.3 13-.8 2 1 5.4 2.2 7.6 2.7 3.5.7 4.3.4 5.5-2.4.8-1.9 3.4-3.9 6-4.7 3.8-1.3 5.5-1.1 10.9 1.2 3.5 1.5 7.5 2.3 8.9 1.9 1.7-.5 3.7.2 5.9 2.3 2.7 2.5 3.1 3.9 2.5 7.5-1 5.2 2.5 16.9 5.3 18 1.2.5 2.6-.7 3.9-3.1 1.7-3.2 1.7-5.6.5-15.4-1.4-10.4-1.3-12 .9-16.1 2.5-4.6 14.7-14.1 23.3-18.2 8.4-3.9 12.2-9.1 12.3-16.6.2-7.3 2.6-11.6 4.3-7.3.9 2.3 1.1 2.2 1.8-.8.4-1.8 2.8-4.6 5.4-6.2 2.5-1.6 6.1-4.5 8-6.4s6.1-4.3 9.3-5.3c10.1-3.1 13-4.9 13.8-8.7.7-3.1 2.7-4.5 14.5-9.7 7.5-3.3 15.8-6.4 18.3-6.9 6.5-1.2 7.5 1.5 1.4 4-6.8 2.9-9 4.8-6.9 6.1.9.6 4.3-.3 7.7-2 3.3-1.7 7.9-3.4 10-3.9 2.2-.5 5.8-2.1 8-3.6l3.9-2.7-5.1.9c-6.5 1.1-11.9-1.1-14-5.7-1.4-3-1.3-3.8 1-5.6 1.4-1.2 3.3-3.4 4.1-5 1.5-2.8 1.3-2.9-3.5-2.9-2.8 0-8.6 1.7-13.2 3.9-7.7 3.6-9.7 3.9-9.7 1.2 0-.6 5.2-3.7 11.6-6.7 10.9-5.2 12.3-5.6 23.5-5.7 15.1-.1 20.3-1.2 31.9-6.7 10.7-5 14-9.4 10-13-2.7-2.5-7.1-2.7-11-.7-3.9 2.1-6.1-.5-2.6-3 2.7-1.9 2.7-1.9-.4-7.3-2.1-3.7-2.7-6-1.9-7.5.8-1.3.7-3.1-.2-4.7-.8-1.4-1.1-3.4-.7-4.4s.2-3.2-.4-4.8l-1.1-2.9-4.6 3.4c-2.5 1.9-6.7 4.6-9.4 5.9l-4.8 2.5-2.9-3.1c-2.5-2.6-2.7-3.6-1.4-5.9.8-1.6 1.2-3.9.8-5.2-1-3.2-9.3-7.6-16.4-8.8-7.9-1.3-12.6 1-15.6 7.4-1.3 2.9-4.1 6.5-6.2 8-3.4 2.4-3.7 3.3-3 7.2 1.1 6-3.1 11.4-13.3 16.9-6.9 3.7-8 4.9-10.4 11.2-2.5 6.6-6.6 10.6-10.9 10.8-.9 0-2.5-1.7-3.6-3.9-1.9-3.6-1.8-4.5.6-10.5 2.8-7.1 2.8-7.2-3.3-8.6-2.2-.5-7.6-2.6-11.9-4.8-4.4-2.2-9.6-4.2-11.6-4.6-2.3-.5-4.3-2.1-5.3-4.3-.9-2-2.3-4.1-3.3-4.7-4.9-3.1 8.7-15 24.8-21.5 5-2 7.3-3.7 7.3-5.3 0-1.9 1.2-2.4 6-2.6 3.3-.1 8.6-.9 11.7-1.8l5.8-1.6-2.9-3.1c-3.4-3.6-1.7-5.4 3-3.2 2.5 1.2 4.1 1 7.3-.7 2.3-1.2 7.3-2.1 11.5-2.1 8.7 0 11.7-1.3 17.5-7.7 4.9-5.4 5.2-6.3 2.2-7.4-4.6-1.8-9.4-.7-12.6 2.6-7.7 8.3-19.2 10.5-14.1 2.7 1.8-2.8 1.9-3.4.2-4-1.1-.4-2.8-.4-3.8 0-2.9 1.1-5.2-4.1-3.3-7.6 1.1-2 1.1-3.2 0-4.2-.4-.2-.7-.4-1.2-.4zm297.6 27.7c-1 .1-2.3.4-4 .9-2.9.9-6.4 1.2-7.8.8-3.9-1.3-15.6 3.1-16.4 6.1-.5 2-.1 2.4 1.5 1.9 1.2-.4 4 .5 6.2 1.9s4.9 2.4 6 2.1c12.1-3.3 17.1-5.1 19.7-7.2l3.2-2.5-3.6-2.4c-1.9-1.3-3.1-1.8-4.8-1.6zm45.5 43.4c-3.6.1-7.6 6.9-5.9 10.2.7 1.3.9 3.1.6 4-.6 1.6 1.1 2.2 4.6 1.8 1.5-.2 4.3 4.9 4.3 8 0 .7-1.8 1.9-4 2.7s-3.6 2-3.1 2.8-.2 2.2-1.6 3.2c-2.2 1.6-2.1 1.8 1.8 2.6 5.7 1.1 6.4 2.9 1.9 4.5-2 .7-4.9 1.9-6.4 2.7-2 1-1.6 1.1 2 .5 2.6-.5 9.3-1.5 14.9-2.4 7.7-1.1 9.9-1.9 8.8-3-1.1-1.1-.6-2.1 1.9-3.8 3.8-2.5 3.3-5.2-.7-4.2-2 .5-3.1-.5-4.8-4.2-3.5-7.8-7-12.2-10.6-13.6l-3.4-1.3 5.9-6.3-3.1-.5c-1.7-.3-3-1.2-2.8-2.1.5-.9.2-1.6-.3-1.6zm-15.7 15.9c-2.4.1-4.9.8-5.8 1.8-.8 1-3 2.2-4.8 2.7-3.4.9-4.2 2.7-1.9 4.1.8.5.6 2.2-.7 4.6-1.1 2.1-1.6 4.8-1.2 6 .5 1.4 1.6 1.8 3 1.2 1.2-.5 4.7-1.8 7.8-2.9 4.7-1.6 5.6-2.5 5.6-5.5 0-1.9.9-4.9 2.1-6.5 1.1-1.6 1.7-3.5 1.3-4.3-.6-.9-3-1.3-5.4-1.2zm697.9 10.7h-.4c-1 .3 1.7 4.4 7.2 10.5 4.9 5.4 10.7 13.5 12.9 17.8 2.2 4.4 4.9 9 6 10.3 1.8 2.1 6.9 3.3 6.9 1.7 0-.3-2.7-3.6-6-7.4-5.6-6.4-6.7-10.3-2.4-8.7 3.8 1.5.9-2.5-5-6.9-7.1-5.2-11.6-9.4-15.2-14.3-1.3-1.7-3-2.9-4-3zm-935.3 13.1c-.8 0-5.7 4.1-10.8 9.2l-9.3 9.2 4.9.5c9.9 1 15.6.9 20.4-.4 4.6-1.3 4.8-1.6 3.5-4.6-.8-1.9-3-3.5-5.2-4-5-1.1-6.9-4.5-4.2-7.6 1.3-1.3 1.6-2.3.7-2.3zm-156.1 13c3.7-.2 6 .8 7.7 3.1 1.3 1.8 2.1 4.4 1.7 5.9-1 4.1 3.7 7.9 7.3 6 5-2.7 11.9 3.5 9.2 8.3-.9 1.6-2.2 2.1-4.4 1.5-2.3-.6-3.3-.1-3.9 1.8-.5 1.4-2.3 3.2-4 4-2.6 1.2-3.8 1-6-.8l-2.8-2.3 2.8-3.5c3.5-4.4 3.4-5.1-.4-5.1-5.3 0-11.9 5.5-15.4 12.9-1.8 3.8-4.6 7.8-6.1 8.9-2.5 1.8-3 1.7-4.9-.3-1.9-2.1-1.6-3 3.1-10.9 5.6-9.4 9.6-12.6 17.4-13.9 2.9-.5 4.7-1.4 4.3-2.2-.5-.7-2.2-1-3.9-.5-1.7.4-5.1-.2-7.6-1.4-4.1-2-4.8-2-8.6 0-3.2 1.7-4.9 1.8-7.8.7l-3.7-1.4 3.3-2.5c1.8-1.4 3.8-2.5 4.4-2.6.6 0 .7-.6.3-1.3-.4-.7.3-1.2 1.6-1.2 1.3.1 5-.7 8.3-1.6 3.1-1 5.9-1.5 8.1-1.6zm674.6 10.1c4.3-.3 8 1.8 11.1 6.1 2.6 3.6 1.7 6.4-1.5 4.5-2.3-1.4-7.7.6-9.2 3.4-2 3.7.3 7.3 6.7 10.6 2.9 1.5 5.3 3.3 5.3 4 0 .9.9.9 2.6 0 2.1-1.1 3-.7 5.3 2.5 1.5 2.1 2.7 4.4 2.7 5.2 0 1.8-3.5 3-6.1 2-1.9-.7-1.9-.5-.1 3.1 1.1 2.2 3 4.7 4.1 5.6 1.3 1.1 2.1 3.9 2.1 7.5 0 5-.5 6-3.9 7.8-2.2 1.1-4.1 2-4.3 2s-4.5-2.2-9.5-4.7l-9.1-4.7.7-6.8c.8-8.5-.4-11.8-7-19-2.9-3.1-5.2-6.6-5.2-7.7 0-1.1-1.2-2.6-2.7-3.4-3.9-2.1-3.3-3.8 3.6-10.1 5.2-5 10.1-7.6 14.4-7.9zm448.8 10.7c-1.1-.4-.6 1.1 1.3 4.7 1.8 3.5 1.8 4.3.1 6.8-1.8 2.6-1.7 3.2.7 6.6 3.2 4.5 4.1 4.7 3.6.8-.4-3.2 1.5-3.7 8.5-1.9 2.7.7 3.6.5 3.6-1 0-1.1 1.2-2.3 2.7-2.8 3.9-1.2 2.1-3-5.4-5.2-3.6-1.1-8.7-3.5-11.2-5.5-1.9-1.5-3.2-2.3-3.9-2.5zm-1086.3 5.2c1.2-.1 2.3.1 3 .5 1.9 1.1 1.8 1.5-.9 3.4-3.9 2.7-10.5 2.9-10.5.3 0-2 4.8-4 8.4-4.2zm-20.6 8.1c1.2-.1 1.8.3 2.7 1.1 1.7 1.7 1.2 2.3-3.5 4.7-3 1.5-6.6 2.8-8.1 2.8-4.8 0-2.8-3.8 3.5-6.6 2.7-1.3 4.3-1.9 5.4-2zm1116.2 11.6c-2 .1-1.7 3.1 1.1 8.7 4.3 8.4 3.3 10.9-7.1 18.8-5.4 4-8 5.2-10.3 4.6-2.2-.6-4.3.2-7.1 2.6-2.2 1.8-4.7 3.4-5.5 3.4-.9 0-.5.6.8 1.4 1.6.9 3.9.9 7.3 0 8.3-2.3 12-1.8 14.5 2.2l2.3 3.5 1.2-4.2c1-3.4 1.9-4.2 4.9-4.2 5.4 0 10.1-2.1 11.8-5.3 1.2-2.2 1-4.1-.7-8.6-1.2-3.2-1.9-6.8-1.4-7.9 1.2-3.2-3-10.6-7.4-13.2-2-1.3-3.4-1.8-4.4-1.8zM906 719.5c-.6-.1-1.4.3-2 1.3-.4.7-2 1.3-3.4 1.3-2.5 0-3.4 1.4-1.8 3 1.2 1.2 6.9-1.7 7.7-3.8.4-1.1 0-1.7-.5-1.8zm-516.1 15c-.2 0-.3.1-.5.2m-104 60.4c-7.1.2-15.2 2.9-15.2 5.3 0 1.5.5 1.5 6.5-1 6.4-2.6 11.7-1.4 21.3 4.8 4.9 3.2 6.3 4.7 5.3 5.9s0 1.6 4.1 1.7c3 0 5.8.4 6.2.8.9.9 4 .8 8.3-.5 3.8-1.1 3.8-1.1-8-7.3-14.2-7.6-18.3-9.2-25.6-9.7h-2.9zm51.1 19.7c-6.3 0-6.7.2-5.4 2.6 1.8 3.4-.1 4.5-7.1 4.3-4.8-.1-5 0-2.2 1.2 1.8.7 4.9.9 6.9.5 2-.5 4.6-.3 5.8.4 2.4 1.3 19.4-2.1 18.4-3.7-1.4-2.5-10.3-5.3-16.4-5.3zm1049 8.2c-1.6-.1-2.9 1.6-2.9 5.2 0 2.2-.6 5.2-1.4 6.6-2 3.7-.7 6.7 6.1 13.6 4.8 4.9 6.6 6 9.1 5.3 1.8-.4 4.3-.2 5.6.6 3 1.7 4-.4 1.7-3.2-1-1.2-2.8-1.7-4.5-1.3-2 .5-3.9-.4-6.5-3.1-3.5-3.7-3.6-3.9-1.6-8.6 1.8-4.4 1.8-5.3-.1-9.4-1.8-3.7-3.8-5.6-5.5-5.7zm14.3 63.4c-1.5 2.7-1.3 2.8 2.6 2 3.9-.9 4.2-.6 6.7 5.3 2 4.6 3.2 6 4.7 5.4 1.1-.4 2.7-.8 3.5-.8s.7-.8-.3-2c-2.5-3 .4-5.7 3.5-3.1 2.1 1.7 2.2 1.5 1.3-3.1-1-5.2-4.9-14.5-5.9-14.5-.1 0-.2.2-.2.6 0 1.3-1.6 3.9-3.6 5.7-2.7 2.5-4.4 3.1-7.2 2.5m-34.9 9.9c-.9 0-3.1 2-5 4.5s-5.5 5.2-8 6c-3 1-5 2.8-6.2 5.5-1 2.3-3.7 5-6.5 6.5-2.7 1.4-5.6 4-6.4 5.9-1.4 3-1.9 3.3-4.5 1.9-2.4-1.3-3.2-1.1-4.7 1-1 1.4-1.5 3.9-1 5.8 1.6 6.9 4.7 16.6 5.7 18.2 1.3 2 14.4 4.6 17.7 3.6 1.3-.4 4 .1 6 1.2 2.5 1.3 4.3 1.5 5.7.6 2.1-1.3 10.6-18.8 10.6-21.8 0-.9 1.5-2.6 3.3-3.8l3.3-2.2-2.7-3.7c-4.4-6.1-4.6-10.6-.7-15.8l3.4-4.6-4.2-4.4c-2.4-2.5-5-4.4-5.8-4.4zm-116.8 6.6c-2.7 0 1.3 6.4 7.6 12.6 3 2.9 6.4 7.1 7.6 9.3 1.1 2.2 4.3 7 7.1 10.6 2.8 3.6 6.3 9.6 7.8 13.2 2.9 6.7 11.6 17.4 16.5 20.2 5.2 3 10.9-3.2 9.3-10.2-.5-2.1-2.6-5.8-4.7-8.2s-5.2-5.8-6.8-7.6c-1.6-1.8-3-3.9-3-4.6-.2-3.9-2.5-7-7.3-9.9-5-3.1-7.2-5-17.7-16.1-4-4.3-13-9.2-16.4-9.3zm161.7 24c-.5-.2-1.9.5-4.4 1.8-3 1.6-5.2 1.7-10.8.7-6.5-1.2-7.2-1.1-10.1 1.8-2.1 2.1-3.4 5.4-4.1 10.4-.5 4-2 8.7-3.2 10.4-2 2.9-2 3.5-.2 6.3 1.1 1.7 1.7 4.3 1.2 5.7-.4 1.4-.4 3.2 0 3.9 1 1.6 2.1 1.7 4.4.2 1.4-.9 1.5-2.2.4-6.3-1.2-4.5-1.1-5.5 1.2-7.7 2.6-2.6 2.6-2.6 4.6 2.3 1.1 2.7 3.2 5.5 4.7 6.3 2.3 1.2 2.7 1 2.7-2 0-1.9-.9-5.1-2-7.2-2.4-4.6-1.5-7.4 3.1-9.9 4.1-2.2 1.5-2.6-5.1-.7-3.8 1.1-5 .9-7.1-1.2-5.7-5.7 5.1-11.9 13.1-7.7 4.5 2.4 8.8.9 11-3.8.8-2.2 1.2-3.1.6-3.3zm42.8 13.1c-1.6 0-4.3.8-5.9 1.7-2.9 1.6-2.8 1.8 3.3 4.7 5.8 2.8 6.1 3.2 3.9 4.8-3.7 2.7-1.7 7.3 3.2 7.3 2.2 0 8.5 2.3 14.2 5.1 8.2 4.1 10.7 6.1 12.5 9.9 2.3 4.7 2.3 4.8-1.1 7-2.9 1.9-3.1 2.4-1.3 3.4 1.2.7 3.4.8 4.9.3s3-.1 4.7 1.1v-36c-.2-.1-.5-.2-.7-.3l-8.5-3.8-6.1 3.5c-3.4 1.9-7.1 4.7-8.2 6.1-2.1 2.6-2.1 2.6-5-1-1.6-2-2.9-4.6-2.9-5.8.1-3.6-3.9-8-7-8zm-143.8 33.6c-3.8.1-6.7 1.2-6.7 3.4 0 1.9 12.9 5.6 15.9 4.7 1.5-.5 5.5.1 9 1.2 3.4 1.1 10.1 2.6 14.8 3.2 4.7.7 9.3 1.3 10.2 1.4.9.1 1.9-.3 2.3-.9.7-1.1-7.3-5.5-9.9-5.5-.7 0-3-1.2-5-2.7-3.2-2.4-4.4-2.5-9.9-1.3-5 1.1-6.8 1-9.2-.5-3.2-2.1-7.8-3.1-11.5-3zm144.3 33.2c-2-.1-3.6.5-6.3 1.8-2.7 1.4-6.5 2.9-8.3 3.3-3.4.8-10.3 9.5-8.8 11.1.5.5.2 1.6-.6 2.6-1.6 2-5.1.7-9.9-3.7-2.6-2.4-3.1-2.4-7.9-.5-2.9 1.2-6.5 4.1-8.3 6.6-1.7 2.5-4.2 4.9-5.6 5.4-1.6.5-2.4 1.8-2.2 3.7.3 2.9-.5 3.2-4.3 1.7-1.4-.5-3 1.1-5.3 5.5-3.7 7.1-10.5 12.3-16 12.3-2 0-10.3 2.8-18.3 6.2-14.2 6-14.7 6.4-16.8 11.9-1.2 3.1-1.8 7-1.4 8.5.4 1.6.1 8.2-.7 14.7-1 8.6-1 13.9.1 19.5 1.3 6.8 1.2 8.4-1 13.6-1.4 3.3-3.5 6.3-4.6 6.8-3.2 1.2-1.1 4.6 3.8 6.2 3.7 1.2 5.7.9 13-1.8 4.7-1.8 12.7-3.7 17.7-4.2 5.1-.5 11.8-2.3 15.2-4 7.5-3.8 18.9-6.7 30.8-7.9 8.1-.8 9.5-.6 13.7 2.2 2.8 1.8 5.9 5.7 7.7 9.5 1.7 3.5 3.2 5.8 3.5 5 .3-.7 3.2-3.1 6.4-5.3 7.6-5.1 9.8-3.3 4.1 3.2-2.3 2.7-3.9 5.2-3.4 5.7s1.4-.2 2.1-1.5c1.7-3.1 3.8-2.9 3.8.3 0 1.4.7 4 1.5 5.8 1.1 2.4 1.1 4-.2 6.2-1.4 2.6-1.2 3.3 1.5 5.4 5.1 4 11.6 5.3 15 3.1 2.7-1.8 3.2-1.6 6 1.3l3.1 3.3 4.6-3.6c3.3-2.5 6.3-3.6 10.3-3.6 1.7 0 3-.2 4.1-.5v-127.7c-.2.2-.3.4-.4.7-2.5 3.4-5.2 6.4-6.1 6.7-.9.3-6.2-2.7-11.8-6.6-12.1-8.6-13.5-11.5-8.5-19 3.8-5.8 3.5-6.3-6.8-9.1-2-.5-3.4-.8-4.5-.8zm-462.7 3.3-2.1 4.5c-2.7 5.9-14.2 16.1-19.5 17.2-5.6 1.2-7.7 6.3-6.5 16 .8 6.7.6 7.9-3.2 14.1-3.7 6.1-4.1 7.4-3.3 13.7 1 7.8 1.5 8.9 5.2 11.1 3.3 1.9 2.7 1.9 8.7.1 5.6-1.7 7.5-5 10.9-19 1.1-4.4 4.7-15.7 8.2-25.2 6.4-17.7 6.8-21.2 3.1-29.3l-1.5-3.2z" style="fill:#f3f4a8" transform="translate(0 -78.829)" id="shape3-6"/>

<path class="st3" d="m54.4 1087.5 66.2-55.8v29.7c132.5-3 263.7 15.8 364.8 105.8-72.5-49.4-162.7-87.2-364.8-50.6v31.5l-66.2-60.6z" transform="translate(214.771 -454.818)" id="shape5-11"/>
<path class="st3" d="m158.3 1154.2 35.1-106.3 21.1 33.3c108.7-62.7 194 2.7 242.1 91.9-53.5-74.5-132.4-71.8-205.7-31l20.2 34.1-112.8-22z" transform="translate(626.881 -419.388)" id="shape6-13"/>
<path class="st3" d="m220.8 1153.4 31.5-33.5 1.3 16.7c49.1-5.5 59.9-33 61.5-54.1 4.6 45-12.2 74.5-59.1 82.6l1 16.2-36.2-27.9z" transform="translate(874.604 -398.327)" id="shape7-15"/>
<path class="st3" d="m351.6 1128.6-40.7-21.4 4.2 16.2c-48.2 10.9-67.4-11.6-75.8-31 10.3 44 35.9 66.5 82.8 58.8l4.3 15.7 25.2-38.3z" transform="translate(948.3 -455.881)" id="shape8-17"/>
<path class="st3" d="m148.7 1186.4 15.8-43.2 7.8 14.8c43-24.4 42.1-53.9 35.3-73.9 21.9 39.5 18.1 73.3-21.8 99.2l7.3 14.5-44.4-11.4z" transform="translate(588.879 -333.125)" id="shape9-19"/>
<path class="st3" d="m92.7 1196.7 34.6-44.5 4.1 19.9c135.7 3.2 198.5-33.3 243.9-73.4-59.3 76.9-177.9 102.4-236.8 107.3l3.6 19.3-49.4-28.6z" transform="translate(366.746 -224.391)" id="shape10-21"/>
</g>
</svg>
