<svg id="svg-function-trader" xmlns="http://www.w3.org/2000/svg" viewBox="0 0 519 502">
<defs>
<style>
:root{
--on-b69d7e:#b69d7e;
--on-c5ae8c:#c5ae8c;
--on-ddcaa9:#ddcaa9;
--on-dedede:#dedede;
--on-ededed:#ededed;
--on-ffffff:#ffffff;
}
.trd-st1,.trd-st2,.trd-st3,.trd-st4,.trd-st5,.trd-st6,.trd-st7 {fill:var(--on-ddcaa9);stroke:none;stroke-linecap:round;stroke-linejoin:round;stroke-width:0.75;}
.trd-st3,.trd-st4,.trd-st5,.trd-st6,.trd-st7 {fill:var(--on-c5ae8c);}
.trd-st4,.trd-st5,.trd-st6,.trd-st7 {fill:var(--on-b69d7e);}
.trd-st5,.trd-st6,.trd-st7 {fill:var(--on-ffffff);}
.trd-st6,.trd-st7 {fill:var(--on-dedede);}
.trd-st7 {fill:var(--on-ededed);}
</style>
</defs>
<g id="trd-13">
<g id="trd-14" transform="translate(65.216 -423.901)"><path class="trd-st1" d="M6.63 478.9h234.98l6 22.96H0l6.63-22.96Z"/></g>
<g id="trd-15" transform="translate(65.216 -165.631)"><path class="trd-st2" d="m0 243.59 24.43 258.27h205.79l17.39-258.27H0Z"/></g>
<g id="trd-16" transform="translate(124.842 -341.809)"><path class="trd-st3" d="M0 467.74c28.57 2.27 55.69 1.03 87.58 10.75 13.87-5.38 26.5-12.61 37.68-24.19-10.36 16.95-17.19 36.39-34.99 47.56L0 467.74Z"/></g>
<g id="trd-17" transform="translate(149.893 -269.229)"><path class="trd-st3" d="M79.92 498.14c0 2.06-16.57 3.72-37.27 3.72 0 0-42.65-1.66-42.65-3.72 0-2.07 42.65-3.73 42.65-3.73 20.7 0 37.27 1.66 37.27 3.73Z"/></g>
<g id="trd-18" transform="translate(157.139 -247.31)"><path class="trd-st3" d="M79.09 497.93c0 2.07-2.28 3.93-22.98 3.93 0 0-56.11-1.86-56.11-3.93 0-2.07 56.11-3.72 56.11-3.72 20.7 0 22.98 1.65 22.98 3.72Z"/></g>
<g id="trd-19" transform="translate(157.139 -190.032)"><path class="trd-st3" d="M73.91 498.34c0 1.86-2.28 3.52-21.53 3.52 0 0-52.38-1.66-52.38-3.52 0-2.07 52.38-3.72 52.38-3.72 19.25 0 21.53 1.65 21.53 3.72Z"/></g>
<g id="trd-20" transform="translate(269.352 -478.904)"><path class="trd-st3" d="M6.63 478.9h234.98l6.21 22.96H0l6.63-22.96Z"/></g>
<g id="trd-21" transform="translate(269.352 -220.635)"><path class="trd-st2" d="m0 243.59 24.64 258.27h205.79l17.18-258.27H0Z"/></g>
<g id="trd-22" transform="translate(328.771 -396.812)"><path class="trd-st3" d="M125.26 467.74c-28.57 2.27-55.7 1.03-87.58 10.75-13.66-5.38-26.5-12.61-37.68-24.19 10.35 16.95 17.18 36.39 34.99 47.56l90.27-34.12Z"/></g>
<g id="trd-23" transform="translate(354.03 -324.232)"><path class="trd-st3" d="M80.12 498.14c0 2.06-16.77 3.72-37.47 3.72 0 0-42.65-1.66-42.65-3.72 0-2.07 42.65-3.73 42.65-3.73 20.7 0 37.47 1.66 37.47 3.73Z"/></g>
<g id="trd-24" transform="translate(361.276 -302.314)"><path class="trd-st3" d="M79.09 497.93c0 2.27-2.28 3.93-22.98 3.93 0 0-56.11-1.66-56.11-3.93 0-2.07 56.11-3.72 56.11-3.72 20.7 0 22.98 1.65 22.98 3.72Z"/></g>
<g id="trd-25" transform="translate(361.276 -245.035)"><path class="trd-st3" d="M73.91 498.34c0 1.86-2.07 3.52-21.53 3.52 0 0-52.38-1.66-52.38-3.52 0-2.07 52.38-3.72 52.38-3.72 19.46 0 21.53 1.65 21.53 3.72Z"/></g>
<g id="trd-26" transform="translate(224.426 -263.025)"><path class="trd-st4" d="M272.25 473.32c0-15.92-61.07-28.74-136.23-28.74C60.87 444.58 0 457.4 0 473.32c0 15.72 60.87 28.54 136.02 28.54 75.16 0 136.23-12.82 136.23-28.54Z"/></g>
<g id="trd-27" transform="translate(224.426 -205.127)"><path class="trd-st3" d="m0 411.7 2.07 77.34 60.87 12.82c53.83-9.93 102.48-9.1 149.06-3.72l59.01-9.93 1.24-76.3C245.54 450.58 20.5 457.4 0 411.7Z"/></g>
<g id="trd-28" transform="translate(221.32 -41.563)"><path class="trd-st2" d="m273.91 324.65 5.59 44.66.83 63.48c2.89 14.27 4.34 29.37 17.59 38.46-50.72 23.58-97.72 29.16-144.09 30.61L0 480.15l9.52-124.07 6.01-27.92-10.35-2.69 268.73-.82Z"/></g>
<g id="trd-29" transform="translate(236.434 -174.834)"><path class="trd-st3" d="m0 496.17 113.25-3.72c34.16 2.27 22.77 10.55-2.07 9.3L0 496.17Z"/></g>
<g id="trd-30" transform="translate(277.634 -142.427)"><path class="trd-st3" d="m0 498.92 125.88-1.86c37.88 1.03 25.46 5.37-2.28 4.75L0 498.92Z"/></g>
<g id="trd-31" transform="translate(261.899 -72.479)"><path class="trd-st3" d="M0 498.86 100.2 497c30.02 1.24 20.09 5.58-1.86 4.76L0 498.86Z"/></g>
<g id="trd-32" transform="translate(325.666 -119.995)"><path class="trd-st3" d="m0 494.06 88.82-5.17c26.71 3.1 18.01 14.48-1.66 12.82L0 494.06Z"/></g>
<g id="trd-33" transform="translate(232.293 -263.49)"><path class="trd-st5" d="M0 480.61c8.49-6.41 13.25-15.51 16.56-25.64 3.94-4.96 13.87-7.45 23.81-9.93l6.21-11.37 3.73 1.03c22.36-1.44 40.79-9.92 54.45-26.46 10.35-6 32.5 9.09 48.86 13.64l31.26-21.71 51.97 36.81 2.48 35.57 8.08 11.78C190.26 507.7 48.45 509.77 0 480.61Z"/></g>
<g id="trd-34" transform="translate(284.88 -307.07)"><path class="trd-st6" d="M25.67 499.38c0 1.44-5.79 2.48-12.83 2.48S0 500.82 0 499.38c0-1.24 5.8-2.28 12.84-2.28s12.83 1.04 12.83 2.28Z"/></g>
<g id="trd-35" transform="translate(324.424 -324.026)"><path class="trd-st6" d="M25.67 499.58c0 1.24-5.79 2.28-12.83 2.28S0 500.82 0 499.58c0-1.44 5.8-2.48 12.84-2.48s12.83 1.04 12.83 2.48Z"/></g>
<g id="trd-36" transform="translate(339.123 -311.412)"><path class="trd-st6" d="M25.67 499.38c0 1.44-5.79 2.48-12.83 2.48S0 500.82 0 499.38c0-1.24 5.8-2.28 12.84-2.28s12.83 1.04 12.83 2.28Z"/></g>
<g id="trd-37" transform="translate(326.494 -286.598)"><path class="trd-st6" d="M25.67 499.58c0 1.24-5.79 2.28-12.83 2.28S0 500.82 0 499.58c0-1.24 5.8-2.27 12.84-2.27s12.83 1.03 12.83 2.27Z"/></g>
<g id="trd-38" transform="translate(287.571 -286.185)"><path class="trd-st6" d="M25.67 499.58c0 1.24-5.79 2.28-12.83 2.28S0 500.82 0 499.58c0-1.44 5.8-2.48 12.84-2.48s12.83 1.04 12.83 2.48Z"/></g>
<g id="trd-39" transform="translate(353.408 -272.537)"><path class="trd-st6" d="M25.47 499.58c0 1.24-5.59 2.28-12.84 2.28-7.04 0-12.63-1.04-12.63-2.28 0-1.24 5.59-2.48 12.63-2.48 7.25 0 12.84 1.24 12.84 2.48Z"/></g>
<g id="trd-40" transform="translate(406.823 -286.598)"><path class="trd-st6" d="M25.67 499.38c0 1.44-5.79 2.48-12.83 2.48S0 500.82 0 499.38c0-1.24 5.8-2.28 12.84-2.28s12.83 1.04 12.83 2.28Z"/></g>
<g id="trd-41" transform="translate(395.644 -310.792)"><path class="trd-st6" d="M25.67 499.38c0 1.44-5.79 2.48-12.83 2.48S0 500.82 0 499.38c0-1.24 5.8-2.28 12.84-2.28s12.83 1.04 12.83 2.28Z"/></g>
<g id="trd-42" transform="translate(424.835 -329.195)"><path class="trd-st6" d="M25.67 499.38c0 1.44-5.79 2.48-12.83 2.48S0 500.82 0 499.38c0-1.24 5.8-2.28 12.84-2.28s12.83 1.04 12.83 2.28Z"/></g>
<g id="trd-43" transform="translate(410.55 -319.821)"><path class="trd-st7" d="M25.26 500.75c0 1.24-6.01 1.45-12.84.62-7.04-.82-12.63-2.68-12.42-3.92 0-1.24 6-1.66 12.84-.83 7.04 1.03 12.63 2.69 12.42 4.13Z"/></g>
<g id="trd-44" transform="translate(435.808 -295.888)"><path class="trd-st7" d="M25.47 500.6c-.21 1.24-6.01 1.66-13.05.83C5.38 500.39 0 498.74 0 497.5c.21-1.45 6-1.65 13.04-.83 7.04.83 12.63 2.69 12.43 3.93Z"/></g>
<g id="trd-45" transform="translate(441.398 -323.803)"><path class="trd-st7" d="M25.26 500.6c-.21 1.24-6.01 1.66-13.04.83-6.84-1.04-12.43-2.69-12.22-4.14 0-1.24 5.8-1.44 12.84-.62 7.04.83 12.63 2.69 12.42 3.93Z"/></g>
<g id="trd-46" transform="translate(347.404 -338.025)"><path class="trd-st7" d="M25.47 500.56c-.21 1.44-6.01 1.65-13.05.82-7.04-.82-12.63-2.69-12.42-3.93.21-1.44 6-1.65 13.04-.82 7.04.82 12.63 2.68 12.43 3.93Z"/></g>
<g id="trd-47" transform="translate(311.587 -330.42)"><path class="trd-st7" d="M25.47 500.6c-.21 1.24-6.01 1.66-13.05.83-7.04-1.04-12.63-2.69-12.42-4.14.21-1.24 6-1.44 13.04-.62 7.04.83 12.63 2.69 12.43 3.93Z"/></g>
<g id="trd-48" transform="translate(289.849 -318.588)"><path class="trd-st7" d="M25.47 500.56c-.21 1.44-6.01 1.65-13.05.82-7.04-.82-12.63-2.69-12.42-3.93.21-1.44 6-1.65 13.04-.82 6.84.82 12.43 2.68 12.43 3.93Z"/></g>
<g id="trd-49" transform="translate(369.143 -308.456)"><path class="trd-st7" d="M25.26 500.56c-.21 1.44-6.01 1.65-13.04.82-6.84-.82-12.43-2.69-12.22-3.93 0-1.24 5.8-1.65 12.84-.82 7.04 1.03 12.63 2.68 12.42 3.93Z"/></g>
<g id="trd-50" transform="translate(350.51 -321.177)"><path class="trd-st7" d="M25.47 500.66c-.21 1.24-6.01 1.66-13.05.62C5.38 500.46 0 498.59 0 497.35c.21-1.24 6-1.65 13.04-.82 7.04 1.03 12.63 2.68 12.43 4.13Z"/></g>
<g id="trd-51" transform="translate(398.542 -327.587)"><path class="trd-st7" d="M25.47 500.66c-.21 1.24-6.01 1.66-13.05.62-7.04-.82-12.63-2.69-12.42-3.93.21-1.24 6-1.65 13.04-.62 7.04.83 12.43 2.48 12.43 3.93Z"/></g>
<g id="trd-52" transform="translate(343.885 -281.207)"><path class="trd-st7" d="M25.26 500.6c0 1.24-5.8 1.66-12.84.83C5.38 500.39-.21 498.74 0 497.5c.21-1.45 6-1.65 13.04-.83 6.84.83 12.43 2.69 12.22 3.93Z"/></g>
<g id="trd-53" transform="translate(328.15 -274.59)"><path class="trd-st7" d="M25.26 500.6c0 1.24-6.01 1.66-12.84.83C5.38 500.39-.21 498.74 0 497.5c0-1.45 6-1.65 12.84-.83 7.04.83 12.63 2.69 12.42 3.93Z"/></g>
<g id="trd-54" transform="translate(305.583 -292.58)"><path class="trd-st7" d="M25.47 500.6c-.21 1.24-6.01 1.66-13.05.83C5.38 500.39-.21 498.74 0 497.5c.21-1.45 6-1.65 13.04-.83 7.04.83 12.43 2.69 12.43 3.93Z"/></g>
<g id="trd-55" transform="translate(303.72 -302.046)"><path class="trd-st7" d="M25.47 500.56c-.21 1.44-6.01 1.65-13.05.82-7.04-.82-12.63-2.69-12.42-3.93.21-1.44 6-1.65 13.04-.82 7.04.82 12.63 2.68 12.43 3.93Z"/></g>
<g id="trd-56" transform="translate(268.731 -296.363)"><path class="trd-st7" d="M25.26 500.66c0 1.24-6.01 1.66-12.84.62-7.04-.82-12.63-2.48-12.42-3.93 0-1.24 6-1.65 12.84-.62 7.04.83 12.63 2.69 12.42 3.93Z"/></g>
<g id="trd-57" transform="translate(274.528 -315.739)"><path class="trd-st7" d="M25.47 500.6c-.21 1.24-6.01 1.66-13.05.83-7.04-1.04-12.63-2.69-12.42-4.14.21-1.24 6-1.65 13.04-.62 7.04.83 12.43 2.69 12.43 3.93Z"/></g>
<g id="trd-58" transform="translate(288.192 -272.935)"><path class="trd-st7" d="M25.47 500.6c-.21 1.24-6.01 1.66-13.05.83C5.38 500.39-.21 498.74 0 497.5c.21-1.45 6-1.65 13.04-.83 7.04.83 12.63 2.69 12.43 3.93Z"/></g>
<g id="trd-59" transform="translate(424.835 -281.207)"><path class="trd-st7" d="M25.47 500.6c-.21 1.24-6.01 1.66-13.05.83C5.38 500.39-.21 498.74 0 497.5c.21-1.45 6-1.65 13.04-.83 7.04.83 12.63 2.69 12.43 3.93Z"/></g>
<g id="trd-60" transform="translate(439.742 -315.532)"><path class="trd-st7" d="M25.47 500.6c-.21 1.24-6.01 1.66-13.05.83C5.38 500.39-.21 498.74 0 497.5c.21-1.45 6-1.65 13.04-.83 7.04.83 12.43 2.69 12.43 3.93Z"/></g>
<g id="trd-61" transform="translate(3.106 -114.763)"><path class="trd-st4" d="M260.04 476.22c0-14.27-58.18-25.64-130.02-25.64S0 461.95 0 476.22c0 14.06 58.18 25.64 130.02 25.64s130.02-11.58 130.02-25.64Z"/></g>
<g id="trd-62" transform="translate(2.898 -63.275)"><path class="trd-st3" d="m0 421.42 2.07 69.06 58.18 11.38c51.34-8.89 97.92-8.07 142.44-3.31l56.1-8.89 1.45-68.03C234.57 456.16 19.67 462.16 0 421.42Z"/></g>
<g id="trd-63"><path class="trd-st2" d="m261.9 426.38 5.17 19.23.83 26.88c2.9 6 4.14 12.41 16.77 16.34-48.44 10.13-93.37 12.41-137.47 13.03L0 492.76l9.11-52.94 6-11.78-10.14-1.24c89.23-12.41 168.11-6.62 256.93-.42Z"/></g>
<g id="trd-64" transform="translate(121.296 -56.381)"><path class="trd-st3" d="m128.6 496.82-108.08-3.3c-32.71 1.86-21.94 9.3 1.87 8.27l106.21-4.97Z"/></g>
<g id="trd-65" transform="translate(10.559 -115.304)"><path class="trd-st5" d="M0 482.75c8.07-5.58 12.63-13.64 15.94-22.74 3.52-4.55 13.04-6.62 22.57-8.89l6-10.14 3.52.83c21.53-1.24 39.13-8.89 51.97-23.78 9.94-5.17 31.26 8.27 46.79 12.41L176.6 411l49.69 32.88 2.28 31.64 7.66 10.75C181.98 507.15 46.38 508.81 0 482.75Z"/></g>
<g id="trd-66" transform="translate(60.868 -154.259)"><path class="trd-st6" d="M24.43 499.79c0 1.03-5.38 2.07-12.21 2.07-6.63 0-12.22-1.04-12.22-2.07 0-1.24 5.59-2.28 12.22-2.28 6.83 0 12.21 1.04 12.21 2.28Z"/></g>
<g id="trd-67" transform="translate(98.756 -169.354)"><path class="trd-st6" d="M24.43 499.79c0 1.03-5.38 2.07-12.21 2.07-6.84 0-12.22-1.04-12.22-2.07 0-1.24 5.38-2.28 12.22-2.28 6.83 0 12.21 1.04 12.21 2.28Z"/></g>
<g id="trd-68" transform="translate(112.627 -158.187)"><path class="trd-st6" d="M24.43 499.79c0 1.24-5.38 2.07-12.21 2.07-6.63 0-12.22-.83-12.22-2.07 0-1.24 5.59-2.07 12.22-2.07 6.83 0 12.21.83 12.21 2.07Z"/></g>
<g id="trd-69" transform="translate(100.826 -135.855)"><path class="trd-st6" d="M24.43 499.79c0 1.24-5.59 2.07-12.21 2.07-6.84 0-12.22-.83-12.22-2.07 0-1.24 5.38-2.07 12.22-2.07 6.62 0 12.21.83 12.21 2.07Z"/></g>
<g id="trd-70" transform="translate(63.353 -135.648)"><path class="trd-st6" d="M24.43 499.79c0 1.24-5.38 2.07-12.21 2.07-6.63 0-12.22-.83-12.22-2.07 0-1.24 5.59-2.07 12.22-2.07 6.83 0 12.21.83 12.21 2.07Z"/></g>
<g id="trd-71" transform="translate(126.291 -123.241)"><path class="trd-st6" d="M24.43 499.79c0 1.03-5.59 2.07-12.21 2.07-6.84 0-12.22-1.04-12.22-2.07 0-1.24 5.38-2.07 12.22-2.07 6.62 0 12.21.83 12.21 2.07Z"/></g>
<g id="trd-72" transform="translate(177.222 -136.062)"><path class="trd-st6" d="M24.64 499.79c0 1.03-5.59 2.07-12.42 2.07-6.63 0-12.22-1.04-12.22-2.07 0-1.24 5.59-2.07 12.22-2.07 6.83 0 12.42.83 12.42 2.07Z"/></g>
<g id="trd-73" transform="translate(166.663 -157.567)"><path class="trd-st6" d="M24.43 499.79c0 1.03-5.38 2.07-12.21 2.07-6.63 0-12.22-1.04-12.22-2.07 0-1.24 5.59-2.28 12.22-2.28 6.83 0 12.21 1.04 12.21 2.28Z"/></g>
<g id="trd-74" transform="translate(194.613 -174.109)"><path class="trd-st6" d="M24.43 499.79c0 1.24-5.38 2.07-12.21 2.07-6.63 0-12.22-.83-12.22-2.07 0-1.24 5.59-2.07 12.22-2.07 6.83 0 12.21.83 12.21 2.07Z"/></g>
<g id="trd-75" transform="translate(180.942 -165.608)"><path class="trd-st7" d="M24.23 500.8c-.21 1.03-5.8 1.45-12.42.62-6.84-.83-12.01-2.48-11.8-3.51 0-1.25 5.59-1.45 12.42-.63 6.62.63 12.01 2.28 11.8 3.52Z"/></g>
<g id="trd-76" transform="translate(205.166 -144.264)"><path class="trd-st7" d="M24.23 500.75c0 1.24-5.59 1.45-12.42.62-6.63-.82-12.01-2.27-11.8-3.51.2-1.24 5.79-1.45 12.42-.62 6.62.83 12.01 2.27 11.8 3.51Z"/></g>
<g id="trd-77" transform="translate(210.342 -169.223)"><path class="trd-st7" d="M24.23 500.69c0 1.24-5.59 1.45-12.42.83-6.63-.83-12.01-2.48-11.8-3.72.2-1.04 5.79-1.45 12.42-.62 6.62.82 12.01 2.48 11.8 3.51Z"/></g>
<g id="trd-78" transform="translate(120.701 -181.898)"><path class="trd-st7" d="M24.43 500.75c-.21 1.24-5.8 1.45-12.42.62C5.18 500.55 0 499.1 0 497.86c.21-1.24 5.8-1.45 12.42-.62 6.83.83 12.01 2.27 12.01 3.51Z"/></g>
<g id="trd-79" transform="translate(86.328 -175.12)"><path class="trd-st7" d="M24.23 500.8c-.21 1.03-5.59 1.45-12.42.62-6.63-.83-12.01-2.48-11.8-3.51.2-1.25 5.79-1.45 12.42-.63 6.62.63 12.01 2.28 11.8 3.52Z"/></g>
<g id="trd-80" transform="translate(65.624 -164.529)"><path class="trd-st7" d="M24.23 500.75c-.21 1.24-5.59 1.45-12.42.62-6.63-.82-12.01-2.27-11.8-3.51.2-1.24 5.79-1.45 12.42-.62 6.62.83 12.01 2.27 11.8 3.51Z"/></g>
<g id="trd-81" transform="translate(141.192 -155.476)"><path class="trd-st7" d="M24.23 500.8c0 1.03-5.59 1.45-12.42.62-6.63-.83-12.01-2.27-11.8-3.51.2-1.25 5.79-1.45 12.42-.63 6.83.83 12.01 2.28 11.8 3.52Z"/></g>
<g id="trd-82" transform="translate(123.6 -166.849)"><path class="trd-st7" d="M24.43 500.8c-.21 1.03-5.8 1.45-12.42.62C5.18 500.59 0 498.94 0 497.91c.21-1.25 5.8-1.45 12.42-.63 6.83.63 12.01 2.28 12.01 3.52Z"/></g>
<g id="trd-83" transform="translate(169.349 -172.593)"><path class="trd-st7" d="M24.23 500.75c0 1.24-5.59 1.45-12.42.62-6.63-.82-12.01-2.27-11.8-3.51.2-1.24 5.79-1.45 12.42-.62 6.83.83 12.01 2.27 11.8 3.51Z"/></g>
<g id="trd-84" transform="translate(117.176 -131.237)"><path class="trd-st7" d="M24.23 500.75c-.21 1.24-5.59 1.45-12.42.62-6.63-.82-12.01-2.27-11.8-3.51.2-1.03 5.79-1.45 12.42-.62 6.62.83 12.01 2.27 11.8 3.51Z"/></g>
<g id="trd-85" transform="translate(102.068 -125.179)"><path class="trd-st7" d="M24.22 500.69c0 1.24-5.59 1.45-12.42.83C5.18 500.69-.21 499.04 0 498v-.2c.21-1.04 5.8-1.45 12.42-.62 6.63.82 12.01 2.48 11.8 3.51Z"/></g>
<g id="trd-86" transform="translate(80.738 -141.369)"><path class="trd-st7" d="M24.23 500.75c-.21 1.24-5.8 1.45-12.42.62-6.63-.82-12.01-2.27-11.8-3.51 0-1.03 5.59-1.45 12.42-.62 6.62.83 12.01 2.27 11.8 3.51Z"/></g>
<g id="trd-87" transform="translate(78.874 -149.686)"><path class="trd-st7" d="M24.23 500.8c0 1.03-5.59 1.45-12.42.62-6.63-.83-12.01-2.48-11.8-3.51.2-1.25 5.79-1.45 12.42-.83 6.62.83 12.01 2.48 11.8 3.72Z"/></g>
<g id="trd-88" transform="translate(45.34 -144.724)"><path class="trd-st7" d="M24.22 500.8c0 1.03-5.59 1.45-12.42.62-6.62-.83-12.01-2.48-11.8-3.51.21-1.25 5.8-1.45 12.42-.63 6.63.63 12.01 2.28 11.8 3.52Z"/></g>
<g id="trd-89" transform="translate(50.925 -162.047)"><path class="trd-st7" d="M24.23 500.75c0 1.24-5.59 1.45-12.42.62-6.63-.62-12.01-2.27-11.8-3.51.2-1.03 5.79-1.45 12.42-.62 6.83.83 12.01 2.48 11.8 3.51Z"/></g>
<g id="trd-90" transform="translate(63.974 -123.793)"><path class="trd-st7" d="M24.43 500.75c-.21 1.24-5.8 1.45-12.42.62C5.18 500.55 0 499.1 0 497.86c.21-1.24 5.8-1.45 12.42-.62 6.83.83 12.01 2.27 12.01 3.51Z"/></g>
<g id="trd-91" transform="translate(194.607 -131.237)"><path class="trd-st7" d="M24.23 500.75c-.21 1.24-5.59 1.45-12.42.62-6.63-.82-12.01-2.27-11.8-3.51.2-1.03 5.79-1.45 12.42-.62 6.62.83 12.01 2.27 11.8 3.51Z"/></g>
<g id="trd-92" transform="translate(208.691 -161.84)"><path class="trd-st7" d="M24.43 500.75c-.21 1.24-5.8 1.45-12.42.62C5.18 500.75 0 499.1 0 497.86c.21-1.03 5.8-1.45 12.42-.62 6.83.83 12.01 2.48 12.01 3.51Z"/></g>
<g id="trd-93" transform="translate(21.325 -141.981)"><path class="trd-st5" d="M0 483.79h61.08c0 24.81-61.08 23.37-61.08 0Z"/></g>
</g>
</svg>