<svg id="svg-function-breeder" xmlns="http://www.w3.org/2000/svg" viewBox="0 0 342 569">
<defs>
<style>
:root{
--on-7eba98:#7eba98;
--on-c2dbce:#c2dbce;
--on-ced146:#ced146;
--on-f4f044:#f4f044;
--on-2f9f4b:#2f9f4b;
--on-d2b373:#d2b373;
--on-ecf4f7:#ecf4f7;
}
.brd-st1,.brd-st2,.brd-st3{fill:var(--on-ecf4f7);stroke:none;stroke-linecap:round;stroke-linejoin:round;stroke-width:0.75;}
.brd-st2,.brd-st3{fill:var(--on-2f9f4b);}
.brd-st3{fill:var(--on-d2b373);}
.brd-st4{fill:var(--on-ced146);fill-opacity:0.9;stroke:none;stroke-linecap:round;stroke-linejoin:round;stroke-width:0.75;}
.brd-st5{fill:var(--on-f4f044);stroke:none;stroke-linecap:round;stroke-linejoin:round;stroke-width:0.75;}
.brd-st6{fill:var(--on-7eba98);fill-opacity:0.76;stroke:none;stroke-linecap:round;stroke-linejoin:round;stroke-width:0.75;}
.brd-st7{fill:var(--on-c2dbce);stroke:none;stroke-linecap:round;stroke-linejoin:round;stroke-width:0.75;}
</style>
</defs>
<g id="brd-32">
<g id="brd-33"><path class="brd-st1" d="M8.07 154.47c-4.34 0-8.07 3.1-8.07 7.23v7.45c0 4.13 3.73 7.44 8.07 7.44h103.94c4.55 0 8.07-3.31 8.07-7.44v-7.45c0-4.13-3.52-7.23-8.07-7.23H8.07Zm2.7 30.39v338.09c0 25.64 21.11 46.11 47.2 46.11 26.29 0 47.41-20.47 47.41-46.11V184.86H10.77Z"/></g>
<g id="brd-34" transform="translate(149.686)"><path class="brd-st1" d="M8.07 154.47c-4.55 0-8.07 3.1-8.07 7.23v7.45c0 4.13 3.52 7.44 8.07 7.44h103.94c4.55 0 8.07-3.31 8.07-7.44v-7.45c0-4.13-3.52-7.23-8.07-7.23H8.07Zm2.7 30.39v338.09c0 25.64 21.11 46.11 47.2 46.11 26.29 0 47.41-20.47 47.41-46.11V184.86H10.77Z"/></g>
<g id="brd-35" transform="translate(200.859 -107.204)"><path class="brd-st2" d="M11.56 567.08c-.62 1.87 3.93 3.52 3.93 0C5.97 351.83 9.7 211.22 69.94 144.63c25.88-3.31 33.75 11.17 41.82 25.85 3.94-1.86 4.97-5.17.21-11.99 6.42 5.79 15.73 8.47 9.52-4.14-9.11-16.54-22.15-27.71-39.95-32.88-18.64 8.69-26.3 22.33-33.96 35.98-50.1 63.9-57.97 194.79-36.02 409.63Z"/></g>
<g id="brd-36" transform="translate(240.781 -516.332)"><path class="brd-st3" d="M49.48 569.06c-2.07 0-4.97-2.07-6.21-4.96-.41-.62-1.03-.21-1.45-.62-.62 2.27-2.07 3.1-3.52 0-1.24.82-3.1 2.07-3.31.2.41 2.07-.83 2.69-2.49 2.49L28.36 549c-.82 10.34-6.83 5.38-10.35.83-3.72 5.58-7.45 7.65-10.97 3.1-3.31 1.86-6 2.28-7.04-3.1 1.04-8.48 1.45-17.37 4.55-25.64 2.28-1.03 4.97-.83 6.22-4.34 3.31-3.73 6.21-6 7.45 1.03 3.1 0 6.21-1.45 8.9.62 5.18-4.34 7.25-2.27 7.87 2.28 2.9-2.49 4.97-6.41 9.52-3.93 1.87-1.66 4.56 0 7.04 1.03l-3.31 24.81c-1.24 1.25-2.07 1.45-2.9.62l-1.86-10.95-2.49 4.34c3.32 1.45 4.14 3.31 1.66 5.17l6.42 7.65c2.27-2.69 5.79-2.48 10.14-.62l.62-2.07-7.24-2.89c-2.07.41-3.52-.21-2.9-3.52-.42-5.38.62-10.34 3.93-14.27 4.97-3.93 6.21-1.86 6.63 1.86 5.79-2.06 11.59-3.51 17.39-2.89 3.72 2.89.62 6.2-.62 9.51 3.52.83 2.27 3.72 1.86 6.2 4.97-.41 9.32 1.45 13.87 4.14 14.08 3.72 9.94 14.06-1.65 10.96-2.49 2.48-2.7 6.41-10.15 5.37-5.18-.82-7.87-2.89-8.49-5.99.62 3.31-4.76.41-7.45.41l3.52 4.14c3.1 2.89 1.65 5.99-1.24 5.99-5.39.21-10.15-2.48-15.12-4.34 0 3.1-1.03 4.55-2.69 4.55Zm-25.46-27.29 3.31-2.9.41-1.86c2.07-1.03 4.56-.83 7.04-.41v-1.45c-1.45.83-3.1-.21-4.76-2.07-4.55-.83-6.83-2.27-9.73-3.72l-2.07 8.06c4.97-1.86 5.59 1.04 5.8 4.35Z"/></g>
<g id="brd-37" transform="translate(51.38 -107.204)"><path class="brd-st2" d="M11.56 567.08c-.62 1.87 3.93 3.52 3.93 0C5.97 351.83 9.7 211.22 69.94 144.63c25.88-3.31 33.75 11.17 41.82 25.85 3.94-1.86 4.97-5.17.21-11.99 6.42 5.79 15.73 8.47 9.32-4.14-8.91-16.54-21.95-27.71-39.75-32.88-18.64 8.69-26.3 22.33-33.96 35.98-50.1 63.9-57.97 194.79-36.02 409.63Z"/></g>
<g id="brd-38" transform="translate(69.357 -492.681)"><path class="brd-st3" d="M60.04 504.88c-2.48 0-5.8 2.48-7.45 6.2-.62.63-1.25 0-1.66.63-.62-2.69-2.48-3.73-4.35 0-1.45-.83-3.93-2.49-3.93-.21.21-2.69-1.04-3.31-3.11-2.9l-4.97 20.89c-1.03-12.82-8.28-6.83-12.62-1.04-4.56-7.03-9.11-9.51-13.25-3.72-4.15-2.48-7.46-2.89-8.7 3.52 1.45 10.54 1.66 21.09 5.59 31.22 2.69 1.24 6 1.04 7.66 5.17 3.73 4.76 7.25 7.45 8.9-1.24 3.73 0 7.66 1.86 10.98-.62 6.21 5.38 8.48 2.89 9.52-2.9 3.31 3.11 6 7.86 11.59 4.76 2.07 2.07 5.39.21 8.49-1.24l-4.14-29.98c-1.24-1.45-2.48-1.86-3.52-.62L53 546.03l-3.1-5.17c3.93-2.07 4.96-4.13 1.86-6.41l7.87-9.3c2.89 3.1 7.24 2.89 12.21.62l1.04 2.48-8.91 3.51c-2.69-.41-4.34.21-3.72 4.35-.21 6.61.83 12.61 4.97 17.36 6 4.76 7.66 2.28 8.07-2.27 7.04 2.48 14.08 4.14 21.12 3.52 4.35-3.52.62-7.66-.62-11.58 4.14-1.04 2.69-4.55 2.07-7.66 6 .63 11.38-1.44 16.77-4.96 17.18-4.55 12.21-16.95-1.87-13.23-3.1-2.9-3.1-7.65-12.21-6.62-6.42 1.04-9.73 3.52-10.56 7.45 1.03-4.14-5.8-.63-8.9-.63l4.14-4.96c3.72-3.72 2.07-7.24-1.45-7.24-6.63-.2-12.42 2.9-18.43 5.17.21-3.72-1.24-5.37-3.31-5.58Zm-30.85 33.09 4.14 3.72.42 2.27c2.69 1.04 5.59.83 8.49.42v1.65c-1.66-.83-3.73.21-5.8 2.48-5.38 1.24-8.28 3.1-11.8 4.76l-2.49-9.93c6.01 2.28 6.83-1.03 7.04-5.37Z"/></g>
<g id="brd-39" transform="translate(27.536 -14.475)"><path class="brd-st4" d="M61.08 270.68v268.4c0 16.54-13.67 29.98-30.65 29.98C13.66 569.06 0 555.62 0 539.08v-268.4h61.08Z"/></g>
<g id="brd-40" transform="translate(44.72 -158.394)"><path class="brd-st5" d="M27.95 444.58c-3.52 0-6.42 2.89-6.42 6.41 0 3.51 2.9 6.41 6.42 6.41 3.73 0 6.42-2.9 6.42-6.41 0-3.52-2.69-6.41-6.42-6.41ZM3.52 482.21c-1.86 0-3.52 1.66-3.52 3.72 0 1.87 1.66 3.52 3.52 3.52 2.07 0 3.73-1.65 3.73-3.52 0-2.06-1.66-3.72-3.73-3.72Zm10.14 35.98c-2.07 0-3.72 1.66-3.72 3.72 0 1.87 1.65 3.52 3.72 3.52 1.87 0 3.52-1.65 3.52-3.52 0-2.06-1.65-3.72-3.52-3.72Zm9.73 38.05c-3.72 0-6.41 2.9-6.41 6.41 0 3.72 2.69 6.41 6.41 6.41 3.52 0 6.42-2.69 6.42-6.41 0-3.51-2.9-6.41-6.42-6.41Z"/></g>
<g id="brd-41" transform="translate(177.222 -14.475)"><path class="brd-st6" d="M61.08 270.68v268.4c0 16.54-13.67 29.98-30.65 29.98C13.66 569.06 0 555.62 0 539.08v-268.4h61.08Z"/></g>
<g id="brd-42" transform="translate(194.406 -158.394)"><path class="brd-st7" d="M27.95 444.58c-3.52 0-6.42 2.89-6.42 6.41 0 3.51 2.9 6.41 6.42 6.41s6.42-2.9 6.42-6.41c0-3.52-2.9-6.41-6.42-6.41ZM3.52 482.21c-1.86 0-3.52 1.66-3.52 3.72 0 1.87 1.66 3.52 3.52 3.52 2.07 0 3.73-1.65 3.73-3.52 0-2.06-1.66-3.72-3.73-3.72Zm10.14 35.98c-2.07 0-3.72 1.66-3.72 3.72 0 1.87 1.65 3.52 3.72 3.52 1.87 0 3.52-1.65 3.52-3.52 0-2.06-1.65-3.72-3.52-3.72Zm9.53 38.05c-3.52 0-6.42 2.9-6.42 6.41 0 3.72 2.9 6.41 6.42 6.41 3.72 0 6.42-2.69 6.42-6.41 0-3.51-2.7-6.41-6.42-6.41Z"/></g>
</g>
</svg>