<svg id="svg-function-chef" xmlns="http://www.w3.org/2000/svg" viewBox="0 0 639 466">
<defs>
<style>
:root{
--on-2f9f4b:#2f9f4b;
--on-763517:#763517;
--on-87331b:#87331b;
--on-dba171:#dba171;
--on-ecf4f7:#ecf4f7;
--on-ffffff:#ffffff;
}
.chf-st1{fill:var(--on-763517);stroke:none;stroke-linecap:butt;stroke-width:2.25;}
.chf-st2{fill:var(--on-dba171);stroke:none;stroke-linecap:butt;stroke-width:2.25;}
.chf-st3{fill:var(--on-87331b);stroke:none;stroke-linecap:butt;stroke-width:2.25;}
.chf-st5{fill:var(--on-ffffff);stroke:none;stroke-linecap:butt;stroke-width:2.25;}
.chf-st4{fill:var(--on-ecf4f7);stroke:none;stroke-linecap:butt;stroke-width:2.25;}
.chf-st7{fill:var(--on-2f9f4b);stroke:none;stroke-linecap:butt;stroke-width:2.25;}
</style>
</defs>
<g id="chf-30" transform="translate(0 -1.659)">
<g id="chf-31" transform="translate(11.04)"><path class="chf-st1" d="M3.98 271.54c0 44.04-3.98 124.44 52.78 155.65 39.36 22.72 50.87 39.26 245.84 38.64 192.38 0 224.15-19.02 272.93-67.81 48.08-48.08 46.9-83.15 46.9-126.48H3.98Z"/></g>
<g id="chf-32" transform="translate(0 -130.375)"><path class="chf-st2" d="M113.22 134.29h410.57c42.69 0 68.69 37.44 77.06 81.94l30.11 160.07c8.37 44.5-3.37 81.06-64.16 81.94l-456.82 6.61C0 466.45 14.37 401.99 17.38 376.3l18.79-160.07c6.57-55.89 34.37-81.94 77.06-81.94h-.01Z"/></g>
<g id="chf-33" transform="translate(28.268 -158.116)"><path class="chf-st3" d="M101.67 181.63h378.15c39.32 0 63.26 32.21 70.97 70.49l27.74 137.71c7.71 38.28 13.4 70.06-25.92 70.49l-513.29 5.69C0 466.45 8.53 428.58 13.4 389.83l17.31-137.71c6.04-48.08 31.65-70.49 70.97-70.49h-.01Z"/></g>
<g id="chf-34" transform="translate(117.512 -213.849)"><path class="chf-st4" d="M11.28 272.73h380.38c6.25 0 11.27 4.59 11.27 10.28v173.15c0 5.7-5.02 10.29-11.27 10.29H11.28C5.03 466.45 0 461.86 0 456.16V283.01c0-5.69 5.03-10.28 11.28-10.28Z"/></g>
<g id="chf-35" transform="translate(43.345 -160.424)"><path class="chf-st5" d="M242.76 181.68a30.34 9.111-95.83 0 0-6.43 24.43 30.11 9.18-142.19 0 0-2.19-.42 30.318 9.118-105.49 0 0-12.86-15.15 30.318 9.118-105.49 0 0-.65 31.71 30.318 9.118-105.49 0 0 4.11 11.77 30.2 9.153-51.91 0 0-.13.45 29.996 9.216-165.91 0 0-.46-.12 29.996 9.216-165.91 0 0-3.67-.84 30.133 9.174-138.86 0 0-.64-.88 30.318 9.118-105.49 0 0-3.07-17.26 30.318 9.118-105.49 0 0-16.88-26.71 30.318 9.118-105.49 0 0-2.66 22.95 30.133 9.174-138.86 0 0-10.89-5.5 30.318 9.118-105.49 0 0-13.43-16.51 30.318 9.118-105.49 0 0-3.78 13.16 30.318 9.118-105.49 0 0 1.1 13.44 30.318 9.118-105.49 0 0-1.09 10.48 29.996 9.216-165.91 0 0-15.03-7.18 30.2 9.153-51.91 0 0 6.92-14.58 30.131 9.174-40.97 0 0 6.49-16.2 30.131 9.174-40.97 0 0-28.7 12.72 30.131 9.174-40.97 0 0-3.08 2.81 30.34 9.111-95.83 0 0-10.27-17.76 30.34 9.111-95.83 0 0-6.12 29.48 29.996 9.216-165.91 0 0-1.9.88 30.318 9.118-105.49 0 0-14.31-18.77 30.318 9.118-105.49 0 0-3.12 4.42l-.08-.19a30.2 9.153-51.91 0 0-.17-9.38 30.2 9.153-51.91 0 0-5.01-.1 30.318 9.118-105.49 0 0-7.43-5.11 30.318 9.118-105.49 0 0-2.09 1.81 30.318 9.118-105.49 0 0-.7.07 30.318 9.118-105.49 0 0-3.14 4.52 30.11 9.18-142.19 0 0-17.21-3.16 30.11 9.18-142.19 0 0 9.11 17.66 30.318 9.118-105.49 0 0 0 3.21 30.2 9.153-51.91 0 0-8.83 14 30.318 9.118-105.49 0 0-5.98-3.27 30.318 9.118-105.49 0 0-3.42 17.86 30.318 9.118-105.49 0 0-1.23.04 30.318 9.118-105.49 0 0-3.61 7.18 30.11 9.18-142.19 0 0-23.25-6.76 30.11 9.18-142.19 0 0 10.67 19.19 30.2 9.153-51.91 0 0-5.28 6.15 30.2 9.153-51.91 0 0-.5.66 30.34 9.111-95.83 0 0-4.01-2.32 30.34 9.111-95.83 0 0-6.46 19.8 30.2 9.153-51.91 0 0-.56 11.35 30.2 9.153-51.91 0 0 .72.4 30.2 9.153-51.91 0 0-11.2 29.07 30.2 9.153-51.91 0 0 16.6-7.92 30.34 9.111-95.83 0 0 1.37 2.82 30.2 9.153-51.91 0 0-5.82 6.74 30.2 9.153-51.91 0 0-11.54 29.49 30.2 9.153-51.91 0 0 23.69-15.42 30.11 9.18-142.19 0 0 2.65 2.63 30.131 9.174-40.97 0 0-3.61 2.96 30.131 9.174-40.97 0 0-16.16 19.22A30.11 9.18-142.19 0 0 0 362.37a30.11 9.18-142.19 0 0 18.28 25.75 30.11 9.18-142.19 0 0 9.23 6.32 30.318 9.118-105.49 0 0 2.42 27.47 30.318 9.118-105.49 0 0 16.88 26.71 30.318 9.118-105.49 0 0 .66-31.71 30.318 9.118-105.49 0 0-6.43-16.63 30.11 9.18-142.19 0 0 6.58-1.05 30.11 9.18-142.19 0 0-18.28-25.76 30.11 9.18-142.19 0 0-1.51-1.15 30.131 9.174-40.97 0 0 17.72-11.82 30.131 9.174-40.97 0 0 5.53-5.2 30.318 9.118-105.49 0 0 .39 3.8 30.318 9.118-105.49 0 0-2.2 14.58 30.318 9.118-105.49 0 0 1.12 30.33 30.318 9.118-105.49 0 0 1.39 4.58 30.34 9.111-95.83 0 0-.2 19.99 30.34 9.111-95.83 0 0 12.15 29.23A30.34 9.111-95.83 0 0 69.82 428a30.318 9.118-105.49 0 0 1.1-12.78 30.318 9.118-105.49 0 0 .84-1.51 30.11 9.18-142.19 0 0 14.29 15.19 30.2 9.153-51.91 0 0-2.76 3.34 30.2 9.153-51.91 0 0-11.54 29.49 30.2 9.153-51.91 0 0 20.5-11.83 30.34 9.111-95.83 0 0 7.95 9.84 30.34 9.111-95.83 0 0 6.41-18.32 30.11 9.18-142.19 0 0 10.46.5 30.318 9.118-105.49 0 0 3.92 4.49 30.345 9.11-90.37 0 0 8.69 20.04 30.345 9.11-90.37 0 0 3.69-2.69 30.2 9.153-51.91 0 0 23.34-15.42 30.167 9.164-133.6 0 0 26.54 14.55 30.167 9.164-133.6 0 0-13.01-26.87 30.131 9.174-40.97 0 0 2.05-1.92 29.996 9.216-165.91 0 0 3.44.62 30.133 9.174-138.86 0 0 6.6 6.33 30.133 9.174-138.86 0 0 24.65 13.96 30.131 9.174-40.97 0 0 .58 3.9 30.131 9.174-40.97 0 0 27.42-11.66 30.11 9.18-142.19 0 0 12.65.95 30.11 9.18-142.19 0 0-2.9-10.35 30.131 9.174-40.97 0 0 1.48-1.7 30.2 9.153-51.91 0 0 1.54.15 30.133 9.174-138.86 0 0 11.54 12.08 30.133 9.174-138.86 0 0 28.67 12.8 30.133 9.174-138.86 0 0-.76-7.65 30.131 9.174-40.97 0 0 12.16-6.42 30.133 9.174-138.86 0 0 8.98.08 30.133 9.174-138.86 0 0-.33-6.76 30.131 9.174-40.97 0 0 2.68-2.43 30.131 9.174-40.97 0 0-.81 7.73 30.131 9.174-40.97 0 0 13.78-2.26 30.167 9.164-133.6 0 0 19.59 8.12 30.167 9.164-133.6 0 0-3.79-15 30.2 9.153-51.91 0 0 7.78-4.45 30.11 9.18-142.19 0 0 4.8 4.9 30.34 9.111-95.83 0 0 11.24 22.66 30.34 9.111-95.83 0 0 5.6-10.13 30.11 9.18-142.19 0 0 19.22 4.28 30.11 9.18-142.19 0 0 .03-4.98 30.2 9.153-51.91 0 0 8.27-7.35 30.131 9.174-40.97 0 0-.93 7.98 30.131 9.174-40.97 0 0 9.44-.25 30.11 9.18-142.19 0 0 1.29 1.03 30.11 9.18-142.19 0 0 29.34 11.1 30.11 9.18-142.19 0 0-14.11-22.33 30.131 9.174-40.97 0 0 .39-.31 30.133 9.174-138.86 0 0 7.19 6.97 30.133 9.174-138.86 0 0 28.66 12.81 30.133 9.174-138.86 0 0-4.14-13.22 30.167 9.164-133.6 0 0 .43-.3 30.167 9.164-133.6 0 0 .96-3.79 30.11 9.18-142.19 0 0 20.62 5.11 30.11 9.18-142.19 0 0-14.01-22.26 30.131 9.174-40.97 0 0 1.63-.41 30.167 9.164-133.6 0 0 19.63 8.16 30.167 9.164-133.6 0 0-4.63-16.27 30.131 9.174-40.97 0 0 2.81-2.13 30.11 9.18-142.19 0 0 14.54 14.27 30.11 9.18-142.19 0 0 .8.61 30.2 9.153-51.91 0 0-.92 1.13 30.2 9.153-51.91 0 0-11.53 29.49 30.2 9.153-51.91 0 0 25.79-18.01 30.2 9.153-51.91 0 0 2.36-3.14 30.11 9.18-142.19 0 0 12.84 1.02 30.11 9.18-142.19 0 0-5.33-13.49 30.2 9.153-51.91 0 0 2.66-7.56 30.34 9.111-95.83 0 0 .12 1.43 30.34 9.111-95.83 0 0 12.15 29.23 30.34 9.111-95.83 0 0 5.98-31.13 30.34 9.111-95.83 0 0-2.68-14.64 30.11 9.18-142.19 0 0 11.29.38 30.11 9.18-142.19 0 0-.66-6.6 30.11 9.18-142.19 0 0 7.17-.94 30.11 9.18-142.19 0 0-5.01-13.11 30.11 9.18-142.19 0 0 12.45.87 30.11 9.18-142.19 0 0-18.28-25.76 30.11 9.18-142.19 0 0-29.34-11.11 30.11 9.18-142.19 0 0-.54 3.02 29.996 9.216-165.91 0 0-8.77-3.57 30.167 9.164-133.6 0 0-4.01-11.61 29.996 9.216-165.91 0 0 21.58-3.56 29.996 9.216-165.91 0 0-26.91-16.24 29.996 9.216-165.91 0 0-1.49-.35 30.2 9.153-51.91 0 0 3.94-2.23 29.996 9.216-165.91 0 0 19.81-3.78 29.996 9.216-165.91 0 0-6.76-8.33 30.2 9.153-51.91 0 0 2.76-3.35 30.2 9.153-51.91 0 0 11.53-29.49 30.2 9.153-51.91 0 0-19.62 10.91 30.167 9.164-133.6 0 0-2.26-3.81 30.2 9.153-51.91 0 0 10.7-28.41 30.2 9.153-51.91 0 0-3.69-.49 30.167 9.164-133.6 0 0-4.97-13.2 30.2 9.153-51.91 0 0 1.49-13.51 30.2 9.153-51.91 0 0-9.98 2.54 30.167 9.164-133.6 0 0-1.75-1.9 30.167 9.164-133.6 0 0-15.73-13 30.34 9.111-95.83 0 0-11.03-21.39 30.34 9.111-95.83 0 0-6.41 18.16 30.11 9.18-142.19 0 0-1.61.18 30.167 9.164-133.6 0 0-3.36-3.72 30.167 9.164-133.6 0 0-27.38-15.41 30.167 9.164-133.6 0 0 2.86 13.44 30.2 9.153-51.91 0 0-9.28 7.39 30.131 9.174-40.97 0 0 1.65-9.32 30.131 9.174-40.97 0 0-3.29-1.19 30.2 9.153-51.91 0 0 .66-11.57 30.2 9.153-51.91 0 0-24.4 16.3 30.167 9.164-133.6 0 0-22.16-10.35 30.167 9.164-133.6 0 0-.94 2.2 30.34 9.111-95.83 0 0-5.88-5.16 30.34 9.111-95.83 0 0-5.66 10.5 30.131 9.174-40.97 0 0-12.61 9.16 30.131 9.174-40.97 0 0-5.42 5.08 30.131 9.174-40.97 0 0-4.24 3.24 30.167 9.164-133.6 0 0-22.83-15.47 30.131 9.174-40.97 0 0 1.65-9.34 30.131 9.174-40.97 0 0-26.42 10.81 30.11 9.18-142.19 0 0-28.65-10.59 30.11 9.18-142.19 0 0 15.57 23.58 30.131 9.174-40.97 0 0-2.82 3.81 30.11 9.18-142.19 0 0-18.22-3.71 30.11 9.18-142.19 0 0-.41.84 30.167 9.164-133.6 0 0-1.17-.87 30.2 9.153-51.91 0 0 3.67-17.78 30.2 9.153-51.91 0 0-10.03 2.58 30.34 9.111-95.83 0 0-9.78-15.71Zm137.5 21.04a30.167 9.164-133.6 0 0 8.59 11.44 30.2 9.153-51.91 0 0-2.3 5.05 30.131 9.174-40.97 0 0-3.77 5.32 30.34 9.111-95.83 0 0-.5-9.75 30.34 9.111-95.83 0 0-2.02-12.06Zm-65.34 1.71a30.167 9.164-133.6 0 0 2.87 6.81 30.11 9.18-142.19 0 0-8.94.44 30.11 9.18-142.19 0 0-.41.87 30.11 9.18-142.19 0 0-.47-.57 30.131 9.174-40.97 0 0 6.95-7.55Zm49.45 14.2a30.34 9.111-95.83 0 0 2.42 12.54 30.131 9.174-40.97 0 0-8.86 6.18 30.167 9.164-133.6 0 0-4.34-9.54 30.131 9.174-40.97 0 0 3.44-3.31 30.131 9.174-40.97 0 0 6.67-5.27 30.131 9.174-40.97 0 0 .67-.6Zm-50.39 6.31a30.11 9.18-142.19 0 0 .39.47 30.133 9.174-138.86 0 0 1.89 4.64 30.2 9.153-51.91 0 0-10.83 9.45 30.11 9.18-142.19 0 0-7.47-8.68 30.2 9.153-51.91 0 0 3.27-5.83 30.11 9.18-142.19 0 0 12.33.81 30.11 9.18-142.19 0 0 .42-.86Zm88.96 2.15.02.02a30.2 9.153-51.91 0 0-.35.22 30.131 9.174-40.97 0 0 .33-.24Zm38.62.46a30.133 9.174-138.86 0 0 7.6 7.59 30.131 9.174-40.97 0 0-9.59 4.37 30.2 9.153-51.91 0 0-1.18-2.32 30.2 9.153-51.91 0 0-6.51.52 30.2 9.153-51.91 0 0 9.68-10.16Zm-40.49.86a30.2 9.153-51.91 0 0-8.96 8.07 30.34 9.111-95.83 0 0-1.31-2.26 30.131 9.174-40.97 0 0 10.27-5.81Zm-323.66 5.57a30.318 9.118-105.49 0 0 2.66 7.4 30.34 9.111-95.83 0 0 .35 4.49 30.34 9.111-95.83 0 0 6.86 25.09 30.318 9.118-105.49 0 0 1.26 10.21 30.131 9.174-40.97 0 0-12.96 7.4 30.318 9.118-105.49 0 0-1.78-3.72 30.318 9.118-105.49 0 0-.32-3.82 30.318 9.118-105.49 0 0 1.23-.04 30.318 9.118-105.49 0 0 3.76-13.66 30.131 9.174-40.97 0 0 2.53-10.8 30.131 9.174-40.97 0 0-4.14-1.14 30.318 9.118-105.49 0 0-1.49-6.11 30.318 9.118-105.49 0 0-3.74-10.89 30.2 9.153-51.91 0 0 5.78-4.41Zm92.94 2.68a30.318 9.118-105.49 0 0 1.9 8.19 30.318 9.118-105.49 0 0 3.17 9.48 30.318 9.118-105.49 0 0-4.38-1.63 30.318 9.118-105.49 0 0-3.11 4.4 30.133 9.174-138.86 0 0-9.38-5.05 30.2 9.153-51.91 0 0 1.48-3.53 29.996 9.216-165.91 0 0 5.44-3.58 29.996 9.216-165.91 0 0-4.84-7.06 29.996 9.216-165.91 0 0 9.72-1.22Zm285.81 4.2a30.133 9.174-138.86 0 0 1.07.76 30.2 9.153-51.91 0 0-1.85 2.27 30.2 9.153-51.91 0 0-1.91 2.54 30.131 9.174-40.97 0 0 2.69-5.57Zm-76.03 1.17a30.34 9.111-95.83 0 0-.38 3.18 30.133 9.174-138.86 0 0-1.12-.69 30.34 9.111-95.83 0 0 1.5-2.49Zm-92.5 2.46a30.11 9.18-142.19 0 0 3.17 1.8 29.996 9.216-165.91 0 0-5.18 1.78 30.167 9.164-133.6 0 0-.1-1.33 30.2 9.153-51.91 0 0 2.11-2.25Zm211.3.27a30.167 9.164-133.6 0 0 6.84 3.06 30.2 9.153-51.91 0 0-10.68 9.27 30.2 9.153-51.91 0 0-2.59 2.21 30.167 9.164-133.6 0 0-3.29-3.1 30.2 9.153-51.91 0 0 7.4-8.36 30.2 9.153-51.91 0 0 2.32-3.08Zm-365.89 1.54a29.996 9.216-165.91 0 0 1.13.3 29.996 9.216-165.91 0 0 7.32 1.53 30.2 9.153-51.91 0 0-3.59 3.84 30.11 9.18-142.19 0 0-3.46-2.81 30.11 9.18-142.19 0 0-3.14-2.33 30.34 9.111-95.83 0 0 .32.03 30.34 9.111-95.83 0 0 1.42-.56Zm70.76.32a29.996 9.216-165.91 0 0 15.95 5.63 29.996 9.216-165.91 0 0 3.32.76 29.996 9.216-165.91 0 0-6.04 3.72 29.996 9.216-165.91 0 0 .46 2.63 29.996 9.216-165.91 0 0-11.65.16 30.318 9.118-105.49 0 0-2.04-12.9Zm214.87 1.55a30.2 9.153-51.91 0 0-5.8 6.67 29.996 9.216-165.91 0 0-2.2-.59 30.131 9.174-40.97 0 0 8-6.08Zm-86.63.11a30.133 9.174-138.86 0 0 8.88 6.78 30.131 9.174-40.97 0 0-2.16 3.65 29.996 9.216-165.91 0 0-9.91-5.7 30.2 9.153-51.91 0 0 3.19-4.73Zm118.6 2.18a30.2 9.153-51.91 0 0-8.03 20.38 29.996 9.216-165.91 0 0-2.66-.71 29.996 9.216-165.91 0 0-2.81-.65 29.996 9.216-165.91 0 0-2.01-3.73 30.131 9.174-40.97 0 0 3.9-3.2 30.131 9.174-40.97 0 0 11.61-12.09Zm-99.99 14.55a30.34 9.111-95.83 0 0-1.43 7.39 30.131 9.174-40.97 0 0-6.05 3.77 30.131 9.174-40.97 0 0-12.12 1.63 29.996 9.216-165.91 0 0-8.62-9.3 29.996 9.216-165.91 0 0 16.57-.86 30.131 9.174-40.97 0 0 11.65-2.63Zm-165.91 4.93a30.318 9.118-105.49 0 0 4.38 1.62 30.318 9.118-105.49 0 0 .71-.32 30.318 9.118-105.49 0 0 4.31 11.25 30.2 9.153-51.91 0 0-.62.68 30.133 9.174-138.86 0 0-7.87-10.85 30.318 9.118-105.49 0 0-.91-2.38Zm-69.29 5.68a30.318 9.118-105.49 0 0 6.2 5.37 30.2 9.153-51.91 0 0 1.08 4.44 30.133 9.174-138.86 0 0-7-3.24 30.318 9.118-105.49 0 0-.28-6.57Zm32.87.66h.05a30.167 9.164-133.6 0 0 .59.83 30.167 9.164-133.6 0 0-.64-.84v.01Zm71.01 1.25a29.996 9.216-165.91 0 0 6.93 2.03 29.996 9.216-165.91 0 0 13.75 2.36 30.318 9.118-105.49 0 0 2.15 3.38 29.996 9.216-165.91 0 0-16.4-.25 30.167 9.164-133.6 0 0-6.43-7.52Zm-69.53.7a30.167 9.164-133.6 0 0 4.49 5.48 30.2 9.153-51.91 0 0-.6.49 30.167 9.164-133.6 0 0-3.89-5.97Zm264.18 1.71a29.996 9.216-165.91 0 0 1.32.12 29.996 9.216-165.91 0 0 18.9 7.61 30.2 9.153-51.91 0 0-6.46 3.36 29.996 9.216-165.91 0 0-18.34-7.86 30.2 9.153-51.91 0 0 4.58-3.22v-.01Zm-286.24 5.83a30.318 9.118-105.49 0 0 .72 3.32 30.133 9.174-138.86 0 0-4.62-3 30.2 9.153-51.91 0 0 3.9-.32Zm311.27 3.06a29.996 9.216-165.91 0 0 10.55 1.58 30.2 9.153-51.91 0 0-.65 1.96 30.131 9.174-40.97 0 0-15.8 19.2 30.2 9.153-51.91 0 0-.63-2.06 30.2 9.153-51.91 0 0 .24-.39 29.996 9.216-165.91 0 0 1.55-2.03 29.996 9.216-165.91 0 0 .08-.69 30.2 9.153-51.91 0 0 4.66-17.57Zm49.92 1.53a29.996 9.216-165.91 0 0 7.6.22 30.2 9.153-51.91 0 0-1.35 2.06 29.996 9.216-165.91 0 0-3.16-.85 29.996 9.216-165.91 0 0-3.7-.84 30.2 9.153-51.91 0 0 .61-.59Zm-434.72.4a30.318 9.118-105.49 0 0 .8 3.06 30.318 9.118-105.49 0 0 3.58 10.53 30.131 9.174-40.97 0 0-4.81 6.83 30.11 9.18-142.19 0 0-13.32-5.54 30.34 9.111-95.83 0 0-.02-4.45 30.2 9.153-51.91 0 0 3.08-4.96 30.131 9.174-40.97 0 0 10.68-5.47h.01Zm314.42 3.68a30.34 9.111-95.83 0 0-.12 1.45 30.2 9.153-51.91 0 0-.58.72 30.34 9.111-95.83 0 0-.03-1.06 30.2 9.153-51.91 0 0 .73-1.11Zm-157.47.71a30.167 9.164-133.6 0 0 6.52 5.32 29.996 9.216-165.91 0 0-9.07-.87 30.2 9.153-51.91 0 0 2.55-4.45Zm-49.06 4.45a30.318 9.118-105.49 0 0 1.44 2.74 30.318 9.118-105.49 0 0-.93 10.1 30.167 9.164-133.6 0 0-5.82-5.2 30.2 9.153-51.91 0 0 5.31-7.64Zm180.27.56a30.2 9.153-51.91 0 0-5.39 18.27 29.996 9.216-165.91 0 0-5.03.13 30.131 9.174-40.97 0 0-.73-2.7 30.131 9.174-40.97 0 0-8.44-.14 30.2 9.153-51.91 0 0 3.06-6.15 30.131 9.174-40.97 0 0 16.53-9.41Zm-108.11.75.15.06-.12.12a30.167 9.164-133.6 0 0-.03-.18Zm-57.18.84.11.04a30.318 9.118-105.49 0 0 1.79 3 30.2 9.153-51.91 0 0-1.37 3.46 30.167 9.164-133.6 0 0-.96.34 30.318 9.118-105.49 0 0-.53-.97 30.318 9.118-105.49 0 0 .96-5.87Zm74.31 4.28a29.996 9.216-165.91 0 0 .46.09 30.2 9.153-51.91 0 0 1.28 3.05 30.2 9.153-51.91 0 0 4.86.15 29.996 9.216-165.91 0 0 5.21 2.14 30.2 9.153-51.91 0 0-10.3 6.79 29.996 9.216-165.91 0 0-4.66-6.77 30.2 9.153-51.91 0 0 3.15-5.45Zm228.95 1.52a29.996 9.216-165.91 0 0 7.3 2.15l.26.06a30.2 9.153-51.91 0 0 .19 2.91 29.996 9.216-165.91 0 0-5.64-.66 30.167 9.164-133.6 0 0-3.24-2.5 30.2 9.153-51.91 0 0 1.13-1.96Zm-76.29 1.46a29.996 9.216-165.91 0 0 5.46 1.13 30.2 9.153-51.91 0 0-1.81 2.68 29.996 9.216-165.91 0 0-3.65-3.81Zm52.97.38a30.2 9.153-51.91 0 0-11.44 26.44 30.2 9.153-51.91 0 0-5.18 3.77 30.2 9.153-51.91 0 0 1.67-13.89 30.2 9.153-51.91 0 0-22.65 14.23 29.996 9.216-165.91 0 0-.07-.51 30.2 9.153-51.91 0 0 .95-1.18 30.2 9.153-51.91 0 0 11.84-20.54 30.131 9.174-40.97 0 0 .5.88 30.131 9.174-40.97 0 0 24.38-9.2Zm-102.65 2.22a30.34 9.111-95.83 0 0 2.19 4.16 30.2 9.153-51.91 0 0-1.4 5.43 29.996 9.216-165.91 0 0-.82-.21 29.996 9.216-165.91 0 0-10.15-1.95 30.2 9.153-51.91 0 0 10.18-7.43Zm-244.27.64a29.996 9.216-165.91 0 0 1.79.6 30.318 9.118-105.49 0 0 .6 3.96 30.2 9.153-51.91 0 0-3.31 2.78 30.318 9.118-105.49 0 0-.83-4.4 30.318 9.118-105.49 0 0 1.75-2.94Zm87.71 1.53a30.11 9.18-142.19 0 0 4.21 7.55 30.167 9.164-133.6 0 0-1.57.24 30.167 9.164-133.6 0 0-5.46-4.86 30.2 9.153-51.91 0 0 2.82-2.93Zm206.34 5.01a30.2 9.153-51.91 0 0-3.59 8.37 29.996 9.216-165.91 0 0-7.98-2.38 30.2 9.153-51.91 0 0 1.35-5.01 29.996 9.216-165.91 0 0 10.22-.98Zm-154.52 2.55a30.2 9.153-51.91 0 0-3.49 3.68 29.996 9.216-165.91 0 0-4.36-1.21 29.996 9.216-165.91 0 0-2.35-.55 30.2 9.153-51.91 0 0 .53-.62 29.996 9.216-165.91 0 0 9.67-1.3Zm219.95 1.49a30.167 9.164-133.6 0 0 8.13 9.75 30.167 9.164-133.6 0 0 3.45 3.44 30.131 9.174-40.97 0 0-10.07 6.1 29.996 9.216-165.91 0 0-3.7 2.8 30.131 9.174-40.97 0 0-3.01 2.5 30.131 9.174-40.97 0 0-8.06 7.86 30.2 9.153-51.91 0 0 3.43-17.32 30.2 9.153-51.91 0 0-4.29-.33 30.2 9.153-51.91 0 0-.26-1.86 30.2 9.153-51.91 0 0 14.38-12.94ZM44.95 325.9a30.11 9.18-142.19 0 0 7.7 6.66 30.11 9.18-142.19 0 0 1.36 1.03 30.131 9.174-40.97 0 0-.24.07 30.11 9.18-142.19 0 0-9.65-6.27 30.2 9.153-51.91 0 0 .83-1.49Zm221.04 4a30.133 9.174-138.86 0 0 4.24 4.77 29.996 9.216-165.91 0 0-4.57-.24 29.996 9.216-165.91 0 0-1.62-1.3 30.2 9.153-51.91 0 0 1.95-3.23Zm-148.12 5.82a30.318 9.118-105.49 0 0 1.74 4.03 29.996 9.216-165.91 0 0-3.93-.88 30.2 9.153-51.91 0 0 2.19-3.15Zm-55.66 4.29a30.318 9.118-105.49 0 0 .2.88 30.11 9.18-142.19 0 0-.41-.39 30.131 9.174-40.97 0 0 .21-.49Zm86.93.02a30.133 9.174-138.86 0 0 1.2.85 30.2 9.153-51.91 0 0-1.14 1.24 30.318 9.118-105.49 0 0-.06-2.09Zm-13.98 3.86a30.318 9.118-105.49 0 0 .97 1.7 29.996 9.216-165.91 0 0-1.07-.49 30.318 9.118-105.49 0 0 .1-1.21Zm280.95.07a30.2 9.153-51.91 0 0-2.67 3.57 29.996 9.216-165.91 0 0-.95-.48 30.2 9.153-51.91 0 0 2.67-2.78 29.996 9.216-165.91 0 0 .95-.31Zm-103.83.38a29.996 9.216-165.91 0 0 .94.35 30.2 9.153-51.91 0 0-3.92 4.69l-.02.03a29.996 9.216-165.91 0 0-1.52-1.58 30.131 9.174-40.97 0 0 4.52-3.49Zm19.11 4.87a29.996 9.216-165.91 0 0 9.79.75 29.996 9.216-165.91 0 0-.45.95 29.996 9.216-165.91 0 0 2.82 5.44 30.2 9.153-51.91 0 0-13.17 12.78 30.11 9.18-142.19 0 0-7.85-7 30.2 9.153-51.91 0 0 1.03-1.27 30.2 9.153-51.91 0 0 7.83-11.65Zm-155.3 4.2a30.318 9.118-105.49 0 0 .46.55 30.318 9.118-105.49 0 0 .19 2.59 30.133 9.174-138.86 0 0-1.89-1.51 30.2 9.153-51.91 0 0 1.24-1.63Zm304.83 3.68a29.996 9.216-165.91 0 0 13.24 4.41 29.996 9.216-165.91 0 0 5.83 1.26 30.131 9.174-40.97 0 0-9.56 7.27 30.131 9.174-40.97 0 0-1.03.91 30.167 9.164-133.6 0 0-14.86-8.08 30.131 9.174-40.97 0 0 1.69-1.42 30.131 9.174-40.97 0 0 4.69-4.35Zm-220.69 1.8a29.996 9.216-165.91 0 0 9.56 3.42 30.2 9.153-51.91 0 0-.18 1.08 30.2 9.153-51.91 0 0-1.01.95 29.996 9.216-165.91 0 0-3.55-.97 29.996 9.216-165.91 0 0-6.57-1.39 30.2 9.153-51.91 0 0 1.76-3.09h-.01ZM96.1 361.83a29.996 9.216-165.91 0 0 5.49 4.74 30.34 9.111-95.83 0 0 5.27 14.69 30.2 9.153-51.91 0 0-2.97 3.49 30.318 9.118-105.49 0 0-7.3-4.91 30.318 9.118-105.49 0 0-.41.17 30.318 9.118-105.49 0 0-1.26-12.31 30.318 9.118-105.49 0 0 1.18-5.87Zm-25.93.16a30.318 9.118-105.49 0 0 2.15 3.54 30.318 9.118-105.49 0 0 .24 5.15 30.318 9.118-105.49 0 0-.94-3.68 30.318 9.118-105.49 0 0-1.53-5h.08v-.01Zm228.79 3.44a30.11 9.18-142.19 0 0 .18.2 30.2 9.153-51.91 0 0-1.37 13.23 30.2 9.153-51.91 0 0 11.64-3.72 30.11 9.18-142.19 0 0 .93.75 30.11 9.18-142.19 0 0 9.01 6.18 29.996 9.216-165.91 0 0-2.18 1.58 29.996 9.216-165.91 0 0-1.9-.5 29.996 9.216-165.91 0 0-20.88-2.55 30.2 9.153-51.91 0 0-.23-.26 30.2 9.153-51.91 0 0-2.25-.65 29.996 9.216-165.91 0 0 .04-.08 29.996 9.216-165.91 0 0-6.36-8.07 30.2 9.153-51.91 0 0 3.26-5.7 29.996 9.216-165.91 0 0 10.11-.41Zm170.92 1.04a30.167 9.164-133.6 0 0 6.08 14.2 30.133 9.174-138.86 0 0-15.09-3.02A30.133 9.174-138.86 0 0 470.95 398a30.131 9.174-40.97 0 0-4.09 3.94 30.167 9.164-133.6 0 0-8.49-7.51 29.996 9.216-165.91 0 0 1.02-1.63 29.996 9.216-165.91 0 0-8.72-9.46 30.2 9.153-51.91 0 0 6.15-9.37 30.131 9.174-40.97 0 0 13.06-7.49v-.01Zm-261.19.96a30.167 9.164-133.6 0 0 .51.62 30.167 9.164-133.6 0 0-.5-.49v-.13h-.01Zm-61.47 9.33a30.318 9.118-105.49 0 0-.03.14l-.08-.12.11-.03v.01Zm359.64 3.04a30.11 9.18-142.19 0 0 12.81 12.09 30.11 9.18-142.19 0 0 3.77 2.77 30.34 9.111-95.83 0 0-1.62 17.54 30.2 9.153-51.91 0 0-.66-.78 30.2 9.153-51.91 0 0-11.82 3.86 30.11 9.18-142.19 0 0-2.42-1.95 30.133 9.174-138.86 0 0-3.03-6.79 30.167 9.164-133.6 0 0 8.65.79 30.167 9.164-133.6 0 0-10.04-23.48 30.131 9.174-40.97 0 0 4.36-4.05Zm-118.96 2.49a30.2 9.153-51.91 0 0-4.64 6.82 29.996 9.216-165.91 0 0-2.3-.49 30.2 9.153-51.91 0 0 6.94-6.33Zm-163.05 2.25a30.2 9.153-51.91 0 0-.09 1.6 30.34 9.111-95.83 0 0-.4-1.06 30.131 9.174-40.97 0 0 .49-.54Zm17.9.88a29.996 9.216-165.91 0 0 2.12.57 29.996 9.216-165.91 0 0 6.33 1.35 30.2 9.153-51.91 0 0-3.95 11.27 29.996 9.216-165.91 0 0-8.17 2.89 29.996 9.216-165.91 0 0-3.14.56 30.2 9.153-51.91 0 0-1.3-3.82 30.2 9.153-51.91 0 0-6.72.61 30.34 9.111-95.83 0 0-2.14-9.54 30.2 9.153-51.91 0 0 .27.3 30.2 9.153-51.91 0 0 7.26-.91 30.167 9.164-133.6 0 0 8.52.74 30.167 9.164-133.6 0 0 .92-4.02Zm-167.98.57a30.318 9.118-105.49 0 0 2.57 12.38 30.318 9.118-105.49 0 0 1.93 6.12 30.11 9.18-142.19 0 0-6.38-1.1 30.318 9.118-105.49 0 0-.49-5.6 30.318 9.118-105.49 0 0 2.37-11.8Zm332.88.36a29.996 9.216-165.91 0 0 7.93 4 30.2 9.153-51.91 0 0-5.68 10.03 29.996 9.216-165.91 0 0-8.83-5.4 30.2 9.153-51.91 0 0 2.5-3.04 30.2 9.153-51.91 0 0 4.08-5.59Zm-244.07.57a30.133 9.174-138.86 0 0 .96.86 30.133 9.174-138.86 0 0 2.85 2.38 30.318 9.118-105.49 0 0 .72 2.94 30.2 9.153-51.91 0 0-.46-.52 30.2 9.153-51.91 0 0-2.15-.65 30.318 9.118-105.49 0 0-1.92-5.01Zm106.21 3.7a29.996 9.216-165.91 0 0 .95 1.26 30.2 9.153-51.91 0 0-3.78 3.12 29.996 9.216-165.91 0 0-1.32-.12 30.2 9.153-51.91 0 0 4.15-4.26Zm-149.48 2.57a29.996 9.216-165.91 0 0 6.37 2.77 29.996 9.216-165.91 0 0-7.3 3.83 30.318 9.118-105.49 0 0-1.69-3.04 30.2 9.153-51.91 0 0 2.62-3.56Zm48.63 2.92a30.318 9.118-105.49 0 0 .28.94 30.133 9.174-138.86 0 0-.3-.08 30.2 9.153-51.91 0 0 .02-.86Zm269.86.38a29.996 9.216-165.91 0 0 2.71.3 30.167 9.164-133.6 0 0 .1.24 30.131 9.174-40.97 0 0-14.14 9.05 30.167 9.164-133.6 0 0-1.58-1.07 30.2 9.153-51.91 0 0 1.2-1.17 30.2 9.153-51.91 0 0 11.71-7.35Zm-428.73 2.08a30.318 9.118-105.49 0 0-.91.11 30.318 9.118-105.49 0 0-.66 31.71 30.318 9.118-105.49 0 0 16.89 26.71 30.318 9.118-105.49 0 0 .65-31.71 30.318 9.118-105.49 0 0-15.97-26.82Zm336.43 3.18a29.996 9.216-165.91 0 0 1.26.27 30.2 9.153-51.91 0 0-.04.46 30.167 9.164-133.6 0 0-1.21-.73h-.01Zm-47.47 2.82a29.996 9.216-165.91 0 0 24.73.69 30.11 9.18-142.19 0 0 7.1 10.36 30.131 9.174-40.97 0 0-4.14 3.38 30.131 9.174-40.97 0 0-1.13 1 30.167 9.164-133.6 0 0-.74-.69 30.131 9.174-40.97 0 0-.13-5.5 30.131 9.174-40.97 0 0-7.15-.55 30.167 9.164-133.6 0 0-14.36-6.12 30.11 9.18-142.19 0 0-.78-.37 29.996 9.216-165.91 0 0-3.4-2.2Zm-177.22.42a29.996 9.216-165.91 0 0 4.04 3.06 30.345 9.11-90.37 0 0-1.71 3.16 30.318 9.118-105.49 0 0-2.33-6.22ZM449.03 409a30.167 9.164-133.6 0 0 6.37 7.4 30.167 9.164-133.6 0 0 .61.63 30.131 9.174-40.97 0 0-.65 2.11 30.11 9.18-142.19 0 0-9.49-6.13 30.131 9.174-40.97 0 0 3.16-4.01Zm-64.05 1.5a29.996 9.216-165.91 0 0 14.85.24 30.2 9.153-51.91 0 0-6.52 6.34 30.11 9.18-142.19 0 0-4.89-4.05 30.11 9.18-142.19 0 0-3.44-2.53Zm-249.9 2.06a29.996 9.216-165.91 0 0 4.21 1.52 30.2 9.153-51.91 0 0-2.63 3.86 30.345 9.11-90.37 0 0-1.58-5.38Zm279.44 1.14a30.167 9.164-133.6 0 0 1.73 2.91 30.131 9.174-40.97 0 0-1.01 1.15 30.133 9.174-138.86 0 0-2.69.89 30.2 9.153-51.91 0 0 1.97-4.95Zm-46.7 5.5a30.11 9.18-142.19 0 0 9.53 8.48 30.11 9.18-142.19 0 0 5.09 3.67 30.2 9.153-51.91 0 0-3.03 5.3 30.11 9.18-142.19 0 0-3.76-3.64 30.167 9.164-133.6 0 0-7.39-11.46 30.34 9.111-95.83 0 0-.44-2.35Zm-73.66.66a30.11 9.18-142.19 0 0 4.43 4.54 30.131 9.174-40.97 0 0-1.5 1.24 30.133 9.174-138.86 0 0-5.2-4.93 29.996 9.216-165.91 0 0 2.27-.85Zm117.35.91a30.133 9.174-138.86 0 0 .05 1.61 30.131 9.174-40.97 0 0-1.74 2.63 30.131 9.174-40.97 0 0-1.73 1.64 30.2 9.153-51.91 0 0 3.42-5.88Zm-182.56 1.27a29.996 9.216-165.91 0 0 5.7 1.61 29.996 9.216-165.91 0 0 .92.23 30.131 9.174-40.97 0 0-2.49 1.62 30.11 9.18-142.19 0 0-3.74-3.06 30.11 9.18-142.19 0 0-.4-.3v-.1h.01Zm39.93 1.79a29.996 9.216-165.91 0 0 .5.06 30.133 9.174-138.86 0 0 10.3 10.5 30.133 9.174-138.86 0 0 4.91 4 30.131 9.174-40.97 0 0-3.84 5.67 30.133 9.174-138.86 0 0-9.58-9.66 30.133 9.174-138.86 0 0-8.66-6.71 30.2 9.153-51.91 0 0 6.37-3.86Zm-124.37 10.51a30.2 9.153-51.91 0 0-6.14 8.84 30.345 9.11-90.37 0 0 .2-4.54 30.2 9.153-51.91 0 0 5.94-4.3Zm67.74 4.99a29.996 9.216-165.91 0 0 4.69.07 30.131 9.174-40.97 0 0-6.25 7.79 30.133 9.174-138.86 0 0-2.52-4.61 30.2 9.153-51.91 0 0 4.08-3.25Z"/></g>
<g id="chf-36" transform="translate(103.827 -228.885)"><path class="chf-st4" d="m0 438.48 78.2 11.72-72.94 16.25L0 438.48Z"/></g>
<g id="chf-37" transform="translate(187.54 -307.057)"><path class="chf-st4" d="m0 438.48 78.2 11.72-72.94 16.25L0 438.48Z"/></g>
<g id="chf-38" transform="translate(342.892 -254.116)"><path class="chf-st4" d="m0 438.48 46.78 7.01 1.03 11.48-42.55 9.48L0 438.48Z"/></g>
<g id="chf-39" transform="translate(426.629 -358.871)"><path class="chf-st4" d="m0 438.48 78.2 11.72-72.94 16.25L0 438.48Z"/></g>
<g id="chf-40" transform="translate(451.432 -265.38)"><path class="chf-st4" d="m0 438.48 78.2 11.72-72.94 16.25L0 438.48Z"/></g>
<g id="chf-41" transform="translate(296.502 -359.093)"><path class="chf-st7" d="M33.59 449.29a17.314 17.103 90 0 1-14.81 17.16A17.314 17.103 90 0 1 0 453.87a17.314 17.103 90 0 1 9.8-20.52 17.314 17.103 90 0 1 21.4 7.09l2.39 8.85Z"/></g>
<g id="chf-42" transform="translate(374.786 -334.988)"><path class="chf-st7" d="M33.59 449.29a17.314 17.103 90 0 1-14.81 17.16A17.314 17.103 90 0 1 0 453.87a17.314 17.103 90 0 1 9.8-20.52 17.314 17.103 90 0 1 21.4 7.09l2.39 8.85Z"/></g>
<g id="chf-43" transform="translate(349.781 -225.052)"><path class="chf-st7" d="M33.59 449.29a17.314 17.103 90 0 1-14.81 17.16A17.314 17.103 90 0 1 0 453.87a17.314 17.103 90 0 1 9.8-20.52 17.314 17.103 90 0 1 21.4 7.09l2.39 8.85Z"/></g>
<g id="chf-44" transform="translate(269.905 -255.207)"><path class="chf-st7" d="M35.86 448.13c0 8.67-6.33 16-14.82 17.16-8.48 1.16-16.51-4.22-18.77-12.58-2.27-8.36 1.92-17.12 9.8-20.52 7.88-3.39-5.75 18.43 6.98 21.84l16.81-5.9Z"/></g>
<g id="chf-45" transform="translate(466.227 -225.052)"><path class="chf-st7" d="M33.59 449.29a17.314 17.103 90 0 1-14.81 17.16A17.314 17.103 90 0 1 0 453.87a17.314 17.103 90 0 1 9.8-20.52 17.314 17.103 90 0 1 21.4 7.09l2.39 8.85Z"/></g>
<g id="chf-46" transform="translate(474.112 -307.729)"><path class="chf-st7" d="M33.59 449.29a17.314 17.103 90 0 1-14.81 17.16A17.314 17.103 90 0 1 0 453.87a17.314 17.103 90 0 1 9.8-20.52 17.314 17.103 90 0 1 21.4 7.09l2.39 8.85Z"/></g>
<g id="chf-47" transform="translate(180.078 -343.774)"><path class="chf-st7" d="M33.59 449.29a17.314 17.103 90 0 1-14.81 17.16A17.314 17.103 90 0 1 0 453.87a17.314 17.103 90 0 1 9.8-20.52 17.314 17.103 90 0 1 21.4 7.09l2.39 8.85Z"/></g>
<g id="chf-48" transform="translate(177.442 -224.376)"><path class="chf-st7" d="M33.59 449.29a17.314 17.103 90 0 1-14.81 17.16A17.314 17.103 90 0 1 0 453.87a17.314 17.103 90 0 1 9.8-20.52 17.314 17.103 90 0 1 21.4 7.09l2.39 8.85Z"/></g>
<g id="chf-49" transform="translate(91.267 -209.964)"><path class="chf-st7" d="M18.78 465.29c-8.49 1.16-16.51-4.22-18.78-12.58l18.78 12.58Z"/></g>
</g>
</svg>