<svg id="svg-persona-biologist" xmlns="http://www.w3.org/2000/svg" version="1.1" viewBox="0 0 223 306" stroke-width="0.5" overflow="visible">
<defs>
<style>
:root{
--on-000000:#000000;
--on-00ffff:#00ffff;
--on-333333:#333333;
--on-dcaa7d:#dcaa7d;
--on-e4b992:#e4b992;
--on-f1c9a5:#f1c9a5;
--on-ffffff:#ffffff;
}
</style>
</defs>
<g transform="matrix(1,0,0,-1,-25.901441,281.67817)">
<svg id="face">
<svg id="face-left">
<path fill="var(--on-f1c9a5)" marker-start="none" marker-end="none" d="M 111.728,57.58 C 135.658,57.58 157.838,65.115 176.023,77.94 C 171.279,109.355 167.997,123.432 158.177,131.643 C 152.738,136.268 145.332,138.577 134.373,141.767 C 131.521,142.596 126.711,143.982 124.277,144.51 L 124.278,157.903 C 132.054,162.221 138.002,170.432 140.407,180.443 C 145.044,180.721 147.083,182.158 149.096,185.514 C 150.676,188.148 151.954,192.542 150.754,195.8 C 149.682,198.711 147.022,201.832 143.663,201.832 C 142.799,201.832 141.959,201.638 141.183,201.288 C 138.882,218.286 126.521,231.276 111.728,231.276 C 96.935,231.276 84.574,218.286 82.273,201.288 C 81.497,201.638 80.657,201.832 79.793,201.832 C 76.434,201.832 73.774,198.711 72.702,195.8 C 71.502,192.542 72.78,188.148 74.36,185.514 C 76.373,182.158 78.412,180.721 83.049,180.443 C 85.454,170.432 91.402,162.221 99.178,157.903 L 99.179,144.51 C 96.745,143.982 91.935,142.596 89.083,141.767 C 78.124,138.577 70.718,136.268 65.279,131.643 C 55.459,123.432 52.177,109.355 47.433,77.94 C 65.618,65.115 87.798,57.58 111.728,57.58 Z"/>
</svg>
<svg id="face-right">
<path fill="var(--on-e4b992)" marker-start="none" marker-end="none" d="M 111.728,57.58 C 135.658,57.58 157.838,65.115 176.023,77.94 C 171.279,109.355 167.997,123.432 158.177,131.643 C 152.738,136.268 145.332,138.577 134.373,141.767 C 131.521,142.596 126.711,143.982 124.277,144.51 L 124.278,157.903 C 132.054,162.221 138.002,170.432 140.407,180.443 C 145.044,180.721 147.083,182.158 149.096,185.514 C 150.676,188.148 151.954,192.542 150.754,195.8 C 149.682,198.711 147.022,201.832 143.663,201.832 C 142.799,201.832 141.959,201.638 141.183,201.288 C 138.882,218.286 126.521,231.276 111.728,231.276 L 111.728,57.58 Z"/>
</svg>
</svg>
<svg id="female-hair-full">
<path fill="var(--on-000000)" marker-start="none" marker-end="none" stroke="none" stroke-linejoin="miter" stroke-linecap="round" stroke-width="0.5" d="M 63.464,184.787 C 62.567,187.799 65.259,191.012 64.964,194.162 C 64.81,195.815 63.541,197.211 63.277,198.85 C 62.878,201.318 63.549,203.851 63.464,206.35 C 63.144,215.76 56.952,227.019 60.839,234.475 C 65.517,243.449 72.139,241.081 80.152,245.35 C 88.994,250.061 97.875,257.111 107.902,256.975 C 113.523,256.899 118.793,254.754 123.276,250.037 C 128.134,252.527 135.054,253.205 140.096,250.743 C 145.352,248.177 146.426,240.848 150.296,236.463 C 153.536,232.792 158.902,230.881 161.096,226.503 C 164.031,220.646 164.458,210.734 160.27,206.854 C 164.106,198.012 162.354,191.686 158.17,186.454 C 161.362,170.251 145.163,164.462 127.064,159.694 C 133.17,165.198 137.321,171.326 140.239,178.503 C 141.851,182.468 142.946,185.131 142.946,190.502 C 142.946,194.497 141.111,197.321 140.611,199.755 C 138.761,208.753 136.47,209.424 130.076,211.644 C 121.436,214.644 116.592,219.468 116.629,225.215 C 116.592,229.996 115.487,228.526 111.728,231.198 C 107.969,228.526 106.864,229.996 106.827,225.215 C 106.864,219.468 104.995,217.688 96.355,214.688 C 89.961,212.468 84.695,208.753 82.845,199.755 C 82.345,197.321 80.51,194.497 80.51,190.502 C 80.51,185.131 83.554,180.694 87.509,176.371 C 86.066,176.857 84.635,177.594 83.217,178.503 C 85.553,171.887 90.126,165.339 96.43,159.664 C 81.29,165 66.571,174.352 63.464,184.787 Z"/>
</svg>
<svg id="female-clothing-blouse">
<path fill="var(--on-ffffff)" marker-start="none" marker-end="none" stroke-linejoin="miter" stroke-linecap="round" d="M 47.433,77.94 C 55.243,129.649 59.626,134.081 94.497,143.395 C 97.685,131.328 103.629,109.764 111.728,104.821 C 119.827,109.764 125.771,131.328 128.959,143.395 C 163.829,134.081 168.212,129.649 176.022,77.94 C 157.837,65.115 135.657,57.58 111.728,57.58 C 87.798,57.58 65.618,65.115 47.433,77.94 Z"
 stroke="var(--on-000000)" stroke-width="0.5"/>
</svg>
<svg id="female-accessory-glasses">
<svg id="female-accessory-glasses-frames">
<path fill="var(--on-333333)" marker-start="none" marker-end="none" stroke-linejoin="miter" stroke-linecap="round" d="M 136.765,202.473 L 142.582,205.168 L 143.423,203.353 L 137.507,200.61 C 137.827,199.548 138,198.421 138,197.256 C 138,190.835 132.79,185.626 126.37,185.626 C 120.086,185.626 114.964,190.613 114.747,196.843 C 112.794,197.867 110.782,197.851 108.707,196.806 C 108.471,190.593 103.356,185.626 97.086,185.626 C 90.666,185.626 85.456,190.835 85.456,197.256 C 85.456,198.421 85.628,199.548 85.89,200.61 L 80.033,203.353 L 80.874,205.168 L 86.691,202.473 C 88.604,206.275 92.542,208.886 97.086,208.886 C 103.074,208.886 108.008,204.354 108.646,198.536 C 110.824,199.598 112.874,199.555 114.812,198.559 C 115.461,204.366 120.389,208.886 126.37,208.886 C 130.914,208.886 134.852,206.275 136.765,202.473 Z M 106.716,197.256 C 106.716,202.571 102.402,206.886 97.086,206.886 C 91.771,206.886 87.456,202.571 87.456,197.256 C 87.456,191.94 91.771,187.626 97.086,187.626 C 102.402,187.626 106.716,191.94 106.716,197.256 Z M 136,197.256 C 136,202.571 131.685,206.886 126.37,206.886 C 121.054,206.886 116.74,202.571 116.74,197.256 C 116.74,191.94 121.054,187.626 126.37,187.626 C 131.685,187.626 136,191.94 136,197.256 Z"
 stroke="var(--on-000000)" stroke-width="0.0"/>
</svg>
<svg id="female-accessory-glasses-lenses">
<g id="tmp-37">
<path fill="var(--on-dcaa7d)" marker-start="none" marker-end="none" stroke-width="0.0" d="M 106.716,197.256 C 106.716,202.571 102.402,206.886 97.086,206.886 C 91.771,206.886 87.456,202.571 87.456,197.256 C 87.456,191.94 91.771,187.626 97.086,187.626 C 102.402,187.626 106.716,191.94 106.716,197.256 Z"/>
</g>
<g id="tmp-40">
<path fill="var(--on-dcaa7d)" marker-start="none" marker-end="none" stroke-width="0.0" d="M 136,197.256 C 136,202.571 131.685,206.886 126.37,206.886 C 121.054,206.886 116.74,202.571 116.74,197.256 C 116.74,191.94 121.054,187.626 126.37,187.626 C 131.685,187.626 136,191.94 136,197.256 Z"/>
</g>
</svg>
</svg>
<svg id="female-accessory-necklace-pearls">
<g id="tmp-46" fill="var(--on-00ffff)" stroke="none" stroke-linejoin="miter" stroke-linecap="round" stroke-width="0.456">
<path marker-start="none" marker-end="none" d="M 136.044,137.736 C 134.724,136.737 132.841,136.996 131.841,138.315 C 130.842,139.635 131.101,141.518 132.42,142.518 C 133.74,143.517 135.623,143.258 136.623,141.939 C 137.622,140.619 137.363,138.736 136.044,137.736 Z"/>
<path marker-start="none" marker-end="none" d="M 133.087,131.751 C 131.654,130.924 129.817,131.415 128.989,132.849 C 128.162,134.282 128.653,136.119 130.087,136.947 C 131.52,137.774 133.357,137.283 134.185,135.849 C 135.012,134.416 134.521,132.579 133.087,131.751 Z"/>
<path marker-start="none" marker-end="none" d="M 129.111,126.235 C 127.556,125.668 125.832,126.47 125.265,128.025 C 124.698,129.58 125.5,131.304 127.055,131.871 C 128.61,132.438 130.334,131.636 130.901,130.081 C 131.468,128.526 130.666,126.802 129.111,126.235 Z"/>
<path marker-start="none" marker-end="none" d="M 123.912,121.6 C 122.267,121.418 120.782,122.605 120.599,124.251 C 120.417,125.896 121.604,127.381 123.25,127.564 C 124.895,127.746 126.38,126.559 126.563,124.913 C 126.745,123.268 125.558,121.783 123.912,121.6 Z"/>
<path marker-start="none" marker-end="none" d="M 117.432,118.529 C 115.815,118.88 114.786,120.479 115.136,122.097 C 115.487,123.714 117.086,124.743 118.704,124.393 C 120.321,124.042 121.35,122.443 121,120.825 C 120.649,119.208 119.05,118.179 117.432,118.529 Z"/>
<path marker-start="none" marker-end="none" d="M 110.327,117.719 C 108.901,118.559 108.424,120.4 109.264,121.826 C 110.104,123.252 111.945,123.729 113.371,122.889 C 114.797,122.049 115.274,120.208 114.434,118.782 C 113.594,117.356 111.753,116.879 110.327,117.719 Z"/>
<path marker-start="none" marker-end="none" d="M 103.287,119.489 C 102.245,120.774 102.441,122.665 103.727,123.709 C 105.012,124.751 106.903,124.555 107.947,123.269 C 108.989,121.984 108.793,120.093 107.507,119.049 C 106.222,118.007 104.331,118.203 103.287,119.489 Z"/>
<path marker-start="none" marker-end="none" d="M 97.275,123.335 C 96.67,124.875 97.429,126.618 98.97,127.224 C 100.51,127.829 102.253,127.07 102.859,125.529 C 103.464,123.989 102.705,122.246 101.164,121.64 C 99.624,121.035 97.881,121.794 97.275,123.335 Z"/>
<path marker-start="none" marker-end="none" d="M 92.553,128.451 C 92.327,130.091 93.475,131.606 95.115,131.833 C 96.755,132.059 98.27,130.911 98.497,129.271 C 98.723,127.631 97.575,126.116 95.935,125.889 C 94.295,125.663 92.78,126.811 92.553,128.451 Z"/>
<path marker-start="none" marker-end="none" d="M 88.987,134.258 C 89.056,135.911 90.455,137.199 92.109,137.13 C 93.762,137.061 95.05,135.662 94.981,134.008 C 94.912,132.355 93.513,131.067 91.859,131.136 C 90.206,131.205 88.918,132.604 88.987,134.258 Z"/>
<path marker-start="none" marker-end="none" d="M 86.362,140.442 C 86.663,142.069 88.229,143.148 89.857,142.847 C 91.484,142.546 92.563,140.98 92.262,139.352 C 91.961,137.725 90.395,136.646 88.767,136.947 C 87.14,137.248 86.061,138.814 86.362,140.442 Z"/>
</g>
</svg>
</g>
</svg>