<svg id="svg-persona-breeder" xmlns="http://www.w3.org/2000/svg" version="1.1" viewBox="0 0 223 306" stroke-width="0.5" overflow="visible">
<defs>
<style>
:root{
--on-000000:#000000;
--on-7f4100:#7f4100;
--on-bbc871:#bbc871;
--on-e4b992:#e4b992;
--on-f1c9a5:#f1c9a5;
}
</style>
</defs>
<g transform="matrix(1,0,0,-1,-37.557088,249.9489)">
<svg id="face">
<svg id="face-left">
<path fill="var(--on-f1c9a5)" marker-start="none" marker-end="none" d="M 111.728,57.58 C 135.658,57.58 157.838,65.115 176.023,77.94 C 171.279,109.355 167.997,123.432 158.177,131.643 C 152.738,136.268 145.332,138.577 134.373,141.767 C 131.521,142.596 126.711,143.982 124.277,144.51 L 124.278,157.903 C 132.054,162.221 138.002,170.432 140.407,180.443 C 145.044,180.721 147.083,182.158 149.096,185.514 C 150.676,188.148 151.954,192.542 150.754,195.8 C 149.682,198.711 147.022,201.832 143.663,201.832 C 142.799,201.832 141.959,201.638 141.183,201.288 C 138.882,218.286 126.521,231.276 111.728,231.276 C 96.935,231.276 84.574,218.286 82.273,201.288 C 81.497,201.638 80.657,201.832 79.793,201.832 C 76.434,201.832 73.774,198.711 72.702,195.8 C 71.502,192.542 72.78,188.148 74.36,185.514 C 76.373,182.158 78.412,180.721 83.049,180.443 C 85.454,170.432 91.402,162.221 99.178,157.903 L 99.179,144.51 C 96.745,143.982 91.935,142.596 89.083,141.767 C 78.124,138.577 70.718,136.268 65.279,131.643 C 55.459,123.432 52.177,109.355 47.433,77.94 C 65.618,65.115 87.798,57.58 111.728,57.58 Z"/>
</svg>
<svg id="face-right">
<path fill="var(--on-e4b992)" marker-start="none" marker-end="none" d="M 111.728,57.58 C 135.658,57.58 157.838,65.115 176.023,77.94 C 171.279,109.355 167.997,123.432 158.177,131.643 C 152.738,136.268 145.332,138.577 134.373,141.767 C 131.521,142.596 126.711,143.982 124.277,144.51 L 124.278,157.903 C 132.054,162.221 138.002,170.432 140.407,180.443 C 145.044,180.721 147.083,182.158 149.096,185.514 C 150.676,188.148 151.954,192.542 150.754,195.8 C 149.682,198.711 147.022,201.832 143.663,201.832 C 142.799,201.832 141.959,201.638 141.183,201.288 C 138.882,218.286 126.521,231.276 111.728,231.276 L 111.728,57.58 Z"/>
</svg>
</svg>
<svg id="male-clothing-shirt">
<path fill="var(--on-bbc871)" marker-start="none" marker-end="none" stroke-linejoin="miter" stroke-linecap="round" d="M 47.433,77.94 C 55.243,129.649 59.626,134.081 94.497,143.395 C 97.685,131.328 103.629,109.764 111.728,104.821 C 119.827,109.764 125.771,131.328 128.959,143.395 C 163.829,134.081 168.212,129.649 176.022,77.94 C 157.837,65.115 135.657,57.58 111.728,57.58 C 87.798,57.58 65.618,65.115 47.433,77.94 Z"
 stroke="var(--on-000000)" stroke-width="0.5"/>
</svg>
<svg id="male-hair-head">
<path fill="var(--on-7f4100)" marker-start="none" marker-end="none" stroke-width="0.0" d="M 79.793,201.832 C 79.11,201.832 78.457,201.703 77.84,201.473 L 77.536,209.034 C 77.536,228.019 92.855,243.429 111.726,243.429 L 111.728,243.43 L 111.729,243.429 C 130.6,243.429 145.92,228.019 145.92,209.034 L 145.616,201.473 C 144.999,201.703 144.346,201.832 143.663,201.832 C 142.799,201.832 141.959,201.638 141.183,201.288 C 139.346,213.189 130.25,223.584 124.646,224.739 C 118.903,225.922 116.952,222.421 111.728,222.421 C 106.504,222.421 104.553,225.922 98.81,224.739 C 93.206,223.584 84.11,213.189 82.273,201.288 C 81.497,201.638 80.657,201.832 79.793,201.832 Z"/>
</svg>
<svg id="male-accessory-glasses">
<path fill="var(--on-000000)" marker-start="none" marker-end="none" stroke="none" stroke-linejoin="miter" d="M 86.999,194.761 L 86.295,195.331 L 84.695,195.961 L 82.205,199.748 C 90.316,201.384 95.96,202.539 100.977,201.423 C 104.617,200.614 108.684,198.328 111.728,198.303 C 114.772,198.328 118.839,200.614 122.479,201.423 C 127.496,202.539 133.14,201.384 141.166,199.748 L 138.761,195.961 L 137.161,195.331 L 136.457,194.761 C 136.346,185.964 130.899,181.367 124.973,181.175 C 119.19,180.987 113.349,185.114 112.928,193.677 C 112.928,193.901 112.698,194.011 112.521,194.084 C 112.033,194.286 111.423,194.286 110.935,194.084 C 110.758,194.011 110.528,193.901 110.528,193.677 C 110.107,185.114 104.266,180.987 98.483,181.175 C 92.557,181.367 87.11,185.964 86.999,194.761 Z M 108.71,191.814 C 109.172,193.743 108.215,195.865 106.289,197.251 C 104.257,198.713 101.505,199.746 98.885,199.989 C 96.461,200.213 93.9,200.148 91.686,198.759 C 89.854,197.61 88.808,195.725 88.941,193.786 C 89.309,188.431 93.779,183.827 98.435,183.489 C 102.831,183.17 107.682,187.528 108.71,191.814 Z M 125.021,183.489 C 129.677,183.827 134.147,188.431 134.515,193.786 C 134.648,195.725 133.602,197.61 131.77,198.759 C 129.556,200.148 126.995,200.213 124.571,199.989 C 121.951,199.746 119.199,198.713 117.167,197.251 C 115.241,195.865 114.284,193.743 114.746,191.814 C 115.774,187.528 120.625,183.17 125.021,183.489 Z"/>
</svg>
<svg id="male-hair-mustache">
<path fill="var(--on-7f4100)" marker-start="none" marker-end="none" stroke-width="0.0" d="M 111.728,175.009 C 110.338,176.025 108.802,176.572 107.217,176.523 C 103.107,176.394 99.67,170.511 95.789,171.871 C 94.416,172.352 93.479,174.385 93.657,175.683 C 92.315,175.144 91.773,173.599 91.893,172.238 C 92.176,169.049 96.618,166.65 100.985,166.689 C 104.987,166.724 108.795,167.44 111.728,169.729 C 114.661,167.44 118.469,166.724 122.471,166.689 C 126.838,166.65 131.28,169.049 131.563,172.238 C 131.683,173.599 131.141,175.144 129.799,175.683 C 129.977,174.385 129.04,172.352 127.667,171.871 C 123.786,170.511 120.349,176.394 116.239,176.523 C 114.654,176.572 113.118,176.025 111.728,175.009 Z"/>
</svg>
</g>
</svg>