<svg id="svg-persona-chef" xmlns="http://www.w3.org/2000/svg" version="1.1" viewBox="0 0 223 306" stroke-width="0.5" overflow="visible">
<defs>
<style>
:root{
--on-000000:#000000;
--on-e4b992:#e4b992;
--on-e5e5e5:#e5e5e5;
--on-f1c9a5:#f1c9a5;
--on-ffffff:#ffffff;
}
</style>
</defs>
<g transform="matrix(1,0,0,-1,-19.164064,311.40743)">
<svg id="face" stroke-width="0.0">
<svg id="face-left">
<path fill="var(--on-f1c9a5)" marker-start="none" marker-end="none" d="M 111.728,57.58 C 135.658,57.58 157.838,65.115 176.023,77.94 C 171.279,109.355 167.997,123.432 158.177,131.643 C 152.738,136.268 145.332,138.577 134.373,141.767 C 131.521,142.596 126.711,143.982 124.277,144.51 L 124.278,157.903 C 132.054,162.221 138.002,170.432 140.407,180.443 C 145.044,180.721 147.083,182.158 149.096,185.514 C 150.676,188.148 151.954,192.542 150.754,195.8 C 149.682,198.711 147.022,201.832 143.663,201.832 C 142.799,201.832 141.959,201.638 141.183,201.288 C 138.882,218.286 126.521,231.276 111.728,231.276 C 96.935,231.276 84.574,218.286 82.273,201.288 C 81.497,201.638 80.657,201.832 79.793,201.832 C 76.434,201.832 73.774,198.711 72.702,195.8 C 71.502,192.542 72.78,188.148 74.36,185.514 C 76.373,182.158 78.412,180.721 83.049,180.443 C 85.454,170.432 91.402,162.221 99.178,157.903 L 99.179,144.51 C 96.745,143.982 91.935,142.596 89.083,141.767 C 78.124,138.577 70.718,136.268 65.279,131.643 C 55.459,123.432 52.177,109.355 47.433,77.94 C 65.618,65.115 87.798,57.58 111.728,57.58 Z"/>
</svg>
<svg id="face-right">
<path fill="var(--on-e4b992)" marker-start="none" marker-end="none" d="M 111.728,57.58 C 135.658,57.58 157.838,65.115 176.023,77.94 C 171.279,109.355 167.997,123.432 158.177,131.643 C 152.738,136.268 145.332,138.577 134.373,141.767 C 131.521,142.596 126.711,143.982 124.277,144.51 L 124.278,157.903 C 132.054,162.221 138.002,170.432 140.407,180.443 C 145.044,180.721 147.083,182.158 149.096,185.514 C 150.676,188.148 151.954,192.542 150.754,195.8 C 149.682,198.711 147.022,201.832 143.663,201.832 C 142.799,201.832 141.959,201.638 141.183,201.288 C 138.882,218.286 126.521,231.276 111.728,231.276 L 111.728,57.58 Z"/>
</svg>
</svg>
<svg id="male-glasses">
<path fill="var(--on-000000)" marker-start="none" marker-end="none" stroke-linejoin="miter" stroke-linecap="round" stroke-width="0.0" d="M 136.765,202.473 L 142.582,205.168 L 143.423,203.353 L 137.507,200.61 C 137.827,199.548 138,198.421 138,197.256 C 138,190.835 132.79,185.626 126.37,185.626 C 120.086,185.626 114.964,190.613 114.747,196.843 C 112.794,197.867 110.782,197.851 108.707,196.806 C 108.471,190.593 103.356,185.626 97.086,185.626 C 90.666,185.626 85.456,190.835 85.456,197.256 C 85.456,198.421 85.628,199.548 85.89,200.61 L 80.033,203.353 L 80.874,205.168 L 86.691,202.473 C 88.604,206.275 92.542,208.886 97.086,208.886 C 103.074,208.886 108.008,204.354 108.646,198.536 C 110.824,199.598 112.874,199.555 114.812,198.559 C 115.461,204.366 120.389,208.886 126.37,208.886 C 130.914,208.886 134.852,206.275 136.765,202.473 Z M 106.716,197.256 C 106.716,202.571 102.402,206.886 97.086,206.886 C 91.771,206.886 87.456,202.571 87.456,197.256 C 87.456,191.94 91.771,187.626 97.086,187.626 C 102.402,187.626 106.716,191.94 106.716,197.256 Z M 136,197.256 C 136,202.571 131.685,206.886 126.37,206.886 C 121.054,206.886 116.74,202.571 116.74,197.256 C 116.74,191.94 121.054,187.626 126.37,187.626 C 131.685,187.626 136,191.94 136,197.256 Z"
 stroke="var(--on-000000)"/>
</svg>
<svg id="male-hair">
<path fill="var(--on-e5e5e5)" marker-start="none" marker-end="none" stroke-width="0.0" d="M 79.793,201.832 C 79.11,201.832 78.457,201.703 77.84,201.473 L 77.536,209.034 C 77.536,228.019 92.855,243.429 111.726,243.429 L 111.728,243.43 L 111.729,243.429 C 130.6,243.429 145.92,228.019 145.92,209.034 L 145.616,201.473 C 144.999,201.703 144.346,201.832 143.663,201.832 C 142.799,201.832 141.959,201.638 141.183,201.288 C 139.346,213.189 130.25,223.584 124.646,224.739 C 118.903,225.922 116.952,222.421 111.728,222.421 C 106.504,222.421 104.553,225.922 98.81,224.739 C 93.206,223.584 84.11,213.189 82.273,201.288 C 81.497,201.638 80.657,201.832 79.793,201.832 Z"/>
</svg>
<svg id="male-hair-mustache">
<path fill="var(--on-e5e5e5)" marker-start="none" marker-end="none" stroke-width="0.0" d="M 111.728,174.663 C 104.886,170.671 99.907,169.899 96.537,171.903 L 96.177,170.583 C 101.36,168.505 106.545,169.23 111.728,170.223 C 116.911,169.23 122.096,168.505 127.279,170.583 L 126.919,171.903 C 123.549,169.899 118.57,170.671 111.728,174.663 Z"/>
</svg>
<svg id="male-clothing">
    <svg id="male-clothing-tunic">
        <path fill="var(--on-ffffff)" marker-start="none" marker-end="none" d="M 47.433,77.94 C 55.243,129.649 59.626,134.081 94.497,143.395 C 97.685,131.328 103.629,125.335 111.728,120.392 C 119.827,125.335 125.771,131.328 128.959,143.395 C 163.829,134.081 168.212,129.649 176.022,77.94 C 157.837,65.115 135.657,57.58 111.728,57.58 C 87.798,57.58 65.618,65.115 47.433,77.94 Z"
        stroke="var(--on-000000)" stroke-width="0.5"/>
    </svg>
    <svg id="male-clothing-accessory">
        <g id="tmp-430" fill="var(--on-e5e5e5)" stroke-width="0.0">
            <g id="tmp-431">
            <path marker-start="none" marker-end="none" d="M 95.397,144.028 C 97.855,134.917 102.942,126.281 111.728,120.605 C 106.509,114.782 100.493,116.13 96.071,118.955 C 89.322,123.266 87.547,134.115 88.31,141.694 L 95.397,144.028 Z"/>
            </g>
            <g id="tmp-434">
            <path marker-start="none" marker-end="none" d="M 128.059,144.028 C 125.601,134.917 120.514,126.281 111.728,120.605 C 116.947,114.782 122.968,116.122 127.385,118.955 C 134.182,123.315 135.887,134.334 135.124,141.913 C 132.984,143.23 130.642,143.973 128.059,144.028 Z"/>
            </g>
            <svg id="tmp-437" viewBox="0 0 223.46 305.64" fill="var(--on-e5e5e5)">
            <circle cx="95.34" cy="202.88" r="5.19" transform="translate(-128.59 80) rotate(-67.5)"/>
            <circle cx="128.91" cy="202.88" r="5.19" transform="translate(-107.86 111) rotate(-67.5)"/>
            <circle cx="95.34" cy="231.44" r="5.19" transform="translate(-135.73 0) rotate(-45)"/>
            <circle cx="128.91" cy="231.44" r="5.19" transform="translate(-49.73 -99) rotate(-13.28)"/>
            </svg>
        </g>
    </svg>
</svg>
<svg id="male-glasses">
<path fill="var(--on-000000)" marker-start="none" marker-end="none" stroke-linejoin="miter" stroke-linecap="round" stroke-width="0.0" d="M 136.765,202.473 L 142.582,205.168 L 143.423,203.353 L 137.507,200.61 C 137.827,199.548 138,198.421 138,197.256 C 138,190.835 132.79,185.626 126.37,185.626 C 120.086,185.626 114.964,190.613 114.747,196.843 C 112.794,197.867 110.782,197.851 108.707,196.806 C 108.471,190.593 103.356,185.626 97.086,185.626 C 90.666,185.626 85.456,190.835 85.456,197.256 C 85.456,198.421 85.628,199.548 85.89,200.61 L 80.033,203.353 L 80.874,205.168 L 86.691,202.473 C 88.604,206.275 92.542,208.886 97.086,208.886 C 103.074,208.886 108.008,204.354 108.646,198.536 C 110.824,199.598 112.874,199.555 114.812,198.559 C 115.461,204.366 120.389,208.886 126.37,208.886 C 130.914,208.886 134.852,206.275 136.765,202.473 Z M 106.716,197.256 C 106.716,202.571 102.402,206.886 97.086,206.886 C 91.771,206.886 87.456,202.571 87.456,197.256 C 87.456,191.94 91.771,187.626 97.086,187.626 C 102.402,187.626 106.716,191.94 106.716,197.256 Z M 136,197.256 C 136,202.571 131.685,206.886 126.37,206.886 C 121.054,206.886 116.74,202.571 116.74,197.256 C 116.74,191.94 121.054,187.626 126.37,187.626 C 131.685,187.626 136,191.94 136,197.256 Z"
 stroke="var(--on-000000)"/>
</svg>
<svg id="male-hat-chef" y="215px" x="54px">
<path fill="var(--on-e5e5e5)" stroke-width="0.0" d="M0.87,42.13c-2.17,7.05-0.29,13.31,5,18.45c2.92,2.81,6.71,4.54,10.74,4.9c4.01,0.45,8.06-0.39,11.55-2.41 c0.37,1.18,0.65,2.36,1.11,3.46c1.74,4.1,4.78,7.51,8.64,9.73c6.13,3.71,13.29,5.36,20.43,4.68c5.25-0.3,10.35-1.91,14.83-4.66 c3.87-2.25,6.91-5.68,8.67-9.8c0.39-1.08,0.66-2.24,1-3.32c8.25,3.96,16.04,3.43,22.75-3.1c5.11-4.64,6.86-11.94,4.4-18.39 c-2.6-7.63-8.39-11.63-16.39-12.63c-0.21-1.39-0.43-2.84-0.64-4.29c-0.87-5.97-4.13-14-4.79-19.06c-0.05-1.28-0.91-2.39-2.14-2.76 c-1.84-0.6-3.72-1.06-5.63-1.39C70.74,0.05,61-0.08,51.25,0.05c-6.64,0.01-13.28,0.46-19.86,1.36c-2,0.31-3.92,0.83-5.92,1.31 c-0.53,0.17-1.03,0.41-1.49,0.73c-0.57,0.36-0.94,0.96-1,1.63c-0.78,5.39-4.26,15.37-5.26,22c-0.1,0.68-0.19,1.34-0.29,2 C9.24,30.15,3.38,34.22,0.87,42.13z"/>
</svg>
</g>
</svg>