<svg id="persona-consumer" xmlns="http://www.w3.org/2000/svg" version="1.1" viewBox="0 -306 223 306" stroke-width="0.5" overflow="visible">
<defs>
<style>

:root {
    --f1c9a5:#f1c9a5;
    --e4b992:#e4b992;

    --e1ffad:#e1ffad;
    --000000:#000000;
    --333333:#333333;
    --005001:#005001;
    --83c803:#83c803;
    --e5e5e5:#E5E5E5;
    }
</style>
<linearGradient id="LinearGrad" gradientUnits="userSpaceOnUse" x1="0" y1="0" x2="7.389" y2="-22.5" gradientTransform="translate(104.339 207.475)"><stop offset="0" stop-color="var(--e1ffad)"/><stop offset="1" stop-color="var(--83c803)"/></linearGradient>
<linearGradient id="LinearGrad_1" gradientUnits="userSpaceOnUse" x1="0" y1="0" x2="10.05" y2="-24.15" gradientTransform="translate(114.97 206.179)"><stop offset="0" stop-color="var(--e1ffad)"/><stop offset="1" stop-color="var(--83c803)"/></linearGradient>
</defs>
<g transform="scale(1 -1)"><svg id="face" stroke-width="0.0"><svg id="face-left"><path fill="var(--f1c9a5)" d="M 111.728,57.58 C 135.658,57.58 157.838,65.115 176.023,77.94 C 171.279,109.355 167.997,123.432 158.177,131.643 C 152.738,136.268 145.332,138.577 134.373,141.767 C 131.521,142.596 126.711,143.982 124.277,144.51 L 124.278,157.903 C 132.054,162.221 138.002,170.432 140.407,180.443 C 145.044,180.721 147.083,182.158 149.096,185.514 C 150.676,188.148 151.954,192.542 150.754,195.8 C 149.682,198.711 147.022,201.832 143.663,201.832 C 142.799,201.832 141.959,201.638 141.183,201.288 C 138.882,218.286 126.521,231.276 111.728,231.276 C 96.935,231.276 84.574,218.286 82.273,201.288 C 81.497,201.638 80.657,201.832 79.793,201.832 C 76.434,201.832 73.774,198.711 72.702,195.8 C 71.502,192.542 72.78,188.148 74.36,185.514 C 76.373,182.158 78.412,180.721 83.049,180.443 C 85.454,170.432 91.402,162.221 99.178,157.903 L 99.179,144.51 C 96.745,143.982 91.935,142.596 89.083,141.767 C 78.124,138.577 70.718,136.268 65.279,131.643 C 55.459,123.432 52.177,109.355 47.433,77.94 C 65.618,65.115 87.798,57.58 111.728,57.58 Z" marker-start="none" marker-end="none"/></svg><svg id="face-right"><path fill="var(--e4b992)" d="M 111.728,57.58 C 135.658,57.58 157.838,65.115 176.023,77.94 C 171.279,109.355 167.997,123.432 158.177,131.643 C 152.738,136.268 145.332,138.577 134.373,141.767 C 131.521,142.596 126.711,143.982 124.277,144.51 L 124.278,157.903 C 132.054,162.221 138.002,170.432 140.407,180.443 C 145.044,180.721 147.083,182.158 149.096,185.514 C 150.676,188.148 151.954,192.542 150.754,195.8 C 149.682,198.711 147.022,201.832 143.663,201.832 C 142.799,201.832 141.959,201.638 141.183,201.288 C 138.882,218.286 126.521,231.276 111.728,231.276 L 111.728,57.58 Z" marker-start="none" marker-end="none"/></svg></svg><svg id="female-blouse"><path fill="var(--e5e5e5)" d="M 111.728,113.168 C 102.288,113.168 92.626,117.403 85.229,123.166 L 83.554,140.127 C 78.9,138.705 74.992,137.353 71.657,135.725 C 71.09,108.78 68.61,86.428 64.478,68.044 C 78.83,61.331 94.843,57.58 111.728,57.58 C 128.613,57.58 144.626,61.331 158.978,68.044 C 154.846,86.428 152.366,108.78 151.799,135.725 C 148.464,137.353 144.556,138.705 139.902,140.127 L 138.227,123.166 C 130.83,117.403 121.168,113.168 111.728,113.168 Z" marker-start="none" marker-end="none" stroke="none" stroke-linejoin="miter" stroke-linecap="round" stroke-width="0.5"/></svg><svg id="female-hair-full"><path fill="var(--000000)" d="M 90.831,148.688 L 68.061,181.967 L 77.494,181.967 C 78.873,181.06 80.598,180.589 83.049,180.443 C 85.454,170.432 91.402,162.221 99.178,157.903 L 99.178,148.688 L 90.831,148.688 Z M 124.277,148.688 L 124.278,157.903 C 132.054,162.221 138.002,170.432 140.407,180.443 C 142.857,180.589 144.582,181.06 145.961,181.967 L 154.44,181.967 L 131.633,148.688 L 124.277,148.688 Z" marker-start="none" marker-end="none"/><path fill="var(--333333)" d="M 90.833,148.688 C 78.113,176.527 79.043,209.024 98.483,226.784 C 106.403,204.944 158.032,215.407 131.632,148.688 C 154.908,161.792 158.09,185.661 156.704,216.975 C 155.886,235.456 151.94,258.759 116.84,261.159 C 110.514,261.591 103.981,259.861 97.341,256.659 C 94.415,257.958 91.314,258.056 88.341,257.859 C 67.264,256.456 63.082,233.185 61.665,216.975 C 59.509,192.318 65.672,157.792 90.833,148.688 Z" marker-start="none" marker-end="none" /></svg><svg id="female-accessory-glasses"><svg id="female-accessory-glasses-frames"><path fill="var(--005001)" d="M 83.353,200.589 C 83.167,201.461 83.789,202.267 84.474,202.498 C 90.928,204.681 100.592,204.119 108.266,200.912 C 109.525,200.386 110.431,200.182 111.727,200.182 C 113.023,200.182 113.928,200.386 115.188,200.912 C 122.861,204.119 132.526,204.681 138.979,202.498 C 139.665,202.267 140.286,201.461 140.101,200.589 C 138.769,194.334 132.886,184.799 125.813,184.799 C 116.109,184.799 115.193,196.623 111.727,196.623 C 108.261,196.623 107.345,184.799 97.641,184.799 C 90.568,184.799 84.685,194.334 83.353,200.589 Z" marker-start="none" marker-end="none"/></svg><svg id="female-accessory-glasses-lenses"><g id="tmp-461" stroke="none" stroke-linejoin="miter" stroke-linecap="round" stroke-width="0.0"><g id="tmp-462"><path d="M 87.654,196.623 C 87.313,197.873 87.654,199.601 89.244,200.182 C 94.72,202.298 101.899,202.472 106.411,198.929 C 107.483,198.086 108.034,196.349 107.668,195.035 C 106.507,190.868 102.422,186.528 97.868,186.528 C 92.28,186.528 88.82,192.368 87.654,196.623 Z" marker-start="none" marker-end="none" fill="url(#LinearGrad)"/></g><g id="tmp-465"><path d="M 135.802,196.623 C 136.143,197.873 135.802,199.601 134.212,200.182 C 128.736,202.298 121.557,202.472 117.045,198.929 C 115.973,198.086 115.422,196.349 115.788,195.035 C 116.949,190.868 121.034,186.528 125.588,186.528 C 131.176,186.528 134.636,192.368 135.802,196.623 Z" marker-start="none" marker-end="none" fill="url(#LinearGrad_1)"/></g></g></svg></svg></g></svg>