<svg id="svg-persona-farmer" xmlns="http://www.w3.org/2000/svg" version="1.1" viewBox="0 0 223 306" stroke-width="0.5" overflow="visible">
<defs>
<style>
:root{
--on-0003ff:#0003ff;
--on-7f4100:#7f4100;
--on-e4b992:#e4b992;
--on-e5e5e5:#e5e5e5;
--on-f1c9a5:#f1c9a5;
}
</style>
</defs>
<g transform="matrix(1,0,0,-1,-29.786656,262.89962)">
<svg id="face">
<svg id="face-left">
<path fill="var(--on-f1c9a5)" marker-start="none" marker-end="none" d="M 111.728,57.58 C 135.658,57.58 157.838,65.115 176.023,77.94 C 171.279,109.355 167.997,123.432 158.177,131.643 C 152.738,136.268 145.332,138.577 134.373,141.767 C 131.521,142.596 126.711,143.982 124.277,144.51 L 124.278,157.903 C 132.054,162.221 138.002,170.432 140.407,180.443 C 145.044,180.721 147.083,182.158 149.096,185.514 C 150.676,188.148 151.954,192.542 150.754,195.8 C 149.682,198.711 147.022,201.832 143.663,201.832 C 142.799,201.832 141.959,201.638 141.183,201.288 C 138.882,218.286 126.521,231.276 111.728,231.276 C 96.935,231.276 84.574,218.286 82.273,201.288 C 81.497,201.638 80.657,201.832 79.793,201.832 C 76.434,201.832 73.774,198.711 72.702,195.8 C 71.502,192.542 72.78,188.148 74.36,185.514 C 76.373,182.158 78.412,180.721 83.049,180.443 C 85.454,170.432 91.402,162.221 99.178,157.903 L 99.179,144.51 C 96.745,143.982 91.935,142.596 89.083,141.767 C 78.124,138.577 70.718,136.268 65.279,131.643 C 55.459,123.432 52.177,109.355 47.433,77.94 C 65.618,65.115 87.798,57.58 111.728,57.58 Z"/>
</svg>
<svg id="face-right">
<path fill="var(--on-e4b992)" marker-start="none" marker-end="none" d="M 111.728,57.58 C 135.658,57.58 157.838,65.115 176.023,77.94 C 171.279,109.355 167.997,123.432 158.177,131.643 C 152.738,136.268 145.332,138.577 134.373,141.767 C 131.521,142.596 126.711,143.982 124.277,144.51 L 124.278,157.903 C 132.054,162.221 138.002,170.432 140.407,180.443 C 145.044,180.721 147.083,182.158 149.096,185.514 C 150.676,188.148 151.954,192.542 150.754,195.8 C 149.682,198.711 147.022,201.832 143.663,201.832 C 142.799,201.832 141.959,201.638 141.183,201.288 C 138.882,218.286 126.521,231.276 111.728,231.276 L 111.728,57.58 Z"/>
</svg>
</svg>
<svg id="male-hair-mustache">
<path fill="var(--on-7f4100)" marker-start="none" marker-end="none" stroke-width="0.0" d="M 111.728,174.663 C 104.886,170.671 99.907,169.899 96.537,171.903 L 96.177,170.583 C 101.36,168.505 106.545,169.23 111.728,170.223 C 116.911,169.23 122.096,168.505 127.279,170.583 L 126.919,171.903 C 123.549,169.899 118.57,170.671 111.728,174.663 Z"/>
</svg>
<svg id="male-hair-head">
<path fill="var(--on-7f4100)" marker-start="none" marker-end="none" stroke-width="0.0" d="M 83.697,191.463 C 72.537,218.537 84.464,248.725 111.728,248.725 C 119.327,248.725 127.595,247.041 131.901,238.037 C 142.77,234.939 141.376,222.884 140.02,206.917 C 136.026,215.164 131.236,221.461 125.763,225.519 C 115.68,208.258 79.758,207.271 83.697,191.463 Z"/>
</svg>
<svg id="male-clothing-shirt">
<g id="tmp-114">
<path fill="var(--on-0003ff)" marker-start="none" marker-end="none" stroke-width="0.0" d="M 72.535,64.655 C 63.631,67.995 55.266,72.437 47.607,77.818 C 54.129,119.507 58.896,129.854 72.535,136.141 C 78.399,138.844 85.974,140.826 96.123,143.82 C 97.499,136.455 103.966,130.875 111.728,130.875 C 119.489,130.875 125.956,136.455 127.332,143.82 C 137.48,140.826 145.055,138.844 150.919,136.142 C 164.558,129.855 169.325,119.509 175.848,77.818 C 168.188,72.437 159.823,67.995 150.919,64.655 C 138.723,60.081 125.516,57.58 111.728,57.58 C 97.939,57.58 84.732,60.0 72.535,64.655 Z"/>
</g>
<g id="tmp-117">
<path fill="var(--on-e5e5e5)" marker-start="none" marker-end="none" stroke-width="0.0" d="M 89.296,141.829 C 91.433,142.451 93.705,143.107 96.123,143.82 C 97.499,136.455 103.966,130.875 111.728,130.875 C 119.489,130.875 125.956,136.455 127.332,143.82 C 129.75,143.106 132.022,142.451 134.159,141.829 C 131.905,131.516 122.713,123.788 111.728,123.788 C 100.742,123.788 91.55,131.516 89.296,141.829 Z"/>
</g>
</svg>
</g>
</svg>