<svg id="svg-persona-food-manufacturer" xmlns="http://www.w3.org/2000/svg" version="1.1" viewBox="0 0 223 306" stroke-width="0.5" overflow="visible">
<defs>
<style>
:root{
--on-000000:#000000;
--on-262162:#262162;
--on-7f0000:#7f0000;
--on-bf0000:#bf0000;
--on-bf6200:#bf6200;
--on-e4b992:#e4b992;
--on-e5e5e5:#e5e5e5;
--on-f1c9a5:#f1c9a5;
--on-ffffff:#ffffff;
}
</style>
</defs>
<g transform="matrix(1,0,0,-1,-34.966944,259.0144)">
<svg id="face" stroke-width="0.0">
<svg id="face-left">
<path fill="var(--on-f1c9a5)" marker-start="none" marker-end="none" d="M 111.728,57.58 C 135.658,57.58 157.838,65.115 176.023,77.94 C 171.279,109.355 167.997,123.432 158.177,131.643 C 152.738,136.268 145.332,138.577 134.373,141.767 C 131.521,142.596 126.711,143.982 124.277,144.51 L 124.278,157.903 C 132.054,162.221 138.002,170.432 140.407,180.443 C 145.044,180.721 147.083,182.158 149.096,185.514 C 150.676,188.148 151.954,192.542 150.754,195.8 C 149.682,198.711 147.022,201.832 143.663,201.832 C 142.799,201.832 141.959,201.638 141.183,201.288 C 138.882,218.286 126.521,231.276 111.728,231.276 C 96.935,231.276 84.574,218.286 82.273,201.288 C 81.497,201.638 80.657,201.832 79.793,201.832 C 76.434,201.832 73.774,198.711 72.702,195.8 C 71.502,192.542 72.78,188.148 74.36,185.514 C 76.373,182.158 78.412,180.721 83.049,180.443 C 85.454,170.432 91.402,162.221 99.178,157.903 L 99.179,144.51 C 96.745,143.982 91.935,142.596 89.083,141.767 C 78.124,138.577 70.718,136.268 65.279,131.643 C 55.459,123.432 52.177,109.355 47.433,77.94 C 65.618,65.115 87.798,57.58 111.728,57.58 Z"/>
</svg>
<svg id="face-right">
<path fill="var(--on-e4b992)" marker-start="none" marker-end="none" d="M 111.728,57.58 C 135.658,57.58 157.838,65.115 176.023,77.94 C 171.279,109.355 167.997,123.432 158.177,131.643 C 152.738,136.268 145.332,138.577 134.373,141.767 C 131.521,142.596 126.711,143.982 124.277,144.51 L 124.278,157.903 C 132.054,162.221 138.002,170.432 140.407,180.443 C 145.044,180.721 147.083,182.158 149.096,185.514 C 150.676,188.148 151.954,192.542 150.754,195.8 C 149.682,198.711 147.022,201.832 143.663,201.832 C 142.799,201.832 141.959,201.638 141.183,201.288 C 138.882,218.286 126.521,231.276 111.728,231.276 L 111.728,57.58 Z"/>
</svg>
</svg>
<svg id="male-clothing-dress">
<g id="tmp-329">
<path fill="var(--on-ffffff)" marker-start="none" marker-end="none" stroke="none" stroke-linejoin="miter" d="M 132.893,142.197 L 111.728,121.507 L 90.563,142.197 C 91.356,130.199 91.452,108.379 111.728,72.65 C 132.004,108.379 132.1,130.199 132.893,142.197 Z"/>
</g>
<g id="tmp-332" fill="var(--on-ffffff)" stroke-linejoin="round" stroke-linecap="round"
 stroke="var(--on-bf0000)" stroke-width="1.0">
<g id="tmp-334">
<path marker-start="none" marker-end="none" d="M 92.442,125.698 C 91.294,130.698 90.423,135.907 89.743,141.418 L 89.751,141.42 L 97.079,143.67 C 99.537,134.559 104.648,129.267 111.728,121.679 C 106.15,117.203 104.273,115.252 100.827,113.241 C 98.229,115.513 94.984,120.407 92.442,125.698 Z"/>
</g>
<g id="tmp-337">
<path marker-start="none" marker-end="none" d="M 111.728,121.679 C 118.808,129.267 123.919,134.559 126.377,143.67 L 133.704,141.42 L 133.712,141.418 C 133.032,135.907 132.161,130.698 131.013,125.698 C 128.471,120.407 125.226,115.513 122.629,113.241 C 119.183,115.252 117.306,117.203 111.728,121.679 Z"/>
</g>
</g>
<g id="tmp-341" fill="var(--on-262162)" stroke-linejoin="miter" stroke-linecap="round" stroke-width="0.5">
<g id="tmp-342">
<path marker-start="none" marker-end="none" d="M 108.852,111.331 L 105.653,114.53 L 111.728,120.605 L 117.804,114.53 L 114.604,111.331 L 108.852,111.331 Z"/>
</g>
<g id="tmp-345">
<path marker-start="none" marker-end="none" d="M 106.802,92.506 L 106.803,92.51 L 108.929,110.252 L 114.527,110.252 L 116.652,92.511 L 116.653,92.507 C 115.139,90.202 113.501,87.893 111.728,85.568 C 109.954,87.893 108.316,90.202 106.802,92.506 Z"/>
</g>
</g>
<g id="tmp-349">
<path fill="var(--on-e5e5e5)" marker-start="none" marker-end="none" stroke="none" stroke-linejoin="miter" stroke-linecap="round" stroke-width="0.5" d="M 111.728,85.607 C 94.964,117.476 97.5,136.455 96.124,143.82 C 85.976,140.826 78.401,138.844 72.537,136.142 C 58.897,129.855 54.13,119.509 47.607,77.818 C 55.267,72.437 63.632,67.995 72.537,64.655 L 72.537,64.674 C 84.732,60.1 97.94,57.58 111.728,57.58 C 125.516,57.58 138.724,60.1 150.919,64.674 L 150.919,64.655 C 159.824,67.995 168.189,72.437 175.849,77.818 C 169.326,119.509 164.559,129.855 150.919,136.142 C 145.055,138.844 137.48,140.826 127.332,143.82 C 125.956,136.455 128.492,117.476 111.728,85.607 Z"/>
</g>
<g id="tmp-352">
<path fill="var(--on-7f0000)" marker-start="none" marker-end="none" stroke="none" stroke-linejoin="miter" d="M 90.563,142.196 C 92.325,142.708 94.177,143.245 96.124,143.82 C 97.5,136.455 94.964,117.476 111.728,85.607 C 128.492,117.476 125.956,136.455 127.332,143.82 C 129.278,143.245 131.13,142.708 132.892,142.196 C 132.1,130.199 132.004,108.379 111.728,72.65 C 91.452,108.379 91.356,130.199 90.563,142.196 Z"/>
</g>
</svg>
<svg id="male-accessories-glasses">
<path fill="var(--on-000000)" stroke="none" stroke-linejoin="miter" d="M 86.999,194.761 L 86.295,195.331 L 84.695,195.961 L 82.205,199.748 C 90.316,201.384 95.96,202.539 100.977,201.423 C 104.617,200.614 108.684,198.328 111.728,198.303 C 114.772,198.328 118.839,200.614 122.479,201.423 C 127.496,202.539 133.14,201.384 141.166,199.748 L 138.761,195.961 L 137.161,195.331 L 136.457,194.761 C 136.346,185.964 130.899,181.367 124.973,181.175 C 119.19,180.987 113.349,185.114 112.928,193.677 C 112.928,193.901 112.698,194.011 112.521,194.084 C 112.033,194.286 111.423,194.286 110.935,194.084 C 110.758,194.011 110.528,193.901 110.528,193.677 C 110.107,185.114 104.266,180.987 98.483,181.175 C 92.557,181.367 87.11,185.964 86.999,194.761 Z M 108.71,191.814 C 109.172,193.743 108.215,195.865 106.289,197.251 C 104.257,198.713 101.505,199.746 98.885,199.989 C 96.461,200.213 93.9,200.148 91.686,198.759 C 89.854,197.61 88.808,195.725 88.941,193.786 C 89.309,188.431 93.779,183.827 98.435,183.489 C 102.831,183.17 107.682,187.528 108.71,191.814 Z M 125.021,183.489 C 129.677,183.827 134.147,188.431 134.515,193.786 C 134.648,195.725 133.602,197.61 131.77,198.759 C 129.556,200.148 126.995,200.213 124.571,199.989 C 121.951,199.746 119.199,198.713 117.167,197.251 C 115.241,195.865 114.284,193.743 114.746,191.814 C 115.774,187.528 120.625,183.17 125.021,183.489 Z"/>
</svg>
<svg id="male-hair-mustache">
<path fill="var(--on-bf6200)" marker-start="none" marker-end="none" stroke-width="0.0" d="M 128.736,167.045 C 126.334,169.423 121.256,168.093 117.862,167.757 C 115.853,167.558 112.755,168.946 111.728,170.59 C 110.701,168.946 107.603,167.558 105.594,167.757 C 102.2,168.093 97.122,169.423 94.72,167.045 C 99.812,175.835 105.562,176.916 111.728,175.632 C 117.894,176.916 123.644,175.835 128.736,167.045 Z"/>
</svg>
<svg id="male-hair">
<path fill="var(--on-bf6200)" marker-start="none" marker-end="none" stroke-linecap="round" stroke-width="0.5" d="M 74.092,211.288 C 74.448,214.917 75.556,220.242 76.271,223.279 C 78.551,232.954 83.921,239.779 93.84,239.845 C 97.871,242.629 104.673,246.489 111.728,246.529 C 132.679,246.409 143.748,237.866 147.185,223.279 C 147.9,220.242 149.008,214.917 149.364,211.288 C 149.148,211.379 141.453,199.574 141.339,195.707 C 141.47,195.782 139.501,195.685 138.761,195.917 C 138.411,198.92 138.511,205.534 138.334,210.991 C 119.105,209.325 106.679,213.562 98.171,223.879 C 94.303,223.723 90.499,220.217 88.358,216.8 C 84.606,210.812 85.278,200.914 84.695,195.917 C 83.955,195.685 81.986,195.782 82.117,195.707 C 82.003,199.574 74.308,211.379 74.092,211.288 Z"/>
</svg>
</g>
</svg>