<svg id="svg-persona-information-manager-version-2" xmlns="http://www.w3.org/2000/svg" version="1.1" viewBox="0 0 223 306" stroke-width="0.5" overflow="visible">
<defs>
<style>
:root{
--on-0bda9b:#0bda9b;
--on-7f4100:#7f4100;
--on-e4b992:#e4b992;
--on-e5e5e5:#e5e5e5;
--on-f1c9a5:#f1c9a5;
--on-fffe7f:#fffe7f;
}
</style>
</defs>
<g transform="matrix(1,0,0,-1,-34.966944,278.44048)">
<svg id="face">
<svg id="face-left">
<path fill="var(--on-f1c9a5)" marker-start="none" marker-end="none" d="M 111.728,57.58 C 135.658,57.58 157.838,65.115 176.023,77.94 C 171.279,109.355 167.997,123.432 158.177,131.643 C 152.738,136.268 145.332,138.577 134.373,141.767 C 131.521,142.596 126.711,143.982 124.277,144.51 L 124.278,157.903 C 132.054,162.221 138.002,170.432 140.407,180.443 C 145.044,180.721 147.083,182.158 149.096,185.514 C 150.676,188.148 151.954,192.542 150.754,195.8 C 149.682,198.711 147.022,201.832 143.663,201.832 C 142.799,201.832 141.959,201.638 141.183,201.288 C 138.882,218.286 126.521,231.276 111.728,231.276 C 96.935,231.276 84.574,218.286 82.273,201.288 C 81.497,201.638 80.657,201.832 79.793,201.832 C 76.434,201.832 73.774,198.711 72.702,195.8 C 71.502,192.542 72.78,188.148 74.36,185.514 C 76.373,182.158 78.412,180.721 83.049,180.443 C 85.454,170.432 91.402,162.221 99.178,157.903 L 99.179,144.51 C 96.745,143.982 91.935,142.596 89.083,141.767 C 78.124,138.577 70.718,136.268 65.279,131.643 C 55.459,123.432 52.177,109.355 47.433,77.94 C 65.618,65.115 87.798,57.58 111.728,57.58 Z"/>
</svg>
<svg id="face-right">
<path fill="var(--on-e4b992)" marker-start="none" marker-end="none" d="M 111.728,57.58 C 135.658,57.58 157.838,65.115 176.023,77.94 C 171.279,109.355 167.997,123.432 158.177,131.643 C 152.738,136.268 145.332,138.577 134.373,141.767 C 131.521,142.596 126.711,143.982 124.277,144.51 L 124.278,157.903 C 132.054,162.221 138.002,170.432 140.407,180.443 C 145.044,180.721 147.083,182.158 149.096,185.514 C 150.676,188.148 151.954,192.542 150.754,195.8 C 149.682,198.711 147.022,201.832 143.663,201.832 C 142.799,201.832 141.959,201.638 141.183,201.288 C 138.882,218.286 126.521,231.276 111.728,231.276 L 111.728,57.58 Z"/>
</svg>
</svg>
<svg id="female-hair-head-full">
<path fill="var(--on-7f4100)" marker-start="none" marker-end="none" stroke="none" stroke-linejoin="miter" stroke-linecap="round" stroke-width="0.5" d="M 82.273,201.288 C 81.497,201.638 80.657,201.832 79.793,201.832 C 76.434,201.832 73.774,198.711 72.702,195.8 C 71.502,192.542 72.78,188.148 74.36,185.514 C 76.373,182.158 78.412,180.721 83.049,180.443 C 83.953,176.679 85.357,173.17 87.172,170.028 L 87.171,170.028 C 70.923,182.394 68.784,194.126 68.784,207.843 C 68.784,224.621 77.328,239.293 90.045,247.214 C 90.043,247.334 90.043,247.454 90.043,247.574 C 90.043,259.543 99.759,269.259 111.728,269.259 C 123.697,269.259 133.413,259.543 133.413,247.574 C 133.413,247.454 133.413,247.334 133.411,247.214 C 136.826,245.086 139.941,242.472 142.67,239.443 L 142.67,239.46 C 150.101,231.259 154.672,220.114 154.672,207.843 C 154.672,194.126 152.532,182.394 136.283,170.028 C 138.098,173.17 139.502,176.679 140.407,180.443 C 145.044,180.721 147.083,182.158 149.096,185.514 C 150.676,188.148 151.954,192.542 150.754,195.8 C 149.682,198.711 147.022,201.832 143.663,201.832 C 142.799,201.832 141.959,201.638 141.183,201.288 C 116.518,203.423 105.17,212.961 98.68,225.194 C 96.519,215.742 91.623,207.515 82.273,201.288 Z"/>
</svg>
<svg id="female-clothing">
<svg id="female-clothing-blouse">
<path fill="var(--on-e5e5e5)" marker-start="none" marker-end="none" stroke-linejoin="miter" d="M 92.034,59.312 L 92.034,59.348 L 92.034,124.771 C 104.567,119.226 117.667,118.958 131.421,124.771 L 131.421,59.348 L 131.421,59.312 C 125.028,58.174 118.447,57.58 111.728,57.58 C 105.008,57.58 98.427,58.174 92.034,59.312 Z"/>
</svg>
<svg id="female-clothing-accessory-necklace-pearls">
<g id="tmp-615" fill="var(--on-fffe7f)" stroke="none" stroke-linejoin="miter" stroke-linecap="round" stroke-width="0.456">

<path marker-start="none" marker-end="none" d="M 133.087,131.751 C 131.654,130.924 129.817,131.415 128.989,132.849 C 128.162,134.282 128.653,136.119 130.087,136.947 C 131.52,137.774 133.357,137.283 134.185,135.849 C 135.012,134.416 134.521,132.579 133.087,131.751 Z"/>
<path marker-start="none" marker-end="none" d="M 129.111,126.235 C 127.556,125.668 125.832,126.47 125.265,128.025 C 124.698,129.58 125.5,131.304 127.055,131.871 C 128.61,132.438 130.334,131.636 130.901,130.081 C 131.468,128.526 130.666,126.802 129.111,126.235 Z"/>
<path marker-start="none" marker-end="none" d="M 123.912,121.6 C 122.267,121.418 120.782,122.605 120.599,124.251 C 120.417,125.896 121.604,127.381 123.25,127.564 C 124.895,127.746 126.38,126.559 126.563,124.913 C 126.745,123.268 125.558,121.783 123.912,121.6 Z"/>
<path marker-start="none" marker-end="none" d="M 117.432,118.529 C 115.815,118.88 114.786,120.479 115.136,122.097 C 115.487,123.714 117.086,124.743 118.704,124.393 C 120.321,124.042 121.35,122.443 121,120.825 C 120.649,119.208 119.05,118.179 117.432,118.529 Z"/>
<path marker-start="none" marker-end="none" d="M 110.327,117.719 C 108.901,118.559 108.424,120.4 109.264,121.826 C 110.104,123.252 111.945,123.729 113.371,122.889 C 114.797,122.049 115.274,120.208 114.434,118.782 C 113.594,117.356 111.753,116.879 110.327,117.719 Z"/>
<path marker-start="none" marker-end="none" d="M 103.287,119.489 C 102.245,120.774 102.441,122.665 103.727,123.709 C 105.012,124.751 106.903,124.555 107.947,123.269 C 108.989,121.984 108.793,120.093 107.507,119.049 C 106.222,118.007 104.331,118.203 103.287,119.489 Z"/>
<path marker-start="none" marker-end="none" d="M 97.275,123.335 C 96.67,124.875 97.429,126.618 98.97,127.224 C 100.51,127.829 102.253,127.07 102.859,125.529 C 103.464,123.989 102.705,122.246 101.164,121.64 C 99.624,121.035 97.881,121.794 97.275,123.335 Z"/>
<path marker-start="none" marker-end="none" d="M 92.553,128.451 C 92.327,130.091 93.475,131.606 95.115,131.833 C 96.755,132.059 98.27,130.911 98.497,129.271 C 98.723,127.631 97.575,126.116 95.935,125.889 C 94.295,125.663 92.78,126.811 92.553,128.451 Z"/>
<path marker-start="none" marker-end="none" d="M 88.987,134.258 C 89.056,135.911 90.455,137.199 92.109,137.13 C 93.762,137.061 95.05,135.662 94.981,134.008 C 94.912,132.355 93.513,131.067 91.859,131.136 C 90.206,131.205 88.918,132.604 88.987,134.258 Z"/>

</g>
</svg>
<svg id="female-clothing-jacket">
<path fill="var(--on-0bda9b)" marker-start="none" marker-end="none" stroke-linejoin="round" d="M 116.367,57.697 L 127.103,143.888 C 162.82,134.09 167.817,132.44 175.987,77.915 C 158.989,65.937 138.503,58.579 116.364,57.674 L 116.367,57.697 Z"/>
<path fill="var(--on-0bda9b)" marker-start="none" marker-end="none" stroke-linejoin="round" d="M 47.468,77.915 C 55.638,132.44 60.635,134.09 96.353,143.888 L 107.088,57.697 L 107.091,57.674 C 84.952,58.579 64.466,65.937 47.468,77.915 Z"/>
</svg>
</svg>
</g>
</svg>