<svg id="svg-persona-nutritionist" xmlns="http://www.w3.org/2000/svg" version="1.1" viewBox="0 0 223 306" stroke-width="0.5" overflow="visible">
<defs>
<style>
:root{
--on-0000ff:#0000ff;
--on-7d420a:#7d420a;
--on-e4b992:#e4b992;
--on-f1c9a5:#f1c9a5;
}
</style>
</defs>
<g transform="matrix(1,0,0,-1,-38.85216,286.21091)">
<svg id="face" stroke-width="0.0">
<svg id="face-left">
<path fill="var(--on-f1c9a5)" marker-start="none" marker-end="none" d="M 111.728,57.58 C 135.658,57.58 157.838,65.115 176.023,77.94 C 171.279,109.355 167.997,123.432 158.177,131.643 C 152.738,136.268 145.332,138.577 134.373,141.767 C 131.521,142.596 126.711,143.982 124.277,144.51 L 124.278,157.903 C 132.054,162.221 138.002,170.432 140.407,180.443 C 145.044,180.721 147.083,182.158 149.096,185.514 C 150.676,188.148 151.954,192.542 150.754,195.8 C 149.682,198.711 147.022,201.832 143.663,201.832 C 142.799,201.832 141.959,201.638 141.183,201.288 C 138.882,218.286 126.521,231.276 111.728,231.276 C 96.935,231.276 84.574,218.286 82.273,201.288 C 81.497,201.638 80.657,201.832 79.793,201.832 C 76.434,201.832 73.774,198.711 72.702,195.8 C 71.502,192.542 72.78,188.148 74.36,185.514 C 76.373,182.158 78.412,180.721 83.049,180.443 C 85.454,170.432 91.402,162.221 99.178,157.903 L 99.179,144.51 C 96.745,143.982 91.935,142.596 89.083,141.767 C 78.124,138.577 70.718,136.268 65.279,131.643 C 55.459,123.432 52.177,109.355 47.433,77.94 C 65.618,65.115 87.798,57.58 111.728,57.58 Z"/>
</svg>
<svg id="face-right">
<path fill="var(--on-e4b992)" marker-start="none" marker-end="none" d="M 111.728,57.58 C 135.658,57.58 157.838,65.115 176.023,77.94 C 171.279,109.355 167.997,123.432 158.177,131.643 C 152.738,136.268 145.332,138.577 134.373,141.767 C 131.521,142.596 126.711,143.982 124.277,144.51 L 124.278,157.903 C 132.054,162.221 138.002,170.432 140.407,180.443 C 145.044,180.721 147.083,182.158 149.096,185.514 C 150.676,188.148 151.954,192.542 150.754,195.8 C 149.682,198.711 147.022,201.832 143.663,201.832 C 142.799,201.832 141.959,201.638 141.183,201.288 C 138.882,218.286 126.521,231.276 111.728,231.276 L 111.728,57.58 Z"/>
</svg>
</svg>
<svg id="female-clothing-blouse">
<path fill="var(--on-0000ff)" marker-start="none" marker-end="none" stroke-linejoin="miter" stroke-linecap="round" stroke-width="0.5" d="M 47.433,77.94 C 52.231,109.707 55.735,123.631 65.81,131.805 C 79.407,124.226 95.065,119.908 111.727,114.237 C 128.387,119.908 144.046,124.226 157.643,131.806 C 167.718,123.632 171.223,109.708 176.022,77.94 C 157.837,65.115 135.657,57.58 111.728,57.58 C 87.798,57.58 65.618,65.115 47.433,77.94 Z"/>
</svg>
<svg id="female-hair">
<path fill="var(--on-7d420a)" marker-start="none" marker-end="none" stroke="none" stroke-linejoin="miter" d="M 111.728,275.623 C 141.035,275.74 155.361,247.447 147.715,227.295 C 150.02,217.629 148.867,208.491 145.898,201.096 C 145.199,201.396 144.45,201.568 143.663,201.568 C 142.744,201.568 141.852,201.348 141.036,200.956 C 138.759,217.987 126.54,230.089 111.728,230.089 C 96.916,230.089 84.697,217.987 82.42,200.956 C 81.604,201.348 80.712,201.568 79.793,201.568 C 79.006,201.568 78.257,201.396 77.558,201.096 C 74.589,208.491 73.436,217.629 75.741,227.295 C 68.095,247.447 82.421,275.74 111.728,275.623 Z"/>
</svg>
<svg id="female-hair-band">
<path fill="var(--on-0000ff)" marker-start="none" marker-end="none" stroke="none" stroke-linejoin="miter" stroke-width="0.0" d="M 74.739,230.444 C 81.103,248.298 96.095,254.232 111.728,254.439 C 127.276,254.232 142.352,248.298 148.716,230.444 C 148.439,229.376 148.105,228.325 147.715,227.295 C 139.571,246.067 119.906,248.725 111.728,248.725 C 103.465,248.725 83.885,246.067 75.741,227.295 C 75.35,228.325 75.016,229.376 74.739,230.444 Z"/>
</svg>
<svg id="female-accessories-earrings">
<g fill="var(--on-0000ff)" stroke="none" stroke-linejoin="miter" stroke-linecap="round" stroke-width="0.5">
<ellipse rx="3.6" ry="3.6" transform="translate(81.263 180.246) rotate(-90)"/>
<ellipse rx="3.6" ry="3.6" transform="translate(145.028 180.246) rotate(-90)"/>
</g>
</svg>
</g>
</svg>