<svg id="svg-persona-sociologist" xmlns="http://www.w3.org/2000/svg" version="1.1" viewBox="0 0 223 306" stroke-width="0.5" overflow="visible">
<defs>
<style>
:root{
--on-333333:#333333;
--on-7d420a:#7d420a;
--on-e4b992:#e4b992;
--on-f1c9a5:#f1c9a5;
--on-ffffff:#ffffff;
}
</style>
</defs>
<g transform="matrix(1,0,0,-1,-33.671872,273.26019)">
<svg id="face" stroke-width="0.0">
<svg id="face-left">
<path fill="var(--on-f1c9a5)" marker-start="none" marker-end="none" d="M 111.728,57.58 C 135.658,57.58 157.838,65.115 176.023,77.94 C 171.279,109.355 167.997,123.432 158.177,131.643 C 152.738,136.268 145.332,138.577 134.373,141.767 C 131.521,142.596 126.711,143.982 124.277,144.51 L 124.278,157.903 C 132.054,162.221 138.002,170.432 140.407,180.443 C 145.044,180.721 147.083,182.158 149.096,185.514 C 150.676,188.148 151.954,192.542 150.754,195.8 C 149.682,198.711 147.022,201.832 143.663,201.832 C 142.799,201.832 141.959,201.638 141.183,201.288 C 138.882,218.286 126.521,231.276 111.728,231.276 C 96.935,231.276 84.574,218.286 82.273,201.288 C 81.497,201.638 80.657,201.832 79.793,201.832 C 76.434,201.832 73.774,198.711 72.702,195.8 C 71.502,192.542 72.78,188.148 74.36,185.514 C 76.373,182.158 78.412,180.721 83.049,180.443 C 85.454,170.432 91.402,162.221 99.178,157.903 L 99.179,144.51 C 96.745,143.982 91.935,142.596 89.083,141.767 C 78.124,138.577 70.718,136.268 65.279,131.643 C 55.459,123.432 52.177,109.355 47.433,77.94 C 65.618,65.115 87.798,57.58 111.728,57.58 Z"/>
</svg>
<svg id="face-right">
<path fill="var(--on-e4b992)" marker-start="none" marker-end="none" d="M 111.728,57.58 C 135.658,57.58 157.838,65.115 176.023,77.94 C 171.279,109.355 167.997,123.432 158.177,131.643 C 152.738,136.268 145.332,138.577 134.373,141.767 C 131.521,142.596 126.711,143.982 124.277,144.51 L 124.278,157.903 C 132.054,162.221 138.002,170.432 140.407,180.443 C 145.044,180.721 147.083,182.158 149.096,185.514 C 150.676,188.148 151.954,192.542 150.754,195.8 C 149.682,198.711 147.022,201.832 143.663,201.832 C 142.799,201.832 141.959,201.638 141.183,201.288 C 138.882,218.286 126.521,231.276 111.728,231.276 L 111.728,57.58 Z"/>
</svg>
</svg>
<svg id="female-clothing-blouse">
<path fill="var(--on-ffffff)" marker-start="none" marker-end="none" stroke-width="0.0" d="M 72.535,64.655 C 63.631,67.995 55.266,72.437 47.607,77.818 C 54.129,119.507 58.896,129.854 72.535,136.141 C 78.399,138.844 85.974,140.826 96.123,143.82 C 97.499,136.455 103.966,130.875 111.728,130.875 C 119.489,130.875 125.956,136.455 127.332,143.82 C 137.48,140.826 145.055,138.844 150.919,136.142 C 164.558,129.855 169.325,119.509 175.848,77.818 C 168.188,72.437 159.823,67.995 150.919,64.655 C 138.723,60.081 125.516,57.58 111.728,57.58 C 97.939,57.58 84.732,60.081 72.535,64.655 Z"/>
<path fill="var(--on-333333)" marker-start="none" marker-end="none" stroke-width="0.0" d="M 111.728,85.607 C 94.964,117.476 97.5,136.455 96.124,143.82 C 85.976,140.826 78.401,138.844 72.537,136.142 C 58.897,129.855 54.13,119.509 47.607,77.818 C 55.267,72.437 63.632,67.995 72.537,64.655 L 72.537,64.674 C 84.732,60.1 97.94,57.58 111.728,57.58 C 125.516,57.58 138.724,60.1 150.919,64.674 L 150.919,64.655 C 159.824,67.995 168.189,72.437 175.849,77.818 C 169.326,119.509 164.559,129.855 150.919,136.142 C 145.055,138.844 137.48,140.826 127.332,143.82 C 125.956,136.455 128.492,117.476 111.728,85.607 Z"/>
</svg>
<svg id="female-hair">
<path fill="var(--on-7d420a)" marker-start="none" marker-end="none" stroke-width="0.456" d="M 90.833,148.688 C 78.113,176.527 79.649,209.709 99.089,227.469 C 107.009,205.629 158.032,215.407 131.632,148.688 C 154.908,161.792 165.987,183.924 163.94,205.659 C 161.665,229.816 151.94,258.759 116.84,261.159 C 110.514,261.591 103.981,259.861 97.341,256.659 C 94.415,257.958 91.314,258.056 88.341,257.859 C 67.264,256.456 49.338,222.328 50.541,199.059 C 51.651,177.587 65.672,157.792 90.833,148.688 Z"/>
</svg>
</g>
</svg>