<svg id="svg-persona-trader" xmlns="http://www.w3.org/2000/svg" version="1.1" viewBox="0 0 223 306" stroke-width="0.5" overflow="visible">
<defs>
<style>
:root{
--on-000000:#000000;
--on-191919:#191919;
--on-262162:#262162;
--on-3d3d3d:#3d3d3d;
--on-3e3898:#3e3898;
--on-c70000:#c70000;
--on-e4b992:#e4b992;
--on-f1c9a5:#f1c9a5;
--on-ffffff:#ffffff;
}
</style>
</defs>
<g transform="matrix(1,0,0,-1,-34.966944,253.83411)">
<svg id="face">
<svg id="face-left">
<path fill="var(--on-f1c9a5)" marker-start="none" marker-end="none" d="M 111.728,57.58 C 135.658,57.58 157.838,65.115 176.023,77.94 C 171.279,109.355 167.997,123.432 158.177,131.643 C 152.738,136.268 145.332,138.577 134.373,141.767 C 131.521,142.596 126.711,143.982 124.277,144.51 L 124.278,157.903 C 132.054,162.221 138.002,170.432 140.407,180.443 C 145.044,180.721 147.083,182.158 149.096,185.514 C 150.676,188.148 151.954,192.542 150.754,195.8 C 149.682,198.711 147.022,201.832 143.663,201.832 C 142.799,201.832 141.959,201.638 141.183,201.288 C 138.882,218.286 126.521,231.276 111.728,231.276 C 96.935,231.276 84.574,218.286 82.273,201.288 C 81.497,201.638 80.657,201.832 79.793,201.832 C 76.434,201.832 73.774,198.711 72.702,195.8 C 71.502,192.542 72.78,188.148 74.36,185.514 C 76.373,182.158 78.412,180.721 83.049,180.443 C 85.454,170.432 91.402,162.221 99.178,157.903 L 99.179,144.51 C 96.745,143.982 91.935,142.596 89.083,141.767 C 78.124,138.577 70.718,136.268 65.279,131.643 C 55.459,123.432 52.177,109.355 47.433,77.94 C 65.618,65.115 87.798,57.58 111.728,57.58 Z"/>
</svg>
<svg id="face-right">
<path fill="var(--on-e4b992)" marker-start="none" marker-end="none" d="M 111.728,57.58 C 135.658,57.58 157.838,65.115 176.023,77.94 C 171.279,109.355 167.997,123.432 158.177,131.643 C 152.738,136.268 145.332,138.577 134.373,141.767 C 131.521,142.596 126.711,143.982 124.277,144.51 L 124.278,157.903 C 132.054,162.221 138.002,170.432 140.407,180.443 C 145.044,180.721 147.083,182.158 149.096,185.514 C 150.676,188.148 151.954,192.542 150.754,195.8 C 149.682,198.711 147.022,201.832 143.663,201.832 C 142.799,201.832 141.959,201.638 141.183,201.288 C 138.882,218.286 126.521,231.276 111.728,231.276 L 111.728,57.58 Z"/>
</svg>
</svg>
<svg id="male-accessory-glasses">
<svg id="male-accessory-glasses-frames">
<g id="tmp-161" stroke="none" stroke-linejoin="miter" stroke-width="0.0">
<g id="tmp-162">
<path fill="var(--on-191919)" marker-start="none" marker-end="none" d="M 86.999,194.761 L 86.295,195.331 L 84.695,195.961 L 82.205,199.748 C 90.316,201.384 95.96,202.539 100.977,201.423 C 104.617,200.614 108.684,198.328 111.728,198.303 C 114.772,198.328 118.839,200.614 122.479,201.423 C 127.496,202.539 133.14,201.384 141.166,199.748 L 138.761,195.961 L 137.161,195.331 L 136.457,194.761 C 136.346,185.964 130.899,181.367 124.973,181.175 C 119.19,180.987 113.349,185.114 112.928,193.677 C 112.928,193.901 112.698,194.011 112.521,194.084 C 112.033,194.286 111.423,194.286 110.935,194.084 C 110.758,194.011 110.528,193.901 110.528,193.677 C 110.107,185.114 104.266,180.987 98.483,181.175 C 92.557,181.367 87.11,185.964 86.999,194.761 Z M 108.71,191.814 C 109.172,193.743 108.215,195.865 106.289,197.251 C 104.257,198.713 101.505,199.746 98.885,199.989 C 96.461,200.213 93.9,200.148 91.686,198.759 C 89.854,197.61 88.808,195.725 88.941,193.786 C 89.309,188.431 93.779,183.827 98.435,183.489 C 102.831,183.17 107.682,187.528 108.71,191.814 Z M 125.021,183.489 C 129.677,183.827 134.147,188.431 134.515,193.786 C 134.648,195.725 133.602,197.61 131.77,198.759 C 129.556,200.148 126.995,200.213 124.571,199.989 C 121.951,199.746 119.199,198.713 117.167,197.251 C 115.241,195.865 114.284,193.743 114.746,191.814 C 115.774,187.528 120.625,183.17 125.021,183.489 Z"/>
</g>
<g id="tmp-165">
<path marker-start="none" marker-end="none" fill="url(#LinearGradient)" d="M 108.71,191.814 C 109.172,193.743 108.215,195.865 106.289,197.251 C 104.257,198.713 101.505,199.746 98.885,199.989 C 96.461,200.213 93.9,200.148 91.686,198.759 C 89.854,197.61 88.808,195.725 88.941,193.786 C 89.309,188.431 93.779,183.827 98.435,183.489 C 102.831,183.17 107.682,187.528 108.71,191.814 Z"/>
<ellipse fill="var(--on-ffffff)" rx="1.538" ry="1.538" cx="92.903" cy="196.406"/>
<ellipse fill="var(--on-ffffff)" rx="0.84" ry="0.84" transform="translate(96.321 194.867) rotate(-90)"/>
</g>
<g id="tmp-170">
<path marker-start="none" marker-end="none" fill="url(#LinearGradient_1)" d="M 114.746,191.814 C 114.284,193.743 115.241,195.865 117.167,197.251 C 119.199,198.713 121.951,199.746 124.571,199.989 C 126.995,200.213 129.556,200.148 131.77,198.759 C 133.602,197.61 134.648,195.725 134.515,193.786 C 134.147,188.431 129.677,183.827 125.021,183.489 C 120.625,183.17 115.774,187.528 114.746,191.814 Z"/>
<ellipse fill="var(--on-ffffff)" rx="1.538" ry="1.538" cx="120.32" cy="196.406"/>
<ellipse fill="var(--on-ffffff)" rx="0.84" ry="0.84" transform="translate(123.738 194.867) rotate(-90)"/>
</g>
</g>
</svg>
<svg id="male-accessory-glasses">
<defs>
<linearGradient id="LinearGradient" gradientUnits="userSpaceOnUse" x1="0" y1="0" x2="10.222" y2="-9.573" gradientTransform="translate(89.105 200.873)">
<stop offset="0" stop-color="--on-ffffff:#ffffff;"/>
<stop offset="1" stop-color="--on-3d3d3d:#3d3d3d;"/>
</linearGradient>
<linearGradient id="LinearGradient_1" gradientUnits="userSpaceOnUse" x1="0" y1="0" x2="9.759" y2="-11.429" gradientTransform="translate(114.37 202.729)">
<stop offset="0" stop-color="--on-ffffff:#ffffff;"/>
<stop offset="1" stop-color="--on-3d3d3d:#3d3d3d;"/>
</linearGradient>
</defs>
</svg>
</svg>
<svg id="male-hair-mustache">
<path fill="var(--on-000000)" marker-start="none" marker-end="none" stroke-linecap="round" stroke-width="0.5" d="M 111.728,153.516 L 102.68,157.484 C 105.696,157.774 108.712,158.237 111.728,160.115 C 114.744,158.237 117.76,157.774 120.776,157.484 L 111.728,153.516 Z"/>
<path fill="var(--on-000000)" marker-start="none" marker-end="none" stroke-width="0.0" d="M 128.736,167.045 C 126.334,169.423 121.256,168.093 117.862,167.757 C 115.853,167.558 112.755,168.946 111.728,170.59 C 110.701,168.946 107.603,167.558 105.594,167.757 C 102.2,168.093 97.122,169.423 94.72,167.045 C 99.812,175.835 105.562,176.916 111.728,175.632 C 117.894,176.916 123.644,175.835 128.736,167.045 Z"/>
</svg>
<svg id="male-clothing-jacket-tie">
<g id="tmp-195">
<path fill="var(--on-ffffff)" marker-start="none" marker-end="none" stroke="none" stroke-linejoin="miter" d="M 132.893,142.197 L 111.728,121.507 L 90.563,142.197 C 91.356,130.199 91.452,108.379 111.728,72.65 C 132.004,108.379 132.1,130.199 132.893,142.197 Z"/>
</g>
<g id="tmp-198" stroke="var(--on-262162)" stroke-width="1"
 fill="var(--on-c70000)" stroke-linejoin="round" stroke-linecap="round">
<g id="tmp-200">
<path marker-start="none" marker-end="none" d="M 92.442,125.698 C 91.294,130.698 90.423,135.907 89.743,141.418 L 89.751,141.42 L 97.079,143.67 C 99.537,134.559 104.648,129.267 111.728,121.679 C 106.15,117.203 104.273,115.252 100.827,113.241 C 98.229,115.513 94.984,120.407 92.442,125.698 Z"/>
</g>
<g id="tmp-203">
<path marker-start="none" marker-end="none" d="M 111.728,121.679 C 118.808,129.267 123.919,134.559 126.377,143.67 L 133.704,141.42 L 133.712,141.418 C 133.032,135.907 132.161,130.698 131.013,125.698 C 128.471,120.407 125.226,115.513 122.629,113.241 C 119.183,115.252 117.306,117.203 111.728,121.679 Z"/>
</g>
</g>
<g id="tmp-207" fill="var(--on-c70000)" stroke="none" stroke-linejoin="miter" stroke-linecap="round" stroke-width="0.5">
<g id="tmp-208">
<path marker-start="none" marker-end="none" d="M 108.852,111.331 L 105.653,114.53 L 111.728,120.605 L 117.804,114.53 L 114.604,111.331 L 108.852,111.331 Z"/>
</g>
<g id="tmp-211">
<path marker-start="none" marker-end="none" d="M 106.802,92.506 L 106.803,92.51 L 108.929,110.252 L 114.527,110.252 L 116.652,92.511 L 116.653,92.507 C 115.139,90.202 113.501,87.893 111.728,85.568 C 109.954,87.893 108.316,90.202 106.802,92.506 Z"/>
</g>
</g>
<g id="tmp-215">
<path fill="var(--on-262162)" marker-start="none" marker-end="none" stroke="none" stroke-linejoin="miter" stroke-linecap="round" stroke-width="0.5" d="M 111.728,85.607 C 94.964,117.476 97.5,136.455 96.124,143.82 C 85.976,140.826 78.401,138.844 72.537,136.142 C 58.897,129.855 54.13,119.509 47.607,77.818 C 55.267,72.437 63.632,67.995 72.537,64.655 L 72.537,64.674 C 84.732,60.1 97.94,57.58 111.728,57.58 C 125.516,57.58 138.724,60.1 150.919,64.674 L 150.919,64.655 C 159.824,67.995 168.189,72.437 175.849,77.818 C 169.326,119.509 164.559,129.855 150.919,136.142 C 145.055,138.844 137.48,140.826 127.332,143.82 C 125.956,136.455 128.492,117.476 111.728,85.607 Z"/>
</g>
<g id="tmp-218" fill="var(--on-ffffff)" stroke="none" stroke-width="0.5">
<g id="tmp-219" stroke-linejoin="miter" stroke-linecap="round">
<g id="tmp-220">
<path marker-start="none" marker-end="none" d="M 149.919,64.348 L 149.919,136.588 C 150.257,136.441 150.591,136.293 150.919,136.142 L 150.919,64.674 C 150.586,64.549 150.252,64.425 149.919,64.304 L 149.919,64.348 Z"/>
</g>
<g id="tmp-223">
<path marker-start="none" marker-end="none" d="M 72.537,64.674 L 72.537,136.142 C 72.864,136.293 73.198,136.441 73.536,136.588 L 73.537,64.348 L 73.536,64.304 C 73.202,64.426 72.869,64.549 72.537,64.674 Z"/>
</g>
<g id="tmp-226">
<path marker-start="none" marker-end="none" d="M 80.745,61.953 L 80.746,62 L 80.745,139.245 C 81.075,139.352 81.408,139.458 81.745,139.565 L 81.746,61.675 L 81.745,61.669 C 81.411,61.762 81.078,61.857 80.745,61.953 Z"/>
</g>
<g id="tmp-229">
<path marker-start="none" marker-end="none" d="M 141.709,61.674 L 141.709,139.565 C 142.046,139.459 142.379,139.352 142.709,139.246 L 142.709,62 L 142.709,61.952 C 142.376,61.856 142.043,61.762 141.709,61.669 L 141.709,61.674 Z"/>
</g>
<g id="tmp-232">
<path marker-start="none" marker-end="none" d="M 89.454,59.813 L 89.455,59.841 L 89.454,141.874 C 89.785,141.97 90.118,142.067 90.454,142.165 L 90.455,59.635 L 90.454,59.615 C 90.121,59.68 89.787,59.746 89.454,59.813 Z"/>
</g>
<g id="tmp-235">
<path marker-start="none" marker-end="none" d="M 133,59.634 L 133,142.165 C 133.336,142.067 133.669,141.971 134,141.875 L 134,59.841 L 134,59.813 C 133.666,59.746 133.333,59.679 133,59.615 L 133,59.634 Z"/>
</g>
<g id="tmp-238">
<path marker-start="none" marker-end="none" d="M 98.163,58.4 L 98.164,58.426 L 98.164,123.847 C 98.439,122.231 98.767,120.529 99.163,118.74 L 99.164,58.312 L 99.163,58.283 C 98.829,58.321 98.496,58.36 98.163,58.4 Z"/>
</g>
<g id="tmp-241">
<path marker-start="none" marker-end="none" d="M 124.291,58.312 L 124.291,118.735 C 124.687,120.525 125.016,122.229 125.291,123.847 L 125.291,58.426 L 125.291,58.4 C 124.958,58.36 124.624,58.321 124.291,58.283 L 124.291,58.312 Z"/>
</g>
<g id="tmp-244">
<path marker-start="none" marker-end="none" d="M 106.872,57.684 L 106.873,57.69 L 106.872,95.64 C 107.195,94.908 107.528,94.169 107.872,93.42 L 107.873,57.667 L 107.872,57.645 C 107.539,57.657 107.205,57.67 106.872,57.684 Z"/>
</g>
<g id="tmp-247">
<path marker-start="none" marker-end="none" d="M 115.582,57.667 L 115.582,93.418 C 115.926,94.167 116.26,94.907 116.582,95.639 L 116.582,57.69 L 116.582,57.684 C 116.248,57.67 115.915,57.657 115.582,57.645 L 115.582,57.667 Z"/>
</g>
</g>
<g id="tmp-251" fill-rule="evenodd">
<g id="tmp-252">
<path marker-start="none" marker-end="none" d="M 66.238,67.24 L 66.239,67.244 L 72.537,89.539 L 72.537,85.858 L 67.166,66.845 L 67.163,66.832 C 66.854,66.966 66.545,67.102 66.238,67.24 Z"/>
</g>
<g id="tmp-255">
<path marker-start="none" marker-end="none" d="M 58.771,70.916 L 58.774,70.927 L 72.537,119.66 L 72.537,115.979 L 59.675,70.435 L 59.674,70.434 C 59.372,70.593 59.071,70.754 58.771,70.916 Z"/>
</g>
<g id="tmp-258">
<path marker-start="none" marker-end="none" d="M 51.48,75.215 L 51.484,75.227 L 67.982,133.65 C 68.393,133.92 68.813,134.18 69.243,134.433 L 52.365,74.668 L 52.362,74.655 C 52.067,74.84 51.773,75.027 51.48,75.215 Z"/>
</g>
</g>
<g id="tmp-262" fill-rule="evenodd">
<g id="tmp-263">
<path marker-start="none" marker-end="none" d="M 156.288,66.844 L 150.919,85.855 L 150.919,89.535 L 157.215,67.243 L 157.216,67.239 C 156.909,67.102 156.601,66.966 156.292,66.831 L 156.288,66.844 Z"/>
</g>
<g id="tmp-266">
<path marker-start="none" marker-end="none" d="M 163.779,70.435 L 150.919,115.975 L 150.919,119.656 L 164.68,70.926 L 164.683,70.915 C 164.383,70.753 164.082,70.593 163.78,70.433 L 163.779,70.435 Z"/>
</g>
<g id="tmp-269">
<path marker-start="none" marker-end="none" d="M 171.089,74.668 L 154.211,134.433 C 154.642,134.18 155.062,133.92 155.472,133.65 L 171.971,75.227 L 171.974,75.215 C 171.681,75.027 171.387,74.84 171.093,74.655 L 171.089,74.668 Z"/>
</g>
</g>
</g>
<g id="tmp-274" stroke="none" stroke-linejoin="miter" stroke-linecap="round" stroke-width="0.0">
<g id="tmp-275">
<path fill="var(--on-ffffff)" marker-start="none" marker-end="none" d="M 124.015,89.33 L 133.765,102.53 L 142.615,95.18 L 124.015,89.33 Z"/>
</g>
<g id="tmp-278">
<path fill="var(--on-3e3898)" marker-start="none" marker-end="none" d="M 121.235,90.307 L 121.235,82.208 L 146.134,90.159 L 146.134,98.258 L 121.235,90.307 Z"/>
</g>
</g>
</svg>
<svg id="male-hair">
<path fill="var(--on-000000)" marker-start="none" marker-end="none" stroke-linejoin="miter" stroke-width="0.0" d="M 111.727,247.604 C 119.586,248.057 128.526,246.688 134.096,244.503 C 145.564,240.004 152.711,229.687 149.823,210.991 C 148.267,204.883 140.091,194.664 140.096,194.664 C 138.043,198.172 137.028,203.118 137.546,210.189 C 125.782,209.233 107.687,212.257 101.409,223.599 C 102.551,219.985 102.294,217.049 105.296,214.359 C 103.367,214.657 101.255,216.049 100.106,220.515 C 99.882,215.823 98.015,213.725 96.023,211.825 C 97.254,215.045 98.394,218.267 98.108,221.487 C 95.85,215.074 91.644,212.314 85.91,210.189 C 86.428,203.118 85.413,198.172 83.36,194.664 C 83.365,194.664 75.189,204.883 73.633,211.028 C 70.402,223.787 77.466,240.413 93.185,242.589 C 92.228,243.388 89.817,243.999 86.577,244.503 C 89.433,245.144 91.949,245.061 94.017,244.023 C 93.877,245.673 94.756,247.017 95.697,248.343 C 95.786,247.079 95.649,245.558 96.657,245.343 C 97.853,246.197 98.752,247.151 101.457,247.503 C 100.889,246.703 99.93,245.903 100.617,245.103 C 103.53,246.579 107.47,247.359 111.727,247.604 Z"/>
<path fill="var(--on-000000)" marker-start="none" marker-end="none" stroke-linejoin="round" stroke-linecap="round" stroke-width="0.0" d="M 87.68,159.92 L 87.225,163.167 C 86.065,161.359 84.905,160.745 83.745,160.047 C 85.014,162.653 85.486,165.159 85.485,167.607 C 84.434,165.168 82.965,164.196 81.537,163.08 C 82.539,165.516 83.865,169.347 83.037,173.73 L 81.404,180.606 C 81.914,180.532 82.46,180.478 83.049,180.443 C 84.541,174.231 87.397,168.713 91.207,164.387 C 90.183,162.952 88.229,160.282 87.68,159.92 Z M 132.249,164.387 C 136.059,168.713 138.915,174.231 140.407,180.443 C 140.996,180.478 141.542,180.532 142.052,180.606 L 140.419,173.73 C 139.591,169.347 140.917,165.516 141.919,163.08 C 140.491,164.196 139.022,165.168 137.971,167.607 C 137.97,165.159 138.442,162.653 139.711,160.047 C 138.551,160.745 137.391,161.359 136.231,163.167 L 135.776,159.92 C 135.227,160.282 133.273,162.952 132.249,164.387 Z"/>
</svg>
</g>
</svg>