<?xml version="1.0" encoding="UTF-8" standalone="no"?>
<!DOCTYPE svg PUBLIC "-//W3C//DTD SVG 1.1//EN" "http://www.w3.org/Graphics/SVG/1.1/DTD/svg11.dtd">
<!-- Generated by Microsoft Visio, SVG Export _center_.svg Page-1 -->
<svg xmlns="http://www.w3.org/2000/svg" xmlns:xlink="http://www.w3.org/1999/xlink" xmlns:ev="http://www.w3.org/2001/xml-events"
		xmlns:v="http://schemas.microsoft.com/visio/2003/SVGExtensions/" width="16.6395in" height="23.4687in"
		viewBox="0 0 1198.05 1689.75" xml:space="preserve" color-interpolation-filters="sRGB" class="st15">
	<v:documentProperties v:langID="1033" v:viewMarkup="false"/>

	<style type="text/css">
	<![CDATA[
		.st1 {fill:#dedede;stroke:none;stroke-linecap:butt;stroke-width:2.24795}
		.st2 {fill:none;stroke:none;stroke-linecap:butt;stroke-width:0.75}
		.st3 {fill:#000000;font-family:Merriweather;font-size:7.00861em}
		.st4 {font-size:1em}
		.st5 {fill:#191b27;stroke:none;stroke-linecap:butt;stroke-width:2.25279}
		.st6 {fill:#76b9bf;stroke:none;stroke-linecap:butt;stroke-width:2.25279}
		.st7 {fill:#676b74;stroke:none;stroke-linecap:butt;stroke-width:2.25279}
		.st8 {fill:#ffffff;stroke:none;stroke-linecap:butt;stroke-width:2.25279}
		.st9 {fill:#d45500;stroke:none;stroke-linecap:butt;stroke-width:2.25279}
		.st10 {fill:#c7c7c7;stroke:none;stroke-linecap:butt;stroke-width:2.25279}
		.st11 {fill:#c41622;stroke:none;stroke-linecap:butt;stroke-width:2.25279}
		.st12 {fill:#a9c937;stroke:none;stroke-linecap:butt;stroke-width:2.25279}
		.st13 {fill:#7bade0;stroke:none;stroke-linecap:butt;stroke-width:2.25279}
		.st14 {fill:#cbcbcb;stroke:none;stroke-linecap:butt;stroke-width:2.25279}
		.st15 {fill:none;fill-rule:evenodd;font-size:12px;overflow:visible;stroke-linecap:square;stroke-miterlimit:3}
	]]>
	</style>

	<g v:mID="0" v:index="1" v:groupContext="foregroundPage">
		<title>Page-1</title>
		<v:pageProperties v:drawingScale="1" v:pageScale="1" v:drawingUnits="19" v:shadowOffsetX="9" v:shadowOffsetY="-9"/>
		<g id="group34-1" transform="translate(2.24795,-2.24795)" v:mID="34" v:groupContext="group">
			<title>Sheet.34</title>
			<g id="shape1-2" v:mID="1" v:groupContext="shape">
				<title>path202</title>
				<rect x="0" y="4.49589" width="1193.55" height="1685.25" class="st1"/>
			</g>
			<g id="shape2-4" v:mID="2" v:groupContext="shape" transform="translate(90,-138.42)">
				<title>text448</title>
				<desc>MORE INTERDISCIPLINARITY</desc>
				<v:textBlock v:margins="rect(0,0,0,0)" v:verticalAlign="0"/>
				<v:textRect cx="515.418" cy="1578.96" width="1030.84" height="221.58"/>
				<rect x="0" y="1468.17" width="1030.84" height="221.58" class="st2"/>
				<text x="0" y="1543.86" class="st3" v:langID="1033"><v:paragraph/><v:tabList/>MORE <tspan x="0" dy="1.2em"
							class="st4">INTERDISCIPLINARITY</tspan></text>			</g>
			<g id="shape3-8" v:mID="3" v:groupContext="shape" transform="translate(75.1969,-1316.25)">
				<title>text456</title>
				<desc>REPRODUCIBILITY OF SCIENCE</desc>
				<v:textBlock v:margins="rect(0,0,0,0)" v:verticalAlign="0"/>
				<v:textRect cx="500.803" cy="1593.66" width="1001.61" height="192.181"/>
				<rect x="0" y="1497.56" width="1001.61" height="192.181" class="st2"/>
				<text x="0" y="1573.26" class="st3" v:langID="1033"><v:paragraph/><v:tabList/>REPRODUCIBILITY OF <tspan x="0"
							dy="1.2em" class="st4">SCIENCE</tspan></text>			</g>
			<g id="shape4-12" v:mID="4" v:groupContext="shape" transform="translate(325.396,-571.151)">
				<title>path460</title>
				<path d="M12.05 1363.98 L530.87 1363.98 C537.55 1363.98 542.76 1369.36 542.76 1376.05 L542.76 1689.75 L0 1689.75
							 L0 1376.05 C0 1369.36 5.36 1363.98 12.04 1363.98 L12.05 1363.98 Z" class="st5"/>
			</g>
			<g id="shape5-14" v:mID="5" v:groupContext="shape" transform="translate(341.951,-589.997)">
				<title>path462</title>
				<rect x="0" y="1401.52" width="509.648" height="288.222" class="st6"/>
			</g>
			<g id="shape6-16" v:mID="6" v:groupContext="shape" transform="translate(405.479,-821.103)">
				<title>path464</title>
				<rect x="0" y="1673.41" width="382.636" height="16.3404" class="st7"/>
			</g>
			<g id="shape7-18" v:mID="7" v:groupContext="shape" transform="translate(504.332,-825.091)">
				<title>path466</title>
				<rect x="0" y="1681.45" width="195.961" height="8.29702" class="st8"/>
			</g>
			<g id="shape8-20" v:mID="8" v:groupContext="shape" transform="translate(417.3,-825.185)">
				<title>path468</title>
				<path d="M8.3 1685.6 A4.14851 4.14851 0 0 1 4.15 1689.75 A4.14851 4.14851 0 0 1 0 1685.6 A4.14851 4.14851 0 0 1 4.15
							 1681.45 A4.14851 4.14851 0 0 1 8.3 1685.6 Z" class="st9"/>
			</g>
			<g id="shape9-22" v:mID="9" v:groupContext="shape" transform="translate(430.546,-825.185)">
				<title>path470</title>
				<path d="M8.3 1685.6 A4.14851 4.14851 0 0 1 4.15 1689.75 A4.14851 4.14851 0 0 1 -0 1685.6 A4.14851 4.14851 0 0 1
							 4.15 1681.45 A4.14851 4.14851 0 0 1 8.3 1685.6 Z" class="st8"/>
			</g>
			<g id="shape10-24" v:mID="10" v:groupContext="shape" transform="translate(443.77,-825.185)">
				<title>path472</title>
				<path d="M8.3 1685.6 A4.14851 4.14851 0 0 1 4.15 1689.75 A4.14851 4.14851 0 0 1 -0 1685.6 A4.14851 4.14851 0 0 1
							 4.15 1681.45 A4.14851 4.14851 0 0 1 8.3 1685.6 Z" class="st6"/>
			</g>
			<g id="shape11-26" v:mID="11" v:groupContext="shape" transform="translate(397.093,-436.592)">
				<title>path474</title>
				<path d="M14.29 1659.03 L385.1 1659.03 C393.01 1659.03 399.39 1665.72 399.39 1674.03 L399.39 1674.74 C399.39 1683.05
							 393.01 1689.75 385.1 1689.75 L14.29 1689.75 C6.37 1689.75 0 1683.05 0 1674.74 L0 1674.03 C0 1665.72
							 6.37 1659.03 14.29 1659.03 Z" class="st10"/>
			</g>
			<g id="shape12-28" v:mID="12" v:groupContext="shape" transform="translate(325.415,-458.56)">
				<title>path476</title>
				<path d="M0 1577.14 L0 1616.6 C0 1617.58 5.36 1624.65 12.04 1624.65 L216.9 1624.65 L203.61 1680.27 L184.46 1680.27
							 C181.85 1680.27 180.44 1682.16 180.44 1684.07 L180.44 1689.75 L361.37 1689.75 L361.37 1684.07 C361.37
							 1681.72 359.66 1680.27 357.4 1680.27 L339.14 1680.27 L326.32 1624.65 L530.85 1624.65 C537.54 1624.65
							 542.75 1617.58 542.75 1616.6 L542.75 1577.14 L0 1577.14 Z" class="st8"/>
			</g>
			<g id="shape13-30" v:mID="13" v:groupContext="shape" transform="translate(405.479,-614.294)">
				<title>path478</title>
				<rect x="0" y="1483.04" width="382.636" height="206.705" class="st8"/>
			</g>
			<g id="shape14-32" v:mID="14" v:groupContext="shape" transform="translate(456.347,-642.758)">
				<title>path480</title>
				<rect x="0" y="1622.79" width="16.2021" height="66.9529" class="st11"/>
			</g>
			<g id="shape15-34" v:mID="15" v:groupContext="shape" transform="translate(478.65,-642.854)">
				<title>path482</title>
				<rect x="0" y="1601.94" width="16.2021" height="87.8069" class="st12"/>
			</g>
			<g id="shape16-36" v:mID="16" v:groupContext="shape" transform="translate(434.067,-642.859)">
				<title>path484</title>
				<rect x="0" y="1556.44" width="16.2021" height="133.309" class="st13"/>
			</g>
			<g id="shape17-38" v:mID="17" v:groupContext="shape" transform="translate(536.457,-642.735)">
				<title>path486</title>
				<rect x="0" y="1658.82" width="16.2021" height="30.9308" class="st11"/>
			</g>
			<g id="shape18-40" v:mID="18" v:groupContext="shape" transform="translate(558.737,-642.76)">
				<title>path488</title>
				<rect x="0" y="1641.04" width="16.2021" height="48.703" class="st12"/>
			</g>
			<g id="shape19-42" v:mID="19" v:groupContext="shape" transform="translate(514.176,-642.812)">
				<title>path490</title>
				<rect x="0" y="1580.27" width="16.2021" height="109.477" class="st13"/>
			</g>
			<g id="shape20-44" v:mID="20" v:groupContext="shape" transform="translate(616.566,-642.888)">
				<title>path492</title>
				<rect x="0" y="1623.15" width="16.2021" height="66.5969" class="st11"/>
			</g>
			<g id="shape21-46" v:mID="21" v:groupContext="shape" transform="translate(638.846,-642.809)">
				<title>path494</title>
				<rect x="0" y="1634.78" width="16.2021" height="54.9613" class="st12"/>
			</g>
			<g id="shape22-48" v:mID="22" v:groupContext="shape" transform="translate(594.263,-642.771)">
				<title>path496</title>
				<rect x="0" y="1641.96" width="16.2021" height="47.7907" class="st13"/>
			</g>
			<g id="shape23-50" v:mID="23" v:groupContext="shape" transform="translate(686.064,-754.588)">
				<title>path498</title>
				<rect x="0" y="1683.26" width="52.8279" height="6.48555" class="st14"/>
			</g>
			<g id="shape24-52" v:mID="24" v:groupContext="shape" transform="translate(686.06,-744.226)">
				<title>path500</title>
				<rect x="0" y="1683.26" width="73.4454" height="6.48555" class="st14"/>
			</g>
			<g id="shape25-54" v:mID="25" v:groupContext="shape" transform="translate(686.062,-733.638)">
				<title>path502</title>
				<rect x="0" y="1683.26" width="59.7012" height="6.48555" class="st14"/>
			</g>
			<g id="shape26-56" v:mID="26" v:groupContext="shape" transform="translate(686.064,-723.275)">
				<title>path504</title>
				<rect x="0" y="1683.26" width="52.8279" height="6.48555" class="st14"/>
			</g>
			<g id="shape27-58" v:mID="27" v:groupContext="shape" transform="translate(686.055,-712.912)">
				<title>path506</title>
				<rect x="0" y="1683.26" width="33.8684" height="6.48563" class="st14"/>
			</g>
			<g id="shape28-60" v:mID="28" v:groupContext="shape" transform="translate(686.062,-702.324)">
				<title>path508</title>
				<rect x="0" y="1683.26" width="59.7012" height="6.48555" class="st14"/>
			</g>
			<g id="shape29-62" v:mID="29" v:groupContext="shape" transform="translate(686.051,-673.488)">
				<title>path510</title>
				<rect x="0" y="1683.26" width="53.5398" height="6.48555" class="st14"/>
			</g>
			<g id="shape30-64" v:mID="30" v:groupContext="shape" transform="translate(686.062,-663.125)">
				<title>path512</title>
				<rect x="0" y="1683.26" width="73.0827" height="6.48555" class="st14"/>
			</g>
			<g id="shape31-66" v:mID="31" v:groupContext="shape" transform="translate(686.062,-652.537)">
				<title>path514</title>
				<rect x="0" y="1683.26" width="59.7012" height="6.48555" class="st14"/>
			</g>
			<g id="shape32-68" v:mID="32" v:groupContext="shape" transform="translate(593.36,-883.343)">
				<title>path518</title>
				<path d="M6.87 1686.31 A3.4364 3.4364 0 0 1 3.44 1689.75 A3.4364 3.4364 0 0 1 -0 1686.31 A3.4364 3.4364 0 0 1 3.44
							 1682.87 A3.4364 3.4364 0 0 1 6.87 1686.31 Z" class="st8"/>
			</g>
			<g id="shape33-70" v:mID="33" v:groupContext="shape" transform="translate(54,-1001.25)">
				<title>text1708</title>
				<desc>MORE SERVICES FOR END USERS</desc>
				<v:textBlock v:margins="rect(0,0,0,0)" v:verticalAlign="0"/>
				<v:textRect cx="534.377" cy="1596.37" width="1068.76" height="186.75"/>
				<rect x="0" y="1503" width="1068.75" height="186.75" class="st2"/>
				<text x="185.16" y="1578.69" class="st3" v:langID="1033"><v:paragraph v:horizAlign="2"/><v:tabList/>MORE SERVICES FOR <tspan
							x="587.01" dy="1.2em" class="st4">END USERS</tspan></text>			</g>
		</g>
	</g>
</svg>
