<?xml version="1.0" encoding="UTF-8" standalone="no"?>
<!DOCTYPE svg PUBLIC "-//W3C//DTD SVG 1.1//EN" "http://www.w3.org/Graphics/SVG/1.1/DTD/svg11.dtd">
<!-- Generated by Microsoft Visio, SVG Export __consumer.svg Page-1 -->
<svg xmlns="http://www.w3.org/2000/svg" xmlns:xlink="http://www.w3.org/1999/xlink" xmlns:ev="http://www.w3.org/2001/xml-events"
		xmlns:v="http://schemas.microsoft.com/visio/2003/SVGExtensions/" width="16.5628in" height="11.7406in"
		viewBox="0 0 1192.52 845.32" xml:space="preserve" color-interpolation-filters="sRGB" class="st22">
	<v:documentProperties v:langID="1033" v:viewMarkup="false"/>

	<style type="text/css">
	<![CDATA[
		.st1 {fill:#a9c937;stroke:none;stroke-linecap:round;stroke-linejoin:round;stroke-width:0.75}
		.st2 {fill:#90af2e;stroke:none;stroke-linecap:round;stroke-linejoin:round;stroke-width:0.75}
		.st3 {stroke:none;stroke-linecap:round;stroke-linejoin:round;stroke-width:0.75}
		.st4 {fill:#000000;font-family:Merriweather;font-size:9.09835em}
		.st5 {fill:#b51d34;stroke:none;stroke-linecap:round;stroke-linejoin:round;stroke-width:0.75}
		.st6 {fill:#7f142e;stroke:none;stroke-linecap:round;stroke-linejoin:round;stroke-width:0.75}
		.st7 {fill:#550a1e;stroke:none;stroke-linecap:round;stroke-linejoin:round;stroke-width:0.75}
		.st8 {fill:#971328;stroke:none;stroke-linecap:round;stroke-linejoin:round;stroke-width:0.75}
		.st9 {fill:#8e1421;stroke:none;stroke-linecap:round;stroke-linejoin:round;stroke-width:0.75}
		.st10 {fill:#edeef0;stroke:none;stroke-linecap:round;stroke-linejoin:round;stroke-width:0.75}
		.st11 {fill:#ffffff;font-family:Roboto;font-size:4.96273em}
		.st12 {fill:#dedede;stroke:none;stroke-linecap:round;stroke-linejoin:round;stroke-width:0.75}
		.st13 {fill:#e6e7e9;stroke:none;stroke-linecap:round;stroke-linejoin:round;stroke-width:0.75}
		.st14 {fill:#07a1e1;stroke:none;stroke-linecap:round;stroke-linejoin:round;stroke-width:0.75}
		.st15 {fill:#0b87a3;stroke:none;stroke-linecap:round;stroke-linejoin:round;stroke-width:0.75}
		.st16 {fill:#007fb2;stroke:none;stroke-linecap:round;stroke-linejoin:round;stroke-width:0.75}
		.st17 {stroke:#ffffff;stroke-linecap:round;stroke-linejoin:round;stroke-width:4.55197}
		.st18 {fill:#ffffff;stroke:none;stroke-linecap:round;stroke-linejoin:round;stroke-width:0.75}
		.st19 {stroke:#ffffff;stroke-linecap:round;stroke-linejoin:round;stroke-width:3.93125}
		.st20 {fill:#f9f9f9;stroke:#f9f9f9;stroke-linecap:round;stroke-linejoin:round;stroke-width:3.31053}
		.st21 {fill:#000000;font-family:Roboto;font-size:3.85991em}
		.st22 {fill:none;fill-rule:evenodd;font-size:12px;overflow:visible;stroke-linecap:square;stroke-miterlimit:3}
	]]>
	</style>

	<g v:mID="0" v:index="1" v:groupContext="foregroundPage">
		<title>Page-1</title>
		<v:pageProperties v:drawingScale="1" v:pageScale="1" v:drawingUnits="19" v:shadowOffsetX="9" v:shadowOffsetY="-9"/>
		<g id="shape4-1" v:mID="4" v:groupContext="shape">
			<title>Sheet.4</title>
			<path d="M0 0 L0 845.32 L1192.52 845.32 L1192.52 0 L0 0 L0 0 Z" class="st1"/>
		</g>
		<g id="shape5-3" v:mID="5" v:groupContext="shape">
			<title>Sheet.5</title>
			<path d="M0 0 L1192.52 845.32 L0 845.32 L0 0 L0 0 Z" class="st2"/>
		</g>
		<g id="shape6-5" v:mID="6" v:groupContext="shape" transform="translate(297.923,-640.73)">
			<title>Sheet.6</title>
			<desc>Consumer</desc>
			<v:textBlock v:margins="rect(0,0,0,0)"/>
			<v:textRect cx="338.818" cy="779.81" width="677.64" height="131.02"/>
			<path d="M677.64 714.3 L0 714.3 L0 845.32 L677.64 845.32 L677.64 714.3" class="st3"/>
			<text x="62.65" y="812.56" class="st4" v:langID="1033"><v:paragraph v:horizAlign="1"/><v:tabList/>Consumer</text>		</g>
		<g id="shape7-9" v:mID="7" v:groupContext="shape" transform="translate(457.961,-285.358)">
			<title>Sheet.7</title>
			<path d="M0 529.98 L0 845.32 L224.63 845.32 L224.63 529.98 L0 529.98 L0 529.98 Z" class="st5"/>
		</g>
		<g id="shape8-11" v:mID="8" v:groupContext="shape" transform="translate(682.387,-316.995)">
			<title>Sheet.8</title>
			<path d="M0 561.62 L32.71 845.32 L0 845.32 L0 561.62 L0 561.62 Z" class="st6"/>
		</g>
		<g id="shape9-13" v:mID="9" v:groupContext="shape" transform="translate(682.387,-285.358)">
			<title>Sheet.9</title>
			<path d="M0 813.68 L0 845.32 L14.08 824.64 L32.71 813.68 L0 813.68 L0 813.68 Z" class="st7"/>
		</g>
		<g id="shape10-15" v:mID="10" v:groupContext="shape" transform="translate(457.961,-571.749)">
			<title>Sheet.10</title>
			<path d="M0 816.37 L0 845.32 L224.63 845.32 L224.63 816.37 L0 816.37 L0 816.37 Z" class="st8"/>
		</g>
		<g id="shape11-17" v:mID="11" v:groupContext="shape" transform="translate(480.528,-575.471)">
			<title>Sheet.11</title>
			<path d="M0 824.23 L0 845.32 L4.35 845.32 L4.35 824.23 L0 824.23 L0 824.23 Z" class="st5"/>
		</g>
		<g id="shape12-19" v:mID="12" v:groupContext="shape" transform="translate(492.329,-575.471)">
			<title>Sheet.12</title>
			<path d="M0 824.23 L0 845.32 L4.35 845.32 L4.35 824.23 L0 824.23 L0 824.23 Z" class="st5"/>
		</g>
		<g id="shape13-21" v:mID="13" v:groupContext="shape" transform="translate(504.13,-575.471)">
			<title>Sheet.13</title>
			<path d="M0 824.23 L0 845.32 L4.35 845.32 L4.35 824.23 L0 824.23 L0 824.23 Z" class="st5"/>
		</g>
		<g id="shape14-23" v:mID="14" v:groupContext="shape" transform="translate(516.138,-575.471)">
			<title>Sheet.14</title>
			<path d="M0 824.23 L0 845.32 L4.35 845.32 L4.35 824.23 L0 824.23 L0 824.23 Z" class="st5"/>
		</g>
		<g id="shape15-25" v:mID="15" v:groupContext="shape" transform="translate(527.732,-575.471)">
			<title>Sheet.15</title>
			<path d="M0 824.23 L0 845.32 L4.55 845.32 L4.55 824.23 L0 824.23 L0 824.23 Z" class="st5"/>
		</g>
		<g id="shape16-27" v:mID="16" v:groupContext="shape" transform="translate(539.74,-575.471)">
			<title>Sheet.16</title>
			<path d="M0 824.23 L0 845.32 L4.35 845.32 L4.35 824.23 L0 824.23 L0 824.23 Z" class="st5"/>
		</g>
		<g id="shape17-29" v:mID="17" v:groupContext="shape" transform="translate(551.748,-575.471)">
			<title>Sheet.17</title>
			<path d="M0 824.23 L0 845.32 L4.35 845.32 L4.35 824.23 L0 824.23 L0 824.23 Z" class="st5"/>
		</g>
		<g id="shape18-31" v:mID="18" v:groupContext="shape" transform="translate(563.549,-575.471)">
			<title>Sheet.18</title>
			<path d="M0 824.23 L0 845.32 L4.35 845.32 L4.35 824.23 L0 824.23 L0 824.23 Z" class="st5"/>
		</g>
		<g id="shape19-33" v:mID="19" v:groupContext="shape" transform="translate(468.727,-575.471)">
			<title>Sheet.19</title>
			<path d="M0 824.23 L0 845.32 L4.35 845.32 L4.35 824.23 L0 824.23 L0 824.23 Z" class="st5"/>
		</g>
		<g id="shape20-35" v:mID="20" v:groupContext="shape" transform="translate(575.35,-575.471)">
			<title>Sheet.20</title>
			<path d="M0 824.23 L0 845.32 L4.35 845.32 L4.35 824.23 L0 824.23 L0 824.23 Z" class="st5"/>
		</g>
		<g id="shape21-37" v:mID="21" v:groupContext="shape" transform="translate(587.358,-575.471)">
			<title>Sheet.21</title>
			<path d="M0 824.23 L0 845.32 L4.35 845.32 L4.35 824.23 L0 824.23 L0 824.23 Z" class="st5"/>
		</g>
		<g id="shape22-39" v:mID="22" v:groupContext="shape" transform="translate(599.159,-575.471)">
			<title>Sheet.22</title>
			<path d="M0 824.23 L0 845.32 L4.35 845.32 L4.35 824.23 L0 824.23 L0 824.23 Z" class="st5"/>
		</g>
		<g id="shape23-41" v:mID="23" v:groupContext="shape" transform="translate(611.167,-575.471)">
			<title>Sheet.23</title>
			<path d="M0 824.23 L0 845.32 L4.35 845.32 L4.35 824.23 L0 824.23 L0 824.23 Z" class="st5"/>
		</g>
		<g id="shape24-43" v:mID="24" v:groupContext="shape" transform="translate(622.761,-575.471)">
			<title>Sheet.24</title>
			<path d="M0 824.23 L0 845.32 L4.35 845.32 L4.35 824.23 L0 824.23 L0 824.23 Z" class="st5"/>
		</g>
		<g id="shape25-45" v:mID="25" v:groupContext="shape" transform="translate(634.769,-575.471)">
			<title>Sheet.25</title>
			<path d="M0 824.23 L0 845.32 L4.35 845.32 L4.35 824.23 L0 824.23 L0 824.23 Z" class="st5"/>
		</g>
		<g id="shape26-47" v:mID="26" v:groupContext="shape" transform="translate(646.777,-575.471)">
			<title>Sheet.26</title>
			<path d="M0 824.23 L0 845.32 L4.35 845.32 L4.35 824.23 L0 824.23 L0 824.23 Z" class="st5"/>
		</g>
		<g id="shape27-49" v:mID="27" v:groupContext="shape" transform="translate(658.371,-575.471)">
			<title>Sheet.27</title>
			<path d="M0 824.23 L0 845.32 L4.35 845.32 L4.35 824.23 L0 824.23 L0 824.23 Z" class="st5"/>
		</g>
		<g id="shape28-51" v:mID="28" v:groupContext="shape" transform="translate(670.379,-575.471)">
			<title>Sheet.28</title>
			<path d="M0 824.23 L0 845.32 L4.35 845.32 L4.35 824.23 L0 824.23 L0 824.23 Z" class="st5"/>
		</g>
		<g id="shape29-53" v:mID="29" v:groupContext="shape" transform="translate(418.624,-248.757)">
			<title>Sheet.29</title>
			<path d="M0 529.98 L0 845.32 L224.63 845.32 L224.63 529.98 L0 529.98 L0 529.98 Z" class="st5"/>
		</g>
		<g id="shape30-55" v:mID="30" v:groupContext="shape" transform="translate(643.05,-280.395)">
			<title>Sheet.30</title>
			<path d="M0 561.62 L32.71 845.32 L0 845.32 L0 561.62 L0 561.62 Z" class="st6"/>
		</g>
		<g id="shape31-57" v:mID="31" v:groupContext="shape" transform="translate(643.05,-248.757)">
			<title>Sheet.31</title>
			<path d="M0 813.68 L0 845.32 L14.08 824.85 L32.71 813.68 L0 813.68 L0 813.68 Z" class="st7"/>
		</g>
		<g id="shape32-59" v:mID="32" v:groupContext="shape" transform="translate(418.624,-535.149)">
			<title>Sheet.32</title>
			<path d="M0 816.37 L0 845.32 L224.63 845.32 L224.63 816.37 L0 816.37 L0 816.37 Z" class="st8"/>
		</g>
		<g id="shape33-61" v:mID="33" v:groupContext="shape" transform="translate(441.191,-538.871)">
			<title>Sheet.33</title>
			<path d="M0 824.44 L0 845.32 L4.35 845.32 L4.35 824.44 L0 824.44 L0 824.44 Z" class="st5"/>
		</g>
		<g id="shape34-63" v:mID="34" v:groupContext="shape" transform="translate(452.785,-538.871)">
			<title>Sheet.34</title>
			<path d="M0 824.44 L0 845.32 L4.55 845.32 L4.55 824.44 L0 824.44 L0 824.44 Z" class="st5"/>
		</g>
		<g id="shape35-65" v:mID="35" v:groupContext="shape" transform="translate(464.793,-538.871)">
			<title>Sheet.35</title>
			<path d="M0 824.44 L0 845.32 L4.35 845.32 L4.35 824.44 L0 824.44 L0 824.44 Z" class="st5"/>
		</g>
		<g id="shape36-67" v:mID="36" v:groupContext="shape" transform="translate(476.801,-538.871)">
			<title>Sheet.36</title>
			<path d="M0 824.44 L0 845.32 L4.35 845.32 L4.35 824.44 L0 824.44 L0 824.44 Z" class="st5"/>
		</g>
		<g id="shape37-69" v:mID="37" v:groupContext="shape" transform="translate(488.395,-538.871)">
			<title>Sheet.37</title>
			<path d="M0 824.44 L0 845.32 L4.35 845.32 L4.35 824.44 L0 824.44 L0 824.44 Z" class="st5"/>
		</g>
		<g id="shape38-71" v:mID="38" v:groupContext="shape" transform="translate(500.403,-538.871)">
			<title>Sheet.38</title>
			<path d="M0 824.44 L0 845.32 L4.35 845.32 L4.35 824.44 L0 824.44 L0 824.44 Z" class="st5"/>
		</g>
		<g id="shape39-73" v:mID="39" v:groupContext="shape" transform="translate(512.204,-538.871)">
			<title>Sheet.39</title>
			<path d="M0 824.44 L0 845.32 L4.55 845.32 L4.55 824.44 L0 824.44 L0 824.44 Z" class="st5"/>
		</g>
		<g id="shape40-75" v:mID="40" v:groupContext="shape" transform="translate(524.212,-538.871)">
			<title>Sheet.40</title>
			<path d="M0 824.44 L0 845.32 L4.35 845.32 L4.35 824.44 L0 824.44 L0 824.44 Z" class="st5"/>
		</g>
		<g id="shape41-77" v:mID="41" v:groupContext="shape" transform="translate(429.183,-538.871)">
			<title>Sheet.41</title>
			<path d="M0 824.44 L0 845.32 L4.35 845.32 L4.35 824.44 L0 824.44 L0 824.44 Z" class="st5"/>
		</g>
		<g id="shape42-79" v:mID="42" v:groupContext="shape" transform="translate(536.013,-538.871)">
			<title>Sheet.42</title>
			<path d="M0 824.44 L0 845.32 L4.35 845.32 L4.35 824.44 L0 824.44 L0 824.44 Z" class="st5"/>
		</g>
		<g id="shape43-81" v:mID="43" v:groupContext="shape" transform="translate(547.814,-538.871)">
			<title>Sheet.43</title>
			<path d="M0 824.44 L0 845.32 L4.35 845.32 L4.35 824.44 L0 824.44 L0 824.44 Z" class="st5"/>
		</g>
		<g id="shape44-83" v:mID="44" v:groupContext="shape" transform="translate(559.822,-538.871)">
			<title>Sheet.44</title>
			<path d="M0 824.44 L0 845.32 L4.35 845.32 L4.35 824.44 L0 824.44 L0 824.44 Z" class="st5"/>
		</g>
		<g id="shape45-85" v:mID="45" v:groupContext="shape" transform="translate(571.83,-538.871)">
			<title>Sheet.45</title>
			<path d="M0 824.44 L0 845.32 L4.35 845.32 L4.35 824.44 L0 824.44 L0 824.44 Z" class="st5"/>
		</g>
		<g id="shape46-87" v:mID="46" v:groupContext="shape" transform="translate(583.424,-538.871)">
			<title>Sheet.46</title>
			<path d="M0 824.44 L0 845.32 L4.35 845.32 L4.35 824.44 L0 824.44 L0 824.44 Z" class="st5"/>
		</g>
		<g id="shape47-89" v:mID="47" v:groupContext="shape" transform="translate(595.432,-538.871)">
			<title>Sheet.47</title>
			<path d="M0 824.44 L0 845.32 L4.35 845.32 L4.35 824.44 L0 824.44 L0 824.44 Z" class="st5"/>
		</g>
		<g id="shape48-91" v:mID="48" v:groupContext="shape" transform="translate(607.233,-538.871)">
			<title>Sheet.48</title>
			<path d="M0 824.44 L0 845.32 L4.35 845.32 L4.35 824.44 L0 824.44 L0 824.44 Z" class="st5"/>
		</g>
		<g id="shape49-93" v:mID="49" v:groupContext="shape" transform="translate(619.034,-538.871)">
			<title>Sheet.49</title>
			<path d="M0 824.44 L0 845.32 L4.35 845.32 L4.35 824.44 L0 824.44 L0 824.44 Z" class="st5"/>
		</g>
		<g id="shape50-95" v:mID="50" v:groupContext="shape" transform="translate(630.835,-538.871)">
			<title>Sheet.50</title>
			<path d="M0 824.44 L0 845.32 L4.55 845.32 L4.55 824.44 L0 824.44 L0 824.44 Z" class="st5"/>
		</g>
		<g id="shape51-97" v:mID="51" v:groupContext="shape" transform="translate(375.354,-206.988)">
			<title>Sheet.51</title>
			<path d="M0 529.77 L0 845.32 L224.63 845.32 L224.63 529.77 L0 529.77 L0 529.77 Z" class="st5"/>
		</g>
		<g id="shape52-99" v:mID="52" v:groupContext="shape" transform="translate(600.194,-238.625)">
			<title>Sheet.52</title>
			<path d="M0 561.41 L32.5 845.32 L0 845.32 L0 561.41 L0 561.41 Z" class="st6"/>
		</g>
		<g id="shape53-101" v:mID="53" v:groupContext="shape" transform="translate(600.194,-207.194)">
			<title>Sheet.53</title>
			<path d="M0 813.89 L0 845.32 L13.87 824.85 L32.5 813.89 L0 813.89 L0 813.89 Z" class="st7"/>
		</g>
		<g id="shape54-103" v:mID="54" v:groupContext="shape" transform="translate(375.354,-493.379)">
			<title>Sheet.54</title>
			<path d="M0 816.16 L0 845.32 L224.63 845.32 L224.63 816.16 L0 816.16 L0 816.16 Z" class="st8"/>
		</g>
		<g id="shape55-105" v:mID="55" v:groupContext="shape" transform="translate(397.921,-497.101)">
			<title>Sheet.55</title>
			<path d="M0 824.23 L0 845.32 L4.35 845.32 L4.35 824.23 L0 824.23 L0 824.23 Z" class="st5"/>
		</g>
		<g id="shape56-107" v:mID="56" v:groupContext="shape" transform="translate(409.929,-497.101)">
			<title>Sheet.56</title>
			<path d="M0 824.23 L0 845.32 L4.35 845.32 L4.35 824.23 L0 824.23 L0 824.23 Z" class="st5"/>
		</g>
		<g id="shape57-109" v:mID="57" v:groupContext="shape" transform="translate(421.73,-497.101)">
			<title>Sheet.57</title>
			<path d="M0 824.23 L0 845.32 L4.35 845.32 L4.35 824.23 L0 824.23 L0 824.23 Z" class="st5"/>
		</g>
		<g id="shape58-111" v:mID="58" v:groupContext="shape" transform="translate(433.531,-497.101)">
			<title>Sheet.58</title>
			<path d="M0 824.23 L0 845.32 L4.35 845.32 L4.35 824.23 L0 824.23 L0 824.23 Z" class="st5"/>
		</g>
		<g id="shape59-113" v:mID="59" v:groupContext="shape" transform="translate(445.539,-497.101)">
			<title>Sheet.59</title>
			<path d="M0 824.23 L0 845.32 L4.35 845.32 L4.35 824.23 L0 824.23 L0 824.23 Z" class="st5"/>
		</g>
		<g id="shape60-115" v:mID="60" v:groupContext="shape" transform="translate(457.34,-497.101)">
			<title>Sheet.60</title>
			<path d="M0 824.23 L0 845.32 L4.35 845.32 L4.35 824.23 L0 824.23 L0 824.23 Z" class="st5"/>
		</g>
		<g id="shape61-117" v:mID="61" v:groupContext="shape" transform="translate(469.141,-497.101)">
			<title>Sheet.61</title>
			<path d="M0 824.23 L0 845.32 L4.35 845.32 L4.35 824.23 L0 824.23 L0 824.23 Z" class="st5"/>
		</g>
		<g id="shape62-119" v:mID="62" v:groupContext="shape" transform="translate(480.942,-497.101)">
			<title>Sheet.62</title>
			<path d="M0 824.23 L0 845.32 L4.35 845.32 L4.35 824.23 L0 824.23 L0 824.23 Z" class="st5"/>
		</g>
		<g id="shape63-121" v:mID="63" v:groupContext="shape" transform="translate(385.913,-497.101)">
			<title>Sheet.63</title>
			<path d="M0 824.23 L0 845.32 L4.55 845.32 L4.55 824.23 L0 824.23 L0 824.23 Z" class="st5"/>
		</g>
		<g id="shape64-123" v:mID="64" v:groupContext="shape" transform="translate(492.95,-497.101)">
			<title>Sheet.64</title>
			<path d="M0 824.23 L0 845.32 L4.35 845.32 L4.35 824.23 L0 824.23 L0 824.23 Z" class="st5"/>
		</g>
		<g id="shape65-125" v:mID="65" v:groupContext="shape" transform="translate(504.958,-497.101)">
			<title>Sheet.65</title>
			<path d="M0 824.23 L0 845.32 L4.35 845.32 L4.35 824.23 L0 824.23 L0 824.23 Z" class="st5"/>
		</g>
		<g id="shape66-127" v:mID="66" v:groupContext="shape" transform="translate(516.552,-497.101)">
			<title>Sheet.66</title>
			<path d="M0 824.23 L0 845.32 L4.35 845.32 L4.35 824.23 L0 824.23 L0 824.23 Z" class="st5"/>
		</g>
		<g id="shape67-129" v:mID="67" v:groupContext="shape" transform="translate(540.361,-497.101)">
			<title>Sheet.67</title>
			<path d="M0 824.23 L0 845.32 L4.35 845.32 L4.35 824.23 L0 824.23 L0 824.23 Z" class="st5"/>
		</g>
		<g id="shape68-131" v:mID="68" v:groupContext="shape" transform="translate(552.369,-497.101)">
			<title>Sheet.68</title>
			<path d="M0 824.23 L0 845.32 L4.35 845.32 L4.35 824.23 L0 824.23 L0 824.23 Z" class="st5"/>
		</g>
		<g id="shape69-133" v:mID="69" v:groupContext="shape" transform="translate(564.17,-497.101)">
			<title>Sheet.69</title>
			<path d="M0 824.23 L0 845.32 L4.35 845.32 L4.35 824.23 L0 824.23 L0 824.23 Z" class="st5"/>
		</g>
		<g id="shape70-135" v:mID="70" v:groupContext="shape" transform="translate(575.971,-497.101)">
			<title>Sheet.70</title>
			<path d="M0 824.23 L0 845.32 L4.35 845.32 L4.35 824.23 L0 824.23 L0 824.23 Z" class="st5"/>
		</g>
		<g id="shape71-137" v:mID="71" v:groupContext="shape" transform="translate(587.979,-497.101)">
			<title>Sheet.71</title>
			<path d="M0 824.23 L0 845.32 L4.35 845.32 L4.35 824.23 L0 824.23 L0 824.23 Z" class="st5"/>
		</g>
		<g id="shape72-139" v:mID="72" v:groupContext="shape" transform="translate(332.705,-162.943)">
			<title>Sheet.72</title>
			<path d="M0 529.98 L0 845.32 L224.43 845.32 L224.43 529.98 L0 529.98 L0 529.98 Z" class="st5"/>
		</g>
		<g id="shape73-141" v:mID="73" v:groupContext="shape" transform="translate(557.131,-194.581)">
			<title>Sheet.73</title>
			<path d="M0 561.62 L32.5 845.32 L0 845.32 L0 561.62 L0 561.62 Z" class="st6"/>
		</g>
		<g id="shape74-143" v:mID="74" v:groupContext="shape" transform="translate(557.131,-162.943)">
			<title>Sheet.74</title>
			<path d="M0 813.68 L0 845.32 L13.87 824.64 L32.5 813.68 L0 813.68 L0 813.68 Z" class="st7"/>
		</g>
		<g id="shape75-145" v:mID="75" v:groupContext="shape" transform="translate(332.705,-449.335)">
			<title>Sheet.75</title>
			<path d="M0 816.37 L0 845.32 L224.43 845.32 L224.43 816.37 L0 816.37 L0 816.37 Z" class="st8"/>
		</g>
		<g id="shape76-147" v:mID="76" v:groupContext="shape" transform="translate(355.272,-453.057)">
			<title>Sheet.76</title>
			<path d="M0 824.23 L0 845.32 L4.35 845.32 L4.35 824.23 L0 824.23 L0 824.23 Z" class="st5"/>
		</g>
		<g id="shape77-149" v:mID="77" v:groupContext="shape" transform="translate(366.866,-453.057)">
			<title>Sheet.77</title>
			<path d="M0 824.23 L0 845.32 L4.35 845.32 L4.35 824.23 L0 824.23 L0 824.23 Z" class="st5"/>
		</g>
		<g id="shape78-151" v:mID="78" v:groupContext="shape" transform="translate(378.874,-453.057)">
			<title>Sheet.78</title>
			<path d="M0 824.23 L0 845.32 L4.35 845.32 L4.35 824.23 L0 824.23 L0 824.23 Z" class="st5"/>
		</g>
		<g id="shape79-153" v:mID="79" v:groupContext="shape" transform="translate(390.675,-453.057)">
			<title>Sheet.79</title>
			<path d="M0 824.23 L0 845.32 L4.35 845.32 L4.35 824.23 L0 824.23 L0 824.23 Z" class="st5"/>
		</g>
		<g id="shape80-155" v:mID="80" v:groupContext="shape" transform="translate(402.683,-453.057)">
			<title>Sheet.80</title>
			<path d="M0 824.23 L0 845.32 L4.35 845.32 L4.35 824.23 L0 824.23 L0 824.23 Z" class="st5"/>
		</g>
		<g id="shape81-157" v:mID="81" v:groupContext="shape" transform="translate(414.277,-453.057)">
			<title>Sheet.81</title>
			<path d="M0 824.23 L0 845.32 L4.55 845.32 L4.55 824.23 L0 824.23 L0 824.23 Z" class="st5"/>
		</g>
		<g id="shape82-159" v:mID="82" v:groupContext="shape" transform="translate(426.285,-453.057)">
			<title>Sheet.82</title>
			<path d="M0 824.23 L0 845.32 L4.35 845.32 L4.35 824.23 L0 824.23 L0 824.23 Z" class="st5"/>
		</g>
		<g id="shape83-161" v:mID="83" v:groupContext="shape" transform="translate(438.293,-453.057)">
			<title>Sheet.83</title>
			<path d="M0 824.23 L0 845.32 L4.35 845.32 L4.35 824.23 L0 824.23 L0 824.23 Z" class="st5"/>
		</g>
		<g id="shape84-163" v:mID="84" v:groupContext="shape" transform="translate(343.264,-453.057)">
			<title>Sheet.84</title>
			<path d="M0 824.23 L0 845.32 L4.35 845.32 L4.35 824.23 L0 824.23 L0 824.23 Z" class="st5"/>
		</g>
		<g id="shape85-165" v:mID="85" v:groupContext="shape" transform="translate(449.887,-453.057)">
			<title>Sheet.85</title>
			<path d="M0 824.23 L0 845.32 L4.35 845.32 L4.35 824.23 L0 824.23 L0 824.23 Z" class="st5"/>
		</g>
		<g id="shape86-167" v:mID="86" v:groupContext="shape" transform="translate(461.895,-453.057)">
			<title>Sheet.86</title>
			<path d="M0 824.23 L0 845.32 L4.35 845.32 L4.35 824.23 L0 824.23 L0 824.23 Z" class="st5"/>
		</g>
		<g id="shape87-169" v:mID="87" v:groupContext="shape" transform="translate(473.903,-453.057)">
			<title>Sheet.87</title>
			<path d="M0 824.23 L0 845.32 L4.35 845.32 L4.35 824.23 L0 824.23 L0 824.23 Z" class="st5"/>
		</g>
		<g id="shape88-171" v:mID="88" v:groupContext="shape" transform="translate(485.704,-453.057)">
			<title>Sheet.88</title>
			<path d="M0 824.23 L0 845.32 L4.35 845.32 L4.35 824.23 L0 824.23 L0 824.23 Z" class="st5"/>
		</g>
		<g id="shape89-173" v:mID="89" v:groupContext="shape" transform="translate(497.505,-453.057)">
			<title>Sheet.89</title>
			<path d="M0 824.23 L0 845.32 L4.35 845.32 L4.35 824.23 L0 824.23 L0 824.23 Z" class="st5"/>
		</g>
		<g id="shape90-175" v:mID="90" v:groupContext="shape" transform="translate(509.306,-453.057)">
			<title>Sheet.90</title>
			<path d="M0 824.23 L0 845.32 L4.35 845.32 L4.35 824.23 L0 824.23 L0 824.23 Z" class="st5"/>
		</g>
		<g id="shape91-177" v:mID="91" v:groupContext="shape" transform="translate(521.314,-453.057)">
			<title>Sheet.91</title>
			<path d="M0 824.23 L0 845.32 L4.35 845.32 L4.35 824.23 L0 824.23 L0 824.23 Z" class="st5"/>
		</g>
		<g id="shape92-179" v:mID="92" v:groupContext="shape" transform="translate(533.322,-453.057)">
			<title>Sheet.92</title>
			<path d="M0 824.23 L0 845.32 L4.35 845.32 L4.35 824.23 L0 824.23 L0 824.23 Z" class="st5"/>
		</g>
		<g id="shape93-181" v:mID="93" v:groupContext="shape" transform="translate(544.916,-453.057)">
			<title>Sheet.93</title>
			<path d="M0 824.23 L0 845.32 L4.35 845.32 L4.35 824.23 L0 824.23 L0 824.23 Z" class="st5"/>
		</g>
		<g id="shape94-183" v:mID="94" v:groupContext="shape" transform="translate(291.505,-114.35)">
			<title>Sheet.94</title>
			<path d="M0 529.98 L0 845.32 L224.43 845.32 L224.43 529.98 L0 529.98 L0 529.98 Z" class="st5"/>
		</g>
		<g id="shape95-185" v:mID="95" v:groupContext="shape" transform="translate(516.138,-145.987)">
			<title>Sheet.95</title>
			<path d="M0 561.62 L32.5 845.32 L0 845.32 L0 561.62 L0 561.62 Z" class="st6"/>
		</g>
		<g id="shape96-187" v:mID="96" v:groupContext="shape" transform="translate(516.138,-114.35)">
			<title>Sheet.96</title>
			<path d="M0 813.68 L0 845.32 L14.08 824.64 L32.5 813.68 L0 813.68 L0 813.68 Z" class="st7"/>
		</g>
		<g id="shape97-189" v:mID="97" v:groupContext="shape" transform="translate(291.505,-400.741)">
			<title>Sheet.97</title>
			<path d="M0 816.37 L0 845.32 L224.43 845.32 L224.43 816.37 L0 816.37 L0 816.37 Z" class="st8"/>
		</g>
		<g id="shape98-191" v:mID="98" v:groupContext="shape" transform="translate(314.072,-404.463)">
			<title>Sheet.98</title>
			<path d="M0 824.23 L0 845.32 L4.35 845.32 L4.35 824.23 L0 824.23 L0 824.23 Z" class="st5"/>
		</g>
		<g id="shape99-193" v:mID="99" v:groupContext="shape" transform="translate(325.873,-404.463)">
			<title>Sheet.99</title>
			<path d="M0 824.23 L0 845.32 L4.35 845.32 L4.35 824.23 L0 824.23 L0 824.23 Z" class="st5"/>
		</g>
		<g id="shape100-195" v:mID="100" v:groupContext="shape" transform="translate(337.881,-404.463)">
			<title>Sheet.100</title>
			<path d="M0 824.23 L0 845.32 L4.35 845.32 L4.35 824.23 L0 824.23 L0 824.23 Z" class="st5"/>
		</g>
		<g id="shape101-197" v:mID="101" v:groupContext="shape" transform="translate(349.475,-404.463)">
			<title>Sheet.101</title>
			<path d="M0 824.23 L0 845.32 L4.35 845.32 L4.35 824.23 L0 824.23 L0 824.23 Z" class="st5"/>
		</g>
		<g id="shape102-199" v:mID="102" v:groupContext="shape" transform="translate(361.483,-404.463)">
			<title>Sheet.102</title>
			<path d="M0 824.23 L0 845.32 L4.35 845.32 L4.35 824.23 L0 824.23 L0 824.23 Z" class="st5"/>
		</g>
		<g id="shape103-201" v:mID="103" v:groupContext="shape" transform="translate(373.491,-404.463)">
			<title>Sheet.103</title>
			<path d="M0 824.23 L0 845.32 L4.35 845.32 L4.35 824.23 L0 824.23 L0 824.23 Z" class="st5"/>
		</g>
		<g id="shape104-203" v:mID="104" v:groupContext="shape" transform="translate(385.085,-404.463)">
			<title>Sheet.104</title>
			<path d="M0 824.23 L0 845.32 L4.35 845.32 L4.35 824.23 L0 824.23 L0 824.23 Z" class="st5"/>
		</g>
		<g id="shape105-205" v:mID="105" v:groupContext="shape" transform="translate(397.093,-404.463)">
			<title>Sheet.105</title>
			<path d="M0 824.23 L0 845.32 L4.35 845.32 L4.35 824.23 L0 824.23 L0 824.23 Z" class="st5"/>
		</g>
		<g id="shape106-207" v:mID="106" v:groupContext="shape" transform="translate(302.064,-404.463)">
			<title>Sheet.106</title>
			<path d="M0 824.23 L0 845.32 L4.35 845.32 L4.35 824.23 L0 824.23 L0 824.23 Z" class="st5"/>
		</g>
		<g id="shape107-209" v:mID="107" v:groupContext="shape" transform="translate(408.894,-404.463)">
			<title>Sheet.107</title>
			<path d="M0 824.23 L0 845.32 L4.35 845.32 L4.35 824.23 L0 824.23 L0 824.23 Z" class="st5"/>
		</g>
		<g id="shape108-211" v:mID="108" v:groupContext="shape" transform="translate(420.902,-404.463)">
			<title>Sheet.108</title>
			<path d="M0 824.23 L0 845.32 L4.35 845.32 L4.35 824.23 L0 824.23 L0 824.23 Z" class="st5"/>
		</g>
		<g id="shape109-213" v:mID="109" v:groupContext="shape" transform="translate(432.703,-404.463)">
			<title>Sheet.109</title>
			<path d="M0 824.23 L0 845.32 L4.35 845.32 L4.35 824.23 L0 824.23 L0 824.23 Z" class="st5"/>
		</g>
		<g id="shape110-215" v:mID="110" v:groupContext="shape" transform="translate(444.504,-404.463)">
			<title>Sheet.110</title>
			<path d="M0 824.23 L0 845.32 L4.35 845.32 L4.35 824.23 L0 824.23 L0 824.23 Z" class="st5"/>
		</g>
		<g id="shape111-217" v:mID="111" v:groupContext="shape" transform="translate(456.512,-404.463)">
			<title>Sheet.111</title>
			<path d="M0 824.23 L0 845.32 L4.35 845.32 L4.35 824.23 L0 824.23 L0 824.23 Z" class="st5"/>
		</g>
		<g id="shape112-219" v:mID="112" v:groupContext="shape" transform="translate(468.313,-404.463)">
			<title>Sheet.112</title>
			<path d="M0 824.23 L0 845.32 L4.55 845.32 L4.55 824.23 L0 824.23 L0 824.23 Z" class="st5"/>
		</g>
		<g id="shape113-221" v:mID="113" v:groupContext="shape" transform="translate(480.114,-404.463)">
			<title>Sheet.113</title>
			<path d="M0 824.23 L0 845.32 L4.35 845.32 L4.35 824.23 L0 824.23 L0 824.23 Z" class="st5"/>
		</g>
		<g id="shape114-223" v:mID="114" v:groupContext="shape" transform="translate(492.122,-404.463)">
			<title>Sheet.114</title>
			<path d="M0 824.23 L0 845.32 L4.35 845.32 L4.35 824.23 L0 824.23 L0 824.23 Z" class="st5"/>
		</g>
		<g id="shape115-225" v:mID="115" v:groupContext="shape" transform="translate(503.923,-404.463)">
			<title>Sheet.115</title>
			<path d="M0 824.23 L0 845.32 L4.35 845.32 L4.35 824.23 L0 824.23 L0 824.23 Z" class="st5"/>
		</g>
		<g id="shape116-227" v:mID="116" v:groupContext="shape" transform="translate(474.524,-125.102)">
			<title>Sheet.116</title>
			<path d="M0 818.85 L0 845.32 L26.5 845.32 L26.5 818.85 L0 818.85 L0 818.85 Z" class="st9"/>
		</g>
		<g id="shape117-229" v:mID="117" v:groupContext="shape" transform="translate(306.826,-144.747)">
			<title>Sheet.117</title>
			<path d="M0 840.15 L0 845.32 L48.86 845.32 L48.86 840.15 L0 840.15 L0 840.15 Z" class="st9"/>
		</g>
		<g id="shape118-231" v:mID="118" v:groupContext="shape" transform="translate(306.826,-135.855)">
			<title>Sheet.118</title>
			<path d="M0 840.15 L0 845.32 L85.92 845.32 L85.92 840.15 L0 840.15 L0 840.15 Z" class="st9"/>
		</g>
		<g id="shape119-233" v:mID="119" v:groupContext="shape" transform="translate(306.826,-127.17)">
			<title>Sheet.119</title>
			<path d="M0 840.15 L0 845.32 L61.7 845.32 L61.7 840.15 L0 840.15 L0 840.15 Z" class="st9"/>
		</g>
		<g id="shape120-235" v:mID="120" v:groupContext="shape" transform="translate(329.599,-172.248)">
			<title>Sheet.120</title>
			<path d="M148.44 770.88 C148.44 812.03 115.32 845.32 74.12 845.32 C74.12 845.32 74.12 845.32 74.12 845.32 C33.13 845.32
						 -0 812.03 0 770.88 C0 770.88 0 770.88 0 770.88 C0 729.94 33.13 696.64 74.12 696.64 C115.32 696.64 148.44
						 729.94 148.44 770.88 C148.44 770.88 148.44 770.88 148.44 770.88 Z" class="st10"/>
		</g>
		<g id="shape121-237" v:mID="121" v:groupContext="shape" transform="translate(337.674,-318.152)">
			<title>Sheet.121</title>
			<desc>RICE</desc>
			<v:textBlock v:margins="rect(0,0,0,0)"/>
			<v:textRect cx="82.0311" cy="809.587" width="164.07" height="71.4669"/>
			<path d="M164.06 773.85 L0 773.85 L0 845.32 L164.06 845.32 L164.06 773.85" class="st3"/>
			<text x="19.29" y="827.45" class="st11" v:langID="1033"><v:paragraph v:horizAlign="1"/><v:tabList/>RICE</text>		</g>
		<g id="shape122-241" v:mID="122" v:groupContext="shape" transform="translate(350.442,-268.647)">
			<title>Sheet.122</title>
			<path d="M18.49 833.57 C27.81 837.29 34.64 842.26 33.81 844.32 C32.78 846.39 24.71 845.15 15.39 841.43 C6.07 837.71 -0.76
						 832.95 0.07 830.68 C0.9 828.61 9.18 829.85 18.49 833.57 Z" class="st12"/>
		</g>
		<g id="shape123-243" v:mID="123" v:groupContext="shape" transform="translate(362.82,-237.337)">
			<title>Sheet.123</title>
			<path d="M16.67 829.76 C24.13 836.38 29.1 843.2 27.44 844.86 C25.99 846.72 18.75 842.79 11.08 835.97 C3.63 829.35 -1.34
						 822.73 0.32 820.87 C1.77 819.22 9.22 823.15 16.67 829.76 Z" class="st12"/>
		</g>
		<g id="shape124-245" v:mID="124" v:groupContext="shape" transform="translate(340.763,-262.121)">
			<title>Sheet.124</title>
			<path d="M18.65 835.73 C28.59 837.8 36.04 841.31 35.63 843.59 C35.01 845.86 26.72 845.86 16.99 843.8 C7.06 841.73 -0.4
						 838.21 0.02 835.94 C0.64 833.66 8.92 833.66 18.65 835.73 Z" class="st13"/>
		</g>
		<g id="shape125-247" v:mID="125" v:groupContext="shape" transform="translate(350.926,-231.763)">
			<title>Sheet.125</title>
			<path d="M13.45 827.5 C18.63 836.18 21.12 844.25 19.04 845.28 C16.97 846.52 11.38 840.53 6.21 831.84 C1.24 823.16 -1.24
						 815.3 0.62 814.06 C2.69 812.82 8.49 818.81 13.45 827.5 Z" class="st12"/>
		</g>
		<g id="shape126-249" v:mID="126" v:groupContext="shape" transform="translate(387.92,-265.119)">
			<title>Sheet.126</title>
			<path d="M18.49 834.8 C28.22 837.7 35.47 841.62 34.84 843.9 C34.22 846.17 25.94 845.76 16.21 842.86 C6.69 840.18 -0.77
						 836.04 0.06 833.77 C0.68 831.49 8.97 832.11 18.49 834.8 Z" class="st12"/>
		</g>
		<g id="shape127-251" v:mID="127" v:groupContext="shape" transform="translate(417.531,-255.788)">
			<title>Sheet.127</title>
			<path d="M12.48 827.12 C16.62 836.22 18.28 844.29 16.21 845.32 C14.14 846.35 8.96 839.74 4.82 830.64 C0.47 821.54 -1.18
						 813.27 0.89 812.44 C2.96 811.41 8.13 818.03 12.48 827.12 Z" class="st12"/>
		</g>
		<g id="shape128-253" v:mID="128" v:groupContext="shape" transform="translate(439.014,-272.484)">
			<title>Sheet.128</title>
			<path d="M18.33 833.27 C27.64 837.2 34.27 842.16 33.23 844.44 C32.4 846.51 24.12 844.85 15.01 840.92 C5.7 836.79 -0.93
						 831.83 0.11 829.76 C0.93 827.48 9.22 829.14 18.33 833.27 Z" class="st12"/>
		</g>
		<g id="shape129-255" v:mID="129" v:groupContext="shape" transform="translate(459.395,-202.852)">
			<title>Sheet.129</title>
			<path d="M8.3 827.33 C8.5 837.26 6.64 845.32 4.36 845.32 C2.09 845.53 0.02 837.46 0.02 827.33 C-0.19 817.2 1.67 809.13
						 3.95 809.13 C6.23 809.13 8.3 817.2 8.3 827.33 Z" class="st12"/>
		</g>
		<g id="shape130-257" v:mID="130" v:groupContext="shape" transform="translate(362.402,-201.774)">
			<title>Sheet.130</title>
			<path d="M17.92 832.04 C26.62 837 32.83 842.59 31.59 844.66 C30.55 846.72 22.48 844.24 13.78 839.28 C5.08 834.32 -0.92
						 828.53 0.12 826.67 C1.36 824.6 9.23 827.08 17.92 832.04 Z" class="st12"/>
		</g>
		<g id="shape131-259" v:mID="131" v:groupContext="shape" transform="translate(405.414,-234.876)">
			<title>Sheet.131</title>
			<path d="M13.21 831.65 C21.7 826.27 29.57 823.58 30.81 825.44 C32.05 827.51 26.25 833.3 17.77 838.68 C9.07 844.05 1.2
						 846.74 0.17 844.67 C-1.07 842.81 4.72 836.82 13.21 831.65 Z" class="st13"/>
		</g>
		<g id="shape132-261" v:mID="132" v:groupContext="shape" transform="translate(438.897,-241.442)">
			<title>Sheet.132</title>
			<path d="M18.65 835.73 C28.59 837.8 36.04 841.31 35.63 843.59 C35.01 845.86 26.72 845.86 16.99 843.8 C7.06 841.73 -0.4
						 838.21 0.02 835.94 C0.64 833.66 8.92 833.66 18.65 835.73 Z" class="st13"/>
		</g>
		<g id="shape133-263" v:mID="133" v:groupContext="shape" transform="translate(385.787,-275.432)">
			<title>Sheet.133</title>
			<path d="M10.89 829.19 C7.79 838.7 3.65 845.94 1.37 845.32 C-0.91 844.49 -0.29 836.22 2.82 826.71 C5.72 816.99 10.06
						 809.96 12.13 810.58 C14.41 811.2 13.79 819.47 10.89 829.19 Z" class="st13"/>
		</g>
		<g id="shape134-265" v:mID="134" v:groupContext="shape" transform="translate(419.337,-182.957)">
			<title>Sheet.134</title>
			<path d="M17.92 839.28 C9.23 844.24 1.36 846.72 0.12 844.66 C-0.92 842.59 5.08 837 13.78 832.04 C22.48 827.08 30.55 824.6
						 31.59 826.67 C32.83 828.73 26.82 834.32 17.92 839.28 Z" class="st13"/>
		</g>
		<g id="shape135-267" v:mID="135" v:groupContext="shape" transform="translate(393.647,-193.204)">
			<title>Sheet.135</title>
			<path d="M16.28 829.26 C23.53 836.29 28.08 843.12 26.43 844.98 C24.77 846.63 17.73 842.29 10.48 835.26 C3.24 828.43 -1.32
						 821.4 0.34 819.75 C1.79 818.1 9.04 822.23 16.28 829.26 Z" class="st13"/>
		</g>
		<g id="shape136-269" v:mID="136" v:groupContext="shape" transform="translate(349.62,-187.828)">
			<title>Sheet.136</title>
			<path d="M16.42 829.26 C23.66 836.29 28.22 843.32 26.56 844.98 C24.91 846.63 17.87 842.29 10.62 835.26 C3.37 828.43 -1.18
						 821.4 0.27 819.75 C1.92 818.1 9.17 822.44 16.42 829.26 Z" class="st13"/>
		</g>
		<g id="shape137-271" v:mID="137" v:groupContext="shape" transform="translate(332.986,-218.224)">
			<title>Sheet.137</title>
			<path d="M16.28 829.26 C23.53 836.29 28.08 843.32 26.43 844.98 C24.98 846.63 17.73 842.29 10.48 835.46 C3.24 828.43 -1.32
						 821.4 0.34 819.75 C2 818.09 9.04 822.44 16.28 829.26 Z" class="st13"/>
		</g>
		<g id="shape138-273" v:mID="138" v:groupContext="shape" transform="translate(732.696,-253.72)">
			<title>Sheet.138</title>
			<path d="M0 529.98 L0 845.32 L224.43 845.32 L224.43 529.98 L0 529.98 L0 529.98 Z" class="st14"/>
		</g>
		<g id="shape139-275" v:mID="139" v:groupContext="shape" transform="translate(732.696,-569.061)">
			<title>Sheet.139</title>
			<path d="M32.09 817.82 L256.72 817.82 L224.43 845.32 L0 845.32 L32.09 817.82 L32.09 817.82 Z" class="st15"/>
		</g>
		<g id="shape140-277" v:mID="140" v:groupContext="shape" transform="translate(957.329,-253.72)">
			<title>Sheet.140</title>
			<path d="M0 529.98 L32.3 502.48 L32.3 815.54 L0 845.32 L0 529.98 L0 529.98 Z" class="st15"/>
		</g>
		<g id="shape141-279" v:mID="141" v:groupContext="shape" transform="translate(687.977,-210.296)">
			<title>Sheet.141</title>
			<path d="M0 529.98 L0 845.32 L224.43 845.32 L224.43 529.98 L0 529.98 L0 529.98 Z" class="st14"/>
		</g>
		<g id="shape142-281" v:mID="142" v:groupContext="shape" transform="translate(687.977,-525.637)">
			<title>Sheet.142</title>
			<path d="M32.3 817.82 L256.93 817.82 L224.63 845.32 L0 845.32 L32.3 817.82 L32.3 817.82 Z" class="st15"/>
		</g>
		<g id="shape143-283" v:mID="143" v:groupContext="shape" transform="translate(912.609,-210.296)">
			<title>Sheet.143</title>
			<path d="M0 529.98 L32.3 502.48 L32.3 815.54 L0 845.32 L0 529.98 L0 529.98 Z" class="st15"/>
		</g>
		<g id="shape144-285" v:mID="144" v:groupContext="shape" transform="translate(633.734,-164.184)">
			<title>Sheet.144</title>
			<path d="M0 529.98 L0 845.32 L224.43 845.32 L224.43 529.98 L0 529.98 L0 529.98 Z" class="st14"/>
		</g>
		<g id="shape145-287" v:mID="145" v:groupContext="shape" transform="translate(633.734,-479.525)">
			<title>Sheet.145</title>
			<path d="M32.3 817.82 L256.93 817.82 L224.63 845.32 L0 845.32 L32.3 817.82 L32.3 817.82 Z" class="st15"/>
		</g>
		<g id="shape146-289" v:mID="146" v:groupContext="shape" transform="translate(858.366,-164.184)">
			<title>Sheet.146</title>
			<path d="M0 529.98 L32.09 502.48 L32.09 815.54 L0 845.32 L0 529.98 L0 529.98 Z" class="st15"/>
		</g>
		<g id="shape147-291" v:mID="147" v:groupContext="shape" transform="translate(584.252,-118.692)">
			<title>Sheet.147</title>
			<path d="M0 529.98 L0 845.32 L224.63 845.32 L224.63 529.98 L0 529.98 L0 529.98 Z" class="st14"/>
		</g>
		<g id="shape148-293" v:mID="148" v:groupContext="shape" transform="translate(584.252,-434.033)">
			<title>Sheet.148</title>
			<path d="M32.3 817.82 L256.72 817.82 L224.63 845.32 L0 845.32 L32.3 817.82 L32.3 817.82 Z" class="st15"/>
		</g>
		<g id="shape149-295" v:mID="149" v:groupContext="shape" transform="translate(808.678,-118.692)">
			<title>Sheet.149</title>
			<path d="M0 529.98 L32.3 502.48 L32.3 815.54 L0 845.32 L0 529.98 L0 529.98 Z" class="st15"/>
		</g>
		<g id="shape150-297" v:mID="150" v:groupContext="shape" transform="translate(683.422,-125.93)">
			<title>Sheet.150</title>
			<path d="M0 818.85 L0 845.32 L26.5 845.32 L26.5 818.85 L0 818.85 L0 818.85 Z" class="st16"/>
		</g>
		<g id="shape151-299" v:mID="151" v:groupContext="shape" transform="translate(622.347,-173.076)">
			<title>Sheet.151</title>
			<path d="M0 696.85 L0 845.32 L148.65 845.32 L148.65 696.85 L0 696.85 L0 696.85 Z" class="st10"/>
		</g>
		<g id="shape152-301" v:mID="152" v:groupContext="shape" transform="translate(672.035,-350.494)">
			<title>Sheet.152</title>
			<path d="M0 840.15 L0 845.32 L48.86 845.32 L48.86 840.15 L0 840.15 L0 840.15 Z" class="st16"/>
		</g>
		<g id="shape153-303" v:mID="153" v:groupContext="shape" transform="translate(653.609,-341.809)">
			<title>Sheet.153</title>
			<path d="M0 840.15 L0 845.32 L86.13 845.32 L86.13 840.15 L0 840.15 L0 840.15 Z" class="st16"/>
		</g>
		<g id="shape154-305" v:mID="154" v:groupContext="shape" transform="translate(665.824,-332.917)">
			<title>Sheet.154</title>
			<path d="M0 840.15 L0 845.32 L61.7 845.32 L61.7 840.15 L0 840.15 L0 840.15 Z" class="st16"/>
		</g>
		<g id="shape155-307" v:mID="155" v:groupContext="shape" transform="translate(632.491,-351.237)">
			<title>Sheet.155</title>
			<desc>RICE</desc>
			<v:textBlock v:margins="rect(0,0,0,0)"/>
			<v:textRect cx="80.6266" cy="809.587" width="161.26" height="71.4669"/>
			<path d="M161.25 773.85 L0 773.85 L0 845.32 L161.25 845.32 L161.25 773.85" class="st3"/>
			<text x="17.89" y="827.45" class="st11" v:langID="1033"><v:paragraph v:horizAlign="1"/><v:tabList/>RICE</text>		</g>
		<g id="shape156-311" v:mID="156" v:groupContext="shape" transform="translate(680.465,-277.707)">
			<title>Sheet.156</title>
			<path d="M12.27 827.12 C16.62 836.22 18.28 844.29 16.21 845.32 C14.14 846.35 8.96 839.74 4.82 830.64 C0.47 821.54 -1.18
						 813.48 0.89 812.44 C2.96 811.41 8.13 818.03 12.27 827.12 Z" class="st12"/>
		</g>
		<g id="shape157-313" v:mID="157" v:groupContext="shape" transform="translate(673.082,-249.998)">
			<title>Sheet.157</title>
			<path d="M8.68 826.92 C9.72 836.84 8.68 845.11 6.41 845.32 C4.13 845.53 1.44 837.67 0.4 827.74 C-0.63 817.82 0.4 809.55
						 2.68 809.34 C4.96 809.13 7.65 816.99 8.68 826.92 Z" class="st12"/>
		</g>
		<g id="shape158-315" v:mID="158" v:groupContext="shape" transform="translate(665.491,-278.463)">
			<title>Sheet.158</title>
			<path d="M14.41 827.88 C20.21 836.15 23.52 843.8 21.45 845.25 C19.59 846.49 13.38 840.91 7.58 832.64 C1.78 824.57 -1.32
						 816.92 0.54 815.47 C2.61 814.23 8.82 819.61 14.41 827.88 Z" class="st13"/>
		</g>
		<g id="shape159-317" v:mID="159" v:groupContext="shape" transform="translate(658.706,-259.51)">
			<title>Sheet.159</title>
			<path d="M9.81 828.57 C7.74 838.29 4.01 845.94 1.73 845.32 C-0.54 844.91 -0.54 836.43 1.53 826.71 C3.81 816.99 7.32 809.34
						 9.6 809.96 C11.88 810.37 12.09 818.65 9.81 828.57 Z" class="st12"/>
		</g>
		<g id="shape160-319" v:mID="160" v:groupContext="shape" transform="translate(703.509,-248.926)">
			<title>Sheet.160</title>
			<path d="M13.66 827.71 C18.84 836.18 21.32 844.04 19.46 845.28 C17.39 846.52 11.59 840.53 6.41 831.84 C1.24 823.36 -1.25
						 815.51 0.62 814.26 C2.69 813.02 8.48 819.02 13.66 827.71 Z" class="st12"/>
		</g>
		<g id="shape161-321" v:mID="161" v:groupContext="shape" transform="translate(722.29,-233.662)">
			<title>Sheet.161</title>
			<path d="M10.82 829.4 C7.71 839.12 3.37 846.15 1.3 845.32 C-0.98 844.7 -0.15 836.43 2.95 826.92 C6.06 817.4 10.2 810.17
						 12.48 810.99 C14.75 811.61 13.93 819.89 10.82 829.4 Z" class="st12"/>
		</g>
		<g id="shape162-323" v:mID="162" v:groupContext="shape" transform="translate(748.598,-220.428)">
			<title>Sheet.162</title>
			<path d="M12.05 827.12 C15.98 836.22 17.43 844.49 15.36 845.32 C13.08 846.35 8.32 839.53 4.39 830.43 C0.25 821.13 -1.2
						 812.86 1.08 812.03 C3.15 810.99 8.11 817.82 12.05 827.12 Z" class="st12"/>
		</g>
		<g id="shape163-325" v:mID="163" v:groupContext="shape" transform="translate(709.131,-174.299)">
			<title>Sheet.163</title>
			<path d="M15.7 834.55 C8.87 841.79 2.03 846.54 0.38 845.1 C-1.28 843.44 2.65 836.2 9.49 828.76 C16.32 821.32 23.15 816.56
						 24.81 818.21 C26.46 819.87 22.53 827.11 15.7 834.55 Z" class="st12"/>
		</g>
		<g id="shape164-327" v:mID="164" v:groupContext="shape" transform="translate(646.03,-221.669)">
			<title>Sheet.164</title>
			<path d="M10.68 826.71 C13.79 836.22 14.41 844.49 12.13 845.32 C9.86 845.94 5.72 838.7 2.82 829.19 C-0.29 819.68 -0.91
						 811.2 1.37 810.58 C3.65 809.96 7.79 817.2 10.68 826.71 Z" class="st12"/>
		</g>
		<g id="shape165-329" v:mID="165" v:groupContext="shape" transform="translate(688.996,-229.242)">
			<title>Sheet.165</title>
			<path d="M18.65 835.94 C28.59 837.8 36.25 841.11 35.63 843.38 C35.21 845.66 26.93 846.07 17.2 844 C7.26 842.14 -0.4 838.83
						 0.02 836.56 C0.43 834.28 8.92 833.87 18.65 835.94 Z" class="st13"/>
		</g>
		<g id="shape166-331" v:mID="166" v:groupContext="shape" transform="translate(723.461,-196.577)">
			<title>Sheet.166</title>
			<path d="M14.41 827.88 C20.21 836.15 23.31 843.8 21.45 845.25 C19.59 846.49 13.38 840.91 7.58 832.84 C1.78 824.57 -1.32
						 816.92 0.54 815.47 C2.4 814.23 8.61 819.61 14.41 827.88 Z" class="st13"/>
		</g>
		<g id="shape167-333" v:mID="167" v:groupContext="shape" transform="translate(702.974,-279.096)">
			<title>Sheet.167</title>
			<path d="M17.92 839.27 C9.23 844.43 1.36 846.71 0.12 844.64 C-0.92 842.78 5.08 836.99 13.78 832.03 C22.48 827.06 30.55
						 824.58 31.59 826.65 C32.83 828.72 26.82 834.3 17.92 839.27 Z" class="st13"/>
		</g>
		<g id="shape168-335" v:mID="168" v:groupContext="shape" transform="translate(663.925,-180.468)">
			<title>Sheet.168</title>
			<path d="M16.81 843.61 C6.87 841.34 -0.58 837.62 0.04 835.34 C0.45 833.07 8.94 833.07 18.67 835.34 C28.4 837.62 35.85
						 841.34 35.44 843.61 C34.82 845.89 26.54 845.89 16.81 843.61 Z" class="st13"/>
		</g>
		<g id="shape169-337" v:mID="169" v:groupContext="shape" transform="translate(665.887,-197.476)">
			<title>Sheet.169</title>
			<path d="M8.43 827.12 C9.05 837.05 7.6 845.32 5.32 845.32 C3.04 845.53 0.77 837.46 0.14 827.54 C-0.48 817.4 0.97 809.34
						 3.25 809.13 C5.53 808.93 8.01 816.99 8.43 827.12 Z" class="st13"/>
		</g>
		<g id="shape170-339" v:mID="170" v:groupContext="shape" transform="translate(629.863,-223.323)">
			<title>Sheet.170</title>
			<path d="M8.43 826.92 C9.05 837.05 7.6 845.32 5.32 845.32 C3.04 845.53 0.77 837.46 0.14 827.54 C-0.48 817.4 0.97 809.34
						 3.25 809.13 C5.53 808.93 8.01 816.99 8.43 826.92 Z" class="st13"/>
		</g>
		<g id="shape171-341" v:mID="171" v:groupContext="shape" transform="translate(638.624,-256.822)">
			<title>Sheet.171</title>
			<path d="M8.57 826.92 C8.98 837.05 7.74 845.11 5.25 845.32 C2.98 845.53 0.7 837.46 0.08 827.54 C-0.34 817.4 0.91 809.13
						 3.39 809.13 C5.67 808.93 7.95 816.99 8.57 826.92 Z" class="st13"/>
		</g>
		<g id="shape172-343" v:mID="172" v:groupContext="shape" transform="translate(998.529,-234.076)">
			<title>Sheet.172</title>
			<path d="M0 636.26 L143.48 636.26 L143.48 845.32" class="st17"/>
		</g>
		<g id="shape173-346" v:mID="173" v:groupContext="shape" transform="translate(1135.38,-332.297)">
			<title>Sheet.173</title>
			<path d="M12.42 839.12 C12.42 842.63 9.73 845.32 6.21 845.32 C6.21 845.32 6.21 845.32 6.21 845.32 C2.9 845.32 -0 842.63
						 0 839.12 C0 839.12 0 839.12 0 839.12 C0 835.81 2.9 833.12 6.21 833.12 C9.73 833.12 12.42 835.81 12.42 839.12
						 Z" class="st18"/>
		</g>
		<g id="shape174-348" v:mID="174" v:groupContext="shape" transform="translate(1135.38,-332.297)">
			<title>Sheet.174</title>
			<path d="M12.42 839.12 C12.42 842.63 9.73 845.32 6.21 845.32 C6.21 845.32 6.21 845.32 6.21 845.32 C2.9 845.32 -0 842.63
						 0 839.12 C0 839.12 0 839.12 0 839.12 C0 835.81 2.9 833.12 6.21 833.12 C9.73 833.12 12.42 835.81 12.42 839.12"
					class="st19"/>
		</g>
		<g id="shape175-351" v:mID="175" v:groupContext="shape" transform="translate(1135.38,-227.872)">
			<title>Sheet.175</title>
			<path d="M12.42 839.12 C12.42 842.63 9.73 845.32 6.21 845.32 C2.9 845.32 -0 842.63 0 839.12 C-0 835.81 2.9 833.12 6.21
						 833.12 C6.21 833.12 6.21 833.12 6.21 833.12 C9.73 833.12 12.42 835.81 12.42 839.12 C12.42 839.12 12.42 839.12
						 12.42 839.12 Z" class="st18"/>
		</g>
		<g id="shape176-353" v:mID="176" v:groupContext="shape" transform="translate(1135.38,-227.872)">
			<title>Sheet.176</title>
			<path d="M12.42 839.12 C12.42 842.63 9.73 845.32 6.21 845.32 C2.9 845.32 -0 842.63 0 839.12 C-0 835.81 2.9 833.12 6.21
						 833.12 C6.21 833.12 6.21 833.12 6.21 833.12 C9.73 833.12 12.42 835.81 12.42 839.12 C12.42 839.12 12.42 839.12
						 12.42 839.12" class="st19"/>
		</g>
		<g id="shape177-356" v:mID="177" v:groupContext="shape" transform="translate(1096.66,-336.846)">
			<title>Sheet.177</title>
			<path d="M1.66 842.01 L4.97 842.01 C5.8 842.01 6.63 842.84 6.63 843.67 C6.63 844.7 5.8 845.32 4.97 845.32 L1.66 845.32
						 C0.62 845.32 0 844.7 0 843.67 C0 842.84 0.62 842.01 1.66 842.01 ZM11.59 842.01 L14.91 842.01 C15.73 842.01
						 16.56 842.84 16.56 843.67 C16.56 844.7 15.73 845.32 14.91 845.32 L11.59 845.32 C10.56 845.32 9.94 844.7
						 9.94 843.67 C9.94 842.84 10.56 842.01 11.59 842.01 ZM21.53 842.01 L24.84 842.01 C25.67 842.01 26.5 842.84
						 26.5 843.67 C26.5 844.7 25.67 845.32 24.84 845.32 L21.53 845.32 C20.5 845.32 19.88 844.7 19.88 843.67 C19.88
						 842.84 20.5 842.01 21.53 842.01 ZM31.47 842.01 L34.78 842.01 C35.61 842.01 36.44 842.84 36.44 843.67 C36.44
						 844.7 35.61 845.32 34.78 845.32 L31.47 845.32 C30.43 845.32 29.81 844.7 29.81 843.67 C29.81 842.84 30.43
						 842.01 31.47 842.01 Z" class="st20"/>
		</g>
		<g id="shape178-358" v:mID="178" v:groupContext="shape" transform="translate(1096.66,-232.422)">
			<title>Sheet.178</title>
			<path d="M1.66 842.01 L4.97 842.01 C5.8 842.01 6.63 842.84 6.63 843.67 C6.63 844.7 5.8 845.32 4.97 845.32 L1.66 845.32
						 C0.62 845.32 0 844.7 0 843.67 C0 842.84 0.62 842.01 1.66 842.01 ZM11.59 842.01 L14.91 842.01 C15.73 842.01
						 16.56 842.84 16.56 843.67 C16.56 844.7 15.73 845.32 14.91 845.32 L11.59 845.32 C10.56 845.32 9.94 844.7
						 9.94 843.67 C9.94 842.84 10.56 842.01 11.59 842.01 ZM21.53 842.01 L24.84 842.01 C25.67 842.01 26.5 842.84
						 26.5 843.67 C26.5 844.7 25.67 845.32 24.84 845.32 L21.53 845.32 C20.5 845.32 19.88 844.7 19.88 843.67 C19.88
						 842.84 20.5 842.01 21.53 842.01 ZM31.47 842.01 L34.78 842.01 C35.61 842.01 36.44 842.84 36.44 843.67 C36.44
						 844.7 35.61 845.32 34.78 845.32 L31.47 845.32 C30.43 845.32 29.81 844.7 29.81 843.67 C29.81 842.84 30.43
						 842.01 31.47 842.01 Z" class="st20"/>
		</g>
		<g id="shape179-360" v:mID="179" v:groupContext="shape" transform="translate(766.443,-516.745)">
			<title>Sheet.179</title>
			<path d="M0 787.63 L0 845.32 L331.26 845.32 L331.26 787.63 L0 787.63 L0 787.63 Z" class="st18"/>
		</g>
		<g id="shape180-362" v:mID="180" v:groupContext="shape" transform="translate(779.48,-517.323)">
			<title>Sheet.180</title>
			<desc>Gluten content</desc>
			<v:textBlock v:margins="rect(0,0,0,0)"/>
			<v:textRect cx="153" cy="817.527" width="306.01" height="55.5866"/>
			<path d="M306 789.73 L0 789.73 L0 845.32 L306 845.32 L306 789.73" class="st3"/>
			<text x="0" y="831.42" class="st21" v:langID="1033"><v:paragraph/><v:tabList/>Gluten content</text>		</g>
		<g id="shape181-366" v:mID="181" v:groupContext="shape" transform="translate(860.23,-414.389)">
			<title>Sheet.181</title>
			<path d="M0 787.63 L0 845.32 L139.13 845.32 L139.13 787.63 L0 787.63 L0 787.63 Z" class="st18"/>
		</g>
		<g id="shape182-368" v:mID="182" v:groupContext="shape" transform="translate(860.693,-413.739)">
			<title>Sheet.182</title>
			<desc>Label</desc>
			<v:textBlock v:margins="rect(0,0,0,0)"/>
			<v:textRect cx="67.3937" cy="817.527" width="134.79" height="55.5866"/>
			<path d="M134.79 789.73 L0 789.73 L0 845.32 L134.79 845.32 L134.79 789.73" class="st3"/>
			<text x="11.45" y="831.42" class="st21" v:langID="1033"><v:paragraph v:horizAlign="1"/><v:tabList/>Label</text>		</g>
		<g id="shape183-372" v:mID="183" v:groupContext="shape" transform="translate(968.302,-310.998)">
			<title>Sheet.183</title>
			<path d="M0 787.63 L0 845.32 L128.36 845.32 L128.36 787.63 L0 787.63 L0 787.63 Z" class="st18"/>
		</g>
		<g id="shape184-374" v:mID="184" v:groupContext="shape" transform="translate(969.895,-311.033)">
			<title>Sheet.184</title>
			<desc>Local</desc>
			<v:textBlock v:margins="rect(0,0,0,0)"/>
			<v:textRect cx="62.2926" cy="817.527" width="124.59" height="55.5866"/>
			<path d="M124.59 789.73 L0 789.73 L0 845.32 L124.59 845.32 L124.59 789.73" class="st3"/>
			<text x="6.28" y="831.42" class="st21" v:langID="1033"><v:paragraph v:horizAlign="1"/><v:tabList/>Local</text>		</g>
		<g id="shape186-378" v:mID="186" v:groupContext="shape" transform="translate(39.1296,-257.029)">
			<title>Sheet.186</title>
			<path d="M0 787.63 L0 845.32 L289.64 845.32 L289.64 787.63 L0 787.63 L0 787.63 Z" class="st18"/>
		</g>
		<g id="shape187-380" v:mID="187" v:groupContext="shape" transform="translate(43.7939,-256.239)">
			<title>Sheet.187</title>
			<desc>Cooking time</desc>
			<v:textBlock v:margins="rect(0,0,0,0)"/>
			<v:textRect cx="138.343" cy="817.527" width="276.69" height="55.5866"/>
			<path d="M276.69 789.73 L0 789.73 L0 845.32 L276.69 845.32 L276.69 789.73" class="st3"/>
			<text x="2.24" y="831.42" class="st21" v:langID="1033"><v:paragraph v:horizAlign="1"/><v:tabList/>Cooking time</text>		</g>
		<g id="shape188-384" v:mID="188" v:groupContext="shape" transform="translate(55.4853,-468.152)">
			<title>Sheet.188</title>
			<path d="M0 787.63 L0 845.32 L266.04 845.32 L266.04 787.63 L0 787.63 L0 787.63 Z" class="st18"/>
		</g>
		<g id="shape189-386" v:mID="189" v:groupContext="shape" transform="translate(50.4804,-469.326)">
			<title>Sheet.189</title>
			<desc>Price per oz</desc>
			<v:textBlock v:margins="rect(0,0,0,0)"/>
			<v:textRect cx="135" cy="817.527" width="270.01" height="55.5866"/>
			<path d="M270 789.73 L0 789.73 L0 845.32 L270 845.32 L270 789.73" class="st3"/>
			<text x="13.29" y="831.42" class="st21" v:langID="1033"><v:paragraph v:horizAlign="1"/><v:tabList/>Price per oz</text>		</g>
		<g id="shape190-390" v:mID="190" v:groupContext="shape" transform="translate(101.24,-362.073)">
			<title>Sheet.190</title>
			<path d="M0 787.63 L0 845.32 L174.53 845.32 L174.53 787.63 L0 787.63 L0 787.63 Z" class="st18"/>
		</g>
		<g id="shape191-392" v:mID="191" v:groupContext="shape" transform="translate(104.48,-361.326)">
			<title>Sheet.191</title>
			<desc>Recipes</desc>
			<v:textBlock v:margins="rect(0,0,0,0)"/>
			<v:textRect cx="83.1865" cy="817.527" width="166.38" height="55.5866"/>
			<path d="M166.37 789.73 L0 789.73 L0 845.32 L166.37 845.32 L166.37 789.73" class="st3"/>
			<text x="1.71" y="831.42" class="st21" v:langID="1033"><v:paragraph v:horizAlign="1"/><v:tabList/>Recipes</text>		</g>
		<g id="shape192-396" v:mID="192" v:groupContext="shape" transform="translate(909.09,-206.161)">
			<title>Sheet.192</title>
			<path d="M0 787.63 L0 845.32 L187.99 845.32 L187.99 787.63 L0 787.63 L0 787.63 Z" class="st18"/>
		</g>
		<g id="shape193-398" v:mID="193" v:groupContext="shape" transform="translate(920.684,-206.325)">
			<title>Sheet.193</title>
			<desc>Organic</desc>
			<v:textBlock v:margins="rect(0,0,0,0)"/>
			<v:textRect cx="84.0858" cy="817.527" width="168.18" height="55.5866"/>
			<path d="M168.17 789.73 L0 789.73 L0 845.32 L168.17 845.32 L168.17 789.73" class="st3"/>
			<text x="4.21" y="831.42" class="st21" v:langID="1033"><v:paragraph v:horizAlign="1"/><v:tabList/>Organic</text>		</g>
	</g>
</svg>
