<?xml version="1.0" encoding="UTF-8" standalone="no"?>
<!DOCTYPE svg PUBLIC "-//W3C//DTD SVG 1.1//EN" "http://www.w3.org/Graphics/SVG/1.1/DTD/svg11.dtd">
<!-- Generated by Microsoft Visio, SVG Export _information-manager_.svg Page-1 -->
<svg xmlns="http://www.w3.org/2000/svg" xmlns:xlink="http://www.w3.org/1999/xlink" xmlns:ev="http://www.w3.org/2001/xml-events"
		xmlns:v="http://schemas.microsoft.com/visio/2003/SVGExtensions/" width="16.6397in" height="11.8162in"
		viewBox="0 0 1198.06 850.766" xml:space="preserve" color-interpolation-filters="sRGB" class="st12">
	<v:documentProperties v:langID="1033" v:viewMarkup="false"/>

	<style type="text/css">
	<![CDATA[
		.st1 {fill:#848693;stroke:none;stroke-linecap:butt;stroke-width:2.25279}
		.st2 {fill:none;stroke:none;stroke-linecap:butt;stroke-width:0.75}
		.st3 {fill:#000000;font-family:Merriweather;font-size:9.01115em}
		.st4 {fill:none}
		.st5 {stroke:#ffffff;stroke-linecap:butt;stroke-width:2.25279}
		.st6 {fill:#ffffff;stroke:none;stroke-linecap:butt;stroke-width:2.25279}
		.st7 {stroke:#f9f9f9;stroke-dasharray:2.25279,4.50558;stroke-linecap:round;stroke-linejoin:round;stroke-width:2.25279}
		.st8 {stroke:#ffffff;stroke-linecap:butt;stroke-width:5.63197}
		.st9 {fill:#ffffff;font-family:Roboto;font-size:2.25279em}
		.st10 {fill:#000000;font-family:Roboto;font-size:3.75465em}
		.st11 {fill:#000000;font-family:MS Gothic;font-size:3.75465em}
		.st12 {fill:none;fill-rule:evenodd;font-size:12px;overflow:visible;stroke-linecap:square;stroke-miterlimit:3}
	]]>
	</style>

	<g v:mID="0" v:index="1" v:groupContext="foregroundPage">
		<title>Page-1</title>
		<v:pageProperties v:drawingScale="1" v:pageScale="1" v:drawingUnits="19" v:shadowOffsetX="9" v:shadowOffsetY="-9"/>
		<g id="group37-1" transform="translate(2.25279,-2.25279)" v:mID="37" v:groupContext="group">
			<title>Sheet.37</title>
			<g id="shape1-2" v:mID="1" v:groupContext="shape">
				<title>path200</title>
				<rect x="0" y="4.50558" width="1193.55" height="846.26" class="st1"/>
			</g>
			<g id="shape2-4" v:mID="2" v:groupContext="shape" transform="translate(4.5,-667.787)">
				<title>text420</title>
				<desc>Information Manager</desc>
				<v:textBlock v:margins="rect(0,0,0,0)" v:verticalAlign="0"/>
				<v:textRect cx="590.638" cy="785.885" width="1181.28" height="129.761"/>
				<rect x="0" y="721.005" width="1181.28" height="129.761" class="st2"/>
				<text x="10.88" y="818.33" class="st3" v:langID="1033"><v:paragraph v:horizAlign="1"/><v:tabList/>Information Manager</text>			</g>
			<g id="shape3-7" v:mID="3" v:groupContext="shape" transform="translate(338.138,-160.496)">
				<title>path1066</title>
				<path d="M0 533.89 L21.45 533.89 L21.45 850.77 L0 533.89 Z" class="st4"/>
				<path d="M0 533.89 L21.45 533.89 L21.45 850.77" class="st5"/>
			</g>
			<g id="shape4-10" v:mID="4" v:groupContext="shape" transform="translate(350.864,-363.494)">
				<title>path1068</title>
				<path d="M16.09 842.72 A8.04358 8.04358 0 0 1 8.04 850.77 A8.04358 8.04358 0 0 1 0 842.72 A8.04358 8.04358 0 0 1
							 8.04 834.68 A8.04358 8.04358 0 0 1 16.09 842.72 Z" class="st6"/>
			</g>
			<g id="shape5-12" v:mID="5" v:groupContext="shape" transform="translate(350.864,-259.167)">
				<title>path1070</title>
				<path d="M16.09 842.72 A8.04358 8.04358 0 0 1 8.04 850.77 A8.04358 8.04358 0 0 1 0 842.72 A8.04358 8.04358 0 0 1
							 8.04 834.68 A8.04358 8.04358 0 0 1 16.09 842.72 Z" class="st6"/>
			</g>
			<g id="shape6-14" v:mID="6" v:groupContext="shape" transform="translate(350.864,-154.773)">
				<title>path1072</title>
				<path d="M16.09 842.72 A8.04358 8.04358 0 0 1 8.04 850.77 A8.04358 8.04358 0 0 1 0 842.72 A8.04358 8.04358 0 0 1
							 8.04 834.68 A8.04358 8.04358 0 0 1 16.09 842.72 Z" class="st6"/>
			</g>
			<g id="shape7-16" v:mID="7" v:groupContext="shape" transform="translate(320.544,-371.537)">
				<title>path1076</title>
				<path d="M0 850.77 L30.25 850.77 L0 850.77 Z" class="st4"/>
				<path d="M0 850.77 L30.25 850.77" class="st7"/>
			</g>
			<g id="shape8-19" v:mID="8" v:groupContext="shape" transform="translate(320.544,-267.211)">
				<title>path1078</title>
				<path d="M0 850.77 L30.25 850.77 L0 850.77 Z" class="st4"/>
				<path d="M0 850.77 L30.25 850.77" class="st7"/>
			</g>
			<g id="shape9-22" v:mID="9" v:groupContext="shape" transform="translate(320.544,-162.816)">
				<title>path1080</title>
				<path d="M0 850.77 L30.25 850.77 L0 850.77 Z" class="st4"/>
				<path d="M0 850.77 L30.25 850.77" class="st7"/>
			</g>
			<g id="shape10-25" v:mID="10" v:groupContext="shape" transform="translate(504.234,-307.016)">
				<title>path1084</title>
				<path d="M16.09 842.72 A8.04358 8.04358 0 0 1 8.04 850.77 A8.04358 8.04358 0 0 1 0 842.72 A8.04358 8.04358 0 0 1
							 8.04 834.68 A8.04358 8.04358 0 0 1 16.09 842.72 Z" class="st6"/>
			</g>
			<g id="shape11-27" v:mID="11" v:groupContext="shape" transform="translate(562.536,-411.343)">
				<title>path1086</title>
				<path d="M16.09 842.72 A8.04358 8.04358 0 0 1 8.04 850.77 A8.04358 8.04358 0 0 1 0 842.72 A8.04358 8.04358 0 0 1
							 8.04 834.68 A8.04358 8.04358 0 0 1 16.09 842.72 Z" class="st6"/>
			</g>
			<g id="shape12-29" v:mID="12" v:groupContext="shape" transform="translate(562.536,-307.016)">
				<title>path1088</title>
				<path d="M16.09 842.72 A8.04358 8.04358 0 0 1 8.04 850.77 A8.04358 8.04358 0 0 1 0 842.72 A8.04358 8.04358 0 0 1
							 8.04 834.68 A8.04358 8.04358 0 0 1 16.09 842.72 Z" class="st6"/>
			</g>
			<g id="shape13-31" v:mID="13" v:groupContext="shape" transform="translate(562.536,-200.054)">
				<title>path1090</title>
				<path d="M16.09 842.72 A8.04358 8.04358 0 0 1 8.04 850.77 A8.04358 8.04358 0 0 1 0 842.72 A8.04358 8.04358 0 0 1
							 8.04 834.68 A8.04358 8.04358 0 0 1 16.09 842.72 Z" class="st6"/>
			</g>
			<g id="shape14-33" v:mID="14" v:groupContext="shape" transform="translate(541.229,-207.408)">
				<title>path1094</title>
				<path d="M22.12 638.45 L0 638.45 L0 850.77 L24.47 850.77 L22.12 638.45 Z" class="st4"/>
				<path d="M22.12 638.45 L0 638.45 L0 850.77 L24.47 850.77" class="st8"/>
			</g>
			<g id="shape15-36" v:mID="15" v:groupContext="shape" transform="translate(510.882,-315.308)">
				<title>path1096</title>
				<path d="M0 850.77 L60.43 850.77 L0 850.77 Z" class="st4"/>
				<path d="M0 850.77 L60.43 850.77" class="st8"/>
			</g>
			<g id="shape16-39" v:mID="16" v:groupContext="shape" transform="translate(504.234,-307.016)">
				<title>path1098</title>
				<path d="M16.09 842.72 A8.04358 8.04358 0 0 1 8.04 850.77 A8.04358 8.04358 0 0 1 0 842.72 A8.04358 8.04358 0 0 1
							 8.04 834.68 A8.04358 8.04358 0 0 1 16.09 842.72 Z" class="st6"/>
			</g>
			<g id="shape17-41" v:mID="17" v:groupContext="shape" transform="translate(428.7,-296.731)">
				<title>text1102</title>
				<desc>rice</desc>
				<v:textBlock v:margins="rect(0,0,0,0)"/>
				<v:textRect cx="54.0919" cy="834.546" width="108.19" height="32.4402"/>
				<rect x="0" y="818.326" width="108.184" height="32.4402" class="st2"/>
				<text x="0" y="842.66" class="st9" v:langID="1033"><v:paragraph/><v:tabList/>rice</text>			</g>
			<g id="shape18-44" v:mID="18" v:groupContext="shape" transform="translate(587.226,-402.639)">
				<title>text1106</title>
				<desc>rice (crop)</desc>
				<v:textBlock v:margins="rect(0,0,0,0)"/>
				<v:textRect cx="148.709" cy="834.546" width="297.42" height="32.4402"/>
				<rect x="0" y="818.326" width="297.418" height="32.4402" class="st2"/>
				<text x="0" y="842.66" class="st9" v:langID="1033"><v:paragraph/><v:tabList/>rice (crop)</text>			</g>
			<g id="shape19-47" v:mID="19" v:groupContext="shape" transform="translate(587.226,-296.468)">
				<title>text1110</title>
				<desc>rice (plant)</desc>
				<v:textBlock v:margins="rect(0,0,0,0)"/>
				<v:textRect cx="162.226" cy="834.546" width="324.46" height="32.4402"/>
				<rect x="0" y="818.326" width="324.452" height="32.4402" class="st2"/>
				<text x="0" y="842.66" class="st9" v:langID="1033"><v:paragraph/><v:tabList/>rice (plant)</text>			</g>
			<g id="shape20-50" v:mID="20" v:groupContext="shape" transform="translate(587.226,-187.455)">
				<title>text1114</title>
				<desc>rice (food)</desc>
				<v:textBlock v:margins="rect(0,0,0,0)"/>
				<v:textRect cx="148.709" cy="834.546" width="297.42" height="32.4402"/>
				<rect x="0" y="818.326" width="297.418" height="32.4402" class="st2"/>
				<text x="0" y="842.66" class="st9" v:langID="1033"><v:paragraph/><v:tabList/>rice (food)</text>			</g>
			<g id="shape21-53" v:mID="21" v:groupContext="shape" transform="translate(82.6044,-446.943)">
				<title>path2078</title>
				<rect x="0" y="792.941" width="256.503" height="57.8246" class="st6"/>
			</g>
			<g id="shape22-55" v:mID="22" v:groupContext="shape" transform="translate(237.682,-342.616)">
				<title>path2080</title>
				<rect x="0" y="792.941" width="81.5082" height="57.8246" class="st6"/>
			</g>
			<g id="shape23-57" v:mID="23" v:groupContext="shape" transform="translate(177.75,-238.289)">
				<title>path2082</title>
				<rect x="0" y="792.941" width="141.44" height="57.8246" class="st6"/>
			</g>
			<g id="shape24-59" v:mID="24" v:groupContext="shape" transform="translate(91.6015,-450.027)">
				<title>text2088</title>
				<desc>Equivalents</desc>
				<v:textBlock v:margins="rect(0,0,0,0)"/>
				<v:textRect cx="120.699" cy="823.732" width="241.4" height="54.0669"/>
				<rect x="0" y="796.699" width="241.398" height="54.0669" class="st2"/>
				<text x="0" y="837.25" class="st10" v:langID="1033"><v:paragraph/><v:tabList/>Equivalents</text>			</g>
			<g id="shape25-62" v:mID="25" v:groupContext="shape" transform="translate(246.378,-342)">
				<title>text2092</title>
				<desc>Riz</desc>
				<v:textBlock v:margins="rect(0,0,0,0)"/>
				<v:textRect cx="34.3108" cy="823.732" width="68.63" height="54.0669"/>
				<rect x="0" y="796.699" width="68.6216" height="54.0669" class="st2"/>
				<text x="0" y="837.25" class="st10" v:langID="1033"><v:paragraph/><v:tabList/>Riz</text>			</g>
			<g id="shape26-65" v:mID="26" v:groupContext="shape" transform="translate(177.641,-238.5)">
				<title>text2096</title>
				<desc>ライス</desc>
				<v:textBlock v:margins="rect(0,0,0,0)"/>
				<v:textRect cx="69.8587" cy="823.732" width="139.72" height="54.0669"/>
				<rect x="0" y="796.699" width="139.717" height="54.0669" class="st2"/>
				<text x="2.27" y="838.73" class="st11" v:langID="1033"><v:paragraph v:horizAlign="1"/><v:tabList/>ライス</text>			</g>
			<g id="shape27-68" v:mID="27" v:groupContext="shape" transform="translate(177.393,-134.053)">
				<title>path2100</title>
				<rect x="0" y="792.941" width="141.797" height="57.8246" class="st6"/>
			</g>
			<g id="shape28-70" v:mID="28" v:groupContext="shape" transform="translate(189,-139.433)">
				<title>text2104</title>
				<desc>Oryza</desc>
				<v:textBlock v:margins="rect(0,0,0,0)"/>
				<v:textRect cx="60.2942" cy="823.732" width="120.59" height="54.0669"/>
				<rect x="0" y="796.699" width="120.588" height="54.0669" class="st2"/>
				<text x="3.11" y="837.25" class="st10" v:langID="1033"><v:paragraph v:horizAlign="1"/><v:tabList/>Oryza</text>			</g>
			<g id="shape29-73" v:mID="29" v:groupContext="shape" transform="translate(899.736,-419.459)">
				<title>path2106</title>
				<rect x="0" y="792.941" width="188.241" height="57.8246" class="st6"/>
			</g>
			<g id="shape30-75" v:mID="30" v:groupContext="shape" transform="translate(909,-422.933)">
				<title>text2110</title>
				<desc>Specific</desc>
				<v:textBlock v:margins="rect(0,0,0,0)"/>
				<v:textRect cx="84.7066" cy="823.732" width="169.42" height="54.0669"/>
				<rect x="0" y="796.699" width="169.413" height="54.0669" class="st2"/>
				<text x="4.43" y="837.25" class="st10" v:langID="1033"><v:paragraph v:horizAlign="1"/><v:tabList/>Specific</text>			</g>
			<g id="shape31-78" v:mID="31" v:groupContext="shape" transform="translate(899.736,-310.446)">
				<title>path2112</title>
				<rect x="0" y="792.941" width="188.241" height="57.8246" class="st6"/>
			</g>
			<g id="shape32-80" v:mID="32" v:groupContext="shape" transform="translate(905.856,-310.5)">
				<title>text2116</title>
				<desc>Generic</desc>
				<v:textBlock v:margins="rect(0,0,0,0)"/>
				<v:textRect cx="88.6441" cy="823.732" width="177.29" height="54.0669"/>
				<rect x="0" y="796.699" width="177.288" height="54.0669" class="st2"/>
				<text x="12.12" y="837.25" class="st10" v:langID="1033"><v:paragraph v:horizAlign="1"/><v:tabList/>Generic</text>			</g>
			<g id="shape33-83" v:mID="33" v:groupContext="shape" transform="translate(864.66,-203.439)">
				<title>path2118</title>
				<rect x="0" y="792.941" width="258.395" height="57.8246" class="st6"/>
			</g>
			<g id="shape34-85" v:mID="34" v:groupContext="shape" transform="translate(868.5,-206.933)">
				<title>text2122</title>
				<desc>Geographic</desc>
				<v:textBlock v:margins="rect(0,0,0,0)"/>
				<v:textRect cx="121.388" cy="823.732" width="242.78" height="54.0669"/>
				<rect x="0" y="796.699" width="242.775" height="54.0669" class="st2"/>
				<text x="6.44" y="837.25" class="st10" v:langID="1033"><v:paragraph v:horizAlign="1"/><v:tabList/>Geographic</text>			</g>
			<g id="shape35-88" v:mID="35" v:groupContext="shape" transform="translate(888.112,-141.712)">
				<title>path2124</title>
				<path d="M0 792.94 L211.47 792.94 L211.47 850.77 L0 850.77 L0 792.94 Z" class="st6"/>
			</g>
			<g id="shape36-90" v:mID="36" v:groupContext="shape" transform="translate(896.964,-143.967)">
				<title>text2128</title>
				<desc>locations</desc>
				<v:textBlock v:margins="rect(0,0,0,0)"/>
				<v:textRect cx="97.5365" cy="823.732" width="195.08" height="54.0669"/>
				<rect x="0" y="796.699" width="195.073" height="54.0669" class="st2"/>
				<text x="5.46" y="837.25" class="st10" v:langID="1033"><v:paragraph v:horizAlign="1"/><v:tabList/>locations</text>			</g>
		</g>
	</g>
</svg>
