<?xml version="1.0" encoding="UTF-8" standalone="no"?>
<!DOCTYPE svg PUBLIC "-//W3C//DTD SVG 1.1//EN" "http://www.w3.org/Graphics/SVG/1.1/DTD/svg11.dtd">
<!-- Generated by Microsoft Visio, SVG Export _breeder_.svg Page-1 -->
<svg xmlns="http://www.w3.org/2000/svg" xmlns:xlink="http://www.w3.org/1999/xlink" xmlns:ev="http://www.w3.org/2001/xml-events"
		xmlns:v="http://schemas.microsoft.com/visio/2003/SVGExtensions/" width="16.5628in" height="11.7406in"
		viewBox="0 0 1192.52 845.32" xml:space="preserve" color-interpolation-filters="sRGB" class="st18">
	<v:documentProperties v:langID="1033" v:viewMarkup="false"/>

	<style type="text/css">
	<![CDATA[
		.st1 {fill:#c6ded1;stroke:none;stroke-linecap:round;stroke-linejoin:round;stroke-width:0.75}
		.st2 {stroke:none;stroke-linecap:round;stroke-linejoin:round;stroke-width:0.75}
		.st3 {fill:#000000;font-family:Merriweather;font-size:9.09835em}
		.st4 {fill:#b3d4c1;stroke:none;stroke-linecap:round;stroke-linejoin:round;stroke-width:0.75}
		.st5 {fill:#ffffff;stroke:none;stroke-linecap:round;stroke-linejoin:round;stroke-width:0.75}
		.st6 {fill:#f2e2c1;stroke:none;stroke-linecap:round;stroke-linejoin:round;stroke-width:0.75}
		.st7 {fill:#2f2f39;stroke:none;stroke-linecap:round;stroke-linejoin:round;stroke-width:0.75}
		.st8 {fill:#000000;stroke:none;stroke-linecap:round;stroke-linejoin:round;stroke-width:0.75}
		.st9 {fill:#cbcbcb;stroke:none;stroke-linecap:round;stroke-linejoin:round;stroke-width:0.75}
		.st10 {fill:#ecf4f7;stroke:none;stroke-linecap:round;stroke-linejoin:round;stroke-width:0.75}
		.st11 {fill:#2f9f4b;stroke:none;stroke-linecap:round;stroke-linejoin:round;stroke-width:0.75}
		.st12 {fill:#d2b373;stroke:none;stroke-linecap:round;stroke-linejoin:round;stroke-width:0.75}
		.st13 {fill:#ced146;fill-opacity:0.9;stroke:none;stroke-linecap:round;stroke-linejoin:round;stroke-width:0.75}
		.st14 {fill:#f4f044;stroke:none;stroke-linecap:round;stroke-linejoin:round;stroke-width:0.75}
		.st15 {fill:#7eba98;fill-opacity:0.76;stroke:none;stroke-linecap:round;stroke-linejoin:round;stroke-width:0.75}
		.st16 {fill:#c2dbce;stroke:none;stroke-linecap:round;stroke-linejoin:round;stroke-width:0.75}
		.st17 {fill:#000000;font-family:Roboto;font-size:3.85991em}
		.st18 {fill:none;fill-rule:evenodd;font-size:12px;overflow:visible;stroke-linecap:square;stroke-miterlimit:3}
	]]>
	</style>

	<g v:mID="0" v:index="1" v:groupContext="foregroundPage">
		<title>Page-1</title>
		<v:pageProperties v:drawingScale="1" v:pageScale="1" v:drawingUnits="19" v:shadowOffsetX="9" v:shadowOffsetY="-9"/>
		<g id="group52-1" v:mID="52" v:groupContext="group">
			<title>Sheet.52</title>
			<g id="shape4-2" v:mID="4" v:groupContext="shape">
				<title>Sheet.4</title>
				<path d="M0 0 L0 845.32 L1192.52 845.32 L1192.52 0 L0 0 L0 0 Z" class="st1"/>
			</g>
			<g id="shape5-4" v:mID="5" v:groupContext="shape" transform="translate(346.578,-687.316)">
				<title>Sheet.5</title>
				<desc>Breeder</desc>
				<v:textBlock v:margins="rect(0,0,0,0)"/>
				<v:textRect cx="261.903" cy="779.81" width="523.81" height="131.02"/>
				<path d="M523.81 714.3 L0 714.3 L0 845.32 L523.81 845.32 L523.81 714.3" class="st2"/>
				<text x="51.51" y="812.56" class="st3" v:langID="1033"><v:paragraph v:horizAlign="1"/><v:tabList/>Breeder</text>			</g>
			<g id="shape7-8" v:mID="7" v:groupContext="shape">
				<title>Sheet.7</title>
				<path d="M0 0 L1192.52 845.32 L0 845.32 L0 0 L0 0 Z" class="st4"/>
			</g>
			<g id="shape8-10" v:mID="8" v:groupContext="shape" transform="translate(234.57,-1.13687E-13)">
				<title>Sheet.8</title>
				<path d="M56.73 723.73 C111.8 668.73 196.06 671 248.86 723.73 C269.35 744.2 292.13 798.79 302.06 845.32 L0 845.32
							 C10.97 799.41 34.78 740.69 56.73 723.73 Z" class="st5"/>
			</g>
			<g id="shape9-12" v:mID="9" v:groupContext="shape" transform="translate(350.303,-125.852)">
				<title>Sheet.9</title>
				<path d="M0 818.57 C0 854.96 74.33 853.51 74.33 818.57 L74.33 775.14 C51.97 794.58 27.54 798.3 0 776.8 L0 818.57 Z"
						class="st6"/>
			</g>
			<g id="shape10-14" v:mID="10" v:groupContext="shape" transform="translate(279.595,-180.349)">
				<title>Sheet.10</title>
				<path d="M22.88 735.35 C34.68 700.61 44 658.01 107.35 667.73 L149.38 661.74 C172.78 663.18 185.2 707.02 193.07 728.73
							 C195.76 718.81 200.31 711.57 208.39 710.54 C212.11 726.87 214.39 743.21 197 759.54 C189.55 786.22 165.12
							 826.13 145.03 829.64 C120.19 852.59 95.35 849.29 70.71 831.3 C47.93 824.89 30.34 791.8 18.95 756.85
							 C-22.87 730.39 16.67 681.17 22.88 735.35 Z" class="st6"/>
			</g>
			<g id="shape11-16" v:mID="11" v:groupContext="shape" transform="translate(358.791,-211.588)">
				<title>Sheet.11</title>
				<path d="M0 827.18 L61.08 827.18 C61.08 852.2 0 850.54 0 827.18 Z" class="st5"/>
			</g>
			<g id="shape12-18" v:mID="12" v:groupContext="shape" transform="translate(286.122,-290.32)">
				<title>Sheet.12</title>
				<path d="M0 821.33 C2.9 759.51 46.58 710.5 103.52 710.5 C168.53 710.5 201.86 780.8 201.86 820.51 C193.99 820.71 189.44
							 827.74 186.54 838.7 C161.07 758.06 142.85 771.71 100.83 777.7 C72.46 779.77 35.61 767.78 16.36 845.32
							 C13.46 833.74 13.04 818.44 0 821.33 Z" class="st7"/>
			</g>
			<g id="shape13-20" v:mID="13" v:groupContext="shape" transform="translate(346.369,-277.913)">
				<title>Sheet.13</title>
				<path d="M0 843.05 C6.42 841.6 12.01 842.01 17.39 845.32 C22.36 826.5 0 826.71 0 843.05 Z" class="st8"/>
			</g>
			<g id="shape14-22" v:mID="14" v:groupContext="shape" transform="translate(410.451,-277.913)">
				<title>Sheet.14</title>
				<path d="M18.11 843.05 C11.69 841.6 6.1 842.01 0.72 845.32 C-4.25 826.5 18.11 826.71 18.11 843.05 Z" class="st8"/>
			</g>
			<g id="shape15-24" v:mID="15" v:groupContext="shape" transform="translate(322.767,-81.2649)">
				<title>Sheet.15</title>
				<path d="M26.91 796.11 L0 781.01 C8.28 776.46 16.77 772.95 25.47 770.26 C30.85 810.58 97.72 810.17 102.69 770.26
							 C111.59 772.95 120.08 776.67 128.36 781.01 L102.28 796.11 L121.12 807.48 L64.59 845.32 L8.28 807.48
							 L26.91 796.11 Z" class="st9"/>
			</g>
			<g id="shape16-26" v:mID="16" v:groupContext="shape" transform="translate(540.982,-87.0547)">
				<title>Sheet.16</title>
				<path d="M8.07 430.72 C3.73 430.72 0 433.83 0 437.96 L0 445.41 C0 449.54 3.73 452.85 8.07 452.85 L112.01 452.85 C116.56
							 452.85 120.08 449.54 120.08 445.41 L120.08 437.96 C120.08 433.83 116.56 430.72 112.01 430.72 L8.07 430.72
							 ZM10.77 461.12 L10.77 799.21 C10.77 824.85 31.88 845.32 57.97 845.32 C84.26 845.32 105.38 824.85 105.38
							 799.21 L105.38 461.12 L10.77 461.12 Z" class="st10"/>
			</g>
			<g id="shape17-28" v:mID="17" v:groupContext="shape" transform="translate(690.668,-87.0547)">
				<title>Sheet.17</title>
				<path d="M8.07 430.72 C3.52 430.72 0 433.83 0 437.96 L0 445.41 C0 449.54 3.52 452.85 8.07 452.85 L112.01 452.85 C116.56
							 452.85 120.08 449.54 120.08 445.41 L120.08 437.96 C120.08 433.83 116.56 430.72 112.01 430.72 L8.07 430.72
							 ZM10.77 461.12 L10.77 799.21 C10.77 824.85 31.88 845.32 57.97 845.32 C84.26 845.32 105.38 824.85 105.38
							 799.21 L105.38 461.12 L10.77 461.12 Z" class="st10"/>
			</g>
			<g id="shape18-30" v:mID="18" v:groupContext="shape" transform="translate(741.841,-194.259)">
				<title>Sheet.18</title>
				<path d="M11.56 843.34 C10.94 845.21 15.49 846.86 15.49 843.34 C5.97 628.09 9.7 487.47 69.94 420.89 C95.82 417.58
							 103.69 432.06 111.76 446.74 C115.7 444.88 116.73 441.57 111.97 434.75 C118.39 440.54 127.7 443.22 121.49
							 430.61 C112.38 414.07 99.34 402.9 81.54 397.73 C62.9 406.42 55.24 420.06 47.58 433.71 C-2.52 497.61
							 -10.39 628.5 11.56 843.34 Z" class="st11"/>
			</g>
			<g id="shape19-32" v:mID="19" v:groupContext="shape" transform="translate(781.763,-603.387)">
				<title>Sheet.19</title>
				<path d="M49.48 845.32 C47.41 845.32 44.51 843.25 43.27 840.36 C42.86 839.74 42.24 840.15 41.82 839.74 C41.2 842.01
							 39.75 842.84 38.3 839.74 C37.06 840.56 35.2 841.8 34.99 839.94 C35.4 842.01 34.16 842.63 32.5 842.43
							 L28.36 825.26 C27.54 835.6 21.53 830.64 18.01 826.09 C14.29 831.67 10.56 833.74 7.04 829.19 C3.73 831.05
							 1.04 831.47 0 826.09 C1.04 817.61 1.45 808.72 4.55 800.45 C6.83 799.41 9.52 799.62 10.77 796.11 C14.08
							 792.38 16.98 790.11 18.22 797.14 C21.32 797.14 24.43 795.69 27.12 797.76 C32.3 793.42 34.37 795.49 34.99
							 800.04 C37.89 797.55 39.96 793.62 44.51 796.11 C46.38 794.45 49.07 796.11 51.55 797.14 L48.24 821.95
							 C47 823.19 46.17 823.4 45.34 822.57 L43.48 811.61 L40.99 815.96 C44.31 817.4 45.13 819.27 42.65 821.13
							 L49.07 828.78 C51.34 826.09 54.86 826.3 59.21 828.16 L59.83 826.09 L52.59 823.19 C50.52 823.61 49.07
							 822.99 49.69 819.68 C49.27 814.3 50.31 809.34 53.62 805.41 C58.59 801.48 59.83 803.55 60.25 807.27 C66.04
							 805.2 71.84 803.76 77.64 804.38 C81.36 807.27 78.26 810.58 77.02 813.89 C80.54 814.72 79.29 817.61 78.88
							 820.09 C83.85 819.68 88.2 821.54 92.75 824.23 C106.83 827.95 102.69 838.29 91.1 835.19 C88.61 837.67
							 88.4 841.6 80.95 840.56 C75.77 839.74 73.08 837.67 72.46 834.57 C73.08 837.88 67.7 834.98 65.01 834.98
							 L68.53 839.12 C71.63 842.01 70.18 845.11 67.29 845.11 C61.9 845.32 57.14 842.63 52.17 840.77 C52.17
							 843.87 51.14 845.32 49.48 845.32 ZM24.02 818.03 L27.33 815.13 L27.74 813.27 C29.81 812.24 32.3 812.44
							 34.78 812.86 L34.78 811.41 C33.33 812.24 31.68 811.2 30.02 809.34 C25.47 808.51 23.19 807.07 20.29 805.62
							 L18.22 813.68 C23.19 811.82 23.81 814.72 24.02 818.03 Z" class="st12"/>
			</g>
			<g id="shape20-34" v:mID="20" v:groupContext="shape" transform="translate(592.362,-194.259)">
				<title>Sheet.20</title>
				<path d="M11.56 843.34 C10.94 845.21 15.49 846.86 15.49 843.34 C5.97 628.09 9.7 487.47 69.94 420.89 C95.82 417.58
							 103.69 432.06 111.76 446.74 C115.7 444.88 116.73 441.57 111.97 434.75 C118.39 440.54 127.7 443.22 121.29
							 430.61 C112.38 414.07 99.34 402.9 81.54 397.73 C62.9 406.42 55.24 420.06 47.58 433.71 C-2.52 497.61
							 -10.39 628.5 11.56 843.34 Z" class="st11"/>
			</g>
			<g id="shape21-36" v:mID="21" v:groupContext="shape" transform="translate(610.339,-579.736)">
				<title>Sheet.21</title>
				<path d="M60.04 781.14 C57.56 781.14 54.24 783.62 52.59 787.34 C51.97 787.96 51.34 787.34 50.93 787.96 C50.31 785.28
							 48.45 784.24 46.58 787.96 C45.13 787.14 42.65 785.48 42.65 787.76 C42.86 785.07 41.61 784.45 39.54 784.86
							 L34.57 805.75 C33.54 792.93 26.29 798.92 21.95 804.71 C17.39 797.68 12.84 795.2 8.7 800.99 C4.55 798.51
							 1.24 798.1 0 804.51 C1.45 815.05 1.66 825.6 5.59 835.73 C8.28 836.97 11.59 836.76 13.25 840.9 C16.98
							 845.66 20.5 848.34 22.15 839.66 C25.88 839.66 29.81 841.52 33.13 839.04 C39.34 844.42 41.61 841.93 42.65
							 836.14 C45.96 839.25 48.65 844 54.24 840.9 C56.31 842.97 59.63 841.11 62.73 839.66 L58.59 809.68 C57.35
							 808.23 56.11 807.82 55.07 809.06 L53 822.29 L49.9 817.12 C53.83 815.05 54.86 812.98 51.76 810.71 L59.63
							 801.41 C62.52 804.51 66.87 804.3 71.84 802.03 L72.88 804.51 L63.97 808.02 C61.28 807.61 59.63 808.23
							 60.25 812.36 C60.04 818.98 61.08 824.98 65.22 829.73 C71.22 834.49 72.88 832.01 73.29 827.46 C80.33
							 829.94 87.37 831.6 94.41 830.97 C98.76 827.46 95.03 823.32 93.79 819.39 C97.93 818.36 96.48 814.85 95.86
							 811.74 C101.86 812.36 107.24 810.3 112.63 806.78 C129.81 802.23 124.84 789.83 110.76 793.55 C107.66
							 790.65 107.66 785.9 98.55 786.93 C92.13 787.96 88.82 790.45 87.99 794.37 C89.02 790.24 82.19 793.75
							 79.09 793.75 L83.23 788.79 C86.95 785.07 85.3 781.55 81.78 781.55 C75.15 781.35 69.36 784.45 63.35 786.72
							 C63.56 783 62.11 781.35 60.04 781.14 ZM29.19 814.23 L33.33 817.95 L33.75 820.22 C36.44 821.26 39.34
							 821.05 42.24 820.64 L42.24 822.29 C40.58 821.46 38.51 822.5 36.44 824.77 C31.06 826.01 28.16 827.87
							 24.64 829.53 L22.15 819.6 C28.16 821.88 28.98 818.57 29.19 814.23 Z" class="st12"/>
			</g>
			<g id="shape22-38" v:mID="22" v:groupContext="shape" transform="translate(568.518,-101.529)">
				<title>Sheet.22</title>
				<path d="M61.08 546.94 L61.08 815.34 C61.08 831.88 47.41 845.32 30.43 845.32 C13.66 845.32 -0 831.88 0 815.34 L0
							 546.94 L61.08 546.94 Z" class="st13"/>
			</g>
			<g id="shape23-40" v:mID="23" v:groupContext="shape" transform="translate(585.702,-245.449)">
				<title>Sheet.23</title>
				<path d="M27.95 720.84 C24.43 720.84 21.53 723.73 21.53 727.25 C21.53 727.25 21.53 727.25 21.53 727.25 C21.53 730.76
							 24.43 733.66 27.95 733.66 C31.68 733.66 34.37 730.76 34.37 727.25 C34.37 727.25 34.37 727.25 34.37 727.25
							 C34.37 723.73 31.68 720.84 27.95 720.84 C27.95 720.84 27.95 720.84 27.95 720.84 ZM3.52 758.47 C1.66
							 758.47 0 760.13 0 762.19 C-0 764.06 1.66 765.71 3.52 765.71 C5.59 765.71 7.25 764.06 7.25 762.19 C7.25
							 760.13 5.59 758.47 3.52 758.47 ZM13.66 794.45 C11.59 794.45 9.94 796.11 9.94 798.17 C9.94 800.04 11.59
							 801.69 13.66 801.69 C15.53 801.69 17.18 800.04 17.18 798.17 C17.18 796.11 15.53 794.45 13.66 794.45
							 C13.66 794.45 13.66 794.45 13.66 794.45 ZM23.39 832.5 C19.67 832.5 16.98 835.39 16.98 838.91 C16.98
							 842.63 19.67 845.32 23.39 845.32 C26.91 845.32 29.81 842.63 29.81 838.91 C29.81 835.39 26.91 832.5 23.39
							 832.5 Z" class="st14"/>
			</g>
			<g id="shape24-42" v:mID="24" v:groupContext="shape" transform="translate(718.204,-101.529)">
				<title>Sheet.24</title>
				<path d="M61.08 546.94 L61.08 815.34 C61.08 831.88 47.41 845.32 30.43 845.32 C13.66 845.32 -0 831.88 0 815.34 L0
							 546.94 L61.08 546.94 Z" class="st15"/>
			</g>
			<g id="shape25-44" v:mID="25" v:groupContext="shape" transform="translate(735.388,-245.449)">
				<title>Sheet.25</title>
				<path d="M27.95 720.84 C24.43 720.84 21.53 723.73 21.53 727.25 C21.53 727.25 21.53 727.25 21.53 727.25 C21.53 730.76
							 24.43 733.66 27.95 733.66 C31.47 733.66 34.37 730.76 34.37 727.25 C34.37 727.25 34.37 727.25 34.37 727.25
							 C34.37 723.73 31.47 720.84 27.95 720.84 C27.95 720.84 27.95 720.84 27.95 720.84 ZM3.52 758.47 C1.66
							 758.47 0 760.13 0 762.19 C-0 764.06 1.66 765.71 3.52 765.71 C5.59 765.71 7.25 764.06 7.25 762.19 C7.25
							 760.13 5.59 758.47 3.52 758.47 ZM13.66 794.45 C11.59 794.45 9.94 796.11 9.94 798.17 C9.94 800.04 11.59
							 801.69 13.66 801.69 C15.53 801.69 17.18 800.04 17.18 798.17 C17.18 796.11 15.53 794.45 13.66 794.45
							 C13.66 794.45 13.66 794.45 13.66 794.45 ZM23.19 832.5 C19.67 832.5 16.77 835.39 16.77 838.91 C16.77
							 842.63 19.67 845.32 23.19 845.32 C26.91 845.32 29.61 842.63 29.61 838.91 C29.61 835.39 26.91 832.5 23.19
							 832.5 Z" class="st16"/>
			</g>
			<g id="shape26-46" v:mID="26" v:groupContext="shape" transform="translate(60.8682,-490.071)">
				<title>Sheet.26</title>
				<path d="M0 787.63 L0 845.32 L231.46 845.32 L231.46 787.63 L0 787.63 L0 787.63 Z" class="st5"/>
			</g>
			<g id="shape27-48" v:mID="27" v:groupContext="shape" transform="translate(88.4039,-380.89)">
				<title>Sheet.27</title>
				<path d="M0 787.42 L0 845.32 L176.39 845.32 L176.39 787.42 L0 787.42 L0 787.42 Z" class="st5"/>
			</g>
			<g id="shape28-50" v:mID="28" v:groupContext="shape" transform="translate(121.736,-320.51)">
				<title>Sheet.28</title>
				<path d="M0 787.63 L0 845.32 L109.73 845.32 L109.73 787.63 L0 787.63 L0 787.63 Z" class="st5"/>
			</g>
			<g id="shape29-52" v:mID="29" v:groupContext="shape" transform="translate(57.8767,-491.033)">
				<title>Sheet.29</title>
				<desc>conditions</desc>
				<v:textBlock v:margins="rect(0,0,0,0)"/>
				<v:textRect cx="118.604" cy="817.527" width="237.21" height="55.5866"/>
				<path d="M237.21 789.73 L0 789.73 L0 845.32 L237.21 845.32 L237.21 789.73" class="st2"/>
				<text x="10.7" y="831.42" class="st17" v:langID="1033"><v:paragraph v:horizAlign="1"/><v:tabList/>conditions</text>			</g>
			<g id="shape31-56" v:mID="31" v:groupContext="shape" transform="translate(90.9804,-382.239)">
				<title>Sheet.31</title>
				<desc>Climate</desc>
				<v:textBlock v:margins="rect(0,0,0,0)"/>
				<v:textRect cx="84.5189" cy="817.527" width="169.04" height="55.5866"/>
				<path d="M169.04 789.73 L0 789.73 L0 845.32 L169.04 845.32 L169.04 789.73" class="st2"/>
				<text x="5.47" y="831.42" class="st17" v:langID="1033"><v:paragraph v:horizAlign="1"/><v:tabList/>Climate</text>			</g>
			<g id="shape33-60" v:mID="33" v:groupContext="shape" transform="translate(121.781,-320.033)">
				<title>Sheet.33</title>
				<desc>data</desc>
				<v:textBlock v:margins="rect(0,0,0,0)"/>
				<v:textRect cx="54.3496" cy="817.527" width="108.7" height="55.5866"/>
				<path d="M108.7 789.73 L0 789.73 L0 845.32 L108.7 845.32 L108.7 789.73" class="st2"/>
				<text x="8.53" y="831.42" class="st17" v:langID="1033"><v:paragraph v:horizAlign="1"/><v:tabList/>data</text>			</g>
			<g id="shape34-64" v:mID="34" v:groupContext="shape" transform="translate(810.541,-553.139)">
				<title>Sheet.34</title>
				<path d="M0 787.63 L0 845.32 L248.23 845.32 L248.23 787.63 L0 787.63 L0 787.63 Z" class="st5"/>
			</g>
			<g id="shape35-66" v:mID="35" v:groupContext="shape" transform="translate(813.23,-554.826)">
				<title>Sheet.35</title>
				<desc>Phenotype</desc>
				<v:textBlock v:margins="rect(0,0,0,0)"/>
				<v:textRect cx="121.219" cy="817.527" width="242.44" height="55.5866"/>
				<path d="M242.44 789.73 L0 789.73 L0 845.32 L242.44 845.32 L242.44 789.73" class="st2"/>
				<text x="11.81" y="831.42" class="st17" v:langID="1033"><v:paragraph v:horizAlign="1"/><v:tabList/>Phenotype</text>			</g>
			<g id="shape37-70" v:mID="37" v:groupContext="shape" transform="translate(871.203,-491.725)">
				<title>Sheet.37</title>
				<path d="M0 787.63 L0 845.32 L126.91 845.32 L126.91 787.63 L0 787.63 L0 787.63 Z" class="st5"/>
			</g>
			<g id="shape38-72" v:mID="38" v:groupContext="shape" transform="translate(878.48,-491.826)">
				<title>Sheet.38</title>
				<desc>trait</desc>
				<v:textBlock v:margins="rect(0,0,0,0)"/>
				<v:textRect cx="55.688" cy="817.527" width="111.38" height="55.5866"/>
				<path d="M111.38 789.73 L0 789.73 L0 845.32 L111.38 845.32 L111.38 789.73" class="st2"/>
				<text x="14.5" y="831.42" class="st17" v:langID="1033"><v:paragraph v:horizAlign="1"/><v:tabList/>trait</text>			</g>
			<g id="shape39-76" v:mID="39" v:groupContext="shape" transform="translate(914.68,-389.368)">
				<title>Sheet.39</title>
				<path d="M0 787.42 L0 845.32 L182.81 845.32 L182.81 787.42 L0 787.42 L0 787.42 Z" class="st5"/>
			</g>
			<g id="shape40-78" v:mID="40" v:groupContext="shape" transform="translate(917.412,-391.239)">
				<title>Sheet.40</title>
				<desc>Disease</desc>
				<v:textBlock v:margins="rect(0,0,0,0)"/>
				<v:textRect cx="87.0679" cy="817.527" width="174.14" height="55.5866"/>
				<path d="M174.14 789.73 L0 789.73 L0 845.32 L174.14 845.32 L174.14 789.73" class="st2"/>
				<text x="5.24" y="831.42" class="st17" v:langID="1033"><v:paragraph v:horizAlign="1"/><v:tabList/>Disease</text>			</g>
			<g id="shape42-82" v:mID="42" v:groupContext="shape" transform="translate(871.203,-326.921)">
				<title>Sheet.42</title>
				<path d="M0 787.63 L0 845.32 L226.29 845.32 L226.29 787.63 L0 787.63 L0 787.63 Z" class="st5"/>
			</g>
			<g id="shape43-84" v:mID="43" v:groupContext="shape" transform="translate(873.98,-329.033)">
				<title>Sheet.43</title>
				<desc>resistance</desc>
				<v:textBlock v:margins="rect(0,0,0,0)"/>
				<v:textRect cx="110.25" cy="817.527" width="220.5" height="55.5866"/>
				<path d="M220.5 789.73 L0 789.73 L0 845.32 L220.5 845.32 L220.5 789.73" class="st2"/>
				<text x="3.31" y="831.42" class="st17" v:langID="1033"><v:paragraph v:horizAlign="1"/><v:tabList/>resistance</text>			</g>
			<g id="shape45-88" v:mID="45" v:groupContext="shape" transform="translate(760.025,-225.184)">
				<title>Sheet.45</title>
				<path d="M0 787.63 L0 845.32 L340.99 845.32 L340.99 787.63 L0 787.63 L0 787.63 Z" class="st5"/>
			</g>
			<g id="shape46-90" v:mID="46" v:groupContext="shape" transform="translate(765.98,-224.739)">
				<title>Sheet.46</title>
				<desc>Protein content</desc>
				<v:textBlock v:margins="rect(0,0,0,0)"/>
				<v:textRect cx="164.25" cy="817.527" width="328.5" height="55.5866"/>
				<path d="M328.5 789.73 L0 789.73 L0 845.32 L328.5 845.32 L328.5 789.73" class="st2"/>
				<text x="6.34" y="831.42" class="st17" v:langID="1033"><v:paragraph v:horizAlign="1"/><v:tabList/>Protein content</text>			</g>
			<g id="shape47-94" v:mID="47" v:groupContext="shape" transform="translate(968.302,-119.313)">
				<title>Sheet.47</title>
				<path d="M0 787.42 L0 845.32 L132.71 845.32 L132.71 787.42 L0 787.42 L0 787.42 Z" class="st5"/>
			</g>
			<g id="shape48-96" v:mID="48" v:groupContext="shape" transform="translate(984.363,-121.239)">
				<title>Sheet.48</title>
				<desc>Yield</desc>
				<v:textBlock v:margins="rect(0,0,0,0)"/>
				<v:textRect cx="51.6172" cy="817.527" width="103.24" height="55.5866"/>
				<path d="M103.23 789.73 L0 789.73 L0 845.32 L103.23 845.32 L103.23 789.73" class="st2"/>
				<text x="1.14" y="831.42" class="st17" v:langID="1033"><v:paragraph v:horizAlign="1"/><v:tabList/>Yield</text>			</g>
			<g id="shape50-100" v:mID="50" v:groupContext="shape" transform="translate(74.3255,-549.83)">
				<title>Sheet.50</title>
				<path d="M0 787.63 L0 845.32 L204.55 845.32 L204.55 787.63 L0 787.63 L0 787.63 Z" class="st5"/>
			</g>
			<g id="shape51-102" v:mID="51" v:groupContext="shape" transform="translate(70.1789,-550.408)">
				<title>Sheet.51</title>
				<desc>Growing</desc>
				<v:textBlock v:margins="rect(0,0,0,0)"/>
				<v:textRect cx="106.302" cy="817.527" width="212.61" height="55.5866"/>
				<path d="M212.6 789.73 L0 789.73 L0 845.32 L212.6 845.32 L212.6 789.73" class="st2"/>
				<text x="20.69" y="831.42" class="st17" v:langID="1033"><v:paragraph v:horizAlign="1"/><v:tabList/>Growing</text>			</g>
		</g>
	</g>
</svg>
