<?xml version="1.0" encoding="UTF-8" standalone="no"?>
<!DOCTYPE svg PUBLIC "-//W3C//DTD SVG 1.1//EN" "http://www.w3.org/Graphics/SVG/1.1/DTD/svg11.dtd">
<!-- Generated by Microsoft Visio, SVG Export _chef_.svg Page-1 -->
<svg xmlns="http://www.w3.org/2000/svg" xmlns:xlink="http://www.w3.org/1999/xlink" xmlns:ev="http://www.w3.org/2001/xml-events"
		xmlns:v="http://schemas.microsoft.com/visio/2003/SVGExtensions/" width="16.7022in" height="11.8162in"
		viewBox="0 0 1202.56 850.766" xml:space="preserve" color-interpolation-filters="sRGB" class="st13">
	<v:documentProperties v:langID="1033" v:viewMarkup="false"/>

	<style type="text/css">
	<![CDATA[
		.st1 {fill:#867dbc;stroke:none;stroke-linecap:butt;stroke-width:2.25279}
		.st2 {fill:#7f77b2;stroke:none;stroke-linecap:butt;stroke-width:2.25279}
		.st3 {fill:none;stroke:none;stroke-linecap:butt;stroke-width:0.75}
		.st4 {fill:#000000;font-family:Merriweather;font-size:9.01115em}
		.st5 {fill:#763517;stroke:none;stroke-linecap:butt;stroke-width:2.25279}
		.st6 {fill:#dba171;stroke:none;stroke-linecap:butt;stroke-width:2.25279}
		.st7 {fill:#87331b;stroke:none;stroke-linecap:butt;stroke-width:2.25279}
		.st8 {fill:#cb5b2d;stroke:none;stroke-linecap:butt;stroke-width:2.25279}
		.st9 {fill:#ffffff;stroke:none;stroke-linecap:butt;stroke-width:2.25279}
		.st10 {fill:#74b341}
		.st11 {stroke:none;stroke-linecap:butt;stroke-width:2.25279}
		.st12 {fill:#000000;font-family:Roboto;font-size:3.75465em}
		.st13 {fill:none;fill-rule:evenodd;font-size:12px;overflow:visible;stroke-linecap:square;stroke-miterlimit:3}
	]]>
	</style>

	<g v:mID="0" v:index="1" v:groupContext="foregroundPage">
		<title>Page-1</title>
		<v:pageProperties v:drawingScale="1" v:pageScale="1" v:drawingUnits="19" v:shadowOffsetX="9" v:shadowOffsetY="-9"/>
		<g id="group31-1" transform="translate(2.25279,-2.25279)" v:mID="31" v:groupContext="group">
			<title>Sheet.31</title>
			<g id="shape1-2" v:mID="1" v:groupContext="shape">
				<title>path394</title>
				<rect x="0" y="4.50558" width="1193.55" height="846.26" class="st1"/>
			</g>
			<g id="shape2-4" v:mID="2" v:groupContext="shape" transform="translate(4.49999,0)">
				<title>path396</title>
				<path d="M0 4.51 L1193.55 850.77 L0 850.77 L0 4.51 Z" class="st2"/>
			</g>
			<g id="shape3-6" v:mID="3" v:groupContext="shape" transform="translate(364.5,-648.558)">
				<title>text442</title>
				<desc>Chef</desc>
				<v:textBlock v:margins="rect(0,0,0,0)"/>
				<v:textRect cx="216.293" cy="785.885" width="432.59" height="129.761"/>
				<rect x="0" y="721.005" width="432.585" height="129.761" class="st3"/>
				<text x="94.32" y="818.33" class="st4" v:langID="1033"><v:paragraph v:horizAlign="1"/><v:tabList/>Chef</text>			</g>
			<g id="shape4-9" v:mID="4" v:groupContext="shape" transform="translate(277.003,-110.914)">
				<title>path1020</title>
				<path d="M3.98 655.86 C3.98 699.9 0 780.3 56.76 811.51 C96.12 834.23 107.63 850.77 302.6 850.16 C494.98 850.16 526.75
							 831.13 575.53 782.34 C623.61 734.26 622.43 699.19 622.43 655.86 L3.98 655.86 Z" class="st5"/>
			</g>
			<g id="shape5-11" v:mID="5" v:groupContext="shape" transform="translate(265.963,-241.289)">
				<title>path1022</title>
				<path d="M113.22 518.61 L523.79 518.61 C566.48 518.61 592.48 556.05 600.85 600.55 L630.96 760.62 C639.33 805.12 627.59
							 841.68 566.8 842.56 L109.98 849.17 C0 850.77 14.37 786.31 17.38 760.62 L36.17 600.55 C42.74 544.66 70.54
							 518.61 113.23 518.61 L113.22 518.61 Z" class="st6"/>
			</g>
			<g id="shape6-13" v:mID="6" v:groupContext="shape" transform="translate(294.231,-269.03)">
				<title>path1024</title>
				<path d="M101.67 565.95 L479.82 565.95 C519.14 565.95 543.08 598.16 550.79 636.44 L578.53 774.15 C586.24 812.43 591.93
							 844.21 552.61 844.64 L39.32 850.33 C0 850.77 8.53 812.9 13.4 774.15 L30.71 636.44 C36.75 588.36 62.36
							 565.95 101.68 565.95 L101.67 565.95 Z" class="st7"/>
			</g>
			<g id="shape7-15" v:mID="7" v:groupContext="shape" transform="translate(383.475,-324.762)">
				<title>path1190</title>
				<path d="M11.28 657.05 L391.66 657.05 C397.91 657.05 402.93 661.64 402.93 667.33 L402.93 840.48 C402.93 846.18 397.91
							 850.77 391.66 850.77 L11.28 850.77 C5.03 850.77 0 846.18 0 840.48 L0 667.33 C0 661.64 5.03 657.05 11.28
							 657.05 Z" class="st8"/>
			</g>
			<g id="shape8-17" v:mID="8" v:groupContext="shape" transform="translate(309.308,-271.338)">
				<title>path1192</title>
				<path d="M242.76 566 A30.3406 9.11095 -95.83 0 0 236.33 590.43 A30.1108 9.18034 -142.19 0 0 234.14 590.01 A30.318
							 9.11794 -105.49 0 0 221.28 574.86 A30.318 9.11794 -105.49 0 0 220.63 606.57 A30.318 9.11794 -105.49
							 0 0 224.74 618.34 A30.2009 9.15286 -51.91 0 0 224.61 618.79 A29.9959 9.21571 -165.91 0 0 224.15 618.67
							 A29.9959 9.21571 -165.91 0 0 220.48 617.83 A30.1333 9.17403 -138.86 0 0 219.84 616.95 A30.318 9.11794
							 -105.49 0 0 216.77 599.69 A30.318 9.11794 -105.49 0 0 199.89 572.98 A30.318 9.11794 -105.49 0 0 197.23
							 595.93 A30.1333 9.17403 -138.86 0 0 186.34 590.43 A30.318 9.11794 -105.49 0 0 172.91 573.92 A30.318
							 9.11794 -105.49 0 0 169.13 587.08 A30.318 9.11794 -105.49 0 0 170.23 600.52 A30.318 9.11794 -105.49
							 0 0 169.14 611 A29.9959 9.21571 -165.91 0 0 154.11 603.82 A30.2009 9.15286 -51.91 0 0 161.03 589.24
							 A30.1311 9.17426 -40.97 0 0 167.52 573.04 A30.1311 9.17426 -40.97 0 0 138.82 585.76 A30.1311 9.17426
							 -40.97 0 0 135.74 588.57 A30.3406 9.11095 -95.83 0 0 125.47 570.81 A30.3406 9.11095 -95.83 0 0 119.35
							 600.29 A29.9959 9.21571 -165.91 0 0 117.45 601.17 A30.318 9.11794 -105.49 0 0 103.14 582.4 A30.318 9.11794
							 -105.49 0 0 100.02 586.82 L99.94 586.63 A30.2009 9.15286 -51.91 0 0 99.77 577.25 A30.2009 9.15286 -51.91
							 0 0 94.76 577.15 A30.318 9.11794 -105.49 0 0 87.33 572.04 A30.318 9.11794 -105.49 0 0 85.24 573.85 A30.318
							 9.11794 -105.49 0 0 84.54 573.93 A30.318 9.11794 -105.49 0 0 81.4 578.44 A30.1108 9.18034 -142.19 0
							 0 64.19 575.28 A30.1108 9.18034 -142.19 0 0 73.3 592.94 A30.318 9.11794 -105.49 0 0 73.3 596.15 A30.2009
							 9.15286 -51.91 0 0 64.47 610.15 A30.318 9.11794 -105.49 0 0 58.49 606.88 A30.318 9.11794 -105.49 0 0
							 55.07 624.74 A30.318 9.11794 -105.49 0 0 53.84 624.78 A30.318 9.11794 -105.49 0 0 50.23 631.96 A30.1108
							 9.18034 -142.19 0 0 26.98 625.2 A30.1108 9.18034 -142.19 0 0 37.65 644.39 A30.2009 9.15286 -51.91 0
							 0 32.37 650.54 A30.2009 9.15286 -51.91 0 0 31.87 651.2 A30.3406 9.11095 -95.83 0 0 27.86 648.88 A30.3406
							 9.11095 -95.83 0 0 21.4 668.68 A30.2009 9.15286 -51.91 0 0 20.84 680.03 A30.2009 9.15286 -51.91 0 0
							 21.56 680.43 A30.2009 9.15286 -51.91 0 0 10.36 709.5 A30.2009 9.15286 -51.91 0 0 26.96 701.58 A30.3406
							 9.11095 -95.83 0 0 28.33 704.4 A30.2009 9.15286 -51.91 0 0 22.51 711.14 A30.2009 9.15286 -51.91 0 0
							 10.97 740.63 A30.2009 9.15286 -51.91 0 0 34.66 725.21 A30.1108 9.18034 -142.19 0 0 37.31 727.84 A30.1311
							 9.17426 -40.97 0 0 33.7 730.8 A30.1311 9.17426 -40.97 0 0 17.54 750.02 A30.1108 9.18034 -142.19 0 0
							 -0 746.69 A30.1108 9.18034 -142.19 0 0 18.28 772.44 A30.1108 9.18034 -142.19 0 0 27.51 778.76 A30.318
							 9.11794 -105.49 0 0 29.93 806.23 A30.318 9.11794 -105.49 0 0 46.81 832.94 A30.318 9.11794 -105.49 0
							 0 47.47 801.23 A30.318 9.11794 -105.49 0 0 41.04 784.6 A30.1108 9.18034 -142.19 0 0 47.62 783.55 A30.1108
							 9.18034 -142.19 0 0 29.34 757.79 A30.1108 9.18034 -142.19 0 0 27.83 756.64 A30.1311 9.17426 -40.97 0
							 0 45.55 744.82 A30.1311 9.17426 -40.97 0 0 51.08 739.62 A30.318 9.11794 -105.49 0 0 51.47 743.42 A30.318
							 9.11794 -105.49 0 0 49.27 758 A30.318 9.11794 -105.49 0 0 50.39 788.33 A30.318 9.11794 -105.49 0 0 51.78
							 792.91 A30.3406 9.11095 -95.83 0 0 51.58 812.9 A30.3406 9.11095 -95.83 0 0 63.73 842.13 A30.3406 9.11095
							 -95.83 0 0 69.82 812.32 A30.318 9.11794 -105.49 0 0 70.92 799.54 A30.318 9.11794 -105.49 0 0 71.76 798.03
							 A30.1108 9.18034 -142.19 0 0 86.05 813.22 A30.2009 9.15286 -51.91 0 0 83.29 816.56 A30.2009 9.15286
							 -51.91 0 0 71.75 846.05 A30.2009 9.15286 -51.91 0 0 92.25 834.22 A30.3406 9.11095 -95.83 0 0 100.2 844.06
							 A30.3406 9.11095 -95.83 0 0 106.61 825.74 A30.1108 9.18034 -142.19 0 0 117.07 826.24 A30.318 9.11794
							 -105.49 0 0 120.99 830.73 A30.3451 9.10983 -90.37 0 0 129.68 850.77 A30.3451 9.10983 -90.37 0 0 133.37
							 848.08 A30.2009 9.15286 -51.91 0 0 156.71 832.66 A30.1671 9.16367 -133.6 0 0 183.25 847.21 A30.1671
							 9.16367 -133.6 0 0 170.24 820.35 A30.1311 9.17426 -40.97 0 0 172.29 818.42 A29.9959 9.21571 -165.91
							 0 0 175.73 819.04 A30.1333 9.17403 -138.86 0 0 182.33 825.37 A30.1333 9.17403 -138.86 0 0 206.98 839.33
							 A30.1311 9.17426 -40.97 0 0 207.56 843.23 A30.1311 9.17426 -40.97 0 0 234.98 831.58 A30.1108 9.18034
							 -142.19 0 0 247.63 832.52 A30.1108 9.18034 -142.19 0 0 244.73 822.17 A30.1311 9.17426 -40.97 0 0 246.21
							 820.47 A30.2009 9.15286 -51.91 0 0 247.75 820.62 A30.1333 9.17403 -138.86 0 0 259.29 832.7 A30.1333
							 9.17403 -138.86 0 0 287.96 845.5 A30.1333 9.17403 -138.86 0 0 287.2 837.85 A30.1311 9.17426 -40.97 0
							 0 299.36 831.43 A30.1333 9.17403 -138.86 0 0 308.34 831.51 A30.1333 9.17403 -138.86 0 0 308.01 824.75
							 A30.1311 9.17426 -40.97 0 0 310.69 822.32 A30.1311 9.17426 -40.97 0 0 309.88 830.05 A30.1311 9.17426
							 -40.97 0 0 323.66 827.79 A30.1671 9.16367 -133.6 0 0 343.25 835.91 A30.1671 9.16367 -133.6 0 0 339.46
							 820.91 A30.2009 9.15286 -51.91 0 0 347.24 816.46 A30.1108 9.18034 -142.19 0 0 352.04 821.36 A30.3406
							 9.11095 -95.83 0 0 363.28 844.02 A30.3406 9.11095 -95.83 0 0 368.88 833.89 A30.1108 9.18034 -142.19
							 0 0 388.1 838.17 A30.1108 9.18034 -142.19 0 0 388.13 833.19 A30.2009 9.15286 -51.91 0 0 396.4 825.84
							 A30.1311 9.17426 -40.97 0 0 395.47 833.82 A30.1311 9.17426 -40.97 0 0 404.91 833.57 A30.1108 9.18034
							 -142.19 0 0 406.2 834.6 A30.1108 9.18034 -142.19 0 0 435.54 845.7 A30.1108 9.18034 -142.19 0 0 421.43
							 823.37 A30.1311 9.17426 -40.97 0 0 421.82 823.06 A30.1333 9.17403 -138.86 0 0 429.01 830.03 A30.1333
							 9.17403 -138.86 0 0 457.67 842.84 A30.1333 9.17403 -138.86 0 0 453.53 829.62 A30.1671 9.16367 -133.6
							 0 0 453.96 829.32 A30.1671 9.16367 -133.6 0 0 454.92 825.53 A30.1108 9.18034 -142.19 0 0 475.54 830.64
							 A30.1108 9.18034 -142.19 0 0 461.53 808.38 A30.1311 9.17426 -40.97 0 0 463.16 807.98 A30.1671 9.16367
							 -133.6 0 0 482.79 816.13 A30.1671 9.16367 -133.6 0 0 478.16 799.86 A30.1311 9.17426 -40.97 0 0 480.97
							 797.73 A30.1108 9.18034 -142.19 0 0 495.51 812 A30.1108 9.18034 -142.19 0 0 496.31 812.61 A30.2009 9.15286
							 -51.91 0 0 495.39 813.74 A30.2009 9.15286 -51.91 0 0 483.86 843.23 A30.2009 9.15286 -51.91 0 0 509.65
							 825.22 A30.2009 9.15286 -51.91 0 0 512.01 822.08 A30.1108 9.18034 -142.19 0 0 524.85 823.1 A30.1108
							 9.18034 -142.19 0 0 519.52 809.61 A30.2009 9.15286 -51.91 0 0 522.18 802.05 A30.3406 9.11095 -95.83
							 0 0 522.3 803.48 A30.3406 9.11095 -95.83 0 0 534.45 832.71 A30.3406 9.11095 -95.83 0 0 540.43 801.58
							 A30.3406 9.11095 -95.83 0 0 537.75 786.94 A30.1108 9.18034 -142.19 0 0 549.04 787.32 A30.1108 9.18034
							 -142.19 0 0 548.38 780.72 A30.1108 9.18034 -142.19 0 0 555.55 779.78 A30.1108 9.18034 -142.19 0 0 550.54
							 766.68 A30.1108 9.18034 -142.19 0 0 562.99 767.54 A30.1108 9.18034 -142.19 0 0 544.71 741.78 A30.1108
							 9.18034 -142.19 0 0 515.37 730.67 A30.1108 9.18034 -142.19 0 0 514.83 733.69 A29.9959 9.21571 -165.91
							 0 0 506.06 730.12 A30.1671 9.16367 -133.6 0 0 502.05 718.51 A29.9959 9.21571 -165.91 0 0 523.63 714.95
							 A29.9959 9.21571 -165.91 0 0 496.72 698.71 A29.9959 9.21571 -165.91 0 0 495.23 698.36 A30.2009 9.15286
							 -51.91 0 0 499.17 696.13 A29.9959 9.21571 -165.91 0 0 518.98 692.35 A29.9959 9.21571 -165.91 0 0 512.22
							 684.02 A30.2009 9.15286 -51.91 0 0 514.98 680.67 A30.2009 9.15286 -51.91 0 0 526.51 651.18 A30.2009
							 9.15286 -51.91 0 0 506.89 662.09 A30.1671 9.16367 -133.6 0 0 504.63 658.28 A30.2009 9.15286 -51.91 0
							 0 515.33 629.87 A30.2009 9.15286 -51.91 0 0 511.64 629.38 A30.1671 9.16367 -133.6 0 0 506.67 616.18
							 A30.2009 9.15286 -51.91 0 0 508.16 602.67 A30.2009 9.15286 -51.91 0 0 498.18 605.21 A30.1671 9.16367
							 -133.6 0 0 496.43 603.31 A30.1671 9.16367 -133.6 0 0 480.7 590.31 A30.3406 9.11095 -95.83 0 0 469.67
							 568.92 A30.3406 9.11095 -95.83 0 0 463.26 587.08 A30.1108 9.18034 -142.19 0 0 461.65 587.26 A30.1671
							 9.16367 -133.6 0 0 458.29 583.54 A30.1671 9.16367 -133.6 0 0 430.91 568.13 A30.1671 9.16367 -133.6 0
							 0 433.77 581.57 A30.2009 9.15286 -51.91 0 0 424.49 588.96 A30.1311 9.17426 -40.97 0 0 426.14 579.64
							 A30.1311 9.17426 -40.97 0 0 422.85 578.45 A30.2009 9.15286 -51.91 0 0 423.51 566.88 A30.2009 9.15286
							 -51.91 0 0 399.11 583.18 A30.1671 9.16367 -133.6 0 0 376.95 572.83 A30.1671 9.16367 -133.6 0 0 376.01
							 575.03 A30.3406 9.11095 -95.83 0 0 370.13 569.87 A30.3406 9.11095 -95.83 0 0 364.47 580.37 A30.1311
							 9.17426 -40.97 0 0 351.86 589.53 A30.1311 9.17426 -40.97 0 0 346.44 594.61 A30.1311 9.17426 -40.97 0
							 0 342.2 597.85 A30.1671 9.16367 -133.6 0 0 319.37 582.38 A30.1311 9.17426 -40.97 0 0 321.02 573.04 A30.1311
							 9.17426 -40.97 0 0 294.6 583.85 A30.1108 9.18034 -142.19 0 0 265.95 573.26 A30.1108 9.18034 -142.19
							 0 0 281.52 596.84 A30.1311 9.17426 -40.97 0 0 278.7 600.65 A30.1108 9.18034 -142.19 0 0 260.48 596.94
							 A30.1108 9.18034 -142.19 0 0 260.07 597.78 A30.1671 9.16367 -133.6 0 0 258.9 596.91 A30.2009 9.15286
							 -51.91 0 0 262.57 579.13 A30.2009 9.15286 -51.91 0 0 252.54 581.71 A30.3406 9.11095 -95.83 0 0 242.76
							 566 L242.76 566 ZM380.26 587.04 A30.1671 9.16367 -133.6 0 0 388.85 598.48 A30.2009 9.15286 -51.91 0
							 0 386.55 603.53 A30.1311 9.17426 -40.97 0 0 382.78 608.85 A30.3406 9.11095 -95.83 0 0 382.28 599.1 A30.3406
							 9.11095 -95.83 0 0 380.26 587.04 ZM314.92 588.75 A30.1671 9.16367 -133.6 0 0 317.79 595.56 A30.1108
							 9.18034 -142.19 0 0 308.85 596 A30.1108 9.18034 -142.19 0 0 308.44 596.87 A30.1108 9.18034 -142.19 0
							 0 307.97 596.3 A30.1311 9.17426 -40.97 0 0 314.92 588.75 ZM364.37 602.95 A30.3406 9.11095 -95.83 0 0
							 366.79 615.49 A30.1311 9.17426 -40.97 0 0 357.93 621.67 A30.1671 9.16367 -133.6 0 0 353.59 612.13 A30.1311
							 9.17426 -40.97 0 0 357.03 608.82 A30.1311 9.17426 -40.97 0 0 363.7 603.55 A30.1311 9.17426 -40.97 0
							 0 364.37 602.95 ZM313.98 609.26 A30.1108 9.18034 -142.19 0 0 314.37 609.73 A30.1333 9.17403 -138.86
							 0 0 316.26 614.37 A30.2009 9.15286 -51.91 0 0 305.43 623.82 A30.1108 9.18034 -142.19 0 0 297.96 615.14
							 A30.2009 9.15286 -51.91 0 0 301.23 609.31 A30.1108 9.18034 -142.19 0 0 313.56 610.12 A30.1108 9.18034
							 -142.19 0 0 313.98 609.26 ZM402.94 611.41 L402.96 611.43 A30.2009 9.15286 -51.91 0 0 402.61 611.66 A30.1311
							 9.17426 -40.97 0 0 402.94 611.41 L402.94 611.41 ZM441.56 611.87 A30.1333 9.17403 -138.86 0 0 449.16
							 619.46 A30.1311 9.17426 -40.97 0 0 439.57 623.83 A30.2009 9.15286 -51.91 0 0 438.39 621.51 A30.2009
							 9.15286 -51.91 0 0 431.88 622.03 A30.2009 9.15286 -51.91 0 0 441.56 611.87 ZM401.07 612.73 A30.2009
							 9.15286 -51.91 0 0 392.11 620.8 A30.3406 9.11095 -95.83 0 0 390.8 618.54 A30.1311 9.17426 -40.97 0 0
							 401.07 612.73 ZM77.41 618.3 A30.318 9.11794 -105.49 0 0 80.07 625.7 A30.3406 9.11095 -95.83 0 0 80.42
							 630.2 A30.3406 9.11095 -95.83 0 0 87.28 655.28 A30.318 9.11794 -105.49 0 0 88.54 665.49 A30.1311 9.17426
							 -40.97 0 0 75.58 672.89 A30.318 9.11794 -105.49 0 0 73.8 669.17 A30.318 9.11794 -105.49 0 0 73.48 665.35
							 A30.318 9.11794 -105.49 0 0 74.71 665.31 A30.318 9.11794 -105.49 0 0 78.47 651.65 A30.1311 9.17426 -40.97
							 0 0 81 640.85 A30.1311 9.17426 -40.97 0 0 76.86 639.71 A30.318 9.11794 -105.49 0 0 75.37 633.6 A30.318
							 9.11794 -105.49 0 0 71.63 622.71 A30.2009 9.15286 -51.91 0 0 77.41 618.3 L77.41 618.3 ZM170.35 620.98
							 A30.318 9.11794 -105.49 0 0 172.25 629.17 A30.318 9.11794 -105.49 0 0 175.42 638.65 A30.318 9.11794
							 -105.49 0 0 171.04 637.02 A30.318 9.11794 -105.49 0 0 167.93 641.42 A30.1333 9.17403 -138.86 0 0 158.55
							 636.37 A30.2009 9.15286 -51.91 0 0 160.03 632.84 A29.9959 9.21571 -165.91 0 0 165.47 629.26 A29.9959
							 9.21571 -165.91 0 0 160.63 622.2 A29.9959 9.21571 -165.91 0 0 170.35 620.98 ZM456.16 625.18 A30.1333
							 9.17403 -138.86 0 0 457.23 625.94 A30.2009 9.15286 -51.91 0 0 455.38 628.21 A30.2009 9.15286 -51.91
							 0 0 453.47 630.75 A30.1311 9.17426 -40.97 0 0 456.16 625.18 ZM380.13 626.35 A30.3406 9.11095 -95.83
							 0 0 379.75 629.53 A30.1333 9.17403 -138.86 0 0 378.63 628.84 A30.3406 9.11095 -95.83 0 0 380.13 626.35
							 ZM287.63 628.81 A30.1108 9.18034 -142.19 0 0 290.8 630.61 A29.9959 9.21571 -165.91 0 0 285.62 632.39
							 A30.1671 9.16367 -133.6 0 0 285.52 631.06 A30.2009 9.15286 -51.91 0 0 287.63 628.81 L287.63 628.81 ZM498.93
							 629.08 A30.1671 9.16367 -133.6 0 0 505.77 632.14 A30.2009 9.15286 -51.91 0 0 495.09 641.41 A30.2009
							 9.15286 -51.91 0 0 492.5 643.62 A30.1671 9.16367 -133.6 0 0 489.21 640.52 A30.2009 9.15286 -51.91 0
							 0 496.61 632.16 A30.2009 9.15286 -51.91 0 0 498.93 629.08 ZM133.04 630.62 A29.9959 9.21571 -165.91 0
							 0 134.17 630.92 A29.9959 9.21571 -165.91 0 0 141.49 632.45 A30.2009 9.15286 -51.91 0 0 137.9 636.29
							 A30.1108 9.18034 -142.19 0 0 134.44 633.48 A30.1108 9.18034 -142.19 0 0 131.3 631.15 A30.3406 9.11095
							 -95.83 0 0 131.62 631.18 A30.3406 9.11095 -95.83 0 0 133.04 630.62 L133.04 630.62 ZM203.8 630.94 A29.9959
							 9.21571 -165.91 0 0 219.75 636.57 A29.9959 9.21571 -165.91 0 0 223.07 637.33 A29.9959 9.21571 -165.91
							 0 0 217.03 641.05 A29.9959 9.21571 -165.91 0 0 217.49 643.68 A29.9959 9.21571 -165.91 0 0 205.84 643.84
							 A30.318 9.11794 -105.49 0 0 203.8 630.94 L203.8 630.94 ZM418.67 632.49 A30.2009 9.15286 -51.91 0 0 412.87
							 639.16 A29.9959 9.21571 -165.91 0 0 410.67 638.57 A30.1311 9.17426 -40.97 0 0 418.67 632.49 ZM332.04
							 632.6 A30.1333 9.17403 -138.86 0 0 340.92 639.38 A30.1311 9.17426 -40.97 0 0 338.76 643.03 A29.9959
							 9.21571 -165.91 0 0 328.85 637.33 A30.2009 9.15286 -51.91 0 0 332.04 632.6 ZM450.64 634.78 A30.2009
							 9.15286 -51.91 0 0 442.61 655.16 A29.9959 9.21571 -165.91 0 0 439.95 654.45 A29.9959 9.21571 -165.91
							 0 0 437.14 653.8 A29.9959 9.21571 -165.91 0 0 435.13 650.07 A30.1311 9.17426 -40.97 0 0 439.03 646.87
							 A30.1311 9.17426 -40.97 0 0 450.64 634.78 ZM350.65 649.33 A30.3406 9.11095 -95.83 0 0 349.22 656.72
							 A30.1311 9.17426 -40.97 0 0 343.17 660.49 A30.1311 9.17426 -40.97 0 0 331.05 662.12 A29.9959 9.21571
							 -165.91 0 0 322.43 652.82 A29.9959 9.21571 -165.91 0 0 339 651.96 A30.1311 9.17426 -40.97 0 0 350.65
							 649.33 ZM184.74 654.26 A30.318 9.11794 -105.49 0 0 189.12 655.88 A30.318 9.11794 -105.49 0 0 189.83
							 655.56 A30.318 9.11794 -105.49 0 0 194.14 666.81 A30.2009 9.15286 -51.91 0 0 193.52 667.49 A30.1333
							 9.17403 -138.86 0 0 185.65 656.64 A30.318 9.11794 -105.49 0 0 184.74 654.26 ZM115.45 659.94 A30.318
							 9.11794 -105.49 0 0 121.65 665.31 A30.2009 9.15286 -51.91 0 0 122.73 669.75 A30.1333 9.17403 -138.86
							 0 0 115.73 666.51 A30.318 9.11794 -105.49 0 0 115.45 659.94 ZM148.32 660.6 L148.37 660.6 A30.1671 9.16367
							 -133.6 0 0 148.96 661.43 A30.1671 9.16367 -133.6 0 0 148.32 660.59 L148.32 660.6 ZM219.33 661.86 A29.9959
							 9.21571 -165.91 0 0 226.26 663.88 A29.9959 9.21571 -165.91 0 0 240.01 666.24 A30.318 9.11794 -105.49
							 0 0 242.16 669.62 A29.9959 9.21571 -165.91 0 0 225.76 669.37 A30.1671 9.16367 -133.6 0 0 219.33 661.86
							 ZM149.8 662.55 A30.1671 9.16367 -133.6 0 0 154.29 668.03 A30.2009 9.15286 -51.91 0 0 153.69 668.52 A30.1671
							 9.16367 -133.6 0 0 149.8 662.55 ZM413.98 664.26 A29.9959 9.21571 -165.91 0 0 415.3 664.38 A29.9959 9.21571
							 -165.91 0 0 434.2 671.99 A30.2009 9.15286 -51.91 0 0 427.74 675.35 A29.9959 9.21571 -165.91 0 0 409.4
							 667.49 A30.2009 9.15286 -51.91 0 0 413.98 664.27 L413.98 664.26 ZM127.74 670.09 A30.318 9.11794 -105.49
							 0 0 128.46 673.41 A30.1333 9.17403 -138.86 0 0 123.84 670.41 A30.2009 9.15286 -51.91 0 0 127.74 670.09
							 ZM439.01 673.15 A29.9959 9.21571 -165.91 0 0 449.56 674.73 A30.2009 9.15286 -51.91 0 0 448.91 676.69
							 A30.1311 9.17426 -40.97 0 0 433.11 695.89 A30.2009 9.15286 -51.91 0 0 432.48 693.83 A30.2009 9.15286
							 -51.91 0 0 432.72 693.44 A29.9959 9.21571 -165.91 0 0 434.27 691.41 A29.9959 9.21571 -165.91 0 0 434.35
							 690.72 A30.2009 9.15286 -51.91 0 0 439.01 673.15 L439.01 673.15 ZM488.93 674.68 A29.9959 9.21571 -165.91
							 0 0 496.53 674.9 A30.2009 9.15286 -51.91 0 0 495.18 676.96 A29.9959 9.21571 -165.91 0 0 492.02 676.11
							 A29.9959 9.21571 -165.91 0 0 488.32 675.27 A30.2009 9.15286 -51.91 0 0 488.93 674.68 L488.93 674.68
							 ZM54.21 675.08 A30.318 9.11794 -105.49 0 0 55.01 678.14 A30.318 9.11794 -105.49 0 0 58.59 688.67 A30.1311
							 9.17426 -40.97 0 0 53.78 695.51 A30.1108 9.18034 -142.19 0 0 40.46 689.96 A30.3406 9.11095 -95.83 0
							 0 40.44 685.51 A30.2009 9.15286 -51.91 0 0 43.52 680.55 A30.1311 9.17426 -40.97 0 0 54.2 675.08 L54.21
							 675.08 ZM368.63 678.76 A30.3406 9.11095 -95.83 0 0 368.51 680.21 A30.2009 9.15286 -51.91 0 0 367.93
							 680.93 A30.3406 9.11095 -95.83 0 0 367.9 679.87 A30.2009 9.15286 -51.91 0 0 368.63 678.76 L368.63 678.76
							 ZM211.16 679.47 A30.1671 9.16367 -133.6 0 0 217.68 684.79 A29.9959 9.21571 -165.91 0 0 208.61 683.92
							 A30.2009 9.15286 -51.91 0 0 211.16 679.47 ZM162.1 683.92 A30.318 9.11794 -105.49 0 0 163.54 686.66 A30.318
							 9.11794 -105.49 0 0 162.61 696.76 A30.1671 9.16367 -133.6 0 0 156.79 691.56 A30.2009 9.15286 -51.91
							 0 0 162.1 683.92 ZM342.37 684.48 A30.2009 9.15286 -51.91 0 0 336.98 702.75 A29.9959 9.21571 -165.91
							 0 0 331.95 702.88 A30.1311 9.17426 -40.97 0 0 331.22 700.18 A30.1311 9.17426 -40.97 0 0 322.78 700.04
							 A30.2009 9.15286 -51.91 0 0 325.84 693.89 A30.1311 9.17426 -40.97 0 0 342.37 684.48 L342.37 684.48 ZM234.26
							 685.23 L234.41 685.29 L234.29 685.41 A30.1671 9.16367 -133.6 0 0 234.26 685.23 L234.26 685.23 ZM177.08
							 686.07 L177.19 686.11 A30.318 9.11794 -105.49 0 0 178.98 689.11 A30.2009 9.15286 -51.91 0 0 177.61 692.57
							 A30.1671 9.16367 -133.6 0 0 176.65 692.91 A30.318 9.11794 -105.49 0 0 176.12 691.94 A30.318 9.11794
							 -105.49 0 0 177.08 686.07 L177.08 686.07 ZM251.39 690.35 A29.9959 9.21571 -165.91 0 0 251.85 690.44
							 A30.2009 9.15286 -51.91 0 0 253.13 693.49 A30.2009 9.15286 -51.91 0 0 257.99 693.64 A29.9959 9.21571
							 -165.91 0 0 263.2 695.78 A30.2009 9.15286 -51.91 0 0 252.9 702.57 A29.9959 9.21571 -165.91 0 0 248.24
							 695.8 A30.2009 9.15286 -51.91 0 0 251.39 690.35 L251.39 690.35 ZM480.34 691.87 A29.9959 9.21571 -165.91
							 0 0 487.64 694.02 L487.9 694.08 A30.2009 9.15286 -51.91 0 0 488.09 696.99 A29.9959 9.21571 -165.91 0
							 0 482.45 696.33 A30.1671 9.16367 -133.6 0 0 479.21 693.83 A30.2009 9.15286 -51.91 0 0 480.34 691.87
							 L480.34 691.87 ZM404.05 693.33 A29.9959 9.21571 -165.91 0 0 409.51 694.46 A30.2009 9.15286 -51.91 0
							 0 407.7 697.14 A29.9959 9.21571 -165.91 0 0 404.05 693.33 ZM457.02 693.71 A30.2009 9.15286 -51.91 0
							 0 445.58 720.15 A30.2009 9.15286 -51.91 0 0 440.4 723.92 A30.2009 9.15286 -51.91 0 0 442.07 710.03 A30.2009
							 9.15286 -51.91 0 0 419.42 724.26 A29.9959 9.21571 -165.91 0 0 419.35 723.75 A30.2009 9.15286 -51.91
							 0 0 420.3 722.57 A30.2009 9.15286 -51.91 0 0 432.14 702.04 A30.1311 9.17426 -40.97 0 0 432.64 702.91
							 A30.1311 9.17426 -40.97 0 0 457.02 693.71 L457.02 693.71 ZM354.37 695.93 A30.3406 9.11095 -95.83 0 0
							 356.56 700.09 A30.2009 9.15286 -51.91 0 0 355.16 705.52 A29.9959 9.21571 -165.91 0 0 354.34 705.31 A29.9959
							 9.21571 -165.91 0 0 344.19 703.36 A30.2009 9.15286 -51.91 0 0 354.37 695.93 ZM110.1 696.57 A29.9959
							 9.21571 -165.91 0 0 111.89 697.17 A30.318 9.11794 -105.49 0 0 112.49 701.13 A30.2009 9.15286 -51.91
							 0 0 109.18 703.91 A30.318 9.11794 -105.49 0 0 108.35 699.51 A30.318 9.11794 -105.49 0 0 110.1 696.57
							 ZM197.81 698.1 A30.1108 9.18034 -142.19 0 0 202.02 705.65 A30.1671 9.16367 -133.6 0 0 200.45 705.89
							 A30.1671 9.16367 -133.6 0 0 194.99 701.03 A30.2009 9.15286 -51.91 0 0 197.81 698.1 ZM404.15 703.11 A30.2009
							 9.15286 -51.91 0 0 400.56 711.48 A29.9959 9.21571 -165.91 0 0 392.58 709.1 A30.2009 9.15286 -51.91 0
							 0 393.93 704.09 A29.9959 9.21571 -165.91 0 0 404.15 703.11 ZM249.63 705.66 A30.2009 9.15286 -51.91 0
							 0 246.14 709.34 A29.9959 9.21571 -165.91 0 0 241.78 708.13 A29.9959 9.21571 -165.91 0 0 239.43 707.58
							 A30.2009 9.15286 -51.91 0 0 239.96 706.96 A29.9959 9.21571 -165.91 0 0 249.63 705.66 ZM469.58 707.15
							 A30.1671 9.16367 -133.6 0 0 477.71 716.9 A30.1671 9.16367 -133.6 0 0 481.16 720.34 A30.1311 9.17426
							 -40.97 0 0 471.09 726.44 A29.9959 9.21571 -165.91 0 0 467.39 729.24 A30.1311 9.17426 -40.97 0 0 464.38
							 731.74 A30.1311 9.17426 -40.97 0 0 456.32 739.6 A30.2009 9.15286 -51.91 0 0 459.75 722.28 A30.2009 9.15286
							 -51.91 0 0 455.46 721.95 A30.2009 9.15286 -51.91 0 0 455.2 720.09 A30.2009 9.15286 -51.91 0 0 469.58
							 707.15 ZM44.95 710.22 A30.1108 9.18034 -142.19 0 0 52.65 716.88 A30.1108 9.18034 -142.19 0 0 54.01 717.91
							 A30.1311 9.17426 -40.97 0 0 53.77 717.98 A30.1108 9.18034 -142.19 0 0 44.12 711.71 A30.2009 9.15286
							 -51.91 0 0 44.95 710.22 L44.95 710.22 ZM265.99 714.22 A30.1333 9.17403 -138.86 0 0 270.23 718.99 A29.9959
							 9.21571 -165.91 0 0 265.66 718.75 A29.9959 9.21571 -165.91 0 0 264.04 717.45 A30.2009 9.15286 -51.91
							 0 0 265.99 714.22 ZM117.87 720.04 A30.318 9.11794 -105.49 0 0 119.61 724.07 A29.9959 9.21571 -165.91
							 0 0 115.68 723.19 A30.2009 9.15286 -51.91 0 0 117.87 720.04 ZM62.21 724.33 A30.318 9.11794 -105.49 0
							 0 62.41 725.21 A30.1108 9.18034 -142.19 0 0 62 724.82 A30.1311 9.17426 -40.97 0 0 62.21 724.33 L62.21
							 724.33 ZM149.14 724.35 A30.1333 9.17403 -138.86 0 0 150.34 725.2 A30.2009 9.15286 -51.91 0 0 149.2 726.44
							 A30.318 9.11794 -105.49 0 0 149.14 724.35 L149.14 724.35 ZM135.16 728.21 A30.318 9.11794 -105.49 0 0
							 136.13 729.91 A29.9959 9.21571 -165.91 0 0 135.06 729.42 A30.318 9.11794 -105.49 0 0 135.16 728.21 L135.16
							 728.21 ZM416.11 728.28 A30.2009 9.15286 -51.91 0 0 413.44 731.86 A29.9959 9.21571 -165.91 0 0 412.49
							 731.37 A30.2009 9.15286 -51.91 0 0 415.16 728.59 A29.9959 9.21571 -165.91 0 0 416.11 728.28 ZM312.28
							 728.66 A29.9959 9.21571 -165.91 0 0 313.22 729.01 A30.2009 9.15286 -51.91 0 0 309.3 733.7 L309.28 733.73
							 A29.9959 9.21571 -165.91 0 0 307.76 732.15 A30.1311 9.17426 -40.97 0 0 312.28 728.66 L312.28 728.66
							 ZM331.39 733.53 A29.9959 9.21571 -165.91 0 0 341.18 734.28 A29.9959 9.21571 -165.91 0 0 340.73 735.23
							 A29.9959 9.21571 -165.91 0 0 343.55 740.67 A30.2009 9.15286 -51.91 0 0 330.38 753.45 A30.1108 9.18034
							 -142.19 0 0 322.53 746.45 A30.2009 9.15286 -51.91 0 0 323.56 745.18 A30.2009 9.15286 -51.91 0 0 331.39
							 733.53 ZM176.09 737.73 A30.318 9.11794 -105.49 0 0 176.55 738.28 A30.318 9.11794 -105.49 0 0 176.74
							 740.87 A30.1333 9.17403 -138.86 0 0 174.85 739.36 A30.2009 9.15286 -51.91 0 0 176.09 737.73 L176.09
							 737.73 ZM480.92 741.41 A29.9959 9.21571 -165.91 0 0 494.16 745.82 A29.9959 9.21571 -165.91 0 0 499.99
							 747.08 A30.1311 9.17426 -40.97 0 0 490.43 754.35 A30.1311 9.17426 -40.97 0 0 489.4 755.26 A30.1671 9.16367
							 -133.6 0 0 474.54 747.18 A30.1311 9.17426 -40.97 0 0 476.23 745.76 A30.1311 9.17426 -40.97 0 0 480.92
							 741.41 ZM260.23 743.21 A29.9959 9.21571 -165.91 0 0 269.79 746.63 A30.2009 9.15286 -51.91 0 0 269.61
							 747.71 A30.2009 9.15286 -51.91 0 0 268.6 748.66 A29.9959 9.21571 -165.91 0 0 265.05 747.69 A29.9959
							 9.21571 -165.91 0 0 258.48 746.3 A30.2009 9.15286 -51.91 0 0 260.24 743.21 L260.23 743.21 ZM96.1 746.15
							 A29.9959 9.21571 -165.91 0 0 101.59 750.89 A30.3406 9.11095 -95.83 0 0 106.86 765.58 A30.2009 9.15286
							 -51.91 0 0 103.89 769.07 A30.318 9.11794 -105.49 0 0 96.59 764.16 A30.318 9.11794 -105.49 0 0 96.18
							 764.33 A30.318 9.11794 -105.49 0 0 94.92 752.02 A30.318 9.11794 -105.49 0 0 96.1 746.15 L96.1 746.15
							 ZM70.17 746.31 A30.318 9.11794 -105.49 0 0 72.32 749.85 A30.318 9.11794 -105.49 0 0 72.56 755 A30.318
							 9.11794 -105.49 0 0 71.62 751.32 A30.318 9.11794 -105.49 0 0 70.09 746.32 L70.17 746.32 L70.17 746.31
							 ZM298.96 749.75 A30.1108 9.18034 -142.19 0 0 299.14 749.95 A30.2009 9.15286 -51.91 0 0 297.77 763.18
							 A30.2009 9.15286 -51.91 0 0 309.41 759.46 A30.1108 9.18034 -142.19 0 0 310.34 760.21 A30.1108 9.18034
							 -142.19 0 0 319.35 766.39 A29.9959 9.21571 -165.91 0 0 317.17 767.97 A29.9959 9.21571 -165.91 0 0 315.27
							 767.47 A29.9959 9.21571 -165.91 0 0 294.39 764.92 A30.2009 9.15286 -51.91 0 0 294.16 764.66 A30.2009
							 9.15286 -51.91 0 0 291.91 764.01 A29.9959 9.21571 -165.91 0 0 291.95 763.93 A29.9959 9.21571 -165.91
							 0 0 285.59 755.86 A30.2009 9.15286 -51.91 0 0 288.85 750.16 A29.9959 9.21571 -165.91 0 0 298.96 749.75
							 L298.96 749.75 ZM469.88 750.79 A30.1671 9.16367 -133.6 0 0 475.96 764.99 A30.1333 9.17403 -138.86 0
							 0 460.87 761.97 A30.1333 9.17403 -138.86 0 0 470.95 782.32 A30.1311 9.17426 -40.97 0 0 466.86 786.26
							 A30.1671 9.16367 -133.6 0 0 458.37 778.75 A29.9959 9.21571 -165.91 0 0 459.39 777.12 A29.9959 9.21571
							 -165.91 0 0 450.67 767.66 A30.2009 9.15286 -51.91 0 0 456.82 758.3 A30.1311 9.17426 -40.97 0 0 469.88
							 750.8 L469.88 750.79 ZM208.69 751.75 A30.1671 9.16367 -133.6 0 0 209.2 752.37 A30.1671 9.16367 -133.6
							 0 0 208.7 751.88 L208.7 751.75 L208.69 751.75 ZM147.22 761.08 A30.318 9.11794 -105.49 0 0 147.19 761.22
							 L147.11 761.1 L147.22 761.07 L147.22 761.08 ZM506.86 764.12 A30.1108 9.18034 -142.19 0 0 519.67 776.21
							 A30.1108 9.18034 -142.19 0 0 523.44 778.98 A30.3406 9.11095 -95.83 0 0 521.82 796.52 A30.2009 9.15286
							 -51.91 0 0 521.16 795.74 A30.2009 9.15286 -51.91 0 0 509.34 799.6 A30.1108 9.18034 -142.19 0 0 506.92
							 797.65 A30.1333 9.17403 -138.86 0 0 503.89 790.86 A30.1671 9.16367 -133.6 0 0 512.54 791.65 A30.1671
							 9.16367 -133.6 0 0 502.5 768.17 A30.1311 9.17426 -40.97 0 0 506.86 764.12 L506.86 764.12 ZM387.9 766.61
							 A30.2009 9.15286 -51.91 0 0 383.26 773.43 A29.9959 9.21571 -165.91 0 0 380.96 772.94 A30.2009 9.15286
							 -51.91 0 0 387.9 766.61 ZM224.85 768.86 A30.2009 9.15286 -51.91 0 0 224.76 770.46 A30.3406 9.11095 -95.83
							 0 0 224.36 769.4 A30.1311 9.17426 -40.97 0 0 224.85 768.86 L224.85 768.86 ZM242.75 769.74 A29.9959 9.21571
							 -165.91 0 0 244.87 770.31 A29.9959 9.21571 -165.91 0 0 251.2 771.66 A30.2009 9.15286 -51.91 0 0 247.25
							 782.93 A29.9959 9.21571 -165.91 0 0 239.08 785.82 A29.9959 9.21571 -165.91 0 0 235.94 786.38 A30.2009
							 9.15286 -51.91 0 0 234.64 782.56 A30.2009 9.15286 -51.91 0 0 227.92 783.17 A30.3406 9.11095 -95.83 0
							 0 225.78 773.63 A30.2009 9.15286 -51.91 0 0 226.05 773.93 A30.2009 9.15286 -51.91 0 0 233.31 773.02
							 A30.1671 9.16367 -133.6 0 0 241.83 773.76 A30.1671 9.16367 -133.6 0 0 242.75 769.74 ZM74.77 770.31 A30.318
							 9.11794 -105.49 0 0 77.34 782.69 A30.318 9.11794 -105.49 0 0 79.27 788.81 A30.1108 9.18034 -142.19 0
							 0 72.89 787.71 A30.318 9.11794 -105.49 0 0 72.4 782.11 A30.318 9.11794 -105.49 0 0 74.77 770.31 ZM407.65
							 770.67 A29.9959 9.21571 -165.91 0 0 415.58 774.67 A30.2009 9.15286 -51.91 0 0 409.9 784.7 A29.9959 9.21571
							 -165.91 0 0 401.07 779.3 A30.2009 9.15286 -51.91 0 0 403.57 776.26 A30.2009 9.15286 -51.91 0 0 407.65
							 770.67 ZM163.58 771.24 A30.1333 9.17403 -138.86 0 0 164.54 772.1 A30.1333 9.17403 -138.86 0 0 167.39
							 774.48 A30.318 9.11794 -105.49 0 0 168.11 777.42 A30.2009 9.15286 -51.91 0 0 167.65 776.9 A30.2009 9.15286
							 -51.91 0 0 165.5 776.25 A30.318 9.11794 -105.49 0 0 163.58 771.24 ZM269.79 774.94 A29.9959 9.21571 -165.91
							 0 0 270.74 776.2 A30.2009 9.15286 -51.91 0 0 266.96 779.32 A29.9959 9.21571 -165.91 0 0 265.64 779.2
							 A30.2009 9.15286 -51.91 0 0 269.79 774.94 L269.79 774.94 ZM120.31 777.51 A29.9959 9.21571 -165.91 0
							 0 126.68 780.28 A29.9959 9.21571 -165.91 0 0 119.38 784.11 A30.318 9.11794 -105.49 0 0 117.69 781.07
							 A30.2009 9.15286 -51.91 0 0 120.31 777.51 ZM168.94 780.43 A30.318 9.11794 -105.49 0 0 169.22 781.37
							 A30.1333 9.17403 -138.86 0 0 168.92 781.29 A30.2009 9.15286 -51.91 0 0 168.94 780.43 L168.94 780.43
							 ZM438.8 780.81 A29.9959 9.21571 -165.91 0 0 441.51 781.11 A30.1671 9.16367 -133.6 0 0 441.61 781.35
							 A30.1311 9.17426 -40.97 0 0 427.47 790.4 A30.1671 9.16367 -133.6 0 0 425.89 789.33 A30.2009 9.15286
							 -51.91 0 0 427.09 788.16 A30.2009 9.15286 -51.91 0 0 438.8 780.81 L438.8 780.81 ZM10.07 782.89 A30.318
							 9.11794 -105.49 0 0 9.16 783 A30.318 9.11794 -105.49 0 0 8.5 814.71 A30.318 9.11794 -105.49 0 0 25.39
							 841.42 A30.318 9.11794 -105.49 0 0 26.04 809.71 A30.318 9.11794 -105.49 0 0 10.07 782.89 ZM346.5 786.07
							 A29.9959 9.21571 -165.91 0 0 347.76 786.34 A30.2009 9.15286 -51.91 0 0 347.72 786.81 A30.1671 9.16367
							 -133.6 0 0 346.51 786.07 L346.5 786.07 ZM299.03 788.89 A29.9959 9.21571 -165.91 0 0 323.76 789.58 A30.1108
							 9.18034 -142.19 0 0 330.86 799.94 A30.1311 9.17426 -40.97 0 0 326.72 803.32 A30.1311 9.17426 -40.97
							 0 0 325.59 804.32 A30.1671 9.16367 -133.6 0 0 324.85 803.63 A30.1311 9.17426 -40.97 0 0 324.72 798.13
							 A30.1311 9.17426 -40.97 0 0 317.57 797.58 A30.1671 9.16367 -133.6 0 0 303.21 791.46 A30.1108 9.18034
							 -142.19 0 0 302.43 791.09 A29.9959 9.21571 -165.91 0 0 299.03 788.89 L299.03 788.89 ZM121.81 789.31
							 A29.9959 9.21571 -165.91 0 0 125.85 792.37 A30.3451 9.10983 -90.37 0 0 124.14 795.53 A30.318 9.11794
							 -105.49 0 0 121.81 789.31 ZM449.03 793.32 A30.1671 9.16367 -133.6 0 0 455.4 800.72 A30.1671 9.16367
							 -133.6 0 0 456.01 801.35 A30.1311 9.17426 -40.97 0 0 455.36 803.46 A30.1108 9.18034 -142.19 0 0 445.87
							 797.33 A30.1311 9.17426 -40.97 0 0 449.03 793.32 ZM384.98 794.82 A29.9959 9.21571 -165.91 0 0 399.83
							 795.06 A30.2009 9.15286 -51.91 0 0 393.31 801.4 A30.1108 9.18034 -142.19 0 0 388.42 797.35 A30.1108
							 9.18034 -142.19 0 0 384.98 794.82 L384.98 794.82 ZM135.08 796.88 A29.9959 9.21571 -165.91 0 0 139.29
							 798.4 A30.2009 9.15286 -51.91 0 0 136.66 802.26 A30.3451 9.10983 -90.37 0 0 135.08 796.88 ZM414.52 798.02
							 A30.1671 9.16367 -133.6 0 0 416.25 800.93 A30.1311 9.17426 -40.97 0 0 415.24 802.08 A30.1333 9.17403
							 -138.86 0 0 412.55 802.97 A30.2009 9.15286 -51.91 0 0 414.52 798.02 ZM367.82 803.52 A30.1108 9.18034
							 -142.19 0 0 377.35 812 A30.1108 9.18034 -142.19 0 0 382.44 815.67 A30.2009 9.15286 -51.91 0 0 379.41
							 820.97 A30.1108 9.18034 -142.19 0 0 375.65 817.33 A30.1671 9.16367 -133.6 0 0 368.26 805.87 A30.3406
							 9.11095 -95.83 0 0 367.82 803.52 ZM294.16 804.18 A30.1108 9.18034 -142.19 0 0 298.59 808.72 A30.1311
							 9.17426 -40.97 0 0 297.09 809.96 A30.1333 9.17403 -138.86 0 0 291.89 805.03 A29.9959 9.21571 -165.91
							 0 0 294.16 804.18 ZM411.51 805.09 A30.1333 9.17403 -138.86 0 0 411.56 806.7 A30.1311 9.17426 -40.97
							 0 0 409.82 809.33 A30.1311 9.17426 -40.97 0 0 408.09 810.97 A30.2009 9.15286 -51.91 0 0 411.51 805.09
							 L411.51 805.09 ZM228.95 806.36 A29.9959 9.21571 -165.91 0 0 234.65 807.98 A29.9959 9.21571 -165.91 0
							 0 235.57 808.2 A30.1311 9.17426 -40.97 0 0 233.08 809.82 A30.1108 9.18034 -142.19 0 0 229.34 806.76
							 A30.1108 9.18034 -142.19 0 0 228.94 806.46 L228.94 806.36 L228.95 806.36 ZM268.88 808.15 A29.9959 9.21571
							 -165.91 0 0 269.38 808.21 A30.1333 9.17403 -138.86 0 0 279.68 818.71 A30.1333 9.17403 -138.86 0 0 284.59
							 822.71 A30.1311 9.17426 -40.97 0 0 280.75 828.38 A30.1333 9.17403 -138.86 0 0 271.17 818.72 A30.1333
							 9.17403 -138.86 0 0 262.51 812.01 A30.2009 9.15286 -51.91 0 0 268.88 808.15 L268.88 808.15 ZM144.51
							 818.66 A30.2009 9.15286 -51.91 0 0 138.37 827.5 A30.3451 9.10983 -90.37 0 0 138.57 822.96 A30.2009 9.15286
							 -51.91 0 0 144.51 818.66 L144.51 818.66 ZM212.25 823.65 A29.9959 9.21571 -165.91 0 0 216.94 823.72 A30.1311
							 9.17426 -40.97 0 0 210.69 831.51 A30.1333 9.17403 -138.86 0 0 208.17 826.9 A30.2009 9.15286 -51.91 0
							 0 212.25 823.65 L212.25 823.65 Z" class="st9"/>
			</g>
			<g id="shape9-19" v:mID="9" v:groupContext="shape" transform="translate(369.79,-339.799)">
				<title>path1194</title>
				<path d="M0 822.8 L78.2 834.52 L5.26 850.77 L0 822.8 Z" class="st8"/>
			</g>
			<g id="shape10-21" v:mID="10" v:groupContext="shape" transform="translate(453.503,-417.971)">
				<title>path1196</title>
				<path d="M0 822.8 L78.2 834.52 L5.26 850.77 L0 822.8 Z" class="st8"/>
			</g>
			<g id="shape11-23" v:mID="11" v:groupContext="shape" transform="translate(608.856,-365.03)">
				<title>path1198</title>
				<path d="M0 822.8 L46.78 829.81 L47.81 841.29 L5.26 850.77 L0 822.8 Z" class="st8"/>
			</g>
			<g id="shape12-25" v:mID="12" v:groupContext="shape" transform="translate(692.592,-469.784)">
				<title>path1200</title>
				<path d="M0 822.8 L78.2 834.52 L5.26 850.77 L0 822.8 Z" class="st8"/>
			</g>
			<g id="shape13-27" v:mID="13" v:groupContext="shape" transform="translate(717.395,-376.294)">
				<title>path1202</title>
				<path d="M0 822.8 L78.2 834.52 L5.26 850.77 L0 822.8 Z" class="st8"/>
			</g>
			<g id="shape14-29" v:mID="14" v:groupContext="shape" transform="translate(562.465,-470.007)">
				<title>path1206</title>
				<path d="M33.59 833.61 A17.3143 17.1027 90 0 1 18.78 850.77 A17.3143 17.1027 90 0 1 0 838.19 A17.3143 17.1027 90
							 0 1 9.8 817.67 A17.3143 17.1027 90 0 1 31.2 824.76 L33.59 833.61 Z" class="st10"/>
				<path d="M33.59 833.61 A17.3143 17.1027 90 0 1 18.78 850.77 A17.3143 17.1027 90 0 1 0 838.19 A17.3143 17.1027 90
							 0 1 9.8 817.67 A17.3143 17.1027 90 0 1 31.2 824.76" class="st11"/>
			</g>
			<g id="shape15-32" v:mID="15" v:groupContext="shape" transform="translate(640.749,-445.902)">
				<title>path1208</title>
				<path d="M33.59 833.61 A17.3143 17.1027 90 0 1 18.78 850.77 A17.3143 17.1027 90 0 1 0 838.19 A17.3143 17.1027 90
							 0 1 9.8 817.67 A17.3143 17.1027 90 0 1 31.2 824.76 L33.59 833.61 Z" class="st10"/>
				<path d="M33.59 833.61 A17.3143 17.1027 90 0 1 18.78 850.77 A17.3143 17.1027 90 0 1 0 838.19 A17.3143 17.1027 90
							 0 1 9.8 817.67 A17.3143 17.1027 90 0 1 31.2 824.76" class="st11"/>
			</g>
			<g id="shape16-35" v:mID="16" v:groupContext="shape" transform="translate(615.744,-335.965)">
				<title>path1210</title>
				<path d="M33.59 833.61 A17.3143 17.1027 90 0 1 18.78 850.77 A17.3143 17.1027 90 0 1 0 838.19 A17.3143 17.1027 90
							 0 1 9.8 817.67 A17.3143 17.1027 90 0 1 31.2 824.76 L33.59 833.61 Z" class="st10"/>
				<path d="M33.59 833.61 A17.3143 17.1027 90 0 1 18.78 850.77 A17.3143 17.1027 90 0 1 0 838.19 A17.3143 17.1027 90
							 0 1 9.8 817.67 A17.3143 17.1027 90 0 1 31.2 824.76" class="st11"/>
			</g>
			<g id="shape17-38" v:mID="17" v:groupContext="shape" transform="translate(535.868,-366.121)">
				<title>path1212</title>
				<path d="M35.86 832.45 C35.86 841.12 29.53 848.45 21.04 849.61 C12.56 850.77 4.53 845.39 2.27 837.03 C0 828.67 4.19
							 819.91 12.07 816.51 C19.95 813.12 6.32 834.94 19.05 838.35 L35.86 832.45 Z" class="st10"/>
				<path d="M35.86 832.45 C35.86 841.12 29.53 848.45 21.04 849.61 C12.56 850.77 4.53 845.39 2.27 837.03 C0 828.67 4.19
							 819.91 12.07 816.51 C19.95 813.12 6.32 834.94 19.05 838.35" class="st11"/>
			</g>
			<g id="shape18-41" v:mID="18" v:groupContext="shape" transform="translate(732.191,-335.965)">
				<title>path1214</title>
				<path d="M33.59 833.61 A17.3143 17.1027 90 0 1 18.78 850.77 A17.3143 17.1027 90 0 1 0 838.19 A17.3143 17.1027 90
							 0 1 9.8 817.67 A17.3143 17.1027 90 0 1 31.2 824.76 L33.59 833.61 Z" class="st10"/>
				<path d="M33.59 833.61 A17.3143 17.1027 90 0 1 18.78 850.77 A17.3143 17.1027 90 0 1 0 838.19 A17.3143 17.1027 90
							 0 1 9.8 817.67 A17.3143 17.1027 90 0 1 31.2 824.76" class="st11"/>
			</g>
			<g id="shape19-44" v:mID="19" v:groupContext="shape" transform="translate(740.075,-418.643)">
				<title>path1216</title>
				<path d="M33.59 833.61 A17.3143 17.1027 90 0 1 18.78 850.77 A17.3143 17.1027 90 0 1 -0 838.19 A17.3143 17.1027 90
							 0 1 9.8 817.67 A17.3143 17.1027 90 0 1 31.2 824.76 L33.59 833.61 Z" class="st10"/>
				<path d="M33.59 833.61 A17.3143 17.1027 90 0 1 18.78 850.77 A17.3143 17.1027 90 0 1 -0 838.19 A17.3143 17.1027 90
							 0 1 9.8 817.67 A17.3143 17.1027 90 0 1 31.2 824.76" class="st11"/>
			</g>
			<g id="shape20-47" v:mID="20" v:groupContext="shape" transform="translate(446.041,-454.688)">
				<title>path1218</title>
				<path d="M33.59 833.61 A17.3143 17.1027 90 0 1 18.78 850.77 A17.3143 17.1027 90 0 1 0 838.19 A17.3143 17.1027 90
							 0 1 9.8 817.67 A17.3143 17.1027 90 0 1 31.2 824.76 L33.59 833.61 Z" class="st10"/>
				<path d="M33.59 833.61 A17.3143 17.1027 90 0 1 18.78 850.77 A17.3143 17.1027 90 0 1 0 838.19 A17.3143 17.1027 90
							 0 1 9.8 817.67 A17.3143 17.1027 90 0 1 31.2 824.76" class="st11"/>
			</g>
			<g id="shape21-50" v:mID="21" v:groupContext="shape" transform="translate(443.405,-335.29)">
				<title>path1220</title>
				<path d="M33.59 833.61 A17.3143 17.1027 90 0 1 18.78 850.77 A17.3143 17.1027 90 0 1 0 838.19 A17.3143 17.1027 90
							 0 1 9.8 817.67 A17.3143 17.1027 90 0 1 31.2 824.76 L33.59 833.61 Z" class="st10"/>
				<path d="M33.59 833.61 A17.3143 17.1027 90 0 1 18.78 850.77 A17.3143 17.1027 90 0 1 0 838.19 A17.3143 17.1027 90
							 0 1 9.8 817.67 A17.3143 17.1027 90 0 1 31.2 824.76" class="st11"/>
			</g>
			<g id="shape22-53" v:mID="22" v:groupContext="shape" transform="translate(357.23,-320.878)">
				<title>path1222</title>
				<path d="M18.78 849.61 C10.29 850.77 2.27 845.39 0 837.03 L18.78 849.61 Z" class="st10"/>
				<path d="M18.78 849.61 C10.29 850.77 2.27 845.39 0 837.03" class="st11"/>
			</g>
			<g id="shape23-56" v:mID="23" v:groupContext="shape" transform="translate(66.5868,-416.275)">
				<title>path1794</title>
				<rect x="0" y="792.941" width="236.318" height="57.8245" class="st9"/>
			</g>
			<g id="shape24-58" v:mID="24" v:groupContext="shape" transform="translate(72,-418.5)">
				<title>text1798</title>
				<desc>Fragrance</desc>
				<v:textBlock v:margins="rect(0,0,0,0)"/>
				<v:textRect cx="111.753" cy="823.732" width="223.51" height="54.0669"/>
				<rect x="0" y="796.699" width="223.506" height="54.0669" class="st3"/>
				<text x="10.75" y="837.25" class="st12" v:langID="1033"><v:paragraph v:horizAlign="1"/><v:tabList/>Fragrance</text>			</g>
			<g id="shape25-61" v:mID="25" v:groupContext="shape" transform="translate(66.5868,-306.339)">
				<title>path1800</title>
				<rect x="0" y="792.941" width="236.318" height="57.8246" class="st9"/>
			</g>
			<g id="shape26-63" v:mID="26" v:groupContext="shape" transform="translate(80.8426,-306)">
				<title>text1804</title>
				<desc>Stickiness</desc>
				<v:textBlock v:margins="rect(0,0,0,0)"/>
				<v:textRect cx="108.079" cy="823.732" width="216.16" height="54.0669"/>
				<rect x="0" y="796.699" width="216.157" height="54.0669" class="st3"/>
				<text x="0" y="837.25" class="st12" v:langID="1033"><v:paragraph/><v:tabList/>Stickiness</text>			</g>
			<g id="shape27-66" v:mID="27" v:groupContext="shape" transform="translate(852.179,-416.275)">
				<title>path1806</title>
				<path d="M0 792.94 L266.66 792.94 L266.66 850.77 L0 850.77 L0 792.94 Z" class="st9"/>
			</g>
			<g id="shape28-68" v:mID="28" v:groupContext="shape" transform="translate(856.008,-419.356)">
				<title>text1810</title>
				<desc>Price per kg</desc>
				<v:textBlock v:margins="rect(0,0,0,0)"/>
				<v:textRect cx="125.496" cy="823.732" width="251" height="54.0669"/>
				<rect x="0" y="796.699" width="250.992" height="54.0669" class="st3"/>
				<text x="7.06" y="837.25" class="st12" v:langID="1033"><v:paragraph v:horizAlign="1"/><v:tabList/>Price per kg</text>			</g>
			<g id="shape29-71" v:mID="29" v:groupContext="shape" transform="translate(902.417,-306.339)">
				<title>path1812</title>
				<rect x="0" y="792.941" width="186.085" height="57.8246" class="st9"/>
			</g>
			<g id="shape30-73" v:mID="30" v:groupContext="shape" transform="translate(910.97,-306)">
				<title>text1816</title>
				<desc>Recipes</desc>
				<v:textBlock v:margins="rect(0,0,0,0)"/>
				<v:textRect cx="83.5297" cy="823.732" width="167.06" height="54.0669"/>
				<rect x="0" y="796.699" width="167.059" height="54.0669" class="st3"/>
				<text x="4.28" y="837.25" class="st12" v:langID="1033"><v:paragraph v:horizAlign="1"/><v:tabList/>Recipes</text>			</g>
		</g>
	</g>
</svg>
